<?xml version="1.0" encoding="UTF-8"?><svg id="uuid-836c4283-e0f7-47d3-ab22-b0bb2977c7a7" xmlns="http://www.w3.org/2000/svg" xmlns:xlink="http://www.w3.org/1999/xlink" viewBox="0 0 2904.58 2514.4"><defs><linearGradient id="uuid-57f4e2bd-b61e-4ee7-ad18-3779d4ffc30b" x1="2492.04" y1="1207.69" x2="2762.79" y2="1207.69" gradientUnits="userSpaceOnUse"><stop offset="0" stop-color="#dae3fe"/><stop offset="1" stop-color="#e9effd"/></linearGradient><linearGradient id="uuid-bf846d69-b39a-4d29-827b-54a982fc63dc" x1="-1351.94" y1="2288.03" x2="-770.07" y2="542.43" gradientTransform="translate(350.36) rotate(-180) scale(1 -1)" gradientUnits="userSpaceOnUse"><stop offset="0" stop-color="#09005d"/><stop offset="1" stop-color="#1a0f91"/></linearGradient><linearGradient id="uuid-f6ade8c7-c76e-4d36-86ac-ad467ee2a976" x1="-107.32" y1="2701.81" x2="2375.84" y2="967.29" gradientUnits="userSpaceOnUse"><stop offset="0" stop-color="#fe7062"/><stop offset="1" stop-color="#ff928e"/></linearGradient><linearGradient id="uuid-656880d1-4466-4a6e-b1df-df3a7730b7b3" x1="1571.77" y1="884.07" x2="1444.47" y2="2554.87" gradientTransform="translate(2904.58 4904.41) rotate(-180)" xlink:href="#uuid-bf846d69-b39a-4d29-827b-54a982fc63dc"/><linearGradient id="uuid-6bb3be3b-d027-4c0c-abd6-59ebd1ea6df7" x1="2004.23" y1="331.12" x2="-20.34" y2="4035.8" gradientUnits="userSpaceOnUse"><stop offset="0" stop-color="#4f52ff"/><stop offset="1" stop-color="#4042e2"/></linearGradient><linearGradient id="uuid-c8a21830-3394-47d7-8b5d-81dd4389a781" x1="1128.65" y1="425.1" x2="1444.99" y2="836.34" gradientTransform="translate(1074.85 -793.02) rotate(45)" xlink:href="#uuid-6bb3be3b-d027-4c0c-abd6-59ebd1ea6df7"/><linearGradient id="uuid-bb191c28-3c73-4ffd-9bca-a8f5c8d63a34" x1="1581.94" y1="757.61" x2="1856.09" y2="288.4" gradientTransform="translate(1075.88 -795.5) rotate(45)" xlink:href="#uuid-6bb3be3b-d027-4c0c-abd6-59ebd1ea6df7"/><linearGradient id="uuid-2ea966a9-3e22-44d4-bfa9-21ab49dbc54b" x1="1734.66" y1="1139.01" x2="1824.88" y2="1243.28" xlink:href="#uuid-6bb3be3b-d027-4c0c-abd6-59ebd1ea6df7"/><linearGradient id="uuid-32e4cdcb-63f4-4bcd-aa15-b7e551835042" x1="1960.11" y1="1569.4" x2="1960.11" y2="1309.3" xlink:href="#uuid-f6ade8c7-c76e-4d36-86ac-ad467ee2a976"/><linearGradient id="uuid-fac2a686-1781-40f2-8013-e75f031c757b" x1="1281.24" y1="1139.01" x2="1371.46" y2="1243.28" xlink:href="#uuid-6bb3be3b-d027-4c0c-abd6-59ebd1ea6df7"/><linearGradient id="uuid-7a72949e-250d-4e12-98ce-337f31c7884e" x1="1506.69" y1="1569.4" x2="1506.69" y2="1309.3" xlink:href="#uuid-f6ade8c7-c76e-4d36-86ac-ad467ee2a976"/><linearGradient id="uuid-55e0fe10-9456-4088-be8d-6e736337b50c" x1="817.28" y1="1139.01" x2="907.49" y2="1243.28" xlink:href="#uuid-6bb3be3b-d027-4c0c-abd6-59ebd1ea6df7"/><linearGradient id="uuid-8eaa3029-5d34-4ecc-bbca-4c7cb8769fbf" x1="1042.73" y1="1569.4" x2="1042.73" y2="1309.3" xlink:href="#uuid-f6ade8c7-c76e-4d36-86ac-ad467ee2a976"/><linearGradient id="uuid-8cdb1055-4973-476d-a849-3192e1362ae3" x1="1734.66" y1="1564.31" x2="1824.88" y2="1668.58" xlink:href="#uuid-6bb3be3b-d027-4c0c-abd6-59ebd1ea6df7"/><linearGradient id="uuid-c446ff2b-0ca9-44ad-9ad3-ea56c1dd72d8" x1="1960.11" y1="1994.7" x2="1960.11" y2="1734.6" xlink:href="#uuid-f6ade8c7-c76e-4d36-86ac-ad467ee2a976"/><linearGradient id="uuid-3ead4214-ce4f-4c64-a4e0-ab7862ab241c" x1="1281.24" y1="1564.31" x2="1371.46" y2="1668.58" xlink:href="#uuid-6bb3be3b-d027-4c0c-abd6-59ebd1ea6df7"/><linearGradient id="uuid-00820263-88ad-45fd-9fc8-342aab3ece6a" x1="1506.69" y1="1994.7" x2="1506.69" y2="1734.6" xlink:href="#uuid-f6ade8c7-c76e-4d36-86ac-ad467ee2a976"/><linearGradient id="uuid-f239af96-ecf5-46a0-bedd-3f3d2bb9412a" x1="817.28" y1="1564.31" x2="907.49" y2="1668.58" xlink:href="#uuid-6bb3be3b-d027-4c0c-abd6-59ebd1ea6df7"/><linearGradient id="uuid-75850bcf-cccf-439b-a995-b7ada93e6ee1" x1="1042.73" y1="1994.7" x2="1042.73" y2="1734.6" xlink:href="#uuid-f6ade8c7-c76e-4d36-86ac-ad467ee2a976"/><linearGradient id="uuid-f8dfe86c-a133-4cca-a55b-c5baa4c0f25c" x1="1699.72" y1="38.56" x2="932.67" y2="1442.16" xlink:href="#uuid-6bb3be3b-d027-4c0c-abd6-59ebd1ea6df7"/><linearGradient id="uuid-dc78639f-8dfe-44d5-bb0b-0a5f1b517506" x1="6588.26" y1="4666.71" x2="6602.32" y2="4540.17" gradientTransform="translate(-6236.48)" xlink:href="#uuid-6bb3be3b-d027-4c0c-abd6-59ebd1ea6df7"/><linearGradient id="uuid-4d9c3516-7a08-4e39-9810-1bbc04e39e04" x1="6757.25" y1="2318.87" x2="6801.54" y2="2318.87" gradientTransform="translate(-6236.48)" gradientUnits="userSpaceOnUse"><stop offset="0" stop-color="#febbba"/><stop offset="1" stop-color="#ff928e"/></linearGradient><linearGradient id="uuid-bb3683c5-5999-428e-bc42-ece916ad7411" x1="-1458.61" y1="12525.51" x2="-910.24" y2="11818.95" gradientTransform="translate(-6236.48)" xlink:href="#uuid-bf846d69-b39a-4d29-827b-54a982fc63dc"/><linearGradient id="uuid-612a0f23-ce69-485b-8e64-c52ec22ee069" x1="6373.86" y1="4642.89" x2="6387.92" y2="4516.35" gradientTransform="translate(-6236.48)" xlink:href="#uuid-6bb3be3b-d027-4c0c-abd6-59ebd1ea6df7"/><linearGradient id="uuid-ef7f8def-0f33-4e3c-9812-435a191d7c1a" x1="6597.64" y1="2316.6" x2="6635.88" y2="2316.6" xlink:href="#uuid-4d9c3516-7a08-4e39-9810-1bbc04e39e04"/><linearGradient id="uuid-f99a880f-e117-4432-a1ed-5130de61bd45" x1="-1531.25" y1="12469.13" x2="-982.88" y2="11762.56" gradientTransform="translate(-6236.48)" xlink:href="#uuid-bf846d69-b39a-4d29-827b-54a982fc63dc"/><linearGradient id="uuid-d96c4bd2-2b73-46a6-9f63-b50007d3c12f" x1="-2626.11" y1="1191.83" x2="-2408.14" y2="2368.34" gradientTransform="translate(-2066.62) rotate(-180) scale(1 -1)" xlink:href="#uuid-6bb3be3b-d027-4c0c-abd6-59ebd1ea6df7"/><linearGradient id="uuid-4aa4a45e-609d-4925-8a02-ae3148514090" x1="882.46" y1="861.08" x2="661.03" y2="1720.43" gradientTransform="matrix(1,0,0,1,0,0)" xlink:href="#uuid-4d9c3516-7a08-4e39-9810-1bbc04e39e04"/><linearGradient id="uuid-6c42dfab-3b8f-43cc-87a0-e878d4353357" x1="811.68" y1="1009.03" x2="1029.6" y2="966.85" gradientTransform="matrix(1,0,0,1,0,0)" xlink:href="#uuid-4d9c3516-7a08-4e39-9810-1bbc04e39e04"/><linearGradient id="uuid-0c34810b-e261-45c2-8e5a-eca95b539af9" x1="940.23" y1="966.01" x2="980.07" y2="813.7" gradientTransform="matrix(1,0,0,1,0,0)" xlink:href="#uuid-4d9c3516-7a08-4e39-9810-1bbc04e39e04"/><linearGradient id="uuid-5bedae6b-e1a2-46bf-85b3-74a615633b93" x1="-2406.11" y1="1151.07" x2="-2188.14" y2="2327.58" gradientTransform="translate(-2066.62) rotate(-180) scale(1 -1)" xlink:href="#uuid-6bb3be3b-d027-4c0c-abd6-59ebd1ea6df7"/><linearGradient id="uuid-d3ddd5ed-f9c9-4827-a4ef-5a2df799d3b1" x1="6444.39" y1="1483.95" x2="6730.73" y2="1483.95" xlink:href="#uuid-4d9c3516-7a08-4e39-9810-1bbc04e39e04"/><linearGradient id="uuid-96361dd1-fbc2-4b48-9293-5fb6f5091275" x1="6915.93" y1="1176.97" x2="6882.39" y2="1324.21" gradientTransform="translate(-6236.48)" xlink:href="#uuid-6bb3be3b-d027-4c0c-abd6-59ebd1ea6df7"/><linearGradient id="uuid-7846f90d-7437-4c3b-8618-209649aa6cfd" x1="6898.38" y1="1238.73" x2="6882.34" y2="1334.95" gradientTransform="translate(-6236.48)" xlink:href="#uuid-6bb3be3b-d027-4c0c-abd6-59ebd1ea6df7"/><linearGradient id="uuid-abc09e7b-2c6a-4bb2-b54e-4663ba35593b" x1="6709.47" y1="1453.93" x2="6798.67" y2="1453.93" xlink:href="#uuid-4d9c3516-7a08-4e39-9810-1bbc04e39e04"/><linearGradient id="uuid-42117807-c777-41c7-909f-cd20173944b6" x1="6664.26" y1="1177.84" x2="6777.46" y2="1177.84" xlink:href="#uuid-4d9c3516-7a08-4e39-9810-1bbc04e39e04"/><linearGradient id="uuid-b961789a-1891-476d-af04-3da79bd141dc" x1="-575.87" y1="2636.65" x2="-618.17" y2="2497.12" gradientTransform="translate(-758.24 -1244.58) rotate(-41.75)" xlink:href="#uuid-4d9c3516-7a08-4e39-9810-1bbc04e39e04"/><linearGradient id="uuid-f9df2f91-10c4-4d32-9922-1850eea6feab" x1="-614.03" y1="2393.54" x2="-578.64" y2="2595.37" gradientTransform="translate(-758.24 -1244.58) rotate(-41.75)" xlink:href="#uuid-bf846d69-b39a-4d29-827b-54a982fc63dc"/><linearGradient id="uuid-b9bbb2ac-f7bb-4315-9714-e7807d33232e" x1="-619.11" y1="2636" x2="-657.17" y2="2510.46" gradientTransform="translate(-758.24 -1244.58) rotate(-41.75)" xlink:href="#uuid-4d9c3516-7a08-4e39-9810-1bbc04e39e04"/></defs><path d="M2816.06,589.02c-4.65-4.65-10.84-11.52-15-7.85-67.22,59.34-229.71,236.68-199.28,543.57,38.18,385.04-50.02,526.52-157.25,613.33,23.22,1.52,67.25,2.11,116.62-14.37,382.52-127.64,354.54-1035.17,254.91-1134.68Z" style="fill:#bdd0fb; stroke-width:0px;"/><path d="M2762.74,709.91c-9.43,43-17.97,86.11-24.86,129.41-7.12,43.26-12.87,86.66-17.2,130.12-4.16,43.46-7.46,86.96-8.82,130.47-1.57,43.5-1.18,86.95-.63,130.56.3,43.6.86,87.51-3.3,131.78-4.11,44.18-13.8,88.8-31.68,130.71-4.47,10.45-9.16,20.86-14.43,30.93-5.08,10.16-10.63,20.13-16.36,30-11.56,19.7-24.48,38.75-38.79,56.86-28.72,36.15-63.03,68.29-100.59,95.58-3.95,2.87-9.48,2.23-12.35-1.44-2.81-3.6-2.01-8.78,1.76-11.68l.03-.02c8.95-6.88,17.81-13.84,26.33-21.15,4.32-3.59,8.47-7.35,12.69-11.04,4.07-3.83,8.3-7.51,12.25-11.45,16.06-15.51,31.01-32.04,44.63-49.5,27.4-34.76,49.65-73.41,66.81-113.42,8.35-20.1,15.15-40.69,20.29-61.65,5.12-20.97,8.58-42.28,10.76-63.76,4.38-42.97,4.21-86.45,4.24-130.06.09-43.62.5-87.47,2.8-131.3,1.09-21.91,2.59-43.82,4.5-65.71.89-10.94,2-21.88,3.09-32.81,1.2-10.93,2.46-21.85,3.82-32.76,5.5-43.65,12.4-87.17,20.71-130.47,8.53-43.27,18.26-86.35,29.7-129.07.33-1.22,1.62-1.99,2.89-1.73,1.23.26,1.99,1.41,1.73,2.59Z" style="fill:url(#uuid-57f4e2bd-b61e-4ee7-ad18-3779d4ffc30b); stroke-width:0px;"/><path d="M2363.69,1757.95c-11.61,14.91-35.46,8.73-38.48-9.92-33.24-205.45-150.49-1024.21-6.33-1568.3,10.29-38.85,59.65-50.72,86.18-20.52,167.63,190.85,582.25,797.58-41.37,1598.75Z" style="fill:#91b3fa; stroke-width:0px;"/><path d="M2400.3,431.36c8.02,26.23,14.18,52.92,19.87,79.72,5.57,26.81,10.53,53.76,14.72,80.84,8.53,54.12,14.51,108.64,18.76,163.27,4.21,54.64,6.49,109.44,7.21,164.25.72,54.82-.59,109.66-2.99,164.44l-2.13,41.08-2.85,41.03-1.46,20.52-1.84,20.49-3.71,40.97c-5.85,54.53-12.18,109.05-20.64,163.26-16.32,108.51-37.7,216.28-63.68,322.94-1.46,5.98-7.49,9.65-13.47,8.19-5.98-1.46-9.65-7.49-8.19-13.47,0-.04.04-.14.05-.18,27.54-105.61,50.53-212.44,68.5-320.14,9.29-53.81,16.46-107.95,23.16-162.14l4.35-40.72,2.16-20.37,1.78-20.4,3.5-40.81,2.78-40.87c3.27-54.52,5.45-109.13,5.62-163.77.17-54.64-1.23-109.29-4.55-163.84-3.36-54.55-8.45-109.02-16.09-163.16-3.75-27.08-8.26-54.05-13.39-80.91-5.24-26.82-10.98-53.61-18.54-79.86v-.02c-.09-.3.08-.62.38-.71.3-.09.61.08.7.38Z" style="fill:#bdd0fb; stroke-width:0px;"/><path d="M199.86,2351.36c0,25.03,20.5,45.52,45.56,45.52h2463.68c25.06,0,45.56-20.48,45.56-45.52l20.5-1415.81c0-25.03-29.49-73.91-83.55-70.23l-2407.78-62.3c-31.44-.81-61.84,11.29-84.1,33.48-22.26,22.19-34.45,52.53-33.7,83.94l33.83,1430.92Z" style="fill:url(#uuid-bf846d69-b39a-4d29-827b-54a982fc63dc); stroke-width:0px;"/><path d="M244.84,2307.69c0,23.71,19.4,43.1,43.1,43.1h2361.74c23.71,0,43.1-19.4,43.1-43.1l19.35-1285.28c-2.28-77.35-70.09-105.14-111.19-103.5l-2307.64-61.91c-22.09-.59-43.44,7.92-59.09,23.52-15.64,15.6-24.25,36.96-23.69,59.05l34.32,1368.13Z" style="fill:url(#uuid-f6ade8c7-c76e-4d36-86ac-ad467ee2a976); stroke-width:0px;"/><g style="opacity:.63;"><path d="M2667.27,1697.09h-.09c-3.49-.05-6.28-2.92-6.22-6.41l1.53-104.23c.05-3.46,2.87-6.22,6.31-6.22h.09c3.49.05,6.28,2.92,6.22,6.41l-1.53,104.23c-.05,3.46-2.87,6.22-6.31,6.22Z" style="fill:#fff; stroke-width:0px;"/><path d="M2671.02,1441.66h-.09c-3.49-.05-6.28-2.93-6.22-6.41l5.86-399.22c-.11-23.71-7.31-42.65-21.4-56.15-26.3-25.19-68.05-23.91-69.81-23.83l-737.57-19.78c-3.49-.09-6.24-2.99-6.14-6.48.09-3.49,2.77-6.46,6.48-6.14l737.13,19.78c4.59-.27,49.04-1.04,78.65,27.33,16.65,15.96,25.16,37.94,25.29,65.33l-5.86,399.35c-.05,3.46-2.87,6.22-6.31,6.22Z" style="fill:#fff; stroke-width:0px;"/></g><rect x="0" y="2390.01" width="2904.58" height="124.4" rx="5.65" ry="5.65" transform="translate(2904.58 4904.41) rotate(180)" style="fill:url(#uuid-656880d1-4466-4a6e-b1df-df3a7730b7b3); stroke-width:0px;"/><g style="opacity:.64;"><path d="M203.52,577.7c-3-.38-5.52-2.7-6.03-5.84-.6-3.75-1.15-7.51-1.64-11.29-.5-3.83,2.21-7.35,6.04-7.85,3.81-.51,7.34,2.2,7.85,6.04.47,3.64,1,7.26,1.58,10.87.61,3.82-1.98,7.41-5.8,8.02-.68.11-1.35.12-1.99.03Z" style="fill:#91b3fa; stroke-width:0px;"/><path d="M198.86,529.6c-3.35-.43-5.99-3.23-6.11-6.71-.26-7.73-.3-15.56-.1-23.28.1-3.87,3.31-6.92,7.18-6.82,3.89.09,6.92,3.31,6.82,7.18-.19,7.44-.15,15,.1,22.45.13,3.86-2.89,7.1-6.76,7.24-.38.01-.76,0-1.13-.05ZM201.47,469.68c-3.81-.49-6.53-3.96-6.07-7.78l.31-2.52c.86-6.79,1.92-13.69,3.15-20.5.69-3.81,4.27-6.37,8.13-5.65,3.81.68,6.34,4.32,5.65,8.13-1.18,6.58-2.21,13.23-3.04,19.79l-.3,2.42c-.46,3.84-3.95,6.58-7.79,6.11-.02,0-.03,0-.05,0ZM213.16,410.87c-.33-.04-.67-.11-1.01-.2-3.73-1.04-5.9-4.9-4.86-8.63,2.08-7.46,4.4-14.93,6.91-22.22,1.26-3.66,5.24-5.6,8.9-4.35,3.66,1.26,5.61,5.24,4.35,8.9-2.41,7.03-4.65,14.24-6.66,21.44-.94,3.39-4.23,5.5-7.62,5.07ZM233.66,354.52c-.68-.09-1.36-.27-2.01-.57-3.52-1.6-5.08-5.75-3.48-9.27,3.19-7.02,6.63-14.05,10.24-20.9,1.81-3.42,6.04-4.73,9.46-2.93,3.42,1.8,4.73,6.04,2.93,9.46-3.48,6.61-6.81,13.39-9.88,20.16-1.3,2.86-4.29,4.43-7.26,4.05ZM262.59,302.01c-1.02-.13-2.04-.49-2.96-1.1-3.23-2.12-4.13-6.46-2.01-9.7,4.25-6.46,8.74-12.88,13.37-19.09,2.31-3.1,6.69-3.74,9.8-1.43,3.1,2.31,3.74,6.7,1.43,9.8-4.46,5.99-8.8,12.18-12.89,18.41-1.52,2.31-4.17,3.43-6.74,3.1ZM299.32,254.56c-1.37-.17-2.71-.76-3.81-1.76-2.87-2.6-3.08-7.02-.49-9.89,5.2-5.74,10.62-11.39,16.13-16.8,2.76-2.71,7.19-2.67,9.9.09,2.71,2.76,2.67,7.19-.09,9.9-5.31,5.22-10.55,10.67-15.56,16.2-1.59,1.76-3.89,2.52-6.08,2.25ZM342.89,213.33c-1.73-.22-3.37-1.08-4.55-2.54-2.44-3-1.97-7.41,1.03-9.85,6.01-4.87,12.23-9.62,18.51-14.12,3.14-2.26,7.51-1.54,9.77,1.6,2.25,3.14,1.54,7.52-1.61,9.77-6.05,4.34-12.05,8.93-17.85,13.63-1.54,1.25-3.46,1.74-5.29,1.51ZM392.24,179.24c-2.09-.27-4.03-1.46-5.17-3.42-1.95-3.34-.82-7.63,2.52-9.58,6.68-3.89,13.55-7.64,20.43-11.13,3.44-1.75,7.66-.38,9.41,3.07,1.75,3.45.38,7.66-3.07,9.41-6.64,3.37-13.27,6.98-19.71,10.74-1.38.81-2.93,1.09-4.41.9ZM446.19,153.08c-2.46-.31-4.67-1.92-5.64-4.39-1.41-3.6.35-7.66,3.95-9.08,7.18-2.82,14.54-5.47,21.88-7.87,3.68-1.21,7.63.8,8.83,4.48,1.2,3.68-.8,7.63-4.48,8.83-7.08,2.32-14.18,4.87-21.11,7.6-1.13.45-2.31.58-3.44.43ZM811.44,196.11c-1.09-.14-2.16-.53-3.12-1.2-6.11-4.26-12.43-8.4-18.79-12.3-3.3-2.02-4.33-6.33-2.31-9.63,2.02-3.3,6.33-4.33,9.63-2.31,6.59,4.04,13.15,8.33,19.48,12.75,3.17,2.21,3.95,6.58,1.74,9.75-1.54,2.21-4.13,3.26-6.63,2.94ZM503.49,135.5c-2.84-.36-5.28-2.46-5.95-5.42-.85-3.77,1.53-7.52,5.3-8.36,7.53-1.69,15.21-3.17,22.82-4.41,3.8-.63,7.41,1.97,8.04,5.79.62,3.82-1.97,7.41-5.79,8.04-7.33,1.2-14.74,2.63-22,4.25-.82.18-1.63.21-2.42.11ZM759.74,165.71c-.74-.09-1.48-.31-2.19-.65-6.7-3.27-13.59-6.38-20.46-9.25-3.57-1.49-5.26-5.59-3.77-9.16,1.48-3.57,5.57-5.26,9.16-3.77,7.13,2.97,14.27,6.2,21.21,9.59,3.48,1.7,4.92,5.89,3.22,9.36-1.35,2.77-4.28,4.24-7.18,3.88ZM562.79,126.96c-3.26-.41-5.87-3.09-6.09-6.49-.25-3.86,2.67-7.19,6.53-7.44,7.72-.51,15.54-.79,23.26-.83,3.85-.03,7.02,3.09,7.04,6.96.03,3.87-3.09,7.02-6.96,7.05-7.44.05-14.99.32-22.43.8-.46.03-.91.02-1.35-.04ZM703.97,143.66c-.4-.05-.79-.14-1.19-.26-7.12-2.2-14.4-4.22-21.65-6-3.75-.92-6.05-4.72-5.13-8.47.92-3.75,4.72-6.05,8.47-5.13,7.5,1.84,15.05,3.93,22.43,6.21,3.7,1.14,5.77,5.06,4.63,8.76-1.02,3.3-4.25,5.31-7.57,4.88ZM622.75,127.68c-3.71-.47-6.42-3.81-6.08-7.57.34-3.85,3.75-6.69,7.6-6.35,7.66.68,15.41,1.6,23.11,2.74,3.83.57,6.47,4.13,5.9,7.95-.56,3.83-4.25,6.52-7.95,5.9-7.43-1.1-14.91-1.99-22.3-2.65-.09,0-.18-.02-.27-.03Z" style="fill:#91b3fa; stroke-width:0px;"/><path d="M849.49,226.36c-1.37-.17-2.7-.75-3.8-1.75-2.72-2.45-5.47-4.87-8.26-7.25-2.94-2.51-3.3-6.93-.8-9.87,2.51-2.95,6.93-3.3,9.87-.8,2.9,2.47,5.75,4.97,8.57,7.52,2.87,2.59,3.1,7.02.5,9.89-1.6,1.77-3.89,2.53-6.08,2.25Z" style="fill:#91b3fa; stroke-width:0px;"/></g><g style="opacity:.64;"><path d="M978.03,498.27c-3.32-.42-5.95-3.18-6.1-6.63-.16-3.67-.38-7.33-.65-10.97-.28-3.86,2.61-7.21,6.47-7.5,3.83-.27,7.21,2.61,7.5,6.47.28,3.78.5,7.58.67,11.38.17,3.86-2.82,7.13-6.68,7.31-.41.02-.81,0-1.2-.05Z" style="fill:#91b3fa; stroke-width:0px;"/><path d="M532.54,901.8s-.09-.01-.13-.02c-6.71-.98-13.48-2.14-20.12-3.46l-2.44-.49c-3.79-.78-6.23-4.48-5.46-8.27.78-3.79,4.55-6.21,8.26-5.45l2.36.47c6.42,1.27,12.95,2.4,19.42,3.34,3.83.56,6.48,4.11,5.92,7.94-.55,3.78-4.03,6.41-7.81,5.93ZM568.91,905.39c-3.6-.46-6.29-3.62-6.1-7.31.2-3.86,3.49-6.83,7.35-6.63,7.33.38,14.76.55,22.09.5,3.86-.03,7.02,3.09,7.04,6.96.03,3.87-3.09,7.02-6.96,7.05-7.59.05-15.3-.13-22.9-.52-.18-.01-.36-.03-.53-.05ZM474.93,888.94c-.39-.05-.77-.13-1.16-.25-7.3-2.21-14.61-4.66-21.73-7.28-3.63-1.33-5.49-5.36-4.16-8.99,1.33-3.63,5.36-5.49,8.99-4.15,6.87,2.52,13.92,4.89,20.96,7.02,3.7,1.12,5.79,5.03,4.67,8.73-1.01,3.32-4.25,5.34-7.58,4.92ZM627.9,903.95c-3.16-.4-5.74-2.94-6.08-6.24-.39-3.85,2.42-7.28,6.26-7.67,7.3-.74,14.67-1.7,21.9-2.86,3.81-.62,7.41,1.99,8.02,5.81.61,3.82-1.98,7.41-5.8,8.02-7.5,1.2-15.14,2.2-22.71,2.97-.54.05-1.08.05-1.59-.02ZM419.9,867.57c-.72-.09-1.45-.3-2.14-.63-6.86-3.29-13.72-6.82-20.37-10.49-3.38-1.87-4.61-6.13-2.74-9.51,1.87-3.38,6.12-4.62,9.52-2.74,6.42,3.55,13.03,6.95,19.64,10.12,3.49,1.67,4.96,5.85,3.29,9.34-1.34,2.79-4.29,4.3-7.2,3.92ZM685.99,893.55c-2.76-.35-5.16-2.34-5.9-5.19-.97-3.74,1.28-7.56,5.02-8.53,7.09-1.83,14.22-3.9,21.19-6.15,3.69-1.18,7.63.84,8.81,4.52,1.18,3.68-.84,7.63-4.52,8.81-7.23,2.33-14.62,4.47-21.97,6.37-.89.23-1.78.28-2.64.17ZM368.76,838.09c-1.06-.14-2.11-.52-3.06-1.17-6.28-4.29-12.52-8.82-18.54-13.47-3.06-2.36-3.63-6.76-1.26-9.82,2.37-3.06,6.77-3.62,9.82-1.27,5.8,4.48,11.82,8.85,17.88,12.99,3.19,2.18,4.01,6.54,1.83,9.73-1.53,2.25-4.14,3.32-6.67,3ZM741.81,874.48c-2.38-.3-4.54-1.82-5.56-4.19-1.52-3.55.12-7.67,3.68-9.19,6.75-2.89,13.49-6.02,20.04-9.28,3.46-1.73,7.66-.32,9.39,3.14,1.72,3.46.32,7.67-3.14,9.39-6.79,3.38-13.78,6.62-20.77,9.62-1.19.51-2.44.66-3.64.51ZM794.14,847.21c-2.02-.26-3.91-1.39-5.07-3.25-2.04-3.28-1.03-7.6,2.25-9.64,6.24-3.87,12.44-7.98,18.43-12.19,3.16-2.23,7.53-1.46,9.75,1.7,2.23,3.16,1.47,7.53-1.7,9.75-6.21,4.37-12.64,8.62-19.1,12.64-1.42.88-3.04,1.19-4.57,1ZM841.78,812.39c-1.67-.21-3.26-1.02-4.44-2.4-2.51-2.94-2.16-7.36.78-9.87,5.58-4.76,11.09-9.75,16.4-14.83,2.79-2.67,7.22-2.58,9.9.21,2.67,2.79,2.58,7.22-.21,9.9-5.5,5.27-11.22,10.44-17,15.37-1.56,1.33-3.54,1.86-5.43,1.62ZM883.65,770.8c-1.32-.17-2.61-.72-3.69-1.65-2.93-2.53-3.25-6.95-.71-9.88,4.8-5.55,9.5-11.31,13.98-17.14,2.36-3.07,6.76-3.63,9.82-1.29,3.07,2.36,3.64,6.75,1.29,9.82-4.64,6.04-9.52,12.02-14.49,17.77-1.59,1.84-3.94,2.65-6.18,2.37ZM918.77,723.34c-.98-.12-1.94-.46-2.83-1.02-3.27-2.06-4.26-6.38-2.21-9.65,3.9-6.22,7.68-12.63,11.22-19.08,1.86-3.39,6.13-4.62,9.51-2.76,3.39,1.86,4.63,6.12,2.76,9.51-3.67,6.68-7.58,13.33-11.63,19.78-1.5,2.39-4.2,3.56-6.82,3.22ZM946.27,671.09c-.64-.08-1.27-.25-1.9-.52-3.55-1.54-5.18-5.66-3.65-9.21,2.91-6.73,5.66-13.64,8.18-20.52,1.33-3.63,5.34-5.51,8.98-4.17,3.63,1.33,5.5,5.35,4.17,8.98-2.61,7.14-5.46,14.29-8.47,21.28-1.27,2.93-4.29,4.55-7.31,4.17ZM965.52,615.31c-.3-.04-.6-.1-.9-.18-3.74-.98-5.98-4.81-4.99-8.55,1.86-7.09,3.54-14.34,5-21.53.77-3.79,4.48-6.28,8.25-5.47,3.79.77,6.24,4.46,5.47,8.25-1.51,7.45-3.25,14.95-5.18,22.3-.9,3.44-4.21,5.61-7.65,5.17ZM976.18,557.26c-3.77-.48-6.49-3.9-6.08-7.7.79-7.29,1.37-14.7,1.73-22.03.19-3.86,3.48-6.84,7.34-6.65,3.88.21,6.84,3.48,6.65,7.34-.38,7.6-.98,15.28-1.79,22.84-.41,3.84-3.87,6.63-7.71,6.21-.05,0-.09-.01-.14-.02Z" style="fill:#91b3fa; stroke-width:0px;"/><path d="M322.51,801.03c-1.41-.18-2.78-.79-3.89-1.83-2.78-2.6-5.51-5.23-8.21-7.9-2.75-2.72-2.77-7.15-.05-9.9,2.72-2.75,7.15-2.77,9.9-.05,2.6,2.58,5.24,5.12,7.92,7.62,2.82,2.64,2.97,7.07.33,9.9-1.6,1.71-3.85,2.44-6,2.16Z" style="fill:#91b3fa; stroke-width:0px;"/></g><path d="M353.72,693.8c1.06,1.69,3.07,2.53,5.02,2.08l55.5-12.75c18.85,18.76,40.83,34.64,65.38,46.73l5.94,56.6c.21,1.99,1.65,3.62,3.6,4.07l66.54,15.41c1.95.45,3.96-.38,5.02-2.07l30.21-48.23c27.37-.07,54.09-4.68,79.27-13.24l44.25,35.84c1.55,1.26,3.73,1.39,5.42.33l57.95-36.16c1.69-1.06,2.53-3.07,2.08-5.02l-12.75-55.5c18.76-18.85,34.64-40.83,46.73-65.38l56.6-5.94c1.99-.21,3.62-1.65,4.07-3.6l15.41-66.54c.45-1.94-.38-3.96-2.07-5.02l-48.23-30.21c-.07-27.37-4.68-54.09-13.24-79.27l35.84-44.25c1.26-1.55,1.39-3.73.33-5.42l-36.16-57.95c-1.06-1.69-3.07-2.53-5.02-2.08l-55.5,12.75c-18.85-18.76-40.83-34.64-65.38-46.73l-5.94-56.6c-.21-1.98-1.65-3.62-3.6-4.07l-66.54-15.41c-1.94-.45-3.96.38-5.02,2.07l-30.21,48.23c-27.37.07-54.09,4.68-79.27,13.24l-44.25-35.84c-1.55-1.26-3.73-1.39-5.42-.33l-57.95,36.16c-1.69,1.06-2.53,3.07-2.08,5.02l12.75,55.5c-18.76,18.85-34.64,40.83-46.73,65.38l-56.6,5.94c-1.98.21-3.62,1.65-4.07,3.6l-15.41,66.54c-.45,1.94.38,3.96,2.07,5.02l48.23,30.21c.07,27.37,4.68,54.09,13.24,79.27l-35.84,44.25c-1.26,1.55-1.39,3.73-.33,5.42l36.16,57.95Z" style="fill:#91b3fa; stroke-width:0px;"/><path d="M581.57,571.78c-14.02-1.78-27.04-7.98-37.41-17.95-12.76-12.26-19.98-28.76-20.33-46.45-.35-17.69,6.21-34.46,18.47-47.22,12.27-12.76,28.76-19.98,46.45-20.33,36.55-.72,66.82,28.41,67.55,64.93.72,36.52-28.41,66.83-64.93,67.55-3.31.07-6.59-.11-9.81-.52ZM597.05,451.45c-2.64-.34-5.33-.48-8.07-.43-14.7.29-28.41,6.29-38.6,16.89-10.19,10.6-15.64,24.54-15.35,39.24.29,14.7,6.29,28.41,16.89,38.6,10.6,10.19,24.52,15.63,39.24,15.35,30.35-.6,54.55-25.78,53.95-56.13-.55-27.61-21.44-50.13-48.05-53.52Z" style="fill:#bdd0fb; stroke-width:0px;"/><path d="M570.2,671.49c-5.58-.71-11.17-1.71-16.77-3-8.3-1.92-16.45-4.47-24.32-7.6-.07-.03-.13-.05-.19-.08-.35-.14-.69-.28-1.03-.42-.05-.02-.1-.04-.14-.06h0s-.09-.04-.13-.06c-.17-.07-.33-.13-.5-.2-.02-.01-.05-.02-.08-.03-.07-.03-.13-.06-.2-.08-.02,0-.04-.02-.07-.03-.5-.21-1-.42-1.49-.63-.18-.07-.35-.15-.53-.23-1.08-.46-2.15-.94-3.21-1.42-.61-.28-1.22-.56-1.83-.85-1.12-.53-1.73-1.71-1.59-2.88.04-.28.12-.57.24-.84.66-1.4,2.32-2,3.73-1.34,10.37,4.88,21.34,8.67,32.6,11.28,42.16,9.77,85.6,2.52,122.31-20.39,36.71-22.91,62.31-58.75,72.07-100.91,1.25-5.42,2.22-10.84,2.91-16.24,10.34-81.39-42.59-159.25-124.2-178.14-42.16-9.76-85.6-2.52-122.31,20.39-36.71,22.91-62.31,58.75-72.07,100.91-1.24,5.37-2.21,10.77-2.9,16.2-2.99,23.52-.8,47.44,6.5,70.02.13.41.16.82.11,1.22-.13,1.04-.85,1.97-1.92,2.31-1.47.48-3.05-.33-3.53-1.8-7.55-23.37-9.82-48.11-6.73-72.45.71-5.62,1.71-11.21,3-16.76,10.1-43.62,36.58-80.69,74.56-104.39,37.98-23.7,82.94-31.19,126.54-21.1,84.44,19.55,139.2,100.1,128.5,184.3-.71,5.59-1.71,11.2-3.01,16.8-19.55,84.44-100.12,139.21-184.33,128.49Z" style="fill:#bdd0fb; stroke-width:0px;"/><g style="opacity:.64;"><path d="M1403.2,394.96c1.58,1.29,2.19,3.5,1.36,5.47-1.54,3.67-3.16,7.31-4.86,10.93-1.11,2.35-3.91,3.36-6.26,2.25-2.35-1.11-3.36-3.91-2.25-6.26,1.65-3.49,3.21-7.02,4.7-10.56,1.01-2.4,3.77-3.52,6.16-2.52.43.18.81.41,1.15.69Z" style="fill:#91b3fa; stroke-width:0px;"/><path d="M1387.65,426.34c1.76,1.43,2.27,3.97,1.1,6-3.92,6.81-8.18,13.54-12.64,20.01-1.48,2.14-4.41,2.67-6.55,1.2-2.15-1.52-2.67-4.41-1.2-6.55,4.32-6.25,8.44-12.77,12.23-19.36,1.3-2.25,4.18-3.02,6.43-1.73.22.13.43.28.63.43ZM1361.2,464.62s0,0,.01,0c2.01,1.65,2.31,4.61.66,6.62-4.08,4.98-8.36,9.86-12.73,14.52-1,1.06-1.99,2.11-3,3.16-1.8,1.87-4.75,1.94-6.65.12-1.87-1.8-1.92-4.78-.12-6.65.98-1.02,1.95-2.04,2.92-3.07,4.22-4.5,8.37-9.23,12.31-14.05,1.65-2.01,4.6-2.3,6.61-.67ZM1328.89,498.1c.2.16.39.34.57.54,1.71,1.95,1.53,4.92-.42,6.64-5.93,5.22-12.12,10.23-18.38,14.9-2.08,1.55-5.03,1.11-6.59-.97-1.55-2.09-1.12-5.03.97-6.59,6.06-4.51,12.05-9.36,17.78-14.41,1.75-1.54,4.33-1.55,6.08-.12ZM1291.59,525.89c.39.32.74.71,1.02,1.16,1.38,2.2.71,5.11-1.5,6.48-6.67,4.16-13.6,8.09-20.58,11.68-2.31,1.19-5.14.29-6.34-2.04-1.19-2.31-.28-5.15,2.04-6.33,6.75-3.47,13.45-7.27,19.9-11.3,1.75-1.1,3.95-.9,5.47.34ZM1250.21,547.17c.58.48,1.06,1.1,1.37,1.85,1,2.4-.14,5.15-2.55,6.15-7.26,3-14.74,5.74-22.23,8.14-2.47.79-5.12-.56-5.92-3.05-.79-2.48.57-5.12,3.05-5.92,7.25-2.32,14.49-4.97,21.51-7.88,1.65-.69,3.48-.35,4.77.7ZM1205.9,561.36c.78.64,1.36,1.53,1.61,2.58.59,2.53-.99,5.06-3.52,5.65-7.64,1.77-15.47,3.26-23.26,4.4-2.57.38-4.96-1.41-5.34-3.97-.38-2.57,1.4-4.96,3.97-5.34,7.54-1.11,15.12-2.54,22.5-4.26,1.47-.34,2.95.05,4.04.94ZM1159.86,568.14c.98.8,1.64,1.99,1.73,3.35.17,2.59-1.8,4.83-4.39,5-7.86.51-15.82.7-23.66.56-2.61-.05-4.67-2.19-4.62-4.79.04-2.6,2.19-4.67,4.79-4.62,7.58.13,15.29-.05,22.89-.54,1.24-.08,2.39.32,3.28,1.05ZM1113.34,567.34c1.18.96,1.88,2.48,1.72,4.11-.26,2.59-2.56,4.48-5.14,4.22-7.83-.77-15.71-1.88-23.44-3.29-2.54-.47-4.25-2.92-3.78-5.47.47-2.56,2.92-4.25,5.48-3.78,7.47,1.37,15.1,2.44,22.66,3.18.96.09,1.82.47,2.51,1.03ZM880.57,396.79c.57.46,1.04,1.07,1.35,1.79,2.99,6.99,6.32,13.94,9.87,20.66,1.22,2.3.34,5.14-1.96,6.36-2.3,1.22-5.14.34-6.36-1.96-3.68-6.95-7.12-14.13-10.21-21.36-1.02-2.39.08-5.16,2.47-6.18,1.66-.71,3.51-.39,4.83.68ZM1067.59,559c1.4,1.14,2.07,3.03,1.58,4.88-.68,2.51-3.26,4-5.77,3.32-7.6-2.04-15.19-4.42-22.58-7.07-2.44-.88-3.72-3.58-2.84-6.02.88-2.44,3.57-3.72,6.02-2.84,7.14,2.56,14.49,4.87,21.84,6.84.66.17,1.25.49,1.75.89ZM902.35,437.91c.38.31.71.68.99,1.11,4.09,6.39,8.51,12.7,13.13,18.75,1.58,2.06,1.18,5.02-.88,6.6-2.07,1.57-5.02,1.17-6.6-.88-4.78-6.26-9.35-12.78-13.58-19.39-1.4-2.19-.76-5.1,1.43-6.5,1.76-1.12,3.98-.93,5.51.31ZM1023.83,543.28c1.62,1.32,2.21,3.61,1.31,5.6-1.08,2.36-3.87,3.41-6.23,2.33-7.14-3.25-14.24-6.85-21.11-10.69-2.31-1.28-3.07-4.14-1.81-6.41,1.27-2.27,4.14-3.08,6.4-1.81,6.65,3.72,13.52,7.2,20.42,10.34.38.17.72.39,1.03.64ZM930.59,474.88c.19.15.36.32.52.5,5.09,5.63,10.48,11.14,16.03,16.37,1.89,1.78,1.98,4.76.2,6.65-1.78,1.89-4.74,1.96-6.65.2-5.73-5.4-11.31-11.09-16.56-16.91-1.74-1.93-1.59-4.9.34-6.65,1.75-1.58,4.35-1.6,6.12-.16ZM983.23,520.57c1.87,1.52,2.3,4.24.93,6.27-1.45,2.15-4.38,2.73-6.53,1.28-6.5-4.38-12.91-9.09-19.07-14.01-.01,0-.02-.02-.03-.03-2-1.63-2.32-4.57-.7-6.59,1.62-2.03,4.58-2.36,6.62-.74,5.95,4.76,12.16,9.32,18.45,13.55.12.08.24.17.35.26Z" style="fill:#91b3fa; stroke-width:0px;"/><path d="M868.71,363.5c.72.59,1.27,1.39,1.55,2.35,1.06,3.7,2.2,7.38,3.42,11.04.82,2.47-.51,5.13-2.98,5.95-2.47.82-5.13-.51-5.95-2.98-1.26-3.79-2.44-7.6-3.54-11.42-.72-2.5.73-5.11,3.23-5.82,1.54-.44,3.12-.06,4.27.88Z" style="fill:#91b3fa; stroke-width:0px;"/></g><g style="opacity:.64;"><path d="M895.7,142.82c1.76,1.44,2.27,3.98,1.1,6-1.94,3.35-3.8,6.72-5.58,10.13-1.21,2.3-4.05,3.19-6.36,1.98-2.3-1.2-3.19-4.06-1.98-6.35,1.85-3.52,3.77-7.01,5.78-10.47,1.3-2.25,4.18-3.02,6.43-1.71.22.13.43.27.62.43Z" style="fill:#91b3fa; stroke-width:0px;"/><path d="M1320.37,64.5c3.58,2.94,6.96,5.8,10.37,8.84,1.94,1.73,2.1,4.71.37,6.65-1.73,1.94-4.71,2.09-6.64.37-3.29-2.95-6.66-5.98-10.03-8.56-2.43-1.98-4.88-3.9-7.35-5.78-2.02-1.5-2.47-4.52-.9-6.59,1.57-2.07,4.52-2.48,6.59-.9,2.56,1.94,5.09,3.93,7.6,5.97ZM1294.11,45.52c1.83,1.49,2.29,4.15.99,6.18-1.4,2.19-4.31,2.83-6.5,1.43-6.29-4.03-12.84-7.85-19.45-11.35-2.32-1.22-3.17-4.07-1.95-6.36,1.21-2.3,4.06-3.17,6.36-1.96,6.84,3.63,13.61,7.58,20.12,11.74.16.1.3.21.44.32ZM1347.04,89.14c.15.12.3.26.44.4,5.33,5.59,10.51,11.47,15.39,17.48,1.64,2.02,1.33,4.98-.69,6.62-2.02,1.64-4.96,1.35-6.62-.69-4.73-5.82-9.74-11.51-14.9-16.92-1.79-1.88-1.72-4.86.16-6.65,1.73-1.66,4.4-1.72,6.22-.25ZM1253.68,24.08c1.59,1.29,2.2,3.53,1.35,5.51-1.03,2.39-3.8,3.49-6.18,2.46-6.86-2.95-13.94-5.66-21.02-8.05-2.44-.83-3.79-3.5-2.96-5.96.83-2.46,3.5-3.79,5.96-2.96,7.33,2.47,14.64,5.27,21.74,8.32.41.18.78.41,1.12.67ZM1375.89,124.71c.34.28.65.61.91.99,4.37,6.39,8.54,13.03,12.37,19.74,1.29,2.26.51,5.13-1.75,6.42-2.26,1.29-5.14.49-6.42-1.75-3.71-6.49-7.73-12.91-11.97-19.09-1.47-2.14-.92-5.07,1.23-6.54,1.76-1.21,4.05-1.05,5.63.23ZM1210.32,9.48c1.37,1.12,2.05,2.96,1.6,4.79-.63,2.52-3.19,4.06-5.71,3.43-7.25-1.81-14.66-3.34-22.05-4.56-2.56-.42-4.3-2.84-3.88-5.41.42-2.57,2.84-4.3,5.41-3.88,7.64,1.26,15.31,2.84,22.8,4.71.69.17,1.31.49,1.83.91ZM1398.6,164.47c.53.43.98.99,1.29,1.65,3.27,7,6.31,14.23,9.01,21.48.91,2.44-.33,5.14-2.77,6.05-2.43.91-5.15-.33-6.05-2.77-2.62-7.02-5.55-14.01-8.71-20.78-1.1-2.35-.09-5.16,2.27-6.26,1.69-.79,3.61-.49,4.97.62ZM1165.15,2.03c1.17.95,1.85,2.43,1.72,4.04-.22,2.59-2.49,4.51-5.08,4.3-7.44-.62-15.01-.95-22.51-.96-2.61,0-4.7-2.12-4.7-4.72,0-2.6,2.12-4.7,4.72-4.69,7.75.02,15.58.35,23.27.99.98.08,1.87.46,2.58,1.04ZM1119.38,1.92c.96.78,1.62,1.95,1.72,3.29.2,2.59-1.74,4.86-4.33,5.05-7.44.57-14.97,1.46-22.37,2.65-2.58.41-4.98-1.34-5.39-3.91-.41-2.57,1.34-4.98,3.9-5.39,7.66-1.22,15.44-2.14,23.13-2.74,1.25-.1,2.43.31,3.33,1.04ZM1074.17,9.13c.77.62,1.35,1.5,1.6,2.54.61,2.52-.94,5.07-3.46,5.68-7.28,1.76-14.56,3.85-21.66,6.2-2.47.82-5.12-.52-5.95-2.99-.82-2.47.53-5.13,2.99-5.94,7.34-2.43,14.87-4.59,22.39-6.41,1.49-.36,2.98.03,4.09.93ZM1030.7,23.5c.57.47,1.05,1.08,1.36,1.81,1.01,2.39-.1,5.16-2.5,6.17-6.91,2.92-13.77,6.16-20.38,9.62-2.3,1.2-5.14.31-6.35-1.99-1.2-2.31-.31-5.15,1.99-6.35,6.84-3.58,13.93-6.92,21.07-9.95,1.66-.7,3.5-.38,4.81.69ZM990.12,44.71c.38.31.73.7,1.01,1.14,1.39,2.2.73,5.1-1.47,6.49-6.32,3.99-12.56,8.29-18.54,12.78-2.08,1.56-5.06,1.13-6.59-.94-1.56-2.08-1.14-5.03.93-6.59,6.19-4.65,12.64-9.1,19.17-13.22,1.75-1.11,3.96-.91,5.49.33ZM953.51,72.19c.2.16.38.34.55.53,1.72,1.94,1.55,4.92-.4,6.65-5.6,4.96-11.07,10.21-16.25,15.6-1.8,1.87-4.84,1.89-6.65.13-1.87-1.8-1.93-4.78-.13-6.66,5.35-5.56,11-10.98,16.79-16.12,1.75-1.55,4.33-1.56,6.09-.13ZM921.77,105.18c2.02,1.64,2.32,4.61.68,6.62l-.54.67c-4.54,5.58-8.93,11.41-13.03,17.33-1.48,2.14-4.41,2.67-6.55,1.19-2.17-1.49-2.66-4.41-1.19-6.55,4.24-6.12,8.78-12.15,13.47-17.92l.54-.67c1.64-2.02,4.6-2.32,6.62-.68Z" style="fill:#91b3fa; stroke-width:0px;"/><path d="M1414.66,207.65c.72.59,1.28,1.4,1.55,2.37,1.08,3.84,2.08,7.7,3,11.57.6,2.53-.96,5.07-3.49,5.67-2.53.6-5.06-.97-5.67-3.49-.89-3.75-1.86-7.48-2.9-11.19-.71-2.5.75-5.1,3.25-5.81,1.54-.43,3.1-.05,4.25.89Z" style="fill:#91b3fa; stroke-width:0px;"/></g><path d="M1355.31,265.09c0-1.45-.92-2.75-2.3-3.22l-39.21-13.48c-4.43-18.85-11.9-37.13-22.43-54.05l18.11-37.27c.64-1.31.37-2.87-.66-3.9l-35.2-35.14c-1.03-1.03-2.6-1.29-3.9-.65l-37.23,18.18c-16.94-10.49-35.23-17.93-54.09-22.32l-13.55-39.19c-.48-1.37-1.77-2.29-3.22-2.29l-49.73.05c-1.45,0-2.75.92-3.22,2.3l-13.48,39.21c-18.85,4.43-37.13,11.9-54.05,22.43l-37.27-18.11c-1.31-.64-2.87-.37-3.9.66l-35.14,35.2c-1.03,1.03-1.29,2.6-.65,3.9l18.18,37.23c-10.49,16.94-17.93,35.23-22.32,54.09l-39.19,13.55c-1.37.48-2.29,1.77-2.29,3.22l.05,49.73c0,1.45.92,2.75,2.3,3.22l39.21,13.48c4.43,18.85,11.9,37.13,22.43,54.05l-18.11,37.27c-.64,1.31-.37,2.87.66,3.9l35.2,35.14c1.03,1.03,2.6,1.29,3.9.65l37.23-18.18c16.94,10.49,35.23,17.93,54.09,22.32l13.55,39.19c.47,1.37,1.77,2.29,3.22,2.29l49.73-.05c1.45,0,2.75-.92,3.22-2.3l13.48-39.21c18.85-4.43,37.13-11.9,54.05-22.43l37.27,18.11c1.31.64,2.87.37,3.9-.66l35.13-35.2c1.03-1.03,1.29-2.6.65-3.9l-18.18-37.23c10.49-16.94,17.93-35.23,22.32-54.09l39.19-13.55c1.37-.47,2.29-1.77,2.29-3.22l-.05-49.74Z" style="fill:#91b3fa; stroke-width:0px;"/><path d="M1167.84,252.29c18.47,15.04,23.64,41.82,11.1,62.88-6.68,11.21-17.33,19.16-29.98,22.36-12.65,3.21-25.8,1.29-37.01-5.39-11.19-6.67-19.16-17.33-22.37-29.98-3.21-12.65-1.29-25.8,5.38-37.01,13.79-23.15,43.85-30.76,66.99-16.98h0c2.09,1.24,4.05,2.62,5.88,4.11ZM1112.02,320.74c1.48,1.2,3.06,2.32,4.75,3.32,9.05,5.39,19.66,6.94,29.88,4.35,10.22-2.59,18.81-9,24.21-18.05,11.13-18.69,5.01-42.96-13.71-54.09h0c-18.69-11.13-42.95-4.98-54.09,13.71-10.13,17-5.95,38.62,8.96,50.77Z" style="fill:#91b3fa; opacity:.56; stroke-width:0px;"/><path d="M1214.49,193.39c3.29,2.68,6.47,5.55,9.51,8.59h0c1.22,1.22,2.41,2.45,3.57,3.72,4.09,4.43,7.86,9.16,11.26,14.1.12.17.23.34.35.51.28.42.57.85.85,1.27.23.35.46.69.68,1.04,1.13,1.75.95,3.98-.3,5.52-.3.37-.67.71-1.1.98-2.18,1.41-5.09.8-6.51-1.4-4.43-6.85-9.63-13.27-15.45-19.08-12.96-12.94-28.47-22.42-45.39-27.97-11.52-3.78-23.69-5.74-36.17-5.72-30.8.03-59.74,12.05-81.5,33.85-2.82,2.82-5.47,5.76-7.95,8.81-16.7,20.52-25.77,45.94-25.75,72.75.03,30.8,12.05,59.74,33.85,81.5,21.8,21.77,50.77,33.72,81.56,33.7,30.8-.03,59.74-12.05,81.5-33.85,2.77-2.78,5.39-5.68,7.85-8.7,10.66-13.09,18.33-28.36,22.41-44.75.17-.69.49-1.31.92-1.83,1.11-1.37,2.96-2.05,4.79-1.6,2.53.64,4.06,3.18,3.43,5.71-4.42,17.73-12.72,34.25-24.24,48.41-2.66,3.27-5.49,6.41-8.49,9.41-23.53,23.58-54.84,36.58-88.15,36.61-33.31.03-64.62-12.9-88.22-36.44-23.58-23.53-36.58-54.84-36.61-88.15-.03-29,9.78-56.5,27.85-78.69,2.69-3.3,5.55-6.48,8.6-9.53,23.53-23.58,54.84-36.58,88.15-36.61,29.01-.03,56.52,9.78,78.71,27.86Z" style="fill:#bdd0fb; stroke-width:0px;"/><path d="M2303.38,295.54c-13.85-14.25-32.87-22.28-52.74-22.27l-1504.97.88c-19.87.01-38.89,8.07-52.72,22.35-13.83,14.27-21.29,33.54-20.67,53.4l59.66,1922.44c1.23,39.67,33.75,70.33,73.44,70.33h1388.84c39.74,0,72.27-30.73,73.44-70.46l56.48-1923.75c.58-19.86-6.9-38.68-20.75-52.93Z" style="fill:url(#uuid-6bb3be3b-d027-4c0c-abd6-59ebd1ea6df7); stroke-width:0px;"/><path d="M2236.78,384.03c-12.65-13.02-30.04-20.37-48.2-20.35l-1375.55.81c-18.16.01-35.55,7.38-48.19,20.42-12.64,13.04-19.46,30.65-18.89,48.81l54.53,1756.89c1.12,36.26,30.84,64.21,67.12,64.21h1269.4c36.32,0,66.06-28.01,67.12-64.32l51.62-1758.12c.53-18.15-6.31-35.31-18.96-48.33Z" style="fill:#91b3fa; stroke-width:0px;"/><circle cx="1494.68" cy="900.95" r="148.8" transform="translate(-199.28 1320.78) rotate(-45)" style="fill:url(#uuid-c8a21830-3394-47d7-8b5d-81dd4389a781); stroke-width:0px;"/><circle cx="1498.2" cy="900.95" r="138.25" transform="translate(-198.25 1323.27) rotate(-45)" style="fill:url(#uuid-bb191c28-3c73-4ffd-9bca-a8f5c8d63a34); stroke-width:0px;"/><path d="M2117.47,1400.68c0,52.41-42.49,94.9-94.9,94.9h-123.02c-52.41,0-94.9-42.49-94.9-94.9h0c0-52.41,42.49-94.9,94.9-94.9h123.02c52.41,0,94.9,42.49,94.9,94.9h0Z" style="fill:url(#uuid-2ea966a9-3e22-44d4-bfa9-21ab49dbc54b); stroke-width:0px;"/><path d="M2104.51,1400.68c0,49.01-39.09,87.87-87.31,87.87h-114.18c-48.22,0-87.31-38.86-87.31-87.87h0c0-49.01,39.09-87.87,87.31-87.87h114.18c48.22,0,87.31,38.86,87.31,87.87h0Z" style="fill:url(#uuid-32e4cdcb-63f4-4bcd-aa15-b7e551835042); stroke-width:0px;"/><path d="M1664.05,1400.68c0,52.41-42.49,94.9-94.9,94.9h-123.02c-52.41,0-94.9-42.49-94.9-94.9h0c0-52.41,42.49-94.9,94.9-94.9h123.02c52.41,0,94.9,42.49,94.9,94.9h0Z" style="fill:url(#uuid-fac2a686-1781-40f2-8013-e75f031c757b); stroke-width:0px;"/><path d="M1651.09,1400.68c0,49.01-39.09,87.87-87.31,87.87h-114.18c-48.22,0-87.31-38.86-87.31-87.87h0c0-49.01,39.09-87.87,87.31-87.87h114.18c48.22,0,87.31,38.86,87.31,87.87h0Z" style="fill:url(#uuid-7a72949e-250d-4e12-98ce-337f31c7884e); stroke-width:0px;"/><path d="M1200.08,1400.68c0,52.41-42.49,94.9-94.9,94.9h-123.02c-52.41,0-94.9-42.49-94.9-94.9h0c0-52.41,42.49-94.9,94.9-94.9h123.02c52.41,0,94.9,42.49,94.9,94.9h0Z" style="fill:url(#uuid-55e0fe10-9456-4088-be8d-6e736337b50c); stroke-width:0px;"/><path d="M1187.13,1400.68c0,49.01-39.09,87.87-87.31,87.87h-114.18c-48.22,0-87.31-38.86-87.31-87.87h0c0-49.01,39.09-87.87,87.31-87.87h114.18c48.22,0,87.31,38.86,87.31,87.87h0Z" style="fill:url(#uuid-8eaa3029-5d34-4ecc-bbca-4c7cb8769fbf); stroke-width:0px;"/><path d="M2117.47,1825.98c0,52.41-42.49,94.9-94.9,94.9h-123.02c-52.41,0-94.9-42.49-94.9-94.9h0c0-52.41,42.49-94.9,94.9-94.9h123.02c52.41,0,94.9,42.49,94.9,94.9h0Z" style="fill:url(#uuid-8cdb1055-4973-476d-a849-3192e1362ae3); stroke-width:0px;"/><path d="M2104.51,1825.98c0,49.01-39.09,87.87-87.31,87.87h-114.18c-48.22,0-87.31-38.86-87.31-87.87h0c0-49.01,39.09-87.87,87.31-87.87h114.18c48.22,0,87.31,38.86,87.31,87.87h0Z" style="fill:url(#uuid-c446ff2b-0ca9-44ad-9ad3-ea56c1dd72d8); stroke-width:0px;"/><path d="M1664.05,1825.98c0,52.41-42.49,94.9-94.9,94.9h-123.02c-52.41,0-94.9-42.49-94.9-94.9h0c0-52.41,42.49-94.9,94.9-94.9h123.02c52.41,0,94.9,42.49,94.9,94.9h0Z" style="fill:url(#uuid-3ead4214-ce4f-4c64-a4e0-ab7862ab241c); stroke-width:0px;"/><path d="M1651.09,1825.98c0,49.01-39.09,87.87-87.31,87.87h-114.18c-48.22,0-87.31-38.86-87.31-87.87h0c0-49.01,39.09-87.87,87.31-87.87h114.18c48.22,0,87.31,38.86,87.31,87.87h0Z" style="fill:url(#uuid-00820263-88ad-45fd-9fc8-342aab3ece6a); stroke-width:0px;"/><path d="M1200.08,1825.98c0,52.41-42.49,94.9-94.9,94.9h-123.02c-52.41,0-94.9-42.49-94.9-94.9h0c0-52.41,42.49-94.9,94.9-94.9h123.02c52.41,0,94.9,42.49,94.9,94.9h0Z" style="fill:url(#uuid-f239af96-ecf5-46a0-bedd-3f3d2bb9412a); stroke-width:0px;"/><path d="M1187.13,1825.98c0,49.01-39.09,87.87-87.31,87.87h-114.18c-48.22,0-87.31-38.86-87.31-87.87h0c0-49.01,39.09-87.87,87.31-87.87h114.18c48.22,0,87.31,38.86,87.31,87.87h0Z" style="fill:url(#uuid-75850bcf-cccf-439b-a995-b7ada93e6ee1); stroke-width:0px;"/><polygon points="1502.57 1685.64 1488.4 1685.81 1488.4 1539.21 1502.57 1539.12 1502.57 1685.64" style="fill:#fff; stroke-width:0px;"/><path d="M1043.32,1691.07l-14.65.17v-37.74c0-20.31,17.32-37,38.59-37.2l317.6-2.91c12.89-.12,23.36-10.33,23.36-22.77v-50.89l14.25-.09v50.87c0,20.03-16.86,36.49-37.62,36.69l-317.6,3.07c-13.2.13-23.94,10.49-23.94,23.09v37.72Z" style="fill:#fff; stroke-width:0px;"/><path d="M1947,1680.38l-13.72.16v-36.52c0-12.2-10.08-22.03-22.48-21.91l-305.57,2.95c-20.46.2-37.12-15.85-37.12-35.77v-50.6l14.09-.09v50.57c0,12.36,10.34,22.32,23.03,22.21l305.57-2.8c19.97-.18,36.2,15.65,36.2,35.3v36.5Z" style="fill:#fff; stroke-width:0px;"/><polygon points="1503.13 1222.71 1488.96 1222.88 1488.96 1076.28 1503.13 1076.19 1503.13 1222.71" style="fill:#fff; stroke-width:0px;"/><path d="M1043.88,1228.15l-14.65.17v-37.74c0-20.32,17.32-37,38.59-37.2l317.6-2.91c12.89-.12,23.36-10.33,23.36-22.77v-50.89l14.25-.09v50.87c0,20.03-16.86,36.49-37.62,36.69l-317.6,3.07c-13.2.13-23.94,10.49-23.94,23.09v37.72Z" style="fill:#fff; stroke-width:0px;"/><path d="M1947.56,1217.45l-13.72.16v-36.52c0-12.2-10.08-22.03-22.48-21.91l-305.57,2.95c-20.46.2-37.12-15.85-37.12-35.77v-50.6l14.09-.09v50.57c0,12.36,10.34,22.32,23.03,22.21l305.57-2.8c19.97-.18,36.2,15.65,36.2,35.3v36.5Z" style="fill:#fff; stroke-width:0px;"/><path d="M2319.83,493.84l4.29-145.82c.58-19.86-6.9-38.46-20.75-52.71-13.84-14.25-32.87-22.17-52.74-22.16l-1504.97.94c-19.87.01-38.9,8.1-52.72,22.37-13.83,14.27-21.28,33.12-20.67,52.98l4.49,144.4h1643.06Z" style="fill:url(#uuid-f8dfe86c-a133-4cca-a55b-c5baa4c0f25c); stroke-width:0px;"/><circle cx="795.87" cy="377.85" r="37.49" style="fill:#fff; opacity:.6; stroke-width:0px;"/><circle cx="916.54" cy="379.98" r="37.49" style="fill:#fff; opacity:.6; stroke-width:0px;"/><circle cx="1033.13" cy="377.85" r="37.49" style="fill:#fff; opacity:.6; stroke-width:0px;"/><path d="M874.6,1996.97h1252.02c4.65,0,8.43,3.78,8.43,8.43v44.14c0,4.65-3.78,8.43-8.43,8.43H874.6c-4.65,0-8.43-3.78-8.43-8.43v-44.14c0-4.65,3.78-8.43,8.43-8.43Z" style="fill:#fff; opacity:.67; stroke-width:0px;"/><rect x="795.87" y="605.08" width="1019.83" height="60.99" rx="29.62" ry="29.62" style="fill:#bdd0fb; stroke-width:0px;"/><rect x="1947" y="605.08" width="263.03" height="60.99" rx="29.62" ry="29.62" style="fill:#bdd0fb; stroke-width:0px;"/><path d="M869.47,2095.39h1252.02c4.65,0,8.43,3.78,8.43,8.43v44.14c0,4.65-3.78,8.43-8.43,8.43H869.47c-4.65,0-8.43-3.78-8.43-8.43v-44.14c0-4.65,3.78-8.43,8.43-8.43Z" style="fill:#fff; opacity:.67; stroke-width:0px;"/><path d="M525,2318.99s-5.16,29.23-7.7,58.17c-.99,11.31,7.73,21.13,19.07,21.6,38.53,1.6,120.96,4.73,150.54,3.41,4.45-.2,7.35-4.75,5.71-8.89h0c-1.38-3.47-4.04-6.27-7.43-7.82l-136.15-62.58-24.04-3.89Z" style="fill:url(#uuid-dc78639f-8dfe-44d5-bb0b-0a5f1b517506); stroke-width:0px;"/><path d="M520.77,2301.82l4.15,34.96s23.85,11.1,40.14-1.4l-9.88-38.97-34.41,5.4Z" style="fill:url(#uuid-4d9c3516-7a08-4e39-9810-1bbc04e39e04); stroke-width:0px;"/><path d="M523.89,1644.46c-1.79,9.13-9.62,455.66,38.11,655.76.78,3.27-.88,6.63-3.98,7.9-7.32,2.99-21.67,7.32-38.87,7.9-5.33.18-10.1-3.28-11.6-8.4-13.64-46.43-79.02-279.04-87.55-501.25-9.53-248.3,0-8.45,0-8.45l5.59-153.48,98.31.02Z" style="fill:url(#uuid-bb3683c5-5999-428e-bc42-ece916ad7411); stroke-width:0px;"/><path d="M368.38,2334.24s-8.22,14.76-16.18,53.97c-1.44,7.08,3.51,13.86,10.7,14.57,12.72,1.25,32.31,2.86,48,2.75,7.23-.05,12.88-6.35,12.01-13.53-1.74-14.31-7.15-37.8-23.88-56.1l-30.66-1.66Z" style="fill:url(#uuid-612a0f23-ce69-485b-8e64-c52ec22ee069); stroke-width:0px;"/><path d="M361.16,2289.27l9.69,52.88s9.58,7.13,28.54,1.96l-4.63-56.89-33.61,2.05Z" style="fill:url(#uuid-ef7f8def-0f33-4e3c-9812-435a191d7c1a); stroke-width:0px;"/><path d="M334.97,1658.16c-39.04,235.59,8.47,582.28,24.49,650.14.98,4.16,4.33,7.34,8.54,8.04,7.15,1.18,18.93,2.15,30.53-1.22,4-1.16,6.81-4.77,6.97-8.93,2.15-54.86-1.72-391.64,34.66-524.74,1.84-6.74,5.96-12.63,11.66-16.68l70.6-50.19,5.41-81.13-192.87,24.71Z" style="fill:url(#uuid-f99a880f-e117-4432-a1ed-5130de61bd45); stroke-width:0px;"/><path d="M583.71,1211.76c-116.99-1.93-246.07,30.72-246.07,30.72-34.87,203.47-6.1,438.16-6.1,438.16,90.57,23.75,192.73-14.52,192.73-14.52,15.05-85.05,85.29-324.4,85.29-324.4,57.16-7.09,104.25-23.59,143.02-45.39-29.58-34.28-43.52-77.91-49.58-103.7-41.36,12.85-83.22,19.72-119.3,19.12Z" style="fill:url(#uuid-d96c4bd2-2b73-46a6-9f63-b50007d3c12f); stroke-width:0px;"/><path d="M929.27,1039.45c-11.49-13.88-26.04-7.31-26.04-7.31-17.22,72.72-107.48,131.68-200.22,160.5,6.06,25.79,20,69.41,49.58,103.7,153.91-86.54,176.68-256.89,176.68-256.89Z" style="fill:url(#uuid-4aa4a45e-609d-4925-8a02-ae3148514090); stroke-width:0px;"/><path d="M926.48,1042.98c1.2,3.82-12.72,9.64-20.92-5.99-.29-7.49-4.84-39.6-.37-45.7,23.85-32.51,70.08-73.27,70.08-73.27,7.81,7.71,1.38,15.28,1.38,15.28l-22.43,23.36c4.69,8.48,10.41,15.63,13.1,25.89,2.03,7.77.79,16.06-3.13,23.13-3.94,7.09-9.31,16.31-14.39,23.53-9.61,13.66-23.32,13.76-23.32,13.76Z" style="fill:url(#uuid-6c42dfab-3b8f-43cc-87a0-e878d4353357); stroke-width:0px;"/><path d="M944.41,971.83l-20.44,17.33-6.42,17.25,18.22,20.22s6.13-34.23,10.68-41.64c4.55-7.41,2.19-10.99-2.05-13.16Z" style="fill:url(#uuid-0c34810b-e261-45c2-8e5a-eca95b539af9); stroke-width:0px;"/><path d="M382.52,1355.76l-44.87-113.28s-109.27,74.25-127.24,168.38c20.65,1.52,58.22,6.89,94.99,25.46,8.08-44.45,77.12-80.56,77.12-80.56Z" style="fill:url(#uuid-5bedae6b-e1a2-46bf-85b3-74a615633b93); stroke-width:0px;"/><path d="M478.01,1462.35s-122.68,69.34-164.08,10.13c-8.59-12.29-10.65-24.51-8.53-36.16-36.78-18.57-74.35-23.94-94.99-25.46-5.42,28.38-2.55,58.56,14.12,89.07,72.51,132.64,269.72-7.33,269.72-7.33l-16.24-30.25Z" style="fill:url(#uuid-d3ddd5ed-f9c9-4827-a4ef-5a2df799d3b1); stroke-width:0px;"/><path d="M463.27,1550.06l66.96-233.83c.76-2.65,3.02-4.59,5.77-4.91,12.13-1.42,47.28-5.39,87.87-8.82,48.89-4.14,105.66-7.49,139.59-4.63,4.82.4,7.74,5.51,5.59,9.85-19.29,39.03-98.65,197.8-138.39,249.81-1.32,1.72-3.35,2.73-5.52,2.71l-155.35-1.45c-4.52-.04-7.76-4.38-6.51-8.72Z" style="fill:#bdd0fb; stroke-width:0px;"/><path d="M630.81,1282.23l48.54-8.09c2.59-.43,4.7,2.04,3.88,4.53l-4.81,14.56c-.42,1.27-1.52,2.19-2.85,2.36l-46.71,6.24c-2.42.32-4.41-1.87-3.85-4.25l2.97-12.71c.32-1.37,1.43-2.41,2.82-2.64Z" style="fill:url(#uuid-96361dd1-fbc2-4b48-9293-5fb6f5091275); stroke-width:0px;"/><path d="M594.46,1323.33l4-20.83c.4-2.09,2.13-3.67,4.24-3.88l98.05-9.95c3.3-.34,5.94,2.69,5.17,5.91l-6.23,25.96c-.5,2.08-2.31,3.58-4.44,3.68l-95.81,4.82c-3.12.16-5.56-2.65-4.97-5.72Z" style="fill:url(#uuid-7846f90d-7437-4c3b-8618-209649aa6cfd); stroke-width:0px;"/><path d="M479.45,1493.57s-9.33-38.35-5.57-51.96c3.76-13.61,11.05-31.1,35.35-27.21,24.3,3.89,52.96,14.12,52.96,14.12,0,0-1.45,17.72-19.91,12.01l11.45,8.86s-1.64,14.19-17.24,6.61l10.65,11.75s-6.7,11.65-18.18,4.18c-11.48-7.48-16.98,26.26-49.52,21.64Z" style="fill:url(#uuid-abc09e7b-2c6a-4bb2-b54e-4663ba35593b); stroke-width:0px;"/><path d="M465.22,1116.79l-37.22,107.65c-.62,1.78.12,3.76,1.77,4.67,10.15,5.61,46.7,21.83,90.76-6.1,4.59-2.91,7.71-7.66,8.41-13.04l12.05-93.17h-75.77Z" style="fill:url(#uuid-42117807-c777-41c7-909f-cd20173944b6); stroke-width:0px;"/><path d="M546.21,1017.1s40.87,76.94,35.64,108.02c-5.24,31.08-55.9,28.85-100.13,3.61l-30.91-83.08,95.41-28.55Z" style="fill:url(#uuid-b961789a-1891-476d-af04-3da79bd141dc); stroke-width:0px;"/><path d="M483.67,1087.93c1.8-.8,2.46-3,1.38-4.64-3.28-5-9.41-15.21-11.37-24.14,0,0-7.35-4.71,18.7-10.94,26.05-6.24,64.9-15.91,73.06-38.09,7.96-21.62-12.96-75.99-46.33-32.67-1.27,1.65-3.76,1.68-5.03.03-5.47-7.12-19.85-21.9-39.82-12.94-18.69,8.38-20.79,22.08-20.53,28.98.07,2.03-1.74,3.61-3.74,3.23-9.45-1.8-32.12-3.35-42.7,19.91-8.72,19.16-3.05,30,2.11,35.31,1.67,1.72.94,4.55-1.35,5.25-6.21,1.9-14.23,7.17-13.42,21.71,1.11,20.11,23.6,18.34,30,17.42,1.05-.15,2.11.21,2.82.99,5.49,6.08,30.22,31.87,56.99,34.98,2.32.27,4.11-2.02,3.36-4.23l-11.59-33.67c-.54-1.56.21-3.28,1.72-3.95l5.75-2.54Z" style="fill:url(#uuid-f9df2f91-10c4-4d32-9922-1850eea6feab); stroke-width:0px;"/><path d="M488.32,1092.71s-29.1-19.97-31.23-3.15c-2.13,16.82,26.21,24.36,40.24,18.09l-9.01-14.93Z" style="fill:url(#uuid-b9bbb2ac-f7bb-4315-9714-e7807d33232e); stroke-width:0px;"/></svg>