<?xml version="1.0" encoding="UTF-8"?><svg id="uuid-c71844f5-b459-44cc-8f9c-d2f105b9b598" xmlns="http://www.w3.org/2000/svg" xmlns:xlink="http://www.w3.org/1999/xlink" viewBox="0 0 2820.92 2647.92"><defs><linearGradient id="uuid-1f923a8e-a136-4d90-9877-c7957a170375" x1="1621.98" y1="2015.81" x2="1218.04" y2="3033.32" gradientUnits="userSpaceOnUse"><stop offset="0" stop-color="#09005d"/><stop offset="1" stop-color="#1a0f91"/></linearGradient><linearGradient id="uuid-892ca554-6912-4f9b-8fb7-139b39629065" x1="1716.99" y1="478.1" x2="1180.11" y2="2088.73" xlink:href="#uuid-1f923a8e-a136-4d90-9877-c7957a170375"/><linearGradient id="uuid-e2583630-9dc6-469b-b4ce-df9b6b5a4308" x1="1025.58" y1="3058.86" x2="1649.38" y2="2399.27" xlink:href="#uuid-1f923a8e-a136-4d90-9877-c7957a170375"/><linearGradient id="uuid-40ca8bf0-128c-4a60-abb7-a843c0792ae7" x1="2547.79" y1="-452.16" x2="1211.49" y2="1311.01" gradientUnits="userSpaceOnUse"><stop offset="0" stop-color="#4042e2"/><stop offset="1" stop-color="#4f52ff"/></linearGradient><linearGradient id="uuid-9f47eaea-21d7-47d3-af88-effb905cce7e" x1="7980.63" y1="-791.09" x2="7433.52" y2="364.47" gradientTransform="translate(8984.85 56.34) rotate(175.72) scale(1 -1)" gradientUnits="userSpaceOnUse"><stop offset="0" stop-color="#fe7062"/><stop offset="1" stop-color="#ff928e"/></linearGradient><linearGradient id="uuid-bcd6f91b-246d-4e6a-bfc3-433be89871db" x1="7785.96" y1="-883.25" x2="7238.86" y2="272.32" xlink:href="#uuid-9f47eaea-21d7-47d3-af88-effb905cce7e"/><linearGradient id="uuid-b6a0cf28-b42a-4095-a573-cf69be77a9a2" x1="7586.99" y1="-977.45" x2="7039.89" y2="178.12" xlink:href="#uuid-9f47eaea-21d7-47d3-af88-effb905cce7e"/><linearGradient id="uuid-8acdd6db-a219-4c66-a032-880fdd2e1da0" x1="7394.54" y1="-1068.56" x2="6847.43" y2="87.01" xlink:href="#uuid-9f47eaea-21d7-47d3-af88-effb905cce7e"/><linearGradient id="uuid-7de2afdf-512f-44df-acfb-43bad5790f91" x1="7197.35" y1="-1161.91" x2="6650.25" y2="-6.35" xlink:href="#uuid-9f47eaea-21d7-47d3-af88-effb905cce7e"/><linearGradient id="uuid-63645f6d-ea1d-4f62-8af2-0fc8be362fbc" x1="419.34" y1="4017.51" x2="-648.34" y2="5722.36" gradientTransform="translate(709.99 -2557.36) rotate(.99)" gradientUnits="userSpaceOnUse"><stop offset="0" stop-color="#4f52ff"/><stop offset="1" stop-color="#4042e2"/></linearGradient><linearGradient id="uuid-067aff44-efa7-4ed7-b56b-6d708455439e" x1="789.54" y1="1672.78" x2="-241.68" y2="3187.86" gradientTransform="translate(-16.57 142.08) rotate(-1.76)" gradientUnits="userSpaceOnUse"><stop offset="0" stop-color="#ff928e"/><stop offset="1" stop-color="#feb3b1"/></linearGradient><linearGradient id="uuid-b90c4b66-e119-47f3-8205-88f740a504b7" x1="6562.22" y1="-10567.76" x2="7012.18" y2="-11656.86" gradientTransform="translate(1159.34 -5654.42) rotate(-1.38)" xlink:href="#uuid-9f47eaea-21d7-47d3-af88-effb905cce7e"/><linearGradient id="uuid-c6fc0cc7-f892-466c-af05-b2c3e9d8c970" x1="6498.87" y1="-10593.92" x2="6948.83" y2="-11683.02" gradientTransform="translate(1159.34 -5654.42) rotate(-1.38)" xlink:href="#uuid-9f47eaea-21d7-47d3-af88-effb905cce7e"/><linearGradient id="uuid-5f426760-f199-4cc5-a8a2-bf548351b65c" x1="6629.47" y1="-10539.98" x2="7079.42" y2="-11629.08" gradientTransform="translate(1159.34 -5654.42) rotate(-1.38)" xlink:href="#uuid-9f47eaea-21d7-47d3-af88-effb905cce7e"/><linearGradient id="uuid-ea6cee61-8456-4704-9862-74ebb5c16d21" x1="6686.93" y1="-10516.22" x2="7136.88" y2="-11605.32" gradientTransform="translate(1159.34 -5654.42) rotate(-1.38)" xlink:href="#uuid-9f47eaea-21d7-47d3-af88-effb905cce7e"/><linearGradient id="uuid-6da94c43-e0ca-4b98-93a9-c579bea5ad99" x1="6744.89" y1="-10492.27" x2="7194.84" y2="-11581.37" gradientTransform="translate(1159.34 -5654.42) rotate(-1.38)" xlink:href="#uuid-9f47eaea-21d7-47d3-af88-effb905cce7e"/><linearGradient id="uuid-2e17acd7-e8ce-4a3a-a838-5efb27d48529" x1="1801.88" y1="3378.78" x2="1449.88" y2="3841.82" gradientTransform="translate(929.12 -2673.61) rotate(28.59)" xlink:href="#uuid-1f923a8e-a136-4d90-9877-c7957a170375"/><linearGradient id="uuid-a886b4a1-8db7-45db-a019-2b7912d9e814" x1="-257.07" y1="6647.32" x2="-620.44" y2="7125.33" gradientTransform="translate(1185.31 -5541.72) rotate(.48)" xlink:href="#uuid-1f923a8e-a136-4d90-9877-c7957a170375"/><linearGradient id="uuid-cdb85b67-c8c0-429e-8c5c-3731ff1cba03" x1="-302.85" y1="6676.56" x2="-553.76" y2="7137.27" gradientTransform="translate(1185.31 -5541.72) rotate(.48)" xlink:href="#uuid-1f923a8e-a136-4d90-9877-c7957a170375"/><linearGradient id="uuid-5481903b-bcff-4f1e-a884-9a9e5663959e" x1="8646.89" y1="2640.2" x2="8806.39" y2="2640.2" gradientTransform="translate(11148.83) rotate(-180) scale(1 -1)" xlink:href="#uuid-63645f6d-ea1d-4f62-8af2-0fc8be362fbc"/><linearGradient id="uuid-c3e0a755-07c2-4bca-818b-403a64c278a6" x1="8646.88" y1="2608.94" x2="8801.89" y2="2608.94" gradientTransform="translate(11148.83) rotate(-180) scale(1 -1)" xlink:href="#uuid-1f923a8e-a136-4d90-9877-c7957a170375"/><linearGradient id="uuid-0025e5b7-3a6a-4e0f-9150-e5f5914d11ef" x1="8661.62" y1="2565.3" x2="8706.55" y2="2565.3" gradientTransform="translate(11148.83) rotate(-180) scale(1 -1)" gradientUnits="userSpaceOnUse"><stop offset="0" stop-color="#febbba"/><stop offset="1" stop-color="#ff928e"/></linearGradient><linearGradient id="uuid-7ffcd727-5810-49c7-b700-d94951db4b8d" x1="8328.91" y1="2636.76" x2="8390.04" y2="2636.76" gradientTransform="translate(11148.83) rotate(-180) scale(1 -1)" xlink:href="#uuid-63645f6d-ea1d-4f62-8af2-0fc8be362fbc"/><linearGradient id="uuid-9d1cdc85-34af-4d58-9e5b-ebc071b32def" x1="8329.36" y1="2589.7" x2="8419.07" y2="2589.7" gradientTransform="translate(11148.83) rotate(-180) scale(1 -1)" xlink:href="#uuid-1f923a8e-a136-4d90-9877-c7957a170375"/><linearGradient id="uuid-4d1eccf0-11b5-47a2-b492-afa78e30fc69" x1="8375.99" y1="2527.84" x2="8429.68" y2="2527.84" xlink:href="#uuid-0025e5b7-3a6a-4e0f-9150-e5f5914d11ef"/><linearGradient id="uuid-f18db9f2-6460-47a1-9b4a-0a453e8560d4" x1="2873.26" y1="996.7" x2="2591.87" y2="2108.87" gradientTransform="matrix(1,0,0,1,0,0)" xlink:href="#uuid-63645f6d-ea1d-4f62-8af2-0fc8be362fbc"/><linearGradient id="uuid-e4f47dc3-3e22-44b7-8346-5023368457df" x1="2512" y1="1503.24" x2="2036.48" y2="2259.98" gradientTransform="matrix(1,0,0,1,0,0)" xlink:href="#uuid-9f47eaea-21d7-47d3-af88-effb905cce7e"/><linearGradient id="uuid-5e8c4cce-162b-4933-bde6-e0d218c1d11c" x1="8621.99" y1="1745.19" x2="8430.85" y2="1914.45" xlink:href="#uuid-0025e5b7-3a6a-4e0f-9150-e5f5914d11ef"/><linearGradient id="uuid-f3d82998-a271-457b-b9e8-943ed445bd4d" x1="2594.19" y1="1554.89" x2="2118.67" y2="2311.63" gradientTransform="matrix(1,0,0,1,0,0)" xlink:href="#uuid-9f47eaea-21d7-47d3-af88-effb905cce7e"/><linearGradient id="uuid-9c36e7f4-466b-4ab9-b2cd-4fdc61101890" x1="2368.3" y1="1412.94" x2="1892.78" y2="2169.68" gradientTransform="matrix(1,0,0,1,0,0)" xlink:href="#uuid-9f47eaea-21d7-47d3-af88-effb905cce7e"/><linearGradient id="uuid-efa17e99-7dc7-4dd1-a9b3-426644b5f44a" x1="8980.3" y1="1761.2" x2="9130.83" y2="1761.2" xlink:href="#uuid-0025e5b7-3a6a-4e0f-9150-e5f5914d11ef"/><linearGradient id="uuid-5e1db811-fc4c-4d4f-a5ac-4cfde1367f9e" x1="8833.98" y1="1358.93" x2="8832.34" y2="1640.03" xlink:href="#uuid-0025e5b7-3a6a-4e0f-9150-e5f5914d11ef"/><linearGradient id="uuid-e48144df-7c68-4a70-8493-2b84836e6fbc" x1="8415.58" y1="1871.47" x2="9203.85" y2="1871.47" gradientTransform="translate(11148.83) rotate(-180) scale(1 -1)" xlink:href="#uuid-1f923a8e-a136-4d90-9877-c7957a170375"/><linearGradient id="uuid-b570030d-b3cc-4f40-a55a-9ab283f23253" x1="9119.68" y1="1521.94" x2="9924.8" y2="1521.94" gradientTransform="translate(11148.83) rotate(-180) scale(1 -1)" xlink:href="#uuid-1f923a8e-a136-4d90-9877-c7957a170375"/><linearGradient id="uuid-70daafaa-6662-4b83-9f8d-df63f04766c2" x1="8697.47" y1="1830.43" x2="8506.33" y2="1999.69" xlink:href="#uuid-0025e5b7-3a6a-4e0f-9150-e5f5914d11ef"/><linearGradient id="uuid-ce7a8a45-d16c-4dd7-8fe9-289c66134d25" x1="9114.84" y1="1743.52" x2="9168.75" y2="1743.52" xlink:href="#uuid-0025e5b7-3a6a-4e0f-9150-e5f5914d11ef"/><linearGradient id="uuid-8ebf72c1-18cd-4200-8273-772eaa928506" x1="6567.53" y1="1332.57" x2="6432.2" y2="1436.11" gradientTransform="translate(8815.83) rotate(-180) scale(1 -1)" xlink:href="#uuid-0025e5b7-3a6a-4e0f-9150-e5f5914d11ef"/><linearGradient id="uuid-7f36c333-2acd-4b22-8647-be05c3ea0a67" x1="6472.45" y1="1250.83" x2="6595" y2="1408.6" gradientTransform="translate(8815.83) rotate(-180) scale(1 -1)" xlink:href="#uuid-1f923a8e-a136-4d90-9877-c7957a170375"/><linearGradient id="uuid-84fa5228-473c-4092-b3a4-f18e05acb755" x1="6550.74" y1="1310.63" x2="6415.41" y2="1414.17" gradientTransform="translate(8815.83) rotate(-180) scale(1 -1)" xlink:href="#uuid-0025e5b7-3a6a-4e0f-9150-e5f5914d11ef"/><linearGradient id="uuid-816620fb-ddaa-46cc-92e3-fcf978bdfe32" x1="1446.95" y1="1753.92" x2="2142.34" y2="398.93" gradientTransform="matrix(1,0,0,1,0,0)" xlink:href="#uuid-9f47eaea-21d7-47d3-af88-effb905cce7e"/></defs><path d="M144.18,446.13c-1.59-.75-2.68-2.36-2.67-4.19.04-6.05.21-12.2.51-18.28.12-2.5,2.27-4.39,4.81-4.23,6.15.36,3.99,6.36,3.88,22.73-.02,2.5-2.09,4.48-4.63,4.42-.68-.02-1.32-.18-1.9-.45Z" style="fill:#91b3fa; stroke-width:0px;"/><path d="M148.47,367.09c2.07-11.44,4.62-22.94,7.6-34.17.64-2.41,3.15-3.82,5.61-3.15,6.69,1.87,1.94,5.34-4.15,39.06-.44,2.46-2.83,4.06-5.33,3.58-2.53-.49-4.16-2.89-3.72-5.32ZM174.09,279.04c4.4-10.81,9.32-21.65,14.45-31.84,2.75-5.48,10.9-1.11,8.25,4.14-5.11,10.16-9.85,20.62-14.16,31.2-.94,2.31-3.62,3.39-5.97,2.43-2.38-.98-3.5-3.65-2.57-5.93ZM217.28,198.21c6.51-9.61,13.5-19.08,20.78-28.15,3.75-4.67,10.99,1.04,7.25,5.7-7.13,8.89-13.98,18.17-20.36,27.58-3.36,4.95-11.02-.19-7.67-5.13ZM276.46,134.48c-1.79-1.81-1.78-4.68.03-6.41,8.4-8.06,17.24-15.89,26.28-23.27,4.65-3.79,10.59,3.23,5.94,7.02-8.85,7.23-17.52,14.9-25.75,22.8-1.8,1.73-4.72,1.67-6.5-.14ZM347.88,77.84c-1.38-2.12-.78-4.92,1.35-6.24,9.93-6.18,20.23-12.04,30.62-17.42,5.35-2.76,9.74,5.27,4.39,8.04-10.18,5.28-20.27,11.02-30,17.07-2.13,1.32-4.98.68-6.36-1.44ZM432.06,39.39c-1.04-.49-1.9-1.36-2.35-2.51-.92-2.35.25-4.96,2.61-5.82,11.03-4.05,22.36-7.71,33.66-10.89,2.43-.68,5,.71,5.73,3.12.73,2.41-.64,4.91-3.07,5.6-11.08,3.11-22.18,6.7-32.99,10.67-1.21.44-2.51.35-3.6-.17ZM521.12,16.67c-1.33-.63-2.34-1.87-2.61-3.4-.42-2.48,1.26-4.78,3.77-5.16,11.66-1.74,23.54-3.05,35.31-3.88,2.53-.18,4.77,1.7,4.99,4.2.23,2.49-1.64,4.67-4.17,4.84-11.54.82-23.18,2.1-34.6,3.8-.95.14-1.88-.02-2.7-.4ZM610.67,8.05c.1-2.5,2.23-4.41,4.77-4.27,11.8.65,23.75,1.78,35.51,3.34,6.06.82,4.95,9.78-1.07,8.98-11.52-1.53-23.23-2.63-34.79-3.27-2.53-.14-4.52-2.27-4.42-4.78ZM896.67,130.05c-25.77-23.24-31.98-23.4-27.75-28.78,1.54-1.96,4.42-2.29,6.44-.74,9.4,7.24,18.63,14.94,27.44,22.88,4.52,4.07-1.6,10.72-6.14,6.64ZM702.3,21.57c.61-2.42,3.11-3.85,5.57-3.2,11.46,3.02,22.97,6.51,34.2,10.4,5.77,2,2.86,10.54-2.91,8.55-11-3.81-22.28-7.24-33.51-10.19-2.49-.66-3.96-3.16-3.35-5.55ZM822.63,75.79c-29.88-17.58-36.06-16.53-33.04-22.69,1.92-3.91,6.69-2,6.13-2.02,10.7,5.24,21.3,10.94,31.51,16.94,2.2,1.29,2.95,4.08,1.67,6.22-1.22,2.05-3.94,2.88-6.28,1.54Z" style="fill:#91b3fa; stroke-width:0px;"/><path d="M948.16,184.87c-9.62-12.12-15.85-16.47-11.11-20.4,1.92-1.6,4.83-1.35,6.48.59,10.45,12.13,15.79,17.06,11.09,20.66-1.41,1.08-4.88,1.14-6.46-.84Z" style="fill:#91b3fa; stroke-width:0px;"/><path d="M1044.06,523.67c-1.78-.84-2.9-2.75-2.62-4.76.8-5.9,1.49-11.88,2.05-17.79.23-2.49,2.47-4.28,5-4.01,2.52.28,4.39,2.51,4.16,5-.57,6.02-1.27,12.13-2.09,18.15-.34,2.47-2.65,4.18-5.17,3.8-.47-.07-.92-.21-1.33-.4Z" style="fill:#91b3fa; stroke-width:0px;"/><path d="M394.22,851.96c-11.41-5.79-22.72-12.13-33.6-18.83-2.17-1.34-2.86-4.14-1.54-6.25,3.72-5.96,5.84.09,39.23,17.04,2.28,1.15,3.2,3.89,2.07,6.11-1.98,3.88-6.72,1.9-6.16,1.93ZM448.86,870.75c2.29-6.63,5.88-1.13,41.88,8.31,2.47.64,3.97,3.13,3.36,5.55-.61,2.42-3.11,3.86-5.57,3.21-12.32-3.23-24.7-7.02-36.79-11.27-2.42-.85-3.69-3.45-2.88-5.8ZM309.72,796.84c-9.87-8.09-19.52-16.7-28.69-25.59-1.83-1.77-1.88-4.64-.11-6.41,4.97-4.99,5.69,1.35,34.62,25.07,1.97,1.62,2.27,4.48.66,6.39-1.61,1.91-4.5,2.15-6.47.54ZM548.41,899.16c-1.74-.82-2.85-2.66-2.64-4.64.27-2.48,2.53-4.25,5.06-3.94,12.43,1.52,25.04,2.54,37.49,3.02,2.55.1,4.55,2.2,4.5,4.71-.05,2.5-2.16,4.45-4.69,4.35-12.71-.49-25.59-1.53-38.27-3.08-.51-.06-1-.21-1.45-.42ZM647.84,900.43c-1.4-.67-2.45-2.01-2.64-3.64-.29-2.49,1.52-4.71,4.04-4.95,12.38-1.2,24.86-2.94,37.1-5.17,2.49-.45,4.91,1.18,5.42,3.64.5,2.46-1.11,4.83-3.59,5.28-12.49,2.28-25.23,4.05-37.87,5.27-.87.08-1.71-.08-2.46-.43ZM744.76,880.18c-1.09-.52-1.98-1.45-2.41-2.66-.84-2.38.43-4.94,2.83-5.72,11.78-3.85,23.53-8.23,34.93-13.04,2.32-.98,5.04.1,6.07,2.4,1.03,2.3,0,4.97-2.33,5.94-11.63,4.91-23.63,9.39-35.65,13.31-1.17.38-2.4.27-3.45-.23ZM834.53,839.49c-.79-.37-1.48-.97-1.97-1.76-1.34-2.15-.67-4.93,1.49-6.21,10.6-6.29,21.06-13.12,31.08-20.28,2.04-1.46,4.92-.99,6.43,1.05,1.52,2.03,1.09,4.87-.95,6.32-10.23,7.31-20.9,14.27-31.72,20.7-1.37.81-3,.82-4.36.18ZM911.47,779.37c-5-5.11,1.41-5.53,25.75-33,3.96-4.48,10.94,1.55,6.97,6.03-8.3,9.37-17.13,18.5-26.22,27.14-1.81,1.71-4.71,1.65-6.5-.17ZM975.13,705.07c-6.01-3.92.1-5.68,17.63-37.89,2.84-5.22,10.98-.86,8.12,4.39-5.98,10.99-12.51,21.85-19.4,32.26-1.4,2.11-4.28,2.62-6.35,1.24ZM1020.05,618.41c-2.15-1.02-3.21-3.5-2.38-5.72,4.33-11.52,8.21-23.31,11.53-35.06.68-2.4,3.21-3.77,5.66-3.06,2.45.73,3.88,3.23,3.21,5.63-3.38,11.98-7.34,24.02-11.76,35.77-.88,2.33-3.52,3.49-5.9,2.58-.12-.04-.23-.09-.35-.15Z" style="fill:#91b3fa; stroke-width:0px;"/><path d="M239.09,724.7c-9.9-12.61-14.99-17.76-10.12-21.13,5.06-3.51,7.23,2.75,17.35,15.66,1.57,2,1.22,4.84-.78,6.35-2,1.51-4.89,1.11-6.46-.88Z" style="fill:#91b3fa; stroke-width:0px;"/><path d="M298.58,614.77l65.88-2.75c17.96,25,40.05,47.42,65.8,66.12-2.59,63.1-7.24,67.34-.71,70.13l73.12,31.18c2.14.91,4.6.39,6.14-1.28l43.76-47.87c31.3,5.62,62.73,6.02,93.15,1.65l43.72,49.49c1.53,1.73,4,2.34,6.13,1.51l73.16-28.53c2.14-.83,3.48-2.92,3.34-5.2l-3.96-64.99c25.05-17.26,47.41-38.64,65.93-63.69l65.83,5.13c2.31.18,4.45-1.1,5.34-3.19l30.34-71.53c.89-2.09.32-4.53-1.41-6.07l-49.35-43.98c5.16-30.75,5-61.73.03-91.79,47.41-42.26,53.55-41.79,50.86-48.24-30.92-70.71-28.37-76.31-35.59-76.01l-65.88,2.75c-17.96-25-40.05-47.42-65.8-66.12,2.59-63.06,7.25-67.34.71-70.13-73.18-29.73-74.55-35.04-79.26-29.89l-43.76,47.87c-31.3-5.63-62.73-6.02-93.15-1.65-43.19-46.9-43.26-53.56-49.86-50.99-71.9,29.51-76.93,26.71-76.5,33.73l3.96,64.99c-25.05,17.26-47.41,38.64-65.93,63.69-62.95-3.61-68.41-8.47-71.17-1.94-28.75,71.3-34.27,72.84-28.93,77.6l49.35,43.98c-5.15,30.75-5,61.73-.03,91.79-47.24,42.11-53.56,41.76-50.86,48.25,30.92,70.71,28.37,76.31,35.59,76.01Z" style="fill:#91b3fa; stroke-width:0px;"/><path d="M522.97,437.39c6.19-41.39,45.49-69.5,87.61-62.66,42.1,6.85,71.33,46.08,65.14,87.47-6.2,41.39-45.5,69.5-87.61,62.66h0c-42.12-6.84-71.33-46.09-65.14-87.47ZM589.11,518.15l.04.02-.04-.02ZM608.57,388.14c-34.18-5.55-66.79,16.96-71.95,51.46-5.09,33.99,18.91,66.23,53.49,71.84,34.58,5.62,66.86-17.47,71.95-51.46,5.1-34.05-18.97-66.24-53.5-71.84Z" style="fill:#bdd0fb; stroke-width:0px;"/><path d="M517.57,624.55h0c-10.35-4.91-20.27-10.66-29.58-17.18-2.8-1.96-3.72-5.56-2.34-8.48.17-.35.36-.69.59-1.01,2.17-3.05,6.48-3.74,9.6-1.55,10.71,7.49,22.3,13.91,34.43,19.09h0c91.44,38.99,196.36-.07,237.61-87.09,1.05-2.22,2.06-4.48,3.03-6.76,39.15-92.29-5.88-198.93-99.5-238.88-93.49-39.86-201.55,1.82-240.64,93.85-23.24,54.79-10.03,93.91-12.7,99.53-2.88,6.07-12.09,4.58-13.09-2.09-5.45-36.43-.44-74.82,16.3-110.15,72.24-152.41,296.82-143.71,362.45,13.88,20.2,48.5,20.17,101.51-.1,149.28-1.05,2.47-2.14,4.91-3.29,7.33-20.94,44.2-57.57,78.22-103.9,96.29-48.86,19.05-102.65,18.08-151.48-2.74-2.49-1.06-4.97-2.18-7.41-3.34Z" style="fill:#bdd0fb; stroke-width:0px;"/><path d="M1094.02,342.89c10.99,13.24,24.16,24.82,39.23,34.12l.34,36.81c.04,4.09,3.55,2.54,43.97,16.86,3.74,1.25,3.37-2.26,25.78-30.23,17.63,1.64,35.12.32,51.86-3.65l26.29,25.81c2.92,2.86,4.31-.71,43.01-19.17,1.16-.58,1.82-1.82,1.65-3.1l-4.8-36.53c13.24-10.99,24.82-24.16,34.12-39.23,35.17-1.06,38.38,1.4,39.66-2.41,13.15-41.74,16.14-42.85,12.99-45.27l-29.2-22.42c1.64-17.63.32-35.12-3.65-51.86l25.81-26.29c2.86-2.91-.71-4.3-19.17-43.01-1.75-3.52-3.82-.8-39.63,3.15-10.99-13.24-24.16-24.82-39.23-34.12l-.34-36.81c-.04-4.09-3.55-2.54-43.97-16.86-3.72-1.25-3.25,2.12-25.78,30.23-17.63-1.64-35.12-.32-51.86,3.65l-26.29-25.81c-.92-.9-2.32-1.12-3.47-.55l-39.54,19.72c-1.16.58-1.82,1.82-1.65,3.1l4.8,36.52c-13.24,10.99-24.82,24.16-34.12,39.23-35.17,1.06-38.38-1.4-39.66,2.41-13.15,41.72-16.15,42.84-12.99,45.27l29.2,22.42c-1.64,17.63-.32,35.12,3.65,51.86-24.12,25.62-28.15,26.15-26.36,29.76l19.72,39.54c1.76,3.53,4,.78,39.63-3.15Z" style="fill:#91b3fa; stroke-width:0px;"/><path d="M1172.18,236.2c1.92-25.41,24.04-44.42,49.46-42.5,25.4,1.92,44.42,24.04,42.5,49.45-1.92,25.35-24.1,44.42-49.46,42.5h0c-25.35-1.92-44.41-24.1-42.5-49.45ZM1215.19,278.8l.04.02-.04-.02ZM1185.88,237.23c-1.34,17.8,12.05,33.37,29.83,34.72h0c28.58,2.16,45.73-31.55,26.99-53.37-18.66-21.71-54.65-10.11-56.82,18.65Z" style="fill:#bdd0fb; stroke-width:0px;"/><path d="M986,306.15c-1.71-5.95-3.2-12.05-4.44-18.14-.51-2.48,1.09-4.9,3.57-5.4,6.24-1.27,5.28,5.67,9.67,21.02.7,2.43-.71,4.97-3.14,5.67-2.42.7-4.96-.7-5.66-3.14Z" style="fill:#91b3fa; stroke-width:0px;"/><path d="M977.05,226.94c.64-12.15,2.23-24.78,4.9-37.41,1.25-5.94,10.21-4.02,8.96,1.89-6.91,32.73-1.88,40.75-9.53,40.34-2.55-.14-4.46-2.31-4.33-4.82ZM1004.17,137.84c-2.26-1.13-3.18-3.88-2.05-6.15,5.61-11.22,12.17-22.1,19.48-32.33,3.53-4.93,10.98.4,7.45,5.33-7.03,9.84-13.34,20.3-18.74,31.1-1.99,3.97-6.7,2.03-6.15,2.05ZM1064.19,62.12c-.58-.28-1.11-.67-1.55-1.2-1.62-1.94-1.37-4.83.57-6.45,9.63-8.06,19.97-15.43,30.73-21.9,2.17-1.3,4.99-.6,6.29,1.57,1.3,2.17.6,4.98-1.57,6.29-10.35,6.22-20.3,13.31-29.57,21.07-1.42,1.18-3.34,1.37-4.91.63ZM1149.31,16.48c-1.14-.54-2.05-1.54-2.43-2.85-.72-2.43.67-4.97,3.1-5.69,12.04-3.55,24.47-6.17,36.93-7.78,2.51-.32,4.81,1.45,5.13,3.96.32,2.51-1.45,4.81-3.96,5.13-11.98,1.55-23.93,4.07-35.52,7.48-1.12.33-2.27.21-3.25-.25ZM1243,4.02c.31-2.51,2.6-4.29,5.11-3.98,12.5,1.55,24.94,4.09,36.98,7.55,5.81,1.64,3.31,10.48-2.53,8.81-11.58-3.33-23.55-5.77-35.58-7.26-2.57-.33-4.29-2.65-3.98-5.11Z" style="fill:#91b3fa; stroke-width:0px;"/><path d="M1351.89,49.63c-13.73-9.68-19.82-10.74-16.66-16.05,1.29-2.17,4.06-2.93,6.28-1.6,5.31,3.15,10.57,6.57,15.66,10.16,2.07,1.46,2.56,4.32,1.1,6.38-1.44,2.03-4.27,2.58-6.38,1.1Z" style="fill:#91b3fa; stroke-width:0px;"/><path d="M1448.94,212.51c-1.96-16.76-5.23-21.94.84-23.13,2.49-.49,4.89,1.13,5.38,3.61,1.19,6.06,2.16,12.27,2.88,18.45.29,2.51-1.51,4.79-4.02,5.08-2.5.3-4.79-1.5-5.08-4.02Z" style="fill:#91b3fa; stroke-width:0px;"/><path d="M1136.77,462.21c2.47-7.2,7.81.3,40.39,6.1,5.95,1.05,4.38,10.08-1.61,9.02-12.18-2.17-24.27-5.3-35.93-9.3-2.36-.8-3.68-3.39-2.85-5.82ZM1230.78,476.26c-.18-2.52,1.72-4.71,4.25-4.89,33.29-2.37,39.08-9.29,40.79-1.85.57,2.47-.97,4.92-3.44,5.49-12.03,2.77-24.38,4.62-36.71,5.49-2.52.18-4.71-1.72-4.89-4.25ZM1322.72,452.3c-3.5-6.78,5.53-5.39,32.33-24.95,4.9-3.57,10.3,3.83,5.4,7.4-9.99,7.29-20.61,13.86-31.56,19.52-2.24,1.16-5.01.28-6.17-1.97ZM1397.86,394.11c-5.89-4.88,3-7.13,19.99-35.62,3.1-5.2,10.98-.52,7.87,4.69-6.32,10.6-13.52,20.8-21.41,30.32-1.62,1.95-4.5,2.21-6.45.61ZM1441.03,305.4c9.41-31.99,4.96-39.88,12.55-38.87,2.51.33,4.27,2.64,3.94,5.14-1.63,12.28-4.22,24.5-7.7,36.31-.71,2.43-3.26,3.82-5.69,3.1-2.42-.71-3.82-3.26-3.1-5.69Z" style="fill:#91b3fa; stroke-width:0px;"/><path d="M1085.38,441.35c-5.18-3.42-10.28-7.07-15.17-10.87-2-1.55-2.36-4.43-.81-6.43,3.91-5.03,7.68.85,21.03,9.65,2.11,1.39,2.69,4.23,1.3,6.35-1.41,2.14-4.28,2.67-6.35,1.3Z" style="fill:#91b3fa; stroke-width:0px;"/><path d="M1161.21,336.92c-3.75-2.2-4.47-6.47-2.64-9.55,1.94-3.27,6.19-4.33,9.42-2.41,6.06,3.59,12.56,6.56,19.33,8.83,1.48.19,36.25,14.5,76.16-5.33,79.16-39.48,71.11-155.79-12.87-183.87-48.32-16.16-100.47,6.88-121.76,51.82-21.45,45.26,1.98,69.18-12.55,72.38-3.71.82-7.37-1.52-8.19-5.23-4.41-19.99-3.3-40.86,3.23-60.38,19.8-59.25,84.2-91.51,143.64-71.63,63.96,21.39,95.93,94.3,66.47,156.46-23.75,50.13-82.44,77.56-138.48,58.81h0c-7.58-2.54-14.9-5.87-21.74-9.9Z" style="fill:#bdd0fb; stroke-width:0px;"/><polygon points="1234.15 2088.17 1183.44 2542.98 1771.79 2542.98 1695.16 2088.17 1234.15 2088.17" style="fill:url(#uuid-1f923a8e-a136-4d90-9877-c7957a170375); stroke-width:0px;"/><path d="M0,742.22v1251.15c0,102.92,82.02,187.09,184.91,189.74,456.98,11.78,2055.29,40.36,2490.3,33.94,74.77-1.1,135.34-60.93,137.49-135.68,8.39-290.66,22.01-989.6-28.4-1314.09-10.62-68.33-68.3-119.43-137.42-121.64-382.89-12.25-2077.2-51.14-2512.01-41.38C59.88,605.95,0,667.21,0,742.22Z" style="fill:url(#uuid-892ca554-6912-4f9b-8fb7-139b39629065); stroke-width:0px;"/><path d="M78.51,736.13v1188.68c0,60.09,48.24,109.06,108.32,109.96l2425.8,29.97c59.57.89,108.4-47.04,108.62-106.61l4.06-1178.06c.16-42.6-33.78-77.5-76.37-78.54l-2483.57-50.17c-47.63-1.16-86.87,37.14-86.87,84.78Z" style="fill:#7d97f4; stroke-width:0px;"/><path d="M147.32,773.85v1115.68c0,56.4,45.93,102.36,103.14,103.2l2309.75,28.13c56.72.84,103.22-44.15,103.43-100.07l3.86-1105.71c.15-39.98-32.16-72.74-72.71-73.72l-2364.76-47.09c-45.35-1.09-82.71,34.86-82.71,79.57Z" style="fill:#91b3fa; stroke-width:0px;"/><path d="M2739.51,2113.81h-.06l-2661-45.34c-2.06-.04-3.69-1.73-3.66-3.78.04-2.06,1.85-3.79,3.78-3.66l2661,45.34c2.06.04,3.69,1.73,3.66,3.78-.04,2.03-1.69,3.66-3.72,3.66Z" style="fill:#91b3fa; stroke-width:0px;"/><path d="M1435.26,2169.18c-17.32,0-31.41-14.09-31.41-31.41s14.09-31.41,31.41-31.41,31.41,14.09,31.41,31.41-14.09,31.41-31.41,31.41ZM1435.26,2113.81c-13.22,0-23.97,10.75-23.97,23.97s10.75,23.97,23.97,23.97,23.97-10.75,23.97-23.97-10.75-23.97-23.97-23.97Z" style="fill:#91b3fa; stroke-width:0px;"/><path d="M1898.53,2636.03h-861.09c-23.39,0-40.96-16.65-36.44-34.54l11.05-43.7c3.32-13.14,17.78-22.79,34.95-23.32l830.13-25.9c17.94-.56,33.82,8.96,37.73,22.62l19.92,69.6c5.18,18.08-12.48,35.25-36.25,35.25Z" style="fill:url(#uuid-e2583630-9dc6-469b-b4ce-df9b6b5a4308); stroke-width:0px;"/><path d="M1500.98,2547.22c-2.03,0-3.69-1.63-3.72-3.67-.03-2.06,1.61-3.75,3.67-3.77l35.57-.52c1.96.05,3.74,1.61,3.77,3.66.03,2.06-1.61,3.75-3.67,3.77l-35.57.52h-.05Z" style="fill:#91b3fa; stroke-width:0px;"/><path d="M1032.88,2612.86c-.19,0-.39-.01-.59-.05-2.03-.32-3.41-2.23-3.09-4.26l5.07-31.78c2.79-17.52,17.7-30.42,35.44-30.68l377.29-5.52c2.12-.03,3.74,1.61,3.77,3.67.03,2.05-1.61,3.75-3.67,3.77l-377.29,5.52c-14.12.21-25.98,10.47-28.2,24.41l-5.07,31.78c-.29,1.83-1.87,3.13-3.67,3.13Z" style="fill:#91b3fa; stroke-width:0px;"/><path d="M902.22,777.08l280.22-2.07c38.29-.28,69.01,29.26,67.4,64.82l-27.41,605.59c-1.5,33.18-30.75,59.46-66.47,59.72l-248.33,1.84c-37,.27-67.2-27.38-67.45-61.78l-4.48-605.36c-.25-34.39,29.53-62.49,66.53-62.77Z" style="fill:#bdd0fb; stroke-width:0px;"/><path d="M1119.46,1627.64l-886.64,10.55c-34.14.41-61.06,22.51-59.39,48.78l14.76,232.19c1.58,24.77,28.12,44.24,60.33,44.24h871.88c33.36,0,60.4-20.82,60.4-46.51v-242.74c0-25.97-27.61-46.91-61.33-46.51Z" style="fill:#fff; opacity:.2; stroke-width:0px;"/><path d="M2214.18,1563.05l-886.64,12.9c-34.14.5-61.06,27.55-59.39,59.69l14.76,284.1c1.58,30.31,28.12,54.13,60.33,54.13h871.88c33.36,0,60.4-25.48,60.4-56.91v-297.01c0-31.78-27.61-57.4-61.33-56.9Z" style="fill:#bdd0fb; stroke-width:0px;"/><path d="M725.22,748.99h-457.99c-37,0-66.99,30.23-66.99,67.52v656.38c0,37.29,29.99,67.52,66.99,67.52h457.99c37,0,66.99-30.23,66.99-67.52v-656.38c0-37.29-29.99-67.52-66.99-67.52Z" style="fill:#bdd0fb; stroke-width:0px;"/><path d="M1855.65,1003.43h-457.99c-37,0-66.99,16.2-66.99,36.18v351.76c0,19.98,29.99,36.18,66.99,36.18h457.99c37,0,66.99-16.2,66.99-36.18v-351.76c0-19.98-29.99-36.18-66.99-36.18Z" style="fill:#bdd0fb; stroke-width:0px;"/><path d="M2545.29,972h-485.46c-39.22,0-71.01,16.2-71.01,36.18v351.76c0,19.98,31.79,36.18,71.01,36.18h485.46c39.22,0,71.01-16.2,71.01-36.18v-351.76c0-19.98-31.79-36.18-71.01-36.18Z" style="fill:#bdd0fb; stroke-width:0px;"/><path d="M2459.81,392.59c-180.33-5.07-1072.33-34.84-1255.4-40.96-18.07-.6-32.87,27.15-32.87,61.6v159.22c0,34.03,14.47,61.61,32.31,61.61h1255.46c17.85,0,32.31-27.58,32.31-61.61v-118.26c0-33.67-14.16-61.1-31.82-61.6Z" style="fill:url(#uuid-40ca8bf0-128c-4a60-abb7-a843c0792ae7); stroke-width:0px;"/><path d="M1270.51,595.65l48.81-25.56c3.8-1.99,8.33-1.98,12.12.02l48.73,25.71c9.54,5.04,20.72-3.06,18.91-13.69l-9.23-54.32c-.72-4.22.69-8.53,3.76-11.52l39.51-38.4c7.74-7.52,3.49-20.65-7.18-22.22l-54.51-8.01c-4.24-.62-7.9-3.29-9.79-7.14l-24.31-49.44c-4.76-9.68-18.56-9.7-23.35-.04l-24.46,49.37c-1.9,3.84-5.57,6.5-9.81,7.11l-54.54,7.84c-10.68,1.54-14.96,14.65-7.25,22.19l39.4,38.52c3.06,3,4.46,7.31,3.73,11.53l-9.4,54.29c-1.84,10.63,9.31,18.76,18.87,13.75Z" style="fill:url(#uuid-9f47eaea-21d7-47d3-af88-effb905cce7e); stroke-width:0px;"/><path d="M1522.34,602.83l48.81-25.56c3.8-1.99,8.33-1.98,12.12.02l48.73,25.71c9.54,5.04,20.72-3.06,18.91-13.69l-9.23-54.32c-.72-4.22.69-8.53,3.76-11.52l39.51-38.4c7.74-7.52,3.49-20.65-7.18-22.22l-54.51-8.01c-4.24-.62-7.9-3.29-9.79-7.14l-24.31-49.44c-4.76-9.68-18.56-9.7-23.35-.04l-24.46,49.37c-1.9,3.84-5.57,6.5-9.81,7.11l-54.54,7.84c-10.68,1.54-14.96,14.65-7.25,22.19l39.4,38.52c3.06,3,4.46,7.31,3.73,11.53l-9.4,54.29c-1.84,10.63,9.31,18.76,18.87,13.75Z" style="fill:url(#uuid-bcd6f91b-246d-4e6a-bfc3-433be89871db); stroke-width:0px;"/><path d="M1776.37,604.25l48.81-25.56c3.8-1.99,8.33-1.98,12.12.02l48.73,25.71c9.54,5.04,20.72-3.06,18.91-13.69l-9.23-54.32c-.72-4.22.69-8.53,3.76-11.52l39.51-38.4c7.74-7.52,3.49-20.65-7.18-22.22l-54.51-8.01c-4.24-.62-7.9-3.29-9.79-7.14l-24.31-49.44c-4.76-9.68-18.56-9.7-23.35-.04l-24.46,49.37c-1.9,3.84-5.57,6.5-9.81,7.11l-54.54,7.84c-10.68,1.54-14.96,14.65-7.25,22.19l39.4,38.52c3.06,3,4.46,7.31,3.73,11.53l-9.4,54.29c-1.84,10.63,9.31,18.76,18.87,13.75Z" style="fill:url(#uuid-b6a0cf28-b42a-4095-a573-cf69be77a9a2); stroke-width:0px;"/><path d="M2022.96,607.14l48.81-25.56c3.8-1.99,8.33-1.98,12.12.02l48.73,25.71c9.54,5.04,20.72-3.06,18.91-13.69l-9.23-54.32c-.72-4.22.69-8.53,3.76-11.52l39.51-38.4c7.74-7.52,3.49-20.65-7.18-22.22l-54.51-8.01c-4.24-.62-7.9-3.29-9.79-7.14l-24.31-49.44c-4.76-9.68-18.56-9.7-23.35-.04l-24.46,49.37c-1.9,3.84-5.57,6.5-9.81,7.11l-54.54,7.84c-10.68,1.54-14.96,14.65-7.25,22.19l39.4,38.52c3.06,3,4.46,7.31,3.73,11.53l-9.4,54.29c-1.84,10.63,9.31,18.76,18.87,13.75Z" style="fill:url(#uuid-8acdd6db-a219-4c66-a032-880fdd2e1da0); stroke-width:0px;"/><path d="M2273.91,607.14l48.81-25.56c3.8-1.99,8.33-1.98,12.12.02l48.73,25.71c9.54,5.04,20.72-3.06,18.91-13.69l-9.23-54.32c-.72-4.22.69-8.53,3.76-11.52l39.51-38.4c7.74-7.52,3.49-20.65-7.18-22.22l-54.51-8.01c-4.24-.62-7.9-3.29-9.79-7.14l-24.31-49.44c-4.76-9.68-18.56-9.7-23.35-.04l-24.46,49.37c-1.9,3.84-5.57,6.5-9.81,7.11l-54.54,7.84c-10.68,1.54-14.96,14.65-7.25,22.19l39.4,38.52c3.06,3,4.46,7.31,3.73,11.53l-9.4,54.29c-1.84,10.63,9.31,18.76,18.87,13.75Z" style="fill:url(#uuid-7de2afdf-512f-44df-acfb-43bad5790f91); stroke-width:0px;"/><path d="M299.06,1342.52l789.98,6.52c43.58.36,79.24,34.81,81.09,78.35l48.85,1145.8c1.45,34.07-25.6,62.58-59.7,62.92l-905.55,8.98c-32.05.32-58.12-25.71-57.85-57.76l9.52-1152.69c.42-51.3,42.36-92.55,93.66-92.13Z" style="fill:url(#uuid-63645f6d-ea1d-4f62-8af2-0fc8be362fbc); stroke-width:0px;"/><path d="M386.2,2627.14h0s-101.3-2.15-101.3-2.15c-34.1-.72-61.61-29.06-61.33-63.16l1.26-152.96c.01-1.42,1.18-2.57,2.6-2.56,1.45.09,2.57,1.18,2.56,2.6l-1.26,152.96c-.26,31.3,24.99,57.3,56.28,57.96l101.3,2.15c1.43.03,2.55,1.21,2.52,2.63-.03,1.42-1.2,2.55-2.62,2.52Z" style="fill:#bdd0fb; stroke-width:0px;"/><path d="M227.75,2364.09c-1.41-.02-2.55-1.18-2.54-2.6l.2-24.77c.01-1.42,1.18-2.57,2.6-2.56h.02c1.42.02,2.56,1.18,2.54,2.6l-.2,24.77c-.01,1.43-1.18,2.57-2.6,2.56,0,0-.02,0-.02,0Z" style="fill:#bdd0fb; stroke-width:0px;"/><path d="M301.57,1333.26c107.76,15.52,478.35,63.83,785.25,42.82,14-.96,26.05,9.74,26.68,23.75l51.64,1150.93c.71,15.78-11.45,29.17-27.22,29.97-129.06,6.57-660.55,31.69-849.87,10.28-11.52-1.3-20.2-11.08-20.17-22.68l2.87-1208.41c.04-16.41,14.58-29,30.83-26.66Z" style="fill:url(#uuid-067aff44-efa7-4ed7-b56b-6d708455439e); stroke-width:0px;"/><path d="M312.88,1363.19c103.7,14.94,460.34,61.43,755.68,41.21,13.47-.92,25.07,9.37,25.67,22.86l49.7,1107.59c.68,15.19-11.02,28.07-26.2,28.84-124.2,6.32-635.68,30.5-817.87,9.89-11.09-1.25-19.44-10.67-19.41-21.83l2.76-1162.91c.04-15.8,14.03-27.91,29.67-25.66Z" style="fill:#fff; opacity:.6; stroke-width:0px;"/><g style="opacity:.6;"><path d="M1053.4,1501.55c7.5.06,13.43-3.47,13.17-7.85-.25-4.38-6.6-8.07-14.09-8.19l-658.68-10.63c-7.5-.12-9.85,4.61-5.23,10.52,4.62,5.9,14.54,10.79,22.04,10.85l642.78,5.31Z" style="fill:#fff; stroke-width:0px;"/></g><g style="opacity:.6;"><path d="M393.44,1519.13c-7.5-.12-9.85,4.61-5.23,10.52,4.62,5.91,14.54,10.79,22.04,10.85l642.78,5.31c7.5.06,13.43-3.47,13.17-7.85-.25-4.38-6.6-8.07-14.09-8.19l-658.68-10.63Z" style="fill:#fff; stroke-width:0px;"/></g><path d="M499.82,1922.11c-.08,0-.16,0-.24,0l-88.9,1.29c-12.81.18-23.6-8.38-25.09-19.92l-9.61-74.39c-.57-4.43.7-8.84,3.58-12.44,3.22-4.02,8.17-6.61,13.58-7.12h0c7.49-.69,17.79-1.82,29.13-3.06,24.69-2.7,52.67-5.77,69.14-6.37.12,0,.24,0,.36-.01,11.78-.28,22.1,6.66,25.16,16.97,5.05,17.04,5.43,49.47,5.38,84.03-.02,11.34-10.08,20.72-22.48,21.01ZM393.81,1816.77c-3.47.32-6.6,1.93-8.59,4.42-1.64,2.04-2.37,4.52-2.05,6.98l9.61,74.39c1.02,7.88,8.66,13.73,17.79,13.6l88.9-1.29c.06,0,.12,0,.18,0,8.5-.21,15.39-6.35,15.4-13.77.05-34-.31-65.85-5.08-81.96-2.12-7.13-9.97-12.27-18.3-11.77-16.2.59-45.26,3.78-68.61,6.33-11.38,1.25-21.73,2.38-29.25,3.08h0Z" style="fill:#fff; stroke-width:0px;"/><path d="M403.53,1824.02c18.64-1.73,59.12-6.83,78.37-7.53,8.15-.3,15.43,4.46,17.51,11.48,4.05,13.65,4.21,41.04,4.18,66.32-.01,7.57-6.82,13.78-15.3,13.9l-71.05,1.03c-8.74.13-16.13-5.65-17.13-13.39l-7.68-59.44c-.8-6.15,4.2-11.73,11.11-12.37Z" style="fill:#fff; opacity:.6; stroke-width:0px;"/><g style="opacity:.6;"><path d="M582.31,1842.84c-7.5,0-11.93,5.9-9.84,13.1l5.2,17.94c2.09,7.2,9.93,12.95,17.43,12.77l434.87-10.49c7.5-.18,13.35-6.46,13-13.95l-.27-5.9c-.34-7.49-6.76-13.62-14.26-13.62l-446.12.14Z" style="fill:#fff; stroke-width:0px;"/></g><path d="M407.6,1835.62h0c6.51-4.03,15.05-1.93,18.94,4.67l18.29,31c1.83,3.1,6.42,2.79,7.81-.53l41.15-97.85c2.05-4.88,9.28-3.42,9.33,1.87.27,29.62-6.23,86.1-52.41,134.35,0,0-26.32-9.51-48.43-55.11-3.19-6.59-.91-14.55,5.31-18.41Z" style="fill:url(#uuid-b90c4b66-e119-47f3-8205-88f740a504b7); stroke-width:0px;"/><path d="M503.27,1722.46c-.08,0-.16,0-.24,0l-88.9,1.29c-12.81.18-23.6-8.38-25.09-19.92l-9.61-74.39c-.57-4.43.7-8.84,3.58-12.44,3.22-4.02,8.17-6.61,13.58-7.12h0c7.49-.69,17.79-1.82,29.13-3.06,24.69-2.7,52.67-5.77,69.14-6.37.12,0,.24,0,.36-.01,11.78-.28,22.1,6.66,25.16,16.97,5.05,17.04,5.43,49.47,5.38,84.03-.02,11.33-10.08,20.72-22.48,21.01ZM397.25,1617.11c-3.47.32-6.6,1.93-8.59,4.42-1.64,2.04-2.37,4.52-2.05,6.98l9.61,74.39c1.02,7.88,8.66,13.73,17.79,13.6l88.9-1.29c.06,0,.12,0,.18,0,8.5-.2,15.39-6.35,15.4-13.77.05-34-.31-65.85-5.08-81.96-2.12-7.13-9.97-12.27-18.3-11.77-16.2.59-45.26,3.78-68.61,6.33-11.38,1.25-21.73,2.38-29.25,3.08h0Z" style="fill:#fff; stroke-width:0px;"/><path d="M406.98,1624.37c18.64-1.73,59.12-6.83,78.37-7.53,8.15-.3,15.43,4.46,17.51,11.48,4.05,13.65,4.21,41.04,4.18,66.32-.01,7.57-6.82,13.78-15.3,13.9l-71.05,1.03c-8.74.13-16.13-5.65-17.13-13.39l-7.68-59.44c-.8-6.15,4.2-11.73,11.11-12.37Z" style="fill:#fff; opacity:.6; stroke-width:0px;"/><g style="opacity:.6;"><path d="M585.76,1643.18c-7.5,0-11.93,5.9-9.84,13.1l5.2,17.94c2.09,7.2,9.93,12.95,17.43,12.77l434.87-10.49c7.5-.18,13.35-6.46,13-13.95l-.27-5.9c-.34-7.49-6.76-13.62-14.26-13.62l-446.12.14Z" style="fill:#fff; stroke-width:0px;"/></g><path d="M411.05,1635.97h0c6.51-4.03,15.05-1.93,18.94,4.67l18.29,31c1.83,3.1,6.42,2.79,7.81-.53l41.15-97.85c2.05-4.88,9.28-3.42,9.33,1.87.27,29.62-6.23,86.1-52.4,134.35,0,0-26.32-9.51-48.43-55.11-3.19-6.59-.91-14.55,5.31-18.41Z" style="fill:url(#uuid-c6fc0cc7-f892-466c-af05-b2c3e9d8c970); stroke-width:0px;"/><path d="M504.41,2112.61c-.08,0-.16,0-.24,0l-88.9,1.29c-12.81.18-23.6-8.38-25.09-19.92l-9.61-74.39c-.57-4.43.7-8.85,3.58-12.44,3.22-4.02,8.17-6.61,13.58-7.12h0c7.49-.69,17.79-1.82,29.13-3.06,24.69-2.7,52.67-5.77,69.14-6.37.12,0,.24,0,.36-.01,11.78-.28,22.1,6.66,25.16,16.98,5.05,17.03,5.43,49.47,5.38,84.02-.02,11.34-10.08,20.72-22.48,21.02ZM398.4,2007.27c-3.46.32-6.6,1.93-8.59,4.42-1.64,2.05-2.37,4.53-2.05,6.98l9.61,74.39c1.02,7.88,8.66,13.73,17.79,13.59l88.9-1.29c.06,0,.12,0,.17,0,8.5-.2,15.39-6.35,15.4-13.77.05-34-.3-65.85-5.08-81.95-2.12-7.14-9.97-12.19-18.3-11.78-16.2.59-45.26,3.78-68.62,6.33-11.38,1.25-21.73,2.38-29.25,3.08h0Z" style="fill:#fff; stroke-width:0px;"/><path d="M408.13,2014.52c18.64-1.73,59.12-6.83,78.37-7.53,8.15-.3,15.43,4.46,17.51,11.48,4.05,13.65,4.21,41.04,4.18,66.32-.01,7.57-6.82,13.78-15.3,13.9l-71.05,1.03c-8.74.13-16.13-5.65-17.13-13.39l-7.68-59.44c-.79-6.15,4.2-11.73,11.11-12.37Z" style="fill:#fff; opacity:.6; stroke-width:0px;"/><g style="opacity:.6;"><path d="M586.91,2033.34c-7.5,0-11.93,5.9-9.84,13.1l5.2,17.94c2.09,7.2,9.93,12.95,17.43,12.77l434.87-10.49c7.5-.18,13.35-6.46,13-13.95l-.27-5.9c-.34-7.49-6.76-13.62-14.26-13.62l-446.12.14Z" style="fill:#fff; stroke-width:0px;"/></g><path d="M412.19,2026.12h0c6.5-4.03,15.05-1.93,18.94,4.67l18.29,31c1.83,3.1,6.42,2.79,7.81-.53l41.15-97.86c2.05-4.88,9.28-3.42,9.33,1.87.27,29.62-6.23,86.1-52.41,134.35,0,0-26.32-9.51-48.43-55.11-3.19-6.59-.91-14.55,5.31-18.4Z" style="fill:url(#uuid-5f426760-f199-4cc5-a8a2-bf548351b65c); stroke-width:0px;"/><path d="M500.5,2295.73c-.08,0-.16,0-.24,0l-88.91,1.29c-12.81.19-23.59-8.37-25.09-19.92l-9.61-74.39c-.57-4.43.7-8.84,3.58-12.44,3.22-4.02,8.17-6.61,13.58-7.12h0c7.48-.69,17.77-1.82,29.1-3.06,23.48-2.57,52.69-5.77,69.17-6.37,11.69-.34,22.42,6.54,25.52,16.96,5.05,17.04,5.43,49.47,5.38,84.02-.02,11.34-10.08,20.72-22.49,21.02ZM394.5,2190.39c-3.46.32-6.6,1.93-8.59,4.43-1.64,2.05-2.37,4.53-2.05,6.98l9.61,74.39c1.02,7.88,8.67,13.73,17.79,13.6l88.91-1.29c8.38-.35,15.56-6.31,15.58-13.78.05-34-.31-65.85-5.08-81.95-2.12-7.13-9.97-12.09-18.3-11.77-16.21.59-45.28,3.77-68.64,6.33-11.37,1.25-21.71,2.38-29.22,3.07h0Z" style="fill:#fff; stroke-width:0px;"/><path d="M404.22,2197.64c18.64-1.73,59.12-6.82,78.37-7.53,8.15-.3,15.43,4.46,17.51,11.48,4.05,13.65,4.21,41.03,4.18,66.32-.01,7.57-6.82,13.78-15.31,13.9l-71.05,1.03c-8.74.13-16.13-5.65-17.13-13.39l-7.68-59.44c-.79-6.15,4.2-11.73,11.11-12.37Z" style="fill:#fff; opacity:.6; stroke-width:0px;"/><g style="opacity:.6;"><path d="M583,2216.46c-7.5,0-11.93,5.9-9.84,13.1l5.2,17.94c2.09,7.2,9.93,12.95,17.43,12.77l434.87-10.49c7.5-.18,13.35-6.46,13-13.95l-.27-5.9c-.34-7.49-6.76-13.62-14.26-13.62l-446.12.14Z" style="fill:#fff; stroke-width:0px;"/></g><path d="M408.29,2209.25h0c6.51-4.03,15.05-1.93,18.94,4.67l18.29,31c1.83,3.1,6.42,2.79,7.81-.53l41.15-97.85c2.05-4.88,9.28-3.42,9.33,1.87.27,29.62-6.23,86.1-52.41,134.35,0,0-26.32-9.5-48.43-55.11-3.19-6.59-.91-14.55,5.31-18.4Z" style="fill:url(#uuid-ea6cee61-8456-4704-9862-74ebb5c16d21); stroke-width:0px;"/><path d="M494.96,2484.62c-.08,0-.16,0-.24,0l-88.9,1.29c-12.81.19-23.6-8.38-25.09-19.92l-9.61-74.39c-.57-4.43.7-8.84,3.58-12.44,3.22-4.02,8.17-6.61,13.58-7.12h0c7.49-.69,17.79-1.82,29.13-3.06,24.69-2.7,52.67-5.77,69.14-6.37,12.08-.13,22.43,6.54,25.52,16.96,5.05,17.04,5.43,49.47,5.38,84.03-.02,11.34-10.08,20.72-22.48,21.01ZM388.95,2379.27c-3.47.32-6.6,1.93-8.59,4.42-1.64,2.05-2.37,4.53-2.05,6.98l9.61,74.39c1.02,7.88,8.67,13.73,17.79,13.6l88.9-1.29c.06,0,.12,0,.18,0,8.5-.2,15.39-6.35,15.4-13.77.05-34-.31-65.85-5.08-81.96-2.12-7.13-9.97-12-18.3-11.77-16.21.59-45.26,3.78-68.62,6.33-11.38,1.25-21.73,2.38-29.25,3.08h0Z" style="fill:#fff; stroke-width:0px;"/><path d="M398.68,2386.52c18.64-1.73,59.12-6.83,78.37-7.53,8.15-.3,15.43,4.46,17.51,11.48,4.05,13.65,4.21,41.04,4.18,66.32-.01,7.57-6.82,13.78-15.3,13.9l-71.05,1.03c-8.74.13-16.13-5.65-17.13-13.39l-7.68-59.44c-.79-6.15,4.2-11.73,11.11-12.37Z" style="fill:#fff; opacity:.6; stroke-width:0px;"/><g style="opacity:.6;"><path d="M577.46,2405.34c-7.5,0-11.93,5.9-9.84,13.1l5.2,17.94c2.09,7.2,9.93,12.95,17.43,12.77l434.87-10.49c7.5-.18,13.35-6.46,13-13.95l-.27-5.9c-.34-7.49-6.76-13.62-14.26-13.62l-446.12.14Z" style="fill:#fff; stroke-width:0px;"/></g><path d="M402.74,2398.13h0c6.51-4.03,15.05-1.93,18.94,4.67l18.29,31c1.83,3.1,6.42,2.79,7.81-.53l41.15-97.85c2.05-4.88,9.28-3.42,9.33,1.87.27,29.62-6.23,86.1-52.41,134.35,0,0-26.32-9.51-48.43-55.11-3.19-6.59-.91-14.55,5.31-18.41Z" style="fill:url(#uuid-6da94c43-e0ca-4b98-93a9-c579bea5ad99); stroke-width:0px;"/><path d="M744.33,1190.03c-28.37-20.09-53.19-19.9-70.69-14.89-15.97,4.57-26.42,19.87-25.05,36.42l6.85,82.28,89.57,8.69s54.96-73.11-.68-112.51ZM704.37,1256.03c-12.34-.1-22.27-10.19-22.16-22.53.1-12.34,10.19-22.27,22.53-22.17,12.34.1,22.27,10.19,22.17,22.53-.1,12.34-10.19,22.27-22.53,22.17Z" style="fill:url(#uuid-2e17acd7-e8ce-4a3a-a838-5efb27d48529); stroke-width:0px;"/><path d="M663.14,1261.32c-1.55-.58-2.72-2.02-2.86-3.79l-1.09-13.1c-.2-2.44,1.61-4.59,4.05-4.79,2.44-.21,4.59,1.61,4.79,4.06l1.09,13.1c.2,2.44-1.61,4.59-4.05,4.79-.68.06-1.33-.04-1.93-.27ZM661.01,1235.65c-1.55-.58-2.72-2.02-2.86-3.79l-.83-9.95c-1.4-16.85,9.32-32.44,25.51-37.07,11.08-3.17,22.48-3.55,33.87-1.11,2.36.54,3.93,2.87,3.41,5.27-.51,2.4-2.87,3.93-5.27,3.42-9.96-2.13-19.91-1.8-29.57.96-12.12,3.47-20.16,15.16-19.1,27.8l.83,9.95c.2,2.44-1.61,4.59-4.05,4.79-.68.06-1.33-.04-1.93-.27Z" style="fill:#bdd0fb; stroke-width:0px;"/><path d="M532.67,1345.96l.34-41.34c.12-14.27,12.04-25.6,26.29-24.99l284.91,12.12c12.64.54,22.8,10.61,23.46,23.24l2.05,39.74-337.06-8.77Z" style="fill:url(#uuid-a886b4a1-8db7-45db-a019-2b7912d9e814); stroke-width:0px;"/><path d="M627.08,1296.19c-1.41-.02-2.55-1.18-2.54-2.6.01-1.43,1.18-2.57,2.6-2.56l12.26.1c1.49.03,2.57,1.18,2.56,2.6-.01,1.43-1.18,2.57-2.6,2.56l-12.26-.1h-.02Z" style="fill:#bdd0fb; stroke-width:0px;"/><path d="M546.66,1335.1c-1.69-.64-2.89-2.28-2.88-4.19l.14-16.72c.06-6.87,2.78-13.3,7.68-18.11,4.9-4.82,11.37-7.44,18.24-7.38l45.06.37c2.44.03,4.42,2.02,4.4,4.48-.02,2.45-2.02,4.42-4.48,4.4l-45.06-.38c-9.28-.08-16.89,7.41-16.97,16.69l-.14,16.72c-.02,2.45-2.03,4.42-4.48,4.4-.53,0-1.05-.11-1.52-.28Z" style="fill:#bdd0fb; stroke-width:0px;"/><path d="M443.5,1330.1l498.36,4.1c17.92.15,33.13,13.17,36.04,30.85l.4,2.44c3.19,19.37-11.85,36.93-31.48,36.77l-511.29-4.22c-11.75-.1-21.03-10-20.37-21.72l1.29-22.88c.81-14.31,12.7-25.46,27.04-25.34Z" style="fill:url(#uuid-cdb85b67-c8c0-429e-8c5c-3731ff1cba03); stroke-width:0px;"/><path d="M2346.94,2632.49c27.32,2.36,74.75,6.2,112.13,7.84,22.47.99,35.41-1.21,42.86-4.19-.01.84-.04,1.63-.07,2.37-.18,3.93-3.37,7.08-7.35,7.3-70.64,3.94-126.83,1.36-146.83.15-4.14-.25-6.6-4.75-4.49-8.27,1.06-1.76,2.34-3.49,3.73-5.2Z" style="fill:url(#uuid-5481903b-bcff-4f1e-a884-9a9e5663959e); stroke-width:0px;"/><path d="M2459.07,2640.33c-37.39-1.65-84.81-5.48-112.13-7.84,26.86-32.96,112.13-55.17,112.13-55.17h24.08c16.56,23.88,18.96,46.61,18.78,58.82-7.45,2.98-20.39,5.18-42.86,4.19Z" style="fill:url(#uuid-c3e0a755-07c2-4bca-818b-403a64c278a6); stroke-width:0px;"/><path d="M2487.21,2538l-2.25,44.6c-.24,4.83-3.86,8.89-8.7,9.58-4.81.69-11.26.78-18.09-1.5-4.2-1.4-7.33-4.94-8.1-9.26l-7.79-43.41h44.93Z" style="fill:url(#uuid-0025e5b7-3a6a-4e0f-9150-e5f5914d11ef); stroke-width:0px;"/><path d="M2800.01,2640c11.85-1.65,17.21-7.81,19.46-14.39.02.06.03.12.05.18,1.74,6.94-2.3,14.14-10.38,17.56-9.77,4.13-20.44,4.84-28.73,4.5-8.89-.37-17.06-4.05-21.54-9.94l-.07-.09c8.93,4.42,21.46,4.94,41.22,2.18Z" style="fill:url(#uuid-7ffcd727-5810-49c7-b700-d94951db4b8d); stroke-width:0px;"/><path d="M2744.14,2537.71h19.86c30.25-.62,49.25,63.19,55.47,87.9-2.25,6.58-7.61,12.74-19.46,14.39-19.76,2.76-32.29,2.24-41.22-2.18-16.34-21.51-24.45-53.01-28.34-71.39-4.43-20.91,13.69-28.72,13.69-28.72Z" style="fill:url(#uuid-9d1cdc85-34af-4d58-9e5b-ebc071b32def); stroke-width:0px;"/><path d="M2761.45,2496.32l11.03,43.86c1.35,5.38-1.22,10.94-6.19,13.49-6.17,3.17-14.86,6.49-22.84,5.53-3.75-.45-6.87-3.1-8.11-6.63l-16.19-46.15,42.31-10.1Z" style="fill:url(#uuid-4d1eccf0-11b5-47a2-b492-afa78e30fc69); stroke-width:0px;"/><path d="M2774.6,2509c-13.72,12.17-58.35,13.78-58.35,13.78-160.76-385.84-226.52-440.66-226.52-440.66,23.21,145.63,3.74,468.05,3.74,468.05-26.53,11.71-60.73,0-60.73,0-2.15-238.42-38.8-446.35-82.09-610.28,108.65-2.44,166.44-39.62,185.3-54.55,90.57,146.02,238.65,623.65,238.65,623.65Z" style="fill:url(#uuid-f18db9f2-6460-47a1-9b4a-0a453e8560d4); stroke-width:0px;"/><path d="M2508.36,1441.63c20.57,102.58,13.2,286.19,8.35,369.94-1.36,23.54,15.07,56.17,28.35,78.43,2.08,3.49.8,7.96-2.82,9.82-22.24,11.43-97.57,46.85-184.88,51.25-5.82.29-11.02-3.67-12.53-9.3-64.76-241.82-139.99-396.34-139.99-396.34,83.05-132.62,303.5-103.8,303.5-103.8Z" style="fill:url(#uuid-e4f47dc3-3e22-44b7-8346-5023368457df); stroke-width:0px;"/><path d="M2478.76,2072.98c.91,0,1.84-.25,2.68-.75,2.43-1.48,3.19-4.65,1.72-7.07-.86-1.42-21.66-35.03-63.74-55.34-2.56-1.23-5.64-.17-6.88,2.4-1.23,2.56-.16,5.64,2.4,6.87,39.23,18.93,59.22,51.1,59.42,51.42.97,1.59,2.66,2.47,4.4,2.47Z" style="fill:#91b3fa; stroke-width:0px;"/><path d="M2637.36,1736.04c-6.61,47.79-26.12,99.91-65.17,155.28l-14.84-12.1s17.13-69.52,7.39-148.41c24.08-4.7,52.53.14,72.62,5.23Z" style="fill:url(#uuid-5e8c4cce-162b-4933-bde6-e0d218c1d11c); stroke-width:0px;"/><path d="M2485.39,1568.2l22.97-126.58s153.48,117.32,129,294.41c-20.09-5.08-48.53-9.92-72.62-5.23-7.02-56.83-27.98-118.53-79.35-162.61Z" style="fill:url(#uuid-f3d82998-a271-457b-b9e8-943ed445bd4d); stroke-width:0px;"/><path d="M2204.86,1545.43l59.24,127.59c-9.58,77.03-50.96,110.33-95.57,123.11-2.78-35.11-11.66-63.47-19.9-83.09,57.01-58.86,56.23-167.61,56.23-167.61Z" style="fill:url(#uuid-9c36e7f4-466b-4ab9-b2cd-4fdc61101890); stroke-width:0px;"/><path d="M2148.63,1713.04c8.24,19.62,17.11,47.98,19.9,83.09-119.04,46.18-150.53-43.39-150.53-43.39l22-3.88c49.68,5.23,84.38-10.78,108.64-35.82Z" style="fill:url(#uuid-efa17e99-7dc7-4dd1-a9b3-426644b5f44a); stroke-width:0px;"/><path d="M2259.44,1387.92l28.6,105.14c3.21,11.81,15.99,18.15,27.35,13.61,12.27-4.9,27.83-11.6,41.22-18.83,14.3-7.72,18.77-26.11,9.72-39.61l-59.46-88.66-47.44,28.35Z" style="fill:url(#uuid-5e1db811-fc4c-4d4f-a5ac-4cfde1367f9e); stroke-width:0px;"/><path d="M1963.44,1682.39l732.87,266.73c30.74,11.19,45.43,46.19,31.89,75.96l-2.22,4.89c-11.98,26.34-43.12,37.9-69.38,25.75l-711.6-329.19,18.46-44.14Z" style="fill:url(#uuid-e48144df-7c68-4a70-8493-2b84836e6fbc); stroke-width:0px;"/><ellipse cx="1626.58" cy="1521.94" rx="361.78" ry="355.25" style="fill:#fff; opacity:.23; stroke-width:0px;"/><path d="M1224.02,1521.94c0,218.32,180.23,395.3,402.56,395.3s402.56-176.98,402.56-395.3-180.23-395.3-402.56-395.3-402.56,176.98-402.56,395.3ZM1283.16,1521.94c0-186.25,153.76-337.23,343.43-337.23s343.43,150.98,343.43,337.23-153.76,337.23-343.43,337.23-343.43-150.98-343.43-337.23Z" style="fill:url(#uuid-b570030d-b3cc-4f40-a55a-9ab283f23253); stroke-width:0px;"/><path d="M1998.54,1569.91c-.07,0-.15,0-.22-.01-.93-.12-1.59-.97-1.47-1.91,1.18-9.23,2.01-18.65,2.48-28,.05-.94.88-1.67,1.78-1.62.94.05,1.66.85,1.62,1.79-.47,9.44-1.31,18.95-2.5,28.27-.11.86-.85,1.49-1.69,1.49ZM1995.77,1459.37c-.81,0-1.53-.58-1.67-1.4-4.5-25.11-11.72-49.82-21.45-73.42-57.35-139.13-193.19-229.02-346.06-229.02-71.29,0-140.59,19.8-200.41,57.27-.8.5-1.85.26-2.35-.54-.5-.8-.26-1.85.54-2.35,60.37-37.8,130.29-57.79,202.22-57.79,154.26,0,291.33,90.73,349.21,231.13,9.83,23.83,17.11,48.77,21.66,74.12.17.93-.45,1.81-1.38,1.98-.1.02-.2.03-.3.03Z" style="fill:#bdd0fb; stroke-width:0px;"/><path d="M2563.47,1877.12l-69.28-5.65-30.01,27.66s7.1,9.81,29.29,4.17c22.19-5.64,52.59-7.02,52.59-7.02,0,0,30.64,13.81,31.01-12.03l-13.61-7.13Z" style="fill:url(#uuid-70daafaa-6662-4b83-9f8d-df63f04766c2); stroke-width:0px;"/><path d="M2026.82,1769.13c-5.99,4.68-26.52-5.09-39.08-11.85-6.12-3.29-9.09-10.45-6.99-17.08,3.02-9.53,8.06-21.84,14.27-23.39,10.3-2.57,56.49,33.02,31.8,52.31Z" style="fill:url(#uuid-ce7a8a45-d16c-4dd7-8fe9-289c66134d25); stroke-width:0px;"/><path d="M2681.85,2044.47c-.71,0-1.37-.44-1.61-1.15-.31-.89.16-1.86,1.06-2.17,21.11-7.3,32.16-19.17,32.86-35.28.71-16.3-9.59-31.46-25.62-37.71l-88-34.31c-.88-.34-1.31-1.33-.97-2.21.34-.88,1.32-1.31,2.21-.97l88,34.31c17.39,6.78,28.56,23.27,27.79,41.03-.77,17.65-12.59,30.56-35.15,38.36-.18.06-.37.09-.56.09Z" style="fill:#bdd0fb; stroke-width:0px;"/><path d="M2574.03,1923.39c-.21,0-.42-.04-.62-.12l-11.41-4.45c-.88-.34-1.31-1.33-.97-2.21.34-.88,1.33-1.32,2.21-.97l11.41,4.45c.88.34,1.31,1.33.97,2.21-.26.67-.91,1.09-1.59,1.09Z" style="fill:#bdd0fb; stroke-width:0px;"/><path d="M2253.26,1284.7s-23.67,54.38-25.26,82.92c-1.59,28.54-7.74,47.06,25.26,52.81,33,5.75,60.81-10.69,75.87-39.12,0,0,23.6-43.81,18.31-61.75-5.29-17.94-94.17-34.86-94.17-34.86Z" style="fill:url(#uuid-8ebf72c1-18cd-4200-8273-772eaa928506); stroke-width:0px;"/><path d="M2317.85,1360.87h-4.17s17.19-35.26,2.09-41.46c-15.1-6.2-74.94-18.4-87.84-39.63-12.44-20.47-1.35-46.9,15.26-54.3,1.05-.47,2.29.03,2.83,1.04l1.38,2.6c.94,1.78,3.57,1.51,4.13-.42h0c.53-1.84,3.01-2.24,4.02-.61,3.95,6.35,14.65,16.67,43.35,21.97,40.72,7.52,67.64,24,68.3,52.14.04,1.78,1.95,2.77,3.47,1.84,3.01-1.83,7.82-2.69,14.25,2.71,11.18,9.4,6.61,33.79-17.91,53.85-1.16.95-1.16,2.77.11,3.59,4.44,2.89,11.07,9.78-6.1,18.95-17.56,9.39-27.95,8.36-31.87,7.36-1.06-.27-1.76-1.23-1.7-2.32l1.54-24.94c.08-1.29-.94-2.38-2.24-2.38h-8.89Z" style="fill:url(#uuid-7f36c333-2acd-4b22-8647-be05c3ea0a67); stroke-width:0px;"/><path d="M2316.82,1366.08s9.03-34.74,24.61-25c15.57,9.74-8.08,38.92-20.6,40.22l-4-15.22Z" style="fill:url(#uuid-84fa5228-473c-4092-b3a4-f18e05acb755); stroke-width:0px;"/><path d="M1433.21,1391.6c60.95,59.9,113.64,122.14,159.6,186.29,68.48-156.13,141.47-301.19,220.49-431.49l193.75-64.58c-133.48,174.04-275.77,433.4-397.41,693.52-87.96-123.95-175.84-247.66-239.22-291.56l62.79-92.18Z" style="fill:url(#uuid-816620fb-ddaa-46cc-92e3-fcf978bdfe32); stroke-width:0px;"/></svg>