<?xml version="1.0" encoding="UTF-8"?><svg id="uuid-fc5c282c-e429-4b3b-8dec-0bcb3efc98c4" xmlns="http://www.w3.org/2000/svg" xmlns:xlink="http://www.w3.org/1999/xlink" viewBox="0 0 2765.95 2771.64"><defs><linearGradient id="uuid-b1689895-97e6-4156-993c-b55e585823cf" x1="1847.62" y1="336.6" x2="1972.39" y2="336.6" gradientUnits="userSpaceOnUse"><stop offset="0" stop-color="#dae3fe"/><stop offset="1" stop-color="#e9effd"/></linearGradient><linearGradient id="uuid-e1d8eb5c-2515-447e-8da5-44d1aa345a6b" x1="1757.89" y1="336.95" x2="2064.66" y2="336.95" xlink:href="#uuid-b1689895-97e6-4156-993c-b55e585823cf"/><linearGradient id="uuid-40938473-71d5-41bd-8068-831b74df3453" x1="1405.49" y1="341.04" x2="1485.1" y2="341.04" xlink:href="#uuid-b1689895-97e6-4156-993c-b55e585823cf"/><linearGradient id="uuid-b1029ae0-4ce5-47ba-9b5e-f8481afb40ce" x1="1346.98" y1="341.34" x2="1545.23" y2="341.34" xlink:href="#uuid-b1689895-97e6-4156-993c-b55e585823cf"/><linearGradient id="uuid-de58109d-9250-464b-87a8-4c14ffbc06de" x1="1282.27" y1="2414.22" x2="1409.35" y2="2414.22" xlink:href="#uuid-b1689895-97e6-4156-993c-b55e585823cf"/><linearGradient id="uuid-7f39637f-a0e5-4b1b-a7ad-3c8436e99981" x1="1190.85" y1="2414.63" x2="1503.32" y2="2414.63" xlink:href="#uuid-b1689895-97e6-4156-993c-b55e585823cf"/><linearGradient id="uuid-38e53cd0-2b74-48bd-a552-f13e833e1e1b" x1="832.18" y1="2399.44" x2="913.27" y2="2399.44" xlink:href="#uuid-b1689895-97e6-4156-993c-b55e585823cf"/><linearGradient id="uuid-191297bb-3ed1-4113-88a8-2d9981ab680f" x1="772.57" y1="2399.77" x2="974.5" y2="2399.77" xlink:href="#uuid-b1689895-97e6-4156-993c-b55e585823cf"/><linearGradient id="uuid-b50493b6-92e5-4b59-9eab-15431ef29e91" x1="1408.15" y1="-4416.56" x2="1212.16" y2="-3517.01" gradientTransform="translate(-211.61 -358.06) rotate(-25.22)" gradientUnits="userSpaceOnUse"><stop offset="0" stop-color="#4f52ff"/><stop offset="1" stop-color="#4042e2"/></linearGradient><linearGradient id="uuid-64a3dade-d33c-4827-b49c-279ce1471fbf" x1="151.52" y1="3009.08" x2="498.27" y2="2320.61" gradientTransform="matrix(1,0,0,1,0,0)" xlink:href="#uuid-b50493b6-92e5-4b59-9eab-15431ef29e91"/><linearGradient id="uuid-52ee4ce3-e3bc-41de-a17d-df8f8f277d26" x1="-486.2" y1="2402.81" x2="-320.93" y2="2402.81" gradientTransform="translate(-211.61 -358.06) rotate(-25.22)" gradientUnits="userSpaceOnUse"><stop offset="0" stop-color="#febbba"/><stop offset="1" stop-color="#ff928e"/></linearGradient><linearGradient id="uuid-f95560b0-9187-41e5-9353-bddfd0aef378" x1="498.65" y1="727.96" x2="1168.73" y2="71.28" gradientTransform="matrix(1,0,0,1,0,0)" xlink:href="#uuid-52ee4ce3-e3bc-41de-a17d-df8f8f277d26"/><linearGradient id="uuid-16328f1f-7765-4f52-9a89-314a57c3a702" x1="1113" y1="219.08" x2="732.87" y2="526.07" gradientTransform="translate(-38.89 146.57) rotate(9.2)" xlink:href="#uuid-52ee4ce3-e3bc-41de-a17d-df8f8f277d26"/><linearGradient id="uuid-d5fb9639-1f23-4906-ae59-ac2d1c76a192" x1="915.12" y1="-266.02" x2="618.63" y2="201.34" gradientUnits="userSpaceOnUse"><stop offset="0" stop-color="#e1473d"/><stop offset="1" stop-color="#e9605a"/></linearGradient><linearGradient id="uuid-126b3ff7-f1f4-4299-ae48-76eecc0fe29e" x1="486.68" y1="131.94" x2="426.38" y2="498.26" gradientTransform="matrix(1,0,0,1,0,0)" xlink:href="#uuid-52ee4ce3-e3bc-41de-a17d-df8f8f277d26"/><linearGradient id="uuid-4887a3bc-9774-47d2-8435-8e851e0b8658" x1="500.02" y1="134.14" x2="439.72" y2="500.45" gradientTransform="matrix(1,0,0,1,0,0)" xlink:href="#uuid-52ee4ce3-e3bc-41de-a17d-df8f8f277d26"/><linearGradient id="uuid-d0092ae3-dbcf-44aa-9a0c-bca513a2f259" x1="220.37" y1="4643.33" x2="180.16" y2="5095.62" gradientTransform="translate(-910.18 3120.25) rotate(-136.3) scale(1 -1)" xlink:href="#uuid-52ee4ce3-e3bc-41de-a17d-df8f8f277d26"/><linearGradient id="uuid-607977e3-0420-400a-a89b-30e79bd19517" x1="501.82" y1="180.95" x2="315.65" y2="-131.57" gradientUnits="userSpaceOnUse"><stop offset="0" stop-color="#09005d"/><stop offset="1" stop-color="#1a0f91"/></linearGradient><linearGradient id="uuid-296025b0-5309-4cb7-a2b5-d20fb2910d80" x1="284.88" y1="4649.05" x2="244.67" y2="5101.33" gradientTransform="translate(-910.18 3120.25) rotate(-136.3) scale(1 -1)" xlink:href="#uuid-52ee4ce3-e3bc-41de-a17d-df8f8f277d26"/><linearGradient id="uuid-d19a7927-8621-41d8-b161-72992f9307fc" x1="333.18" y1="281.41" x2="147" y2="-31.1" xlink:href="#uuid-607977e3-0420-400a-a89b-30e79bd19517"/><linearGradient id="uuid-81039774-8d6b-4498-b785-c91b7caf2421" x1="2411.09" y1="-502.73" x2="2225.15" y2="296.31" gradientTransform="matrix(1,0,0,1,0,0)" xlink:href="#uuid-b50493b6-92e5-4b59-9eab-15431ef29e91"/><linearGradient id="uuid-cf524237-7bc7-437d-9980-973aa7fab04c" x1="2489.84" y1="380.57" x2="2670.92" y2="286.79" gradientTransform="translate(105.2 411.43) rotate(37.7)" gradientUnits="userSpaceOnUse"><stop offset="0" stop-color="#c4421b"/><stop offset="1" stop-color="#5c0e16"/></linearGradient><linearGradient id="uuid-78fd6b20-801c-476d-8669-6fa343cc3b7c" x1="3228.03" y1="2627.48" x2="1510.46" y2="494.36" gradientUnits="userSpaceOnUse"><stop offset="0" stop-color="#b37cff"/><stop offset="1" stop-color="#f895e7"/></linearGradient><linearGradient id="uuid-21d75104-a3a9-4265-8ee0-84829753a713" x1="1439.41" y1="1753.58" x2="3867.84" y2="-2184.04" gradientUnits="userSpaceOnUse"><stop offset="0" stop-color="#53d8ff"/><stop offset="1" stop-color="#3840f7"/></linearGradient><linearGradient id="uuid-54a5994d-15ab-4451-b1ee-2db26a7e66f5" x1="2052.59" y1="2210.68" x2="152.24" y2="89.2" gradientUnits="userSpaceOnUse"><stop offset="0" stop-color="#4042e2"/><stop offset="1" stop-color="#4f52ff"/></linearGradient><linearGradient id="uuid-194e87ec-d9d9-4a9d-8e9d-a0aa5d467f22" x1="899.68" y1="2097.29" x2="1784.2" y2="798.14" gradientUnits="userSpaceOnUse"><stop offset="0" stop-color="#fe7062"/><stop offset="1" stop-color="#ff928e"/></linearGradient><linearGradient id="uuid-466d2ab6-52b1-41a4-8c5a-52a4b331b98c" x1="998.98" y1="998.7" x2="2411.14" y2="998.7" xlink:href="#uuid-194e87ec-d9d9-4a9d-8e9d-a0aa5d467f22"/><linearGradient id="uuid-5d04df87-7b45-4118-95f7-120d8d2e9140" x1="2190.29" y1="5.68" x2="2518.63" y2="749.47" gradientTransform="matrix(1,0,0,1,0,0)" xlink:href="#uuid-b50493b6-92e5-4b59-9eab-15431ef29e91"/><linearGradient id="uuid-9b55dc92-d695-4ac1-bb4e-21c80c6719ba" x1="2349.6" y1="319.07" x2="2498.87" y2="319.07" gradientTransform="matrix(1,0,0,1,0,0)" xlink:href="#uuid-52ee4ce3-e3bc-41de-a17d-df8f8f277d26"/><linearGradient id="uuid-aa3803fa-b37b-42ed-bd4c-052245e1de2d" x1="2552.1" y1="613.79" x2="2303.34" y2="836.63" gradientTransform="matrix(1,0,0,1,0,0)" xlink:href="#uuid-52ee4ce3-e3bc-41de-a17d-df8f8f277d26"/><linearGradient id="uuid-0d771e54-be04-49ad-8cbe-2a67bc28e049" x1="2549.07" y1="277.55" x2="2736.69" y2="-1256.94" gradientTransform="matrix(1,0,0,1,0,0)" xlink:href="#uuid-b50493b6-92e5-4b59-9eab-15431ef29e91"/><linearGradient id="uuid-bf659140-bcd8-4117-a2e9-990751f4c561" x1="9249.24" y1="176.98" x2="9053.44" y2="436.01" gradientTransform="translate(11541) rotate(-180) scale(1 -1)" xlink:href="#uuid-52ee4ce3-e3bc-41de-a17d-df8f8f277d26"/><linearGradient id="uuid-1437521e-b742-448b-9cad-5df3d7821269" x1="2355.46" y1="41.62" x2="2246.7" y2="575.2" xlink:href="#uuid-607977e3-0420-400a-a89b-30e79bd19517"/><linearGradient id="uuid-4ad742f8-ac6c-4500-8b88-a27773a333f9" x1="8970.38" y1="379.24" x2="9122.69" y2="222.97" gradientTransform="translate(11541) rotate(-180) scale(1 -1)" xlink:href="#uuid-52ee4ce3-e3bc-41de-a17d-df8f8f277d26"/><linearGradient id="uuid-1d3a98dc-10b7-40b1-89eb-c3dbd9436e1b" x1="2313.94" y1="1886.22" x2="2530.03" y2="2464.14" xlink:href="#uuid-607977e3-0420-400a-a89b-30e79bd19517"/><linearGradient id="uuid-8ed0137f-dc22-464b-9647-088029f74163" x1="2543.62" y1="2315.05" x2="3227.1" y2="1644.97" gradientUnits="userSpaceOnUse"><stop offset="0" stop-color="#ff928e"/><stop offset="1" stop-color="#fe7062"/></linearGradient><linearGradient id="uuid-03aa3303-edb8-4cb9-b3ec-29b041be98cc" x1="2491.02" y1="1364.67" x2="2182.78" y2="2952.76" gradientTransform="matrix(1,0,0,1,0,0)" xlink:href="#uuid-cf524237-7bc7-437d-9980-973aa7fab04c"/><linearGradient id="uuid-6bb0fb9a-fc94-4b3b-9817-bfcff3f33e2a" x1="2607.48" y1="1385.66" x2="2748.19" y2="1039.45" gradientTransform="translate(69.38 145.99) rotate(14.54)" xlink:href="#uuid-cf524237-7bc7-437d-9980-973aa7fab04c"/><linearGradient id="uuid-64d5eb92-e83d-4575-a412-10e560e19297" x1="2293.9" y1="1893.71" x2="2509.99" y2="2471.63" xlink:href="#uuid-607977e3-0420-400a-a89b-30e79bd19517"/><linearGradient id="uuid-f16d9b7b-1ccf-4013-bfe1-676b9abad7be" x1="2679.95" y1="1415.12" x2="2820.66" y2="1068.91" gradientTransform="translate(69.38 145.99) rotate(14.54)" xlink:href="#uuid-cf524237-7bc7-437d-9980-973aa7fab04c"/><linearGradient id="uuid-d4fb0e9b-9c80-42f2-afdd-3df02cd847fc" x1="2864.13" y1="604.9" x2="3483.68" y2="-219.92" gradientTransform="translate(110.04 302.55) rotate(28.97)" xlink:href="#uuid-cf524237-7bc7-437d-9980-973aa7fab04c"/><linearGradient id="uuid-a538accc-48a9-4997-a671-b388867133bb" x1="1022.95" y1="512.94" x2="109.4" y2="718.43" gradientTransform="matrix(1,0,0,1,0,0)" xlink:href="#uuid-52ee4ce3-e3bc-41de-a17d-df8f8f277d26"/><linearGradient id="uuid-cbd9b17b-0cae-4269-92e1-c8baf09ace85" x1="551.54" y1="916.12" x2="1194.82" y2="272.84" gradientTransform="matrix(1,0,0,1,0,0)" xlink:href="#uuid-52ee4ce3-e3bc-41de-a17d-df8f8f277d26"/><linearGradient id="uuid-c9ff90d5-9b0e-40ea-a981-5d34d8001600" x1="715.11" y1="2773.27" x2="519.13" y2="3672.76" gradientTransform="translate(38.26 143.54) rotate(8.15)" xlink:href="#uuid-b50493b6-92e5-4b59-9eab-15431ef29e91"/><linearGradient id="uuid-413b8b0d-5d8b-46e9-9fd5-496f5d537d1a" x1="1252.6" y1="1936.09" x2="1580.84" y2="1338.33" gradientTransform="translate(38.26 143.54) rotate(8.15)" xlink:href="#uuid-52ee4ce3-e3bc-41de-a17d-df8f8f277d26"/><linearGradient id="uuid-1d2893da-7b9d-4032-ac8f-0388c4fbb5a2" x1="-275.34" y1="2347.35" x2="-416.34" y2="2185.14" xlink:href="#uuid-52ee4ce3-e3bc-41de-a17d-df8f8f277d26"/><linearGradient id="uuid-3a286288-1e56-4d0d-abdd-84dd7af230ab" x1="-455.28" y1="2219.5" x2="-205.1" y2="2219.5" gradientTransform="translate(-211.61 -358.06) rotate(-25.22)" xlink:href="#uuid-607977e3-0420-400a-a89b-30e79bd19517"/><linearGradient id="uuid-9a5e1b39-0360-4d65-9d79-b49562bec74f" x1="-318.04" y1="2384.46" x2="-459.04" y2="2222.26" xlink:href="#uuid-52ee4ce3-e3bc-41de-a17d-df8f8f277d26"/></defs><g style="opacity:.3;"><path d="M1583.83,445.83c4.42-1.62,9.31.66,10.93,5.07,3.14,8.58,6.7,17.16,10.58,25.49,1.96,4.21.18,9.21-3.98,11.25-.05.02-.1.05-.15.07-4.26,1.99-9.33.14-11.32-4.13-4.08-8.77-7.83-17.79-11.13-26.83-1.51-4.13.38-8.68,4.25-10.57.27-.13.54-.25.83-.35ZM1627,515.64c4.98,7.72,10.33,15.3,15.92,22.53,2.87,3.72,2.19,9.07-1.53,11.95-3.75,2.87-9.07,2.19-11.95-1.54-5.88-7.61-11.51-15.59-16.75-23.71-2.55-3.95-1.41-9.23,2.54-11.78.29-.19.58-.35.88-.5,3.82-1.87,8.53-.63,10.89,3.04ZM1672.7,571.64c6.55,6.4,13.46,12.59,20.54,18.41,3.63,2.99,4.16,8.35,1.18,11.99-2.99,3.63-8.35,4.16-11.99,1.18-7.46-6.12-14.73-12.65-21.63-19.38-3.37-3.29-3.43-8.68-.14-12.05.7-.72,1.5-1.28,2.35-1.7,3.14-1.54,7.05-1.03,9.7,1.56ZM1729.78,616.01c7.83,4.78,15.95,9.27,24.15,13.36,4.21,2.1,5.92,7.22,3.82,11.42-2.1,4.21-7.22,5.92-11.42,3.82-8.63-4.31-17.18-9.04-25.42-14.06-4.01-2.45-5.28-7.69-2.83-11.71.88-1.44,2.11-2.52,3.52-3.21,2.53-1.24,5.61-1.2,8.19.38ZM1795.33,646.56c8.67,2.91,17.59,5.5,26.51,7.68,4.57,1.12,7.37,5.73,6.25,10.3-1.12,4.57-5.73,7.37-10.3,6.25-9.38-2.29-18.77-5.01-27.89-8.08-4.46-1.5-6.86-6.33-5.36-10.79.75-2.25,2.36-3.97,4.33-4.94,1.94-.95,4.25-1.17,6.46-.42ZM1865.99,661.84c9.11.93,18.38,1.47,27.54,1.62,4.7.08,8.46,3.95,8.38,8.66-.08,4.7-3.95,8.46-8.66,8.38-9.64-.16-19.4-.73-28.99-1.71-4.68-.48-8.09-4.66-7.61-9.34.31-3.04,2.18-5.54,4.74-6.79,1.38-.67,2.96-.99,4.6-.82ZM2159.86,544.8c3.63,2.99,4.15,8.36,1.16,11.99-6.13,7.44-12.67,14.71-19.43,21.6-3.29,3.36-8.69,3.41-12.05.12-3.36-3.29-3.41-8.68-.12-12.04,6.42-6.55,12.63-13.45,18.45-20.52.8-.97,1.76-1.72,2.82-2.23,2.91-1.42,6.51-1.12,9.17,1.08ZM1938.25,661.08c9.09-1.12,18.24-2.65,27.19-4.55,4.6-.97,9.13,1.97,10.1,6.57.98,4.6-1.97,9.1-6.57,10.1-9.43,2-19.07,3.61-28.64,4.79-4.67.58-8.92-2.74-9.5-7.41-.46-3.7,1.54-7.14,4.71-8.7.83-.4,1.74-.68,2.7-.8ZM2107.83,597.76c2.87,3.73,2.17,9.08-1.56,11.95-7.64,5.87-15.63,11.5-23.76,16.71-3.95,2.56-9.23,1.39-11.77-2.56-2.54-3.96-1.39-9.23,2.57-11.77,7.72-4.96,15.32-10.3,22.58-15.88.46-.36.95-.65,1.46-.9,3.56-1.74,7.98-.8,10.49,2.46ZM2008.51,644.19c8.6-3.13,17.18-6.66,25.5-10.52,4.27-1.98,9.33-.12,11.31,4.15,1.95,4.21.17,9.2-3.98,11.23-.05.03-.11.05-.16.08-8.76,4.06-17.79,7.79-26.84,11.08-4.42,1.6-9.31-.68-10.92-5.1-1.5-4.13.39-8.67,4.25-10.56.27-.13.55-.25.84-.36Z" style="fill:#bdd0fb; stroke-width:0px;"/><path d="M2184.4,494.31c-1.51.74-2.81,1.92-3.69,3.5-2.14,3.84-4.39,7.69-6.69,11.46-2.45,4.01-1.19,9.26,2.82,11.71,4.01,2.46,9.26,1.2,11.71-2.82,2.43-3.96,4.79-8.02,7.04-12.06,2.29-4.11.81-9.3-3.3-11.59-2.53-1.41-5.48-1.39-7.9-.21Z" style="fill:#bdd0fb; stroke-width:0px;"/></g><g style="opacity:.3;"><path d="M2212.14,236.1c-3.69,1.81-5.63,6.07-4.4,10.13,1.28,4.2,2.5,8.5,3.61,12.77,1.19,4.55,5.84,7.28,10.39,6.1,4.57-1.19,7.28-5.84,6.1-10.39-1.17-4.5-2.45-9.03-3.8-13.45-1.37-4.5-6.13-7.03-10.63-5.66-.44.13-.86.3-1.27.5Z" style="fill:#bdd0fb; stroke-width:0px;"/><path d="M1764.51,27.5c4.32-1.86,9.33.14,11.19,4.46,1.86,4.32-.14,9.32-4.46,11.19-8.23,3.54-16.43,7.48-24.48,11.76-4.13,2.21-9.31.63-11.52-3.53s-.63-9.31,3.52-11.52c3.49-1.85,6.99-3.64,10.51-5.37,5.02-2.46,10.15-4.81,15.24-7ZM1711.22,66.32c2.75,3.82,1.88,9.14-1.93,11.89-7.33,5.28-14.51,10.93-21.35,16.78-3.56,3.07-8.95,2.64-12.01-.93-3.06-3.57-2.64-8.95.93-12.01,7.2-6.17,14.76-12.11,22.47-17.67.4-.29.82-.54,1.24-.75,3.66-1.79,8.18-.74,10.65,2.68ZM1808.31,12.14c9.14-2.52,18.51-4.68,27.85-6.42,4.62-.86,9.07,2.19,9.94,6.81.86,4.62-2.19,9.07-6.81,9.93-8.87,1.65-17.77,3.7-26.45,6.1-4.54,1.25-9.23-1.41-10.48-5.95-1.1-4.01.85-8.14,4.46-9.91.47-.23.97-.42,1.49-.57ZM1655.77,113.88c3.52,3.12,3.85,8.5.73,12.02-5.98,6.75-11.74,13.83-17.13,21.06-2.81,3.78-8.15,4.55-11.92,1.74-3.77-2.81-4.55-8.15-1.74-11.92,5.67-7.61,11.74-15.07,18.04-22.18.76-.86,1.66-1.53,2.63-2,3.01-1.47,6.74-1.08,9.4,1.28ZM1882.23.37c9.46-.45,19.07-.49,28.57-.14,4.7.17,8.37,4.13,8.2,8.83-.17,4.7-4.13,8.37-8.83,8.2-9.02-.33-18.15-.29-27.14.13-4.7.22-8.69-3.41-8.91-8.11-.16-3.5,1.81-6.61,4.77-8.06,1.01-.5,2.14-.8,3.34-.85ZM1956.94,5.11c9.35,1.64,18.74,3.69,27.91,6.1,4.55,1.2,7.27,5.85,6.08,10.4-1.2,4.56-5.85,7.28-10.4,6.07-8.71-2.29-17.64-4.24-26.53-5.79-4.63-.81-7.73-5.23-6.92-9.86.49-2.79,2.29-5.03,4.65-6.18,1.56-.76,3.37-1.06,5.21-.74ZM2028.85,26.01c8.78,3.64,17.5,7.69,25.92,12.03,4.18,2.16,5.82,7.29,3.67,11.48-2.16,4.19-7.3,5.82-11.48,3.66-8-4.13-16.29-7.97-24.63-11.43-4.35-1.8-6.41-6.78-4.61-11.13.83-2,2.32-3.51,4.12-4.39,2.12-1.04,4.66-1.19,7.01-.22ZM2094.49,62.1c7.77,5.47,15.4,11.33,22.67,17.43,3.6,3.02,4.08,8.4,1.05,12-3.02,3.6-8.4,4.07-12,1.05-6.9-5.79-14.14-11.35-21.52-16.55-3.85-2.71-4.77-8.02-2.06-11.87.86-1.22,1.97-2.14,3.22-2.75,2.7-1.32,6.02-1.17,8.65.68ZM2150.61,111.76c6.36,7.03,12.5,14.42,18.26,21.98,2.85,3.74,2.13,9.09-1.61,11.94-3.73,2.84-9.09,2.13-11.94-1.61-5.47-7.18-11.3-14.2-17.34-20.88-3.16-3.49-2.89-8.87.6-12.03.61-.55,1.27-1,1.97-1.34,3.32-1.63,7.45-.94,10.06,1.94ZM2194.42,172.47c3.45,6.07,6.75,12.33,9.81,18.59,1.11,2.27,2.19,4.54,3.24,6.82,1.97,4.27.21,9.39-4.16,11.3-4.27,1.98-9.33.12-11.31-4.15-1-2.17-2.03-4.33-3.08-6.48-2.91-5.95-6.05-11.9-9.32-17.67-2.32-4.09-.88-9.29,3.21-11.61.15-.09.31-.17.47-.25,4.01-1.96,8.91-.49,11.14,3.45Z" style="fill:#bdd0fb; stroke-width:0px;"/><path d="M1604.19,172.48c-1.52.74-2.84,1.95-3.71,3.54-2.22,4.04-4.4,8.2-6.48,12.37-2.1,4.21-.38,9.33,3.83,11.42,4.21,2.1,9.32.39,11.42-3.83,1.97-3.96,4.04-7.92,6.16-11.75,2.27-4.12.77-9.3-3.35-11.57-2.53-1.39-5.45-1.36-7.86-.19Z" style="fill:#bdd0fb; stroke-width:0px;"/></g><path d="M1637.65,304.84c-.41,1.77.34,3.6,1.88,4.56l43.78,27.55c.01,24.16,3.88,48.48,11.84,72.04l-32.62,40.1c-1.14,1.41-1.27,3.38-.31,4.92l32.74,52.7c.96,1.54,2.79,2.3,4.55,1.9l50.4-11.48c17.59,17.57,37.69,31.81,59.34,42.53l5.3,51.45c.19,1.8,1.5,3.29,3.26,3.7l60.42,14.11c1.77.41,3.6-.34,4.56-1.88l27.54-43.78c24.16-.01,48.49-3.88,72.04-11.84l40.1,32.62c1.41,1.14,3.38,1.27,4.92.31l52.7-32.74c1.54-.96,2.3-2.79,1.9-4.55l-11.48-50.41c17.57-17.59,31.81-37.69,42.53-59.34l51.46-5.3c1.8-.19,3.29-1.49,3.7-3.26l14.11-60.42c.41-1.77-.34-3.6-1.87-4.56l-43.78-27.55c-.01-24.16-3.88-48.48-11.84-72.04l32.62-40.1c1.14-1.41,1.27-3.38.31-4.92l-32.74-52.7c-.96-1.54-2.79-2.3-4.55-1.9l-50.4,11.48c-17.59-17.57-37.69-31.81-59.34-42.53l-5.3-51.45c-.18-1.8-1.49-3.29-3.26-3.7l-60.42-14.11c-1.77-.41-3.6.34-4.56,1.88l-27.54,43.78c-24.16.01-48.48,3.88-72.04,11.84l-40.1-32.62c-1.41-1.14-3.38-1.27-4.92-.31l-52.7,32.74c-1.54.96-2.3,2.79-1.9,4.55l11.48,50.4c-17.57,17.59-31.81,37.69-42.53,59.34l-51.46,5.3c-1.8.19-3.29,1.5-3.7,3.26l-14.11,60.42Z" style="fill:#bdd0fb; stroke-width:0px;"/><path d="M1891.05,277.18c32.76-10.44,67.92,7.71,78.37,40.48,5.06,15.87,3.64,32.77-4.01,47.57-7.64,14.8-20.59,25.74-36.47,30.8-32.77,10.44-67.92-7.71-78.37-40.48-9.5-29.81,4.67-61.59,31.98-74.95,2.71-1.32,5.55-2.47,8.5-3.41ZM1952.48,358.54c5.86-11.35,6.95-24.3,3.07-36.47-8.01-25.12-34.96-39.04-60.08-31.03-25.13,8-39.04,34.96-31.03,60.09,8.01,25.12,34.96,39.04,60.08,31.03,2.28-.73,4.47-1.61,6.58-2.64,9.16-4.48,16.61-11.75,21.38-20.97Z" style="fill:url(#uuid-b1689895-97e6-4156-993c-b55e585823cf); stroke-width:0px;"/><path d="M1844.11,199.11c-4.69,2.29-9.29,4.84-13.79,7.63h0c-1.42.88-2.82,1.78-4.2,2.7-6.84,4.56-13.3,9.65-19.29,15.2-.08.08-.16.15-.25.23-.23.22-.46.43-.69.65-.45.42-.89.85-1.33,1.27-1.16,1.12-1.42,2.83-.74,4.21.16.33.38.65.66.93,1.4,1.44,3.7,1.48,5.14.09,7.43-7.18,15.69-13.61,24.54-19.11,43.96-27.32,96.94-28.38,140.47-7.49,24.21,11.62,45.5,30.02,60.7,54.48,2.67,4.29,5.09,8.68,7.28,13.15,14.72,30.11,18.61,64.08,10.89,97.16-8.88,38-32.02,70.26-65.16,90.85-68.45,42.52-158.67,21.42-201.17-46.99-2.62-4.22-5.02-8.55-7.18-12.99-9.39-19.21-14.48-40.26-14.82-61.65,0-.55-.14-1.07-.37-1.54-.6-1.23-1.87-2.06-3.32-2.04-2.01.04-3.61,1.68-3.58,3.7.36,22.46,5.69,44.56,15.55,64.73,2.27,4.65,4.79,9.2,7.54,13.63,44.63,71.83,139.38,93.95,211.19,49.34,34.8-21.62,59.09-55.49,68.4-95.38,8.11-34.73,4.03-70.39-11.43-102-2.3-4.7-4.85-9.31-7.64-13.81-21.62-34.8-55.49-59.09-95.38-68.41-34.73-8.11-70.41-4.02-102.02,11.44Z" style="fill:url(#uuid-e1d8eb5c-2515-447e-8da5-44d1aa345a6b); stroke-width:0px;"/><g style="opacity:.3;"><path d="M1223.25,372.28c-2.04,1-3.28,3.26-2.87,5.61.75,4.4,1.65,8.84,2.67,13.2.66,2.83,3.49,4.59,6.32,3.93,2.84-.65,4.59-3.49,3.93-6.32-.97-4.15-1.82-8.38-2.54-12.58-.49-2.86-3.21-4.78-6.07-4.3-.51.09-.99.25-1.43.46Z" style="fill:#bdd0fb; stroke-width:0px;"/><path d="M1234.2,411.16c2.73-1,5.75.39,6.76,3.12,2.54,6.88,5.46,13.71,8.68,20.3.68,1.39,1.38,2.77,2.09,4.16,1.33,2.58.32,5.75-2.27,7.09-2.49,1.16-5.75.32-7.09-2.27-.75-1.45-1.48-2.9-2.19-4.35-3.38-6.9-6.44-14.07-9.1-21.28-.94-2.55.22-5.37,2.62-6.54.16-.08.33-.15.5-.21ZM1265.4,461.69c5,7.35,10.51,14.45,16.36,21.11,1.92,2.18,1.7,5.5-.48,7.42-2.17,1.9-5.51,1.7-7.42-.48-6.13-6.98-11.91-14.43-17.15-22.14-1.64-2.4-1.01-5.68,1.39-7.31.21-.14.43-.27.66-.38,2.31-1.13,5.16-.42,6.65,1.77ZM1300.61,501.74c6.64,5.89,13.72,11.42,21.05,16.45,2.39,1.64,3,4.92,1.36,7.31-1.65,2.4-4.92,3.01-7.31,1.36-7.69-5.27-15.11-11.08-22.08-17.25-2.17-1.93-2.38-5.25-.45-7.43.47-.53,1.02-.94,1.62-1.23,1.86-.91,4.16-.67,5.8.79ZM1344.59,531.91c7.9,4.09,16.12,7.72,24.43,10.79,2.73,1.01,4.12,4.04,3.11,6.76-1.01,2.72-4.03,4.12-6.76,3.11-8.72-3.23-17.34-7.03-25.62-11.32-2.58-1.33-3.59-4.51-2.25-7.09.54-1.04,1.38-1.82,2.36-2.3,1.45-.71,3.2-.75,4.74.05ZM1394.6,550.44c8.65,2.04,17.5,3.57,26.32,4.54,2.89.32,4.97,2.92,4.65,5.81-.32,2.89-2.91,4.98-5.81,4.65-9.24-1.02-18.52-2.62-27.59-4.75-2.83-.67-4.58-3.5-3.91-6.33.38-1.6,1.45-2.85,2.81-3.52,1.05-.52,2.29-.68,3.52-.39ZM1447.6,556.26c8.88-.12,17.83-.8,26.61-2.02,2.88-.4,5.53,1.61,5.93,4.49.4,2.88-1.6,5.53-4.49,5.94-9.21,1.28-18.6,1.99-27.91,2.12-2.9.04-5.29-2.28-5.33-5.19-.03-2.1,1.18-3.94,2.95-4.8.68-.33,1.43-.52,2.24-.53ZM1500.38,548.94c8.55-2.29,17.07-5.15,25.32-8.5,2.69-1.09,5.76.21,6.85,2.9,1.09,2.69-.22,5.72-2.9,6.86-8.65,3.51-17.59,6.5-26.55,8.91-2.81.75-5.69-.92-6.44-3.72-.66-2.47.55-5,2.77-6.08.3-.15.62-.27.95-.36ZM1579.65,515.63c1.71,2.35,1.2,5.64-1.15,7.35-6.5,4.74-13.36,9.21-20.39,13.27-1.06.62-2.13,1.23-3.21,1.83-2.48,1.48-5.74.5-7.15-2.05-1.41-2.54-.49-5.74,2.05-7.15,1.01-.56,2.01-1.13,3.03-1.72,6.73-3.89,13.28-8.15,19.47-12.67.25-.19.52-.35.79-.48,2.25-1.1,5.03-.46,6.56,1.63Z" style="fill:#bdd0fb; stroke-width:0px;"/></g><g style="opacity:.3;"><path d="M1347.4,134.05c8.29-3.92,16.89-7.37,25.56-10.26,2.76-.91,5.74.57,6.65,3.33.92,2.76-.6,5.72-3.33,6.65-8.27,2.75-16.47,6.04-24.38,9.78-2.63,1.24-5.76.12-7-2.5-1.23-2.61-.14-5.71,2.44-6.98.02-.01.04-.02.06-.03ZM1330.5,148.96c1.55,2.46.81,5.71-1.65,7.25-7.4,4.66-14.58,9.81-21.36,15.32-2.25,1.81-5.57,1.49-7.4-.77-1.83-2.26-1.49-5.56.77-7.4,7.11-5.77,14.64-11.17,22.39-16.05.16-.1.33-.19.5-.28,2.38-1.16,5.31-.37,6.76,1.93ZM1399.6,116.72c9-1.8,18.18-3.07,27.29-3.77,2.9-.22,5.43,1.95,5.65,4.84.23,2.9-1.94,5.41-4.84,5.65-8.69.67-17.45,1.88-26.03,3.59-2.85.57-5.62-1.28-6.19-4.12-.48-2.4.75-4.74,2.84-5.76.4-.19.83-.34,1.28-.43ZM1288,181.88c2.09,2.01,2.16,5.35.14,7.44-6.06,6.3-11.79,13.03-17.03,20.02-1.75,2.32-5.04,2.79-7.36,1.05-2.32-1.75-2.8-5.04-1.05-7.37,5.5-7.33,11.51-14.39,17.86-20.99.44-.46.94-.82,1.48-1.08,1.93-.94,4.32-.64,5.96.93ZM1454.42,112.52c9.14.41,18.36,1.39,27.39,2.9,2.87.48,4.8,3.19,4.32,6.06-.48,2.87-3.19,4.8-6.06,4.32-8.62-1.45-17.4-2.38-26.12-2.77-2.9-.13-5.15-2.59-5.02-5.49.09-1.99,1.27-3.67,2.95-4.49.76-.37,1.63-.57,2.54-.53ZM1508.65,121.59c8.8,2.6,17.51,5.75,25.91,9.37,2.67,1.15,3.9,4.24,2.75,6.91-1.15,2.67-4.24,3.9-6.92,2.75-8.01-3.45-16.32-6.46-24.72-8.93-2.79-.82-4.38-3.75-3.56-6.54.44-1.47,1.46-2.61,2.74-3.24,1.14-.56,2.49-.71,3.8-.32ZM1559.16,143.39c7.93,4.63,15.64,9.78,22.91,15.32,2.31,1.76,2.76,5.06,1,7.37-1.76,2.31-5.06,2.76-7.37,1-6.94-5.28-14.29-10.2-21.85-14.6-2.51-1.47-3.36-4.69-1.89-7.2.54-.93,1.33-1.63,2.23-2.07,1.53-.75,3.39-.74,4.97.18Z" style="fill:#bdd0fb; stroke-width:0px;"/><path d="M1249.65,224.14c-.91.45-1.7,1.16-2.25,2.11-2.24,3.91-4.38,7.89-6.35,11.86-1.29,2.6-.24,5.76,2.36,7.06,2.6,1.28,5.76.23,7.06-2.37,1.88-3.78,3.92-7.59,6.06-11.31,1.45-2.52.57-5.74-1.95-7.18-1.57-.9-3.42-.9-4.93-.16Z" style="fill:#bdd0fb; stroke-width:0px;"/></g><path d="M1274.59,321.14c-.26,1.11.21,2.26,1.18,2.86l27.44,17.27c0,15.14,2.43,30.39,7.42,45.15l-20.45,25.14c-.72.88-.8,2.12-.2,3.09l20.52,33.03c.6.97,1.75,1.44,2.85,1.19l31.59-7.19c11.03,11.01,23.62,19.94,37.19,26.66l3.32,32.25c.12,1.13.94,2.06,2.04,2.32l37.87,8.85c1.11.26,2.26-.21,2.86-1.18l17.26-27.44c15.14,0,30.39-2.43,45.15-7.42l25.14,20.45c.88.72,2.12.8,3.09.2l33.04-20.52c.97-.6,1.44-1.75,1.19-2.85l-7.19-31.6c11.01-11.03,19.94-23.62,26.66-37.19l32.25-3.32c1.13-.12,2.06-.94,2.32-2.04l8.85-37.87c.26-1.11-.21-2.26-1.18-2.86l-27.45-17.27c0-15.14-2.43-30.39-7.42-45.15l20.45-25.14c.72-.88.8-2.12.2-3.09l-20.52-33.04c-.6-.97-1.75-1.44-2.85-1.19l-31.59,7.19c-11.03-11.01-23.62-19.94-37.19-26.66l-3.32-32.25c-.12-1.13-.94-2.06-2.04-2.32l-37.87-8.85c-1.11-.26-2.26.21-2.86,1.18l-17.27,27.44c-15.14,0-30.39,2.43-45.15,7.42l-25.14-20.45c-.88-.72-2.12-.8-3.09-.2l-33.04,20.52c-.97.6-1.44,1.75-1.19,2.85l7.19,31.59c-11.01,11.03-19.94,23.62-26.66,37.19l-32.25,3.32c-1.13.12-2.06.94-2.32,2.04l-8.85,37.87Z" style="fill:#bdd0fb; stroke-width:0px;"/><path d="M1433.21,303.13c10.13-3.23,20.91-2.32,30.35,2.56,9.44,4.88,16.42,13.14,19.65,23.27,6.67,20.9-4.9,43.29-25.83,50.01-20.91,6.66-43.34-4.93-50-25.83-3.23-10.13-2.32-20.91,2.55-30.35,3.97-7.68,10.17-13.73,17.79-17.45,1.75-.86,3.58-1.59,5.47-2.2ZM1473.19,332.16c-2.38-7.45-7.51-13.53-14.46-17.12-6.94-3.59-14.88-4.25-22.32-1.88h0c-7.45,2.38-13.53,7.51-17.12,14.46-3.59,6.94-4.25,14.88-1.88,22.32,4.9,15.38,21.4,23.9,36.78,19,1.39-.44,2.72-.98,3.99-1.6,12.82-6.27,19.47-21.19,15.01-35.18Z" style="fill:url(#uuid-40938473-71d5-41bd-8068-831b74df3453); stroke-width:0px;"/><path d="M1402.61,252.24c-2.99,1.46-5.93,3.09-8.82,4.88-5.73,3.56-11.11,7.7-15.99,12.33-.22.21-.44.42-.65.63-1.68,1.62-2.05,4.1-1.08,6.09.24.48.55.94.95,1.35,2.02,2.09,5.34,2.13,7.44.13,4.52-4.37,9.52-8.26,14.88-11.59h0c.29-.18.59-.36.88-.54,12.75-7.75,26.95-12.03,41.47-12.73,7.88-.38,15.86.3,23.76,2.07.06.01.13.03.19.04.2.05.39.09.59.14,23.04,5.38,42.61,19.42,55.09,39.52,1.62,2.6,3.09,5.26,4.42,7.97,8.93,18.26,11.29,38.86,6.6,58.92-5.38,23.04-19.42,42.6-39.52,55.09-20.09,12.47-43.86,16.4-66.9,11.02-23.04-5.38-42.61-19.42-55.09-39.52-1.59-2.56-3.04-5.19-4.36-7.87-5.7-11.65-8.78-24.41-8.98-37.39-.01-.8-.2-1.55-.53-2.23-.87-1.77-2.7-2.98-4.81-2.95-2.9.05-5.22,2.44-5.18,5.35.23,14.52,3.68,28.8,10.05,41.83,1.47,3.01,3.1,5.95,4.87,8.81,13.97,22.49,35.86,38.19,61.64,44.21,25.78,6.02,52.35,1.67,74.84-12.33,22.49-13.97,38.19-35.86,44.21-61.64,5.25-22.44,2.61-45.49-7.38-65.92-1.48-3.03-3.13-6.01-4.94-8.92-27.05-43.53-82.58-58.82-127.67-36.76Z" style="fill:url(#uuid-b1029ae0-4ce5-47ba-9b5e-f8481afb40ce); stroke-width:0px;"/><g style="opacity:.3;"><path d="M1009.35,2511.84c4.56-1.46,9.45,1.06,10.91,5.62,2.84,8.87,6.1,17.74,9.71,26.38,1.82,4.37-.2,9.38-4.51,11.28-.05.02-.1.04-.15.07-4.42,1.84-9.5-.25-11.35-4.67-3.79-9.09-7.23-18.43-10.22-27.77-1.37-4.27.75-8.82,4.76-10.58.28-.12.56-.23.86-.32ZM1050.38,2584.67c4.74,8.06,9.88,16,15.26,23.59,2.77,3.91,1.85,9.32-2.06,12.09-3.93,2.77-9.32,1.85-12.1-2.06-5.67-7.99-11.07-16.34-16.06-24.82-2.43-4.13-1.05-9.45,3.08-11.88.3-.18.61-.33.92-.47,3.97-1.74,8.71-.28,10.96,3.54ZM1094.56,2643.55c6.4,6.78,13.17,13.37,20.14,19.58,3.57,3.19,3.89,8.67.7,12.25-3.19,3.57-8.67,3.89-12.25.7-7.33-6.54-14.47-13.48-21.21-20.63-3.29-3.48-3.13-8.98.36-12.26.74-.7,1.58-1.24,2.46-1.63,3.26-1.43,7.22-.75,9.8,1.99ZM1150.81,2691.07c7.77,5.19,15.85,10.1,24.02,14.6,4.2,2.31,5.73,7.59,3.41,11.78-2.32,4.19-7.59,5.72-11.78,3.41-8.6-4.74-17.11-9.91-25.29-15.37-3.98-2.66-5.06-8.05-2.39-12.03.95-1.43,2.25-2.48,3.71-3.12,2.62-1.15,5.76-.98,8.32.72ZM1216.24,2724.88c8.7,3.33,17.67,6.33,26.66,8.92,4.6,1.33,7.26,6.14,5.93,10.74-1.33,4.61-6.14,7.26-10.74,5.93-9.45-2.72-18.89-5.88-28.05-9.38-4.48-1.71-6.72-6.72-5.01-11.2.86-2.26,2.56-3.94,4.61-4.84,2.02-.89,4.37-1.01,6.59-.16ZM1287.52,2743.37c9.24,1.32,18.64,2.26,27.96,2.8,4.78.27,8.44,4.37,8.17,9.16-.27,4.78-4.37,8.44-9.16,8.17-9.81-.56-19.71-1.55-29.43-2.94-4.74-.68-8.04-5.07-7.36-9.82.44-3.08,2.45-5.55,5.1-6.72,1.43-.63,3.05-.88,4.71-.64ZM1591.43,2636.47c3.57,3.19,3.87,8.68.68,12.25-6.55,7.31-13.5,14.44-20.67,21.18-3.49,3.28-8.98,3.11-12.26-.38-3.28-3.49-3.11-8.98.38-12.26,6.81-6.4,13.41-13.17,19.63-20.11.85-.95,1.87-1.67,2.97-2.16,3.02-1.33,6.67-.86,9.28,1.48ZM1361.08,2745.6c9.29-.76,18.67-1.94,27.86-3.5,4.73-.8,9.2,2.38,10.01,7.1.8,4.73-2.38,9.18-7.1,10-9.68,1.64-19.55,2.88-29.34,3.69-4.77.39-8.96-3.16-9.36-7.94-.31-3.79,1.86-7.21,5.15-8.66.86-.38,1.79-.62,2.78-.7ZM1536.28,2688.2c2.76,3.91,1.83,9.33-2.08,12.09-8.02,5.66-16.39,11.05-24.87,16.02-4.13,2.44-9.45,1.03-11.87-3.1-2.42-4.13-1.03-9.45,3.1-11.87,8.06-4.72,16.01-9.85,23.63-15.23.49-.34,1-.63,1.52-.86,3.7-1.63,8.15-.49,10.57,2.94ZM1433.28,2731.33c8.88-2.82,17.76-6.07,26.39-9.65,4.43-1.84,9.5.26,11.34,4.69,1.81,4.37-.21,9.37-4.52,11.26-.06.02-.11.05-.17.07-9.08,3.77-18.43,7.19-27.78,10.16-4.57,1.45-9.45-1.07-10.9-5.64-1.36-4.26.76-8.8,4.77-10.57.28-.12.57-.23.87-.33Z" style="fill:#bdd0fb; stroke-width:0px;"/><path d="M1618.5,2586.11c-1.56.69-2.94,1.84-3.9,3.41-2.33,3.82-4.79,7.65-7.29,11.39-2.66,3.98-1.6,9.37,2.39,12.03,3.98,2.67,9.38,1.6,12.03-2.39,2.63-3.93,5.21-7.96,7.67-11.98,2.5-4.09,1.21-9.43-2.87-11.93-2.52-1.54-5.51-1.64-8.03-.54Z" style="fill:#bdd0fb; stroke-width:0px;"/></g><g style="opacity:.3;"><path d="M1657.45,2324.49c-3.83,1.69-5.98,5.95-4.89,10.13,1.13,4.33,2.19,8.75,3.14,13.15,1.02,4.68,5.64,7.65,10.32,6.64,4.7-1.02,7.65-5.64,6.64-10.32-1.01-4.63-2.12-9.29-3.31-13.84-1.21-4.64-5.95-7.41-10.59-6.2-.46.12-.89.27-1.31.46Z" style="fill:#bdd0fb; stroke-width:0px;"/><path d="M1210.58,2093.63c4.47-1.71,9.49.53,11.2,5.01,1.71,4.48-.53,9.48-5.01,11.2-8.52,3.26-17.03,6.93-25.4,10.95-4.29,2.08-9.5.25-11.58-4.07-2.07-4.32-.25-9.5,4.06-11.58,3.63-1.74,7.27-3.42,10.92-5.02,5.21-2.29,10.53-4.48,15.8-6.49ZM1154.75,2130.92c2.64,4,1.54,9.38-2.46,12.02-7.68,5.07-15.22,10.52-22.42,16.19-3.75,2.97-9.22,2.32-12.18-1.44-2.96-3.76-2.32-9.22,1.45-12.18,7.58-5.98,15.53-11.71,23.6-17.04.42-.28.85-.51,1.3-.71,3.8-1.67,8.36-.41,10.72,3.17ZM1255.79,2079.81c9.4-2.18,19.03-3.99,28.61-5.38,4.74-.69,9.14,2.6,9.83,7.35.68,4.74-2.61,9.13-7.35,9.83-9.1,1.31-18.24,3.03-27.17,5.1-4.67,1.08-9.33-1.82-10.41-6.49-.96-4.13,1.21-8.25,4.95-9.9.49-.21,1-.39,1.54-.51ZM1096.34,2177.01c3.45,3.32,3.56,8.81.24,12.27-6.37,6.62-12.53,13.59-18.31,20.72-3.02,3.73-8.48,4.29-12.2,1.27-3.72-3.02-4.29-8.48-1.27-12.2,6.09-7.51,12.57-14.85,19.28-21.82.81-.84,1.75-1.49,2.76-1.93,3.12-1.37,6.9-.82,9.51,1.69ZM1331.51,2070.91c9.65-.06,19.43.29,29.08,1.05,4.78.37,8.34,4.55,7.97,9.32-.37,4.78-4.55,8.35-9.32,7.97-9.17-.72-18.46-1.05-27.62-.99-4.79.03-8.7-3.83-8.73-8.62-.02-3.57,2.12-6.65,5.19-8,1.05-.46,2.21-.72,3.43-.73ZM1407.34,2078.83c9.45,2.05,18.92,4.53,28.15,7.36,4.58,1.41,7.16,6.26,5.75,10.84-1.41,4.59-6.26,7.16-10.84,5.75-8.77-2.69-17.77-5.04-26.75-7-4.68-1.02-7.65-5.64-6.63-10.32.61-2.82,2.54-5.02,4.99-6.1,1.62-.71,3.47-.94,5.33-.53ZM1479.65,2103.09c8.78,4.07,17.49,8.55,25.88,13.32,4.17,2.37,5.62,7.66,3.25,11.83-2.37,4.17-7.67,5.62-11.83,3.25-7.97-4.54-16.25-8.79-24.59-12.65-4.35-2.01-6.24-7.17-4.23-11.52.92-2,2.51-3.48,4.38-4.3,2.2-.97,4.79-1.02,7.14.07ZM1544.95,2142.54c7.68,5.89,15.2,12.17,22.34,18.68,3.54,3.23,3.8,8.71.57,12.26-3.22,3.54-8.71,3.8-12.26.57-6.78-6.18-13.92-12.14-21.22-17.73-3.8-2.91-4.52-8.36-1.61-12.16.92-1.2,2.09-2.09,3.39-2.66,2.8-1.23,6.17-.94,8.78,1.05ZM1600,2195.41c6.18,7.42,12.12,15.19,17.66,23.12,2.75,3.93,1.79,9.34-2.14,12.08-3.92,2.74-9.33,1.79-12.08-2.14-5.27-7.53-10.91-14.92-16.78-21.96-3.07-3.68-2.57-9.15,1.11-12.22.64-.53,1.34-.96,2.06-1.28,3.45-1.52,7.62-.65,10.16,2.4ZM1642.07,2259c3.25,6.32,6.35,12.83,9.21,19.33,1.04,2.35,2.04,4.71,3.02,7.08,1.83,4.43-.18,9.56-4.7,11.33-4.43,1.83-9.5-.27-11.33-4.7-.93-2.25-1.89-4.49-2.87-6.73-2.72-6.18-5.66-12.36-8.75-18.37-2.19-4.26-.51-9.49,3.75-11.68.16-.08.32-.16.48-.23,4.16-1.83,9.09-.12,11.2,3.98Z" style="fill:#bdd0fb; stroke-width:0px;"/><path d="M1041.42,2234.5c-1.58.69-2.97,1.86-3.93,3.45-2.43,4.02-4.82,8.17-7.11,12.32-2.31,4.2-.78,9.47,3.42,11.78,4.2,2.31,9.47.78,11.78-3.42,2.17-3.95,4.44-7.89,6.75-11.7,2.48-4.1,1.17-9.43-2.93-11.91-2.51-1.52-5.49-1.61-7.99-.52Z" style="fill:#bdd0fb; stroke-width:0px;"/></g><path d="M1069.97,2370.58c-.49,1.78.2,3.68,1.72,4.72l43.41,29.85c-.99,24.58,1.94,49.5,9.05,73.8l-34.86,39.46c-1.22,1.38-1.43,3.39-.52,5l31.13,54.99c.91,1.61,2.74,2.46,4.55,2.12l51.77-9.58c17.17,18.61,37.03,33.94,58.62,45.74l3.25,52.58c.11,1.84,1.39,3.41,3.16,3.9l60.9,16.87c1.78.49,3.68-.2,4.72-1.72l29.85-43.41c24.58.99,49.5-1.93,73.8-9.05l39.46,34.86c1.38,1.22,3.39,1.43,5,.52l54.99-31.13c1.61-.91,2.46-2.74,2.12-4.55l-9.58-51.77c18.61-17.17,33.94-37.03,45.74-58.62l52.58-3.25c1.84-.11,3.41-1.38,3.9-3.16l16.87-60.9c.49-1.78-.2-3.68-1.72-4.72l-43.41-29.85c.99-24.58-1.94-49.5-9.05-73.8l34.86-39.46c1.22-1.38,1.43-3.39.52-5l-31.13-54.99c-.91-1.61-2.74-2.46-4.55-2.12l-51.77,9.58c-17.17-18.61-37.03-33.94-58.62-45.74l-3.25-52.58c-.11-1.84-1.38-3.41-3.16-3.9l-60.9-16.87c-1.78-.49-3.68.2-4.72,1.72l-29.85,43.41c-24.58-.99-49.5,1.94-73.8,9.05l-39.46-34.86c-1.38-1.22-3.39-1.43-5-.52l-54.99,31.13c-1.61.91-2.46,2.74-2.12,4.56l9.58,51.77c-18.61,17.17-33.94,37.03-45.74,58.62l-52.58,3.25c-1.84.11-3.41,1.39-3.9,3.16l-16.87,60.9Z" style="fill:#bdd0fb; stroke-width:0px;"/><path d="M1328.99,2352.96c33.78-9.27,68.8,10.67,78.07,44.45,4.49,16.36,2.34,33.49-6.05,48.24-8.39,14.74-22.02,25.34-38.39,29.83-33.78,9.27-68.8-10.67-78.07-44.45-8.43-30.73,7.31-62.49,35.65-74.95,2.81-1.24,5.75-2.28,8.79-3.12ZM1388.12,2438.31c6.44-11.31,8.08-24.44,4.64-36.99-7.11-25.89-33.96-41.18-59.86-34.08-25.91,7.1-41.18,33.96-34.08,59.86,7.11,25.89,33.96,41.18,59.86,34.08,2.35-.65,4.62-1.45,6.81-2.42,9.51-4.18,17.39-11.27,22.63-20.45Z" style="fill:url(#uuid-de58109d-9250-464b-87a8-4c14ffbc06de); stroke-width:0px;"/><path d="M1284.46,2271.57c-4.87,2.14-9.66,4.54-14.35,7.19h0c-1.48.83-2.94,1.7-4.39,2.58-7.15,4.35-13.93,9.27-20.26,14.67-.09.07-.17.15-.26.22-.24.21-.49.42-.73.63-.47.41-.94.83-1.41,1.24-1.23,1.09-1.56,2.82-.93,4.25.15.35.36.68.63.98,1.36,1.53,3.7,1.66,5.23.3,7.86-7,16.53-13.2,25.77-18.43,45.87-25.98,99.83-24.85,143.26-1.78,24.16,12.83,45.06,32.44,59.5,57.96,2.53,4.47,4.82,9.04,6.86,13.69,13.73,31.25,16.28,65.99,7.04,99.33-10.61,38.3-35.5,70.17-70.08,89.75-71.43,40.43-162.35,15.21-202.77-56.18-2.49-4.4-4.75-8.91-6.77-13.51-8.76-19.94-13.06-41.57-12.52-63.36.01-.56-.1-1.1-.31-1.58-.56-1.27-1.82-2.18-3.3-2.21-2.05-.04-3.75,1.56-3.8,3.61-.57,22.88,3.94,45.59,13.14,66.52,2.12,4.83,4.49,9.56,7.11,14.18,42.43,74.95,137.94,101.39,212.87,58.98,36.31-20.55,62.43-54.01,73.57-94.22,9.7-35,7.02-71.47-7.39-104.28-2.14-4.88-4.55-9.67-7.2-14.37-20.56-36.31-54.02-62.44-94.22-73.58-35.01-9.7-71.48-7.02-104.3,7.41Z" style="fill:url(#uuid-7f39637f-a0e5-4b1b-a7ad-3c8436e99981); stroke-width:0px;"/><g style="opacity:.3;"><path d="M645.46,2422.01c-2.12.93-3.47,3.18-3.15,5.59.58,4.51,1.31,9.07,2.16,13.54.55,2.91,3.36,4.81,6.27,4.26,2.91-.54,4.81-3.36,4.26-6.27-.81-4.26-1.51-8.6-2.06-12.91-.38-2.93-3.07-5-6-4.63-.52.07-1.01.21-1.47.41Z" style="fill:#bdd0fb; stroke-width:0px;"/><path d="M655,2462.03c2.82-.91,5.84.64,6.75,3.45,2.3,7.11,4.99,14.18,7.99,21.01.63,1.44,1.29,2.88,1.96,4.32,1.24,2.68.08,5.87-2.6,7.12-2.58,1.08-5.87.08-7.12-2.6-.7-1.51-1.38-3.01-2.04-4.52-3.15-7.17-5.97-14.58-8.38-22.03-.85-2.64.45-5.46,2.94-6.55.17-.07.34-.14.51-.2ZM684.64,2514.75c4.79,7.69,10.09,15.15,15.77,22.17,1.86,2.3,1.5,5.67-.8,7.54-2.29,1.85-5.67,1.51-7.54-.8-5.95-7.36-11.52-15.18-16.53-23.24-1.56-2.51-.8-5.82,1.72-7.38.22-.14.45-.25.68-.36,2.4-1.06,5.27-.21,6.7,2.07ZM718.81,2556.97c6.51,6.27,13.49,12.19,20.74,17.62,2.37,1.77,2.85,5.13,1.08,7.5-1.78,2.38-5.13,2.86-7.5,1.08-7.6-5.68-14.92-11.9-21.75-18.47-2.13-2.05-2.2-5.45-.15-7.58.5-.52,1.08-.92,1.7-1.19,1.93-.85,4.26-.51,5.87,1.04ZM762.32,2589.5c7.87,4.49,16.08,8.53,24.41,12,2.73,1.14,4.02,4.28,2.88,7.01-1.14,2.72-4.27,4.02-7.01,2.89-8.74-3.65-17.35-7.88-25.6-12.59-2.57-1.47-3.46-4.74-2-7.31.59-1.03,1.48-1.8,2.49-2.25,1.5-.66,3.28-.63,4.82.25ZM812.44,2610.42c8.72,2.44,17.66,4.36,26.6,5.71,2.92.44,4.94,3.17,4.49,6.1-.44,2.93-3.17,4.94-6.1,4.49-9.36-1.42-18.74-3.43-27.88-5.98-2.85-.8-4.51-3.75-3.72-6.6.45-1.61,1.59-2.84,3.01-3.47,1.09-.48,2.36-.6,3.6-.26ZM866.13,2618.55c9.04.24,18.18-.07,27.16-.95,2.94-.29,5.57,1.87,5.85,4.81.29,2.94-1.86,5.56-4.81,5.85-9.42.92-19.01,1.25-28.49,1-2.96-.08-5.29-2.54-5.21-5.5.06-2.14,1.36-3.96,3.2-4.76.7-.31,1.48-.47,2.3-.45ZM920.15,2613.3c8.8-1.97,17.58-4.53,26.12-7.6,2.79-1,5.85.45,6.85,3.24,1,2.78-.46,5.81-3.23,6.86-8.95,3.21-18.17,5.89-27.39,7.96-2.89.65-5.76-1.17-6.4-4.06-.57-2.54.77-5.06,3.07-6.08.31-.14.64-.25.99-.33ZM1002.2,2582.69c1.65,2.46.99,5.78-1.47,7.43-6.81,4.56-13.98,8.82-21.3,12.66-1.11.59-2.22,1.16-3.34,1.73-2.59,1.4-5.87.27-7.19-2.38-1.33-2.64-.26-5.86,2.38-7.2,1.05-.52,2.1-1.06,3.15-1.63,7.01-3.67,13.85-7.74,20.34-12.09.27-.18.55-.33.83-.46,2.34-1.03,5.14-.26,6.6,1.93Z" style="fill:#bdd0fb; stroke-width:0px;"/></g><g style="opacity:.3;"><path d="M781.7,2184.73c8.6-3.65,17.49-6.8,26.44-9.38,2.84-.82,5.81.82,6.63,3.67.82,2.85-.85,5.79-3.67,6.63-8.53,2.45-17.01,5.46-25.22,8.94-2.72,1.16-5.87-.12-7.02-2.84-1.15-2.7.1-5.82,2.77-7,.02,0,.05-.02.07-.03ZM763.88,2199.21c1.47,2.56.59,5.84-1.98,7.31-7.72,4.43-15.25,9.38-22.38,14.7-2.36,1.75-5.73,1.28-7.5-1.09-1.77-2.37-1.28-5.72,1.09-7.5,7.47-5.58,15.36-10.76,23.45-15.4.17-.1.34-.18.52-.26,2.47-1.09,5.42-.16,6.8,2.24ZM835.54,2169.26c9.23-1.46,18.62-2.37,27.93-2.71,2.96-.11,5.44,2.21,5.55,5.16.11,2.96-2.2,5.43-5.16,5.55-8.87.32-17.84,1.19-26.64,2.58-2.92.46-5.67-1.53-6.13-4.45-.39-2.46.96-4.79,3.13-5.74.41-.18.85-.31,1.32-.39ZM719.26,2230.94c2.05,2.14,1.97,5.53-.16,7.58-6.43,6.16-12.54,12.77-18.16,19.66-1.87,2.29-5.25,2.63-7.54.76-2.29-1.87-2.64-5.25-.76-7.54,5.9-7.23,12.31-14.17,19.05-20.62.47-.45.99-.79,1.55-1.04,2-.88,4.43-.47,6.03,1.2ZM891.5,2167.26c9.29.8,18.62,2.18,27.75,4.09,2.9.61,4.75,3.45,4.14,6.35-.61,2.9-3.45,4.76-6.35,4.14-8.71-1.83-17.61-3.14-26.47-3.9-2.95-.25-5.13-2.85-4.88-5.8.17-2.02,1.45-3.68,3.19-4.45.79-.35,1.68-.51,2.61-.43ZM946.31,2178.75c8.84,3.01,17.58,6.58,25.98,10.61,2.67,1.28,3.79,4.48,2.51,7.15-1.28,2.67-4.48,3.79-7.15,2.51-8-3.84-16.34-7.25-24.78-10.12-2.8-.95-4.3-4-3.35-6.8.5-1.48,1.59-2.6,2.92-3.18,1.18-.52,2.56-.62,3.88-.17ZM996.8,2203.03c7.87,5.04,15.51,10.61,22.68,16.54,2.28,1.89,2.6,5.26.71,7.55-1.88,2.28-5.26,2.59-7.54.72-6.84-5.66-14.12-10.97-21.63-15.77-2.49-1.6-3.22-4.91-1.62-7.4.59-.93,1.42-1.61,2.35-2.02,1.59-.7,3.48-.62,5.05.39Z" style="fill:#bdd0fb; stroke-width:0px;"/><path d="M678.48,2272.35c-.95.42-1.78,1.11-2.37,2.05-2.44,3.88-4.78,7.85-6.95,11.8-1.42,2.59-.48,5.85,2.11,7.28,2.59,1.42,5.85.48,7.28-2.11,2.07-3.77,4.3-7.56,6.63-11.26,1.58-2.5.82-5.81-1.68-7.39-1.56-.98-3.44-1.06-5.01-.37Z" style="fill:#bdd0fb; stroke-width:0px;"/></g><path d="M699.84,2372.1c-.31,1.12.12,2.3,1.08,2.96l27.21,18.71c-.62,15.41,1.21,31.03,5.68,46.26l-21.85,24.73c-.77.87-.9,2.13-.33,3.13l19.51,34.47c.57,1.01,1.72,1.54,2.85,1.33l32.45-6.01c10.76,11.66,23.21,21.27,36.74,28.67l2.04,32.96c.07,1.16.87,2.14,1.98,2.45l38.17,10.58c1.12.31,2.3-.12,2.96-1.08l18.71-27.21c15.41.62,31.03-1.21,46.26-5.68l24.73,21.85c.87.77,2.13.9,3.13.33l34.47-19.51c1.01-.57,1.54-1.72,1.33-2.85l-6.01-32.45c11.66-10.76,21.27-23.21,28.67-36.74l32.96-2.04c1.15-.07,2.14-.87,2.45-1.98l10.58-38.17c.31-1.12-.12-2.3-1.08-2.96l-27.21-18.71c.62-15.41-1.21-31.03-5.68-46.26l21.85-24.73c.77-.87.9-2.13.33-3.13l-19.51-34.47c-.57-1.01-1.72-1.54-2.85-1.33l-32.45,6.01c-10.76-11.66-23.21-21.27-36.74-28.67l-2.04-32.96c-.07-1.16-.87-2.14-1.98-2.45l-38.17-10.58c-1.12-.31-2.3.12-2.96,1.08l-18.71,27.21c-15.41-.62-31.03,1.21-46.26,5.68l-24.73-21.85c-.87-.77-2.13-.9-3.13-.33l-34.47,19.51c-1.01.57-1.54,1.72-1.33,2.85l6.01,32.45c-11.66,10.76-21.27,23.21-28.67,36.74l-32.96,2.04c-1.16.07-2.14.87-2.45,1.98l-10.58,38.17Z" style="fill:#bdd0fb; stroke-width:0px;"/><path d="M862,2360.36c10.44-2.87,21.37-1.5,30.78,3.86,9.41,5.35,16.17,14.05,19.03,24.5,5.91,21.55-6.79,43.85-28.36,49.81-21.55,5.91-43.9-6.81-49.81-28.36-2.87-10.44-1.5-21.37,3.86-30.78,4.35-7.65,10.92-13.55,18.83-17.02,1.82-.8,3.71-1.47,5.66-2.01ZM901.48,2391.56c-2.11-7.68-7.08-14.08-14-18.02-6.92-3.94-14.96-4.95-22.64-2.84h0c-7.68,2.12-14.08,7.08-18.02,14-3.94,6.92-4.95,14.96-2.84,22.64,4.35,15.85,20.79,25.21,36.64,20.86,1.43-.39,2.81-.88,4.13-1.47,13.31-5.85,20.69-20.76,16.74-35.18Z" style="fill:url(#uuid-38e53cd0-2b74-48bd-a552-f13e833e1e1b); stroke-width:0px;"/><path d="M832.97,2307.3c-3.1,1.36-6.16,2.9-9.18,4.6-5.98,3.38-11.62,7.38-16.78,11.89-.23.2-.46.41-.69.61-1.78,1.58-2.25,4.08-1.35,6.15.22.5.53.98.91,1.41,1.97,2.21,5.35,2.39,7.56.44,4.78-4.26,10.04-8.01,15.63-11.17h0c.31-.18.62-.35.92-.52,13.3-7.36,27.93-11.13,42.73-11.23,8.04-.06,16.13.97,24.09,3.1.06.02.13.03.19.05.2.06.4.11.59.16,23.22,6.44,42.55,21.53,54.42,42.5,1.54,2.71,2.92,5.48,4.16,8.3,8.33,18.95,9.87,40.02,4.27,60.24-6.44,23.22-21.53,42.55-42.5,54.42-20.96,11.86-45.31,14.87-68.54,8.44-23.22-6.44-42.55-21.53-54.42-42.5-1.51-2.67-2.88-5.4-4.11-8.19-5.31-12.09-7.92-25.21-7.59-38.42.02-.81-.14-1.59-.45-2.29-.81-1.84-2.63-3.15-4.77-3.2-2.96-.07-5.42,2.26-5.49,5.23-.37,14.78,2.55,29.46,8.49,42.99,1.37,3.12,2.9,6.18,4.59,9.17,13.28,23.47,34.91,40.35,60.89,47.55,25.98,7.2,53.21,3.87,76.67-9.44,23.46-13.28,40.35-34.9,47.55-60.89,6.27-22.62,4.54-46.19-4.78-67.39-1.38-3.15-2.94-6.25-4.65-9.28-25.72-45.42-81.6-63.29-128.39-42.71Z" style="fill:url(#uuid-191297bb-3ed1-4113-88a8-2d9981ab680f); stroke-width:0px;"/><circle cx="447.21" cy="2275.85" r="391.97" style="fill:#91b3fa; stroke-width:0px;"/><path d="M645.03,2067.33s191.68,182.75,389.53,130.31l20.72,25.06s-245.02,147.87-459.55-20.12l49.3-135.26Z" style="fill:url(#uuid-b50493b6-92e5-4b59-9eab-15431ef29e91); stroke-width:0px;"/><path d="M460.42,2663.64s-180.22-140.32-216.47-374.48c-20.87-134.86,86.44-256.26,222.8-251.05,51.73,1.98,111.48,10.27,178.27,29.22,0,0-94.57,228.9,26.72,535.47,0,0-131.07,75.76-211.33,60.85Z" style="fill:url(#uuid-64a3dade-d33c-4827-b49c-279ce1471fbf); stroke-width:0px;"/><path d="M422.13,1901.57l-36.29,135.24c-3.41,12.72,3.01,25.99,15.09,31.23,20.96,9.09,54.58,17.75,84.4-.98,9.76-6.13,15.89-16.67,16.66-28.17l7.51-112.68-87.36-24.64Z" style="fill:url(#uuid-52ee4ce3-e3bc-41de-a17d-df8f8f277d26); stroke-width:0px;"/><circle cx="391.97" cy="526.95" r="391.97" style="fill:#91b3fa; stroke-width:0px;"/><circle cx="2373.98" cy="526.95" r="391.97" style="fill:#91b3fa; stroke-width:0px;"/><circle cx="2291.12" cy="2371.01" r="391.97" style="fill:#91b3fa; stroke-width:0px;"/><path d="M536.62,448.79c20.03-4.52,95.52,244.34,320.53,111.53l17.49,41.08s-188.94,197.2-349.04,5l11.02-157.61Z" style="fill:url(#uuid-f95560b0-9187-41e5-9353-bddfd0aef378); stroke-width:0px;"/><path d="M1010.14,618.2c-1.17-8.85-6.31-16.7-13.96-21.31l-74.65-45.04s.45-10.44,19.66-14.47c19.2-4.03,18.26-24.96,18.26-24.96,0,0-26.52,7.27-65.57,19.28-22.33,6.87-36.85,23.03-45.2,35.62l16.18,30.36c46.82,22.75,96.16,33.64,147.33,35.91l-2.04-15.39Z" style="fill:url(#uuid-16328f1f-7765-4f52-9a89-314a57c3a702); stroke-width:0px;"/><path d="M237.35,441.29c-6.88,2.97,34.08,267.66-10.44,441.46,0,0,76.03,39.7,165.05,36.17,0,0,160.25-246.25,164.44-274.43,4.75-31.93-19.79-195.7-19.79-195.7,0,0-129.61-80.83-299.27-7.5Z" style="fill:url(#uuid-d5fb9639-1f23-4906-ae59-ac2d1c76a192); stroke-width:0px;"/><path d="M443.52,552.72c79.2,2.69,85.5-65.18,80.99-110.44-26.04-12.79-92.23-39.17-179.72-29.75-1.62,38.63,3.64,136.96,98.73,140.18Z" style="fill:url(#uuid-126b3ff7-f1f4-4299-ae48-76eecc0fe29e); stroke-width:0px;"/><path d="M467.04,294.12s-39.34,83.13-62.32,118.18c-6.74,10.29-4.68,24.06,4.87,31.82,10.9,8.86,28.6,17.64,56.11,17.92,11.56.12,21.73-7.71,24.77-18.86l25.93-94.96-49.35-54.1Z" style="fill:url(#uuid-4887a3bc-9774-47d2-8435-8e851e0b8658); stroke-width:0px;"/><path d="M601.55,225.65s18.22,42.08-3.19,106.05c-21.4,63.97-56.38,69.53-78.53,53.72-22.15-15.82-50.87-44.08-54.45-102.03-3.57-57.95,111.07-110.96,136.16-57.74Z" style="fill:url(#uuid-d0092ae3-dbcf-44aa-9a0c-bca513a2f259); stroke-width:0px;"/><path d="M508.61,279.62s38.65-86.58,96.63-32.65l4.47,22.29s55.21-15.73,37.06-65.76c-18.14-50.03-84.12-83.97-143.17-51.54-59.05,32.43-79.12,70.62-75.95,116.16,3.17,45.54,37.31,29.96,37.31,29.96,0,0,6.57-33.48,22.6-39.43s15.69,19.4,15.69,19.4l5.35,1.57Z" style="fill:url(#uuid-607977e3-0420-400a-a89b-30e79bd19517); stroke-width:0px;"/><path d="M495.32,280.68s20.13-44.39-8.07-46c-28.2-1.6-16.73,42.79-11.11,58.99l19.17-13Z" style="fill:url(#uuid-296025b0-5309-4cb7-a2b5-d20fb2910d80); stroke-width:0px;"/><path d="M479.31,184.06c15.8-1.92,22.15-21.44,11.41-33.18-34.68-37.9-100.15-79.95-193.42-15.42-105.07,72.68-161.91,105.56-187.72,98.67-16.95-4.53-31.69,12.23-23.68,27.85,5.92,11.54,17.97,23.6,40.23,34.58,171.75,84.74,260.52-101.21,353.18-112.49Z" style="fill:url(#uuid-d19a7927-8621-41d8-b161-72992f9307fc); stroke-width:0px;"/><path d="M2297.09,412.82s-150.24,271.68-365.49,291.34l-11.47,32.37s296.61,57.92,448.55-186.42l-71.59-137.28Z" style="fill:url(#uuid-81039774-8d6b-4498-b785-c91b7caf2421); stroke-width:0px;"/><path d="M2063.8,2183.24s-47.08,123.7,38.9,187.5c85.97,63.81,223.65-94.63,223.65-94.63l-76.1,194.87s-101.7,65.05-207.72-43.06c-106.02-108.11-32.54-255-32.54-255,0,0-72.64-34.9-29.55-105.39,2.96-4.84,10.32-3.55,11.47,2,4.26,20.54,15.47,56.64,43.09,71.04,39.62,20.65,28.81,42.67,28.81,42.67Z" style="fill:url(#uuid-cf524237-7bc7-437d-9980-973aa7fab04c); stroke-width:0px;"/><path d="M1680.06,703.2c-1.28-.4-2.56-.79-3.84-1.19l2.67,1.45c.37-.03.78-.16,1.17-.26Z" style="fill:url(#uuid-78fd6b20-801c-476d-8669-6fa343cc3b7c); stroke-width:0px;"/><path d="M2074.61,746.48c5.33,9.07,2.63-9.37-5.4-42.94-3.92,13.76-2.67,29.2,5.4,42.94Z" style="fill:url(#uuid-21d75104-a3a9-4265-8ee0-84829753a713); stroke-width:0px;"/><path d="M2209.77,1541.19c-35.71,1.92-62.78-33.96-50.84-68.37,13.24-38.18,25.05-89.95,24.15-151.9-1.99-137.71-118.23-234.81-268.66-203.87-149.06,30.66-177.12,164.94-155.38,228.16,11.36,33.04,50.79,89.32,85.95,135.67,24.59,32.41,4,79.7-35.54,81.83l-398.31,21.4-20.84-352.16c-1.75-29.55-33.73-45.49-56.5-28.14-38.33,29.21-98.91,55.28-184.77,36.84-163.2-35.06-163.79-190.26-136.87-268.37,22.71-65.91,175.51-152.88,292.29-75.73,24.78,16.37,57.01-3.33,55.18-34.22l-22.15-444.44c-496.3,47.6-884.41,465.69-884.41,974.47,0,56.53,4.85,111.93,14.05,165.84l381.22,4.54c17.21.34,25.91,19.06,14.41,30.77-21.98,22.38-43.73,58.89-39.8,114.29,7.7,108.3,105.44,149.42,213.44,103.74,107.59-45.51,135.71-166.71,29.42-251.44l342.28,6.87,2.28,268.7c.25,29.43,35.99,47.82,61.86,31.56,132.2-83.05,257.78,18.23,264.33,98.07,7.6,92.7-44.23,184.9-157.99,173.71-49.25-4.85-88.78-18.68-117.73-32.79-26.52-12.92-57.31,4.73-57.09,32.52l1.89,232.28c8.8.23,17.62.37,26.47.37,493.67,0,901.92-365.4,969.23-840.48l-191.57,10.29Z" style="fill:url(#uuid-54a5994d-15ab-4451-b1ee-2db26a7e66f5); stroke-width:0px;"/><path d="M1432.11,2376.4c-8.51,0-17.46-.12-26.6-.37l-4.85-.13-1.93-237.13c-.11-14.15,7.13-27.2,19.38-34.93,13.47-8.49,30.27-9.3,44.94-2.15,35.64,17.37,74.68,28.23,116.02,32.3,44.44,4.36,82.33-7.48,109.56-34.27,31.24-30.74,47.29-80.84,42.93-134.03-3.26-39.82-37.66-83.71-83.64-106.73-31.84-15.93-96.63-35.49-173,12.5-13.9,8.73-31.78,9.1-46.67.95-14.2-7.77-22.76-21.5-22.88-36.72l-2.24-263.82-323.24-6.49c43.22,38.8,63.29,85.86,56.71,133.77-6.89,50.15-43.61,93.89-98.24,116.99-59.94,25.36-118.56,25.04-160.81-.86-35.05-21.48-56.21-59.54-59.59-107.16-4.17-58.72,20.12-96.67,41.22-118.16,3.68-3.75,4.75-8.76,2.85-13.4-1.7-4.17-6.21-8.67-13.78-8.82l-385.37-4.59-.7-4.13c-9.37-54.94-14.12-111.02-14.12-166.69,0-246.26,91.42-481.92,257.41-663.57,164.91-180.47,389.2-292.66,631.55-315.9l5.24-.5,22.41,449.7c.98,16.59-7.08,31.93-21.05,39.98-13.35,7.69-29.01,7.2-41.92-1.33-65.62-43.34-135.69-29.33-171.61-17.13-53.84,18.3-101.43,56.28-113.16,90.3-15.72,45.62-22.28,119.83,10.98,178.79,24.18,42.87,65.29,70.8,122.2,83.03,86.1,18.49,145.77-9.32,180.67-35.92,11.82-9.01,26.87-10.72,40.25-4.58,14.05,6.45,23.36,20.4,24.31,36.42l20.54,347.18,393.32-21.13c16.18-.87,30.02-10.4,37.02-25.51,7.35-15.85,5.35-34.34-5.22-48.26-48.02-63.28-77.19-109.4-86.7-137.07-11.35-33.01-10.06-88.65,18.39-138.52,19.83-34.76,60.34-79.67,140.74-96.2,74.31-15.28,144-.61,196.2,41.32,49.63,39.87,77.51,99.32,78.49,167.4.76,52.99-7.46,104.68-24.43,153.62-5.07,14.61-2.48,30.79,6.93,43.29,9.29,12.34,23.81,19.25,38.89,18.41l197.67-10.62-.86,6.05c-32.93,232.43-148.85,446.04-326.4,601.47-179.24,156.91-409.31,243.33-647.81,243.33ZM1410.63,2366.1c7.37.16,14.57.25,21.48.25,480.14,0,893.22-356.42,963.38-830.11l-185.45,9.96-.27-5.02.27,5.02c-18.38.99-36.15-7.39-47.46-22.41-11.43-15.18-14.57-34.85-8.4-52.63,16.59-47.84,24.62-98.37,23.88-150.19-.94-65.03-27.48-121.75-74.74-159.71-49.83-40.02-116.55-53.99-187.88-39.31-76.71,15.78-115.23,58.38-134.03,91.34-26.89,47.15-28.23,99.4-17.61,130.27,9.04,26.28,38.5,72.71,85.2,134.26,12.82,16.89,15.24,39.33,6.32,58.56-8.59,18.54-25.64,30.25-45.6,31.32l-396.41,21.3,2.09,246.6c.1,11.53,6.7,21.99,17.66,27.99,11.7,6.4,25.68,6.15,36.5-.64,80.54-50.6,149.13-29.85,182.84-12.98,49.74,24.89,85.57,71.07,89.17,114.89,4.6,56.12-12.56,109.21-45.9,142.01-29.42,28.95-70.09,41.78-117.59,37.1-42.54-4.18-82.73-15.38-119.45-33.27-11.51-5.61-24.67-5.02-35.17,1.61-9.42,5.94-14.77,15.54-14.69,26.34l1.85,227.41ZM471.39,1553.21l377.02,4.49c10.45.21,19.22,5.99,22.93,15.08,3.41,8.35,1.49,17.64-4.99,24.24-19.66,20.02-42.28,55.42-38.37,110.41,3.19,44.94,22.15,79.28,54.82,99.3,39.45,24.18,94.72,24.25,151.65.17,51.33-21.71,85.79-62.5,92.19-109.1,6.61-48.13-16.1-95.64-63.94-133.78l-11.61-9.25,353.72,7.1-19.5-329.63c-.74-12.49-7.65-22.91-18.47-27.87-9.94-4.56-21.15-3.28-29.97,3.44-36.58,27.87-99.03,57.06-188.88,37.75-59.83-12.86-103.18-42.43-128.83-87.91-34.91-61.87-28.14-139.41-11.73-187.01,12.86-37.32,61.97-77.02,119.43-96.54,37.67-12.8,111.18-27.46,180.39,18.26,9.66,6.38,21.39,6.76,31.35,1,10.65-6.14,16.79-17.92,16.04-30.73l-21.89-439.22c-499,50.5-874.63,466.13-874.63,968.95,0,53.71,4.47,107.81,13.29,160.87Z" style="fill:#fff; stroke-width:0px;"/><path d="M1460.84,2106.21c28.96,14.11,68.48,27.94,117.73,32.79,113.76,11.19,165.59-81.01,157.99-173.71-6.54-79.85-132.13-181.12-264.33-98.07-25.86,16.25-61.61-2.13-61.86-31.56l-2.28-268.7-342.28-6.87c106.29,84.73,78.17,205.93-29.42,251.44-108,45.68-205.74,4.55-213.44-103.74-3.94-55.39,17.81-91.9,39.8-114.29,11.5-11.71,2.8-30.43-14.41-30.77l-381.22-4.54c77.35,453.27,466.22,800.29,938.51,812.83l-1.89-232.28c-.22-27.79,30.56-45.44,57.09-32.52Z" style="fill:url(#uuid-194e87ec-d9d9-4a9d-8e9d-a0aa5d467f22); stroke-width:0px;"/><path d="M1405.64,2376.04s-.09,0-.13,0c-467.94-12.42-864.67-356.03-943.33-817.01-.25-1.47.16-2.98,1.13-4.11.97-1.14,2.42-1.83,3.88-1.76l381.22,4.54c10.45.21,19.22,5.99,22.93,15.08,3.41,8.35,1.49,17.64-4.99,24.24-19.66,20.02-42.28,55.42-38.37,110.41,3.19,44.94,22.15,79.28,54.82,99.3,39.45,24.18,94.72,24.25,151.65.17,51.33-21.71,85.79-62.5,92.19-109.1,6.61-48.13-16.1-95.64-63.94-133.78-1.69-1.34-2.33-3.61-1.6-5.64.72-1.99,2.61-3.32,4.73-3.32.03,0,.07,0,.1,0l342.28,6.87c2.72.05,4.9,2.26,4.92,4.98l2.28,268.71c.1,11.53,6.7,21.99,17.66,27.99,11.7,6.4,25.68,6.16,36.5-.64,80.54-50.6,149.12-29.85,182.85-12.98,49.74,24.89,85.57,71.07,89.16,114.89,4.6,56.12-12.56,109.21-45.9,142.01-29.42,28.95-70.09,41.78-117.59,37.1-42.54-4.18-82.73-15.38-119.45-33.27h0c-11.51-5.61-24.67-5.01-35.17,1.61-9.42,5.94-14.77,15.54-14.69,26.34l1.89,232.28c0,1.36-.53,2.67-1.5,3.63-.94.92-2.21,1.44-3.52,1.44ZM473.12,1563.28c79.94,451.59,468.56,787.94,927.46,802.55l-1.85-227.06c-.11-14.15,7.13-27.2,19.38-34.93,13.47-8.49,30.27-9.3,44.94-2.15h0c35.64,17.37,74.68,28.23,116.02,32.3,44.44,4.36,82.33-7.48,109.56-34.27,31.24-30.74,47.29-80.84,42.93-134.03-3.26-39.82-37.66-83.71-83.64-106.73-31.84-15.93-96.63-35.49-173,12.5-13.9,8.73-31.78,9.1-46.67.95-14.2-7.77-22.76-21.5-22.88-36.72l-2.24-263.82-323.24-6.49c43.22,38.8,63.29,85.86,56.71,133.77-6.89,50.15-43.61,93.89-98.24,116.99-59.94,25.36-118.56,25.04-160.81-.86-35.05-21.48-56.21-59.54-59.59-107.16-4.17-58.72,20.11-96.67,41.22-118.16,3.68-3.75,4.75-8.76,2.85-13.4-1.7-4.17-6.21-8.67-13.78-8.82l-375.14-4.46Z" style="fill:#fff; stroke-width:0px;"/><path d="M1304.46,896.53c-116.79-77.14-269.58,9.83-292.29,75.73-26.92,78.11-26.33,233.3,136.87,268.37,85.86,18.44,146.44-7.62,184.77-36.84,22.77-17.35,54.75-1.41,56.5,28.14l20.84,352.16,398.31-21.4c39.54-2.13,60.13-49.42,35.54-81.83-35.16-46.34-74.59-102.63-85.95-135.67-21.73-63.23,6.32-197.51,155.38-228.16,150.43-30.94,266.67,66.16,268.66,203.87.89,61.95-10.91,113.72-24.15,151.9-11.94,34.41,15.13,70.29,50.84,68.37l191.57-10.29c6.41-45.27,9.81-91.51,9.81-138.55,0-438.68-288.53-809.96-686.17-934.46-.39.1-.79.23-1.17.26l-2.67-1.45c-91.36-28.19-188.41-43.39-289.03-43.39-31.93,0-63.48,1.58-94.62,4.57l22.15,444.44c1.83,30.89-30.4,50.58-55.18,34.22Z" style="fill:url(#uuid-466d2ab6-52b1-41a4-8c5a-52a4b331b98c); stroke-width:0px;"/><path d="M1411.15,1589.12c-2.64,0-4.86-2.06-5.01-4.73l-20.84-352.16c-.74-12.49-7.65-22.91-18.47-27.87-9.94-4.56-21.15-3.28-29.97,3.44-36.58,27.87-99.03,57.06-188.88,37.75-59.83-12.86-103.18-42.43-128.83-87.91-34.91-61.87-28.14-139.41-11.73-187.01,12.86-37.32,61.97-77.02,119.43-96.54,37.67-12.8,111.18-27.45,180.39,18.26h0c9.66,6.38,21.39,6.76,31.35,1,10.65-6.14,16.79-17.92,16.04-30.73l-22.15-444.49c-.13-2.68,1.87-5,4.54-5.25,31.77-3.05,63.77-4.59,95.1-4.59,98.98,0,196.72,14.67,290.51,43.61.32.1.63.23.92.39l1.08.59c.62-.04,1.25.03,1.86.22,98.78,30.93,191.78,77.21,276.38,137.55,83.51,59.55,156.97,131.44,218.34,213.65,127.55,170.87,194.97,374.22,194.97,588.06,0,46.25-3.31,93.11-9.85,139.26-.34,2.38-2.31,4.18-4.71,4.31l-191.57,10.29c-18.38.99-36.15-7.39-47.46-22.41-11.43-15.18-14.57-34.85-8.4-52.63,16.59-47.84,24.62-98.37,23.88-150.19-.94-65.03-27.48-121.75-74.74-159.71-49.83-40.02-116.55-53.99-187.88-39.31-76.71,15.78-115.23,58.38-134.03,91.34-26.89,47.15-28.23,99.4-17.61,130.27,9.04,26.28,38.5,72.71,85.2,134.26,12.82,16.89,15.24,39.33,6.32,58.56-8.59,18.54-25.64,30.25-45.6,31.32l-398.31,21.4c-.09,0-.18,0-.27,0ZM1354.61,1191.58c5.53,0,11.1,1.2,16.4,3.64,14.05,6.45,23.36,20.4,24.31,36.42l20.54,347.18,393.32-21.13c16.18-.87,30.02-10.4,37.02-25.51,7.35-15.85,5.35-34.34-5.22-48.26-48.02-63.28-77.19-109.4-86.7-137.07-11.35-33.01-10.06-88.65,18.39-138.52,19.83-34.76,60.34-79.67,140.74-96.2,74.31-15.28,144-.61,196.2,41.32,49.63,39.87,77.51,99.32,78.49,167.4.76,52.99-7.46,104.68-24.43,153.62-5.07,14.61-2.48,30.79,6.93,43.29,9.29,12.34,23.81,19.25,38.89,18.41l187.43-10.07c6.09-44.36,9.18-89.34,9.18-133.75,0-427.78-273.74-801.04-681.35-929.26-.17.03-.34.05-.5.07-.99.09-1.99-.11-2.86-.59l-2.23-1.21c-92.68-28.55-189.26-43.02-287.07-43.02-29.44,0-59.48,1.38-89.36,4.1l21.91,439.64c.98,16.59-7.08,31.93-21.05,39.98-13.35,7.69-29.01,7.2-41.92-1.33h0c-65.62-43.34-135.69-29.33-171.61-17.13-53.85,18.3-101.43,56.28-113.16,90.3-15.72,45.62-22.28,119.83,10.98,178.79,24.18,42.86,65.29,70.8,122.2,83.02,86.09,18.49,145.77-9.32,180.67-35.92,7.14-5.44,15.45-8.22,23.85-8.22Z" style="fill:#fff; stroke-width:0px;"/><path d="M2360.51,921.05s-153.1-447.15-43.45-533.82c0,0,164.33-26.51,283.82,18.8v440.56s-110.8,102.86-240.37,74.45Z" style="fill:url(#uuid-5d04df87-7b45-4118-95f7-120d8d2e9140); stroke-width:0px;"/><path d="M2349.6,306.57s21.35,51.85,26.79,92.62c1.6,11.97,10.85,21.39,22.76,23.36,25.51,4.24,67.81,6.6,93.54-16.88,5.71-5.21,7.65-13.4,5.05-20.67-10.6-29.67-65.7-153.21-95.72-172.15l-52.41,93.72Z" style="fill:url(#uuid-9b55dc92-d695-4ac1-bb4e-21c80c6719ba); stroke-width:0px;"/><path d="M2420.66,713.91c17.08-18.61-45.95,54.12-46.06,54.31-28.97,51.83-93.7,70.47-93.7,70.47,0,0-24.96-41.49-56.98-42.84-23.32-.99-53.23,26.42-67.76,41.38-4.52,4.66-3.3,12.33,2.42,15.4l59.95,32.2s181.23,10.18,274.1-86.38c-16.42-60.14-48.32-82.38-71.97-84.54Z" style="fill:url(#uuid-aa3803fa-b37b-42ed-bd4c-052245e1de2d); stroke-width:0px;"/><path d="M2600.88,406.04c-88.05,31.22-91.8,188.9-91.8,188.9,0,0-68.07,83.13-134.85,161.58-2.34,2.75-.68,6.97,2.9,7.44,24.25,3.18,63.02,13.52,79.56,60.05,1.2,3.38,5.26,4.31,8.03,2.04.36-.29.74-.56,1.14-.8,257.44-151.82,135.02-419.2,135.02-419.2Z" style="fill:url(#uuid-0d771e54-be04-49ad-8cbe-2a67bc28e049); stroke-width:0px;"/><path d="M2253.34,175.85c0,2.58,57.66,163.22,57.66,163.22l91.02-34.87-32.03-160.37s-116.65-11.19-116.65,32.02Z" style="fill:url(#uuid-bf659140-bcd8-4117-a2e9-990751f4c561); stroke-width:0px;"/><path d="M2354.02,182.9l23.47,83.1c.3,1.07.45,2.14.46,3.25,0,6.78-1.67,30.1-25.43,26.93-21.56-2.88-41.27-5.18-53.81.72-5.63,2.65-8.32,9.13-6.22,14.98,5.24,14.59,17.66,47.26,32.78,73.99,3.07,5.43,9.8,7.54,15.47,4.95,17.09-7.78,52.69-25.19,78.05-45.91,3.43-2.81,5.09-7.22,4.27-11.58-3.99-21.26-15.87-85.91-16.4-104.44-.49-17.39,19.02-30.67,27.61-35.66,2.82-1.64,4.82-4.33,5.58-7.5,2.7-11.19,4.99-36.53-27.33-42.11-6.76-1.17-11.17-7.64-9.8-14.37,2.73-13.39,1.86-33.09-23.56-40.35-25.84-7.38-42.1,8.18-50.37,20.11-3.34,4.82-9.6,6.39-14.96,3.99-3.05-1.36-6.73-1.42-10.69,1.92-5.34,4.5-13.46,3.13-17.38-2.64-7.53-11.09-21.22-22.16-44.4-14.66-41.12,13.31-39.16,60.72-24.08,86.49,15.07,25.78,58.84,8.82,79.56-8.26,15.75-12.99,39.74-5.22,50.33-.75,3.36,1.42,5.86,4.29,6.85,7.8Z" style="fill:url(#uuid-1437521e-b742-448b-9cad-5df3d7821269); stroke-width:0px;"/><path d="M2410.32,259.83s-19.74-46.63-3.65-61.08c16.09-14.46,38.55-9.49,37.81,26.51-.91,44.78-34.16,34.58-34.16,34.58Z" style="fill:url(#uuid-4ad742f8-ac6c-4500-8b88-a27773a333f9); stroke-width:0px;"/><path d="M2255.66,2014.91s-29.52-116.19,105.37-89.17c0,0,64.72-12.54,69.83,48.74,0,0,42.73,26.39,13.6,80.41,0,0,123.17-51.79,180.66,55.81,57.49,107.6,9.37,169.15-42.48,186.34,0,0,43,20.03,24.36,68.67s-119.23,85.49-180.96,28.83c0,0-170.08,27.59-170.22-93.12,0,0-80.93-48.95-.45-151.08,80.48-102.13.27-135.44.27-135.44Z" style="fill:url(#uuid-1d3a98dc-10b7-40b1-89eb-c3dbd9436e1b); stroke-width:0px;"/><path d="M2256.28,2286.23c26.68-8.86,104.63-26.07,181.22,40.54,12.99,11.3,18.68,28.88,14.66,45.62-17.86,74.32-65.79,270.27-16.68,363.15,0,0-91.27,57.41-175.74,27.44,0,0-38.05-154.53-92.64-229.45-37.69-51.73,51.79-199.93,74.48-235.76,3.44-5.43,8.61-9.52,14.71-11.54Z" style="fill:url(#uuid-8ed0137f-dc22-464b-9647-088029f74163); stroke-width:0px;"/><path d="M2326.3,2137.56s43.13,111.45,47.59,161.04c0,0-43.42,21.31-85.87-11.25,0,0-7.66-112.36-14.54-132.32l52.83-17.48Z" style="fill:url(#uuid-03aa3303-edb8-4cb9-b3ec-29b041be98cc); stroke-width:0px;"/><path d="M2266.48,1985.63s-99.85,148.8-36.35,189.3c63.5,40.5,134.58-65.25,134.58-65.25,0,0,21.82-80.48-4.25-106.8-26.06-26.32-93.98-17.25-93.98-17.25Z" style="fill:url(#uuid-6bb0fb9a-fc94-4b3b-9817-bfcff3f33e2a); stroke-width:0px;"/><path d="M2313.65,1949.39s-47.51,12.74-53.58,34.59c-6.07,21.84,69.07,39.72,89.99,40.09l19.4,86.85s47.33-83.64,26.23-130.51c-21.11-46.88-82.04-31.02-82.04-31.02Z" style="fill:url(#uuid-64d5eb92-e83d-4575-a412-10e560e19297); stroke-width:0px;"/><path d="M2344.2,2099.55s39.15-48.14,56.18-18.01-34.91,54.65-53.56,40.16l-2.61-22.16Z" style="fill:url(#uuid-f16d9b7b-1ccf-4013-bfe1-676b9abad7be); stroke-width:0px;"/><path d="M1840.48,2137.74s17.67,23.35,27.6,22.93c25.74-1.08,72.81,1.31,91.91,19.85,26.47,25.69,40.82,104.98,66.9,169.7,26.08,64.72,136.3,138.37,205.11,110.53,68.81-27.84,106.35-151.39,171.75-155.3,65.4-3.91,62.47,112.33,7.39,151.77-35.73,25.58-210.04,163.56-343.12,67.44-133.08-96.11-133.88-289.14-133.88-289.14,0,0-43.38-17.6-65.56-31.75-22.18-14.15-28.11-66.03-28.11-66.03Z" style="fill:url(#uuid-d4fb0e9b-9c80-42f2-afdd-3df02cd847fc); stroke-width:0px;"/><path d="M217.14,525.78s-2.3,49.52,36.92,228.04c41.45,188.65,371.7,96.39,371.7,96.39l-7.22-46.19s-226.94,2.56-257.26-42.88c-22.24-33.33-23.21-117.89-20.51-159.87,1.34-20.86-50.93-171.09-103.42-159.98-14.69,16.71-20.97,45.53-20.21,84.49Z" style="fill:url(#uuid-a538accc-48a9-4997-a671-b388867133bb); stroke-width:0px;"/><path d="M616.73,866.48s-11.48-47.19-6.85-63.93c4.63-16.74,13.6-38.27,43.49-33.48,29.9,4.78,65.16,17.38,65.16,17.38,0,0-1.78,21.81-24.5,14.77l14.09,10.9s-2.01,17.46-21.21,8.13l13.1,14.46s-8.24,14.34-22.36,5.14c-14.12-9.2-20.89,32.31-60.93,26.63Z" style="fill:url(#uuid-cbd9b17b-0cae-4269-92e1-c8baf09ace85); stroke-width:0px;"/><path d="M975.62,2286.61s-363.98,53.48-511.82-112.54c-151.97-115.62-254.3,30.22-103.72,124.06,0,0,279.43,257.06,609.16,25.43l6.38-36.95Z" style="fill:url(#uuid-c9ff90d5-9b0e-40ea-a981-5d34d8001600); stroke-width:0px;"/><path d="M969.24,2323.56s46.02-7.21,37.98-50.63c-8.46-45.73,48.31-55.98,23.94-92.38-1.79-2.67-5.16-3.82-8.14-2.61-18.35,7.43-81.89,39.31-71.02,120.76l17.24,24.86Z" style="fill:url(#uuid-413b8b0d-5d8b-46e9-9fd5-496f5d537d1a); stroke-width:0px;"/><path d="M504.54,1769.02s84.06,136.14,31.32,183.14c-52.74,47-145.49-79.7-145.49-79.7,0,0-25.09-153.99,114.17-103.44Z" style="fill:url(#uuid-1d2893da-7b9d-4032-ac8f-0388c4fbb5a2); stroke-width:0px;"/><path d="M422.13,1901.57c-.98,3.63-24.36,37.64-57.56,13.57-33.2-24.07-25.31-53.19,2.98-68.33,0,0-22.9-3.22-16.9-24.02,6-20.8,25.2-15.08,25.2-15.08,0,0-41.04-113.18,62.06-126.54,103.1-13.36,106.79,47.24,105.83,66.24-.96,19-37.6,59.47-99.56,53.59,0,0,18.61,10.07,10.68,32.41-7.93,22.34-44.56,44.35-44.56,44.35l11.84,23.81Z" style="fill:url(#uuid-3a286288-1e56-4d0d-abdd-84dd7af230ab); stroke-width:0px;"/><path d="M443.53,1895.55s-26.21-41.97-43.86-18.01c-22.75,30.88,37.03,36.86,37.03,36.86l6.83-18.85Z" style="fill:url(#uuid-9a5e1b39-0360-4d65-9d79-b49562bec74f); stroke-width:0px;"/></svg>