<?xml version="1.0" encoding="UTF-8"?><svg id="uuid-8c05e4fd-01ef-431c-bb0b-20465b9b7619" xmlns="http://www.w3.org/2000/svg" xmlns:xlink="http://www.w3.org/1999/xlink" viewBox="0 0 2799.59 2723.48"><defs><linearGradient id="uuid-7f3ff78a-c205-46f3-bfdf-d6d85ca621f0" x1="383.25" y1="2461.11" x2="816.97" y2="2461.11" gradientUnits="userSpaceOnUse"><stop offset="0" stop-color="#dae3fe"/><stop offset="1" stop-color="#e9effd"/></linearGradient><linearGradient id="uuid-a73f8a4a-30e0-4447-8dcf-67012d956525" x1="772.48" y1="2406.03" x2="931.91" y2="2406.03" xlink:href="#uuid-7f3ff78a-c205-46f3-bfdf-d6d85ca621f0"/><linearGradient id="uuid-648d1f71-a057-4fe8-a110-be6d4af18bd5" x1="2681.47" y1="-861.86" x2="1247.89" y2="959" gradientTransform="translate(88.35 35.65) rotate(1.14)" gradientUnits="userSpaceOnUse"><stop offset="0" stop-color="#fe7062"/><stop offset="1" stop-color="#ff928e"/></linearGradient><linearGradient id="uuid-7e96a62a-caf2-4ebb-a3f9-c930bbf8f2da" x1="3061.62" y1="-562.55" x2="1628.06" y2="1258.28" xlink:href="#uuid-648d1f71-a057-4fe8-a110-be6d4af18bd5"/><linearGradient id="uuid-24d39e08-c2cf-4344-ab0a-319b2fefbb86" x1="-2546.06" y1="1800.21" x2="-2378.22" y2="1800.21" gradientTransform="translate(157.77) rotate(-180) scale(1 -1)" gradientUnits="userSpaceOnUse"><stop offset="0" stop-color="#febbba"/><stop offset="1" stop-color="#ff928e"/></linearGradient><linearGradient id="uuid-e4d5f41a-913b-4643-9045-2800a37bd588" x1="-2317.76" y1="2326.34" x2="-2313.55" y2="2789.38" gradientTransform="translate(157.77) rotate(-180) scale(1 -1)" gradientUnits="userSpaceOnUse"><stop offset="0" stop-color="#4f52ff"/><stop offset="1" stop-color="#4042e2"/></linearGradient><linearGradient id="uuid-b044e45f-3601-4f05-abd5-2f442f64f142" x1="-2062.22" y1="2515.26" x2="-2520.09" y2="2874.78" gradientTransform="translate(157.77) rotate(-180) scale(1 -1)" gradientUnits="userSpaceOnUse"><stop offset="0" stop-color="#09005d"/><stop offset="1" stop-color="#1a0f91"/></linearGradient><linearGradient id="uuid-65f45627-f31a-4719-a310-0f3d9e21d0bf" x1="-2342.3" y1="2520.45" x2="-2366.34" y2="2730.26" xlink:href="#uuid-24d39e08-c2cf-4344-ab0a-319b2fefbb86"/><linearGradient id="uuid-e669bf2b-ce12-4da9-80fc-c24f98105890" x1="-1980.88" y1="2618.84" x2="-2438.75" y2="2978.36" xlink:href="#uuid-b044e45f-3601-4f05-abd5-2f442f64f142"/><linearGradient id="uuid-b70bcff0-78a3-43cf-abc1-13c37498a407" x1="-2098.52" y1="2324.34" x2="-2094.31" y2="2787.38" xlink:href="#uuid-e4d5f41a-913b-4643-9045-2800a37bd588"/><linearGradient id="uuid-50b023fb-624f-4467-b79a-9b1232841d83" x1="-2146.47" y1="2542.89" x2="-2170.51" y2="2752.7" xlink:href="#uuid-24d39e08-c2cf-4344-ab0a-319b2fefbb86"/><linearGradient id="uuid-8183bfcf-444b-4136-98c6-229e31664c38" x1="2218.97" y1="2459.45" x2="2979.23" y2="1614.72" gradientTransform="matrix(1,0,0,1,0,0)" xlink:href="#uuid-b044e45f-3601-4f05-abd5-2f442f64f142"/><linearGradient id="uuid-53392e75-cf29-47db-8e93-0e7c28e7a9b7" x1="-7600.94" y1="-2093.89" x2="-8572.38" y2="-2882.31" gradientTransform="translate(-609.99) rotate(-180) scale(1 -1)" xlink:href="#uuid-e4d5f41a-913b-4643-9045-2800a37bd588"/><linearGradient id="uuid-7d1bd80d-c150-4367-81ac-208b39e5a59e" x1="-2289.19" y1="1179.19" x2="-2380.98" y2="1575.86" xlink:href="#uuid-24d39e08-c2cf-4344-ab0a-319b2fefbb86"/><linearGradient id="uuid-470757ba-d969-43a2-83e9-20e084272cb0" x1="-2872.79" y1="-2658.55" x2="-3035.64" y2="-2443.11" gradientTransform="translate(-1442.53 832.89) rotate(-133.27) scale(1 -1)" xlink:href="#uuid-24d39e08-c2cf-4344-ab0a-319b2fefbb86"/><linearGradient id="uuid-2066ead9-2250-4d72-8f90-2c9efe5a3ea5" x1="-2997.16" y1="-2606.81" x2="-2802.63" y2="-2606.81" gradientTransform="translate(-1442.53 832.89) rotate(-133.27) scale(1 -1)" xlink:href="#uuid-b044e45f-3601-4f05-abd5-2f442f64f142"/><linearGradient id="uuid-33361031-7423-4fbc-ab17-b5fee6d175ed" x1="-3111.3" y1="-2487.94" x2="-2980.68" y2="-2621.95" gradientTransform="translate(-1442.53 832.89) rotate(-133.27) scale(1 -1)" xlink:href="#uuid-24d39e08-c2cf-4344-ab0a-319b2fefbb86"/><linearGradient id="uuid-1d6bce70-fde9-4bc4-b440-6d9c2a4ed0f5" x1="3574.53" y1="457.72" x2="2729.8" y2="1365.81" gradientTransform="matrix(1,0,0,1,0,0)" xlink:href="#uuid-e4d5f41a-913b-4643-9045-2800a37bd588"/><linearGradient id="uuid-f9bba410-f096-43d9-8b3b-36e274865ae9" x1="2499.36" y1="1989.24" x2="2235.38" y2="1172.66" gradientTransform="matrix(1,0,0,1,0,0)" xlink:href="#uuid-b044e45f-3601-4f05-abd5-2f442f64f142"/><linearGradient id="uuid-2ed96385-9194-4103-b6e6-90dfa9860b3d" x1="-7435.39" y1="-2297.88" x2="-8406.83" y2="-3086.3" gradientTransform="translate(-609.99) rotate(-180) scale(1 -1)" xlink:href="#uuid-e4d5f41a-913b-4643-9045-2800a37bd588"/><linearGradient id="uuid-c07037df-6dcc-4910-9e10-2a24b8ebe944" x1="-2336.04" y1="1169.5" x2="-2897.75" y2="1888.16" gradientTransform="translate(-609.99) rotate(-180) scale(1 -1)" xlink:href="#uuid-24d39e08-c2cf-4344-ab0a-319b2fefbb86"/><linearGradient id="uuid-2c6576ee-9115-44d5-abf0-592f8b2d75f4" x1="-2260.86" y1="1228.25" x2="-2822.58" y2="1946.92" gradientTransform="translate(-609.99) rotate(-180) scale(1 -1)" xlink:href="#uuid-24d39e08-c2cf-4344-ab0a-319b2fefbb86"/><linearGradient id="uuid-88aeac95-5122-47cf-825a-443901a883e9" x1="-367.42" y1="1275.73" x2="-573.83" y2="1529.47" gradientTransform="translate(1062.62) rotate(-180) scale(1 -1)" xlink:href="#uuid-24d39e08-c2cf-4344-ab0a-319b2fefbb86"/><linearGradient id="uuid-4e80a6a5-6b55-4da4-88f4-d74e6991e15a" x1="1601.11" y1="1120.47" x2="1415.97" y2="1638.53" gradientTransform="matrix(1,0,0,1,0,0)" xlink:href="#uuid-e4d5f41a-913b-4643-9045-2800a37bd588"/><linearGradient id="uuid-093f5d4a-0f98-42b7-80b6-1f0afe98651f" x1="1340.93" y1="1140.57" x2="1159.76" y2="1561.81" gradientTransform="matrix(1,0,0,1,0,0)" xlink:href="#uuid-b044e45f-3601-4f05-abd5-2f442f64f142"/><linearGradient id="uuid-635d436a-a15e-44ee-828e-3c0efc12e100" x1="1382.63" y1="1482.77" x2="1063.31" y2="1965.15" gradientTransform="matrix(1,0,0,1,0,0)" xlink:href="#uuid-e4d5f41a-913b-4643-9045-2800a37bd588"/><linearGradient id="uuid-802bb673-7f86-4b08-8310-bf66c21b42d7" x1="-15261.66" y1="5017.73" x2="-15244.15" y2="4893.41" gradientTransform="translate(-14697.49 898.81) rotate(163.78) scale(1 -1)" xlink:href="#uuid-24d39e08-c2cf-4344-ab0a-319b2fefbb86"/><linearGradient id="uuid-8d9ebd8a-60a2-41ed-98d9-1638c98ff6f9" x1="-15524.81" y1="5093.12" x2="-15361.09" y2="5281.36" gradientTransform="translate(-14970.11 1039.82) rotate(162.43) scale(1 -1)" xlink:href="#uuid-24d39e08-c2cf-4344-ab0a-319b2fefbb86"/><linearGradient id="uuid-0a250cf6-d822-4e21-b675-40f4bc561433" x1="1331.11" y1="1136.35" x2="1149.93" y2="1557.58" gradientTransform="matrix(1,0,0,1,0,0)" xlink:href="#uuid-b044e45f-3601-4f05-abd5-2f442f64f142"/><linearGradient id="uuid-691e3817-5a92-4e5b-9280-8b8728ea24f4" x1="-15483.91" y1="5057.55" x2="-15320.19" y2="5245.78" gradientTransform="translate(-14970.11 1039.82) rotate(162.43) scale(1 -1)" xlink:href="#uuid-24d39e08-c2cf-4344-ab0a-319b2fefbb86"/><linearGradient id="uuid-443268db-7e53-400c-9bbf-c33636a6af83" x1="14129.8" y1="2959.87" x2="14520.41" y2="2270.35" gradientTransform="translate(-13088.48 52.79) rotate(-.54)" xlink:href="#uuid-24d39e08-c2cf-4344-ab0a-319b2fefbb86"/><linearGradient id="uuid-86ab2037-1806-4d58-b19c-548817b82683" x1="16975.23" y1="-2011.29" x2="16886.78" y2="-1855.44" gradientTransform="translate(-13088.48 52.79) rotate(-.54)" xlink:href="#uuid-b044e45f-3601-4f05-abd5-2f442f64f142"/><linearGradient id="uuid-41e90c2d-c9c7-4c40-941f-2ecc2edefb2f" x1="14206.1" y1="2566.93" x2="13621.92" y2="2753.73" gradientTransform="translate(-13088.48 52.79) rotate(-.54)" xlink:href="#uuid-24d39e08-c2cf-4344-ab0a-319b2fefbb86"/><linearGradient id="uuid-bf01f8eb-ca01-40c2-97a1-329c1359461a" x1="14320.81" y1="2736.71" x2="14456.92" y2="2736.71" gradientTransform="translate(-13088.48 52.79) rotate(-.54)" xlink:href="#uuid-b044e45f-3601-4f05-abd5-2f442f64f142"/><linearGradient id="uuid-9643fa86-e052-48ab-b92b-dae6c812070c" x1="14318.27" y1="2290.99" x2="14469.36" y2="1852.85" gradientTransform="translate(-13088.48 52.79) rotate(-.54)" xlink:href="#uuid-b044e45f-3601-4f05-abd5-2f442f64f142"/><linearGradient id="uuid-e4719a03-b08e-4a4b-a83a-cfea8dff2064" x1="1269.97" y1="1408.19" x2="950.64" y2="1890.57" gradientTransform="matrix(1,0,0,1,0,0)" xlink:href="#uuid-e4d5f41a-913b-4643-9045-2800a37bd588"/><linearGradient id="uuid-5cc99a46-446f-426c-909c-5f0c4a93e73d" x1="4405.53" y1="1691.72" x2="4645.89" y2="1691.72" gradientTransform="translate(-3037.28)" xlink:href="#uuid-24d39e08-c2cf-4344-ab0a-319b2fefbb86"/><linearGradient id="uuid-0c0a6ded-a098-42dc-82a4-7ea03335fb89" x1="1668.85" y1="1195.6" x2="1105.69" y2="2152.96" gradientTransform="matrix(1,0,0,1,0,0)" xlink:href="#uuid-b044e45f-3601-4f05-abd5-2f442f64f142"/><linearGradient id="uuid-8a88e705-c04f-412e-965d-8eab5c86f0af" x1="4342.45" y1="1670.92" x2="4418.35" y2="1670.92" gradientTransform="translate(-3037.28)" xlink:href="#uuid-24d39e08-c2cf-4344-ab0a-319b2fefbb86"/></defs><path d="M830.47,2582.2s-185.14,204.11-339.76,117.85c-124.27-69.33,52.28-51.21,202.04-83.97,11.75-2.57,8.68-20.14-3.25-18.56-117.17,15.53-295.96,28.23-327.01-32.86-46.88-92.23-1.42-62.32,141.26-49,142.68,13.32,170.17-21.91,77.04-43.85-93.13-21.94-241.28,26.59-275.8-18.54s-53.38-134.71-67.13-173.24c-13.76-38.53,177.6-96.33,229.33-45.76,51.73,50.58,93.74,163.46,155.14,184.07,61.39,20.61-4.65-79.25-45.36-130.79-40.72-51.54-56.86-89.85,24.49-77.55,81.35,12.29,124.35,111.58,132.93,185.69,8.58,74.11,37.23,115.56,35.93,78.9-1.3-36.66-14.6-149.11-40.6-182.91-26-33.81,159.61,7.45,100.77,290.52Z" style="fill:#91b3fa; stroke-width:0px;"/><path d="M815.4,2584.15c-.81.31-1.77.17-2.47-.44-158.91-139.02-425.44-240.07-428.11-241.07-1.26-.47-1.89-1.87-1.42-3.14.47-1.25,1.88-1.89,3.13-1.42,2.68,1,270.02,102.35,429.6,241.97,1.01.88,1.11,2.42.23,3.43-.27.31-.61.54-.96.67Z" style="fill:url(#uuid-7f3ff78a-c205-46f3-bfdf-d6d85ca621f0); stroke-width:0px;"/><path d="M942.25,2712.56s-338.11,11.16-394.15-198.85c-45.04-168.78,89.81,2.34,246.63,106.38,12.31,8.16,25.16-9.55,13.58-18.72-113.8-90.03-277.73-236.8-250.39-316.37,41.26-120.12,53.73-54.49,163.87,82.68,110.14,137.16,164.69,131.3,104.47,30.45-60.22-100.85-229.57-190-219.27-258.98,10.3-68.98,73.16-162.14,95.37-207.18,22.21-45.04,236.65,74.27,236.26,163.09-.39,88.82-64.02,222.29-29.74,294.02,34.28,71.73,65.89-71.8,76.55-151.73,10.65-79.93,30.64-126.88,89.29-44.66,58.66,82.22,7.87,204.95-50.14,275.82-58.01,70.87-70.08,131.55-38.86,99.08,31.22-32.47,118.98-140.25,126.57-192.06,7.59-51.8,129.79,147.08-170.03,337.03Z" style="fill:#bdd0fb; stroke-width:0px;"/><path d="M927.66,2700.94c-.97-.45-1.66-1.41-1.72-2.56-13.2-258.86-151.81-580.16-153.21-583.37-.66-1.51.03-3.27,1.55-3.93,1.51-.65,3.27.04,3.93,1.55,1.41,3.22,140.44,325.49,153.69,585.45.09,1.64-1.18,3.05-2.83,3.13-.51.03-.99-.08-1.42-.28Z" style="fill:url(#uuid-a73f8a4a-30e0-4447-8dcf-67012d956525); stroke-width:0px;"/><path d="M2454.08,1683.77L89.33,1619.27c-49.73-1.36-89.33-42.06-89.33-91.8v-982.06c0-49.61,40.59-89.63,90.2-88.93l2337.97,33.28c65.51.93,118.12,54.3,118.12,119.81v984.47c0,50.54-41.7,91.11-92.22,89.73Z" style="fill:#91b3fa; stroke-width:0px;"/><path d="M2397.78,1621.17l-2251.84-58.29c-47.35-1.23-85.07-38.01-85.07-82.96v-887.44c0-44.83,38.66-81,85.89-80.36l2226.35,30.07c62.38.84,112.48,49.07,112.48,108.27v889.61c0,45.67-39.71,82.33-87.81,81.09Z" style="fill:#fff; opacity:.14; stroke-width:0px;"/><path d="M323.87,1614.39l151.53,268.94c10.25,18.19,37.18,15.77,44.01-3.97l91.75-264.97h-287.29Z" style="fill:#91b3fa; stroke-width:0px;"/><path d="M1251.36,532.15h-.07l-283.91-3.83c-2.81-.04-5.06-2.35-5.03-5.17s2.32-4.93,5.17-5.03l283.91,3.83c2.81.04,5.06,2.35,5.03,5.17-.04,2.79-2.31,5.03-5.1,5.03Z" style="fill:#fff; stroke-width:0px;"/><path d="M2259.49,955.89l-1968.38-43.56c-6.75-.15-12.14-5.79-12-12.54l1.91-86.53c.15-6.75,5.79-12.15,12.54-12l1968.38,43.56c6.75.15,12.15,5.79,12,12.54l-1.91,86.53c-.15,6.75-5.79,12.15-12.54,12Z" style="fill:#fff; stroke-width:0px;"/><path d="M2251.31,1325.27l-1968.38-43.56c-6.75-.15-12.14-5.79-12-12.54l1.91-86.53c.15-6.75,5.79-12.14,12.54-12l1968.38,43.56c6.75.15,12.15,5.79,12,12.54l-1.91,86.53c-.15,6.75-5.79,12.15-12.54,12Z" style="fill:#fff; stroke-width:0px;"/><path d="M1005.19,1116.68l-722.05-15.98c-4.67-.1-8.4-4.01-8.3-8.67l2.08-94.1c.1-4.67,4.01-8.4,8.67-8.3l722.05,15.98c4.67.1,8.4,4.01,8.3,8.67l-2.08,94.1c-.1,4.67-4.01,8.4-8.67,8.3Z" style="fill:#fff; stroke-width:0px;"/><path d="M2259.1,1144.43l-1169.63-25.88c-4.67-.1-8.4-4.01-8.3-8.67l2.08-94.1c.1-4.67,4.01-8.4,8.67-8.3l1169.63,25.88c4.67.1,8.4,4.01,8.3,8.67l-2.08,94.1c-.1,4.67-4.01,8.4-8.67,8.3Z" style="fill:#fff; stroke-width:0px;"/><path d="M782.01,972.25l1927.41-14.25c40.53-.3,73.45-32.82,74.26-73.34l15.9-800c.8-40.42-31.62-73.67-72.04-73.9L822.44,0c-53.38-.3-97.1,42.32-98.16,95.69l-15.94,801.96c-.82,41.17,32.49,74.9,73.67,74.59Z" style="fill:url(#uuid-648d1f71-a057-4fe8-a110-be6d4af18bd5); stroke-width:0px;"/><path d="M2093.88,949.27l-127.79,216.63c-8.64,14.65-30.54,12.24-35.79-3.94l-70.45-217.34,234.03,4.65Z" style="fill:url(#uuid-7e96a62a-caf2-4ebb-a3f9-c930bbf8f2da); stroke-width:0px;"/><g style="opacity:.63;"><path d="M1324.21,924.29c-2.8,0-5.08-2.26-5.1-5.07-.02-2.81,2.25-5.11,5.07-5.13l155.35-.93h.03c2.8,0,5.08,2.26,5.1,5.07.02,2.81-2.25,5.11-5.07,5.13l-155.35.93h-.03Z" style="fill:#fff; stroke-width:0px;"/></g><g style="opacity:.63;"><path d="M828.44,927.27c-20.59,0-40.47-8.19-54.59-22.51-13.46-13.64-20.66-31.46-20.29-50.17.06-2.81,2.38-5.03,5.2-4.99,2.81.06,5.05,2.38,4.99,5.2-.32,15.93,5.85,31.14,17.36,42.81,12.22,12.39,29.45,19.47,47.33,19.47h.41l440.58-2.65h.03c2.8,0,5.08,2.26,5.1,5.07.02,2.81-2.25,5.11-5.07,5.13l-440.58,2.65h-.46Z" style="fill:#fff; stroke-width:0px;"/></g><g style="opacity:.63;"><path d="M760.17,783.69h-.11c-2.81-.06-5.05-2.38-4.99-5.2l4.24-213.02c.06-2.78,2.33-4.99,5.09-4.99h.11c2.81.06,5.05,2.38,4.99,5.2l-4.24,213.02c-.06,2.78-2.33,4.99-5.09,4.99Z" style="fill:#fff; stroke-width:0px;"/></g><g style="opacity:.63;"><path d="M2011.83,56.01h-.03l-231.34-1.47c-2.81-.02-5.08-2.31-5.06-5.13.02-2.8,2.3-5.06,5.1-5.06h.03l231.34,1.47c2.81.02,5.08,2.31,5.06,5.13-.02,2.8-2.3,5.06-5.1,5.06Z" style="fill:#fff; stroke-width:0px;"/></g><g style="opacity:.63;"><path d="M2744.92,344.18h-.11c-2.81-.06-5.05-2.38-4.99-5.2l4.32-217.05c.31-15.64-5.7-30.59-16.92-42.11-12-12.31-29.01-19.44-46.69-19.55l-502.03-3.2c-2.81-.02-5.08-2.31-5.06-5.13.02-2.8,2.3-5.06,5.1-5.06h.03l502.03,3.2c20.39.13,40.04,8.38,53.93,22.63,13.14,13.48,20.17,31.03,19.81,49.42l-4.32,217.06c-.06,2.78-2.33,4.99-5.09,4.99Z" style="fill:#fff; stroke-width:0px;"/></g><rect x="944.63" y="219.84" width="1599.74" height="114.98" rx="12.7" ry="12.7" style="fill:#fff; stroke-width:0px;"/><rect x="944.63" y="602.22" width="1599.74" height="114.98" rx="12.7" ry="12.7" style="fill:#fff; stroke-width:0px;"/><rect x="944.63" y="414.93" width="765.03" height="114.98" rx="8.78" ry="8.78" style="fill:#fff; stroke-width:0px;"/><rect x="1779.34" y="414.93" width="765.03" height="114.98" rx="8.78" ry="8.78" style="fill:#fff; stroke-width:0px;"/><path d="M2643.42,1713.71c17.22,18.38,42.57,34.26,60.41,44.16-26.64,32.93-62.69,65.91-110.42,98.19l-13.66,30.65-43.76-52.45s78.53-39.08,107.43-120.56Z" style="fill:url(#uuid-24d39e08-c2cf-4344-ab0a-319b2fefbb86); stroke-width:0px;"/><path d="M2409.22,2708.54c-.01-.94.05-1.89.29-2.84,14.18-56.2,84.53-91.2,84.53-91.2l27.88,2.19c16.03,49.53,13.97,79.91,11.4,93.44-.07.38-.19.74-.29,1.11-23,2.05-70.33,3.4-123.81-2.69Z" style="fill:url(#uuid-e4d5f41a-913b-4643-9045-2800a37bd588); stroke-width:0px;"/><path d="M2533.02,2711.23c-1.24,4.52-4.58,8.04-8.85,8.93-32.71,6.88-84.71,1.34-106.54-1.51-4.82-.63-8.34-5.08-8.42-10.11,53.47,6.09,100.81,4.74,123.81,2.69Z" style="fill:url(#uuid-b044e45f-3601-4f05-abd5-2f442f64f142); stroke-width:0px;"/><path d="M2533.12,2575.16l-11.81,56.84c-.87,4.16-4.07,7.28-7.94,7.65-4.74.45-11.5.71-18.29-.29-6.09-.9-10.33-7.09-9.25-13.73l8.21-50.47h39.09Z" style="fill:url(#uuid-65f45627-f31a-4719-a310-0f3d9e21d0bf); stroke-width:0px;"/><path d="M2288.48,2710.66c30.79-.86,46.72-4.49,54.95-7.85.02,3.06,0,6.18-.1,9.41-.11,3.45-2.66,6.2-5.8,6.18l-169.06-1.09c-5.39-.04-8.55-6.29-6.21-11.24,22.17,1.83,78.62,5.93,126.22,4.6Z" style="fill:url(#uuid-e669bf2b-ce12-4da9-80fc-c24f98105890); stroke-width:0px;"/><path d="M2162.26,2706.07c.2-.43.38-.87.67-1.28,14.93-20.86,52.96-62.4,128.1-80.42l36.05-1.14s16.05,27.9,16.35,79.58c-8.23,3.37-24.16,6.99-54.95,7.85-47.6,1.33-104.05-2.77-126.22-4.6Z" style="fill:url(#uuid-b70bcff0-78a3-43cf-abc1-13c37498a407); stroke-width:0px;"/><path d="M2333.76,2568.6c-.4,2.69-5.34,43.52-7.25,59.36-.45,3.76-3.18,6.67-6.62,7.08-6.14.73-16.07,1.4-24.76-.38-4.69-.96-8.08-5.46-8.08-10.7v-64.1l46.71,8.74Z" style="fill:url(#uuid-50b023fb-624f-4467-b79a-9b1232841d83); stroke-width:0px;"/><path d="M2362.67,1823.34s-86.94,330.42-85.37,746.21c.03,7.58,5.35,14.12,12.77,15.69,10.93,2.3,27,5.04,40.3,4.66,7.1-.2,13.04-5.47,14.23-12.47,12.19-71.49,82.15-474.24,122.01-539.62,0,0,26.23,358.7,17.84,544.8-.21,4.63,3.18,8.64,7.78,9.17,6.98.81,18.15,1.42,32.36-.09,5.39-.57,9.75-4.65,10.52-10.02,8.68-60.51,58.66-420.65,56.54-680.09-.12-14.63-38.69-78.24-38.69-78.24h-190.29Z" style="fill:url(#uuid-8183bfcf-444b-4136-98c6-229e31664c38); stroke-width:0px;"/><path d="M2241.76,1423.45c14.11-17.69,26.47-36.65,36.81-56.18,14.44-27.28,1.16,17.66,5.11-13.15,108.15-78.04,271-38.54,333.99-30.61,20.65,2.6,39.54,12.78,53.16,28.54,53.98,62.47,172.43,233.49,33.01,405.82-17.84-9.9-43.19-25.79-60.41-44.16,15.42-43.48,16.69-99.04-15.64-167.18-1.1,5.4-2.47,10.75-4.13,16.01-44.55,141.15-46.93,258.6-46.83,285.67.01,3.68-2.19,6.98-5.61,8.35-58.64,23.5-171.51,9.51-209.4,3.87-6.95-1.04-11.62-7.5-10.66-14.46,18.6-134.72-76.84-356.35-102.05-411.86-1.81-3.99-4.32-7.59-7.35-10.66Z" style="fill:url(#uuid-53392e75-cf29-47db-8e93-0e7c28e7a9b7); stroke-width:0px;"/><path d="M2516.32,1210.08l11.3,115.46s-64.95,19.56-112.19-13.77l33.21-104.94,67.68,3.24Z" style="fill:url(#uuid-7d1bd80d-c150-4367-81ac-208b39e5a59e); stroke-width:0px;"/><path d="M2440.95,1078.48c-1.56,1.47-65.98,127.96-65.98,127.96l73.01,35.24,78.86-110.82s-59.72-77.02-85.89-52.39Z" style="fill:url(#uuid-470757ba-d969-43a2-83e9-20e084272cb0); stroke-width:0px;"/><path d="M2494.54,1133.94c1.3,3.37.98,7.13-.88,10.23l-36.41,60.7c-.55.92-1.21,1.75-2,2.48-4.33,4.03-19.16,15.77-30.63-.21-9.77-13.62-18.94-26-28.76-31.1-5.74-2.98-12.8-.6-15.71,5.17-6,11.89-17.62,36.13-24.92,59.11-1.83,5.76,1.14,11.95,6.75,14.21,14.78,5.99,44,16.82,69.93,20.4,4.26.59,8.48-1.21,11.01-4.68,11.15-15.28,42.59-57.98,53.32-68.67,9.97-9.93,28.37-6.19,36.66-3.8,3.15.91,6.5.47,9.3-1.22,8.41-5.07,23.09-17.68,9.66-39.04-3.34-5.31-1.64-12.39,3.61-15.83,9.39-6.18,19.58-17.77,9.87-36.55-9.83-19.01-27.38-20.72-39.33-19.25-5.29.65-10.66-2.13-12.69-7.05-.9-2.19-2.69-4.06-6.01-4.73-6.27-1.27-10.38-7-9.15-13.27,2.11-10.76.52-24.73-16.65-34.17-31.5-17.32-59.09,10.9-66.11,34.72-7.02,23.82,28.2,40.66,50.36,43.47,16.27,2.06,25.2,19.83,28.79,29.11Z" style="fill:url(#uuid-2066ead9-2250-4d72-8f90-2c9efe5a3ea5); stroke-width:0px;"/><path d="M2482.57,1223.87s14.01-40.98,31.94-39.48c17.93,1.5,32.04,19.37,9.82,39.44-27.64,24.98-41.76.03-41.76.03Z" style="fill:url(#uuid-33361031-7423-4fbc-ab17-b5fee6d175ed); stroke-width:0px;"/><path d="M2633.7,1535.97c23.63-64.68,15.06-142.78,14.97-143.56l-6.51.74c.09.77,8.48,77.37-14.62,140.56l6.16,2.25Z" style="fill:url(#uuid-1d6bce70-fde9-4bc4-b440-6d9c2a4ed0f5); stroke-width:0px;"/><path d="M2469.82,2029.38c1.46,0,2.79-.98,3.17-2.46,7.21-27.81,61.2-58.37,61.74-58.67,1.58-.88,2.14-2.88,1.25-4.46-.89-1.58-2.87-2.14-4.46-1.26-2.32,1.3-56.97,32.24-64.88,62.75-.45,1.75.6,3.54,2.35,3.99.28.07.55.11.83.11Z" style="fill:url(#uuid-f9bba410-f096-43d9-8b3b-36e274865ae9); stroke-width:0px;"/><path d="M2022.23,1459.77c122.32,18.35,202.04-58.83,261.45-105.64,78.43-61.81,139.47-31.74,139.47-31.74l-83.64,159.64c-124.91,117.77-252.98,91.62-333.72,53.45-1.24-30.83,7-56.64,16.45-75.71Z" style="fill:url(#uuid-2ed96385-9194-4103-b6e6-90dfa9860b3d); stroke-width:0px;"/><path d="M1850.32,1386.79l40.56,21.83c48.65,29.62,92.18,45.27,131.35,51.15-9.46,19.07-17.7,44.87-16.45,75.71-51.4-24.29-83.62-53.45-83.62-53.45-91.89-54.79-71.84-95.23-71.84-95.23Z" style="fill:url(#uuid-c07037df-6dcc-4910-9e10-2a24b8ebe944); stroke-width:0px;"/><path d="M1730.82,1443.95c2.62-8.71,9.05-15.75,17.49-19.14l82.32-33.1s1.24-10.56-17.39-17.73c-18.64-7.17-14.28-28.05-14.28-28.05,0,0,25.46,11.61,62.73,30.03,21.32,10.53,33.28,29.13,39.62,43.14l-21.19,27.87c-50.74,15.24-102.08,18.16-153.85,12.11l4.55-15.13Z" style="fill:url(#uuid-2c6576ee-9115-44d5-abf0-592f8b2d75f4); stroke-width:0px;"/><path d="M1374.49,1412.33l51.1,162.04s59.3,43.69,134.91,1.99c11.62-6.36,23.63-14.73,35.81-25.63,91.77-81.9,30.88-201.04,30.88-201.04,0,0,70.04-28.25,38.92-87.71-2.15-4.06-8.12-3.42-9.39,1.04-4.53,16.4-15.6,45.05-38.76,55.24-1.19.48-2.31,1.04-3.34,1.51-1.03-3.1-1.03-6.76,1.43-10.67,7.24-10.98-5.81-26.02-5.81-26.02,0,0-.87,13.29-10.91,21.57-8.67,7.24-12.81,23.16-6.92,36.29,12.58,48.71,31.36,113.1-41.79,160.21-7.48,4.77-15.28,7.72-23.24,8.99-69.88,11.7-152.89-97.81-152.89-97.81Z" style="fill:url(#uuid-88aeac95-5122-47cf-825a-443901a883e9); stroke-width:0px;"/><path d="M1374.49,1412.33l51.1,162.04s59.3,43.69,134.91,1.99l-33.11-66.22c-69.88,11.7-152.89-97.81-152.89-97.81Z" style="fill:url(#uuid-4e80a6a5-6b55-4da4-88f4-d74e6991e15a); stroke-width:0px;"/><path d="M1359.17,1213.6s28.93-100.77-79.32-73.05c0,0-53.04-7.39-54.55,42.54,0,0-22.92,34.55-23.89,77.12,0,0-104.22,26.94-120.67,68.7-16.83,42.74-7.49,110.64,35.3,122.35,0,0-34.02,18.1-16.81,56.74,17.21,38.65,100.39,64.22,148.02,15.61,0,0,139.15,15.07,134.07-82.85,0,0,63.54-43.18-6.13-122.56-69.67-79.38-16.03-104.6-16.03-104.6Z" style="fill:url(#uuid-093f5d4a-0f98-42b7-80b6-1f0afe98651f); stroke-width:0px;"/><path d="M1367.65,1394.5c-21.88-6.56-85.58-18.67-146.17,37.25-10.28,9.48-14.48,23.89-10.81,37.39,16.27,59.91,59.21,236.92,21.56,313.51,0,0,66.35,73.14,138.73,14.19,0,0,32.47-141.54,75.01-203.67,29.37-42.9-46.83-161.09-66.11-189.64-2.92-4.32-7.22-7.52-12.22-9.02Z" style="fill:url(#uuid-635d436a-a15e-44ee-828e-3c0efc12e100); stroke-width:0px;"/><path d="M1307.24,1275.47s-32.35,91.52-34.79,131.89c0,0,35.76,16.26,69.45-11.18,0,0,3.54-91.41,8.64-107.78l-43.31-12.93Z" style="fill:url(#uuid-802bb673-7f86-4b08-8310-bf66c21b42d7); stroke-width:0px;"/><path d="M1359.12,1185.07s87.39,116.41,37.62,151.99c-49.76,35.58-111.97-47.14-111.97-47.14,0,0-21.15-64.34-1.14-86.81,20.01-22.47,75.49-18.04,75.49-18.04Z" style="fill:url(#uuid-8d9ebd8a-60a2-41ed-98d9-1638c98ff6f9); stroke-width:0px;"/><path d="M1319.3,1157.7s39.08,8.3,44.94,25.75c5.86,17.46-54.32,35.19-71.27,36.39l-12,71.29s-41.99-65.81-26.89-104.74c15.1-38.93,65.22-28.69,65.22-28.69Z" style="fill:url(#uuid-0a250cf6-d822-4e21-b675-40f4bc561433); stroke-width:0px;"/><path d="M1300.97,1280.81s-33.83-37.36-46.34-12.19c-12.51,25.17,30.66,42.83,45.17,30.28l1.17-18.08Z" style="fill:url(#uuid-691e3817-5a92-4e5b-9280-8b8728ea24f4); stroke-width:0px;"/><path d="M1455.45,2094.01c-.25,6.43,11.03,57.39,17.17,84.58,2.47,10.94.75,22.39-4.82,32.12l-212.63,357.87c-2.57,4.33-4.45,9.02-5.58,13.92-3.9,16.8-11.98,57.95-7.76,95.39l11,22.85-47.57-10.8-10.35-127.75,13.47-8.21c11.63-7.09,20.69-17.7,25.88-30.3,19.23-46.7,66.97-165.59,79.28-223.52,13.99-65.85,87.11-119.33,87.11-119.33l-12.85-30.37,67.65-56.44Z" style="fill:url(#uuid-443268db-7e53-400c-9bbf-c33636a6af83); stroke-width:0px;"/><path d="M1152.39,2645.97s25.69-40.73,28.71-56.58c3.02-15.85,11.44-43.85,27.28-35.42,0,0,7.46,77.02,4.89,107.11-2.57,30.09,34.02,29.13,34.02,29.13,0,0,10.09,1.42,17.47,8.8,5.1,5.1,1.45,13.94-5.74,14.41-11.97.77-30.99.97-50.97-2.88-6.98-1.35-12.15-7.29-12.58-14.38l-5.27-88.64-32.41,40.92-5.4-2.45Z" style="fill:url(#uuid-86ab2037-1806-4d58-b19c-548817b82683); stroke-width:0px;"/><path d="M1328.43,2151.02s-7.5,320.11-8.52,365.57c-1.01,45.46,7.18,146.22,52.76,176.33l-19.83,14.68s-24.79-21.06-49-61.61c-27.2-45.54-35.42-53.86-35.42-53.86l9.03-18.48c3.95-8.09,5.11-17.25,3.29-26.07-9.83-47.67-42.69-206.22-51.65-240.37-10.58-40.31-11.33-94.13,25.48-139.18,36.81-45.05,73.88-17.02,73.88-17.02Z" style="fill:url(#uuid-41e90c2d-c9c7-4c40-941f-2ecc2edefb2f); stroke-width:0px;"/><path d="M1286.34,2722.03c-1.41.01-2.62-1-2.82-2.4-1.52-10.67-7.83-53.46-13-64.54-5.92-12.69-25.25-66.09.01-70.62,0,0,62.8,91.75,74.86,104.12,12.06,12.37,27.27,4.32,27.27,4.32,0,0,11.75,3.47,20.6,14.79,4.22,5.39.29,13.3-6.55,13.36l-42.3.4c-12.28.12-23.33-7.35-27.9-18.75-7.45-18.6-20.24-45.88-35.14-57.98l7.75,74.17c.17,1.65-1.12,3.1-2.78,3.11Z" style="fill:url(#uuid-bf01f8eb-ca01-40c2-97a1-329c1359461a); stroke-width:0px;"/><path d="M1380.97,1762.32s-9.53,30.38,5.11,80.43l90.85,317.24c1.43,4.99-1.26,10.2-6.14,11.95-27.17,9.75-116.5,37.32-238.44,28.91-6.14-.42-11.29-4.77-12.62-10.78-8.03-36.17-35.45-159.56-41.09-184.91-21.51-96.61-45.52-200.8,60.12-263.79,48.69,20.85,94.1,33.15,142.22,20.96Z" style="fill:url(#uuid-9643fa86-e052-48ab-b92b-dae6c812070c); stroke-width:0px;"/><path d="M1087.29,1639.67s-.69.05-.69-.04c11.44-8.99,72.22-9.32,72.22-9.32,0,0,44.14-63.91,59.1-79.77.49-.49.98-.98,1.39-1.39.33-.33.65-.66,1.14-1.06,5.48-5.07,11.28-10.14,17.58-15.36,6.94-5.8,12.5-13.24,15.85-21.66,23.37-58.85,4.9-97.34-37.6-72.66,0,0-89.82,74.62-124.72,180.38-.41,1.31-.73,2.53-1.15,3.76-1.39,4.9-2.78,9.56-4,13.89-.09.33.27.79.19,1.12-.25.74.94,1.37.69,2.11Z" style="fill:url(#uuid-e4719a03-b08e-4a4b-a83a-cfea8dff2064); stroke-width:0px;"/><path d="M1309.44,1678.08s-104.39,59-139.62,8.62c-7.31-10.46-12.81-46.47-11.01-56.39-31.29-15.8-54.84,7.42-72.41,6.13-4.61,24.15-6.85,47.65,7.34,73.61,61.7,112.87,229.5-6.24,229.5-6.24l-13.82-25.74Z" style="fill:url(#uuid-5cc99a46-446f-426c-909c-5f0c4a93e73d); stroke-width:0px;"/><path d="M1296.89,1752.72l56.97-198.97c.65-2.26,2.57-3.9,4.91-4.18,10.32-1.2,40.23-4.59,74.77-7.51,41.6-3.52,89.91-6.37,118.78-3.94,4.1.34,6.58,4.69,4.76,8.38-16.42,33.21-83.94,168.31-117.75,212.56-1.12,1.47-2.85,2.32-4.7,2.31l-132.19-1.23c-3.85-.04-6.6-3.73-5.54-7.42Z" style="fill:url(#uuid-0c0a6ded-a098-42dc-82a4-7ea03335fb89); stroke-width:0px;"/><path d="M1439.45,1524.82l41.31-6.88c2.2-.37,4,1.74,3.3,3.85l-4.09,12.39c-.36,1.08-1.3,1.86-2.42,2.01l-39.75,5.31c-2.06.27-3.75-1.59-3.28-3.61l2.53-10.82c.27-1.16,1.22-2.05,2.4-2.25Z" style="fill:#91b3fa; stroke-width:0px;"/><path d="M1408.52,1559.79l3.4-17.72c.34-1.78,1.81-3.12,3.61-3.3l83.43-8.47c2.81-.28,5.06,2.29,4.4,5.03l-5.31,22.09c-.42,1.77-1.96,3.04-3.78,3.13l-81.53,4.11c-2.65.13-4.73-2.25-4.23-4.86Z" style="fill:#91b3fa; stroke-width:0px;"/><path d="M1310.66,1704.65s-7.94-32.64-4.74-44.21c3.2-11.58,9.4-26.46,30.08-23.16,20.68,3.31,45.06,12.02,45.06,12.02,0,0-1.23,15.08-16.95,10.22l9.74,7.54s-1.39,12.07-14.67,5.62l9.06,10s-5.7,9.92-15.47,3.56c-9.76-6.36-14.45,22.35-42.14,18.42Z" style="fill:url(#uuid-8a88e705-c04f-412e-965d-8eab5c86f0af); stroke-width:0px;"/></svg>