<?xml version="1.0" encoding="UTF-8"?><svg id="uuid-26d26bd7-7f5e-466e-9a18-0b87de36e60f" xmlns="http://www.w3.org/2000/svg" xmlns:xlink="http://www.w3.org/1999/xlink" viewBox="0 0 2831.47 2776.4"><defs><linearGradient id="uuid-5620921c-2e57-4413-ab7e-c5d40e2fa21c" x1="2585.1" y1="1182.69" x2="651.16" y2="2685.99" gradientUnits="userSpaceOnUse"><stop offset="0" stop-color="#dae3fe"/><stop offset="1" stop-color="#e9effd"/></linearGradient><linearGradient id="uuid-b78064e8-bebe-4990-bc6a-26ac8db15be9" x1="299.88" y1="1533.13" x2="2529.83" y2="1533.13" gradientUnits="userSpaceOnUse"><stop offset="0" stop-color="#09005d"/><stop offset="1" stop-color="#1a0f91"/></linearGradient><linearGradient id="uuid-376fbd10-0cff-4d3b-8f3a-3f9554271cd5" x1="441.52" y1="2413.93" x2="2290.03" y2="-202.52" gradientUnits="userSpaceOnUse"><stop offset="0" stop-color="#4f52ff"/><stop offset="1" stop-color="#4042e2"/></linearGradient><linearGradient id="uuid-3131a098-3e5d-4f8c-a231-6da4c8eb6312" x1="970.1" y1="2787.37" x2="2818.61" y2="170.93" xlink:href="#uuid-376fbd10-0cff-4d3b-8f3a-3f9554271cd5"/><linearGradient id="uuid-49b064fe-4e5f-40e6-9e60-e7b36f928e49" x1="1460.47" y1="1112.09" x2="1691.53" y2="405.31" xlink:href="#uuid-b78064e8-bebe-4990-bc6a-26ac8db15be9"/><linearGradient id="uuid-27fe71bb-f3cb-4520-9bee-ddb895d79b20" x1="1625.76" y1="526.52" x2="1480.8" y2="1092.87" xlink:href="#uuid-376fbd10-0cff-4d3b-8f3a-3f9554271cd5"/><linearGradient id="uuid-1a678e00-8c45-4239-bcf3-9f7ad3bd2c7b" x1="1621.28" y1="525.38" x2="1476.32" y2="1091.73" xlink:href="#uuid-376fbd10-0cff-4d3b-8f3a-3f9554271cd5"/><linearGradient id="uuid-c74dabfd-5191-4162-8825-a14139487c06" x1="1608.62" y1="522.14" x2="1463.66" y2="1088.48" xlink:href="#uuid-376fbd10-0cff-4d3b-8f3a-3f9554271cd5"/><linearGradient id="uuid-0ffa0d1f-d3f4-41f5-9705-0bcc3959c776" x1="1605.72" y1="521.39" x2="1460.76" y2="1087.74" xlink:href="#uuid-376fbd10-0cff-4d3b-8f3a-3f9554271cd5"/><linearGradient id="uuid-44ffb3b2-6055-421d-a71a-80ce6fa424bc" x1="1459.76" y1="141.06" x2="1418.98" y2="1167.26" gradientUnits="userSpaceOnUse"><stop offset="0" stop-color="#ff928e"/><stop offset="1" stop-color="#fe7062"/></linearGradient><linearGradient id="uuid-a2db1d97-fcf9-4a7c-a442-aeab8830eeea" x1="2556.05" y1="-636.7" x2="1930.82" y2="239.98" gradientUnits="userSpaceOnUse"><stop offset="0" stop-color="#e1473d"/><stop offset="1" stop-color="#e9605a"/></linearGradient><linearGradient id="uuid-372cfe94-5e24-4330-af93-9409afa1d46e" x1="2444.15" y1="-716.51" x2="1818.92" y2="160.17" xlink:href="#uuid-a2db1d97-fcf9-4a7c-a442-aeab8830eeea"/><linearGradient id="uuid-3b5529a9-0e27-4550-a74c-7ff0a6541b4f" x1="4141.29" y1="2632.97" x2="3577.98" y2="3245.7" gradientTransform="translate(-3604.99)" xlink:href="#uuid-b78064e8-bebe-4990-bc6a-26ac8db15be9"/><linearGradient id="uuid-20d4f6f7-e4ab-422b-ad5f-2e99a610ecc3" x1="3958.45" y1="2678.48" x2="4008.49" y2="2678.48" gradientTransform="translate(-3604.99)" gradientUnits="userSpaceOnUse"><stop offset="0" stop-color="#febbba"/><stop offset="1" stop-color="#ff928e"/></linearGradient><linearGradient id="uuid-10b9d80d-7d6f-409f-9a90-2a3f27d126fd" x1="567.48" y1="8145.97" x2="924.26" y2="7524.14" gradientTransform="translate(-3604.99)" xlink:href="#uuid-b78064e8-bebe-4990-bc6a-26ac8db15be9"/><linearGradient id="uuid-70801efd-00ee-49f8-981f-8cef0d1c9735" x1="4014.92" y1="2516.8" x2="3451.61" y2="3129.52" gradientTransform="translate(-3604.99)" xlink:href="#uuid-b78064e8-bebe-4990-bc6a-26ac8db15be9"/><linearGradient id="uuid-7aa771b8-5e1c-4c86-930d-b3855ecf4289" x1="3778.12" y1="2675.92" x2="3821.32" y2="2675.92" xlink:href="#uuid-20d4f6f7-e4ab-422b-ad5f-2e99a610ecc3"/><linearGradient id="uuid-1d67c2e1-9894-4236-aa46-f7834bd96339" x1="466.88" y1="8088.25" x2="823.67" y2="7466.42" gradientTransform="translate(-3604.99)" xlink:href="#uuid-b78064e8-bebe-4990-bc6a-26ac8db15be9"/><linearGradient id="uuid-35863299-0967-4c81-9ef5-ee609d06c3c2" x1="3876.44" y1="-4456.07" x2="3580.81" y2="-3970.15" gradientTransform="translate(491.76) rotate(-180) scale(1 -1)" xlink:href="#uuid-44ffb3b2-6055-421d-a71a-80ce6fa424bc"/><linearGradient id="uuid-b0ce1f75-edf1-4663-bd0d-05690fac58a4" x1="-352.72" y1="1286.09" x2="410.78" y2="1752.89" gradientTransform="translate(491.76) rotate(-180) scale(1 -1)" xlink:href="#uuid-20d4f6f7-e4ab-422b-ad5f-2e99a610ecc3"/><linearGradient id="uuid-5c1e4190-3c66-48fb-a0d3-ec6c0d9449f1" x1="-359.26" y1="1101.69" x2="-270.98" y2="1353.92" gradientTransform="translate(491.76) rotate(-180) scale(1 -1)" xlink:href="#uuid-20d4f6f7-e4ab-422b-ad5f-2e99a610ecc3"/><linearGradient id="uuid-43ba0caa-f584-4e7e-8ffa-a6fc51141ea7" x1="-291.44" y1="1262.84" x2="-357.94" y2="1128.7" gradientTransform="translate(491.76) rotate(-180) scale(1 -1)" xlink:href="#uuid-20d4f6f7-e4ab-422b-ad5f-2e99a610ecc3"/><linearGradient id="uuid-e29fbecc-1f0e-438f-890a-6ad63f0b7cec" x1="4021.86" y1="-4367.62" x2="3726.24" y2="-3881.7" gradientTransform="translate(491.76) rotate(-180) scale(1 -1)" xlink:href="#uuid-44ffb3b2-6055-421d-a71a-80ce6fa424bc"/><linearGradient id="uuid-8beeaafc-2406-44ad-9857-0e6f616292cf" x1="3604.99" y1="1735.19" x2="3928.48" y2="1735.19" xlink:href="#uuid-20d4f6f7-e4ab-422b-ad5f-2e99a610ecc3"/><linearGradient id="uuid-3a20338d-b986-453b-9642-70b1851f0550" x1="4026.35" y1="1505.2" x2="4204.23" y2="2246.36" gradientTransform="translate(-3604.99)" xlink:href="#uuid-b78064e8-bebe-4990-bc6a-26ac8db15be9"/><linearGradient id="uuid-2c894152-06f5-422e-a899-3ff423f829e9" x1="4137.72" y1="1388.37" x2="4099.84" y2="1554.73" gradientTransform="translate(-3604.99)" xlink:href="#uuid-376fbd10-0cff-4d3b-8f3a-3f9554271cd5"/><linearGradient id="uuid-c66f7494-b839-4571-a5a6-e53c709da4e8" x1="4117.9" y1="1458.15" x2="4099.78" y2="1566.86" gradientTransform="translate(-3604.99)" xlink:href="#uuid-376fbd10-0cff-4d3b-8f3a-3f9554271cd5"/><linearGradient id="uuid-f671b38a-aebf-4a00-aae5-2e4e1b1140c2" x1="3904.47" y1="1701.27" x2="4005.25" y2="1701.27" xlink:href="#uuid-20d4f6f7-e4ab-422b-ad5f-2e99a610ecc3"/><linearGradient id="uuid-b6e332ae-6ebc-4edc-bcc1-8407fdf602de" x1="258.93" y1="1497.28" x2="367.66" y2="1300.19" gradientTransform="matrix(1,0,0,1,0,0)" xlink:href="#uuid-20d4f6f7-e4ab-422b-ad5f-2e99a610ecc3"/><linearGradient id="uuid-d3c350f2-9d7a-4a66-9a92-3510da5e5dd2" x1="-2667.75" y1="1003.73" x2="-2715.54" y2="846.09" gradientTransform="translate(1728.47 -1217.25) rotate(-41.75)" xlink:href="#uuid-20d4f6f7-e4ab-422b-ad5f-2e99a610ecc3"/><linearGradient id="uuid-7713c0f8-2f7a-4cba-9d7f-9797519d9cff" x1="-2710.87" y1="729.07" x2="-2670.89" y2="957.1" gradientTransform="translate(1728.47 -1217.25) rotate(-41.75)" xlink:href="#uuid-b78064e8-bebe-4990-bc6a-26ac8db15be9"/><linearGradient id="uuid-a06e9e51-dc38-402a-81f2-aac739232e11" x1="-2716.61" y1="1002.99" x2="-2759.61" y2="861.17" gradientTransform="translate(1728.47 -1217.25) rotate(-41.75)" xlink:href="#uuid-20d4f6f7-e4ab-422b-ad5f-2e99a610ecc3"/></defs><path d="M2027.88,1743.7s-9-378.24,165.22-479.48c174.21-101.23,505.46-164.53,517.87-707.65,7.27-317.97,15.14-456.99,20.41-517.61,2.06-23.65-18.96-42.73-42.28-38.34-165,31.08-700.99,159.02-813.37,524.86-133.22,433.71,152.15,1218.2,152.15,1218.2Z" style="fill:#91b3fa; stroke-width:0px;"/><path d="M2561.5,151.75c-181.12,161.53-390.54,447.4-502.17,733.28-14.33,47.11-56.24,147.31-74.44,325.32-16.26,148.47-8.17,305.35,11.54,409.21,1.25,6.57,7.58,10.88,14.14,9.63,11.29-2.14,9.79-14.28,9.69-13.9-22.51-177.43-13.17-398.28,38.42-597.54,65.9-244.67,212.89-481.89,364.92-683.09l15.65-19.81c117.79-151.27,142.59-152.38,131.58-162.93-2.6-2.49-6.67-2.51-9.32-.16Z" style="fill:#bdd0fb; stroke-width:0px;"/><path d="M1747.91,2470.92c-23.57,11.56,223.14-298.69,300.43-785.94,36.42-229.61,36.89-517.29,167.69-628.15,108.86-92.27,479.28-34.02,600.49-11.88,15.15,2.77,20.24,21.9,8.45,31.8-58.12,48.81-182.46,163.95-214.86,279.99-42.7,152.95-188.11,250.23-318.29,276.56-130.18,26.33-202.6,51.88-266.02,260.07-63.42,208.19-210.91,544.72-277.89,577.56Z" style="fill:#bdd0fb; stroke-width:0px;"/><path d="M2646.05,1109.57c-154.64,6.48-320.63,77.02-404.86,209.34l-7.95,12.63c-18.36,29.61-122.43,240.07-180.23,414.53-.72,2.17.46,4.52,2.63,5.24,3.69,1.22,5.54-2.84,5.19-2.48,40.27-98.56,98.11-223.52,144.17-316.96,49.4-101.97,83.97-171.02,196.65-237.16,125.42-71.23,245.23-78.57,244.87-78.49,1.83-.19,3.16-1.82,2.97-3.65-.18-1.76-1.71-3.06-3.45-2.99Z" style="fill:url(#uuid-5620921c-2e57-4413-ab7e-c5d40e2fa21c); stroke-width:0px;"/><path d="M2484.61,1705.53c-14.8-26.42-21.14-56.65-17.6-86.72,4.56-38.69,7-86.69,2.45-139.25-12.7-146.5-73.92-270.39-178.31-362.54-13.73-12.12-20.78-30.23-18.45-48.4,3.49-27.24,4.65-59.88,0-95.93-11.02-85.62-57.63-206.22-214.35-305.49-16.04-50.33-62.34-142.09-194.39-214.27-98-53.56-190.92-66.42-261.62-36.22-29.18,12.47-53.44,32.08-70.66,56.48-20.33,3.72-41.84,12.03-61.6,27.07-11.05,8.41-20.91,18.35-29.58,29.77-12.92,17.02-38.4,17.02-51.32,0-8.67-11.43-18.53-21.37-29.58-29.77-19.76-15.04-41.27-23.35-61.6-27.07-17.21-24.39-41.47-44.01-70.65-56.48-70.71-30.2-163.62-17.34-261.62,36.22-132.05,72.17-178.35,163.94-194.39,214.27-156.72,99.27-203.34,219.88-214.35,305.49-2.85,22.18-3.51,43.08-2.78,62.21,1.49,39.17-12.53,77.51-40.26,105.21-89.43,89.34-142.05,204.85-153.71,339.44-4.6,53.06-2.07,101.48,2.58,140.35,3.51,29.36-2.62,58.93-17.19,84.66-54.76,96.75-61.87,264.46-13.15,450.82,29.14,111.47,79.01,193.13,148.22,242.71.12.09.24.17.36.26,19.35,13.82,33.38,33.64,39.95,56.49,2.51,8.74,5.91,17.42,10.2,25.98,56.93,113.65,259.19,174.29,434.39,183.96,8.91.49,17.63.74,26.19.74,86.17,0,154.53-24.92,203.46-74.23,38.22-38.52,55.96-83.65,64.07-120.21,69.14-8.44,119.6-33.55,150.44-74.97,1.82-2.45,3.47-4.92,5.09-7.38,1.62,2.47,3.27,4.93,5.1,7.38,30.83,41.43,81.29,66.54,150.44,74.97,8.11,36.56,25.86,81.69,64.07,120.21,48.93,49.32,117.29,74.24,203.46,74.23,8.55,0,17.29-.25,26.19-.74,175.2-9.67,377.46-70.31,434.39-183.96,4.29-8.56,7.69-17.24,10.2-25.98,6.57-22.85,20.6-42.67,39.95-56.49.12-.09.24-.17.36-.26,69.21-49.58,119.08-131.24,148.22-242.71,48.55-185.74,41.66-352.96-12.61-449.86Z" style="fill:url(#uuid-b78064e8-bebe-4990-bc6a-26ac8db15be9); stroke-width:0px;"/><path d="M1369.51,712.37v1566.99s40.28,129.74-170.98,127.65c0,0,12.87,204-229.23,190.63-242.1-13.37-441.47-118.75-372.45-222.53,0,0-138.88-5.56-199.31-236.72-60.43-231.17-23.25-406.66,47.84-444.46,0,0-113.11-366.25,194.21-569.7,0,0-105.86-243.22,190.41-413.89,0,0,12.38-113.32,167.99-198.37,146.21-79.91,240.06-39.25,258.15,27.85,0,0,113.37-31.37,113.37,172.56Z" style="fill:url(#uuid-376fbd10-0cff-4d3b-8f3a-3f9554271cd5); stroke-width:0px;"/><path d="M1460.19,712.37v1566.99s-40.28,129.74,170.98,127.65c0,0-12.87,204,229.23,190.63,242.1-13.37,441.47-118.75,372.45-222.53,0,0,138.88-5.56,199.31-236.72,60.43-231.17,23.25-406.66-47.84-444.46,0,0,113.11-366.25-194.21-569.7,0,0,105.86-243.22-190.41-413.89,0,0-12.38-113.32-167.99-198.37-146.21-79.91-240.07-39.25-258.15,27.85,0,0-113.37-31.37-113.37,172.56Z" style="fill:url(#uuid-3131a098-3e5d-4f8c-a231-6da4c8eb6312); stroke-width:0px;"/><path d="M1239.64,732.24c-.42,0-.86-.04-1.29-.12-.93-.18-92.55-18.91-81.48-111.07,10.48-87.2,97.82-88.04,99.29-88.04h.01c3.75.02,6.78,3.08,6.76,6.83-.02,3.74-3.06,6.76-6.8,6.76-.02,0-.04,0-.07,0-3.56,0-76.68.97-85.71,76.07-9.55,79.47,67.29,95.46,70.56,96.11,3.68.72,6.08,4.28,5.37,7.96-.63,3.25-3.47,5.5-6.66,5.5Z" style="fill:#91b3fa; stroke-width:0px;"/><path d="M1058.37,1028.96c-17.86,0-35.82-3.48-50.74-9.34-21.78-8.55-35.38-21.36-37.29-35.13-.52-3.72,2.08-7.15,5.79-7.67,3.71-.56,7.15,2.07,7.67,5.79,1.18,8.51,12.22,17.84,28.8,24.35,29.83,11.71,72.82,13.12,97.29-6.83,16.28-13.28,22.05-34.29,17.17-62.45-16-92.18-92.6-99.22-181.29-107.36-19.1-1.75-38.85-3.57-58.09-6.35-36.76-5.31-60.16-18.49-69.58-39.17-13.35-29.32,7.16-61.69,8.04-63.06,2.03-3.15,6.24-4.06,9.39-2.03,3.15,2.03,4.06,6.24,2.03,9.39-.32.51-17.33,27.7-7.07,50.12,7.39,16.16,27.28,26.69,59.13,31.29,18.89,2.73,38.46,4.53,57.39,6.26,86.36,7.93,175.66,16.13,193.45,118.57,7.21,41.54-7.96,63.88-21.97,75.3-15.81,12.9-37.87,18.29-60.1,18.29Z" style="fill:#91b3fa; stroke-width:0px;"/><path d="M857.74,1303c-20.07,0-37.3-8.36-43.33-22.32-1.49-3.44.1-7.45,3.54-8.94,3.44-1.49,7.44.1,8.94,3.54,5,11.56,25.32,17.13,45.33,12.4,12.04-2.84,51.05-16.67,47.75-75.08-2.11-37.35-14.36-62.93-36.41-76.01-26.78-15.88-67.91-12.08-115.84,10.71-94.02,44.69-124.66-5.14-125.92-7.29-1.9-3.24-.82-7.4,2.42-9.3,3.23-1.89,7.36-.82,9.27,2.38,1.12,1.82,26.44,40.9,108.39,1.94,52.9-25.15,97.37-28.64,128.61-10.12,25.82,15.31,40.71,45.38,43.05,86.94,3.09,54.8-28.04,81.94-58.2,89.08-5.96,1.41-11.9,2.08-17.59,2.08Z" style="fill:#91b3fa; stroke-width:0px;"/><path d="M781.76,1578.82c-6.2,0-12.51-.46-18.91-1.48-38.26-6.1-70.99-30.89-97.28-73.71-26.33-42.88-34.27-84.44-23.59-123.53,18.05-66.04,82.31-100.7,85.04-102.14,3.31-1.76,7.42-.49,9.18,2.82,1.76,3.32.49,7.43-2.82,9.19-.62.33-61.89,33.48-78.32,93.81-9.61,35.3-2.18,73.23,22.09,112.73,24.1,39.25,53.63,61.92,87.75,67.39,58.87,9.46,112.81-35.55,113.35-36,2.87-2.43,7.15-2.06,9.58.79,2.43,2.86,2.07,7.14-.78,9.57-2.15,1.83-48.49,40.56-105.28,40.56Z" style="fill:#91b3fa; stroke-width:0px;"/><path d="M1198.37,1607.62c-1.03,0-2.08-.24-3.07-.73-3.35-1.7-4.69-5.79-2.99-9.14.25-.49,25.3-53.47-28.61-139.61-53.84-86.03-156.17-67.25-157.2-67.06-3.7.73-7.25-1.69-7.97-5.37-.72-3.69,1.69-7.25,5.37-7.97,1.12-.22,112.57-20.66,171.32,73.19,58.31,93.17,30.43,150.57,29.21,152.97-1.2,2.36-3.59,3.72-6.07,3.72Z" style="fill:#91b3fa; stroke-width:0px;"/><path d="M1072.24,1898.97c-1.92,0-3.83-.81-5.17-2.39-2.44-2.86-2.1-7.14.76-9.58,14.05-11.98,30.25-31.86,27.68-58.52-3.41-35.4-39.37-73.39-103.99-109.85-70.42-39.75-128.23-50.32-171.87-31.44-49.94,21.62-63.73,75.86-63.86,76.4-.89,3.64-4.57,5.87-8.21,5-3.64-.89-5.88-4.55-5-8.19.6-2.49,15.35-61.2,71.51-85.61,47.75-20.77,109.7-9.99,184.11,32,69.63,39.3,106.92,79.8,110.83,120.39,2.48,25.72-8.72,49.98-32.39,70.17-1.28,1.09-2.85,1.63-4.41,1.63Z" style="fill:#91b3fa; stroke-width:0px;"/><path d="M1157.14,2181.81c-38.47,0-75.91-19.9-96.49-54.39-1.92-3.23-.87-7.4,2.35-9.32,3.23-1.92,7.4-.87,9.32,2.35,24.61,41.24,76.66,58.75,121.06,40.72,51.52-20.92,71.33-79.51,52.98-156.73-25.77-108.48-26.49-175.52-2.25-210.96,11.76-17.19,29.68-27.23,54.78-30.71,59.6-8.24,76.03,23.11,76.7,24.45,1.68,3.36.32,7.44-3.04,9.12-3.34,1.67-7.39.34-9.08-2.98-.62-1.16-13.63-23.93-62.71-17.13-21.38,2.96-35.82,10.88-45.42,24.92-21.63,31.61-20.24,97.08,4.25,200.15,23.59,99.29-16.09,154.19-61.1,172.46-13.42,5.45-27.46,8.05-41.35,8.05Z" style="fill:#91b3fa; stroke-width:0px;"/><path d="M762.34,2001.85c-86.61.01-128.59-114.39-163.12-208.42-9-24.52-17.51-47.69-26.19-67.3-13.87-31.32-31.36-49.41-51.98-53.77-29.69-6.25-56.8,17.93-57.07,18.17-2.78,2.53-7.08,2.32-9.6-.46-2.53-2.78-2.32-7.08.46-9.6,1.31-1.19,32.58-29.11,69.02-21.4,25.14,5.32,45.86,26.03,61.6,61.57,8.86,20.02,17.44,43.38,26.52,68.12,38.88,105.9,82.92,225.94,181.91,194.2,37.06-11.89,59.03-29.37,65.28-51.96,10.13-36.58-23.7-75.69-24.04-76.08-2.48-2.82-2.2-7.11.62-9.59,2.83-2.48,7.12-2.19,9.59.62,1.6,1.82,38.99,45.09,26.92,88.68-7.55,27.28-32.53,47.9-74.23,61.27-12.68,4.07-24.57,5.96-35.7,5.96Z" style="fill:#91b3fa; stroke-width:0px;"/><path d="M606.49,2372.85c-1.15,0-2.32-.29-3.38-.91-3.25-1.87-4.37-6.03-2.5-9.28,71.03-123.31,175.24-161.37,179.64-162.93,3.53-1.25,7.42.59,8.67,4.13,1.25,3.54-.59,7.42-4.12,8.68-1.03.37-104,38.15-172.4,156.91-1.26,2.18-3.54,3.4-5.9,3.4Z" style="fill:#91b3fa; stroke-width:0px;"/><path d="M1188.8,2401.57c-1.71,0-3.43-.64-4.75-1.93-45.26-44.22-93.4-37.24-139.95-30.48-42.07,6.1-85.57,12.42-122.03-22.21-27.47-26.09-40.85-54.8-39.78-85.35,1.94-55.48,50.76-96.34,52.83-98.05,2.89-2.39,7.18-1.97,9.56.92,2.39,2.89,1.98,7.17-.91,9.57-.46.38-46.22,38.81-47.91,88.12-.9,26.47,11.06,51.68,35.56,74.95,31.68,30.08,68.3,24.77,110.72,18.62,47.51-6.89,101.35-14.7,151.4,34.21,2.68,2.62,2.73,6.93.11,9.61-1.33,1.36-3.1,2.05-4.86,2.05Z" style="fill:#91b3fa; stroke-width:0px;"/><path d="M1668.04,743.77c-16.26,0-34.22-3.67-53.52-12.1-31.81-13.9-52.91-35.12-62.73-63.07-19.35-55.09,12.12-116.09,13.47-118.66,1.74-3.32,5.84-4.6,9.17-2.86,3.32,1.74,4.61,5.85,2.87,9.17-.3.58-30.07,58.46-12.66,107.91,8.52,24.21,27.14,42.73,55.32,55.05,56.75,24.79,99.91,3.56,117.52-28.49,11.45-20.85,13.31-50.35-9.7-65.84-3.11-2.1-3.94-6.32-1.84-9.43,2.1-3.11,6.31-3.94,9.43-1.84,25.78,17.36,31.54,51.76,14.02,83.66-14.43,26.27-43.18,46.5-81.35,46.5Z" style="fill:#91b3fa; stroke-width:0px;"/><path d="M1752.53,904.47c-2.81,0-5.43-1.75-6.41-4.55-.68-1.96-16.45-48.26,8.02-81.17,16.33-21.98,46.16-32.22,88.72-30.31,74.08,3.23,119.17-4.56,137.79-23.89,8.13-8.44,11.37-19.18,10.19-33.79-.31-3.74,2.48-7.02,6.23-7.32,3.75-.35,7.02,2.49,7.32,6.23,1.5,18.53-3.06,33.02-13.95,44.32-21.78,22.6-68.87,31.5-148.17,28.03-37.68-1.63-63.68,6.68-77.17,24.78-20.19,27.08-6.28,68.23-6.14,68.64,1.23,3.54-.64,7.42-4.19,8.65-.74.26-1.49.38-2.23.38Z" style="fill:#91b3fa; stroke-width:0px;"/><path d="M1556.39,1112.54c-.36,0-.72,0-1.08-.01-3.75-.07-6.74-3.17-6.67-6.92.07-3.75,3.11-6.73,6.92-6.67.27,0,.54,0,.82,0,25.78,0,54.71-22.56,70.61-55.18,18.51-37.98,14.99-78.58-9.42-108.62-17.65-21.72-35.16-32.42-52-31.59-22.66,1.02-37.51,22.72-37.66,22.94-2.09,3.11-6.31,3.95-9.42,1.86-3.11-2.08-3.96-6.28-1.88-9.4.75-1.12,18.66-27.56,48.22-28.97,21.42-1.06,42.73,11.29,63.29,36.59,27.83,34.25,31.98,80.29,11.09,123.14-18.38,37.72-51.55,62.82-82.82,62.82Z" style="fill:#91b3fa; stroke-width:0px;"/><path d="M1947.6,1189.24c-25.89,0-57.26-7.85-94.02-30.4-71.68-43.97-81.51-114.75-68.15-162,11.35-40.15,38.35-67.12,67.18-67.12h.04c23.28.02,39.98,6.23,49.63,18.46,12.33,15.63,7.92,34.87,7.73,35.69-.87,3.65-4.54,5.91-8.19,5.03-3.64-.87-5.89-4.52-5.04-8.16.07-.32,2.97-13.93-5.26-24.24-6.97-8.74-20.05-13.17-38.89-13.19h-.03c-22.33,0-44.58,23.52-54.11,57.22-12.65,44.73-2.95,106.76,62.18,146.71,109.49,67.16,163.54-4.32,165.79-7.4,2.21-3.02,6.45-3.7,9.49-1.5,3.03,2.2,3.71,6.43,1.52,9.47-.43.59-30.88,41.41-89.89,41.42Z" style="fill:#91b3fa; stroke-width:0px;"/><path d="M1941.06,1592.39c-29.58,0-64.91-10.38-104.41-41.43-118.77-93.36-19.6-228.25-18.59-229.6,2.25-3,6.5-3.6,9.51-1.35,3,2.25,3.61,6.51,1.36,9.51-.24.32-23.82,32.13-33.32,74.06-12.49,55.1,4.14,101.09,49.44,136.7,45.74,35.95,90.24,46.98,132.28,32.78,31.26-10.56,49.27-31.61,49.45-31.82,2.42-2.86,6.7-3.24,9.58-.81,2.87,2.42,3.23,6.71.81,9.58-.53.63-36.78,42.39-96.1,42.39Z" style="fill:#91b3fa; stroke-width:0px;"/><path d="M2157.86,1461.08c-24.34,0-50.91-10.76-76.38-31.76-54.63-45.03-69.67-111.89-60.34-158.17,7.58-37.6,30.44-64.72,62.71-74.41,73.57-22.07,88.54-60.24,88.68-60.63,1.3-3.5,5.2-5.32,8.7-4.04,3.51,1.27,5.34,5.12,4.09,8.63-.65,1.82-16.73,44.8-97.57,69.05-27.31,8.19-46.74,31.54-53.3,64.07-8.53,42.3,5.38,103.54,55.67,145,36.7,30.26,75.17,36.94,102.9,17.88,18.35-12.62,26.93-34.09,20.85-52.21-1.19-3.56.73-7.41,4.28-8.6,3.56-1.19,7.41.73,8.6,4.28,7.99,23.84-2.71,51.69-26.04,67.73-12.83,8.82-27.4,13.16-42.87,13.16Z" style="fill:#91b3fa; stroke-width:0px;"/><path d="M2060.79,1984.07c-.2,0-.39,0-.59,0-30.23-.18-53.22-9.11-68.34-26.52-23.59-27.17-18.82-64.71-18.61-66.3.5-3.72,3.95-6.35,7.65-5.82,3.72.5,6.32,3.92,5.82,7.64-.08.65-4.01,33.31,15.47,55.65,12.45,14.28,31.99,21.6,58.09,21.76h.5c85.24,0,156.47-134.33,171.85-190.51,1.19-4.37,2.37-8.97,3.58-13.7,8.61-33.69,19.32-75.63,52.47-90.83,23.17-10.63,53.01-6.57,91.24,12.39,3.36,1.67,4.74,5.75,3.07,9.11-1.67,3.36-5.74,4.75-9.11,3.07-33.84-16.8-60.61-20.91-79.53-12.22-27.25,12.5-36.66,49.34-44.97,81.84-1.23,4.81-2.42,9.49-3.64,13.93-14.1,51.49-86.94,200.51-184.95,200.51Z" style="fill:#91b3fa; stroke-width:0px;"/><path d="M1722.62,2145.18c-.57,0-1.15-.07-1.73-.23-101.84-26.75-166.93-86.67-183.28-168.72-17.38-87.29,23.51-172.61,70.83-208.58,53.86-40.96,122-32.98,202.51,23.71,2.42,1.7,4.91,3.46,5.91,4.05,2.92.99,4.89,3.89,4.58,7.09-.36,3.73-3.63,6.48-7.42,6.12-2.53-.25-4.14-1.38-10.9-6.14-75.11-52.89-137.85-60.96-186.46-24-44.65,33.94-81.44,116.21-65.72,195.11,10.8,54.25,49.66,125.73,173.4,158.23,3.63.95,5.8,4.67,4.85,8.3-.8,3.05-3.55,5.07-6.57,5.07Z" style="fill:#91b3fa; stroke-width:0px;"/><path d="M1633.48,2401.57c-3.69,0-6.72-2.95-6.79-6.66-.02-1.26-.33-31.11,24.6-56.31,22.42-22.66,57.39-33.89,103.89-33.52,84.44.74,143.7-17.4,158.51-48.6,9.5-20.03,1.16-46.01-24.8-77.24-2.4-2.88-2-7.17.88-9.57,2.88-2.4,7.16-2.01,9.57.88,29.64,35.65,38.6,66.52,26.63,91.75-17.39,36.65-79.68,57.22-170.91,56.37-42.67-.38-74.36,9.53-94.1,29.48-20.93,21.15-20.68,46.23-20.67,46.48.07,3.75-2.91,6.86-6.66,6.93h-.14Z" style="fill:#91b3fa; stroke-width:0px;"/><path d="M2223.27,2375.58c-2.67,0-5.2-1.58-6.28-4.2-49.87-120.71-158.88-134.45-159.97-134.57-3.73-.42-6.41-3.79-5.98-7.52.42-3.73,3.8-6.4,7.52-5.98,1.17.13,118.1,14.85,170.99,142.89,1.43,3.47-.22,7.44-3.69,8.88-.85.35-1.73.52-2.59.52Z" style="fill:#91b3fa; stroke-width:0px;"/><path d="M1613.13,1115.21c-.58-7.22-7.96-13.47-20.44-18.48,13.57-7.48,21.07-15.5,20.44-23.37-1.92-23.8-77.29-37.14-168.35-29.8-91.06,7.34-163.32,32.59-161.4,56.39.58,7.22,7.96,13.47,20.44,18.48-13.57,7.48-21.08,15.5-20.44,23.37.58,7.22,7.96,13.47,20.44,18.48-13.57,7.48-21.08,15.5-20.44,23.37.58,7.22,7.96,13.47,20.44,18.48-13.57,7.48-21.08,15.5-20.44,23.37.85,10.53,16.08,19,40.67,24.55-.32,7.78-.14,16.3.62,25.72,3.56,43.86,52.89,78.24,118.14,78.24s121.72-46.88,122.36-90.88c.16-10.78-.3-20.27-1.28-28.71,31.22-10.43,50.23-23.16,49.23-35.51-.58-7.22-7.96-13.47-20.44-18.48,13.57-7.48,21.07-15.5,20.44-23.37-.58-7.22-7.96-13.47-20.44-18.48,13.57-7.48,21.07-15.5,20.44-23.37Z" style="fill:url(#uuid-49b064fe-4e5f-40e6-9e60-e7b36f928e49); stroke-width:0px;"/><path d="M1402.65,1259.51c-27.04,0-51.79-1.99-72.23-5.91-1.19-.23-1.96-1.37-1.74-2.56.23-1.18,1.37-1.96,2.56-1.74,31.99,6.12,74.72,7.48,120.31,3.8,37.31-3.01,72.2-9.03,100.9-17.4,1.16-.34,2.37.33,2.71,1.49.34,1.16-.33,2.37-1.49,2.71-28.98,8.46-64.18,14.53-101.78,17.56-16.94,1.37-33.49,2.04-49.26,2.04Z" style="fill:url(#uuid-27fe71bb-f3cb-4520-9bee-ddb895d79b20); stroke-width:0px;"/><path d="M1403.11,1217.63c-35.14,0-66.53-3.3-88.68-9.61-1.16-.33-1.83-1.54-1.5-2.7.33-1.16,1.54-1.83,2.7-1.5,31.56,8.99,82.38,11.77,135.94,7.45,52.98-4.27,102.39-15.02,132.18-28.76,1.1-.5,2.4-.03,2.9,1.07.5,1.1.03,2.4-1.07,2.9-30.23,13.94-80.19,24.84-133.66,29.15-16.68,1.35-33.12,2-48.8,2Z" style="fill:url(#uuid-1a678e00-8c45-4239-bcf3-9f7ad3bd2c7b); stroke-width:0px;"/><path d="M1402.66,1175.82c-37.94,0-71.13-3.88-93.48-11.25-1.15-.38-1.77-1.61-1.39-2.76.38-1.15,1.61-1.77,2.76-1.39,31.09,10.25,83.81,13.62,141.01,9.01,52.98-4.27,102.39-15.02,132.18-28.76,1.1-.5,2.4-.03,2.9,1.07.5,1.1.03,2.4-1.07,2.9-30.23,13.94-80.19,24.84-133.66,29.15-16.94,1.37-33.51,2.03-49.25,2.03Z" style="fill:url(#uuid-c74dabfd-5191-4162-8825-a14139487c06); stroke-width:0px;"/><path d="M1402.95,1133.95c-30.09,0-57.46-2.43-78.74-7.16-1.18-.26-1.92-1.43-1.66-2.61.26-1.18,1.43-1.92,2.61-1.66,32,7.11,78.07,8.95,126.4,5.06,52.51-4.23,101.66-14.87,131.5-28.45,1.1-.5,2.4-.02,2.9,1.09.5,1.1.02,2.4-1.09,2.9-30.27,13.78-79.98,24.56-132.96,28.83-16.74,1.35-33.22,2.02-48.96,2.02Z" style="fill:url(#uuid-0ffa0d1f-d3f4-41f5-9705-0bcc3959c776); stroke-width:0px;"/><path d="M1222.28,903.99c-11.06-39.17-29.84-75.78-55.14-107.66-54.21-68.32-142.64-207.25-153.52-396.88C997.78,123.64,1242.4-14.45,1465.62,4.29c223.22,18.75,443.48,184.95,419.37,441.54-14.84,157.88-103.21,277.64-169,346.41-41.78,43.67-71.58,97.16-87.72,155.41-19.75,71.29-66.74,160.13-178.43,165.55-144.52,7.01-204.55-127.7-227.56-209.22Z" style="fill:url(#uuid-44ffb3b2-6055-421d-a71a-80ce6fa424bc); stroke-width:0px;"/><path d="M1486.76,1058.21l78.1-507.99c1.61-10.49,6.78-17.54,11.54-15.74,4.76,1.8,7.31,11.77,5.69,22.26-.04.28-.1.63-.15.9l-88.97,503.28c-.67,3.78-2.59,6.17-4.29,5.34-1.65-.81-2.48-4.38-1.92-8.04Z" style="fill:url(#uuid-a2db1d97-fcf9-4a7c-a442-aeab8830eeea); stroke-width:0px;"/><path d="M1405.68,1062.24l-78.1-507.99c-1.61-10.49-6.78-17.54-11.54-15.74s-7.31,11.77-5.69,22.26c.04.28.1.63.15.9l88.97,503.27c.67,3.78,2.59,6.17,4.29,5.34,1.65-.81,2.48-4.37,1.92-8.04Z" style="fill:url(#uuid-372cfe94-5e24-4330-af93-9409afa1d46e); stroke-width:0px;"/><path d="M1564.3,506.6c-1.98-3.19-6.57-4.38-10.25-2.66l-43.49,20.32-15.1-43.01c-.8-2.24-2.65-4.23-5.29-5.32-5-2.06-10.99-.22-13.36,4.12l-.08.14-35.77,65.21-33.19-92.83-.05-.15c-.81-2.27-2.53-4.3-5.02-5.66-5.57-3.04-12.92-1.59-16.42,3.23l-50,68.83c-2.03,2.82-1.33,6.6,1.76,8.69,3.3,2.23,8.07,1.71,10.63-1.16l44.02-49.11,39.64,88.31.03.07c.64,1.41,1.83,2.65,3.49,3.42,3.72,1.74,8.36.54,10.37-2.68l38.25-61.38,14.4,31.05.13.28c.1.22.22.44.36.66,1.98,3.19,6.57,4.38,10.24,2.66l51.62-24.12c3.68-1.72,5.05-5.7,3.07-8.89Z" style="fill:#fff; opacity:.67; stroke-width:0px;"/><path d="M1717.68,721.95c-1.06,0-2.12-.33-3.04-1.01-2.26-1.68-2.73-4.87-1.05-7.13,13.41-18.07,25.7-36.73,36.54-55.5,1.41-2.44,4.53-3.27,6.96-1.86,2.44,1.41,3.27,4.53,1.86,6.96-11.03,19.1-23.54,38.1-37.18,56.48-1,1.35-2.54,2.06-4.09,2.06Z" style="fill:#fff; opacity:.67; stroke-width:0px;"/><path d="M1781.94,611.68c-.68,0-1.36-.14-2.03-.42-2.58-1.12-3.77-4.12-2.64-6.71,83.38-192.02,11.32-353.51,10.59-355.12-1.17-2.56-.05-5.58,2.51-6.76,2.56-1.17,5.58-.05,6.76,2.51.76,1.65,74.67,167.28-10.5,363.43-.83,1.92-2.71,3.07-4.68,3.07Z" style="fill:#fff; opacity:.67; stroke-width:0px;"/><path d="M552.65,1147.67s588.55-290.8,396.07-504.9c-192.48-214.11-551.31-128.53-569.49,96.82-18.18,225.35,418.58,172.48,173.42,408.08Z" style="fill:#fff; stroke-width:0px;"/><path d="M898.93,701.64h-259.74c-1.98,0-3.58-1.6-3.58-3.58s1.6-3.58,3.58-3.58h259.74c1.98,0,3.58,1.6,3.58,3.58s-1.6,3.58-3.58,3.58Z" style="fill:#91b3fa; stroke-width:0px;"/><path d="M562.06,701.64h-77.07c-1.98,0-3.58-1.6-3.58-3.58s1.6-3.58,3.58-3.58h77.07c1.98,0,3.58,1.6,3.58,3.58s-1.6,3.58-3.58,3.58Z" style="fill:#91b3fa; stroke-width:0px;"/><path d="M907.68,754.23h-97.53c-1.98,0-3.58-1.6-3.58-3.58s1.6-3.58,3.58-3.58h97.53c1.98,0,3.58,1.6,3.58,3.58s-1.6,3.58-3.58,3.58Z" style="fill:#91b3fa; stroke-width:0px;"/><path d="M667.04,754.23h-173.3c-1.98,0-3.58-1.6-3.58-3.58s1.6-3.58,3.58-3.58h173.3c1.98,0,3.58,1.6,3.58,3.58s-1.6,3.58-3.58,3.58Z" style="fill:#91b3fa; stroke-width:0px;"/><path d="M916.43,806.82h-259.26c-1.98,0-3.58-1.6-3.58-3.58s1.6-3.58,3.58-3.58h259.26c1.98,0,3.58,1.6,3.58,3.58s-1.6,3.58-3.58,3.58Z" style="fill:#91b3fa; stroke-width:0px;"/><path d="M592.25,806.82h-89.75c-1.98,0-3.58-1.6-3.58-3.58s1.6-3.58,3.58-3.58h89.75c1.98,0,3.58,1.6,3.58,3.58s-1.6,3.58-3.58,3.58Z" style="fill:#91b3fa; stroke-width:0px;"/><path d="M358.24,2678.62s-5.83,33.03-8.69,65.72c-1.12,12.78,8.73,23.87,21.55,24.4,43.54,1.81,136.66,5.34,170.08,3.85,5.02-.22,8.31-5.37,6.45-10.04h0c-1.56-3.91-4.56-7.08-8.39-8.84l-153.83-70.7-27.16-4.39Z" style="fill:url(#uuid-3b5529a9-0e27-4550-a74c-7ff0a6541b4f); stroke-width:0px;"/><path d="M353.46,2659.21l4.69,39.5s26.95,12.54,45.35-1.58l-11.16-44.02-38.88,6.1Z" style="fill:url(#uuid-20d4f6f7-e4ab-422b-ad5f-2e99a610ecc3); stroke-width:0px;"/><path d="M356.98,1916.54c-2.03,10.32-10.87,514.8,43.06,740.87.88,3.69-.99,7.49-4.5,8.93-8.27,3.38-24.49,8.27-43.92,8.93-6.02.2-11.41-3.71-13.11-9.49-15.41-52.45-89.28-315.26-98.91-566.31-10.77-280.52,0-9.55,0-9.55l6.31-173.4,111.07.02Z" style="fill:url(#uuid-10b9d80d-7d6f-409f-9a90-2a3f27d126fd); stroke-width:0px;"/><path d="M181.29,2695.85s-9.29,16.67-18.28,60.98c-1.62,8,3.97,15.66,12.09,16.46,14.38,1.41,36.51,3.23,54.23,3.11,8.17-.06,14.55-7.17,13.56-15.28-1.96-16.17-8.08-42.7-26.98-63.38l-34.64-1.88Z" style="fill:url(#uuid-70801efd-00ee-49f8-981f-8cef0d1c9735); stroke-width:0px;"/><path d="M173.13,2645.04l10.95,59.74s10.83,8.06,32.25,2.22l-5.23-64.28-37.97,2.32Z" style="fill:url(#uuid-7aa771b8-5e1c-4c86-930d-b3855ecf4289); stroke-width:0px;"/><path d="M143.55,1932.02c-44.1,266.17,9.57,657.86,27.67,734.52,1.11,4.69,4.9,8.29,9.65,9.08,8.08,1.34,21.38,2.43,34.5-1.38,4.52-1.31,7.69-5.39,7.88-10.09,2.43-61.98-1.94-442.48,39.15-592.85,2.08-7.62,6.74-14.27,13.17-18.84l79.76-56.7,6.11-91.66-217.9,27.92Z" style="fill:url(#uuid-1d67c2e1-9894-4236-aa46-f7834bd96339); stroke-width:0px;"/><path d="M424.58,1427.68c-132.17-2.18-278,34.7-278,34.7-39.4,229.88-6.89,495.03-6.89,495.03,102.32,26.83,217.75-16.41,217.75-16.41,17.01-96.09,96.36-366.5,96.36-366.5,64.58-8.01,117.78-26.65,161.59-51.28-33.42-38.74-49.17-88.02-56.01-117.16-46.73,14.52-94.02,22.28-134.78,21.61Z" style="fill:url(#uuid-35863299-0967-4c81-9ef5-ee609d06c3c2); stroke-width:0px;"/><path d="M814.98,1233c-12.98-15.68-29.42-8.26-29.42-8.26-19.45,82.16-121.43,148.77-226.21,181.34,6.84,29.14,22.6,78.42,56.01,117.16,173.88-97.77,199.61-290.23,199.61-290.23Z" style="fill:url(#uuid-b0ce1f75-edf1-4663-bd0d-05690fac58a4); stroke-width:0px;"/><path d="M811.83,1236.99c1.36,4.32-14.37,10.9-23.64-6.77-.32-8.47-5.47-44.73-.41-51.63,26.94-36.73,79.18-82.78,79.18-82.78,8.83,8.71,1.56,17.27,1.56,17.27l-25.34,26.4c5.3,9.58,11.77,17.66,14.8,29.25,2.3,8.77.89,18.15-3.54,26.13-4.45,8.01-10.52,18.43-16.25,26.58-10.86,15.43-26.34,15.55-26.34,15.55Z" style="fill:url(#uuid-5c1e4190-3c66-48fb-a0d3-ec6c0d9449f1); stroke-width:0px;"/><path d="M832.09,1156.61l-23.09,19.58-7.25,19.49,20.59,22.84s6.92-38.67,12.07-47.04c5.14-8.37,2.48-12.42-2.31-14.86Z" style="fill:url(#uuid-43ba0caa-f584-4e7e-8ffa-a6fc51141ea7); stroke-width:0px;"/><path d="M197.27,1590.36l-50.69-127.98S23.12,1546.27,2.81,1652.62c23.33,1.72,65.77,7.79,107.32,28.76,9.13-50.22,87.13-91.02,87.13-91.02Z" style="fill:url(#uuid-e29fbecc-1f0e-438f-890a-6ad63f0b7cec); stroke-width:0px;"/><path d="M305.15,1710.79s-138.61,78.33-185.38,11.45c-9.71-13.89-12.03-27.69-9.64-40.85-41.55-20.98-83.99-27.05-107.32-28.76-6.12,32.06-2.88,66.16,15.96,100.63,81.92,149.86,304.73-8.28,304.73-8.28l-18.34-34.17Z" style="fill:url(#uuid-8beeaafc-2406-44ad-9857-0e6f616292cf); stroke-width:0px;"/><path d="M288.5,1809.89l75.65-264.18c.86-3,3.42-5.19,6.52-5.55,13.71-1.6,53.42-6.09,99.27-9.97,55.23-4.67,119.38-8.46,157.71-5.24,5.45.46,8.74,6.22,6.32,11.12-21.8,44.1-111.45,223.47-156.35,282.23-1.49,1.95-3.79,3.08-6.24,3.06l-175.51-1.63c-5.11-.05-8.77-4.95-7.36-9.86Z" style="fill:url(#uuid-3a20338d-b986-453b-9642-70b1851f0550); stroke-width:0px;"/><path d="M477.78,1507.3l54.85-9.14c2.92-.49,5.31,2.3,4.39,5.12l-5.43,16.45c-.47,1.43-1.72,2.47-3.22,2.67l-52.78,7.05c-2.73.36-4.98-2.12-4.35-4.8l3.36-14.36c.36-1.55,1.62-2.72,3.19-2.99Z" style="fill:url(#uuid-2c894152-06f5-422e-a899-3ff423f829e9); stroke-width:0px;"/><path d="M436.71,1553.73l4.52-23.53c.45-2.36,2.4-4.14,4.79-4.39l110.78-11.24c3.73-.38,6.71,3.04,5.84,6.68l-7.04,29.33c-.56,2.35-2.61,4.04-5.02,4.16l-108.25,5.45c-3.52.18-6.28-2.99-5.62-6.46Z" style="fill:url(#uuid-c66f7494-b839-4571-a5a6-e53c709da4e8); stroke-width:0px;"/><path d="M306.77,1746.06s-10.54-43.33-6.29-58.7c4.25-15.37,12.49-35.14,39.94-30.75,27.45,4.39,59.83,15.96,59.83,15.96,0,0-1.64,20.02-22.5,13.56l12.94,10.01s-1.85,16.03-19.47,7.47l12.03,13.28s-7.57,13.17-20.53,4.72c-12.97-8.45-19.18,29.67-55.95,24.45Z" style="fill:url(#uuid-f671b38a-aebf-4a00-aae5-2e4e1b1140c2); stroke-width:0px;"/><path d="M290.7,1320.38l-42.05,121.62c-.7,2.01.13,4.25,2,5.28,11.46,6.34,52.76,24.66,102.54-6.9,5.18-3.29,8.71-8.65,9.5-14.74l13.62-105.26h-85.6Z" style="fill:url(#uuid-b6e332ae-6ebc-4edc-bcc1-8407fdf602de); stroke-width:0px;"/><path d="M382.2,1207.76s46.18,86.93,40.26,122.04c-5.92,35.11-63.15,32.59-113.13,4.07l-34.92-93.86,107.79-32.25Z" style="fill:url(#uuid-d3c350f2-9d7a-4a66-9a92-3510da5e5dd2); stroke-width:0px;"/><path d="M311.54,1287.78c2.03-.9,2.78-3.38,1.56-5.24-3.7-5.65-10.64-17.18-12.85-27.28,0,0-8.3-5.32,21.13-12.36,29.43-7.04,73.32-17.98,82.55-43.03,8.99-24.42-14.64-85.85-52.34-36.91-1.43,1.86-4.24,1.9-5.68.04-6.18-8.04-22.43-24.74-44.99-14.62-21.11,9.47-23.49,24.94-23.2,32.74.08,2.29-1.97,4.08-4.22,3.65-10.67-2.04-36.29-3.78-48.24,22.49-9.85,21.64-3.45,33.9,2.38,39.89,1.89,1.94,1.06,5.14-1.53,5.93-7.01,2.15-16.07,8.1-15.17,24.53,1.25,22.72,26.66,20.72,33.89,19.68,1.19-.17,2.38.24,3.18,1.12,6.2,6.86,34.14,36,64.38,39.52,2.62.3,4.65-2.28,3.79-4.77l-13.09-38.04c-.61-1.77.24-3.71,1.95-4.46l6.49-2.87Z" style="fill:url(#uuid-7713c0f8-2f7a-4cba-9d7f-9797519d9cff); stroke-width:0px;"/><path d="M316.8,1293.18s-32.88-22.56-35.28-3.56c-2.4,19,29.61,27.52,45.46,20.44l-10.18-16.87Z" style="fill:url(#uuid-a06e9e51-dc38-402a-81f2-aac739232e11); stroke-width:0px;"/></svg>