<?xml version="1.0" encoding="UTF-8"?><svg id="uuid-95fa8286-0a17-4c96-b1f1-01b34949b61c" xmlns="http://www.w3.org/2000/svg" xmlns:xlink="http://www.w3.org/1999/xlink" viewBox="0 0 2810.35 2772.83"><defs><linearGradient id="uuid-b6677afa-2a76-4edb-9bb8-92e60d5bbcac" x1="-3721.74" y1="-2766.19" x2="-3871.15" y2="-1696.55" gradientTransform="translate(-3424.51) rotate(-180) scale(1 -1)" gradientUnits="userSpaceOnUse"><stop offset="0" stop-color="#4f52ff"/><stop offset="1" stop-color="#4042e2"/></linearGradient><linearGradient id="uuid-3c94202c-daf4-49f8-b385-3eac550fa9cc" x1="-3458.63" y1="-175.95" x2="-4813.43" y2="3241.62" gradientTransform="translate(-3424.51 -16.85) rotate(178.75) scale(1 -1) skewX(1.25)" gradientUnits="userSpaceOnUse"><stop offset="0" stop-color="#a737d5"/><stop offset="1" stop-color="#ef497a"/></linearGradient><linearGradient id="uuid-d88b2f52-bf8f-41b3-bbba-163be7772390" x1="-4408.91" y1="2328.58" x2="-4414.42" y2="2047.55" gradientTransform="translate(-3424.51 -16.85) rotate(178.75) scale(1 -1) skewX(1.25)" gradientUnits="userSpaceOnUse"><stop offset="0" stop-color="#ff9085"/><stop offset="1" stop-color="#fb6fbb"/></linearGradient><linearGradient id="uuid-9e4f74e5-e96c-4cc8-bc5e-f88042bd079d" x1="-3721.74" y1="-2766.17" x2="-3871.16" y2="-1696.54" xlink:href="#uuid-b6677afa-2a76-4edb-9bb8-92e60d5bbcac"/><linearGradient id="uuid-6266abd9-b91e-45c8-a234-6f439df4190f" x1="-4390.82" y1="-166.36" x2="-4394.21" y2="193.58" xlink:href="#uuid-b6677afa-2a76-4edb-9bb8-92e60d5bbcac"/><linearGradient id="uuid-5a5294a2-1b4a-4203-b6a4-ad1985b667c3" x1="-3535.24" y1="-206.31" x2="-4890.04" y2="3211.25" xlink:href="#uuid-3c94202c-daf4-49f8-b385-3eac550fa9cc"/><linearGradient id="uuid-2a22a044-c517-493a-8b90-4c0ba2bef19e" x1="-4408.91" y1="2104.97" x2="-4414.42" y2="1823.94" xlink:href="#uuid-d88b2f52-bf8f-41b3-bbba-163be7772390"/><linearGradient id="uuid-ce79c9e4-2a00-4b9b-b8ee-884735cbcaa3" x1="-4390.82" y1="-166.36" x2="-4394.21" y2="193.58" xlink:href="#uuid-b6677afa-2a76-4edb-9bb8-92e60d5bbcac"/><linearGradient id="uuid-574887e7-3682-4a8c-8d4b-510469b9b989" x1="-4392.93" y1="-166.38" x2="-4396.33" y2="193.56" xlink:href="#uuid-b6677afa-2a76-4edb-9bb8-92e60d5bbcac"/><linearGradient id="uuid-3e1c41e1-afc5-4414-9061-24b138874230" x1="-3612.03" y1="-236.76" x2="-4966.83" y2="3180.8" xlink:href="#uuid-3c94202c-daf4-49f8-b385-3eac550fa9cc"/><linearGradient id="uuid-c6d33437-3bb3-431b-b228-37da2b24a284" x1="-4408.91" y1="1880.81" x2="-4414.42" y2="1599.78" xlink:href="#uuid-d88b2f52-bf8f-41b3-bbba-163be7772390"/><linearGradient id="uuid-5238e3b9-a130-4d0b-b2ac-f4654b74c8ae" x1="-4392.93" y1="-166.38" x2="-4396.33" y2="193.56" xlink:href="#uuid-b6677afa-2a76-4edb-9bb8-92e60d5bbcac"/><linearGradient id="uuid-ccf2de19-6d79-40dd-b42c-343522897a52" x1="-4395.05" y1="-166.4" x2="-4398.44" y2="193.54" xlink:href="#uuid-b6677afa-2a76-4edb-9bb8-92e60d5bbcac"/><linearGradient id="uuid-369a5338-4fd0-470a-be3b-7bf799c8ad52" x1="-3688.83" y1="-267.2" x2="-5043.63" y2="3150.37" xlink:href="#uuid-3c94202c-daf4-49f8-b385-3eac550fa9cc"/><linearGradient id="uuid-9a1589ff-6f27-4e60-b7e8-cf02375a3582" x1="-4408.91" y1="1656.65" x2="-4414.42" y2="1375.62" xlink:href="#uuid-d88b2f52-bf8f-41b3-bbba-163be7772390"/><linearGradient id="uuid-b98202f6-f2af-4d74-88d7-986789b2f93d" x1="-4395.05" y1="-166.39" x2="-4398.44" y2="193.55" xlink:href="#uuid-b6677afa-2a76-4edb-9bb8-92e60d5bbcac"/><linearGradient id="uuid-5e31d16b-cd41-4cc8-a359-02eeb3739c4f" x1="-4397.16" y1="-166.42" x2="-4400.56" y2="193.52" xlink:href="#uuid-b6677afa-2a76-4edb-9bb8-92e60d5bbcac"/><linearGradient id="uuid-e4009865-8235-4f86-bafd-befac6b477cc" x1="-3765.62" y1="-297.64" x2="-5120.42" y2="3119.92" xlink:href="#uuid-3c94202c-daf4-49f8-b385-3eac550fa9cc"/><linearGradient id="uuid-46bb6274-18c2-4e1a-b3f2-8f9e2d095ec1" x1="-4408.91" y1="1432.49" x2="-4414.42" y2="1151.46" xlink:href="#uuid-d88b2f52-bf8f-41b3-bbba-163be7772390"/><linearGradient id="uuid-48c0d117-0fb1-4c5e-830d-7987c24db6c8" x1="-4397.16" y1="-166.41" x2="-4400.56" y2="193.53" xlink:href="#uuid-b6677afa-2a76-4edb-9bb8-92e60d5bbcac"/><linearGradient id="uuid-ef82268e-3492-4ff6-a676-cad5ad1bff78" x1="-4399.27" y1="-166.44" x2="-4402.67" y2="193.5" xlink:href="#uuid-b6677afa-2a76-4edb-9bb8-92e60d5bbcac"/><linearGradient id="uuid-8d5f5847-4aa6-4ef2-b003-f6fb03575e7a" x1="-3842.42" y1="-328.08" x2="-5197.22" y2="3089.48" xlink:href="#uuid-3c94202c-daf4-49f8-b385-3eac550fa9cc"/><linearGradient id="uuid-0b0d4c39-d3e8-4130-b1e8-3a18d4bf06e3" y1="1208.33" y2="927.3" xlink:href="#uuid-d88b2f52-bf8f-41b3-bbba-163be7772390"/><linearGradient id="uuid-e01cea07-8218-494f-9e6c-2e98fb6b7a22" x1="-4399.27" y1="-166.44" x2="-4402.67" y2="193.5" xlink:href="#uuid-b6677afa-2a76-4edb-9bb8-92e60d5bbcac"/><linearGradient id="uuid-743f7c2f-5dbc-4477-8ae2-9d63d39a8c5a" x1="-4401.39" y1="-166.46" x2="-4404.78" y2="193.48" xlink:href="#uuid-b6677afa-2a76-4edb-9bb8-92e60d5bbcac"/><linearGradient id="uuid-b045ec23-ac11-41e9-ba94-d21bb872e736" x1="-3919.21" y1="-358.53" x2="-5274.01" y2="3059.03" xlink:href="#uuid-3c94202c-daf4-49f8-b385-3eac550fa9cc"/><linearGradient id="uuid-7a63ada9-fa71-4ab2-a0e3-5428d343cb9e" x1="-4408.91" y1="984.17" x2="-4414.42" y2="703.14" gradientTransform="translate(-3424.51 -16.85) rotate(178.75) scale(1 -1) skewX(1.25)" xlink:href="#uuid-b6677afa-2a76-4edb-9bb8-92e60d5bbcac"/><linearGradient id="uuid-e4b45d0f-a839-42c0-81b3-0c7ffa647be5" x1="-4401.39" y1="-166.46" x2="-4404.78" y2="193.48" xlink:href="#uuid-b6677afa-2a76-4edb-9bb8-92e60d5bbcac"/><linearGradient id="uuid-26023daa-aed7-4055-9830-66c9adab9b5f" x1="9144.11" y1="760.19" x2="8721.02" y2="1001.68" gradientTransform="translate(-7868.03)" gradientUnits="userSpaceOnUse"><stop offset="0" stop-color="#febbba"/><stop offset="1" stop-color="#ff928e"/></linearGradient><linearGradient id="uuid-6763c16e-18c1-466b-80a4-a1159d0d5aa4" x1="-363.7" y1="-1196.06" x2="-396.18" y2="-698.05" gradientTransform="translate(366.68 1914.53) rotate(-153.82) scale(1 -1)" gradientUnits="userSpaceOnUse"><stop offset="0" stop-color="#09005d"/><stop offset="1" stop-color="#1a0f91"/></linearGradient><linearGradient id="uuid-a04f81e7-debf-4c6f-bc35-65a6bf042373" x1="9103.18" y1="820.41" x2="10550.8" y2="-85.82" xlink:href="#uuid-26023daa-aed7-4055-9830-66c9adab9b5f"/><linearGradient id="uuid-b6e72a93-8527-4ca9-aaa4-a76b476bff0a" x1="384.32" y1="-1847.24" x2="351.84" y2="-1349.26" gradientTransform="translate(316.63 2816.24) rotate(-142.14) scale(1 -1)" xlink:href="#uuid-6763c16e-18c1-466b-80a4-a1159d0d5aa4"/><linearGradient id="uuid-b489366d-d86a-4275-8e88-051a4abe0c66" x1="820.73" y1="496.55" x2="299.6" y2="1438.59" gradientTransform="translate(-36.33)" xlink:href="#uuid-6763c16e-18c1-466b-80a4-a1159d0d5aa4"/><linearGradient id="uuid-9f355b20-fbfe-46d1-8921-d45fc7d948be" x1="1353.91" y1="29.59" x2="905.68" y2="294.45" gradientUnits="userSpaceOnUse"><stop offset="0" stop-color="#ff928e"/><stop offset="1" stop-color="#fe7062"/></linearGradient><linearGradient id="uuid-737a5952-14d3-4679-8c09-cf23be5ae1c7" x1="-1038.86" y1="385.81" x2="-1067.61" y2="201.36" gradientTransform="translate(-371.13) rotate(-180) scale(1 -1)" xlink:href="#uuid-26023daa-aed7-4055-9830-66c9adab9b5f"/><linearGradient id="uuid-9786192e-a5f8-416d-b092-c6541d396cb2" x1="1406.72" y1="-2728.62" x2="1592.48" y2="-2602.44" gradientTransform="translate(-50.1 3131.96) rotate(-136.3) scale(1 -1)" xlink:href="#uuid-26023daa-aed7-4055-9830-66c9adab9b5f"/><linearGradient id="uuid-8cb5307c-1824-4eb6-b60b-bb8939957ee7" x1="1730.91" y1="-2965.65" x2="1419.34" y2="-2641.5" gradientTransform="translate(-50.1 3131.96) rotate(-136.3) scale(1 -1)" xlink:href="#uuid-6763c16e-18c1-466b-80a4-a1159d0d5aa4"/><linearGradient id="uuid-f61bda86-04d1-456b-a8b9-85178fe7ef29" x1="1417.85" y1="-2745.01" x2="1603.61" y2="-2618.83" gradientTransform="translate(-50.1 3131.96) rotate(-136.3) scale(1 -1)" xlink:href="#uuid-26023daa-aed7-4055-9830-66c9adab9b5f"/><linearGradient id="uuid-2379a966-1b43-4ac5-a8bb-ca77c0c0faa8" x1="-906.17" y1="620.99" x2="-484.71" y2="620.99" gradientTransform="translate(-371.13) rotate(-180) scale(1 -1)" xlink:href="#uuid-26023daa-aed7-4055-9830-66c9adab9b5f"/><linearGradient id="uuid-b004fd0f-29c8-4374-a513-eb91b3d34ae3" x1="1508.45" y1="-2616.99" x2="1167.75" y2="-2262.52" gradientTransform="translate(38.83 2788.6) rotate(-141.33) scale(1 -1)" xlink:href="#uuid-6763c16e-18c1-466b-80a4-a1159d0d5aa4"/><linearGradient id="uuid-02759fd0-6705-42e0-b268-1612de6869cb" x1="746.94" y1="-4876.16" x2="604.32" y2="-4451.7" gradientTransform="translate(-352.31 -77.82) rotate(-177.17) scale(1 -1)" xlink:href="#uuid-b6677afa-2a76-4edb-9bb8-92e60d5bbcac"/><linearGradient id="uuid-e3c43734-3784-45cd-ba32-8dd8dc1305af" x1="608.8" y1="-5153.6" x2="466.19" y2="-4729.14" gradientTransform="translate(-371.13) rotate(-180) scale(1 -1)" xlink:href="#uuid-b6677afa-2a76-4edb-9bb8-92e60d5bbcac"/><linearGradient id="uuid-f0fcefa8-90e9-4158-9dcd-c8d4d784203e" x1="1591.92" y1="1115.13" x2="1062.15" y2="2521.08" xlink:href="#uuid-9f355b20-fbfe-46d1-8921-d45fc7d948be"/><linearGradient id="uuid-f3ceb2b1-bb33-43e8-83ff-a9db9b7dacbd" x1="1940.9" y1="779.27" x2="1794.89" y2="1234.29" xlink:href="#uuid-9f355b20-fbfe-46d1-8921-d45fc7d948be"/><linearGradient id="uuid-aa214b88-1ec8-42c9-93c5-46e09e2a0541" x1="696.94" y1="1945.45" x2="669.78" y2="2006.57" xlink:href="#uuid-9f355b20-fbfe-46d1-8921-d45fc7d948be"/><linearGradient id="uuid-61e46ce1-aefe-4c72-99bb-b637e4a85e18" x1="5499.06" y1="1025.72" x2="5427.05" y2="1127.32" gradientTransform="translate(7519.09) rotate(-180) scale(1 -1)" xlink:href="#uuid-26023daa-aed7-4055-9830-66c9adab9b5f"/><linearGradient id="uuid-f2bac1e9-511a-4cfa-a5a9-19aaa58a876c" x1="-6107.25" y1="2657.88" x2="-6635.91" y2="3072.99" gradientTransform="translate(8793.97)" xlink:href="#uuid-6763c16e-18c1-466b-80a4-a1159d0d5aa4"/><linearGradient id="uuid-aa086a1d-2a72-42d7-a74b-2a4a65d6299f" x1="4881.23" y1="2760.18" x2="5349.03" y2="2605.93" gradientTransform="translate(7519.09) rotate(-180) scale(1 -1)" xlink:href="#uuid-6763c16e-18c1-466b-80a4-a1159d0d5aa4"/><linearGradient id="uuid-e14a53a2-31b9-4187-8264-fdf0dad47846" x1="5019.3" y1="2544.27" x2="4991.55" y2="2786.53" gradientTransform="translate(7519.09) rotate(-180) scale(1 -1)" xlink:href="#uuid-26023daa-aed7-4055-9830-66c9adab9b5f"/><linearGradient id="uuid-4efc442c-15c6-4b9e-8856-0d7d55dcc3be" x1="5436.6" y1="2657.88" x2="4907.93" y2="3072.99" gradientTransform="translate(7519.09) rotate(-180) scale(1 -1)" xlink:href="#uuid-6763c16e-18c1-466b-80a4-a1159d0d5aa4"/><linearGradient id="uuid-26c1892c-0078-4d99-a1f8-dd38ac66f802" x1="5215.53" y1="2743.31" x2="5651.18" y2="2599.66" gradientTransform="translate(7519.09) rotate(-180) scale(1 -1)" xlink:href="#uuid-6763c16e-18c1-466b-80a4-a1159d0d5aa4"/><linearGradient id="uuid-d830e3d1-01f1-4776-9c75-da2a60d65200" x1="5245.41" y1="2570.18" x2="5217.66" y2="2812.43" gradientTransform="translate(7519.09) rotate(-180) scale(1 -1)" xlink:href="#uuid-26023daa-aed7-4055-9830-66c9adab9b5f"/><linearGradient id="uuid-6bbe6cea-1c6d-404d-99c7-a413f6d0a265" x1="2750.92" y1="1424.29" x2="2465.69" y2="2117" gradientTransform="matrix(1,0,0,1,0,0)" xlink:href="#uuid-b6677afa-2a76-4edb-9bb8-92e60d5bbcac"/><linearGradient id="uuid-9a98891f-65fb-45c9-b230-95461e676e28" x1="4863.59" y1="1312.89" x2="4960.92" y2="1033.44" gradientTransform="translate(7519.09) rotate(-180) scale(1 -1)" gradientUnits="userSpaceOnUse"><stop offset="0" stop-color="#53d8ff"/><stop offset="1" stop-color="#3840f7"/></linearGradient><linearGradient id="uuid-592bc2f9-962f-488b-bb30-c3b33a69e1f0" x1="2246.6" y1="985.45" x2="1643.4" y2="1657.25" gradientTransform="matrix(1,0,0,1,0,0)" xlink:href="#uuid-26023daa-aed7-4055-9830-66c9adab9b5f"/><linearGradient id="uuid-eb742580-b3d4-48ff-9205-8d7e41148e05" x1="3184.93" y1="-409.11" x2="2974.4" y2="86.66" xlink:href="#uuid-9f355b20-fbfe-46d1-8921-d45fc7d948be"/><linearGradient id="uuid-dca57cfa-23e5-4960-8031-1c8bfbe855ac" x1="4784.3" y1="1745.97" x2="5030.06" y2="1745.97" gradientTransform="translate(7519.09) rotate(-180) scale(1 -1)" xlink:href="#uuid-26023daa-aed7-4055-9830-66c9adab9b5f"/><linearGradient id="uuid-98bceeee-5586-4684-9251-ac77f9495f3c" x1="5080.63" y1="992.82" x2="4974.64" y2="1450.83" gradientTransform="translate(7519.09) rotate(-180) scale(1 -1)" xlink:href="#uuid-26023daa-aed7-4055-9830-66c9adab9b5f"/><linearGradient id="uuid-4c1a42f0-5fb3-4387-967d-7b7e3a1a8699" x1="3712.11" y1="449.97" x2="3524.09" y2="698.71" gradientTransform="translate(6051.14 1843.37) rotate(-158.94) scale(1 -1)" xlink:href="#uuid-26023daa-aed7-4055-9830-66c9adab9b5f"/><linearGradient id="uuid-bf77a829-acfd-4799-8cbe-95246ab5ea8a" x1="3568.51" y1="509.71" x2="3793.11" y2="509.71" gradientTransform="translate(6051.14 1843.37) rotate(-158.94) scale(1 -1)" xlink:href="#uuid-6763c16e-18c1-466b-80a4-a1159d0d5aa4"/><linearGradient id="uuid-c250ccb8-28d6-4304-8da9-1dcf5b428708" x1="3436.73" y1="646.95" x2="3587.54" y2="492.23" gradientTransform="translate(6051.14 1843.37) rotate(-158.94) scale(1 -1)" xlink:href="#uuid-26023daa-aed7-4055-9830-66c9adab9b5f"/><linearGradient id="uuid-47cd8e09-b772-4dc8-8871-2157f051d11c" x1="3041.74" y1="-469.91" x2="2831.21" y2="25.86" xlink:href="#uuid-9f355b20-fbfe-46d1-8921-d45fc7d948be"/><linearGradient id="uuid-39e437ff-582c-4d53-8ed5-dd0c650a73e9" x1="5581.59" y1="969.33" x2="5329.36" y2="1325.18" gradientTransform="translate(7519.09) rotate(-180) scale(1 -1)" xlink:href="#uuid-6763c16e-18c1-466b-80a4-a1159d0d5aa4"/><linearGradient id="uuid-a29af900-671e-49c2-a593-521397ea4e8e" x1="5564.22" y1="986.79" x2="5361.04" y2="1273.46" gradientTransform="translate(7519.09) rotate(-180) scale(1 -1)" xlink:href="#uuid-b6677afa-2a76-4edb-9bb8-92e60d5bbcac"/><linearGradient id="uuid-860fe16e-d5f7-44aa-b022-3e87c3701bf4" x1="5411.95" y1="3169.77" x2="5394.68" y2="3194.13" gradientTransform="translate(7655.83 444.61) rotate(-168.29) scale(1 -.53)" gradientUnits="userSpaceOnUse"><stop offset="0" stop-color="#8d55d1"/><stop offset="1" stop-color="#1c2873"/></linearGradient><linearGradient id="uuid-ac39ee1b-3060-473a-ba5d-ca35ff2e468e" x1="5587.3" y1="1006.26" x2="5438.24" y2="1216.56" gradientTransform="translate(7519.09) rotate(-180) scale(1 -1)" xlink:href="#uuid-26023daa-aed7-4055-9830-66c9adab9b5f"/></defs><path d="M1785.67,2110.59v117.98h-.17c-7.23,71.22-305.07,202-737.66,204.42-636.06,3.55-850.87-138.48-860.86-211.21h-.24v-108.71l1598.93-2.47Z" style="fill:url(#uuid-b6677afa-2a76-4edb-9bb8-92e60d5bbcac); stroke-width:0px;"/><path d="M186.74,2113.5c0,73.34,367,131.25,812.4,129.38,437.51-1.84,786.54-60.86,786.54-131.87s-349.03-128.95-786.54-129.42c-445.4-.48-812.4,58.57-812.4,131.91Z" style="fill:url(#uuid-3c94202c-daf4-49f8-b385-3eac550fa9cc); stroke-width:0px;"/><path d="M192.93,2104.58c0,72.79,364.2,130.39,806.3,128.68,434.39-1.68,781.02-60.18,781.02-130.68s-346.62-128.13-781.02-128.71c-442.1-.59-806.3,57.93-806.3,130.72Z" style="fill:url(#uuid-d88b2f52-bf8f-41b3-bbba-163be7772390); stroke-width:0px;"/><polygon points="186.74 2221.78 186.74 2113.07 1785.67 2110.59 1785.67 2228.57 186.74 2221.78" style="fill:url(#uuid-9e4f74e5-e96c-4cc8-bc5e-f88042bd079d); stroke-width:0px;"/><path d="M186.74,2113.5c0,73.34,367,131.25,812.4,129.38,437.51-1.84,786.54-60.86,786.54-131.87s-349.03-128.95-786.54-129.42c-445.4-.48-812.4,58.57-812.4,131.91Z" style="fill:#91b3fa; stroke-width:0px;"/><path d="M1785.67,1886.98v117.98h-.17c-7.23,71.22-305.07,195.8-737.66,193.58-685.51-3.52-850.87-127.64-860.86-200.37h-.24v-108.71l1598.93-2.47Z" style="fill:url(#uuid-6266abd9-b91e-45c8-a234-6f439df4190f); stroke-width:0px;"/><path d="M186.74,1889.89c0,73.34,367,131.25,812.4,129.38,437.51-1.84,786.54-60.86,786.54-131.87s-349.03-128.95-786.54-129.42c-445.4-.48-812.4,58.57-812.4,131.91Z" style="fill:url(#uuid-5a5294a2-1b4a-4203-b6a4-ad1985b667c3); stroke-width:0px;"/><path d="M192.93,1880.97c0,72.79,364.2,130.39,806.3,128.68,434.39-1.68,781.02-60.18,781.02-130.68s-346.62-128.13-781.02-128.71c-442.1-.59-806.3,57.93-806.3,130.72Z" style="fill:url(#uuid-2a22a044-c517-493a-8b90-4c0ba2bef19e); stroke-width:0px;"/><polygon points="186.74 1998.17 186.74 1889.46 1785.67 1886.98 1785.67 2004.96 186.74 1998.17" style="fill:url(#uuid-ce79c9e4-2a00-4b9b-b8ee-884735cbcaa3); stroke-width:0px;"/><path d="M186.74,1889.89c0,73.34,367,131.25,812.4,129.38,437.51-1.84,786.54-60.86,786.54-131.87s-349.03-128.95-786.54-129.42c-445.4-.48-812.4,58.57-812.4,131.91Z" style="fill:#91b3fa; stroke-width:0px;"/><path d="M1785.67,1662.82v117.98h-.17c-7.23,71.22-305.07,195.8-737.66,193.58-685.51-3.52-850.87-127.64-860.86-200.37h-.24v-108.71l1598.93-2.47Z" style="fill:url(#uuid-574887e7-3682-4a8c-8d4b-510469b9b989); stroke-width:0px;"/><path d="M186.74,1665.73c0,73.34,367,131.25,812.4,129.38,437.51-1.84,786.54-60.86,786.54-131.87s-349.03-128.94-786.54-129.42c-445.4-.48-812.4,58.57-812.4,131.91Z" style="fill:url(#uuid-3e1c41e1-afc5-4414-9061-24b138874230); stroke-width:0px;"/><path d="M192.93,1656.81c0,72.79,364.2,130.39,806.3,128.68,434.39-1.68,781.02-60.18,781.02-130.68s-346.62-128.13-781.02-128.71c-442.1-.59-806.3,57.93-806.3,130.72Z" style="fill:url(#uuid-c6d33437-3bb3-431b-b228-37da2b24a284); stroke-width:0px;"/><polygon points="186.74 1774.01 186.74 1665.3 1785.67 1662.82 1785.67 1780.8 186.74 1774.01" style="fill:url(#uuid-5238e3b9-a130-4d0b-b2ac-f4654b74c8ae); stroke-width:0px;"/><path d="M186.74,1665.73c0,73.34,367,131.25,812.4,129.38,437.51-1.84,786.54-60.86,786.54-131.87s-349.03-128.94-786.54-129.42c-445.4-.48-812.4,58.57-812.4,131.91Z" style="fill:#91b3fa; stroke-width:0px;"/><path d="M1785.67,1438.66v117.98h-.17c-7.23,71.22-305.07,195.8-737.66,193.58-685.51-3.52-850.87-127.64-860.86-200.37h-.24v-108.71l1598.93-2.47Z" style="fill:url(#uuid-ccf2de19-6d79-40dd-b42c-343522897a52); stroke-width:0px;"/><path d="M186.74,1441.57c0,73.34,367,131.25,812.4,129.38,437.51-1.84,786.54-60.86,786.54-131.87s-349.03-128.94-786.54-129.42c-445.4-.48-812.4,58.57-812.4,131.91Z" style="fill:url(#uuid-369a5338-4fd0-470a-be3b-7bf799c8ad52); stroke-width:0px;"/><path d="M192.93,1432.65c0,72.79,364.2,130.39,806.3,128.68,434.39-1.68,781.02-60.18,781.02-130.68s-346.62-128.13-781.02-128.71c-442.1-.59-806.3,57.93-806.3,130.72Z" style="fill:url(#uuid-9a1589ff-6f27-4e60-b7e8-cf02375a3582); stroke-width:0px;"/><polygon points="186.74 1549.85 186.74 1441.14 1785.67 1438.66 1785.67 1556.64 186.74 1549.85" style="fill:url(#uuid-b98202f6-f2af-4d74-88d7-986789b2f93d); stroke-width:0px;"/><path d="M186.74,1441.57c0,73.34,367,131.25,812.4,129.38,437.51-1.84,786.54-60.86,786.54-131.87s-349.03-128.94-786.54-129.42c-445.4-.48-812.4,58.57-812.4,131.91Z" style="fill:#91b3fa; stroke-width:0px;"/><path d="M1785.67,1214.5v117.98h-.17c-7.23,71.22-305.07,195.8-737.66,193.58-685.51-3.52-850.87-127.64-860.86-200.37h-.24v-108.71l1598.93-2.47Z" style="fill:url(#uuid-5e31d16b-cd41-4cc8-a359-02eeb3739c4f); stroke-width:0px;"/><path d="M186.74,1217.41c0,73.34,367,131.25,812.4,129.38,437.51-1.84,786.54-60.86,786.54-131.87s-349.03-128.95-786.54-129.42c-445.4-.48-812.4,58.57-812.4,131.91Z" style="fill:url(#uuid-e4009865-8235-4f86-bafd-befac6b477cc); stroke-width:0px;"/><path d="M192.93,1208.49c0,72.79,364.2,130.39,806.3,128.68,434.39-1.68,781.02-60.18,781.02-130.68s-346.62-128.13-781.02-128.71c-442.1-.59-806.3,57.93-806.3,130.72Z" style="fill:url(#uuid-46bb6274-18c2-4e1a-b3f2-8f9e2d095ec1); stroke-width:0px;"/><polygon points="186.74 1325.69 186.74 1216.98 1785.67 1214.5 1785.67 1332.48 186.74 1325.69" style="fill:url(#uuid-48c0d117-0fb1-4c5e-830d-7987c24db6c8); stroke-width:0px;"/><path d="M186.74,1217.41c0,73.34,367,131.25,812.4,129.38,437.51-1.84,786.54-60.86,786.54-131.87s-349.03-128.95-786.54-129.42c-445.4-.48-812.4,58.57-812.4,131.91Z" style="fill:#91b3fa; stroke-width:0px;"/><path d="M1785.67,990.34v117.98h-.17c-7.23,71.22-305.07,195.8-737.66,193.57-685.51-3.52-850.87-127.64-860.86-200.37h-.24v-108.71l1598.93-2.47Z" style="fill:url(#uuid-ef82268e-3492-4ff6-a676-cad5ad1bff78); stroke-width:0px;"/><path d="M186.74,993.25c0,73.34,367,131.25,812.4,129.38,437.51-1.84,786.54-60.87,786.54-131.87s-349.03-128.95-786.54-129.42c-445.4-.48-812.4,58.57-812.4,131.91Z" style="fill:url(#uuid-8d5f5847-4aa6-4ef2-b003-f6fb03575e7a); stroke-width:0px;"/><path d="M192.93,984.33c0,72.79,364.2,130.39,806.3,128.68,434.39-1.68,781.02-60.18,781.02-130.68s-346.62-128.13-781.02-128.71c-442.1-.59-806.3,57.93-806.3,130.72Z" style="fill:url(#uuid-0b0d4c39-d3e8-4130-b1e8-3a18d4bf06e3); stroke-width:0px;"/><polygon points="186.74 1101.53 186.74 992.82 1785.67 990.34 1785.67 1108.32 186.74 1101.53" style="fill:url(#uuid-e01cea07-8218-494f-9e6c-2e98fb6b7a22); stroke-width:0px;"/><path d="M186.74,993.25c0,73.34,367,131.25,812.4,129.38,437.51-1.84,786.54-60.87,786.54-131.87s-349.03-128.95-786.54-129.42c-445.4-.48-812.4,58.57-812.4,131.91Z" style="fill:#91b3fa; stroke-width:0px;"/><path d="M1785.67,766.18v117.98h-.17c-7.23,71.22-305.07,195.8-737.66,193.58-685.51-3.52-850.87-127.64-860.86-200.37h-.24v-108.71l1598.93-2.47Z" style="fill:url(#uuid-743f7c2f-5dbc-4477-8ae2-9d63d39a8c5a); stroke-width:0px;"/><path d="M186.74,769.09c0,73.34,367,131.25,812.4,129.38,437.51-1.84,786.54-60.86,786.54-131.87s-349.03-128.95-786.54-129.42c-445.4-.48-812.4,58.57-812.4,131.91Z" style="fill:url(#uuid-b045ec23-ac11-41e9-ba94-d21bb872e736); stroke-width:0px;"/><path d="M192.93,760.17c0,72.79,364.2,130.39,806.3,128.68,434.39-1.68,781.02-60.18,781.02-130.68s-346.62-128.13-781.02-128.71c-442.1-.59-806.3,57.93-806.3,130.72Z" style="fill:url(#uuid-7a63ada9-fa71-4ab2-a0e3-5428d343cb9e); stroke-width:0px;"/><polygon points="186.74 877.37 186.74 768.66 1785.67 766.18 1785.67 884.16 186.74 877.37" style="fill:url(#uuid-e4b45d0f-a839-42c0-81b3-0c7ffa647be5); stroke-width:0px;"/><path d="M186.74,769.09c0,73.34,367,131.25,812.4,129.38,437.51-1.84,786.54-60.86,786.54-131.87s-349.03-128.95-786.54-129.42c-445.4-.48-812.4,58.57-812.4,131.91Z" style="fill:#91b3fa; stroke-width:0px;"/><path d="M2171.19,1832.47c-9.29-.22-16.76-7.72-16.93-17-1.73-95.21-31.43-567.95-447.76-666.75-463.51-109.98-675.62,361.38-675.62,361.38,0,0-573.49-219.97-683.47,369.23-359.59,86.3-453.02,555.91-219.13,785.38,37.16,36.46,86.97,57.07,139.03,57.54l2251.97,20.29c66.1.6,124.7-42.66,143.48-106.04,70.34-237.43,162.55-788.71-491.57-804.03Z" style="fill:#bdd0fb; stroke-width:0px;"/><path d="M2119.72,1842.57c-9.27-.22-16.73-7.7-16.92-16.97-1.84-91.32-31.25-529.68-423.37-621.57-438.28-102.71-638.84,337.47-638.84,337.47,0,0-542.27-205.42-646.27,344.81-336.76,79.82-426.64,510.75-213.48,727.19,37.37,37.94,88.26,59.52,141.51,59.99l2119.93,18.86c66.24.59,124.94-42.87,143.58-106.44,66.11-225.47,144.57-728.73-466.13-743.35Z" style="fill:#7d97f4; stroke-width:0px;"/><path d="M1211.75,1153.88c-.5-.19-268.86-470.16-305.13-514.39-6.1-7.44-15.54-11.23-25.1-10.09l-74.9,8.93-88,190.37,146.6-85.38c-14.51,100.33,173.82,249.42,238.41,303.83,6.55,5.52,7.09,15.41,1.17,21.61l-25.79,26.99c42.33,42.91,91.18,70.46,146.32,83.21l-13.59-25.08Z" style="fill:url(#uuid-26023daa-aed7-4055-9830-66c9adab9b5f); stroke-width:0px;"/><path d="M1093.94,1081.18s-16.46,5.32-22.03,19.97c-2.67,7.01.21,14.96,6.31,19.33,27.1,19.41,116.48,82.09,157.73,94.37,3.38,1.01,6.6-2.05,5.84-5.5-2.12-9.58-8.96-28.72-31.02-56.73l1.98,4c2.5,5.07-3.01,10.34-7.93,7.56-27.59-15.57-83.78-49.66-110.87-83.01Z" style="fill:url(#uuid-6763c16e-18c1-466b-80a4-a1159d0d5aa4); stroke-width:0px;"/><path d="M1107.23,1269.23c-.45-.29-40.71-97.3-41.16-97.58-36.92-224.76-126.99-417.26-153.55-467.91-4.47-8.52-12.95-14.14-22.54-14.96l-75.16-6.42-124.7,168.62,160.85-53.94c-34.51,95.31,119.75,279.44,171.99,345.79,5.3,6.73,3.83,16.53-3.22,21.4l-30.72,21.22c32.77,50.59,75.04,87.46,126.45,111.1l-8.24-27.31Z" style="fill:url(#uuid-a04f81e7-debf-4c6f-bc35-65a6bf042373); stroke-width:0px;"/><path d="M1006.56,1174.19s-17.19,1.88-25.61,15.1c-4.03,6.33-2.82,14.69,2.26,20.2,22.61,24.5,97.46,103.97,135.37,124.34,3.11,1.67,6.88-.68,6.83-4.2-.13-9.81-2.97-29.94-18.9-61.84l1.13,4.32c1.43,5.47-5.04,9.52-9.3,5.8-23.87-20.84-72-65.59-91.78-103.73Z" style="fill:url(#uuid-b6e72a93-8527-4ca9-aaa4-a76b476bff0a); stroke-width:0px;"/><path d="M463,646.84s-67.99,101.13-73.57,147.26c-5.58,46.13,18.8,62.08,89.97,67.97,211.78,17.51,316.17-45.96,316.17-45.96,14.49-92.37,24.8-115.87,145.79-166.09,0,0-153.03,12.15-183.83.2-30.8-11.95-294.52-3.37-294.52-3.37Z" style="fill:url(#uuid-b489366d-d86a-4275-8e88-051a4abe0c66); stroke-width:0px;"/><path d="M646.88,633.46s79.18-75.39,118.15-125.33c21.07-26.99,27.68-62.53,17.94-95.36-17.79-59.95-49.42-122.04-52.3-131.7-4.42-14.81-93.2-14.2-93.2-14.2,0,0-174.7,113.38-243.34,305.44l77.09,24s45.61-76.53,90.68-125.18c0,0-77.99,103.02-80.73,145.2l165.71,17.13Z" style="fill:url(#uuid-9f355b20-fbfe-46d1-8921-d45fc7d948be); stroke-width:0px;"/><path d="M741.41,198.28c-.93,3.08-24.1,79.9-25.91,81.49s-50.82,4.23-73.88-11.53l47.08-104.15,52.72,34.19Z" style="fill:url(#uuid-737a5952-14d3-4679-8c09-cf23be5ae1c7); stroke-width:0px;"/><path d="M805.14,111.99s16.5,38.11-2.89,96.04c-19.38,57.93-51.06,62.97-71.12,48.65-20.06-14.32-46.07-39.91-49.31-92.39-3.23-52.48,100.59-100.49,123.31-52.29Z" style="fill:url(#uuid-9786192e-a5f8-416d-b092-c6541d396cb2); stroke-width:0px;"/><path d="M720.97,160.87s35.01-78.41,87.51-29.57l4.05,20.18s50-14.24,33.57-59.55c-16.43-45.31-76.18-76.04-129.66-46.67-53.48,29.36-71.65,63.95-68.78,105.2,2.87,41.24,33.79,27.13,33.79,27.13,0,0,5.95-30.32,20.47-35.71,14.52-5.39,14.21,17.56,14.21,17.56l4.84,1.43Z" style="fill:url(#uuid-8cb5307c-1824-4eb6-b60b-bb8939957ee7); stroke-width:0px;"/><path d="M708.93,161.83s18.23-40.2-7.31-41.65c-25.54-1.45-15.15,38.75-10.06,53.42l17.36-11.77Z" style="fill:url(#uuid-f61bda86-04d1-456b-a8b9-85178fe7ef29); stroke-width:0px;"/><path d="M797.74,663.21l-59.49-64.73-68.71,18.5s-80.1,12.41-125.95,0l-45.85-12.41-103.6-32.25-16.27,45.99c-4.13,11.67.02,24.64,10.12,31.81,8.96,6.37,19.47,13.37,26.17,16.3,13.64,5.97,314.3,1.89,314.3,1.89l69.3-5.09Z" style="fill:url(#uuid-2379a966-1b43-4ac5-a8bb-ca77c0c0faa8); stroke-width:0px;"/><path d="M694.44,74.33c14.31-1.74,20.06-19.42,10.33-30.05-31.41-34.32-90.7-72.4-175.16-13.97-95.15,65.82-146.63,95.6-170,89.35-15.35-4.1-28.7,11.08-21.45,25.22,5.36,10.45,16.27,21.37,36.43,31.32,155.53,76.74,235.93-91.65,319.84-101.87Z" style="fill:url(#uuid-b004fd0f-29c8-4374-a513-eb91b3d34ae3); stroke-width:0px;"/><path d="M600.8,688.83c.21.01.42.02.63.01l273.65-.3c6.77,0,12.24-5.5,12.24-12.26,0-6.77-5.52-12.36-12.26-12.24l-273.65.3c-6.76,0-12.24,5.5-12.24,12.26,0,6.55,5.16,11.9,11.63,12.22Z" style="fill:url(#uuid-02759fd0-6705-42e0-b268-1612de6869cb); stroke-width:0px;"/><path d="M1121.08,440.37h-227.9c-16.81,0-32.11,9.7-39.29,24.91l-105.36,223.4h283.22c10.83,0,20.57-6.62,24.55-16.7l81.7-206.73c4.72-11.94-4.08-24.89-16.93-24.89Z" style="fill:url(#uuid-e3c43734-3784-45cd-ba32-8dd8dc1305af); stroke-width:0px;"/><path d="M960.52,554.92c-4.94,15.34-1.29,30.24,8.15,33.28,9.44,3.04,21.09-6.94,26.03-22.28,4.94-15.34,1.29-30.24-8.15-33.28-9.44-3.04-21.09,6.94-26.03,22.28Z" style="fill:#91b3fa; stroke-width:0px;"/><g style="opacity:.64;"><path d="M727.9,2198.15c-4.28,0-8.23-2.8-9.5-7.12-1.51-5.16-2.95-10.34-4.32-15.56-1.39-5.29,1.78-10.71,7.08-12.1,5.28-1.37,10.7,1.78,12.1,7.08,1.31,5.02,2.7,10.02,4.16,14.98,1.54,5.25-1.46,10.76-6.71,12.3-.93.27-1.87.41-2.8.41Z" style="fill:#fff; stroke-width:0px;"/><path d="M713.04,2132.57c-4.78,0-8.99-3.46-9.77-8.33-1.7-10.51-3.11-21.26-4.2-31.96-.55-5.45,3.41-10.31,8.85-10.86,5.5-.53,10.31,3.41,10.86,8.85,1.05,10.32,2.41,20.69,4.04,30.82.87,5.4-2.8,10.49-8.21,11.36-.53.09-1.06.13-1.59.13ZM706.19,2049.83c-5.44,0-9.87-4.39-9.91-9.84v-3.28c0-9.54.25-19.29.75-28.96.29-5.46,5.02-9.68,10.41-9.38,5.47.29,9.66,4.95,9.38,10.41-.49,9.32-.73,18.73-.73,27.97v3.1c.05,5.47-4.35,9.94-9.83,9.98h-.07ZM712.01,1967.02c-.48,0-.96-.03-1.45-.1-5.41-.79-9.16-5.83-8.36-11.24,1.55-10.55,3.44-21.23,5.61-31.73,1.11-5.36,6.37-8.81,11.71-7.69,5.36,1.11,8.81,6.36,7.69,11.71-2.1,10.12-3.92,20.41-5.41,30.59-.72,4.93-4.95,8.47-9.79,8.47ZM730.34,1886.08c-.97,0-1.96-.14-2.93-.45-5.23-1.62-8.16-7.17-6.54-12.4,3.16-10.19,6.66-20.46,10.43-30.49,1.92-5.13,7.64-7.72,12.75-5.8,5.12,1.92,7.72,7.63,5.8,12.75-3.63,9.68-7.01,19.57-10.05,29.4-1.32,4.25-5.24,6.98-9.46,6.98ZM760.93,1808.91c-1.46,0-2.95-.32-4.35-1.01-4.92-2.4-6.95-8.34-4.54-13.25,4.71-9.63,9.77-19.24,15.03-28.56,2.69-4.77,8.74-6.45,13.5-3.76,4.77,2.69,6.45,8.73,3.76,13.5-5.07,8.99-9.95,18.25-14.49,27.53-1.72,3.51-5.24,5.56-8.91,5.56ZM803.08,1737.35c-1.96,0-3.94-.58-5.67-1.78-4.49-3.13-5.58-9.31-2.45-13.8,6.13-8.78,12.61-17.49,19.24-25.89,3.39-4.29,9.62-5.04,13.91-1.64,4.3,3.39,5.03,9.62,1.64,13.91-6.39,8.09-12.63,16.49-18.54,24.96-1.93,2.76-5,4.23-8.13,4.23ZM855.72,1673.12c-2.46,0-4.93-.91-6.85-2.75-3.96-3.78-4.1-10.06-.31-14.01,7.37-7.71,15.1-15.33,22.95-22.64,4.01-3.73,10.28-3.5,14,.5,3.73,4.01,3.5,10.27-.5,14-7.57,7.05-15.02,14.39-22.13,21.83-1.95,2.04-4.55,3.06-7.16,3.06ZM917.53,1617.69c-2.98,0-5.91-1.33-7.87-3.87-3.33-4.34-2.51-10.56,1.83-13.9,8.46-6.49,17.25-12.84,26.12-18.87,4.52-3.07,10.69-1.9,13.76,2.63,3.07,4.52,1.9,10.69-2.63,13.76-8.55,5.81-17.02,11.93-25.18,18.19-1.8,1.38-3.92,2.05-6.03,2.05ZM987.05,1572.33c-3.5,0-6.89-1.86-8.7-5.15-2.63-4.8-.87-10.82,3.93-13.45,9.36-5.13,19-10.06,28.67-14.65,4.95-2.35,10.86-.24,13.2,4.7,2.35,4.95.24,10.85-4.7,13.2-9.33,4.42-18.63,9.18-27.65,14.12-1.51.83-3.14,1.22-4.75,1.22ZM1496.16,1567.45c-1.55,0-3.12-.36-4.58-1.13-9.15-4.78-18.56-9.35-27.95-13.59-4.99-2.24-7.21-8.11-4.97-13.1,2.24-4.99,8.12-7.21,13.1-4.97,9.75,4.39,19.5,9.13,29,14.1,4.85,2.54,6.73,8.52,4.19,13.37-1.77,3.38-5.22,5.32-8.79,5.32ZM1062.66,1538.18c-4.05,0-7.86-2.51-9.32-6.54-1.86-5.14.8-10.83,5.95-12.69,10.03-3.63,20.32-7.01,30.57-10.06,5.24-1.55,10.76,1.43,12.32,6.68,1.56,5.24-1.43,10.76-6.68,12.32-9.88,2.93-19.79,6.19-29.46,9.69-1.11.4-2.25.6-3.37.6ZM1419.84,1534.78c-1.05,0-2.12-.17-3.18-.53-9.81-3.32-19.81-6.39-29.72-9.1-5.28-1.45-8.38-6.9-6.93-12.18,1.45-5.28,6.92-8.37,12.18-6.93,10.28,2.82,20.65,6,30.82,9.44,5.18,1.75,7.96,7.38,6.21,12.56-1.4,4.13-5.25,6.73-9.39,6.73ZM1142.6,1516.07c-4.64,0-8.79-3.28-9.71-8.02-1.05-5.37,2.46-10.57,7.83-11.62,10.47-2.04,21.17-3.8,31.8-5.22,5.43-.74,10.41,3.08,11.14,8.5.73,5.42-3.08,10.41-8.5,11.14-10.25,1.37-20.56,3.07-30.65,5.04-.64.12-1.28.18-1.9.18ZM1339.39,1514.28c-.57,0-1.13-.05-1.71-.15-10.14-1.77-20.49-3.26-30.76-4.44-5.44-.62-9.34-5.54-8.71-10.97.62-5.43,5.53-9.41,10.97-8.71,10.65,1.22,21.38,2.77,31.9,4.6,5.39.94,9,6.07,8.06,11.46-.84,4.81-5.02,8.21-9.75,8.21ZM1225.05,1506.56c-5.3,0-9.69-4.2-9.89-9.54-.2-5.47,4.06-10.07,9.53-10.27,10.65-.4,21.46-.5,32.23-.27,5.47.11,9.82,4.64,9.7,10.11-.11,5.47-4.63,9.94-10.11,9.7-10.4-.21-20.82-.12-31.08.26-.13,0-.25,0-.38,0Z" style="fill:#fff; stroke-width:0px;"/><path d="M1554,1602.5c-1.95,0-3.92-.57-5.65-1.77-4.25-2.96-8.55-5.86-12.9-8.69-4.58-2.99-5.88-9.13-2.88-13.71,3-4.58,9.13-5.87,13.71-2.88,4.51,2.94,8.97,5.95,13.38,9.01,4.49,3.12,5.6,9.3,2.48,13.79-1.92,2.77-5.01,4.25-8.14,4.25Z" style="fill:#fff; stroke-width:0px;"/></g><g style="opacity:.64;"><path d="M1778.2,1953.95c-4.73,0-8.92-3.4-9.75-8.22-.88-5.12-1.83-10.22-2.87-15.28-1.1-5.36,2.36-10.59,7.73-11.68,5.33-1.11,10.59,2.36,11.68,7.73,1.07,5.26,2.06,10.55,2.98,15.87.93,5.39-2.69,10.52-8.08,11.45-.57.1-1.14.14-1.7.14Z" style="fill:#fff; stroke-width:0px;"/><path d="M1236.77,2585.93h-.19c-9.42-.17-18.98-.59-28.42-1.25l-3.24-.23c-5.46-.39-9.56-5.14-9.17-10.6.39-5.46,5.2-9.61,10.6-9.17l3.17.22c9.11.63,18.33,1.03,27.42,1.2,5.47.1,9.83,4.62,9.73,10.09-.1,5.41-4.52,9.73-9.9,9.73ZM1287.33,2584.49c-5.13,0-9.48-3.96-9.87-9.16-.41-5.46,3.68-10.21,9.13-10.63,10.15-.77,20.38-1.83,30.41-3.17,5.4-.75,10.4,3.08,11.13,8.51.73,5.42-3.08,10.41-8.51,11.13-10.4,1.39-21.02,2.5-31.54,3.3-.26.02-.51.03-.76.03ZM1155.41,2578.37c-.55,0-1.1-.04-1.66-.14-10.42-1.76-20.89-3.85-31.12-6.19-5.33-1.22-8.67-6.54-7.44-11.87s6.52-8.67,11.87-7.44c9.86,2.26,19.95,4.27,30,5.97,5.4.91,9.03,6.03,8.12,11.42-.82,4.83-5.01,8.26-9.76,8.26ZM1368.09,2572.19c-4.51,0-8.58-3.1-9.65-7.68-1.23-5.33,2.09-10.66,7.42-11.89,9.91-2.3,19.86-4.9,29.56-7.76,5.26-1.55,10.76,1.46,12.3,6.71,1.54,5.25-1.46,10.76-6.71,12.3-10.07,2.96-20.4,5.67-30.68,8.05-.75.17-1.51.26-2.24.26ZM1076.09,2558.67c-1.03,0-2.08-.16-3.11-.51-10.01-3.31-20.05-6.96-29.83-10.84-5.09-2.02-7.57-7.78-5.55-12.86,2.02-5.09,7.78-7.57,12.86-5.55,9.42,3.74,19.09,7.25,28.74,10.45,5.19,1.72,8.02,7.32,6.29,12.52-1.37,4.16-5.25,6.8-9.41,6.8ZM1446.05,2547.75c-3.94,0-7.66-2.36-9.2-6.24-2.03-5.08.44-10.85,5.52-12.88,9.42-3.76,18.84-7.85,28.01-12.14,4.96-2.33,10.86-.18,13.18,4.77,2.32,4.96.19,10.86-4.77,13.18-9.52,4.46-19.3,8.7-29.07,12.6-1.21.48-2.45.71-3.67.71ZM1000.69,2527.17c-1.52,0-3.05-.35-4.5-1.09-9.38-4.79-18.74-9.92-27.83-15.24-4.72-2.77-6.31-8.84-3.54-13.56,2.77-4.72,8.84-6.3,13.56-3.54,8.76,5.14,17.78,10.08,26.81,14.69,4.87,2.49,6.81,8.46,4.32,13.33-1.75,3.43-5.23,5.41-8.83,5.41ZM1519.37,2511.8c-3.39,0-6.7-1.75-8.55-4.88-2.78-4.71-1.2-10.79,3.51-13.56,8.76-5.16,17.48-10.62,25.89-16.24,4.55-3.04,10.7-1.82,13.74,2.74,3.04,4.55,1.82,10.71-2.74,13.74-8.73,5.83-17.76,11.5-26.85,16.84-1.58.93-3.31,1.37-5.02,1.37ZM1586.46,2465.22c-2.88,0-5.74-1.25-7.7-3.66-3.45-4.25-2.81-10.49,1.44-13.94,7.88-6.4,15.67-13.11,23.17-19.95,4.04-3.69,10.31-3.4,14,.64,3.69,4.04,3.4,10.31-.64,14-7.78,7.1-15.86,14.06-24.02,20.7-1.84,1.49-4.05,2.22-6.24,2.22ZM1645.8,2409.08c-2.38,0-4.76-.85-6.66-2.58-4.05-3.68-4.35-9.94-.67-14,6.86-7.55,13.57-15.36,19.93-23.22,3.44-4.25,9.68-4.91,13.94-1.47,4.25,3.44,4.91,9.68,1.47,13.94-6.6,8.15-13.55,16.25-20.66,24.08-1.96,2.15-4.64,3.24-7.34,3.24ZM1696.05,2344.65c-1.89,0-3.79-.53-5.48-1.66-4.56-3.03-5.8-9.18-2.77-13.74,5.62-8.46,11.07-17.2,16.2-25.96,2.76-4.73,8.84-6.32,13.55-3.56,4.73,2.76,6.32,8.83,3.56,13.55-5.31,9.1-10.97,18.16-16.8,26.94-1.91,2.87-5.05,4.42-8.26,4.42ZM1735.99,2273.37c-1.39,0-2.81-.3-4.16-.92-4.96-2.3-7.12-8.19-4.82-13.16,4.29-9.25,8.36-18.72,12.08-28.15,2.02-5.09,7.77-7.58,12.86-5.57,5.09,2.01,7.58,7.77,5.57,12.86-3.87,9.78-8.08,19.6-12.53,29.2-1.68,3.62-5.26,5.74-9,5.74ZM1764.66,2196.81c-.91,0-1.84-.13-2.76-.39-5.26-1.52-8.28-7.02-6.76-12.27,2.83-9.76,5.4-19.72,7.65-29.59,1.21-5.34,6.51-8.7,11.86-7.46,5.34,1.22,8.68,6.53,7.46,11.86-2.33,10.25-5,20.58-7.93,30.71-1.25,4.33-5.21,7.16-9.51,7.16ZM1781.37,2116.86c-.43,0-.86-.03-1.3-.09-5.43-.71-9.25-5.69-8.53-11.11,1.32-10.04,2.36-20.27,3.12-30.42.4-5.45,5.15-9.54,10.61-9.15,5.46.4,9.55,5.16,9.15,10.61-.78,10.51-1.87,21.13-3.23,31.53-.65,4.99-4.91,8.62-9.81,8.62ZM1785.92,2035.29c-5.38,0-9.8-4.31-9.91-9.72-.19-10.13-.68-20.41-1.46-30.54-.42-5.46,3.67-10.22,9.12-10.64,5.41-.4,10.22,3.67,10.64,9.12.8,10.51,1.31,21.17,1.51,31.69.1,5.47-4.25,9.99-9.72,10.09h-.19Z" style="fill:#fff; stroke-width:0px;"/><path d="M930.7,2484.39c-2.01,0-4.04-.61-5.79-1.87-4.36-3.15-8.68-6.36-12.94-9.63-4.34-3.33-5.16-9.55-1.83-13.89,3.33-4.34,9.54-5.17,13.89-1.83,4.11,3.15,8.27,6.25,12.48,9.28,4.44,3.2,5.44,9.4,2.24,13.83-1.94,2.69-4.97,4.11-8.04,4.11Z" style="fill:#fff; stroke-width:0px;"/></g><path d="M954.55,2331.19c1.75,2.14,4.66,2.94,7.26,1.99l74.02-27.22c29.18,22.47,62.15,40.46,98,52.78l18.05,76.72c.63,2.69,2.9,4.68,5.65,4.96l94.12,9.53c2.75.28,5.38-1.22,6.53-3.73l33.07-71.54c37.59-4.88,73.5-15.89,106.59-32.05l67.06,41.51c2.35,1.45,5.37,1.26,7.51-.49l73.3-59.81c2.14-1.75,2.94-4.66,1.98-7.26l-27.22-74.02c22.47-29.18,40.46-62.16,52.78-98l76.72-18.05c2.69-.63,4.68-2.9,4.96-5.65l9.53-94.12c.28-2.75-1.22-5.38-3.73-6.53l-71.54-33.07c-4.88-37.59-15.88-73.5-32.05-106.59l41.51-67.06c1.45-2.35,1.26-5.37-.49-7.51l-59.81-73.29c-1.75-2.14-4.66-2.94-7.26-1.99l-74.02,27.22c-29.18-22.48-62.16-40.46-98-52.78l-18.05-76.72c-.63-2.69-2.9-4.68-5.65-4.96l-94.12-9.53c-2.75-.28-5.37,1.22-6.53,3.73l-33.07,71.54c-37.59,4.88-73.5,15.89-106.59,32.05l-67.06-41.51c-2.35-1.46-5.37-1.26-7.51.49l-73.29,59.81c-2.14,1.75-2.94,4.66-1.98,7.26l27.22,74.02c-22.47,29.18-40.46,62.16-52.77,98l-76.72,18.05c-2.69.63-4.68,2.9-4.96,5.65l-9.53,94.12c-.28,2.75,1.22,5.38,3.73,6.54l71.54,33.07c4.88,37.59,15.89,73.5,32.05,106.59l-41.51,67.06c-1.46,2.35-1.26,5.36.49,7.51l59.81,73.29Z" style="fill:url(#uuid-f0fcefa8-90e9-4158-9dcd-c8d4d784203e); stroke-width:0px;"/><path d="M1246.41,2123.87c-44.81,0-84.16-32.91-90.89-78.54-7.39-50.14,27.39-96.95,77.54-104.35,24.27-3.58,48.52,2.51,68.24,17.16,19.71,14.65,32.53,36.09,36.11,60.38,7.39,50.15-27.39,96.96-77.54,104.35h0c-4.52.67-9.02.99-13.46.99ZM1258.71,2115.04h.04-.04ZM1246.62,1955.84c-3.74,0-7.49.28-11.25.83-41.5,6.12-70.29,44.86-64.17,86.35,6.11,41.5,44.83,70.27,86.35,64.17h0c41.5-6.12,70.29-44.86,64.17-86.35-2.96-20.1-13.57-37.85-29.88-49.97-13.26-9.85-28.99-15.03-45.22-15.03Z" style="fill:#fff; stroke-width:0px;"/><path d="M1248.34,2262.8c-7.91,0-15.86-.4-23.83-1.21h0c-12.7-1.29-25.29-3.61-37.54-6.92-.32-.09-.63-.17-.95-.26-.38-.1-.75-.21-1.12-.31-.24-.07-.48-.13-.71-.2-1.09-.31-2.18-.62-3.26-.95-1.61-.48-3.21-.98-4.81-1.5-1.68-.54-2.74-2.09-2.74-3.77,0-.41.06-.82.19-1.23.67-2.08,2.91-3.22,4.99-2.55,15.09,4.89,30.82,8.19,46.74,9.8,59.63,6.05,118.01-11.5,164.42-49.38,46.42-37.88,75.31-91.57,81.35-151.18.78-7.66,1.16-15.27,1.15-22.81-.02-113.59-86.32-211.27-201.71-222.96-123.07-12.45-233.31,77.5-245.77,200.56-.77,7.59-1.15,15.18-1.15,22.76,0,32.83,7.2,65.3,21.17,95.04.26.54.38,1.12.38,1.68,0,1.49-.84,2.91-2.28,3.59-1.98.93-4.34.08-5.27-1.9-14.47-30.79-21.91-64.41-21.92-98.4,0-7.84.39-15.71,1.19-23.56,12.91-127.4,127.09-220.55,254.46-207.65,119.47,12.1,208.82,113.24,208.84,230.84,0,7.81-.39,15.69-1.19,23.62-6.25,61.72-36.16,117.3-84.22,156.52-41.85,34.15-93.11,52.33-146.4,52.33Z" style="fill:#fff; stroke-width:0px;"/><g style="opacity:.64;"><path d="M1502.57,1597.12c-2.06,0-3.95-1.34-4.56-3.41-1.13-3.83-2.16-7.78-3.09-11.77-.59-2.56,1-5.11,3.56-5.71,2.58-.59,5.12,1,5.71,3.56.88,3.8,1.87,7.58,2.94,11.23.74,2.52-.7,5.16-3.22,5.9-.45.13-.9.19-1.34.19Z" style="fill:#fff; stroke-width:0px;"/><path d="M1495.68,1563.12c-2.39,0-4.44-1.79-4.72-4.21-.88-7.69-1.34-15.54-1.37-23.33,0-2.62,2.11-4.76,4.74-4.77h.01c2.62,0,4.75,2.12,4.76,4.74.02,7.44.46,14.93,1.3,22.27.3,2.61-1.57,4.97-4.18,5.27-.19.02-.37.03-.55.03ZM1495.54,1517.53c-.17,0-.34,0-.51-.03-2.61-.28-4.5-2.62-4.22-5.23.83-7.74,2.1-15.49,3.78-23.05.57-2.56,3.13-4.15,5.68-3.61,2.56.57,4.18,3.11,3.61,5.68-1.6,7.21-2.82,14.61-3.61,22-.26,2.44-2.32,4.25-4.72,4.25ZM1505.42,1473.02c-.51,0-1.03-.08-1.54-.26-2.48-.85-3.81-3.56-2.96-6.04,2.53-7.36,5.49-14.64,8.82-21.65,1.13-2.37,3.96-3.38,6.33-2.26,2.37,1.12,3.39,3.96,2.26,6.33-3.17,6.69-6,13.63-8.41,20.66-.68,1.97-2.53,3.21-4.5,3.21ZM1524.96,1431.82c-.85,0-1.72-.23-2.5-.72-2.23-1.38-2.92-4.31-1.53-6.55,4.09-6.59,8.61-13.04,13.42-19.13,1.63-2.06,4.62-2.41,6.68-.79,2.06,1.63,2.41,4.62.79,6.68-4.59,5.82-8.9,11.96-12.8,18.26-.9,1.45-2.46,2.25-4.05,2.25ZM1553.19,1396c-1.21,0-2.41-.46-3.34-1.37-1.87-1.84-1.89-4.85-.05-6.72,5.45-5.53,11.27-10.81,17.3-15.69,2.05-1.66,5.04-1.33,6.69.7,1.66,2.04,1.34,5.03-.7,6.69-5.76,4.67-11.31,9.71-16.52,14.99-.93.94-2.16,1.42-3.39,1.42ZM1588.61,1367.29c-1.57,0-3.1-.77-4.01-2.19-1.42-2.21-.78-5.16,1.43-6.57,6.53-4.19,13.37-8.06,20.33-11.49,2.36-1.17,5.21-.2,6.37,2.15,1.17,2.35.2,5.21-2.15,6.37-6.64,3.28-13.17,6.98-19.41,10.97-.79.51-1.69.75-2.56.75ZM1785.18,1354.1c-.67,0-1.35-.14-2-.45-6.71-3.12-13.68-5.9-20.72-8.26-2.49-.84-3.83-3.53-3-6.02.84-2.49,3.55-3.82,6.02-3,7.37,2.48,14.67,5.39,21.7,8.66,2.38,1.11,3.41,3.93,2.3,6.32-.8,1.73-2.52,2.75-4.31,2.75ZM1629.45,1347.12c-1.95,0-3.77-1.2-4.47-3.14-.89-2.47.39-5.2,2.86-6.09,7.3-2.64,14.83-4.89,22.38-6.69,2.55-.59,5.12.97,5.73,3.52.61,2.55-.97,5.12-3.52,5.73-7.21,1.72-14.39,3.87-21.36,6.39-.53.2-1.08.28-1.62.28ZM1741.95,1339.61c-.33,0-.66-.03-1-.11-7.25-1.55-14.66-2.71-22.04-3.45-2.61-.26-4.52-2.6-4.26-5.21.26-2.61,2.55-4.5,5.21-4.25,7.72.78,15.48,1.99,23.07,3.62,2.57.55,4.21,3.07,3.65,5.64-.47,2.23-2.45,3.76-4.64,3.76ZM1673.8,1336.54c-2.37,0-4.42-1.77-4.71-4.18-.32-2.61,1.53-4.98,4.14-5.29,7.7-.94,15.53-1.46,23.31-1.53h.03c2.62,0,4.75,2.1,4.77,4.71.02,2.63-2.08,4.77-4.71,4.8-7.42.07-14.91.56-22.25,1.46-.19.03-.39.04-.58.04Z" style="fill:#fff; stroke-width:0px;"/><path d="M1815.46,1371.52c-.94,0-1.89-.27-2.71-.85-3.11-2.16-6.37-4.3-9.71-6.34-2.24-1.37-2.94-4.3-1.57-6.54,1.37-2.24,4.3-2.94,6.54-1.57,3.5,2.14,6.92,4.37,10.17,6.65,2.16,1.5,2.69,4.46,1.18,6.62-.92,1.33-2.4,2.04-3.91,2.04Z" style="fill:#fff; stroke-width:0px;"/></g><g style="opacity:.64;"><path d="M1901.29,1510.44c-2.33,0-4.37-1.71-4.7-4.08-.55-3.84-1.21-7.69-1.97-11.43-.52-2.57,1.14-5.09,3.72-5.61,2.63-.48,5.09,1.15,5.61,3.72.79,3.93,1.49,7.96,2.07,11.98.37,2.6-1.44,5.01-4.04,5.38-.23.03-.46.05-.68.05Z" style="fill:#fff; stroke-width:0px;"/><path d="M1701.59,1744.02c-2.6,0-4.72-2.09-4.76-4.7-.03-2.62,2.07-4.78,4.7-4.81,8.06-.1,16.19-.69,24.17-1.76,2.62-.33,5,1.48,5.35,4.08.35,2.6-1.48,5-4.08,5.35-8.36,1.12-16.88,1.75-25.32,1.85h-.06ZM1676.79,1742.84c-.17,0-.34,0-.52-.03-8.41-.91-16.84-2.34-25.05-4.24-2.56-.59-4.15-3.15-3.55-5.71.59-2.56,3.17-4.17,5.71-3.55,7.83,1.82,15.88,3.18,23.91,4.05,2.61.28,4.5,2.63,4.22,5.24-.26,2.44-2.33,4.24-4.72,4.24ZM1750.67,1737.4c-2.11,0-4.04-1.42-4.6-3.55-.66-2.54.86-5.14,3.4-5.81,7.77-2.03,15.52-4.57,23.03-7.56,2.44-.96,5.2.22,6.18,2.67.97,2.44-.22,5.21-2.67,6.18-7.87,3.13-15.99,5.79-24.14,7.92-.4.1-.81.15-1.21.15ZM1628.51,1731.6c-.54,0-1.09-.09-1.63-.29-7.93-2.9-15.76-6.32-23.29-10.17-2.34-1.19-3.26-4.06-2.06-6.4,1.2-2.34,4.05-3.26,6.4-2.06,7.18,3.67,14.66,6.94,22.21,9.7,2.47.9,3.74,3.63,2.84,6.1-.71,1.93-2.53,3.13-4.47,3.13ZM1796.72,1719.12c-1.68,0-3.31-.89-4.18-2.48-1.26-2.3-.42-5.19,1.89-6.45,7.07-3.87,13.98-8.21,20.53-12.89,2.15-1.53,5.11-1.03,6.64,1.1,1.53,2.14,1.04,5.11-1.1,6.64-6.86,4.9-14.09,9.45-21.5,13.5-.72.4-1.5.59-2.28.59ZM1837.01,1690.29c-1.29,0-2.57-.52-3.51-1.54-1.77-1.94-1.64-4.95.29-6.72,5.94-5.44,11.61-11.31,16.85-17.43,1.72-2,4.72-2.22,6.71-.52,2,1.71,2.23,4.71.52,6.71-5.49,6.41-11.43,12.55-17.65,18.26-.91.84-2.07,1.25-3.21,1.25ZM1869.25,1652.66c-.91,0-1.82-.26-2.63-.79-2.19-1.45-2.78-4.41-1.33-6.59,4.47-6.72,8.57-13.78,12.18-20.97,1.17-2.34,4.03-3.3,6.38-2.12,2.35,1.18,3.3,4.04,2.12,6.38-3.78,7.54-8.07,14.93-12.75,21.98-.91,1.38-2.43,2.12-3.97,2.12ZM1891.47,1608.34c-.53,0-1.07-.09-1.6-.28-2.48-.88-3.76-3.6-2.88-6.07,2.7-7.58,4.97-15.42,6.73-23.29.58-2.56,3.12-4.17,5.68-3.6,2.56.57,4.17,3.12,3.6,5.68-1.84,8.24-4.22,16.45-7.05,24.4-.69,1.95-2.52,3.16-4.48,3.16ZM1902.32,1560c-.16,0-.31,0-.47-.02-2.61-.26-4.52-2.59-4.26-5.2.2-2.07.38-4.14.52-6.22.32-4.63.48-9.32.48-13.93,0-1.37-.01-2.73-.04-4.09-.05-2.62,2.03-4.79,4.66-4.85h.06c2.61,0,4.74,2.07,4.79,4.66.03,1.42.04,2.85.04,4.28,0,4.83-.17,9.74-.5,14.59-.15,2.18-.34,4.34-.55,6.5-.24,2.45-2.31,4.29-4.73,4.29Z" style="fill:#fff; stroke-width:0px;"/><path d="M1584.2,1708.91c-.92,0-1.84-.26-2.66-.82-3.34-2.27-6.66-4.66-9.86-7.11-2.09-1.6-2.48-4.58-.88-6.67,1.6-2.08,4.58-2.48,6.67-.88,3.06,2.35,6.22,4.63,9.41,6.79,2.18,1.47,2.74,4.43,1.27,6.6-.92,1.36-2.42,2.09-3.94,2.09Z" style="fill:#fff; stroke-width:0px;"/></g><path d="M1588.42,1646.51c.66.81,1.77,1.11,2.75.75l28.04-10.31c11.05,8.51,23.54,15.32,37.12,19.99l6.84,29.06c.24,1.02,1.1,1.77,2.14,1.88l35.65,3.61c1.04.11,2.04-.46,2.48-1.41l12.53-27.1c14.24-1.85,27.84-6.02,40.37-12.14l25.4,15.72c.89.55,2.03.48,2.84-.19l27.76-22.65c.81-.66,1.11-1.77.75-2.75l-10.31-28.04c8.51-11.05,15.32-23.54,19.99-37.12l29.06-6.84c1.02-.24,1.77-1.1,1.88-2.14l3.61-35.65c.1-1.04-.46-2.04-1.41-2.48l-27.1-12.53c-1.85-14.24-6.02-27.84-12.14-40.37l15.72-25.4c.55-.89.48-2.03-.19-2.84l-22.65-27.76c-.66-.81-1.77-1.11-2.75-.75l-28.04,10.31c-11.05-8.51-23.54-15.32-37.12-19.99l-6.84-29.06c-.24-1.02-1.1-1.77-2.14-1.88l-35.65-3.61c-1.04-.11-2.04.46-2.48,1.41l-12.53,27.1c-14.24,1.85-27.84,6.02-40.37,12.14l-25.4-15.72c-.89-.55-2.03-.48-2.84.18l-27.76,22.65c-.81.66-1.11,1.77-.75,2.75l10.31,28.04c-8.51,11.05-15.32,23.54-19.99,37.12l-29.06,6.84c-1.02.24-1.77,1.1-1.88,2.14l-3.61,35.65c-.11,1.04.46,2.04,1.41,2.48l27.1,12.53c1.85,14.24,6.02,27.84,12.14,40.37l-15.72,25.4c-.55.89-.48,2.03.19,2.84l22.65,27.76Z" style="fill:url(#uuid-f3ceb2b1-bb33-43e8-83ff-a9db9b7dacbd); stroke-width:0px;"/><path d="M1698.96,1569.74c-17.83,0-33.49-13.09-36.16-31.25-2.94-19.95,10.89-38.57,30.85-41.51,19.95-2.92,38.57,10.9,41.51,30.85,1.43,9.66-1,19.3-6.83,27.14-5.83,7.84-14.36,12.94-24.02,14.37h0c-1.8.26-3.59.39-5.35.39ZM1703.62,1564.64h.05-.05ZM1699,1506.1c-1.31,0-2.63.1-3.97.29-14.76,2.18-25,15.96-22.82,30.72,1.05,7.15,4.83,13.46,10.63,17.77,5.8,4.31,12.92,6.1,20.09,5.05,7.15-1.05,13.46-4.83,17.77-10.63,4.31-5.8,6.11-12.93,5.05-20.09-1.98-13.43-13.57-23.12-26.75-23.12Z" style="fill:#fff; opacity:.56; stroke-width:0px;"/><path d="M1699.71,1623.86c-3.11,0-6.23-.16-9.37-.47-6.29-.64-12.5-1.92-18.47-3.81-.18-.06-.36-.11-.54-.17-2.01-.65-3.29-2.52-3.29-4.52,0-.49.07-.98.23-1.47.81-2.49,3.48-3.86,5.99-3.06,5.49,1.78,11.22,2.98,17.03,3.57h0c.27.03.55.06.82.08,13.67,1.25,27.17-.91,39.49-6.18,6.97-2.99,13.55-6.96,19.58-11.88,16.91-13.8,27.43-33.36,29.63-55.07.28-2.81.43-5.61.43-8.4,0-18.75-6.4-36.77-18.41-51.49-13.8-16.91-33.35-27.43-55.06-29.63-21.75-2.19-42.99,4.18-59.89,17.98-16.91,13.8-27.43,33.36-29.63,55.07-.28,2.76-.42,5.53-.42,8.29,0,11.96,2.62,23.78,7.71,34.62.31.65.45,1.34.45,2.02,0,1.78-1.01,3.5-2.74,4.31-2.37,1.12-5.22.09-6.33-2.28-5.69-12.11-8.61-25.33-8.61-38.7,0-3.07.15-6.14.46-9.2,2.46-24.24,14.21-46.07,33.08-61.48,18.87-15.4,42.62-22.52,66.86-20.08,24.24,2.46,46.07,14.2,61.48,33.08,13.41,16.44,20.55,36.56,20.55,57.49,0,3.11-.16,6.24-.47,9.37-2.46,24.24-14.21,46.08-33.08,61.48-16.43,13.42-36.56,20.55-57.49,20.55Z" style="fill:#fff; opacity:.56; stroke-width:0px;"/><path d="M1958.4,2657.78c-.31,0-.61-.02-.91-.06l-52.93-6.41c-3.18-.38-5.78-2.75-6.45-5.89l-8.88-41.37c-18.74-7.09-36.22-16.95-52.04-29.37l-40.01,13.83c-3.03,1.05-6.4.05-8.38-2.48l-32.89-41.96c-1.98-2.53-2.14-6.03-.39-8.72l22.98-35.55c-8.27-18.32-13.67-37.66-16.08-57.56l-38.04-18.5c-2.89-1.4-4.57-4.49-4.18-7.67l6.42-52.93c.39-3.18,2.75-5.77,5.89-6.45l41.36-8.88c7.09-18.74,16.96-36.23,29.37-52.04l-13.83-40.01c-1.04-3.03-.05-6.4,2.47-8.38l41.97-32.89c2.52-1.98,6.03-2.14,8.72-.4l35.55,22.99c18.33-8.27,37.67-13.67,57.56-16.08l18.5-38.04c1.4-2.88,4.47-4.54,7.67-4.18l52.94,6.42c3.18.39,5.78,2.76,6.45,5.89l8.88,41.36c18.74,7.09,36.22,16.95,52.04,29.37l40.01-13.82c3.03-1.05,6.4-.05,8.38,2.47l32.89,41.97c1.97,2.53,2.14,6.03.4,8.72l-22.99,35.55c8.27,18.33,13.67,37.67,16.07,57.55l38.04,18.5c2.89,1.41,4.57,4.49,4.18,7.68l-6.41,52.93c-.39,3.19-2.76,5.78-5.89,6.45l-41.36,8.87c-7.09,18.74-16.95,36.22-29.37,52.04l13.83,40.01c1.04,3.04.05,6.41-2.48,8.38l-41.96,32.89c-2.53,1.97-6.02,2.13-8.72.4l-35.55-22.99c-18.34,8.27-37.68,13.68-57.55,16.08l-18.5,38.04c-1.27,2.61-3.91,4.23-6.76,4.23ZM1838.68,2565.99l1.67,1.33c16.16,12.96,34.17,23.13,53.55,30.21l2.01.74,9.77,45.52,52.75,6.24,20.14-41.74,2.12-.23c20.49-2.25,40.42-7.82,59.22-16.54l1.94-.9,39.12,25.3,41.71-32.88-15.28-43.79,1.33-1.67c12.96-16.16,23.13-34.17,30.21-53.55l.74-2.01,45.52-9.77,6.24-52.74-41.75-20.15-.23-2.12c-2.25-20.5-7.81-40.43-16.54-59.22l-.9-1.94,25.3-39.12-32.88-41.71-43.79,15.28-1.67-1.33c-16.16-12.96-34.17-23.13-53.55-30.21l-2.01-.74-9.77-45.52-52.75-6.25-20.14,41.75-2.12.23c-20.51,2.25-40.43,7.82-59.22,16.54l-1.94.9-39.12-25.3-41.71,32.88,15.28,43.79-1.33,1.67c-12.96,16.15-23.13,34.17-30.21,53.55l-.74,2.01-45.37,9.74-6.4,52.78,41.75,20.14.23,2.12c2.25,20.51,7.82,40.43,16.54,59.22l.9,1.94-25.3,39.13,32.88,41.71,43.79-15.28ZM1960.88,2550.19c-5.38,0-10.8-.33-16.22-.98-23.85-2.89-46.43-12.18-65.3-26.84-1.69-1.31-2-3.74-.68-5.43,1.31-1.69,3.75-2,5.43-.68,17.77,13.81,39.02,22.54,61.48,25.26,33.1,4.01,65.76-5.1,92-25.66,26.24-20.56,42.89-50.11,46.9-83.2,4.01-33.09-5.1-65.76-25.66-92-20.56-26.24-50.11-42.89-83.19-46.9-68.31-8.32-130.62,40.55-138.91,108.86-1.07,8.84-1.21,17.78-.4,26.57.19,2.13-1.37,4.01-3.5,4.21-2.13.24-4.01-1.38-4.21-3.5-.85-9.34-.71-18.84.42-28.21,8.8-72.55,74.98-124.39,147.52-115.61,35.14,4.26,66.52,21.95,88.36,49.81,21.84,27.86,31.52,62.56,27.26,97.71-4.26,35.14-21.95,66.53-49.82,88.36-23.56,18.46-52.01,28.24-81.48,28.24Z" style="fill:#fff; stroke-width:0px;"/><path d="M1959.69,2469.51c-6.23,0-12.46-1.15-18.44-3.46-12.76-4.92-22.85-14.51-28.4-27.02-5.54-12.5-5.89-26.42-.97-39.19,10.16-26.35,39.86-39.53,66.21-29.37,26.35,10.16,39.52,39.86,29.37,66.21-4.92,12.77-14.51,22.85-27.02,28.4-6.65,2.95-13.69,4.43-20.74,4.43ZM1959.65,2374.76c-5.99,0-11.97,1.25-17.61,3.75-10.61,4.71-18.76,13.27-22.94,24.1-4.17,10.84-3.88,22.65.82,33.27,4.71,10.61,13.27,18.76,24.1,22.94,10.84,4.18,22.65,3.89,33.27-.82,10.61-4.71,18.76-13.27,22.94-24.1,8.62-22.37-2.56-47.58-24.93-56.21-5.08-1.95-10.37-2.93-15.65-2.93Z" style="fill:#fff; stroke-width:0px;"/><path d="M2338.93,2316.39c-1.62,0-3.21-.7-4.3-1.99l-12.45-14.72c-9.06,1.08-18.18.88-27.17-.6l-13.09,14.13c-1.64,1.76-4.22,2.28-6.4,1.32l-23.46-10.35c-2.19-.96-3.53-3.22-3.34-5.61l1.61-19.2c-7.15-5.64-13.45-12.23-18.77-19.66l-19.26.73c-2.34.12-4.59-1.34-5.46-3.58l-9.28-23.92c-.87-2.23-.22-4.77,1.61-6.32l14.72-12.45c-1.08-9.06-.87-18.18.6-27.17l-14.13-13.09c-1.76-1.64-2.29-4.21-1.32-6.4l10.35-23.47c.97-2.19,3.22-3.58,5.63-3.33l19.18,1.6c5.64-7.14,12.23-13.44,19.66-18.77l-.73-19.25c-.1-2.4,1.35-4.6,3.6-5.47l23.9-9.27c2.24-.87,4.78-.22,6.33,1.61l12.45,14.72c9.07-1.08,18.19-.87,27.17.6l13.09-14.12c1.63-1.77,4.2-2.29,6.4-1.33l23.46,10.35c2.19.97,3.53,3.22,3.34,5.61l-1.61,19.2c7.15,5.64,13.45,12.24,18.77,19.66l19.25-.73c2.46-.19,4.59,1.35,5.46,3.58l9.28,23.92c.87,2.23.22,4.77-1.61,6.33l-14.72,12.45c1.08,9.06.87,18.17-.6,27.17l14.13,13.09c1.76,1.64,2.29,4.2,1.32,6.4l-10.35,23.47c-.96,2.19-3.21,3.53-5.61,3.34l-19.21-1.61c-5.64,7.15-12.24,13.45-19.66,18.77l.73,19.25c.1,2.39-1.34,4.59-3.58,5.46l-23.92,9.28c-.66.26-1.35.38-2.03.38ZM2325.35,2291.44l14.21,16.81,21.1-8.18-.84-21.99,1.77-1.21c8.04-5.5,15.07-12.22,20.92-19.98l1.28-1.71,21.92,1.83,9.13-20.71-16.13-14.95.39-2.1c1.79-9.55,2.01-19.28.65-28.92l-.3-2.12,16.81-14.21-8.18-21.1-22,.84-1.21-1.77c-5.5-8.04-12.22-15.07-19.97-20.92l-1.71-1.29,1.83-21.92-20.71-9.13-14.95,16.13-2.1-.39c-9.54-1.79-19.27-2-28.92-.65l-2.12.3-14.21-16.81-21.1,8.18.84,22-1.77,1.21c-8.04,5.5-15.08,12.22-20.91,19.97l-1.28,1.7-21.92-1.83-9.13,20.7,16.13,14.95-.4,2.1c-1.79,9.54-2,19.27-.64,28.91l.3,2.12-16.81,14.21,8.18,21.1,22-.84,1.21,1.76c5.5,8.04,12.22,15.08,19.97,20.91l1.71,1.29-1.83,21.92,20.71,9.13,14.95-16.13,2.1.4c9.54,1.78,19.27,2,28.91.64l2.12-.3ZM2360.72,2301.57h0s0,0,0,0ZM2255.18,2297.09h0,0ZM2405.1,2258.39h0s0,0,0,0ZM2212.01,2252.7h-.01.01ZM2204.78,2230.14h0,0ZM2416.8,2175.41s0,0,0,0h0ZM2214.38,2148.42s0,0,0,0h0ZM2216.48,2147.17h0s0,0,0,0h0ZM2259.53,2106.04h-.02s.01,0,.02,0ZM2260.87,2103.99h0s0,0,0,0ZM2311.22,2268.38c-8.85,0-17.84-1.8-26.44-5.59-10.91-4.81-20.29-12.47-27.13-22.16-1.24-1.75-.82-4.16.93-5.39,1.75-1.24,4.17-.82,5.39.93,6.03,8.54,14.31,15.3,23.93,19.54,29.26,12.92,63.58-.4,76.49-29.66,12.91-29.27-.4-63.58-29.67-76.49-14.18-6.25-29.94-6.61-44.39-1.01-14.45,5.6-25.85,16.5-32.1,30.67-1.67,3.79-2.94,7.74-3.77,11.77-.43,2.09-2.48,3.42-4.57,3.01-2.09-.43-3.44-2.48-3.01-4.57.94-4.56,2.38-9.05,4.27-13.33,7.09-16.07,20.01-28.42,36.38-34.77,16.37-6.35,34.24-5.95,50.31,1.14,33.18,14.63,48.26,53.52,33.63,86.69-10.84,24.57-34.99,39.21-60.25,39.22Z" style="fill:#fff; stroke-width:0px;"/><g style="opacity:.56;"><path d="M216.8,2328.55c-2.76-1.23-4.51-4.16-4.08-7.31.78-5.88,1.76-11.82,2.89-17.65.74-3.79,4.4-6.26,8.2-5.52,3.8.72,6.26,4.41,5.52,8.2-1.08,5.55-2.01,11.21-2.76,16.82-.51,3.82-4.02,6.51-7.85,6-.68-.09-1.32-.28-1.92-.55Z" style="fill:#fff; stroke-width:0px;"/><path d="M228.77,2276.14c-3.24-1.44-4.92-5.12-3.8-8.56,3.18-9.71,6.89-19.36,11.04-28.69.87-1.96,1.77-3.93,2.69-5.88,1.65-3.5,5.94-4.78,9.3-3.36,3.49,1.64,4.99,5.8,3.36,9.3-.88,1.87-1.74,3.75-2.57,5.62-3.95,8.9-7.5,18.11-10.53,27.36-1.2,3.67-5.15,5.67-8.81,4.47-.23-.08-.45-.16-.67-.26ZM259.63,2210.47c-.3-.13-.6-.29-.89-.47-3.27-2.06-4.25-6.37-2.2-9.64,6.59-10.49,13.88-20.66,21.68-30.22,2.44-2.99,6.85-3.42,9.83-1,2.99,2.44,3.44,6.84,1,9.83-7.44,9.13-14.4,18.83-20.68,28.83-1.87,2.98-5.62,4.06-8.74,2.67ZM305.49,2154.25c-.81-.36-1.56-.88-2.22-1.56-2.67-2.79-2.56-7.22.23-9.88,8.94-8.53,18.52-16.61,28.47-23.98,3.1-2.3,7.47-1.66,9.78,1.45,2.3,3.1,1.65,7.48-1.45,9.77-9.48,7.03-18.61,14.72-27.14,22.87-2.11,2.01-5.16,2.44-7.67,1.33ZM363.78,2111.01c-1.32-.59-2.47-1.59-3.24-2.94-1.9-3.36-.71-7.63,2.65-9.53,10.79-6.1,22.04-11.57,33.46-16.28,3.57-1.47,7.65.24,9.12,3.8,1.47,3.57-.23,7.65-3.8,9.13-10.88,4.48-21.62,9.71-31.9,15.52-2,1.13-4.33,1.17-6.28.3ZM430.85,2083.33c-1.85-.82-3.32-2.43-3.9-4.53-1.02-3.72,1.16-7.56,4.88-8.59,11.93-3.28,24.17-5.86,36.39-7.66,3.82-.57,7.37,2.07,7.93,5.89.56,3.82-2.08,7.37-5.89,7.93-11.66,1.72-23.34,4.18-34.72,7.31-1.62.44-3.27.28-4.69-.35ZM502.6,2072.77c-2.39-1.06-4.09-3.44-4.15-6.23-.09-3.86,2.97-7.05,6.82-7.15,12.37-.29,24.87.2,37.15,1.45,3.85.4,6.64,3.82,6.25,7.66-.39,3.84-3.82,6.64-7.66,6.25-11.72-1.19-23.63-1.65-35.42-1.38-1.07.03-2.08-.19-3-.6ZM574.74,2080.06c-2.99-1.33-4.73-4.63-3.97-7.94.86-3.76,4.61-6.11,8.37-5.26,12.02,2.75,24.02,6.29,35.68,10.52,3.61,1.38,5.5,5.33,4.18,8.96-1.32,3.63-5.33,5.5-8.95,4.18-11.12-4.04-22.57-7.42-34.03-10.04-.45-.1-.88-.25-1.28-.43ZM674.25,2123.31c-.37-.16-.73-.36-1.08-.6-8.44-5.7-17.35-11.04-26.47-15.87-1.38-.74-2.74-1.45-4.11-2.14-3.44-1.75-4.81-5.96-3.06-9.4,1.75-3.45,6.02-4.91,9.4-3.07,1.45.74,2.9,1.49,4.35,2.27,9.53,5.05,18.86,10.64,27.72,16.62,3.2,2.16,4.04,6.5,1.88,9.7-1.92,2.85-5.58,3.83-8.62,2.48Z" style="fill:#fff; stroke-width:0px;"/></g><g style="opacity:.56;"><path d="M393.16,2638.66c-3.49-1.55-5.09-5.62-3.58-9.14,1.52-3.54,5.63-5.19,9.18-3.67,10.68,4.58,21.73,8.55,32.84,11.79,3.67,1.11,5.84,4.96,4.75,8.67-1.08,3.71-4.96,5.83-8.67,4.75-11.65-3.41-23.24-7.56-34.43-12.36-.03-.01-.06-.03-.09-.04ZM361.21,2622.62c-.23-.1-.45-.22-.68-.35-10.53-6.1-20.79-12.9-30.51-20.21-3.08-2.33-3.7-6.7-1.38-9.78,2.32-3.09,6.72-3.69,9.79-1.39,9.27,6.98,19.06,13.47,29.11,19.29,3.34,1.93,4.48,6.21,2.54,9.55-1.81,3.12-5.66,4.32-8.88,2.89ZM461.66,2658.65c-2.83-1.26-4.58-4.3-4.06-7.51.62-3.8,4.21-6.39,8.02-5.77,11.48,1.86,23.16,3.04,34.73,3.5,3.86.17,6.86,3.41,6.7,7.26-.15,3.85-3.41,6.86-7.26,6.71-12.13-.48-24.38-1.72-36.41-3.68-.61-.1-1.19-.27-1.72-.51ZM304.19,2579.65c-.73-.32-1.41-.78-2.02-1.36-8.76-8.45-17.08-17.54-24.74-27-2.43-3-1.97-7.4,1.03-9.83,2.99-2.42,7.4-1.96,9.83,1.04,7.3,9.02,15.23,17.67,23.58,25.74,2.77,2.68,2.85,7.11.17,9.88-2.1,2.17-5.26,2.69-7.86,1.53ZM532.95,2661.48c-2.26-1-3.92-3.18-4.13-5.82-.32-3.85,2.55-7.22,6.39-7.54,11.56-.94,23.18-2.61,34.54-4.95,3.79-.78,7.48,1.66,8.26,5.44.78,3.78-1.66,7.48-5.44,8.26-11.92,2.45-24.1,4.2-36.22,5.19-1.21.1-2.37-.12-3.4-.58ZM602.84,2647.12c-1.73-.77-3.14-2.23-3.79-4.16-1.23-3.66.74-7.62,4.4-8.85,11.02-3.7,21.92-8.1,32.37-13.07,3.49-1.66,7.66-.17,9.31,3.31,1.66,3.49.18,7.65-3.31,9.31-10.97,5.22-22.38,9.83-33.93,13.7-1.72.58-3.52.45-5.06-.24ZM667.29,2616.43c-1.22-.54-2.29-1.43-3.06-2.64-2.07-3.26-1.1-7.58,2.16-9.65,9.82-6.22,19.34-13.1,28.29-20.45,2.98-2.44,7.39-2.01,9.83.97,2.45,2.98,2.02,7.39-.97,9.84-9.39,7.7-19.37,14.92-29.67,21.45-2.05,1.3-4.52,1.4-6.59.48Z" style="fill:#fff; stroke-width:0px;"/><path d="M259.08,2523.9c-1.23-.55-2.32-1.46-3.09-2.69-3.17-5.07-6.2-10.27-9.01-15.43-1.84-3.39-.6-7.64,2.79-9.48,3.39-1.83,7.63-.59,9.48,2.79,2.68,4.93,5.57,9.88,8.59,14.72,2.04,3.27,1.04,7.59-2.23,9.63-2.04,1.27-4.49,1.36-6.54.45Z" style="fill:#fff; stroke-width:0px;"/></g><path d="M301.05,2443.76c.4,1.46,1.67,2.5,3.18,2.6l42.98,2.83c9.58,17.69,22.05,33.97,37.2,48.07l-8,42.29c-.28,1.48.41,2.98,1.72,3.73l44.85,25.63c1.31.75,2.95.58,4.09-.41l32.37-28.37c19.84,5.9,40.2,8.37,60.3,7.64l24.26,35.59c.85,1.25,2.4,1.82,3.86,1.42l49.84-13.6c1.46-.4,2.5-1.68,2.6-3.18l2.83-42.98c17.69-9.58,33.97-22.05,48.07-37.2l42.29,8c1.48.28,2.98-.41,3.73-1.72l25.63-44.86c.75-1.31.58-2.95-.41-4.09l-28.37-32.37c5.9-19.84,8.37-40.2,7.64-60.3l35.59-24.26c1.25-.85,1.82-2.4,1.42-3.85l-13.6-49.84c-.4-1.46-1.68-2.5-3.18-2.6l-42.98-2.83c-9.58-17.69-22.05-33.97-37.2-48.07l8-42.29c.28-1.48-.41-2.98-1.72-3.73l-44.86-25.63c-1.31-.75-2.95-.58-4.09.41l-32.37,28.37c-19.84-5.9-40.2-8.37-60.3-7.64l-24.26-35.59c-.85-1.25-2.4-1.82-3.86-1.42l-49.84,13.6c-1.46.4-2.5,1.67-2.6,3.18l-2.83,42.97c-17.69,9.58-33.97,22.05-48.07,37.2l-42.29-8c-1.48-.28-2.98.41-3.73,1.72l-25.63,44.85c-.75,1.31-.58,2.95.41,4.09l28.37,32.37c-5.9,19.84-8.37,40.2-7.64,60.3l-35.59,24.26c-1.25.85-1.82,2.4-1.42,3.86l13.6,49.84Z" style="fill:url(#uuid-aa214b88-1ec8-42c9-93c5-46e09e2a0541); stroke-width:0px;"/><path d="M491.51,2407.41c-10.3-4.58-18.83-12.3-24.47-22.3-6.94-12.3-8.67-26.56-4.88-40.16,7.82-28.07,37.03-44.55,65.11-36.73,28.1,7.89,44.55,37.04,36.73,65.11-3.79,13.6-12.65,24.92-24.95,31.85-12.3,6.94-26.56,8.67-40.17,4.88-2.54-.71-5.01-1.6-7.37-2.65ZM528.89,2323.62c-1.72-.76-3.51-1.41-5.37-1.93-20.65-5.75-42.14,6.37-47.89,27.02-2.79,10-1.52,20.5,3.59,29.54,5.11,9.05,13.43,15.55,23.43,18.36h0c10,2.79,20.5,1.51,29.54-3.59,9.05-5.11,15.57-13.43,18.35-23.43,5.24-18.78-4.32-38.27-21.65-45.96Z" style="fill:#fff; opacity:.56; stroke-width:0px;"/><path d="M460.75,2479.12c-4.04-1.8-8.02-3.81-11.94-6.05-7.78-4.44-15.12-9.68-21.83-15.59-.3-.27-.6-.54-.9-.8-2.31-2.07-2.92-5.34-1.73-8.03.29-.65.69-1.28,1.19-1.84,2.58-2.87,6.99-3.09,9.87-.53,6.21,5.57,13.05,10.5,20.32,14.65h0c.4.23.8.45,1.2.68,17.3,9.67,36.36,14.66,55.67,14.87,10.48.12,21.04-1.18,31.44-3.92.08-.02.17-.04.25-.07.26-.07.52-.14.77-.21,30.32-8.27,55.61-27.86,71.2-55.15,2.02-3.53,3.84-7.14,5.47-10.8,10.96-24.67,13.08-52.14,5.88-78.54-8.27-30.32-27.86-55.6-55.15-71.19-27.28-15.57-59.02-19.62-89.34-11.36-30.32,8.27-55.61,27.86-71.2,55.15-1.99,3.47-3.79,7.03-5.4,10.66-6.99,15.74-10.46,32.83-10.1,50.07.02,1.06-.19,2.07-.6,2.98-1.06,2.39-3.44,4.09-6.24,4.15-3.86.07-7.05-2.98-7.13-6.84-.4-19.28,3.48-38.41,11.29-56.02,1.81-4.07,3.82-8.05,6.04-11.93,17.45-30.53,45.74-52.44,79.66-61.7,33.92-9.25,69.41-4.77,99.95,12.7,30.53,17.44,52.44,45.73,61.69,79.66,8.06,29.53,5.68,60.26-6.58,87.86-1.82,4.1-3.86,8.13-6.12,12.08-33.78,59.11-106.74,82.11-167.67,55.04Z" style="fill:#fff; opacity:.56; stroke-width:0px;"/><path d="M2042.41,1082.79s10.11-18.3,9.03-33.01c-1.09-14.72,8.08-36.33-1.68-34.73s-11.77.29-14.42,17.96c-2.65,17.66-26.48,82.8,7.07,49.79Z" style="fill:url(#uuid-61e46ce1-aefe-4c72-99bb-b637e4a85e18); stroke-width:0px;"/><path d="M2513.74,2763.9c-35.55-1-53.94-5.18-63.45-9.07-.02,3.53,0,7.13.11,10.86.12,3.98,3.07,7.16,6.7,7.14l195.2-1.26c6.23-.04,9.87-7.27,7.17-12.98-25.59,2.11-90.78,6.84-145.74,5.31Z" style="fill:url(#uuid-f2bac1e9-511a-4cfa-a5a9-19aaa58a876c); stroke-width:0px;"/><path d="M2458.63,2689.05c4.47-15.87,19.13-26.64,35.61-26.12l16.3.52c86.76,20.8,130.67,68.77,147.91,92.86.33.47.54.98.77,1.47-25.59,2.11-90.78,6.84-145.74,5.31-35.55-1-53.94-5.18-63.45-9.07.16-27.75,4.26-49.57,8.6-64.96Z" style="fill:url(#uuid-aa086a1d-2a72-42d7-a74b-2a4a65d6299f); stroke-width:0px;"/><path d="M2537.95,2607.44l-13.63,65.63c-1,4.81-4.69,8.41-9.17,8.83-5.48.51-13.28.82-21.12-.34-7.03-1.03-11.93-8.18-10.68-15.85l9.48-58.27h45.13Z" style="fill:url(#uuid-e14a53a2-31b9-4187-8264-fdf0dad47846); stroke-width:0px;"/><path d="M2255.47,2763.9c35.55-1,53.94-5.18,63.45-9.07.02,3.53,0,7.13-.11,10.86-.12,3.98-3.07,7.16-6.7,7.14l-195.2-1.26c-6.23-.04-9.87-7.27-7.17-12.98,25.59,2.11,90.78,6.84,145.74,5.31Z" style="fill:url(#uuid-4efc442c-15c6-4b9e-8856-0d7d55dcc3be); stroke-width:0px;"/><path d="M2109.73,2758.59c.24-.5.44-1.01.77-1.47,17.24-24.09,61.15-72.05,147.91-92.86l41.62-1.31s18.53,32.21,18.88,91.88c-9.51,3.89-27.89,8.07-63.45,9.07-54.96,1.54-120.14-3.19-145.74-5.31Z" style="fill:url(#uuid-26c1892c-0078-4d99-a1f8-dd38ac66f802); stroke-width:0px;"/><path d="M2307.75,2599.87c-.46,3.1-6.17,50.26-8.38,68.54-.52,4.34-3.67,7.71-7.64,8.18-7.09.85-18.56,1.62-28.59-.44-5.41-1.11-9.33-6.31-9.33-12.35v-74.02l53.93,10.09Z" style="fill:url(#uuid-d830e3d1-01f1-4776-9c75-da2a60d65200); stroke-width:0px;"/><path d="M2341.14,1739.37s-100.39,381.51-98.57,861.6c.03,8.75,6.18,16.31,14.74,18.11,12.62,2.66,31.18,5.81,46.54,5.38,8.2-.23,15.05-6.31,16.43-14.4,14.08-82.55,94.85-547.57,140.88-623.06,0,0,30.28,414.17,20.6,629.04-.24,5.34,3.67,9.98,8.98,10.59,8.06.93,20.95,1.64,37.36-.1,6.23-.66,11.25-5.37,12.14-11.57,10.03-69.86,67.73-485.7,65.28-785.25-.14-16.89-44.67-90.34-44.67-90.34h-219.71Z" style="fill:url(#uuid-6bbe6cea-1c6d-404d-99c7-a413f6d0a265); stroke-width:0px;"/><path d="M2654.07,1407.57c27.29-74.68,17.39-164.85,17.28-165.76l-7.52.86c.1.88,9.79,89.33-16.88,162.3l7.11,2.6Z" style="fill:url(#uuid-9a98891f-65fb-45c9-b230-95461e676e28); stroke-width:0px;"/><path d="M1954.59,1438.81c-22.53-122.56,9.8-324.56,9.8-324.56l44.04,45.64s7.44,164.89,38.79,233.13c-20.63,2.46-60.63,11.67-92.62,45.79Z" style="fill:url(#uuid-592bc2f9-962f-488b-bb30-c3b33a69e1f0); stroke-width:0px;"/><path d="M2047.22,1393.02c5.92,12.88,12.68,22.33,20.42,26.56,28.31,15.54,83.22-73.14,124.15-150.01,29.44-55.25,51.67-104.37,51.67-104.37,29.44-33.25,102.34-37.82,170.16-33.58,70.6,4.38,135.59,18.27,140.3,19.31.19.05.28.05.28.05,32.5,4.29,60.71,7.86,81.1,10.46,23.83,3.01,45.64,14.79,61.37,32.97,62.31,72.11,199.08,269.59,38.1,468.58-20.58-11.44-49.88-29.77-69.75-51.01,17.8-50.21,19.26-114.35-18.04-193.05-1.27,6.26-2.87,12.43-4.76,18.51-51.48,162.96-54.21,298.6-54.07,329.82,0,4.29-2.54,8.1-6.5,9.66-67.68,27.13-198.05,10.97-241.75,4.47-8.05-1.18-13.42-8.66-12.34-16.72,13.05-94.52-22.56-226.12-59.01-329.21-213.92,211.99-290.32,131.95-313.96,3.35,31.99-34.12,71.99-43.33,92.62-45.79Z" style="fill:url(#uuid-eb742580-b3d4-48ff-9205-8d7e41148e05); stroke-width:0px;"/><path d="M2545.45,1748.76c18.58-10.42,90.63-55.17,119.58-136.79,19.88,21.22,49.15,39.56,69.75,50.99-30.76,38.02-72.39,76.1-127.49,113.37h0c-1.95,42.41-34.55,58.11-42.01,71.85-7.46,13.74,3.14,10.6-1.57,27.87-4.71,17.27-54.16-27.47-65.94-37.68-11.77-10.2-4.71-38.46-4.71-38.46,0,0-.79-5.89-3.92-17.66-3.13-11.75,56.07-33.4,56.31-33.49Z" style="fill:url(#uuid-dca57cfa-23e5-4960-8031-1c8bfbe855ac); stroke-width:0px;"/><path d="M2518.54,1028.49l13.05,133.31s-75,22.59-129.54-15.9l38.35-121.16,78.15,3.75Z" style="fill:url(#uuid-98bceeee-5586-4684-9251-ac77f9495f3c); stroke-width:0px;"/><path d="M2391.24,914.88c-.89,2.31-4.66,166.17-4.66,166.17l93.6.16,26.64-154.77s-100.67-50.29-115.59-11.56Z" style="fill:url(#uuid-4c1a42f0-5fb3-4387-967d-7b7e3a1a8699); stroke-width:0px;"/><path d="M2474.75,945.79c3.04,2.85,4.59,6.93,4.2,11.08l-7.54,81.38c-.11,1.23-.38,2.43-.83,3.59-2.49,6.37-12.06,26-31.98,15.1-16.98-9.28-32.71-17.58-45.49-17.98-7.46-.23-13.62,5.78-13.76,13.24-.3,15.37-.27,46.41,3.63,73.98.98,6.91,7.16,11.86,14.13,11.42,18.38-1.16,54.2-4.5,82.97-13.74,4.73-1.52,8.22-5.5,9.12-10.38,3.97-21.48,15.33-81.65,21.15-98.14,5.41-15.32,26.43-20.63,36.25-22.29,3.73-.63,7-2.76,9.07-5.92,6.22-9.48,15.19-29.95-9.47-45.46-6.13-3.86-7.9-12.07-4.17-18.28,6.68-11.13,11.49-28.29-8.01-42.98-19.74-14.87-38.85-7.86-50.56-.37-5.18,3.32-12.16,3.12-16.73-1-2.04-1.83-4.83-2.88-8.62-1.92-7.16,1.81-14.3-2.1-16.16-9.24-3.19-12.25-11.83-26-34.42-27.23-41.44-2.27-56.04,40.9-51.43,69.2,4.61,28.3,49.69,28.21,74.15,20.05,17.97-5.99,36.14,8.03,44.52,15.9Z" style="fill:url(#uuid-bf77a829-acfd-4799-8cbe-95246ab5ea8a); stroke-width:0px;"/><path d="M2507.26,1045.37s-5.92-49.66,13.49-57.06c19.41-7.4,43.03,4.13,29.95,36.14-16.27,39.82-43.44,20.92-43.44,20.92Z" style="fill:url(#uuid-c250ccb8-28d6-4304-8da9-1dcf5b428708); stroke-width:0px;"/><path d="M2267,1430.98c.1,0,.19,0,.29-.02,1.29-.16,2.21-1.34,2.04-2.63-.13-1.04-12.82-103.96-5.93-133.61.29-1.27-.49-2.53-1.76-2.83-1.26-.31-2.53.49-2.83,1.76-7.08,30.46,5.31,131,5.84,135.26.15,1.19,1.16,2.06,2.34,2.06Z" style="fill:url(#uuid-47cd8e09-b772-4dc8-8871-2157f051d11c); stroke-width:0px;"/><path d="M1968.66,973.54c.11-2.76,1.44-5.33,3.64-7.02,2.2-1.68,5.02-2.3,7.72-1.68l67.32,15.31c2.61.59,4.36,3.06,4.07,5.72l-19.57,174.97c-.08.75-.47,1.44-1.06,1.92-.59.47-1.35.68-2.11.59l-58.76-7.12c-4.81-.58-8.37-4.76-8.18-9.61l6.94-173.08Z" style="fill:url(#uuid-39e437ff-582c-4d53-8ed5-dd0c650a73e9); stroke-width:0px;"/><path d="M1987.59,983.63c.09-1.57.87-3.02,2.13-3.95,1.26-.93,2.88-1.25,4.4-.87l44.29,11.07c2.56.64,4.25,3.08,3.96,5.7l-16.8,149c-.09.78-.5,1.49-1.13,1.96-.63.47-1.43.66-2.2.52l-40.84-7.27c-1.42-.25-2.42-1.52-2.34-2.96l8.53-153.21Z" style="fill:url(#uuid-a29af900-671e-49c2-a593-521397ea4e8e); stroke-width:0px;"/><path d="M2013.04,979.62c-.11.53.62,1.12,1.62,1.33l14.81,3.07c1,.21,1.91-.05,2.02-.58l.11-.51c.11-.53-.62-1.12-1.62-1.33l-14.81-3.07c-1-.21-1.91.05-2.02.58l-.11.51Z" style="fill:url(#uuid-860fe16e-d5f7-44aa-b022-3e87c3701bf4); stroke-width:0px;"/><path d="M1945.28,1017.99c10.88-4.01,32.16-40.84,36.24-28.72,4.08,12.12-1.72,28.72,0,33.87,1.72,5.15,13.5,33.78,8.2,46.95-3.82,9.5-10.13,38.75-13.35,54.29-1.07,5.16-5.61,8.86-10.88,8.86-5.27,0-9.82-3.69-10.89-8.85-.43-2.07-20.19-102.4-9.32-106.41Z" style="fill:url(#uuid-ac39ee1b-3060-473a-ba5d-ca35ff2e468e); stroke-width:0px;"/></svg>