<?xml version="1.0" encoding="UTF-8"?><svg xmlns="http://www.w3.org/2000/svg" xmlns:xlink="http://www.w3.org/1999/xlink" viewBox="0 0 2013.72 1385"><defs><linearGradient id="uuid-6455b3b2-de80-498d-a1b1-90a21263de83" x1="62.47" y1="749.25" x2="486.87" y2="749.25" gradientUnits="userSpaceOnUse"><stop offset="0" stop-color="#dae3fe"/><stop offset="1" stop-color="#e9effd"/></linearGradient><linearGradient id="uuid-feb42ca2-82dd-4841-a27d-70dbc9df57c7" x1="1066.78" y1="537.2" x2="803.77" y2="-63.39" gradientTransform="translate(1641.42 -521.11) rotate(87.49)" gradientUnits="userSpaceOnUse"><stop offset="0" stop-color="#4042e2"/><stop offset="1" stop-color="#4f52ff"/></linearGradient><linearGradient id="uuid-323100f0-3dcd-4201-9d4c-513b16696bdb" x1="935.69" y1="1038.19" x2="1180.48" y2="1038.19" gradientUnits="userSpaceOnUse"><stop offset="0" stop-color="#ff928e"/><stop offset="1" stop-color="#feb3b1"/></linearGradient><linearGradient id="uuid-21a819d7-560d-4613-9a61-4007d0c21811" x1="72.47" y1="1096.04" x2="839.02" y2="1096.04" gradientUnits="userSpaceOnUse"><stop offset="0" stop-color="#09005d"/><stop offset="1" stop-color="#1a0f91"/></linearGradient><linearGradient id="uuid-bbbb48bc-4b80-403a-badc-f435e8be8499" x1="1247.17" x2="2013.72" xlink:href="#uuid-21a819d7-560d-4613-9a61-4007d0c21811"/><linearGradient id="uuid-5e96f27b-180c-4574-a953-4c9da2a6c8ad" x1="1225.43" y1="1364.59" x2="2044.54" y2="805.87" gradientUnits="userSpaceOnUse"><stop offset="0" stop-color="#fe7062"/><stop offset="1" stop-color="#ff928e"/></linearGradient><linearGradient id="uuid-b13d6cf9-cf91-4607-84af-126e36802176" x1="624.84" y1="983" x2="195.79" y2="1622.06" xlink:href="#uuid-5e96f27b-180c-4574-a953-4c9da2a6c8ad"/><linearGradient id="uuid-2ce4e240-8cea-47a5-8535-d241574859d4" x1="1087.6" y1="803.66" x2="703.56" y2="994.7" xlink:href="#uuid-323100f0-3dcd-4201-9d4c-513b16696bdb"/><linearGradient id="uuid-e1b28e6d-d771-4385-896f-bef40c6f833d" x1="1081.98" y1="755.75" x2="1025.34" y2="814.9" xlink:href="#uuid-323100f0-3dcd-4201-9d4c-513b16696bdb"/><linearGradient id="uuid-618655f0-f382-4686-85c8-e97ee4bae74f" x1="1089.43" y1="801.4" x2="705.39" y2="992.43" xlink:href="#uuid-323100f0-3dcd-4201-9d4c-513b16696bdb"/><linearGradient id="uuid-a779bf7b-e1f2-4ccf-afbd-67c2a73203b6" x1="787.96" y1="725.46" x2="104.97" y2="1626.3" xlink:href="#uuid-5e96f27b-180c-4574-a953-4c9da2a6c8ad"/><linearGradient id="uuid-d32814ca-ca15-4a8e-90eb-5f535d4ed1fc" x1="683.87" y1="683.58" x2="586.87" y2="835.58" xlink:href="#uuid-323100f0-3dcd-4201-9d4c-513b16696bdb"/><linearGradient id="uuid-98d1c7b5-ff3c-464b-8e10-2e8f5d6da94e" x1="1195.88" y1="730.34" x2="964.86" y2="934.36" xlink:href="#uuid-323100f0-3dcd-4201-9d4c-513b16696bdb"/><linearGradient id="uuid-a39d3bf3-0210-44da-9445-ed80048e6e1f" x1="937.93" y1="102.5" x2="826.91" y2="360.53" gradientUnits="userSpaceOnUse"><stop offset="0" stop-color="#e1473d"/><stop offset="1" stop-color="#e9605a"/></linearGradient><linearGradient id="uuid-05cb9cc3-bdf1-47e2-8394-43fbb29ce57f" x1="949.19" y1="107.35" x2="838.18" y2="365.38" xlink:href="#uuid-a39d3bf3-0210-44da-9445-ed80048e6e1f"/><linearGradient id="uuid-5fe4c18c-5bc5-4a85-9c35-595aac312ad1" x1="822.71" y1="613.08" x2="741.71" y2="656.08" xlink:href="#uuid-323100f0-3dcd-4201-9d4c-513b16696bdb"/><linearGradient id="uuid-cb150941-bf05-4e5d-a01c-1b41e301018a" x1="599.69" y1="574.62" x2="739.04" y2="754.04" xlink:href="#uuid-21a819d7-560d-4613-9a61-4007d0c21811"/><linearGradient id="uuid-7113ee7f-b34c-4262-bf2d-6c5b986d150c" x1="811.41" y1="591.81" x2="730.41" y2="634.81" xlink:href="#uuid-323100f0-3dcd-4201-9d4c-513b16696bdb"/><linearGradient id="uuid-becea0b0-e497-4c00-9c4a-97370d1dc590" x1="931.26" y1="1100.09" x2="991.58" y2="1100.09" xlink:href="#uuid-323100f0-3dcd-4201-9d4c-513b16696bdb"/><linearGradient id="uuid-5788dc88-54aa-458f-8601-b3f8d7b964c5" x1="1483.42" y1="793.35" x2="1444.16" y2="675.58" xlink:href="#uuid-323100f0-3dcd-4201-9d4c-513b16696bdb"/><linearGradient id="uuid-37d47e39-e85e-4143-815d-7acba37b00d4" x1="1977.9" y1="604.77" x2="1833.88" y2="874.8" xlink:href="#uuid-21a819d7-560d-4613-9a61-4007d0c21811"/><linearGradient id="uuid-96d1fbea-04d5-4c73-aa2f-83f863a5c8cb" x1="1721.75" y1="1136.37" x2="1594.17" y2="1381.71" xlink:href="#uuid-323100f0-3dcd-4201-9d4c-513b16696bdb"/><linearGradient id="uuid-9caf22f3-b966-44ad-a535-eedc4e28c88a" x1="3006.6" y1="3647.9" x2="2865.51" y2="3834.56" gradientTransform="translate(6169.29 313.02) rotate(-133.27) scale(1 -1)" xlink:href="#uuid-323100f0-3dcd-4201-9d4c-513b16696bdb"/><linearGradient id="uuid-1a4c5abd-9ce7-434d-9321-b35dcc7ee3d7" x1="2898.85" y1="3692.73" x2="3067.39" y2="3692.73" gradientTransform="translate(6169.29 313.02) rotate(-133.27) scale(1 -1)" xlink:href="#uuid-21a819d7-560d-4613-9a61-4007d0c21811"/><linearGradient id="uuid-5da89bbe-a514-42bc-a5f0-bdf7ee744a44" x1="2799.96" y1="3795.72" x2="2913.13" y2="3679.61" gradientTransform="translate(6169.29 313.02) rotate(-133.27) scale(1 -1)" xlink:href="#uuid-323100f0-3dcd-4201-9d4c-513b16696bdb"/><linearGradient id="uuid-5ec3bf24-5d7c-49a4-b820-234a6a2876f7" x1="781.94" y1="739.1" x2="733.94" y2="967.13" xlink:href="#uuid-21a819d7-560d-4613-9a61-4007d0c21811"/><linearGradient id="uuid-8286fbbf-68d1-4489-89fe-f5280f072ff5" x1="1488.15" y1="828.31" x2="1455.15" y2="1155.34" xlink:href="#uuid-21a819d7-560d-4613-9a61-4007d0c21811"/><linearGradient id="uuid-d4bae929-bd55-4a20-b31c-939f42fbdc9c" x1="1283.25" y1="725.7" x2="1293.63" y2="725.7" xlink:href="#uuid-5e96f27b-180c-4574-a953-4c9da2a6c8ad"/><linearGradient id="uuid-5ebba196-d4ba-4509-80f4-20ede4ef5841" x1="865.1" y1="654.51" x2="1266.55" y2="654.51" xlink:href="#uuid-5e96f27b-180c-4574-a953-4c9da2a6c8ad"/><linearGradient id="uuid-d67954d8-bc31-40ad-bdeb-a02928608869" x1="867.54" y1="492.27" x2="872.92" y2="492.27" xlink:href="#uuid-5e96f27b-180c-4574-a953-4c9da2a6c8ad"/><linearGradient id="uuid-3d7109a8-fea9-4cef-ba79-52b13ba018bc" x1="968.46" y1="323.72" x2="979.27" y2="323.72" xlink:href="#uuid-5e96f27b-180c-4574-a953-4c9da2a6c8ad"/><linearGradient id="uuid-4613b09b-ec69-4182-9de1-7dd97f88a39f" x1="998.49" y1="413.36" x2="1380.17" y2="413.36" xlink:href="#uuid-5e96f27b-180c-4574-a953-4c9da2a6c8ad"/><linearGradient id="uuid-6d3234c6-9120-4115-9a6b-f9efd99554b8" x1="1370.08" y1="582.1" x2="1375.84" y2="582.1" xlink:href="#uuid-5e96f27b-180c-4574-a953-4c9da2a6c8ad"/><linearGradient id="uuid-759e1b79-fc32-4b5f-815a-cc5319ad7e61" x1="1073.08" y1="484.43" x2="1675.63" y2="1547.47" gradientTransform="translate(-4.93 -238.29) rotate(4.55)" xlink:href="#uuid-5e96f27b-180c-4574-a953-4c9da2a6c8ad"/><linearGradient id="uuid-d4902b4e-fd22-466b-87c4-bb7f98a023bb" x1="1327.1" y1="-209.55" x2="1231.09" y2="135.48" xlink:href="#uuid-323100f0-3dcd-4201-9d4c-513b16696bdb"/><linearGradient id="uuid-f8c7bc13-3119-4d09-8b85-62991d347cf6" x1="1322.23" y1="-210.91" x2="1226.22" y2="134.13" xlink:href="#uuid-323100f0-3dcd-4201-9d4c-513b16696bdb"/><linearGradient id="uuid-fa3a1701-33bb-45b3-a31d-cbf60b21e6bf" x1="717.65" y1="211.86" x2="1055.27" y2="807.5" xlink:href="#uuid-5e96f27b-180c-4574-a953-4c9da2a6c8ad"/><linearGradient id="uuid-da68eefb-51e7-48a2-b21a-92d31ca33114" x1="955.63" y1="-312.92" x2="859.62" y2="32.11" xlink:href="#uuid-323100f0-3dcd-4201-9d4c-513b16696bdb"/><linearGradient id="uuid-7ee30e0b-d50d-4560-8c7e-9081f86ad5a9" x1="887.07" y1="394.8" x2="895.73" y2="394.8" xlink:href="#uuid-5e96f27b-180c-4574-a953-4c9da2a6c8ad"/><linearGradient id="uuid-2ab89c5d-ca9e-46a3-9a71-08610750d82f" x1="652.22" y1="412.59" x2="874.53" y2="412.59" xlink:href="#uuid-5e96f27b-180c-4574-a953-4c9da2a6c8ad"/><linearGradient id="uuid-c920bd93-5dd5-4848-9003-6b21f2be2242" x1="643.85" y1="341.5" x2="649.23" y2="341.5" xlink:href="#uuid-5e96f27b-180c-4574-a953-4c9da2a6c8ad"/><linearGradient id="uuid-40f58a90-6ce4-44fb-aeec-541a625cbde3" x1="669.25" y1="237.34" x2="678.48" y2="237.34" xlink:href="#uuid-5e96f27b-180c-4574-a953-4c9da2a6c8ad"/><linearGradient id="uuid-e1f5125e-6740-4922-b929-801613443c45" x1="692.27" y1="231.84" x2="908.68" y2="231.84" xlink:href="#uuid-5e96f27b-180c-4574-a953-4c9da2a6c8ad"/><linearGradient id="uuid-4c1bec4c-acc9-45f6-9d96-544a2b3f0710" x1="910.37" y1="306.02" x2="915.38" y2="306.02" xlink:href="#uuid-5e96f27b-180c-4574-a953-4c9da2a6c8ad"/><linearGradient id="uuid-68bb89a4-fed5-4f5a-86c6-57cc36c46313" x1="953.42" y1="-313.53" x2="857.41" y2="31.5" xlink:href="#uuid-323100f0-3dcd-4201-9d4c-513b16696bdb"/><linearGradient id="uuid-bec7836e-8b59-4587-8cf0-b106e4dd840a" x1="346.56" y1="966.87" x2="353.97" y2="966.87" xlink:href="#uuid-6455b3b2-de80-498d-a1b1-90a21263de83"/><linearGradient id="uuid-71122459-4542-4a12-bfc3-d2fd51544583" x1="334.13" y1="931.89" x2="341.93" y2="931.89" xlink:href="#uuid-6455b3b2-de80-498d-a1b1-90a21263de83"/><linearGradient id="uuid-cc13924d-d860-437d-81c6-285bf33a79ee" x1="322.2" y1="896.85" x2="329.76" y2="896.85" xlink:href="#uuid-6455b3b2-de80-498d-a1b1-90a21263de83"/><linearGradient id="uuid-4b33ef71-a575-4bf4-a762-90d94a6b93f4" x1="311.95" y1="861.33" x2="318.96" y2="861.33" xlink:href="#uuid-6455b3b2-de80-498d-a1b1-90a21263de83"/><linearGradient id="uuid-b90269f2-5263-4089-bb8b-490e8ccd0be6" x1="303.98" y1="825.24" x2="310.28" y2="825.24" xlink:href="#uuid-6455b3b2-de80-498d-a1b1-90a21263de83"/><linearGradient id="uuid-6aa43541-b670-4a94-a68a-743dec2e1be7" x1="298.61" y1="788.64" x2="304.12" y2="788.64" xlink:href="#uuid-6455b3b2-de80-498d-a1b1-90a21263de83"/><linearGradient id="uuid-3b0c2a4a-4d19-486a-8b14-e4d66bde402c" x1="295.94" y1="751.73" x2="300.64" y2="751.73" xlink:href="#uuid-6455b3b2-de80-498d-a1b1-90a21263de83"/><linearGradient id="uuid-5e3880b1-e595-4832-a9b3-3c9e98340ccf" x1="295.65" y1="714.69" x2="300.19" y2="714.69" xlink:href="#uuid-6455b3b2-de80-498d-a1b1-90a21263de83"/><linearGradient id="uuid-40188f78-d7d0-401b-aee0-b3c5ee123a69" x1="297.37" y1="677.71" x2="302.84" y2="677.71" xlink:href="#uuid-6455b3b2-de80-498d-a1b1-90a21263de83"/><linearGradient id="uuid-a38911da-e79f-4e3f-9c4d-eb2c201daeb5" x1="301.53" y1="640.94" x2="307.87" y2="640.94" xlink:href="#uuid-6455b3b2-de80-498d-a1b1-90a21263de83"/><linearGradient id="uuid-c77d73e9-8c22-4441-89a9-a57ac67d63a5" x1="307.93" y1="604.53" x2="315.07" y2="604.53" xlink:href="#uuid-6455b3b2-de80-498d-a1b1-90a21263de83"/><linearGradient id="uuid-69e252ef-94d5-4113-88a0-56c356087780" x1="316.38" y1="568.56" x2="324.36" y2="568.56" xlink:href="#uuid-6455b3b2-de80-498d-a1b1-90a21263de83"/><linearGradient id="uuid-076858ae-cbc3-4d1f-a1a7-3d0608a38628" x1="327.18" y1="533.26" x2="336.08" y2="533.26" xlink:href="#uuid-6455b3b2-de80-498d-a1b1-90a21263de83"/><linearGradient id="uuid-6bb1de99-df59-4970-adfe-723a09e8fe68" x1="340.41" y1="498.83" x2="350.2" y2="498.83" xlink:href="#uuid-6455b3b2-de80-498d-a1b1-90a21263de83"/><linearGradient id="uuid-f7d9c7bc-c8ec-4f74-88f9-6ce7d018c7a2" x1="355.98" y1="465.42" x2="366.64" y2="465.42" xlink:href="#uuid-6455b3b2-de80-498d-a1b1-90a21263de83"/><linearGradient id="uuid-e84e90d1-19d2-4c0d-9788-c848a7b36ef0" x1="373.81" y1="433.16" x2="385.28" y2="433.16" xlink:href="#uuid-6455b3b2-de80-498d-a1b1-90a21263de83"/><linearGradient id="uuid-1231ec19-7cb3-4f26-a424-6f4a2f3ff6b5" x1="393.75" y1="402.19" x2="406.01" y2="402.19" xlink:href="#uuid-6455b3b2-de80-498d-a1b1-90a21263de83"/><linearGradient id="uuid-a5641b25-9b2e-4eb1-b9e6-f4799a70714c" x1="415.7" y1="372.61" x2="428.63" y2="372.61" xlink:href="#uuid-6455b3b2-de80-498d-a1b1-90a21263de83"/><linearGradient id="uuid-19086029-4e56-458e-8392-5c279214cd4f" x1="439.51" y1="344.48" x2="453.04" y2="344.48" xlink:href="#uuid-6455b3b2-de80-498d-a1b1-90a21263de83"/><linearGradient id="uuid-583e37ef-c3bd-4069-a899-04307f92e780" x1="465.02" y1="317.88" x2="479.11" y2="317.88" xlink:href="#uuid-6455b3b2-de80-498d-a1b1-90a21263de83"/><linearGradient id="uuid-d3db94aa-61f8-4e8a-aa6b-1cf5e12824b0" x1="492.09" y1="292.85" x2="506.69" y2="292.85" xlink:href="#uuid-6455b3b2-de80-498d-a1b1-90a21263de83"/><linearGradient id="uuid-898c48fc-e1dc-49ec-9ca5-cacf3aba2a01" x1="520.57" y1="269.45" x2="535.64" y2="269.45" xlink:href="#uuid-6455b3b2-de80-498d-a1b1-90a21263de83"/><linearGradient id="uuid-73f42215-6ce3-4e5e-8351-128983effdb7" x1="550.35" y1="247.69" x2="565.85" y2="247.69" xlink:href="#uuid-6455b3b2-de80-498d-a1b1-90a21263de83"/><linearGradient id="uuid-b0ecd04b-bc32-4573-827b-75c932ec858c" x1="581.3" y1="227.62" x2="597.18" y2="227.62" xlink:href="#uuid-6455b3b2-de80-498d-a1b1-90a21263de83"/><linearGradient id="uuid-3345d59d-d59a-4b55-8f17-69f83069d83e" x1="613.31" y1="209.26" x2="629.54" y2="209.26" xlink:href="#uuid-6455b3b2-de80-498d-a1b1-90a21263de83"/><linearGradient id="uuid-6feef2a8-3dfb-420d-95d7-c28e178f037a" x1="646.27" y1="192.65" x2="662.83" y2="192.65" xlink:href="#uuid-6455b3b2-de80-498d-a1b1-90a21263de83"/><linearGradient id="uuid-122751e1-3b66-4995-b5a6-7e9571ae71a2" x1="680.09" y1="177.83" x2="696.93" y2="177.83" xlink:href="#uuid-6455b3b2-de80-498d-a1b1-90a21263de83"/><linearGradient id="uuid-62cf2e56-99a4-4299-831f-87ce3ea46ffe" x1="714.66" y1="164.84" x2="731.75" y2="164.84" xlink:href="#uuid-6455b3b2-de80-498d-a1b1-90a21263de83"/><linearGradient id="uuid-acbab392-12fd-42c1-becc-38a1afc60175" x1="749.9" y1="153.75" x2="767.22" y2="153.75" xlink:href="#uuid-6455b3b2-de80-498d-a1b1-90a21263de83"/><linearGradient id="uuid-f8d742fb-23a0-451d-8e5f-9011cb13f7b6" x1="785.71" y1="144.62" x2="803.22" y2="144.62" xlink:href="#uuid-6455b3b2-de80-498d-a1b1-90a21263de83"/><linearGradient id="uuid-23dfb164-ed89-47dd-a5da-cb74c4681357" x1="822" y1="137.53" x2="839.67" y2="137.53" xlink:href="#uuid-6455b3b2-de80-498d-a1b1-90a21263de83"/><linearGradient id="uuid-fb39451b-9dd3-4786-b858-dae5585fae82" x1="858.66" y1="132.6" x2="876.45" y2="132.6" xlink:href="#uuid-6455b3b2-de80-498d-a1b1-90a21263de83"/><linearGradient id="uuid-91be6d0a-7ed2-456b-a473-86eaaaa4a213" x1="895.57" y1="129.94" x2="913.44" y2="129.94" xlink:href="#uuid-6455b3b2-de80-498d-a1b1-90a21263de83"/><linearGradient id="uuid-580b46ad-9618-4327-b673-453c93953000" x1="932.6" y1="129.7" x2="950.51" y2="129.7" xlink:href="#uuid-6455b3b2-de80-498d-a1b1-90a21263de83"/><linearGradient id="uuid-7e994264-85e9-4243-b1b3-30cf0d7d8ffe" x1="969.59" y1="132.03" x2="987.47" y2="132.03" xlink:href="#uuid-6455b3b2-de80-498d-a1b1-90a21263de83"/><linearGradient id="uuid-ed2d6526-519a-4121-a463-301b1e232380" x1="1006.37" y1="136.88" x2="1024.15" y2="136.88" xlink:href="#uuid-6455b3b2-de80-498d-a1b1-90a21263de83"/><linearGradient id="uuid-e6acbae6-06a7-4940-b629-f76561a15845" x1="1042.79" y1="144.02" x2="1060.44" y2="144.02" xlink:href="#uuid-6455b3b2-de80-498d-a1b1-90a21263de83"/><linearGradient id="uuid-c123d135-bc85-4044-8659-734e781cf806" x1="1078.7" y1="153.48" x2="1096.17" y2="153.48" xlink:href="#uuid-6455b3b2-de80-498d-a1b1-90a21263de83"/><linearGradient id="uuid-e4561722-eee5-4c9f-a25a-e9feed548650" x1="1113.94" y1="165.27" x2="1131.18" y2="165.27" xlink:href="#uuid-6455b3b2-de80-498d-a1b1-90a21263de83"/><linearGradient id="uuid-60a7dc97-7158-41fb-83bb-9da194061378" x1="1148.35" y1="179.34" x2="1165.3" y2="179.34" xlink:href="#uuid-6455b3b2-de80-498d-a1b1-90a21263de83"/><linearGradient id="uuid-832f63ce-70fb-41f3-aaa6-854fee74c884" x1="1181.81" y1="195.61" x2="1198.42" y2="195.61" xlink:href="#uuid-6455b3b2-de80-498d-a1b1-90a21263de83"/><linearGradient id="uuid-f85dedca-d94a-4745-b958-5aa14096136f" x1="1214.19" y1="213.93" x2="1230.45" y2="213.93" xlink:href="#uuid-6455b3b2-de80-498d-a1b1-90a21263de83"/><linearGradient id="uuid-071839ce-b7c2-41f4-ab8e-5b51498dea28" x1="1245.43" y1="234.14" x2="1261.32" y2="234.14" xlink:href="#uuid-6455b3b2-de80-498d-a1b1-90a21263de83"/><linearGradient id="uuid-1f281999-bae1-417c-8c52-5ca83c0b8f6c" x1="1275.5" y1="256.04" x2="1291.01" y2="256.04" xlink:href="#uuid-6455b3b2-de80-498d-a1b1-90a21263de83"/><linearGradient id="uuid-865b0a21-8206-4767-a842-dad1da8b93b0" x1="1304.41" y1="279.44" x2="1319.56" y2="279.44" xlink:href="#uuid-6455b3b2-de80-498d-a1b1-90a21263de83"/><linearGradient id="uuid-1a795f2f-eb85-4eda-8857-76b4241b0194" x1="1332.2" y1="304.13" x2="1347.01" y2="304.13" xlink:href="#uuid-6455b3b2-de80-498d-a1b1-90a21263de83"/><linearGradient id="uuid-653b00bc-f6c0-4337-895f-b96a3fca4d86" x1="1358.95" y1="329.93" x2="1373.46" y2="329.93" xlink:href="#uuid-6455b3b2-de80-498d-a1b1-90a21263de83"/><linearGradient id="uuid-ba99c7c4-7291-452e-ad89-4bb5e63498bf" x1="1384.76" y1="356.65" x2="1399" y2="356.65" xlink:href="#uuid-6455b3b2-de80-498d-a1b1-90a21263de83"/><linearGradient id="uuid-89f10364-a189-4b6d-a944-b8854ee47f58" x1="1409.75" y1="384.11" x2="1423.76" y2="384.11" xlink:href="#uuid-6455b3b2-de80-498d-a1b1-90a21263de83"/><linearGradient id="uuid-6c75a9a5-4e29-4119-8b0f-c30c25b26e1e" x1="1434.06" y1="412.16" x2="1447.89" y2="412.16" xlink:href="#uuid-6455b3b2-de80-498d-a1b1-90a21263de83"/><linearGradient id="uuid-4006e97d-0594-4d7b-a412-74ba7bb15e43" x1="1457.84" y1="440.63" x2="1471.54" y2="440.63" xlink:href="#uuid-6455b3b2-de80-498d-a1b1-90a21263de83"/><linearGradient id="uuid-86d0743f-0c0b-4783-a646-6d9584498ed2" x1="1481.26" y1="469.37" x2="1494.91" y2="469.37" xlink:href="#uuid-6455b3b2-de80-498d-a1b1-90a21263de83"/><linearGradient id="uuid-ba87106f-775e-4271-819b-92673c8467b7" x1="1504.52" y1="498.2" x2="1518.19" y2="498.2" xlink:href="#uuid-6455b3b2-de80-498d-a1b1-90a21263de83"/><linearGradient id="uuid-7ae9b53f-7cc9-4b77-b0e3-eb3e76c5b670" x1="1527.85" y1="526.96" x2="1541.62" y2="526.96" xlink:href="#uuid-6455b3b2-de80-498d-a1b1-90a21263de83"/><linearGradient id="uuid-4f2e880b-d325-4fc2-bee5-d798ede021cb" x1="1551.5" y1="555.4" x2="1565.47" y2="555.4" xlink:href="#uuid-6455b3b2-de80-498d-a1b1-90a21263de83"/><linearGradient id="uuid-82200c9e-89fa-4a46-836b-684a3a420a69" x1="1575.78" y1="583.25" x2="1590.07" y2="583.25" xlink:href="#uuid-6455b3b2-de80-498d-a1b1-90a21263de83"/><linearGradient id="uuid-1eac16e3-5236-4d91-bc45-d826089ca978" x1="1601.06" y1="610.12" x2="1615.82" y2="610.12" xlink:href="#uuid-6455b3b2-de80-498d-a1b1-90a21263de83"/><linearGradient id="uuid-be998226-c873-4810-9ebf-b29281cea63b" x1="1627.8" y1="635.42" x2="1643.21" y2="635.42" xlink:href="#uuid-6455b3b2-de80-498d-a1b1-90a21263de83"/><linearGradient id="uuid-30412a3c-b0a7-4350-a593-efedb5fe95d6" x1="1656.51" y1="658.29" x2="1672.75" y2="658.29" xlink:href="#uuid-6455b3b2-de80-498d-a1b1-90a21263de83"/><linearGradient id="uuid-12af1d6f-a59e-4420-a5fb-d36f8920f718" x1="1687.76" y1="677.47" x2="1704.83" y2="677.47" xlink:href="#uuid-6455b3b2-de80-498d-a1b1-90a21263de83"/><linearGradient id="uuid-7927be4c-eed0-4cbf-90d1-c8cab3187481" x1="1721.67" y1="691.23" x2="1739.59" y2="691.23" xlink:href="#uuid-6455b3b2-de80-498d-a1b1-90a21263de83"/><linearGradient id="uuid-51d03267-1f97-4c4a-b770-2713ba1a0c36" x1="1757.78" y1="697.9" x2="1776.19" y2="697.9" xlink:href="#uuid-6455b3b2-de80-498d-a1b1-90a21263de83"/><linearGradient id="uuid-338b71c1-05bd-4912-8636-3d4420348f12" x1="1794.65" y1="694.77" x2="1812.54" y2="694.77" xlink:href="#uuid-6455b3b2-de80-498d-a1b1-90a21263de83"/><linearGradient id="uuid-57ac0544-279b-4228-a9f1-8db37e9b34d2" x1="1827.71" y1="676.5" x2="1843.13" y2="676.5" xlink:href="#uuid-6455b3b2-de80-498d-a1b1-90a21263de83"/><linearGradient id="uuid-48e545ae-ee04-4a8f-a994-ab9189bd5fc1" x1="1852.59" y1="648.02" x2="1865.03" y2="648.02" xlink:href="#uuid-6455b3b2-de80-498d-a1b1-90a21263de83"/><linearGradient id="uuid-806f43e5-0781-459b-89c7-ac9aacf35714" x1="1868.27" y1="613.94" x2="1877.39" y2="613.94" xlink:href="#uuid-6455b3b2-de80-498d-a1b1-90a21263de83"/><linearGradient id="uuid-c8b6631e-2a75-4d30-a0d5-20e267b18247" x1="1872.96" y1="577.22" x2="1879.41" y2="577.22" xlink:href="#uuid-6455b3b2-de80-498d-a1b1-90a21263de83"/><linearGradient id="uuid-83d09b01-c601-4cf9-ba6c-0ccfe2d2d1b5" x1="1868.22" y1="540.42" x2="1875.91" y2="540.42" xlink:href="#uuid-6455b3b2-de80-498d-a1b1-90a21263de83"/><linearGradient id="uuid-2ed9d23d-d41d-46b7-bf11-d63c1180d2f8" x1="1860.6" y1="504.19" x2="1868.74" y2="504.19" xlink:href="#uuid-6455b3b2-de80-498d-a1b1-90a21263de83"/><linearGradient id="uuid-9de25b39-56cc-444c-b4ae-b90bff2bebd5" x1="1850.73" y1="468.47" x2="1858.96" y2="468.47" xlink:href="#uuid-6455b3b2-de80-498d-a1b1-90a21263de83"/><linearGradient id="uuid-f126612d-8506-4db1-89c8-3402b7ba3ee2" x1="1838.44" y1="433.56" x2="1846.76" y2="433.56" xlink:href="#uuid-6455b3b2-de80-498d-a1b1-90a21263de83"/><linearGradient id="uuid-0b6d14a1-6806-4f82-a4a5-2cd9880aceb0" x1="1822.12" y1="400.24" x2="1831.04" y2="400.24" xlink:href="#uuid-6455b3b2-de80-498d-a1b1-90a21263de83"/></defs><g style="isolation:isolate;"><g id="uuid-cbefeb31-2ae1-46bb-b06a-088f31f6c5c4"><path d="M1771.38,1099.18s198.09-232.81,188.3-524.53c-8.52-253.63-162.25-212.68-86.72-101.34,22.26,32.82,62.99,66.68,67.06,102.96,18.37,163.56-50.25,348.35-168.64,522.9Z" style="fill:#bdd0fb; stroke-width:0px;"/><path d="M1753.47,1141.2s142.53-247,106.08-512.05c-31.69-230.44-155.86-166.51-82.11-77.72,21.74,26.17,58.97,50.11,65.88,82.59,31.17,146.39-8.1,327.17-89.86,507.18Z" style="fill:#bdd0fb; stroke-width:0px;"/><path d="M1785.76,1024.93s118.68-139.49,112.82-314.26c-5.1-151.96-97.21-127.42-51.96-60.72,13.34,19.66,37.74,39.95,40.18,61.69,11.01,97.99-30.11,208.7-101.04,313.29Z" style="fill:#bdd0fb; stroke-width:0px;"/><path d="M529.46,1011.34s48.06-499.6-181.46-840.21c-2.99-4.44-9.56-4.35-12.37.21-44.41,71.99-305.03,538.43,193.83,840Z" style="fill:#91b3fa; stroke-width:0px;"/><path d="M340.32,316.45c-.12,29.16.94,58.44,3.11,87.56,1.98,29.15,4.85,58.22,8.5,87.18,3.76,28.95,8.13,57.81,13.59,86.47,5.32,28.68,11.45,57.21,18.77,85.43,7.19,28.25,15.14,56.31,24.45,83.93,1.13,3.46,2.22,6.94,3.39,10.39l3.66,10.3c2.48,6.85,4.78,13.77,7.41,20.56l7.89,20.38,1.96,5.1,2.11,5.04,4.22,10.08c5.42,13.54,11.79,26.65,17.73,39.97,3.09,6.6,6.42,13.08,9.62,19.63l4.85,9.81c1.65,3.25,3.45,6.42,5.14,9.65l10.29,19.32,11,18.93,5.51,9.47,5.87,9.24,11.64,18.58.03.05c.6.96.31,2.23-.65,2.84-.92.58-2.12.33-2.76-.53-34.61-47.49-64.39-98.74-88.09-152.7l-4.5-10.09-2.25-5.05-2.09-5.11-8.3-20.48c-2.75-6.84-5.17-13.79-7.77-20.69l-3.84-10.36c-1.23-3.47-2.38-6.97-3.57-10.45-9.71-27.83-17.76-56.2-25.18-84.69-14.55-57.09-24.66-115.25-30.87-173.76-3.11-29.26-5.1-58.62-6.09-88.01-.46-14.69-.59-29.4-.49-44.1.1-14.71.49-29.37,1.58-44.1.08-1.13,1.07-1.99,2.2-1.9,1.08.08,1.91.98,1.91,2.05v.07Z" style="fill:#bdd0fb; stroke-width:0px;"/><path d="M492.14,1033.89S324.44,480.68,14.29,396.08c-5.5-1.5-10.97,2.55-11.16,8.25-2.29,66.34,9.12,419.37,489.01,629.56Z" style="fill:#bdd0fb; stroke-width:0px;"/><path d="M66.32,486.15c14.25,24.1,29.38,47.76,44.72,71.24,7.73,11.7,15.46,23.41,23.32,35.03,7.97,11.54,15.8,23.18,23.89,34.64,8.15,11.42,16.2,22.91,24.42,34.27l24.96,33.88c16.99,22.32,33.96,44.66,51.55,66.51,17.21,22.16,35.45,43.48,53.29,65.12l27.64,31.72c4.63,5.27,9.18,10.6,13.87,15.82l14.24,15.48c9.52,10.3,18.94,20.69,28.55,30.91l29.37,30.13c4.9,5.02,9.72,10.12,14.69,15.06l15.12,14.63,30.24,29.26.04.04c.82.79.84,2.09.05,2.91-.78.81-2.07.84-2.89.07-40.98-38.48-81.42-77.63-119.07-119.42l-14.33-15.47c-4.71-5.21-9.3-10.54-13.95-15.81l-27.82-31.7c-17.96-21.63-36.31-42.94-53.64-65.08-35.11-43.92-68.66-89.08-100.73-135.25-8.07-11.51-15.86-23.21-23.81-34.8-7.83-11.67-15.53-23.43-23.23-35.19-15.15-23.69-30-47.54-44.07-71.94-.57-.99-.23-2.24.75-2.81.98-.56,2.23-.23,2.8.73l.02.04Z" style="fill:url(#uuid-6455b3b2-de80-498d-a1b1-90a21263de83); stroke-width:0px;"/><ellipse cx="1092.95" cy="596.98" rx="596.87" ry="644.26" transform="translate(448.62 1662.69) rotate(-87.49)" style="fill:url(#uuid-feb42ca2-82dd-4841-a27d-70dbc9df57c7); stroke-width:0px;"/><g style="opacity:.22;"><ellipse cx="1058.08" cy="553.91" rx="505.55" ry="477.58" style="fill:#91b3fa; stroke-width:0px;"/></g><g style="opacity:.68;"><path d="M1257.54,599.86c-.15,105.27-7.37,210.76-25.93,314.54-4.7,25.92-10.14,51.72-16.63,77.28-6.51,25.54-14.02,50.87-23.22,75.63-9.28,24.69-20.04,49.03-34.64,71.28-7.36,11.04-15.7,21.62-26,30.32-5.15,4.32-10.8,8.16-17.02,10.97-6.2,2.79-12.99,4.56-19.87,4.68-6.87.2-13.76-1.14-20.08-3.69-6.35-2.52-12.14-6.19-17.41-10.37-10.54-8.43-19.07-18.89-26.56-29.85-14.86-22.09-25.77-46.38-35.14-71.03-9.31-24.72-16.9-50.02-23.47-75.55-6.55-25.54-12.05-51.33-16.79-77.24-9.45-51.84-15.9-104.18-20.25-156.67-4.32-52.49-6.48-105.15-6.75-157.82-.13-26.33.59-52.66,1.52-78.97.99-26.31,2.44-52.6,4.37-78.86,3.89-52.51,9.71-104.9,18.36-156.86,4.34-25.97,9.4-51.84,15.48-77.47,6.1-25.63,13.19-51.05,21.99-75.92,4.42-12.42,9.25-24.72,14.77-36.72,5.5-12,11.66-23.74,18.9-34.84,7.26-11.05,15.6-21.6,25.98-30.04,5.19-4.18,10.91-7.83,17.18-10.29,6.24-2.5,13.01-3.76,19.75-3.51,6.74.19,13.39,1.87,19.52,4.57,6.14,2.71,11.78,6.4,16.96,10.59,10.36,8.42,18.93,18.71,26.54,29.52,15.12,21.77,26.52,45.77,36.4,70.2,9.8,24.49,17.9,49.62,24.95,75.01,7.03,25.4,12.97,51.08,18.12,76.91,20.37,103.42,28.65,208.92,28.95,314.21ZM1249.75,599.86c.1-52.45-1.9-104.92-6.26-157.19-4.3-52.27-10.81-104.39-20.51-155.93-4.84-25.77-10.48-51.39-17.2-76.73-6.74-25.33-14.51-50.39-23.98-74.81-9.53-24.35-20.59-48.27-35.26-69.88-7.37-10.73-15.69-20.92-25.68-29.21-4.99-4.12-10.41-7.74-16.27-10.41-5.86-2.63-12.16-4.36-18.58-4.53-6.41-.2-12.81,1.09-18.74,3.53-5.95,2.42-11.41,5.97-16.39,10.08-9.96,8.28-18.04,18.69-25.05,29.64-7,11-12.97,22.66-18.28,34.6-5.33,11.94-9.99,24.18-14.24,36.56-8.46,24.78-15.24,50.14-21.03,75.7-5.78,25.57-10.53,51.38-14.57,77.29-8.05,51.84-13.27,104.1-16.58,156.45-3.34,52.36-4.5,104.85-4.4,157.31-.14,52.45,1.61,104.92,5.51,157.23,3.93,52.3,9.95,104.47,18.96,156.13,4.51,25.82,9.79,51.51,16.1,76.94,6.33,25.42,13.67,50.6,22.7,75.14,9.09,24.48,19.71,48.57,34.07,70.26,7.23,10.76,15.45,20.96,25.41,29.05,4.98,4.01,10.4,7.49,16.26,9.86,5.84,2.38,12.11,3.71,18.38,3.5,6.28-.16,12.46-1.82,18.2-4.45,5.75-2.65,11.05-6.3,15.92-10.46,9.75-8.37,17.8-18.7,24.89-29.55,14.11-21.86,24.58-46,33.56-70.53,8.91-24.59,16.18-49.79,22.44-75.22,6.24-25.44,11.45-51.15,15.92-76.98,8.95-51.67,14.89-103.84,18.84-156.14,4-52.3,5.85-104.77,5.83-157.24Z" style="fill:#fff; mix-blend-mode:soft-light; stroke-width:0px;"/><path d="M1523.11,599.86c-.36,67.79-9.08,135.61-27.22,200.99-18.46,65.22-46.3,127.97-84.09,184.31-18.9,28.14-40.31,54.62-64.23,78.65-23.91,24.02-50.36,45.58-79.06,63.65-28.73,18-59.76,32.4-92.25,42.18-32.47,9.8-66.36,14.91-100.28,14.94-33.92,0-67.82-5.08-100.31-14.85-32.5-9.75-63.56-24.13-92.32-42.11-28.73-18.05-55.22-39.59-79.17-63.6-23.96-24.02-45.41-50.5-64.35-78.63-37.87-56.34-65.76-119.12-84.31-184.37-9.13-32.69-15.92-66.02-20.41-99.65-4.47-33.64-6.72-67.56-6.87-101.49.18-33.93,2.44-67.85,6.94-101.48,4.52-33.62,11.33-66.95,20.48-99.62,18.6-65.23,46.53-127.96,84.42-184.25,18.95-28.11,40.4-54.56,64.36-78.55,23.95-23.98,50.41-45.49,79.14-63.49,28.75-17.93,59.8-32.21,92.25-41.95,32.42-9.78,66.27-14.89,100.15-14.92,33.88.06,67.72,5.19,100.12,15,32.43,9.77,63.45,24.08,92.17,42.03,28.7,18.01,55.13,39.55,79.04,63.53,23.92,24,45.33,50.45,64.23,78.56,37.81,56.28,65.69,118.98,84.2,184.18,18.19,65.35,26.95,133.16,27.36,200.95ZM1514.17,599.86c-.1-67.02-8.45-134.12-26.13-198.81-17.78-64.6-44.56-126.96-81.42-183.04-18.42-28.01-39.34-54.42-62.77-78.42-23.44-23.96-49.33-45.65-77.65-63.67-28.35-17.92-58.97-32.34-91.07-42.1-32.09-9.76-65.59-14.9-99.15-15.01-33.56.14-67.05,5.3-99.13,15.09-32.09,9.78-62.68,24.23-91,42.17-28.29,18.04-54.14,39.74-77.54,63.72-23.39,24.01-44.27,50.42-62.65,78.44-36.78,56.08-63.5,118.41-81.2,182.98-8.82,32.32-15.2,65.28-19.52,98.48-4.34,33.2-6.47,66.69-6.55,100.18.1,33.49,2.26,66.98,6.61,100.18,4.35,33.19,10.75,66.14,19.59,98.45,17.74,64.54,44.5,126.83,81.31,182.85,18.38,27.99,39.27,54.37,62.66,78.35,23.4,23.94,49.24,45.62,77.52,63.6,28.31,17.89,58.9,32.24,90.93,42.02,32.01,9.8,65.45,14.98,98.97,15.15,33.52-.14,66.96-5.29,98.99-15.07,32.05-9.75,62.65-24.07,91-41.95,28.31-17.97,54.18-39.63,77.63-63.55,23.43-23.97,44.35-50.35,62.78-78.33,36.88-56.03,63.7-118.35,81.53-182.92,17.72-64.67,26.12-131.75,26.26-198.78Z" style="fill:#fff; mix-blend-mode:soft-light; stroke-width:0px;"/><path d="M554.22,368.49l134.28-1.08,134.28-.61,268.56-.5,268.55.55,134.28.67,134.28,1.17c.22,0,.39.18.39.4,0,.22-.18.39-.39.39l-134.28,1.17-134.28.67-268.55.55-268.56-.5-134.28-.61-134.28-1.08c-.32,0-.59-.27-.58-.59,0-.32.26-.58.58-.58Z" style="fill:#fff; mix-blend-mode:soft-light; stroke-width:0px;"/><path d="M710,143.58c31.78-.5,63.56-.72,95.33-1.08l95.33-.61c31.78-.26,63.56-.23,95.33-.31l95.33-.18,190.67.55,95.33.67c31.78.4,63.56.63,95.33,1.17.22,0,.39.18.39.4,0,.21-.18.38-.39.39-31.78.54-63.56.77-95.33,1.17l-95.33.67-190.67.55-95.33-.18c-31.78-.08-63.56-.05-95.33-.31l-95.33-.61c-31.78-.37-63.56-.58-95.33-1.08-.32,0-.58-.27-.58-.6,0-.32.26-.57.58-.58Z" style="fill:#fff; mix-blend-mode:soft-light; stroke-width:0px;"/><path d="M507.56,593.39l145.94-1.08,145.94-.62,291.89-.5,291.89.55,145.94.67,145.94,1.17c.22,0,.39.18.39.4,0,.22-.18.39-.39.39l-145.94,1.17-145.94.67-291.89.55-291.89-.5-145.94-.62-145.94-1.08c-.32,0-.59-.27-.58-.59,0-.32.26-.58.58-.58Z" style="fill:#fff; mix-blend-mode:soft-light; stroke-width:0px;"/><path d="M554.22,818.29l134.28-1.08,134.28-.61,268.56-.5,268.55.55,134.28.67,134.28,1.17c.22,0,.39.18.39.4,0,.22-.18.39-.39.39l-134.28,1.17-134.28.67-268.55.55-268.56-.5-134.28-.61-134.28-1.08c-.32,0-.59-.27-.58-.59,0-.32.26-.58.58-.58Z" style="fill:#fff; mix-blend-mode:soft-light; stroke-width:0px;"/><path d="M1491.88,1045.84h-762.66c-1.14,0-2.06-.92-2.06-2.06s.92-2.06,2.06-2.06h762.66c1.14,0,2.06.92,2.06,2.06s-.92,2.06-2.06,2.06Z" style="fill:#fff; mix-blend-mode:soft-light; stroke-width:0px;"/></g><path d="M1018.03,1046.09s-12.69-33.4-27.51-30.34c-14.82,3.06-31.03,14.44-31.03,14.44l-23.81,32.2s66.83,26.33,90.33,11.24c0,0,68.26,11.8,154.46-2.35-12.48-26.34-19.92-52.72-24.28-73.19-43.66,24.71-90.69,43.17-138.17,48Z" style="fill:url(#uuid-323100f0-3dcd-4201-9d4c-513b16696bdb); stroke-width:0px;"/><path d="M1379.62,803.85s-97.73,123.1-223.42,194.24c4.37,20.47,11.8,46.85,24.28,73.19,65.2-10.7,140.66-36.23,204.63-92.97l-5.5-174.47Z" style="fill:#bdd0fb; stroke-width:0px;"/><path d="M74.28,860.62l194.02,487.94c9.87,24.83,35.49,39.66,61.94,35.86l508.78-37.57-183.26-518.87c-4.88-12.84-17.32-21.2-31.05-20.89-89.2,2.05-414.09,10.08-530.31,20.42-16.14,1.44-26.25,18.12-20.11,33.11Z" style="fill:url(#uuid-21a819d7-560d-4613-9a61-4007d0c21811); stroke-width:0px;"/><path d="M313.1,1362.26l-193.84-492.32c-3.91-9.94,3.26-20.73,13.94-20.97l479.12-18.18c12.34-.47,23.63,6.92,28.14,18.42l175.48,479.92-502.84,33.13Z" style="fill:#91b3fa; stroke-width:0px;"/><path d="M2011.91,860.62l-194.02,487.94c-9.87,24.83-35.49,39.66-61.94,35.86l-508.78-35.6,183.26-520.83c4.88-12.84,17.32-21.2,31.05-20.89,89.2,2.05,414.09,10.08,530.31,20.42,16.14,1.44,26.25,18.12,20.11,33.11Z" style="fill:url(#uuid-bbbb48bc-4b80-403a-badc-f435e8be8499); stroke-width:0px;"/><path d="M1773.09,1362.26l193.84-492.32c3.91-9.94-3.26-20.73-13.94-20.97l-479.12-18.18c-12.34-.47-23.63,6.92-28.14,18.42l-175.48,479.92,502.84,33.13Z" style="fill:url(#uuid-5e96f27b-180c-4574-a953-4c9da2a6c8ad); stroke-width:0px;"/><path d="M647.12,820.12l6.07,162.96c17.23,5.93,33.64,10.54,49.27,13.99,9.77-31.46,31.29-70.08,48.91-98.79-64.74-22.89-104.25-78.15-104.25-78.15Z" style="fill:url(#uuid-b13d6cf9-cf91-4607-84af-126e36802176); stroke-width:0px;"/><path d="M970.35,817.35c-88.81,95.89-160.69,101.53-218.99,80.93-17.62,28.71-39.14,67.33-48.91,98.79,237.17,52.29,293.02-165.74,293.02-165.74l-25.11-13.98Z" style="fill:url(#uuid-2ce4e240-8cea-47a5-8535-d241574859d4); stroke-width:0px;"/><path d="M988.36,807.17s10.23-10.99,29.16-7.53c18.93,3.45,35.79,10.03,47.58,0,11.8-10.03,15.94,3.43,15.94,3.43l-35.33,26.85-57.37-22.75Z" style="fill:url(#uuid-e1b28e6d-d771-4385-896f-bef40c6f833d); stroke-width:0px;"/><path d="M967.23,825.95s7.01-29.31,28.13-25.29c21.12,4.02,69.08,30.1,81.44,25.29,12.36-4.8,28.16-16.3,36.27-12.24l-14.28,17.76s36.72-21.18,43.04-8.17l-61.09,34.38s-89.38-8.95-113.51-31.73Z" style="fill:url(#uuid-618655f0-f382-4686-85c8-e97ee4bae74f); stroke-width:0px;"/><path d="M339.67,1357.2s-30.3-432.63,190.61-567.15c0,0,61.76-40.77,138.72,38.19s52.17,161-12.41,237.88c-64.58,76.88-130.36,214.21-114.71,291.08h-202.21Z" style="fill:url(#uuid-a779bf7b-e1f2-4ccf-afbd-67c2a73203b6); stroke-width:0px;"/><path d="M641.62,672.21c-.06,5.16-73.62,109.64-73.62,109.64,0,0,13.2,26,76.24,47.12l54.41-111.87-57.03-44.89Z" style="fill:url(#uuid-d32814ca-ca15-4a8e-90eb-5f535d4ed1fc); stroke-width:0px;"/><path d="M612.69,1030.95s139.57,116.89,290.28,65.88c9.35-3.16,19.57-2.48,28.29,2.13l43.33,22.88c18.19,9.6,40.71,3.3,51.26-14.35,6.02-10.07,11.16-21.57,12.18-32.59l-84.78-34.32,6.25-10.4s-41.39-3.51-52.23,26.16c0,0-78.84,32.79-211.8-113.45,0,0-60.34,51.3-82.78,88.05Z" style="fill:url(#uuid-98d1c7b5-ff3c-464b-8e10-2e8f5d6da94e); stroke-width:0px;"/><path d="M605.18,1030.44c-.6,0-1.2-.17-1.73-.53-58.94-39.82-86.66-104.1-86.94-104.74-.67-1.57.07-3.38,1.64-4.05,1.57-.67,3.38.07,4.05,1.64.27.63,27.33,63.27,84.71,102.04,1.41.95,1.79,2.87.83,4.29-.6.88-1.57,1.36-2.56,1.36Z" style="fill:url(#uuid-a39d3bf3-0210-44da-9445-ed80048e6e1f); stroke-width:0px;"/><path d="M692.71,941.62c-1.01,0-2.01-.5-2.6-1.42-.18-.28-18.14-28.24-52.35-89.49-10.42-18.65-24.09-30.46-40.64-35.09-27.44-7.68-53.92,7.05-54.18,7.2-1.48.84-3.37.32-4.21-1.16-.84-1.48-.32-3.37,1.16-4.21,1.17-.66,28.89-16.14,58.84-7.79,18.22,5.08,33.16,17.88,44.42,38.05,34.09,61.05,51.97,88.89,52.15,89.16.92,1.43.51,3.34-.92,4.27-.52.33-1.1.49-1.67.49Z" style="fill:url(#uuid-05cb9cc3-bdf1-47e2-8394-43fbb29ce57f); stroke-width:0px;"/><path d="M699.53,612.34s26.17,60.13,27.93,91.69c1.76,31.56,8.56,52.04-27.93,58.39-36.49,6.36-67.23-11.82-83.88-43.26,0,0-26.09-48.44-20.24-68.28,5.85-19.84,104.12-38.54,104.12-38.54Z" style="fill:url(#uuid-5fe4c18c-5bc5-4a85-9c35-595aac312ad1); stroke-width:0px;"/><path d="M628.12,696.56l2.08-.92c2.64-1.17,3.78-4.31,2.45-6.88-5.15-9.94-15.18-32.73-2.22-38.04,16.7-6.85,82.86-20.34,97.13-43.81,13.72-22.56,1.56-51.68-16.7-59.97-1.22-.55-2.66-.11-3.29,1.07l-1.52,2.88c-1.04,1.97-3.95,1.67-4.57-.47h0c-.6-2.06-3.33-2.46-4.47-.64-4.39,7.02-16.23,18.41-47.91,24.25-45.02,8.31-74.78,26.53-75.52,57.63-.05,1.98-2.15,3.08-3.84,2.05-3.32-2.03-8.64-2.98-15.75,3-12.36,10.4-7.3,37.36,19.8,59.54,1.29,1.05,1.28,3.06-.12,3.97-4.91,3.2-12.24,10.81,6.74,20.95,19.63,10.49,34.29,9.63,39.93,8.7,1.4-.23,2.31-1.59,2-2.98l-6.02-27.34c-.34-1.55.84-3.01,2.42-3.01h9.38Z" style="fill:url(#uuid-cb150941-bf05-4e5d-a01c-1b41e301018a); stroke-width:0px;"/><path d="M629.25,702.33s-9.99-38.41-27.21-27.64c-17.22,10.77,8.94,43.04,22.78,44.47l4.43-16.83Z" style="fill:url(#uuid-7113ee7f-b34c-4262-bf2d-6c5b986d150c); stroke-width:0px;"/><path d="M931.26,1098.97s35.47,34.69,42.31,29.64c2.44-1.8,8.58-8.32,14.54-15.59,4.2-5.13,4.64-12.37,1.03-17.94l-8.36-12.91c-7.97-12.3-25.04-14.88-36.09-5.26-5.58,4.85-10.64,11.88-13.43,22.05Z" style="fill:url(#uuid-becea0b0-e497-4c00-9c4a-97370d1dc590); stroke-width:0px;"/><path d="M1490.14,1350.83s-.24-155.87-90.86-316.82c-28.35-50.35-38.43-108.94-29.59-166.04l9.93-64.13s124.37-42.09,262.23-1.77c0,0,191.16,157.78,63.4,561.32l-215.11-12.56Z" style="fill:#bdd0fb; stroke-width:0px;"/><path d="M1400.79,722l32.25,77.48c2.04,4.89,6.44,8.38,11.66,9.28,18.59,3.19,63.56,8.17,93.1-11.25,3.52-2.31,4.42-7.1,2.01-10.55l-59.58-85.54-79.44,20.59Z" style="fill:url(#uuid-5788dc88-54aa-458f-8601-b3f8d7b964c5); stroke-width:0px;"/><path d="M1480.33,1086.11c-4.44,1.17-6.65,6.16-4.52,10.24l93.3,178.9c1.58,3.02,5.06,4.51,8.34,3.57l305.19-88.11c3.8-1.1,5.99-5.07,4.89-8.87l-52.57-181.99c-1.08-3.74-4.94-5.93-8.71-4.94l-345.92,91.21Z" style="fill:#7d97f4; stroke-width:0px;"/><path d="M1500.02,1065.09c-4.37,1.04-6.85,5.67-5.3,9.88l74.68,202.87c1.36,3.69,5.34,5.7,9.11,4.61l304.27-87.85c3.79-1.09,6.08-4.93,5.25-8.78l-42.17-195.25c-.89-4.11-4.98-6.68-9.06-5.71l-336.78,80.23Z" style="fill:#91b3fa; stroke-width:0px;"/><path d="M1526.51,1044.61c-5.33.81-8.85,5.99-7.63,11.25l50.72,219.01c1.2,5.17,6.49,8.28,11.6,6.81l299.66-86.52c4.82-1.39,7.65-6.36,6.4-11.21l-46.08-178.77c-1.19-4.6-5.66-7.56-10.36-6.85l-304.3,46.28Z" style="fill:url(#uuid-37d47e39-e85e-4143-815d-7acba37b00d4); stroke-width:0px;"/><path d="M1769.08,1128.13c23.26-175.69-112.13-310.78-112.13-310.78l-80.55,93.91c61.16,76.23,90.23,146.08,103.51,200.95,17.61-5.13,60.02-13.23,89.18,15.92Z" style="fill:#bdd0fb; stroke-width:0px;"/><path d="M1679.91,1114.27c-.93,0-1.77-.63-2-1.57-16.47-68.05-51.17-135.39-103.12-200.14-.71-.89-.57-2.18.32-2.89.89-.71,2.18-.57,2.89.32,52.33,65.23,87.29,133.11,103.9,201.75.27,1.1-.41,2.22-1.52,2.49-.16.04-.33.06-.49.06Z" style="fill:#91b3fa; stroke-width:0px;"/><path d="M1679.91,1112.21c12.34,50.99,11.05,89.04,9.17,107.2-.71,6.85-6.21,12.2-13.08,12.68-7.8.55-18.42,1.26-27.91,1.81-10.43.6-22.01-5.99-29.75-11.5-3.95-2.81-9.06,1.57-6.86,5.89,5.78,11.3,20.44,21.37,30.55,27.28,3.68,2.15,2.99,7.65-1.11,8.81l-43.22,12.25c71.02,66.91,117.91-7.95,117.91-7.95,31.35-48.44,47.56-95.81,53.48-140.54-29.16-29.15-71.57-21.05-89.18-15.92Z" style="fill:url(#uuid-96d1fbea-04d5-4c73-aa2f-83f863a5c8cb); stroke-width:0px;"/><path d="M1434.14,603.46c-1.35,1.28-57.16,110.87-57.16,110.87l63.25,30.53,68.33-96.01s-51.74-66.73-74.42-45.39Z" style="fill:url(#uuid-9caf22f3-b966-44ad-a535-eedc4e28c88a); stroke-width:0px;"/><path d="M1479.81,660.37l-31.55,52.59c-.48.8-1.05,1.52-1.73,2.15-3.75,3.5-16.6,13.66-26.54-.18-8.47-11.8-16.41-22.52-24.92-26.95-4.97-2.58-11.09-.52-13.61,4.48-5.2,10.3-15.27,31.3-21.59,51.21-1.59,4.99.99,10.35,5.84,12.32,12.81,5.19,38.12,14.57,60.58,17.67,3.69.51,7.34-1.05,9.54-4.06,9.66-13.24,36.9-50.24,46.2-59.5,8.64-8.6,24.58-5.36,31.76-3.3,2.73.78,5.63.41,8.06-1.06,7.29-4.39,20-15.32,8.37-33.83-2.89-4.6-1.42-10.73,3.12-13.72,8.14-5.35,16.97-15.4,8.55-31.67-8.52-16.47-23.72-17.95-34.08-16.68-4.58.56-9.23-1.84-10.99-6.11-.78-1.9-2.33-3.52-5.21-4.1-5.43-1.1-8.99-6.07-7.93-11.5,1.83-9.32.45-21.43-14.43-29.61-27.29-15.01-51.2,9.44-57.28,30.08-6.08,20.64,24.44,35.23,43.63,37.66,14.1,1.79,21.83,17.18,24.94,25.22,1.13,2.92.85,6.18-.76,8.86Z" style="fill:url(#uuid-1a4c5abd-9ce7-434d-9321-b35dcc7ee3d7); stroke-width:0px;"/><path d="M1470.19,729.43s12.14-35.51,27.67-34.21c15.53,1.3,27.76,16.78,8.51,34.18-23.95,21.64-36.18.03-36.18.03Z" style="fill:url(#uuid-5da89bbe-a514-42bc-a5f0-bdf7ee744a44); stroke-width:0px;"/><path d="M1012.01,1368.53c0,9.1-7.37,16.47-16.47,16.47H326.41c-13.82,0-25.03-11.21-25.03-25.03l-10.53-12.23,694.77-5.95c14.63.2,26.38,12.11,26.38,26.74h0Z" style="fill:url(#uuid-5ec3bf24-5d7c-49a4-b820-234a6a2876f7); stroke-width:0px;"/><path d="M1074.18,1368.53c0,9.1,7.37,16.47,16.47,16.47h669.13c13.82,0,25.03-11.21,25.03-25.03l10.53-12.23-694.77-5.95c-14.63.2-26.38,12.11-26.38,26.74h0Z" style="fill:url(#uuid-8286fbbf-68d1-4489-89fe-f5280f072ff5); stroke-width:0px;"/><path d="M1285.31,730.43c-.6,0-1.18-.26-1.59-.75-.72-.88-.6-2.17.28-2.9,2.1-1.74,4.17-3.5,6.21-5.3.85-.75,2.16-.67,2.9.18.75.85.67,2.15-.18,2.91-2.07,1.83-4.18,3.62-6.31,5.38-.38.32-.85.47-1.31.47Z" style="fill:url(#uuid-d4bae929-bd55-4a20-b31c-939f42fbdc9c); stroke-width:0px;"/><path d="M1131.33,788.76c-1.1,0-2.02-.88-2.05-1.99-.04-1.14.85-2.09,1.99-2.13,5.25-.18,10.56-.53,15.8-1.04,1.12-.12,2.14.72,2.25,1.85.11,1.13-.72,2.14-1.85,2.25-5.32.52-10.72.87-16.06,1.05-.02,0-.05,0-.07,0ZM1105.4,788.31s-.09,0-.14,0c-5.33-.36-10.72-.9-16.01-1.6-1.13-.15-1.92-1.18-1.77-2.31.15-1.13,1.14-1.93,2.31-1.77,5.21.69,10.51,1.22,15.76,1.57,1.13.08,1.99,1.06,1.91,2.19-.07,1.09-.98,1.92-2.05,1.92ZM1172.9,783.88c-.96,0-1.82-.67-2.02-1.65-.23-1.11.5-2.2,1.61-2.43,5.14-1.04,10.32-2.25,15.42-3.62,1.1-.29,2.23.36,2.52,1.46.29,1.1-.36,2.23-1.46,2.52-5.17,1.39-10.45,2.62-15.67,3.68-.14.03-.27.04-.41.04ZM1064.01,782.04c-.16,0-.32-.02-.48-.06-5.19-1.23-10.42-2.64-15.53-4.19-1.09-.33-1.7-1.48-1.37-2.57.33-1.09,1.47-1.7,2.57-1.37,5.04,1.53,10.18,2.92,15.29,4.13,1.11.26,1.79,1.37,1.53,2.48-.22.95-1.07,1.58-2,1.58ZM1213.13,772.27c-.83,0-1.61-.51-1.92-1.33-.4-1.06.13-2.25,1.19-2.66l1.38-.53c4.45-1.71,8.91-3.58,13.25-5.54,1.04-.47,2.26,0,2.72,1.03.47,1.04,0,2.25-1.03,2.72-4.41,1.99-8.94,3.88-13.46,5.63l-1.4.53c-.24.09-.49.14-.73.14ZM1024.2,769.1c-.27,0-.53-.05-.79-.16-4.93-2.06-9.86-4.3-14.64-6.66-1.02-.5-1.44-1.74-.93-2.76.5-1.02,1.73-1.44,2.76-.94,4.71,2.32,9.55,4.53,14.41,6.56,1.05.44,1.54,1.64,1.11,2.69-.33.79-1.1,1.27-1.9,1.27ZM1250.94,754.32c-.71,0-1.4-.37-1.78-1.03-.57-.98-.24-2.24.75-2.81,4.55-2.64,9.07-5.45,13.44-8.36.95-.63,2.22-.37,2.85.57.63.95.37,2.22-.57,2.85-4.44,2.96-9.04,5.82-13.66,8.5-.32.19-.68.28-1.03.28ZM987.02,749.87c-.37,0-.75-.1-1.09-.31-4.54-2.84-9.04-5.85-13.37-8.95-.92-.66-1.14-1.95-.48-2.87.66-.93,1.95-1.14,2.87-.48,4.26,3.05,8.69,6.01,13.15,8.81.97.6,1.26,1.87.65,2.84-.39.62-1.06.97-1.75.97ZM953.49,724.86c-.48,0-.97-.17-1.36-.51-4.01-3.53-7.95-7.24-11.72-11.01-.8-.81-.8-2.11,0-2.91.8-.8,2.11-.8,2.91,0,3.71,3.71,7.59,7.36,11.53,10.83.85.75.93,2.05.18,2.91-.41.46-.98.7-1.54.7ZM924.51,694.7c-.6,0-1.19-.26-1.6-.76-3.36-4.13-6.64-8.43-9.75-12.78-.66-.92-.45-2.21.48-2.87.92-.66,2.21-.45,2.87.48,3.06,4.28,6.28,8.51,9.59,12.58.72.88.59,2.18-.3,2.9-.38.31-.84.46-1.3.46ZM900.87,660.18c-.72,0-1.41-.37-1.79-1.04-2.64-4.64-5.17-9.42-7.52-14.22-.5-1.02-.08-2.25.94-2.75,1.02-.5,2.26-.08,2.76.94,2.31,4.72,4.8,9.43,7.4,13.99.56.99.22,2.24-.77,2.81-.32.18-.67.27-1.02.27ZM883.17,622.25c-.84,0-1.62-.51-1.93-1.34-1.87-5.03-3.59-10.16-5.13-15.25-.33-1.09.29-2.24,1.38-2.57,1.08-.33,2.24.29,2.57,1.38,1.51,5.01,3.21,10.06,5.05,15.01.4,1.07-.15,2.25-1.21,2.65-.24.09-.48.13-.72.13ZM871.84,581.95c-.97,0-1.83-.68-2.02-1.67-1.02-5.22-1.88-10.56-2.58-15.88-.15-1.13.65-2.16,1.77-2.31,1.13-.14,2.16.65,2.31,1.77.69,5.24,1.54,10.49,2.54,15.63.22,1.12-.51,2.2-1.63,2.41-.13.03-.27.04-.4.04ZM867.25,540.34c-1.11,0-2.03-.89-2.06-2-.06-2.31-.09-4.62-.09-6.92,0-3.07.06-6.15.17-9.17.04-1.11.95-1.98,2.05-1.98.03,0,.05,0,.08,0,1.14.04,2.02,1,1.98,2.13-.11,2.97-.16,6-.16,9.02,0,2.27.03,4.54.09,6.81.03,1.14-.87,2.08-2,2.11-.02,0-.04,0-.06,0Z" style="fill:url(#uuid-5ebba196-d4ba-4509-80f4-20ede4ef5841); stroke-width:0px;"/><path d="M869.6,498.4c-.09,0-.19,0-.29-.02-1.13-.16-1.91-1.2-1.76-2.32.38-2.74.81-5.47,1.28-8.2.19-1.12,1.25-1.87,2.38-1.68,1.12.19,1.87,1.26,1.68,2.38-.46,2.68-.88,5.37-1.26,8.06-.14,1.03-1.03,1.78-2.04,1.78Z" style="fill:url(#uuid-d67954d8-bc31-40ad-bdeb-a02928608869); stroke-width:0px;"/><path d="M970.52,328.17c-.63,0-1.25-.29-1.66-.83-.68-.91-.48-2.2.43-2.88,2.22-1.64,4.47-3.25,6.75-4.83.93-.65,2.22-.41,2.86.52.65.93.41,2.22-.52,2.86-2.24,1.55-4.46,3.14-6.64,4.75-.37.27-.8.4-1.22.4Z" style="fill:url(#uuid-3d7109a8-fea9-4cef-ba79-52b13ba018bc); stroke-width:0px;"/><path d="M1377.38,552.83c-.05,0-.11,0-.16,0-1.13-.09-1.98-1.08-1.89-2.21.43-5.53.67-11.15.73-16.71.01-1.13.93-2.04,2.06-2.04h.02c1.14.01,2.05.94,2.04,2.08-.06,5.65-.31,11.36-.74,16.98-.08,1.08-.99,1.9-2.05,1.9ZM1376.91,508.62c-1.05,0-1.94-.79-2.05-1.86-.54-5.52-1.28-11.09-2.19-16.58-.19-1.12.57-2.18,1.69-2.37,1.11-.19,2.18.57,2.37,1.69.92,5.58,1.67,11.25,2.22,16.85.11,1.13-.72,2.14-1.85,2.25-.07,0-.14.01-.2.01ZM1368.78,465.17c-.9,0-1.73-.6-1.98-1.51-1.49-5.33-3.18-10.7-5.02-15.96-.38-1.07.19-2.25,1.26-2.62,1.08-.37,2.25.19,2.62,1.26,1.87,5.34,3.59,10.79,5.1,16.21.31,1.1-.33,2.23-1.43,2.54-.18.05-.37.08-.55.08ZM1353.32,423.75c-.77,0-1.51-.43-1.86-1.18-2.38-5.02-4.96-10.02-7.66-14.86-.55-.99-.2-2.25.79-2.8.99-.55,2.25-.2,2.8.8,2.75,4.92,5.36,10.01,7.78,15.11.49,1.03.05,2.25-.98,2.74-.29.13-.59.2-.88.2ZM1331.01,385.6c-.65,0-1.28-.3-1.68-.87-3.21-4.53-6.61-9.01-10.11-13.31-.72-.88-.59-2.18.3-2.9.88-.72,2.18-.58,2.9.3,3.55,4.37,7.01,8.92,10.27,13.52.66.93.44,2.21-.49,2.87-.36.26-.78.38-1.19.38ZM1302.43,351.92c-.52,0-1.05-.2-1.45-.59-3.94-3.9-8.07-7.72-12.27-11.36-.86-.74-.95-2.04-.21-2.9.74-.86,2.05-.95,2.9-.21,4.27,3.7,8.46,7.58,12.47,11.54.81.8.82,2.1.02,2.91-.4.41-.93.61-1.46.61ZM1268.44,323.68c-.4,0-.81-.12-1.17-.37-4.57-3.17-9.29-6.22-14.04-9.07-.98-.59-1.29-1.85-.71-2.82.58-.97,1.85-1.29,2.82-.71,4.83,2.9,9.63,6,14.27,9.22.93.65,1.17,1.93.52,2.86-.4.58-1.04.89-1.69.89ZM1000.55,309.05c-.73,0-1.44-.39-1.81-1.08-.54-1-.17-2.25.83-2.79,4.95-2.69,10.06-5.25,15.19-7.61,1.04-.48,2.26-.02,2.73,1.01.48,1.03.02,2.25-1.01,2.73-5.05,2.32-10.08,4.84-14.95,7.49-.31.17-.65.25-.98.25ZM1230.08,301.71c-.29,0-.58-.06-.86-.19-5.04-2.33-10.21-4.53-15.4-6.53-1.06-.41-1.59-1.6-1.18-2.66s1.6-1.58,2.66-1.18c5.26,2.03,10.53,4.27,15.64,6.64,1.03.48,1.48,1.7,1,2.73-.35.75-1.09,1.19-1.87,1.19ZM1041.08,291.38c-.86,0-1.66-.54-1.95-1.4-.36-1.08.21-2.24,1.29-2.61,5.35-1.81,10.83-3.46,16.27-4.91,1.09-.29,2.23.36,2.52,1.46.29,1.1-.36,2.23-1.46,2.52-5.36,1.43-10.74,3.05-16.01,4.83-.22.07-.44.11-.66.11ZM1188.53,286.64c-.18,0-.36-.02-.53-.07-5.36-1.44-10.84-2.71-16.29-3.79-1.12-.22-1.84-1.3-1.62-2.42.22-1.12,1.3-1.85,2.42-1.62,5.53,1.1,11.11,2.39,16.55,3.85,1.1.29,1.75,1.42,1.46,2.52-.25.92-1.08,1.53-1.99,1.53ZM1084.02,280.89c-1,0-1.88-.73-2.03-1.75-.17-1.12.6-2.17,1.72-2.35,5.58-.86,11.25-1.54,16.88-2.03,1.16-.12,2.13.74,2.23,1.87.1,1.13-.74,2.13-1.87,2.23-5.53.48-11.12,1.15-16.6,1.99-.11.02-.21.02-.32.02ZM1144.99,278.93c-.06,0-.12,0-.18,0-5.53-.49-11.15-.8-16.7-.92-1.14-.03-2.04-.97-2.01-2.1.03-1.13.93-1.96,2.1-2.01,5.64.12,11.35.44,16.97.94,1.13.1,1.97,1.1,1.87,2.23-.09,1.07-.99,1.88-2.05,1.88Z" style="fill:url(#uuid-4613b09b-ec69-4182-9de1-7dd97f88a39f); stroke-width:0px;"/><path d="M1372.14,588.19c-.15,0-.3-.02-.45-.05-1.11-.25-1.81-1.34-1.57-2.45.59-2.65,1.13-5.32,1.63-8,.21-1.12,1.28-1.85,2.4-1.64,1.12.21,1.85,1.29,1.64,2.4-.51,2.72-1.06,5.43-1.66,8.13-.21.96-1.06,1.61-2.01,1.61Z" style="fill:url(#uuid-6d3234c6-9120-4115-9a6b-f9efd99554b8); stroke-width:0px;"/><path d="M1307.46,597.26c.57-1.18.33-2.59-.6-3.51l-26.49-26.28c3.79-17.01,4.9-34.74,3-52.57l29.27-23.1c1.03-.81,1.43-2.18,1-3.42l-14.76-42.25c-.43-1.23-1.6-2.06-2.91-2.05l-37.29.15c-9.62-15.13-21.52-28.32-35.08-39.27l4.37-37.05c.15-1.3-.53-2.55-1.71-3.12l-40.31-19.44c-1.18-.57-2.59-.33-3.51.6l-26.28,26.49c-17.01-3.79-34.74-4.9-52.57-3l-23.1-29.27c-.81-1.03-2.18-1.43-3.42-.99l-42.25,14.76c-1.23.43-2.06,1.6-2.05,2.91l.15,37.29c-15.13,9.62-28.32,21.52-39.27,35.08l-37.05-4.37c-1.3-.15-2.55.54-3.12,1.71l-19.44,40.31c-.57,1.18-.33,2.59.6,3.51l26.49,26.28c-3.79,17.01-4.9,34.74-3,52.57l-29.27,23.1c-1.03.81-1.43,2.18-1,3.42l14.76,42.25c.43,1.23,1.6,2.06,2.91,2.05l37.29-.15c9.62,15.13,21.52,28.32,35.08,39.27l-4.37,37.05c-.15,1.3.53,2.55,1.71,3.12l40.31,19.44c1.18.57,2.59.33,3.51-.6l26.28-26.49c17.01,3.79,34.74,4.9,52.57,3l23.1,29.27c.81,1.03,2.18,1.43,3.42.99l42.25-14.76c1.23-.43,2.06-1.6,2.06-2.91l-.15-37.29c15.13-9.62,28.32-21.52,39.27-35.08l37.05,4.37c1.3.15,2.55-.53,3.12-1.71l19.44-40.31Z" style="fill:url(#uuid-759e1b79-fc32-4b5f-815a-cc5319ad7e61); stroke-width:0px;"/><path d="M1120.81,573.85c-13.59,0-26.92-6.6-34.95-18.76-6.15-9.32-8.3-20.47-6.06-31.41,2.24-10.94,8.61-20.35,17.92-26.5,9.32-6.15,20.47-8.3,31.41-6.06,10.94,2.24,20.35,8.61,26.5,17.92,12.69,19.24,7.37,45.21-11.86,57.91-7.07,4.67-15.06,6.9-22.96,6.9ZM1120.67,494.37c-7.3,0-14.44,2.13-20.68,6.24-8.4,5.54-14.14,14.03-16.16,23.89-2.02,9.86-.08,19.92,5.47,28.32,11.44,17.34,34.86,22.14,52.2,10.69,17.34-11.44,22.14-34.86,10.69-52.2-5.54-8.4-14.03-14.14-23.89-16.16-2.55-.52-5.1-.78-7.64-.78Z" style="fill:url(#uuid-d4902b4e-fd22-466b-87c4-bb7f98a023bb); stroke-width:0px;"/><path d="M1119.96,641.77c-45.5,0-88.16-28.45-103.99-73.77-4.18-11.97-6.16-24.19-6.16-36.21,0-45.49,28.45-88.15,73.76-103.97,27.75-9.7,57.61-8,84.09,4.77,26.48,12.77,46.4,35.08,56.09,62.83h0c2.36,6.77,4.07,13.76,5.08,20.82.09.66.18,1.33.27,1.99.01.09.02.17.02.26,0,1.02-.76,1.91-1.81,2.04-1.1.14-2.16-.66-2.3-1.79-.93-7.44-2.66-14.83-5.15-21.96-9.33-26.71-28.51-48.19-53.99-60.48-25.49-12.29-54.23-13.92-80.94-4.59-43.62,15.24-71,56.3-71.01,100.09,0,11.57,1.91,23.33,5.93,34.85,19.26,55.14,79.8,84.33,134.94,65.07,18.13-6.33,34.17-17.44,46.4-32.11.73-.87,2.03-.99,2.9-.26.49.41.74.99.74,1.58,0,.47-.15.93-.48,1.32-12.7,15.25-29.37,26.78-48.2,33.36-11.97,4.18-24.18,6.16-36.19,6.16Z" style="fill:url(#uuid-f8c7bc13-3119-4d09-8b85-62991d347cf6); stroke-width:0px;"/><path d="M886.01,346.87l-15.96-13.5c1.36-9.67,1.19-19.62-.66-29.5l15.32-14.2c.54-.5.7-1.28.4-1.95l-10.12-22.94c-.3-.67-.98-1.08-1.71-1.02l-20.82,1.74c-6.04-8.03-13.28-14.86-21.34-20.38l.79-20.89c.03-.73-.41-1.4-1.1-1.67l-23.38-9.07c-.68-.26-1.46-.07-1.93.49l-13.5,15.96c-9.67-1.36-19.62-1.19-29.5.66l-14.2-15.32c-.5-.54-1.28-.7-1.95-.4l-22.94,10.12c-.67.3-1.08.98-1.02,1.71l1.74,20.82c-8.03,6.04-14.86,13.28-20.38,21.34l-20.89-.79c-.73-.03-1.4.41-1.67,1.1l-9.07,23.38c-.27.68-.07,1.46.49,1.93l15.96,13.5c-1.36,9.67-1.19,19.62.66,29.5l-15.32,14.2c-.54.5-.7,1.28-.4,1.95l10.12,22.94c.3.67.98,1.08,1.71,1.02l20.82-1.74c6.04,8.03,13.28,14.86,21.34,20.38l-.79,20.89c-.03.73.41,1.4,1.1,1.67l23.38,9.07c.68.26,1.46.07,1.93-.49l13.5-15.96c9.67,1.36,19.62,1.19,29.5-.66l14.2,15.32c.5.54,1.28.7,1.95.4l22.94-10.12c.67-.3,1.08-.98,1.02-1.71l-1.74-20.82c8.03-6.04,14.86-13.28,20.38-21.34l20.89.79c.73.03,1.4-.41,1.67-1.1l9.07-23.38c.26-.68.07-1.46-.49-1.93Z" style="fill:url(#uuid-fa3a1701-33bb-45b3-a31d-cbf60b21e6bf); stroke-width:0px;"/><path d="M779.35,344.99c-7.24,0-14.41-3.21-19.2-9.35-8.25-10.57-6.36-25.89,4.21-34.14,10.57-8.25,25.89-6.36,34.14,4.21,8.25,10.57,6.36,25.89-4.21,34.14-4.44,3.46-9.7,5.14-14.94,5.14ZM779.28,300.46c-4.48,0-8.8,1.48-12.39,4.28-8.78,6.85-10.35,19.58-3.5,28.36,6.86,8.79,19.58,10.35,28.36,3.5,4.26-3.32,6.96-8.1,7.62-13.46.66-5.36-.8-10.65-4.12-14.91-3.32-4.26-8.1-6.96-13.46-7.62-.84-.1-1.68-.15-2.51-.15Z" style="fill:url(#uuid-da68eefb-51e7-48a2-b21a-92d31ca33114); stroke-width:0px;"/><path d="M889.12,400.29c-.41,0-.83-.12-1.19-.38-.93-.66-1.15-1.94-.49-2.87,1.55-2.19,3.05-4.46,4.47-6.76.6-.97,1.87-1.27,2.83-.67.97.6,1.27,1.87.67,2.83-1.46,2.37-3.01,4.71-4.61,6.97-.4.57-1.04.87-1.68.87Z" style="fill:url(#uuid-7ee30e0b-d50d-4560-8c7e-9081f86ad5a9); stroke-width:0px;"/><path d="M783.93,457.08c-1.1,0-2.02-.88-2.05-1.99-.04-1.14.85-2.09,1.99-2.13,5.14-.17,10.33-.65,15.41-1.42,1.12-.17,2.18.6,2.34,1.73.17,1.12-.6,2.17-1.72,2.34-5.24.79-10.59,1.29-15.89,1.47-.02,0-.05,0-.07,0ZM758.46,455.53c-.1,0-.21,0-.32-.03-5.24-.82-10.49-1.96-15.59-3.38-1.1-.31-1.73-1.44-1.43-2.54.3-1.1,1.44-1.73,2.54-1.43,4.95,1.38,10.04,2.48,15.13,3.28,1.12.18,1.89,1.23,1.71,2.35-.16,1.02-1.04,1.74-2.03,1.74ZM824.34,449.42c-.85,0-1.64-.53-1.94-1.37-.38-1.07.18-2.25,1.25-2.63,4.85-1.73,9.64-3.76,14.25-6.04,1.02-.5,2.25-.09,2.76.93.5,1.02.09,2.25-.93,2.76-4.75,2.35-9.7,4.45-14.7,6.23-.23.08-.46.12-.69.12ZM719.27,443.05c-.31,0-.62-.07-.91-.22-4.75-2.37-9.41-5.04-13.84-7.94-.95-.62-1.22-1.9-.59-2.85.62-.95,1.9-1.22,2.85-.59,4.3,2.81,8.81,5.41,13.42,7.7,1.02.51,1.43,1.74.93,2.76-.36.72-1.09,1.14-1.85,1.14ZM860.51,429.85c-.62,0-1.24-.28-1.64-.82-.69-.91-.51-2.2.4-2.88.49-.37.98-.75,1.47-1.13,3.58-2.8,7.05-5.8,10.31-8.93.82-.79,2.12-.76,2.91.06.79.82.76,2.12-.06,2.91-3.36,3.22-6.94,6.32-10.63,9.2-.5.39-1.01.78-1.51,1.16-.37.28-.81.42-1.24.42ZM685.73,419.27c-.52,0-1.04-.19-1.44-.58-3.79-3.68-7.42-7.64-10.78-11.77-.72-.88-.59-2.18.3-2.9.88-.72,2.18-.58,2.9.3,3.26,4,6.78,7.84,10.46,11.42.81.79.83,2.1.04,2.91-.4.42-.94.62-1.48.62ZM660.92,386.47c-.73,0-1.44-.39-1.81-1.08-2.52-4.68-4.79-9.54-6.74-14.47-.42-1.06.1-2.25,1.16-2.67,1.05-.42,2.25.1,2.67,1.16,1.89,4.77,4.09,9.49,6.54,14.03.54,1,.17,2.25-.83,2.79-.31.17-.65.25-.98.25Z" style="fill:url(#uuid-2ab89c5d-ca9e-46a3-9a71-08610750d82f); stroke-width:0px;"/><path d="M647.17,347.62c-.97,0-1.84-.69-2.02-1.68-.51-2.72-.94-5.49-1.29-8.26-.14-1.13.66-2.16,1.79-2.3,1.14-.15,2.16.66,2.3,1.79.34,2.68.76,5.37,1.25,8.01.21,1.12-.52,2.19-1.64,2.4-.13.02-.26.04-.38.04Z" style="fill:url(#uuid-c920bd93-5dd5-4848-9003-6b21f2be2242); stroke-width:0px;"/><path d="M671.31,242.63c-.43,0-.86-.13-1.23-.41-.91-.68-1.1-1.97-.42-2.88,1.66-2.23,3.4-4.44,5.19-6.55.73-.87,2.03-.98,2.9-.25.87.73.98,2.03.25,2.9-1.73,2.05-3.43,4.19-5.03,6.35-.4.54-1.03.83-1.65.83Z" style="fill:url(#uuid-40f58a90-6ce4-44fb-aeec-541a625cbde3); stroke-width:0px;"/><path d="M906.62,279.49c-.86,0-1.66-.54-1.95-1.4-1.63-4.79-3.55-9.53-5.73-14.11-.49-1.03-.05-2.26.98-2.74,1.02-.49,2.26-.05,2.74.98,2.24,4.72,4.23,9.61,5.91,14.55.37,1.08-.21,2.25-1.29,2.61-.22.07-.44.11-.66.11ZM887.95,243.59c-.64,0-1.26-.29-1.66-.84-.86-1.18-1.74-2.35-2.64-3.5-2.22-2.85-4.58-5.63-7.01-8.28-.77-.84-.71-2.14.12-2.91.84-.77,2.14-.72,2.91.12,2.5,2.72,4.94,5.59,7.23,8.53.93,1.19,1.84,2.4,2.72,3.61.67.92.47,2.21-.45,2.88-.37.27-.79.4-1.21.4ZM694.33,218.57c-.6,0-1.19-.26-1.6-.76-.72-.88-.59-2.18.29-2.9.76-.62,1.53-1.23,2.31-1.84,3.35-2.61,6.85-5.09,10.41-7.38.95-.61,2.23-.33,2.84.62.61.96.34,2.23-.62,2.84-3.45,2.21-6.85,4.62-10.1,7.16-.76.59-1.5,1.18-2.24,1.78-.38.31-.84.46-1.3.46ZM859.5,214.82c-.43,0-.86-.13-1.23-.41-4.05-3.02-8.33-5.83-12.72-8.37-.99-.57-1.32-1.83-.75-2.81.57-.98,1.83-1.33,2.81-.75,4.52,2.61,8.93,5.51,13.12,8.63.91.68,1.1,1.97.42,2.88-.4.54-1.02.83-1.65.83ZM729.16,197.98c-.81,0-1.59-.49-1.91-1.29-.42-1.06.09-2.25,1.14-2.68,4.85-1.95,9.85-3.64,14.88-5.01,1.1-.29,2.23.35,2.53,1.44.3,1.1-.35,2.23-1.44,2.53-4.88,1.33-9.73,2.96-14.43,4.86-.25.1-.51.15-.77.15ZM823.77,195.87c-.23,0-.45-.04-.68-.12-4.77-1.67-9.69-3.08-14.64-4.19-1.11-.25-1.81-1.35-1.56-2.46.25-1.11,1.35-1.8,2.46-1.56,5.1,1.15,10.17,2.6,15.09,4.32,1.07.37,1.64,1.55,1.26,2.62-.3.85-1.09,1.38-1.94,1.38ZM768.55,188.73c-1.06,0-1.96-.82-2.05-1.9-.09-1.13.76-2.12,1.89-2.22,3.57-.28,7.2-.43,10.78-.43h.04c1.63,0,3.25.03,4.88.09,1.14.04,2.02,1,1.98,2.13-.04,1.14-1.05,2.03-2.13,1.98-1.59-.06-3.22-.11-4.77-.08-3.48,0-6.99.14-10.45.41-.06,0-.11,0-.16,0Z" style="fill:url(#uuid-e1f5125e-6740-4922-b929-801613443c45); stroke-width:0px;"/><path d="M913.32,312.17c-1.07,0-1.97-.82-2.05-1.9-.21-2.69-.5-5.4-.87-8.06-.16-1.13.63-2.17,1.75-2.32,1.13-.17,2.17.63,2.32,1.75.38,2.74.69,5.53.9,8.31.09,1.13-.76,2.12-1.89,2.21-.05,0-.11,0-.16,0Z" style="fill:url(#uuid-4c1bec4c-acc9-45f6-9d96-544a2b3f0710); stroke-width:0px;"/><path d="M778.9,383.08c-24.05,0-47.02-13.94-57.33-37.31-3.61-8.18-5.32-16.73-5.32-25.15,0-24.05,13.93-47.03,37.31-57.34,31.56-13.92,68.57.43,82.49,32,.61,1.38,1.17,2.78,1.67,4.2.88,2.45,1.6,4.94,2.16,7.46.08.34.15.68.22,1.03.03.14.04.28.04.41,0,.96-.67,1.82-1.64,2.02-1.13.23-2.2-.49-2.43-1.6-.83-4.05-2.11-8.04-3.79-11.85h0c-10.77-24.41-36.31-37.81-61.53-34.31-4.85.67-9.68,1.97-14.4,3.93-.2.08-.4.17-.59.25-.18.08-.36.15-.54.23-21.84,9.63-34.86,31.1-34.86,53.57,0,7.86,1.6,15.85,4.97,23.5,13.01,29.49,47.57,42.89,77.06,29.89,9.69-4.28,18.03-11.08,24.11-19.69.66-.93,1.94-1.15,2.87-.49.57.4.87,1.04.87,1.68,0,.41-.12.83-.38,1.19-6.51,9.21-15.44,16.5-25.82,21.08-8.18,3.61-16.74,5.32-25.16,5.32Z" style="fill:url(#uuid-68bb89a4-fed5-4f5a-86c6-57cc36c46313); stroke-width:0px;"/><path d="M221.27,1041.29c-1.24,0-2.41-.75-2.88-1.98l-2.93-7.62c-19.16-49.78-40.88-106.19-51.1-132.3-2.48-6.33-1.67-13.47,2.16-19.09,3.84-5.62,10.19-8.98,17-8.98h84.29c1.7,0,3.09,1.38,3.09,3.09s-1.38,3.09-3.09,3.09h-84.29c-4.84,0-9.18,2.29-11.9,6.28-2.72,3.99-3.27,8.86-1.51,13.35,10.23,26.13,31.95,82.55,51.11,132.34l2.93,7.62c.61,1.59-.18,3.38-1.77,3.99-.37.14-.74.21-1.11.21Z" style="fill:#bdd0fb; stroke-width:0px;"/><path d="M255.35,1129.4c-1.12,0-2.19-.61-2.73-1.68-.35-.68-2.11-5.04-18.79-48.31-.61-1.59.18-3.38,1.77-3.99,1.58-.61,3.38.18,3.99,1.77,4.38,11.37,17.73,45.99,18.56,47.8.71,1.53.07,3.37-1.45,4.1-.44.21-.9.31-1.36.31Z" style="fill:#bdd0fb; stroke-width:0px;"/><path d="M1925.32,1045.84c-.26,0-.51-.05-.76-.15-1.06-.42-1.57-1.62-1.15-2.68l71.45-178.69c2.44-6.1,1.8-12.76-1.76-18.28-3.55-5.52-9.35-8.86-15.91-9.17l-129.56-6.09c-1.14-.05-2.01-1.02-1.96-2.15.05-1.14,1.03-2.02,2.15-1.96l129.56,6.09c7.9.37,14.89,4.4,19.18,11.05,4.28,6.65,5.05,14.69,2.12,22.03l-71.45,178.69c-.32.81-1.1,1.3-1.91,1.3Z" style="fill:#91b3fa; stroke-width:0px;"/><path d="M1795.27,828.33s-.07,0-.1,0l-26.19-1.23c-1.14-.05-2.01-1.02-1.96-2.15.05-1.13,1.01-2.01,2.15-1.96l26.19,1.23c1.14.05,2.01,1.02,1.96,2.15-.05,1.1-.96,1.96-2.05,1.96Z" style="fill:#91b3fa; stroke-width:0px;"/><path d="M1464.09,1304.52l-.49-4.03v-.04c-.08-.58.34-1.1.91-1.18.58-.07,1.1.34,1.18.92,0,0,0,.01,0,.01l.45,4.15c.06.56-.35,1.07-.91,1.13-.56.06-1.06-.34-1.13-.9v-.07Z" style="fill:#7d97f4; stroke-width:0px;"/><path d="M1459.58,1280.43l-1.04-3.96v-.02c-.18-.65.21-1.31.86-1.48.65-.17,1.31.22,1.48.86,0,0,0,.01,0,.01l1,4.02c.16.63-.23,1.28-.86,1.43-.63.16-1.27-.22-1.43-.85v-.02Z" style="fill:#7d97f4; stroke-width:0px;"/><path d="M1452.25,1257l-1.48-3.81v-.02c-.28-.7.07-1.49.77-1.76.7-.27,1.49.08,1.76.78,0,0,0,.01,0,.02l1.45,3.88c.26.69-.09,1.46-.79,1.72-.69.26-1.45-.09-1.71-.77v-.02Z" style="fill:#7d97f4; stroke-width:0px;"/><path d="M1442.27,1234.6l-1.93-3.6-.02-.03c-.4-.74-.12-1.66.62-2.05.74-.4,1.66-.12,2.05.62,0,0,0,.01,0,.02l1.91,3.68c.38.73.09,1.63-.63,2.01-.72.38-1.61.1-2-.62l-.02-.03Z" style="fill:#7d97f4; stroke-width:0px;"/><path d="M1429.52,1213.72l-2.4-3.29-.02-.03c-.54-.74-.38-1.79.36-2.33.74-.54,1.79-.38,2.33.36,0,0,0,.01.01.02l2.41,3.39c.53.74.35,1.77-.39,2.29-.73.52-1.75.35-2.28-.37l-.02-.03Z" style="fill:#7d97f4; stroke-width:0px;"/><path d="M1413.91,1194.95l-2.88-2.87-.03-.03c-.71-.71-.71-1.87,0-2.58.71-.71,1.87-.71,2.58,0,0,0,.01.01.02.02l2.91,2.98c.69.71.68,1.85-.03,2.54-.7.69-1.83.68-2.52-.01l-.04-.04Z" style="fill:#7d97f4; stroke-width:0px;"/><path d="M1395.52,1178.97l-3.31-2.35-.05-.03c-.89-.63-1.1-1.86-.47-2.75.63-.89,1.86-1.1,2.75-.47,0,0,.02.01.02.01l3.37,2.45c.87.63,1.06,1.85.43,2.72-.63.86-1.83,1.06-2.7.44l-.05-.03Z" style="fill:#7d97f4; stroke-width:0px;"/><path d="M1374.72,1166.35l-3.66-1.75-.05-.03c-1.06-.51-1.51-1.78-1-2.84.51-1.06,1.78-1.51,2.84-1,0,0,.02,0,.02.01l3.74,1.85c1.04.51,1.47,1.78.95,2.82-.51,1.03-1.76,1.46-2.79.97l-.05-.03Z" style="fill:#7d97f4; stroke-width:0px;"/><path d="M1352.12,1157.38l-3.89-1.14-.06-.02c-1.21-.35-1.9-1.62-1.55-2.83.35-1.21,1.62-1.9,2.83-1.55,0,0,.02,0,.03,0l3.99,1.22c1.19.37,1.86,1.63,1.5,2.82-.36,1.18-1.61,1.85-2.79,1.5l-.06-.02Z" style="fill:#7d97f4; stroke-width:0px;"/><path d="M1328.39,1151.91l-4.02-.59h-.05c-1.29-.2-2.19-1.4-2-2.7.19-1.29,1.39-2.19,2.69-2h.02s4.12.63,4.12.63c1.29.2,2.17,1.4,1.97,2.68-.2,1.28-1.39,2.16-2.67,1.97h-.05Z" style="fill:#7d97f4; stroke-width:0px;"/><path d="M1304.1,1149.65l-4.07-.1h-.04c-1.36-.03-2.43-1.16-2.4-2.51.03-1.36,1.16-2.43,2.51-2.4h.02s4.16.13,4.16.13c1.35.04,2.41,1.17,2.37,2.51-.04,1.34-1.16,2.4-2.5,2.37h-.05Z" style="fill:#7d97f4; stroke-width:0px;"/><path d="M1279.67,1150.14l-4.07.32h-.04c-1.4.11-2.62-.93-2.73-2.33-.11-1.4.94-2.62,2.34-2.73h.02s4.15-.3,4.15-.3c1.39-.1,2.6.95,2.7,2.34.1,1.39-.94,2.59-2.32,2.7h-.04Z" style="fill:#7d97f4; stroke-width:0px;"/><path d="M1255.35,1152.93l-4.03.66h-.03c-1.43.24-2.78-.73-3.02-2.16-.23-1.43.74-2.78,2.17-3.02h.02s4.1-.64,4.1-.64c1.43-.22,2.76.75,2.99,2.18.22,1.42-.74,2.75-2.16,2.98h-.03Z" style="fill:#7d97f4; stroke-width:0px;"/><path d="M1231.3,1157.61l-3.98.94h-.03c-1.46.35-2.92-.55-3.27-2.01-.34-1.46.56-2.92,2.02-3.27h.02s4.04-.93,4.04-.93c1.45-.33,2.9.58,3.24,2.03.33,1.45-.57,2.89-2.01,3.23h-.03Z" style="fill:#7d97f4; stroke-width:0px;"/><path d="M1207.57,1163.86l-3.92,1.17h-.02c-1.48.45-3.04-.39-3.49-1.87-.44-1.48.4-3.04,1.88-3.49h.02s3.98-1.17,3.98-1.17c1.48-.43,3.02.42,3.46,1.89.43,1.47-.41,3.01-1.87,3.45h-.03Z" style="fill:#7d97f4; stroke-width:0px;"/><path d="M1184.21,1171.41l-3.86,1.37h-.02c-1.5.54-3.15-.25-3.69-1.75-.53-1.5.25-3.15,1.76-3.69h.02s3.91-1.36,3.91-1.36c1.5-.52,3.14.27,3.66,1.77.52,1.49-.27,3.12-1.75,3.65h-.02Z" style="fill:#7d97f4; stroke-width:0px;"/><path d="M1161.2,1180.06l-3.8,1.53h-.02c-1.52.62-3.26-.11-3.87-1.64-.62-1.52.12-3.26,1.64-3.87h.02s3.85-1.53,3.85-1.53c1.52-.6,3.24.14,3.84,1.66.6,1.51-.14,3.22-1.64,3.83h-.02Z" style="fill:#7d97f4; stroke-width:0px;"/><path d="M1138.55,1189.63l-3.74,1.68h-.02c-1.54.7-3.35,0-4.04-1.53-.69-1.54,0-3.35,1.54-4.04h.02s3.78-1.67,3.78-1.67c1.54-.68,3.34.02,4.01,1.56.67,1.53-.02,3.32-1.54,4h-.02Z" style="fill:#7d97f4; stroke-width:0px;"/><path d="M1116.1,1199.91l-3.79,1.67c-1.58.7-3.43-.02-4.13-1.6-.7-1.58.02-3.43,1.6-4.13h.01s.03-.02.03-.02l3.75-1.63h.03c1.58-.7,3.42.03,4.11,1.61.68,1.58-.03,3.41-1.61,4.1Z" style="fill:#7d97f4; stroke-width:0px;"/><path d="M1093.15,1209.43l-3.86,1.48c-1.63.63-3.46-.19-4.09-1.82-.63-1.63.19-3.46,1.82-4.09h0s.02,0,.02,0l3.82-1.46h.02c1.63-.63,3.46.19,4.08,1.82.62,1.63-.19,3.45-1.82,4.08Z" style="fill:#7d97f4; stroke-width:0px;"/><path d="M1069.84,1217.96l-3.91,1.34c-1.66.57-3.47-.32-4.04-1.98-.57-1.66.32-3.47,1.98-4.04h0s.02,0,.02,0l3.88-1.32h.02c1.66-.57,3.47.32,4.03,1.98.57,1.66-.32,3.47-1.98,4.03Z" style="fill:#7d97f4; stroke-width:0px;"/><path d="M1046.26,1225.67l-3.95,1.22c-1.69.52-3.48-.43-4.01-2.12-.52-1.69.43-3.48,2.12-4.01h0s.01,0,.01,0l3.92-1.2h.01c1.69-.52,3.48.43,4,2.12.52,1.69-.43,3.48-2.12,4Z" style="fill:#7d97f4; stroke-width:0px;"/><path d="M1022.5,1232.7l-3.98,1.11c-1.72.48-3.5-.52-3.97-2.24-.48-1.72.52-3.5,2.24-3.97h0s.01,0,.01,0l3.95-1.1h.01c1.71-.48,3.49.52,3.97,2.24.48,1.71-.52,3.49-2.24,3.97Z" style="fill:#7d97f4; stroke-width:0px;"/><path d="M998.57,1239.13l-4,1.02c-1.74.44-3.5-.61-3.95-2.34-.44-1.74.61-3.5,2.34-3.95h0s.01,0,.01,0l3.98-1.01h.01c1.74-.44,3.5.61,3.94,2.35.44,1.74-.61,3.5-2.34,3.94Z" style="fill:#7d97f4; stroke-width:0px;"/><path d="M974.51,1245.04l-4.02.94c-1.76.41-3.51-.68-3.92-2.44-.41-1.76.68-3.51,2.44-3.92h0s.01,0,.01,0l4-.92h.01c1.76-.41,3.51.69,3.91,2.44.41,1.76-.68,3.51-2.44,3.91Z" style="fill:#7d97f4; stroke-width:0px;"/><path d="M950.35,1250.46l-4.04.86c-1.78.38-3.52-.75-3.9-2.53-.38-1.78.75-3.52,2.53-3.9h.02s4.02-.85,4.02-.85c1.77-.38,3.52.75,3.9,2.52.38,1.77-.75,3.52-2.53,3.9Z" style="fill:#7d97f4; stroke-width:0px;"/><path d="M926.1,1255.45l-4.05.79c-1.79.35-3.53-.82-3.88-2.61-.35-1.79.82-3.53,2.61-3.88h.01s4.03-.78,4.03-.78c1.79-.35,3.53.82,3.88,2.61.35,1.79-.82,3.53-2.61,3.88Z" style="fill:#7d97f4; stroke-width:0px;"/><path d="M901.77,1260.02l-4.06.72c-1.81.32-3.54-.88-3.86-2.69-.32-1.81.88-3.54,2.69-3.86h.01s4.05-.72,4.05-.72c1.81-.32,3.54.88,3.86,2.69.32,1.81-.88,3.54-2.69,3.86Z" style="fill:#7d97f4; stroke-width:0px;"/><path d="M877.37,1264.21l-4.07.66c-1.83.3-3.55-.94-3.84-2.77-.3-1.83.94-3.55,2.77-3.84h.01s4.06-.65,4.06-.65c1.82-.3,3.54.94,3.84,2.76.3,1.82-.94,3.54-2.77,3.84Z" style="fill:#7d97f4; stroke-width:0px;"/><path d="M852.64,1268.07l-4.08.6c-1.84.27-3.55-1-3.82-2.84s1-3.55,2.84-3.83h.01s4.07-.59,4.07-.59c1.84-.27,3.55,1,3.82,2.84.27,1.84-1,3.55-2.84,3.82Z" style="fill:#7d97f4; stroke-width:0px;"/><path d="M827.67,1271.58l-4.09.54c-1.86.25-3.56-1.06-3.81-2.92-.25-1.86,1.06-3.56,2.92-3.81h.01s4.07-.53,4.07-.53c1.85-.25,3.56,1.06,3.81,2.91.25,1.85-1.06,3.56-2.91,3.81Z" style="fill:#7d97f4; stroke-width:0px;"/><path d="M802.5,1274.76l-4.1.48c-1.87.22-3.57-1.12-3.79-2.99-.22-1.87,1.12-3.57,2.99-3.79h.01s4.08-.48,4.08-.48c1.87-.22,3.56,1.11,3.79,2.98.22,1.87-1.12,3.56-2.99,3.79Z" style="fill:#7d97f4; stroke-width:0px;"/><path d="M777.91,1277.52l-4.1.43c-1.89.2-3.57-1.17-3.77-3.06-.2-1.89,1.17-3.57,3.06-3.77h.01s4.09-.42,4.09-.42c1.88-.2,3.57,1.17,3.77,3.05.2,1.88-1.17,3.57-3.05,3.77Z" style="fill:#7d97f4; stroke-width:0px;"/><path d="M753.27,1279.95l-4.11.37c-1.9.17-3.58-1.23-3.75-3.13-.17-1.9,1.23-3.58,3.13-3.75h.01s4.09-.37,4.09-.37c1.9-.17,3.58,1.22,3.75,3.12.17,1.9-1.23,3.58-3.12,3.75Z" style="fill:#7d97f4; stroke-width:0px;"/><path d="M728.61,1282.05l-4.11.32c-1.91.15-3.58-1.28-3.73-3.2-.15-1.91,1.28-3.58,3.2-3.73h.01s4.1-.31,4.1-.31c1.91-.15,3.58,1.28,3.73,3.19s-1.28,3.58-3.19,3.73Z" style="fill:#7d97f4; stroke-width:0px;"/><path d="M703.93,1283.82l-4.12.26c-1.93.12-3.59-1.34-3.71-3.26-.12-1.93,1.34-3.59,3.26-3.71h.01s4.1-.26,4.1-.26c1.92-.12,3.58,1.34,3.71,3.26.12,1.92-1.34,3.58-3.26,3.71Z" style="fill:#7d97f4; stroke-width:0px;"/><path d="M679.22,1285.26l-4.12.21c-1.94.1-3.59-1.39-3.69-3.33-.1-1.94,1.39-3.59,3.33-3.69h.01s4.1-.2,4.1-.2c1.94-.1,3.59,1.39,3.69,3.33.1,1.94-1.39,3.59-3.33,3.69Z" style="fill:#7d97f4; stroke-width:0px;"/><path d="M654.49,1286.37l-4.12.15c-1.95.07-3.59-1.45-3.66-3.4-.07-1.95,1.45-3.59,3.4-3.66h.01s4.11-.15,4.11-.15c1.95-.07,3.59,1.45,3.66,3.4.07,1.95-1.45,3.59-3.4,3.66Z" style="fill:#7d97f4; stroke-width:0px;"/><path d="M629.75,1287.12l-4.12.09c-1.94.04-3.55-1.5-3.6-3.44-.04-1.94,1.5-3.55,3.45-3.6l4.11-.1c1.95-.05,3.56,1.49,3.61,3.43.05,1.95-1.49,3.56-3.43,3.61h-.01Z" style="fill:#7d97f4; stroke-width:0px;"/><path d="M605,1287.5l-4.13.03c-1.93.01-3.51-1.54-3.53-3.47-.01-1.93,1.54-3.51,3.48-3.53l4.11-.04c1.93-.02,3.52,1.53,3.54,3.46.02,1.93-1.53,3.52-3.46,3.54h-.01Z" style="fill:#7d97f4; stroke-width:0px;"/><path d="M580.25,1287.54l-4.13-.03c-1.92-.01-3.47-1.58-3.46-3.5.01-1.92,1.58-3.47,3.51-3.46l4.11.02c1.92,0,3.48,1.57,3.47,3.49,0,1.92-1.57,3.48-3.49,3.47h-.01Z" style="fill:#7d97f4; stroke-width:0px;"/><path d="M555.49,1287.22l-4.13-.09c-1.91-.04-3.43-1.62-3.38-3.53.04-1.91,1.63-3.43,3.54-3.38l4.11.08c1.91.03,3.44,1.61,3.4,3.52-.03,1.91-1.61,3.44-3.52,3.4h-.01Z" style="fill:#7d97f4; stroke-width:0px;"/><path d="M530.75,1286.52l-4.12-.15c-1.9-.07-3.38-1.67-3.31-3.57s1.67-3.38,3.57-3.31l4.11.15c1.9.06,3.39,1.65,3.33,3.55-.06,1.9-1.65,3.39-3.55,3.33h-.01Z" style="fill:#7d97f4; stroke-width:0px;"/><path d="M506.01,1285.44l-4.12-.22c-1.89-.1-3.33-1.71-3.23-3.6.1-1.89,1.71-3.33,3.6-3.23l4.1.21c1.89.09,3.34,1.7,3.25,3.59-.09,1.89-1.7,3.34-3.59,3.25h-.01Z" style="fill:#7d97f4; stroke-width:0px;"/><path d="M481.3,1283.95l-4.12-.29c-1.87-.13-3.28-1.76-3.15-3.63.13-1.87,1.76-3.28,3.63-3.15l4.1.28c1.88.12,3.3,1.74,3.17,3.62-.12,1.88-1.74,3.3-3.62,3.17h-.02Z" style="fill:#7d97f4; stroke-width:0px;"/><path d="M456.61,1282.05l-4.11-.36c-1.86-.16-3.23-1.8-3.07-3.66.16-1.86,1.81-3.23,3.67-3.07l4.09.35c1.86.15,3.25,1.79,3.09,3.65-.15,1.86-1.79,3.25-3.65,3.09h-.02Z" style="fill:#7d97f4; stroke-width:0px;"/><path d="M431.95,1279.69l-4.11-.44c-1.84-.2-3.18-1.85-2.98-3.7.2-1.84,1.85-3.18,3.7-2.98h0s4.08.43,4.08.43h.01c1.85.19,3.19,1.85,2.99,3.7-.19,1.85-1.85,3.19-3.69,2.99h0Z" style="fill:#7d97f4; stroke-width:0px;"/><path d="M407.34,1276.87l-4.1-.52c-1.83-.23-3.12-1.9-2.89-3.73.23-1.83,1.9-3.12,3.73-2.89h0s4.08.51,4.08.51h.01c1.83.23,3.13,1.9,2.9,3.73-.23,1.83-1.9,3.13-3.73,2.9h0Z" style="fill:#7d97f4; stroke-width:0px;"/><path d="M382.79,1273.56l-4.09-.6c-1.81-.27-3.07-1.95-2.8-3.77.27-1.81,1.95-3.07,3.77-2.8h0s4.06.59,4.06.59h.01c1.82.27,3.07,1.95,2.81,3.77-.26,1.82-1.95,3.07-3.77,2.81h0Z" style="fill:#7d97f4; stroke-width:0px;"/><path d="M358.31,1269.71l-4.07-.7c-1.8-.31-3-2.01-2.7-3.81.31-1.8,2.01-3,3.81-2.7h0s4.05.69,4.05.69h.01c1.8.31,3.01,2.01,2.7,3.81-.3,1.8-2.01,3.01-3.81,2.7h0Z" style="fill:#7d97f4; stroke-width:0px;"/><path d="M333.93,1265.29l-4.05-.79c-1.78-.35-2.94-2.07-2.59-3.85.35-1.78,2.07-2.93,3.85-2.59h0s4.03.78,4.03.78h.01c1.78.35,2.94,2.07,2.6,3.85-.35,1.78-2.07,2.94-3.85,2.6h0Z" style="fill:#7d97f4; stroke-width:0px;"/><path d="M309.65,1260.27l-4.03-.9c-1.76-.39-2.86-2.13-2.47-3.89.39-1.76,2.13-2.86,3.89-2.47h0s4.01.89,4.01.89h.01c1.76.39,2.87,2.13,2.48,3.89-.39,1.76-2.13,2.87-3.89,2.48h0Z" style="fill:#7d97f4; stroke-width:0px;"/><path d="M285.52,1254.58l-4.01-1.02c-1.73-.44-2.78-2.2-2.34-3.93s2.2-2.78,3.93-2.34h.01s3.98,1,3.98,1h.02c1.74.44,2.79,2.2,2.35,3.94-.44,1.74-2.2,2.79-3.93,2.35h0Z" style="fill:#7d97f4; stroke-width:0px;"/><path d="M261.55,1248.18l-3.97-1.14c-1.71-.49-2.69-2.27-2.2-3.98.49-1.71,2.27-2.69,3.98-2.2h.01s3.94,1.13,3.94,1.13h.02c1.71.49,2.7,2.28,2.21,3.99-.49,1.71-2.27,2.7-3.98,2.21h0Z" style="fill:#7d97f4; stroke-width:0px;"/><path d="M237.8,1241l-3.93-1.28c-1.68-.55-2.6-2.35-2.05-4.03.55-1.68,2.35-2.6,4.03-2.05h.01s3.9,1.26,3.9,1.26h.02c1.68.55,2.6,2.35,2.06,4.04-.54,1.68-2.35,2.61-4.03,2.06h0Z" style="fill:#7d97f4; stroke-width:0px;"/><path d="M214.32,1232.96l-3.88-1.43c-1.65-.61-2.49-2.43-1.88-4.08.61-1.65,2.43-2.49,4.08-1.88h.02s3.85,1.41,3.85,1.41h.02c1.65.61,2.5,2.44,1.89,4.09-.6,1.65-2.43,2.5-4.08,1.89h0Z" style="fill:#7d97f4; stroke-width:0px;"/><path d="M191.16,1223.98l-3.82-1.59c-1.61-.67-2.37-2.52-1.7-4.13.67-1.61,2.52-2.37,4.13-1.7h.02s3.78,1.58,3.78,1.58h.02c1.61.68,2.38,2.53,1.71,4.14-.67,1.61-2.52,2.38-4.13,1.71h0Z" style="fill:#7d97f4; stroke-width:0px;"/><path d="M168.42,1213.95l-3.74-1.78c-1.55-.74-2.21-2.6-1.47-4.15.74-1.55,2.6-2.21,4.15-1.47h.01s3.7,1.75,3.7,1.75h.02c1.56.75,2.23,2.61,1.5,4.17-.74,1.56-2.6,2.23-4.16,1.5h-.01Z" style="fill:#7d97f4; stroke-width:0px;"/><path d="M146.22,1202.76l-3.64-1.99c-1.48-.81-2.03-2.66-1.22-4.14.81-1.48,2.66-2.03,4.14-1.22h.01s3.6,1.95,3.6,1.95h.03c1.49.82,2.05,2.68,1.24,4.17-.8,1.49-2.66,2.05-4.15,1.24h-.01Z" style="fill:#7d97f4; stroke-width:0px;"/><path d="M124.68,1190.3l-3.51-2.21c-1.4-.88-1.82-2.73-.94-4.13.88-1.4,2.73-1.82,4.13-.94h.02s3.47,2.16,3.47,2.16l.03.02c1.41.88,1.84,2.73.97,4.14-.88,1.41-2.73,1.84-4.14.97h-.01Z" style="fill:#7d97f4; stroke-width:0px;"/><path d="M103.97,1176.46l-3.35-2.45c-1.31-.95-1.59-2.79-.64-4.1.95-1.31,2.79-1.59,4.1-.64h.02s3.31,2.4,3.31,2.4l.03.02c1.32.95,1.61,2.79.66,4.11-.95,1.32-2.79,1.61-4.11.66h-.01Z" style="fill:#7d97f4; stroke-width:0px;"/><path d="M84.33,1161.12l-3.15-2.71c-1.2-1.03-1.34-2.85-.31-4.05,1.03-1.2,2.85-1.34,4.05-.31l.02.02,3.1,2.64.03.03c1.21,1.03,1.36,2.85.33,4.06-1.03,1.21-2.85,1.36-4.06.33h-.01Z" style="fill:#7d97f4; stroke-width:0px;"/><path d="M66.01,1144.19l-2.9-2.98c-1.08-1.11-1.06-2.89.06-3.97,1.11-1.08,2.89-1.06,3.97.06l.02.02,2.85,2.91.03.03c1.09,1.11,1.08,2.9-.04,3.99-1.11,1.09-2.9,1.08-3.99-.04h0Z" style="fill:#7d97f4; stroke-width:0px;"/><path d="M49.35,1125.59l-2.59-3.26c-.94-1.19-.75-2.92.44-3.86,1.19-.94,2.92-.75,3.86.44l.02.03,2.55,3.17.03.04c.95,1.19.77,2.92-.42,3.88-1.19.95-2.93.77-3.88-.42h0Z" style="fill:#7d97f4; stroke-width:0px;"/><path d="M34.69,1105.36l-2.22-3.52c-.79-1.26-.42-2.92.84-3.71,1.26-.79,2.91-.42,3.71.84l.02.03,2.19,3.43.03.04c.8,1.26.43,2.92-.82,3.73-1.26.8-2.92.43-3.73-.82h0Z" style="fill:#7d97f4; stroke-width:0px;"/><path d="M22.37,1083.61l-1.8-3.76c-.63-1.31-.08-2.88,1.23-3.51,1.31-.63,2.88-.08,3.51,1.23l.02.03,1.78,3.65.02.05c.64,1.31.09,2.89-1.22,3.52-1.31.64-2.89.09-3.52-1.22h0Z" style="fill:#7d97f4; stroke-width:0px;"/><path d="M12.66,1060.58l-1.35-3.94c-.46-1.34.25-2.8,1.6-3.26,1.34-.46,2.8.26,3.26,1.6v.04s1.35,3.84,1.35,3.84l.02.05c.47,1.34-.24,2.81-1.59,3.28-1.34.47-2.81-.24-3.28-1.59h0Z" style="fill:#7d97f4; stroke-width:0px;"/><path d="M5.72,1036.57l-.89-4.07c-.29-1.35.56-2.69,1.91-2.98,1.35-.29,2.69.56,2.98,1.91v.03s.89,3.97.89,3.97v.05c.31,1.36-.54,2.7-1.9,3-1.36.3-2.7-.55-3-1.91h0Z" style="fill:#7d97f4; stroke-width:0px;"/><path d="M1.55,1011.96l-.43-4.14c-.14-1.34.83-2.54,2.18-2.68,1.34-.14,2.54.83,2.68,2.18v.03s.45,4.05.45,4.05v.04c.15,1.35-.82,2.56-2.17,2.71-1.35.15-2.56-.82-2.71-2.17h0Z" style="fill:#7d97f4; stroke-width:0px;"/><path d="M.01,987.07v-4.15c-.02-1.32,1.04-2.39,2.36-2.39,1.32,0,2.39,1.06,2.39,2.37v.03l.03,4.08v.04c.01,1.32-1.05,2.4-2.37,2.41-1.32.01-2.4-1.05-2.41-2.37H.01Z" style="fill:#7d97f4; stroke-width:0px;"/><path d="M.89,962.17l.36-4.13c.11-1.28,1.24-2.22,2.51-2.11s2.22,1.24,2.11,2.51v.02s-.34,4.07-.34,4.07v.03c-.11,1.28-1.23,2.24-2.52,2.13-1.28-.11-2.24-1.23-2.13-2.52h0Z" style="fill:#7d97f4; stroke-width:0px;"/><path d="M3.92,937.47l.7-4.09c.21-1.22,1.37-2.04,2.59-1.83,1.21.21,2.03,1.35,1.83,2.57v.03s-.66,4.04-.66,4.04v.03c-.2,1.23-1.36,2.07-2.6,1.87-1.23-.2-2.07-1.36-1.87-2.59v-.02Z" style="fill:#7d97f4; stroke-width:0px;"/><path d="M8.84,913.11l.98-4.02c.28-1.14,1.43-1.84,2.58-1.56,1.14.28,1.84,1.42,1.57,2.56v.02s-.94,3.98-.94,3.98v.02c-.28,1.16-1.44,1.87-2.59,1.6-1.16-.27-1.87-1.43-1.6-2.59v-.02Z" style="fill:#7d97f4; stroke-width:0px;"/><path d="M15.38,889.16l1.23-3.95c.33-1.07,1.47-1.66,2.53-1.33,1.06.33,1.66,1.45,1.34,2.52v.02s-1.19,3.92-1.19,3.92v.02c-.33,1.08-1.47,1.69-2.55,1.37-1.08-.33-1.69-1.47-1.37-2.54v-.02Z" style="fill:#7d97f4; stroke-width:0px;"/><path d="M23.3,865.65l1.44-3.87c.37-.99,1.47-1.5,2.46-1.13.99.37,1.49,1.46,1.13,2.45v.02s-1.4,3.86-1.4,3.86v.02c-.37,1-1.48,1.52-2.48,1.16-1-.36-1.52-1.47-1.16-2.48v-.02Z" style="fill:#7d97f4; stroke-width:0px;"/><path d="M32.41,842.59l1.62-3.8c.39-.92,1.45-1.34,2.37-.95.91.39,1.34,1.44.96,2.36h0s-1.58,3.8-1.58,3.8h0c-.39.94-1.46,1.38-2.39,1-.93-.39-1.37-1.46-.98-2.39h0Z" style="fill:#7d97f4; stroke-width:0px;"/><path d="M42.55,819.99l1.78-3.72c.4-.85,1.42-1.2,2.26-.8.84.4,1.2,1.41.81,2.25h0s-1.74,3.73-1.74,3.73h0c-.4.87-1.42,1.24-2.28.84-.86-.4-1.23-1.42-.83-2.28h0Z" style="fill:#7d97f4; stroke-width:0px;"/><path d="M53.58,797.82l1.92-3.65c.41-.78,1.37-1.08,2.15-.67.77.41,1.07,1.37.67,2.14l-1.88,3.65c-.4.79-1.37,1.11-2.16.71-.79-.4-1.11-1.37-.71-2.16v-.02Z" style="fill:#7d97f4; stroke-width:0px;"/><path d="M65.39,776.06l2.04-3.58c.4-.71,1.31-.96,2.02-.56.71.4.95,1.3.56,2.01l-2,3.59c-.4.73-1.31.99-2.03.59-.73-.4-.99-1.31-.59-2.04v-.02Z" style="fill:#7d97f4; stroke-width:0px;"/><path d="M77.89,754.7l2.14-3.52c.39-.65,1.24-.85,1.88-.46.64.39.85,1.23.46,1.88l-2.11,3.53c-.39.66-1.24.88-1.9.49-.66-.39-.88-1.24-.49-1.9v-.02Z" style="fill:#7d97f4; stroke-width:0px;"/><path d="M90.99,733.72l2.24-3.46c.38-.59,1.16-.75,1.75-.38.58.38.75,1.16.38,1.74l-2.2,3.47c-.38.6-1.17.78-1.77.4-.6-.38-.78-1.17-.4-1.77h0Z" style="fill:#7d97f4; stroke-width:0px;"/><path d="M104.62,713.08l2.32-3.41c.36-.53,1.08-.66,1.6-.3.52.36.66,1.07.31,1.6l-2.28,3.42c-.36.54-1.09.69-1.62.33-.54-.36-.69-1.09-.33-1.62h0Z" style="fill:#7d97f4; stroke-width:0px;"/><path d="M118.74,692.78l2.4-3.35c.34-.47.99-.58,1.46-.24.47.33.58.98.25,1.45l-2.36,3.37c-.34.48-1,.6-1.48.27-.48-.34-.6-1-.27-1.48h0Z" style="fill:#7d97f4; stroke-width:0px;"/><path d="M350.53,973.27l-3.86-11.69v-.04c-.32-.93.19-1.94,1.12-2.24.93-.31,1.94.2,2.24,1.13h0s3.86,11.78,3.86,11.78c.3.92-.2,1.92-1.12,2.22s-1.92-.2-2.22-1.12v-.04Z" style="fill:url(#uuid-bec7836e-8b59-4587-8cf0-b106e4dd840a); stroke-width:0px;"/><path d="M338.41,938.33l-4.17-11.63c-.34-.95.15-1.99,1.1-2.33.95-.34,1.99.15,2.34,1.1h0s4.14,11.64,4.14,11.64c.34.94-.15,1.98-1.09,2.31-.94.34-1.98-.15-2.31-1.09Z" style="fill:url(#uuid-71122459-4542-4a12-bfc3-d2fd51544583); stroke-width:0px;"/><path d="M326.13,903.33l-3.84-11.77c-.32-.98.22-2.04,1.2-2.36.98-.32,2.04.22,2.36,1.2h0s0,.03,0,.03l3.79,11.72v.03c.32.98-.21,2.02-1.19,2.34-.98.32-2.02-.22-2.34-1.19Z" style="fill:url(#uuid-cc13924d-d860-437d-81c6-285bf33a79ee); stroke-width:0px;"/><path d="M315.21,867.82l-3.2-11.97c-.27-1.03.34-2.08,1.36-2.36,1.03-.27,2.08.34,2.36,1.36h0s.01.04.01.04l3.14,11.9v.04c.28,1.02-.33,2.06-1.35,2.33-1.02.27-2.06-.33-2.33-1.35Z" style="fill:url(#uuid-4b33ef71-a575-4bf4-a762-90d94a6b93f4); stroke-width:0px;"/><path d="M306.4,831.7l-2.39-12.17c-.21-1.07.49-2.11,1.56-2.32,1.07-.21,2.11.49,2.32,1.56h0s0,.05,0,.05l2.34,12.08v.05c.21,1.06-.48,2.09-1.54,2.29s-2.09-.48-2.29-1.54Z" style="fill:url(#uuid-b90269f2-5263-4089-bb8b-490e8ccd0be6); stroke-width:0px;"/><path d="M300.12,795.05l-1.5-12.31c-.14-1.11.65-2.12,1.76-2.25,1.11-.14,2.12.65,2.25,1.76h0s0,.05,0,.05l1.45,12.21v.05c.14,1.1-.65,2.1-1.75,2.23-1.1.13-2.1-.65-2.23-1.75Z" style="fill:url(#uuid-6aa43541-b670-4a94-a68a-743dec2e1be7); stroke-width:0px;"/><path d="M296.53,758.03l-.59-12.39c-.05-1.14.83-2.11,1.97-2.17,1.14-.05,2.11.83,2.17,1.97h0s0,.06,0,.06l.55,12.29v.05c.05,1.13-.82,2.1-1.96,2.15-1.13.05-2.09-.82-2.15-1.96Z" style="fill:url(#uuid-3b0c2a4a-4d19-486a-8b14-e4d66bde402c); stroke-width:0px;"/><path d="M295.65,720.84l.29-12.4c.03-1.17,1-2.1,2.17-2.07,1.17.03,2.1,1,2.07,2.17h0s0,.05,0,.05l-.32,12.3v.05c-.03,1.16-1,2.08-2.16,2.05-1.16-.03-2.08-.99-2.05-2.15Z" style="fill:url(#uuid-5e3880b1-e595-4832-a9b3-3c9e98340ccf); stroke-width:0px;"/><path d="M297.38,683.69l1.13-12.35c.11-1.19,1.17-2.07,2.36-1.96,1.19.11,2.07,1.17,1.96,2.36h0s0,.05,0,.05l-1.15,12.25v.05c-.12,1.18-1.17,2.05-2.35,1.94s-2.05-1.16-1.94-2.34Z" style="fill:url(#uuid-40188f78-d7d0-401b-aee0-b3c5ee123a69); stroke-width:0px;"/><path d="M301.56,646.74l1.9-12.25c.19-1.21,1.32-2.04,2.53-1.85,1.21.19,2.04,1.32,1.85,2.53h0s0,.05,0,.05l-1.92,12.16v.04c-.2,1.2-1.33,2.02-2.53,1.83-1.2-.19-2.02-1.31-1.83-2.51Z" style="fill:url(#uuid-a38911da-e79f-4e3f-9c4d-eb2c201daeb5); stroke-width:0px;"/><path d="M307.98,610.12l2.6-12.12c.26-1.23,1.47-2.01,2.7-1.74,1.23.26,2.01,1.47,1.74,2.7h0s0,.05,0,.05l-2.62,12.03v.04c-.27,1.22-1.47,1.99-2.69,1.72s-1.99-1.46-1.72-2.67Z" style="fill:url(#uuid-c77d73e9-8c22-4441-89a9-a57ac67d63a5); stroke-width:0px;"/><path d="M316.47,573.91l3.34-11.95c.34-1.23,1.62-1.95,2.86-1.61,1.23.35,1.95,1.62,1.61,2.86h0s-.01.06-.01.06l-3.35,11.84v.05c-.36,1.22-1.63,1.94-2.86,1.59-1.22-.35-1.94-1.61-1.59-2.84Z" style="fill:url(#uuid-69e252ef-94d5-4113-88a0-56c356087780); stroke-width:0px;"/><path d="M327.32,538.32l4.16-11.69c.44-1.23,1.79-1.87,3.02-1.44,1.23.44,1.87,1.79,1.44,3.02h0s-.02.06-.02.06l-4.16,11.58-.02.05c-.44,1.22-1.78,1.86-3.01,1.42-1.22-.44-1.86-1.78-1.42-3Z" style="fill:url(#uuid-076858ae-cbc3-4d1f-a1a7-3d0608a38628); stroke-width:0px;"/><path d="M340.61,503.56l4.96-11.37c.53-1.22,1.96-1.78,3.18-1.25,1.22.53,1.78,1.96,1.25,3.18h0s-.02.06-.02.06l-4.95,11.26-.02.05c-.53,1.21-1.95,1.76-3.16,1.23-1.21-.53-1.77-1.94-1.23-3.16Z" style="fill:url(#uuid-6bb1de99-df59-4970-adfe-723a09e8fe68); stroke-width:0px;"/><path d="M356.26,469.8l5.73-11.01c.63-1.21,2.12-1.68,3.32-1.05,1.21.63,1.68,2.12,1.05,3.32h0s-.03.06-.03.06l-5.7,10.9-.03.05c-.63,1.2-2.11,1.66-3.3,1.03-1.2-.63-1.66-2.1-1.04-3.3Z" style="fill:url(#uuid-f7d9c7bc-c8ec-4f74-88f9-6ce7d018c7a2); stroke-width:0px;"/><path d="M374.17,437.17l6.45-10.6c.72-1.19,2.27-1.56,3.45-.84,1.19.72,1.56,2.27.84,3.45h0s-.03.05-.03.05l-6.42,10.49-.03.05c-.72,1.18-2.26,1.55-3.43.83-1.18-.72-1.55-2.25-.83-3.43Z" style="fill:url(#uuid-e84e90d1-19d2-4c0d-9788-c848a7b36ef0); stroke-width:0px;"/><path d="M394.22,405.81l7.13-10.15c.81-1.16,2.41-1.44,3.57-.62,1.16.81,1.44,2.41.62,3.57h0s-.03.05-.03.05l-7.09,10.04-.03.05c-.81,1.15-2.4,1.42-3.55.61-1.15-.81-1.43-2.39-.61-3.54Z" style="fill:url(#uuid-1231ec19-7cb3-4f26-a424-6f4a2f3ff6b5); stroke-width:0px;"/><path d="M416.27,375.83l7.77-9.67c.89-1.11,2.51-1.28,3.62-.39,1.11.89,1.28,2.51.39,3.62h0s-.03.04-.03.04l-7.71,9.58-.03.04c-.89,1.11-2.51,1.28-3.62.39s-1.28-2.51-.39-3.61Z" style="fill:url(#uuid-a5641b25-9b2e-4eb1-b9e6-f4799a70714c); stroke-width:0px;"/><path d="M440.19,347.32l8.36-9.17c.96-1.06,2.6-1.13,3.65-.17,1.06.96,1.13,2.6.17,3.65h0s-.04.04-.04.04l-8.29,9.08-.04.04c-.96,1.05-2.59,1.13-3.65.17-1.05-.96-1.13-2.59-.17-3.65Z" style="fill:url(#uuid-19086029-4e56-458e-8392-5c279214cd4f); stroke-width:0px;"/><path d="M465.81,320.34l8.89-8.65c1.03-1,2.67-.98,3.67.05,1,1.03.98,2.67-.05,3.67h0s-.04.04-.04.04l-8.83,8.57-.04.04c-1.03,1-2.67.97-3.67-.05-1-1.03-.97-2.67.05-3.67Z" style="fill:url(#uuid-583e37ef-c3bd-4069-a899-04307f92e780); stroke-width:0px;"/><path d="M492.99,294.94l9.38-8.11c1.09-.94,2.74-.82,3.68.27.94,1.09.82,2.74-.27,3.68h0s-.04.03-.04.03l-9.31,8.04-.04.03c-1.09.94-2.73.82-3.67-.27-.94-1.09-.82-2.73.27-3.67Z" style="fill:url(#uuid-d3db94aa-61f8-4e8a-aa6b-1cf5e12824b0); stroke-width:0px;"/><path d="M521.6,271.15l9.83-7.56c1.15-.88,2.79-.67,3.67.48.88,1.15.67,2.79-.48,3.67h0s-.04.03-.04.03l-9.76,7.5-.04.03c-1.15.88-2.79.66-3.67-.48-.88-1.15-.67-2.79.48-3.67Z" style="fill:url(#uuid-898c48fc-e1dc-49ec-9ca5-cacf3aba2a01); stroke-width:0px;"/><path d="M551.5,249.03l10.23-7c1.2-.82,2.84-.51,3.66.68.82,1.2.51,2.83-.69,3.66h0s-.04.03-.04.03l-10.16,6.94-.04.03c-1.2.82-2.83.51-3.65-.69-.82-1.2-.51-2.83.69-3.65Z" style="fill:url(#uuid-73f42215-6ce3-4e5e-8351-128983effdb7); stroke-width:0px;"/><path d="M582.57,228.58l10.6-6.43c1.25-.76,2.87-.36,3.63.89.76,1.25.36,2.87-.89,3.63h0s-.04.03-.04.03l-10.52,6.38-.04.02c-1.25.75-2.87.36-3.62-.89s-.36-2.87.89-3.62Z" style="fill:url(#uuid-b0ecd04b-bc32-4573-827b-75c932ec858c); stroke-width:0px;"/><path d="M614.71,209.86l10.93-5.86c1.29-.69,2.9-.21,3.59,1.09.69,1.29.21,2.9-1.09,3.59h0s-.04.02-.04.02l-10.85,5.8-.04.02c-1.29.69-2.89.2-3.58-1.09-.69-1.29-.2-2.89,1.08-3.58Z" style="fill:url(#uuid-3345d59d-d59a-4b55-8f17-69f83069d83e); stroke-width:0px;"/><path d="M647.81,192.88l11.23-5.26c1.33-.62,2.92-.05,3.54,1.28.62,1.33.05,2.92-1.28,3.54h0s-.04.02-.04.02l-11.14,5.22-.04.02c-1.33.62-2.91.05-3.53-1.28-.62-1.33-.05-2.91,1.28-3.53Z" style="fill:url(#uuid-6feef2a8-3dfb-420d-95d7-c28e178f037a); stroke-width:0px;"/><path d="M681.76,177.69l11.49-4.66c1.37-.55,2.93.1,3.48,1.47.55,1.37-.11,2.93-1.47,3.48h0s-.04.02-.04.02l-11.41,4.62-.04.02c-1.37.55-2.92-.11-3.48-1.47-.55-1.37.11-2.92,1.47-3.48Z" style="fill:url(#uuid-122751e1-3b66-4995-b5a6-7e9571ae71a2); stroke-width:0px;"/><path d="M716.47,164.33l11.73-4.04c1.4-.48,2.93.26,3.41,1.66s-.26,2.93-1.66,3.41h0s-.05.02-.05.02l-11.64,4-.05.02c-1.4.48-2.93-.26-3.41-1.66s.26-2.92,1.66-3.41Z" style="fill:url(#uuid-62cf2e56-99a4-4299-831f-87ce3ea46ffe); stroke-width:0px;"/><path d="M751.86,152.86l11.93-3.39c1.43-.41,2.92.42,3.33,1.85.41,1.43-.42,2.92-1.85,3.33h0s-.05.01-.05.01l-11.84,3.36h-.05c-1.43.42-2.92-.41-3.32-1.84-.41-1.43.42-2.92,1.85-3.32Z" style="fill:url(#uuid-acbab392-12fd-42c1-becc-38a1afc60175); stroke-width:0px;"/><path d="M787.82,143.34l12.1-2.72c1.46-.33,2.91.59,3.23,2.05.33,1.46-.59,2.91-2.05,3.23h0s-.05.01-.05.01l-12,2.69h-.05c-1.46.34-2.9-.58-3.23-2.03-.33-1.46.59-2.9,2.04-3.23Z" style="fill:url(#uuid-f8d742fb-23a0-451d-8e5f-9011cb13f7b6); stroke-width:0px;"/><path d="M824.27,135.87l12.24-2.02c1.48-.24,2.88.76,3.12,2.24.24,1.48-.76,2.88-2.24,3.12h0s-.05,0-.05,0l-12.14,2h-.05c-1.48.25-2.87-.75-3.12-2.23-.24-1.48.76-2.87,2.23-3.12Z" style="fill:url(#uuid-23dfb164-ed89-47dd-a5da-cb74c4681357); stroke-width:0px;"/><path d="M861.1,130.53l12.34-1.28c1.5-.16,2.84.93,2.99,2.43.16,1.5-.93,2.84-2.43,3h0s-.06,0-.06,0l-12.23,1.26h-.06c-1.5.16-2.83-.93-2.99-2.42s.93-2.83,2.43-2.99Z" style="fill:url(#uuid-fb39451b-9dd3-4786-b858-dae5585fae82); stroke-width:0px;"/><path d="M898.19,127.45l12.4-.5c1.51-.06,2.79,1.11,2.85,2.63.06,1.51-1.12,2.79-2.63,2.85h-.06s-12.28.49-12.28.49h-.06c-1.51.06-2.78-1.11-2.84-2.62-.06-1.51,1.11-2.78,2.62-2.84Z" style="fill:url(#uuid-91be6d0a-7ed2-456b-a473-86eaaaa4a213); stroke-width:0px;"/><path d="M935.42,126.78l12.41.34c1.52.04,2.71,1.3,2.67,2.82-.04,1.52-1.3,2.71-2.82,2.67h-.07s-12.28-.34-12.28-.34h-.06c-1.52-.04-2.71-1.31-2.67-2.82.04-1.52,1.3-2.71,2.82-2.67Z" style="fill:url(#uuid-580b46ad-9618-4327-b673-453c93953000); stroke-width:0px;"/><path d="M972.62,128.67l12.36,1.23c1.52.15,2.62,1.5,2.47,3.02-.15,1.52-1.5,2.62-3.02,2.47h0s-.06,0-.06,0l-12.22-1.23h-.07c-1.51-.16-2.62-1.51-2.47-3.02.15-1.51,1.5-2.62,3.02-2.47Z" style="fill:url(#uuid-7e994264-85e9-4243-b1b3-30cf0d7d8ffe); stroke-width:0px;"/><path d="M1009.58,133.15l12.25,2c1.51.25,2.53,1.67,2.29,3.18-.25,1.51-1.67,2.53-3.18,2.29h0s-.06,0-.06,0l-12.13-1.99h-.06c-1.51-.26-2.53-1.68-2.28-3.19.25-1.51,1.67-2.53,3.18-2.28Z" style="fill:url(#uuid-ed2d6526-519a-4121-a463-301b1e232380); stroke-width:0px;"/><path d="M1046.19,139.92l12.1,2.77c1.5.34,2.43,1.84,2.09,3.33-.34,1.5-1.84,2.43-3.33,2.09h0s-.06-.01-.06-.01l-11.98-2.75h-.06c-1.5-.36-2.43-1.85-2.08-3.34.34-1.5,1.83-2.43,3.33-2.09Z" style="fill:url(#uuid-e6acbae6-06a7-4940-b629-f76561a15845); stroke-width:0px;"/><path d="M1082.29,149.03l11.89,3.56c1.48.44,2.32,2,1.88,3.48-.44,1.48-2,2.32-3.47,1.88h0s-.06-.02-.06-.02l-11.77-3.53-.06-.02c-1.48-.44-2.31-2-1.87-3.47.44-1.48,2-2.31,3.47-1.87Z" style="fill:url(#uuid-c123d135-bc85-4044-8659-734e781cf806); stroke-width:0px;"/><path d="M1117.72,160.48l11.63,4.33c1.45.54,2.19,2.15,1.65,3.6s-2.15,2.19-3.61,1.65h0s-.06-.02-.06-.02l-11.51-4.3-.06-.02c-1.45-.54-2.18-2.15-1.64-3.6.54-1.45,2.15-2.19,3.6-1.64Z" style="fill:url(#uuid-e4561722-eee5-4c9f-a25a-e9feed548650); stroke-width:0px;"/><path d="M1152.32,174.24l11.32,5.08c1.42.64,2.05,2.3,1.41,3.72-.64,1.42-2.3,2.05-3.72,1.41h0s-.06-.03-.06-.03l-11.21-5.04-.06-.03c-1.42-.64-2.05-2.3-1.41-3.72.64-1.42,2.3-2.05,3.71-1.41Z" style="fill:url(#uuid-60a7dc97-7158-41fb-83bb-9da194061378); stroke-width:0px;"/><path d="M1185.95,190.21l10.97,5.8c1.38.73,1.91,2.44,1.18,3.82-.73,1.38-2.44,1.91-3.82,1.18h0s-.05-.03-.05-.03l-10.87-5.75-.05-.03c-1.38-.73-1.9-2.44-1.17-3.81.73-1.38,2.43-1.9,3.81-1.17Z" style="fill:url(#uuid-832f63ce-70fb-41f3-aaa6-854fee74c884); stroke-width:0px;"/><path d="M1218.49,208.28l10.6,6.46c1.34.81,1.76,2.56.94,3.9-.81,1.34-2.56,1.76-3.9.95h0s-.05-.03-.05-.03l-10.5-6.41-.05-.03c-1.33-.81-1.76-2.56-.94-3.89s2.56-1.76,3.89-.94Z" style="fill:url(#uuid-f85dedca-d94a-4745-b958-5aa14096136f); stroke-width:0px;"/><path d="M1249.89,228.27l10.2,7.06c1.29.89,1.62,2.67.72,3.96-.89,1.29-2.67,1.62-3.96.72h0s-.04-.03-.04-.03l-10.11-7-.04-.03c-1.29-.89-1.61-2.66-.72-3.95.89-1.29,2.66-1.61,3.95-.72Z" style="fill:url(#uuid-071839ce-b7c2-41f4-ab8e-5b51498dea28); stroke-width:0px;"/><path d="M1280.1,249.98l9.81,7.59c1.25.97,1.48,2.76.51,4.01s-2.76,1.48-4.01.51h0s-.04-.03-.04-.03l-9.73-7.53-.04-.03c-1.25-.97-1.47-2.76-.51-4,.96-1.25,2.76-1.47,4-.51Z" style="fill:url(#uuid-1f281999-bae1-417c-8c52-5ca83c0b8f6c); stroke-width:0px;"/><path d="M1309.13,273.23l9.42,8.05c1.2,1.03,1.35,2.84.32,4.04s-2.84,1.35-4.04.32h0s-.03-.03-.03-.03l-9.35-8-.03-.03c-1.2-1.03-1.34-2.84-.31-4.04,1.03-1.2,2.83-1.34,4.04-.32Z" style="fill:url(#uuid-865b0a21-8206-4767-a842-dad1da8b93b0); stroke-width:0px;"/><path d="M1337.04,297.8l9.06,8.45c1.16,1.08,1.23,2.9.14,4.07-1.08,1.16-2.9,1.23-4.07.14h0s-.03-.03-.03-.03l-9-8.4-.03-.03c-1.16-1.08-1.22-2.9-.14-4.06,1.08-1.16,2.9-1.22,4.06-.14Z" style="fill:url(#uuid-1a795f2f-eb85-4eda-8857-76b4241b0194); stroke-width:0px;"/><path d="M1363.88,323.5l8.73,8.78c1.12,1.13,1.12,2.96-.01,4.08-1.13,1.12-2.96,1.12-4.09-.01h0s-.02-.03-.02-.03l-8.68-8.74-.02-.02c-1.12-1.13-1.12-2.96.01-4.08,1.13-1.12,2.96-1.12,4.08.01Z" style="fill:url(#uuid-653b00bc-f6c0-4337-895f-b96a3fca4d86); stroke-width:0px;"/><path d="M1389.78,350.14l8.44,9.06c1.09,1.17,1.03,3.01-.14,4.1s-3.01,1.03-4.1-.15h0s-.02-.02-.02-.02l-8.4-9.02-.02-.02c-1.09-1.17-1.02-3,.15-4.09,1.17-1.09,3-1.02,4.09.15Z" style="fill:url(#uuid-ba99c7c4-7291-452e-ad89-4bb5e63498bf); stroke-width:0px;"/><path d="M1414.84,377.55l8.19,9.28c1.06,1.2.95,3.04-.26,4.11-1.2,1.06-3.04.95-4.11-.26h0s-.02-.02-.02-.02l-8.16-9.25-.02-.02c-1.06-1.2-.95-3.04.26-4.1,1.2-1.06,3.04-.95,4.1.26Z" style="fill:url(#uuid-89f10364-a189-4b6d-a944-b8854ee47f58); stroke-width:0px;"/><path d="M1439.2,405.55l7.99,9.44c1.04,1.23.89,3.07-.34,4.12-1.23,1.04-3.07.89-4.12-.34h0s-.01-.01-.01-.01l-7.97-9.42h-.01c-1.04-1.24-.89-3.08.34-4.12,1.23-1.04,3.07-.89,4.11.34Z" style="fill:url(#uuid-6c75a9a5-4e29-4119-8b0f-c30c25b26e1e); stroke-width:0px;"/><path d="M1463.03,433.99l7.85,9.55c1.03,1.25.85,3.1-.4,4.13-1.25,1.03-3.1.85-4.13-.4h0s0,0,0,0l-7.83-9.54h0c-1.03-1.26-.84-3.1.4-4.13,1.25-1.03,3.09-.85,4.12.4Z" style="fill:url(#uuid-4006e97d-0594-4d7b-a412-74ba7bb15e43); stroke-width:0px;"/><path d="M1486.48,462.71l7.77,9.61c1.02,1.26.83,3.12-.44,4.14-1.26,1.02-3.12.83-4.14-.44h0s-7.76-9.61-7.76-9.61c-1.02-1.26-.83-3.11.43-4.13s3.11-.83,4.13.43Z" style="fill:url(#uuid-86d0743f-0c0b-4783-a646-6d9584498ed2); stroke-width:0px;"/><path d="M1509.77,491.55l7.76,9.61c1.03,1.27.83,3.13-.44,4.15-1.27,1.03-3.13.83-4.15-.44h0s-7.76-9.62-7.76-9.62c-1.02-1.27-.82-3.12.44-4.15,1.27-1.02,3.12-.82,4.15.44Z" style="fill:url(#uuid-ba87106f-775e-4271-819b-92673c8467b7); stroke-width:0px;"/><path d="M1533.1,520.31l7.83,9.54h0c1.04,1.27.86,3.14-.41,4.18-1.26,1.04-3.13.86-4.17-.41h0s-7.84-9.56-7.84-9.56c-1.04-1.26-.85-3.13.41-4.17,1.26-1.04,3.13-.85,4.17.41h0Z" style="fill:url(#uuid-7ae9b53f-7cc9-4b77-b0e3-eb3e76c5b670); stroke-width:0px;"/><path d="M1556.74,548.78l8,9.38.02.02c1.07,1.25.92,3.13-.33,4.19-1.25,1.07-3.13.92-4.19-.33h0s-8.02-9.42-8.02-9.42c-1.06-1.25-.91-3.12.34-4.19,1.25-1.06,3.12-.91,4.19.34v.02Z" style="fill:url(#uuid-4f2e880b-d325-4fc2-bee5-d798ede021cb); stroke-width:0px;"/><path d="M1580.99,576.69l8.28,9.11.03.03c1.11,1.22,1.02,3.11-.2,4.22-1.22,1.11-3.11,1.02-4.22-.2h0s-8.33-9.18-8.33-9.18c-1.11-1.22-1.01-3.1.21-4.21,1.22-1.11,3.1-1.01,4.21.2l.02.03Z" style="fill:url(#uuid-82200c9e-89fa-4a46-836b-684a3a420a69); stroke-width:0px;"/><path d="M1606.21,603.65l8.69,8.69.04.04c1.17,1.17,1.17,3.07,0,4.24-1.17,1.17-3.07,1.17-4.24,0h0s-8.77-8.78-8.77-8.78c-1.17-1.17-1.17-3.06,0-4.23,1.17-1.17,3.06-1.17,4.23,0l.04.04Z" style="fill:url(#uuid-1eac16e3-5236-4d91-bc45-d826089ca978); stroke-width:0px;"/><path d="M1632.83,629.13l9.27,8.03.07.06c1.25,1.09,1.39,2.99.3,4.24-1.09,1.25-2.98,1.39-4.24.3h0s-9.4-8.15-9.4-8.15c-1.25-1.09-1.39-2.98-.3-4.23,1.09-1.25,2.98-1.39,4.23-.3l.06.05Z" style="fill:url(#uuid-be998226-c873-4810-9ebf-b29281cea63b); stroke-width:0px;"/><path d="M1661.35,652.31l10.01,7.03.1.07c1.36.96,1.69,2.84.74,4.2-.96,1.36-2.84,1.69-4.2.74h0s-10.21-7.17-10.21-7.17c-1.36-.96-1.69-2.84-.73-4.2.96-1.36,2.84-1.69,4.2-.73l.1.07Z" style="fill:url(#uuid-30412a3c-b0a7-4350-a593-efedb5fe95d6); stroke-width:0px;"/><path d="M1692.23,672.01c3.57,1.94,7.2,3.78,10.87,5.52,1.51.72,2.16,2.52,1.44,4.03-.72,1.51-2.52,2.16-4.03,1.44h0c-3.77-1.79-7.49-3.69-11.16-5.68-1.47-.8-2.01-2.63-1.21-4.1.8-1.47,2.63-2.01,4.1-1.21Z" style="fill:url(#uuid-12af1d6f-a59e-4420-a5fb-d36f8920f718); stroke-width:0px;"/><path d="M1725.66,686.6c3.85,1.27,7.73,2.42,11.65,3.43,1.62.42,2.6,2.07,2.18,3.7-.42,1.62-2.07,2.6-3.7,2.18h0c-4.05-1.05-8.07-2.23-12.04-3.55-1.59-.53-2.45-2.24-1.93-3.84.53-1.59,2.24-2.45,3.83-1.93Z" style="fill:url(#uuid-7927be4c-eed0-4cbf-90d1-c8cab3187481); stroke-width:0px;"/><path d="M1761.16,694.41c4.02.45,8.05.75,12.1.9,1.68.07,2.99,1.48,2.93,3.16-.06,1.68-1.48,2.99-3.16,2.93h0c-4.19-.16-8.37-.48-12.53-.94-1.67-.19-2.88-1.69-2.69-3.36.19-1.67,1.69-2.88,3.36-2.69Z" style="fill:url(#uuid-51d03267-1f97-4c4a-b770-2713ba1a0c36); stroke-width:0px;"/><path d="M1797.02,693.64c3.85-.88,7.64-2.07,11.31-3.55,1.57-.63,3.35.13,3.98,1.7.63,1.57-.13,3.35-1.7,3.98h0c-3.96,1.59-8.06,2.89-12.24,3.84-1.65.37-3.28-.66-3.66-2.3-.37-1.65.65-3.28,2.3-3.66Z" style="fill:url(#uuid-338b71c1-05bd-4912-8636-3d4420348f12); stroke-width:0px;"/><path d="M1828.9,678.15c3.15-2.45,6.16-5.09,9.01-7.9,1.21-1.19,3.15-1.18,4.34.03,1.19,1.21,1.18,3.15-.03,4.34h0c-3.02,2.97-6.2,5.78-9.56,8.38-1.34,1.04-3.27.79-4.3-.55-1.04-1.34-.79-3.26.54-4.3Z" style="fill:url(#uuid-57ac0544-279b-4228-a9f1-8db37e9b34d2); stroke-width:0px;"/><path d="M1853.1,651.64c2.21-3.35,4.25-6.82,6.13-10.37.79-1.5,2.66-2.08,4.16-1.29,1.51.79,2.08,2.66,1.29,4.16h0c-1.97,3.73-4.12,7.36-6.44,10.88-.94,1.42-2.84,1.81-4.26.88-1.42-.94-1.81-2.84-.88-4.26Z" style="fill:url(#uuid-48e545ae-ee04-4a8f-a994-ab9189bd5fc1); stroke-width:0px;"/><path d="M1868.4,619c1.18-3.84,2.17-7.74,2.96-11.67.33-1.65,1.93-2.72,3.58-2.38,1.64.33,2.71,1.92,2.39,3.56-.8,4.15-1.82,8.25-3.04,12.29-.49,1.63-2.21,2.55-3.84,2.06-1.63-.49-2.55-2.21-2.06-3.84v-.02Z" style="fill:url(#uuid-806f43e5-0781-459b-89c7-ac9aacf35714); stroke-width:0px;"/><path d="M1873.48,583.4c-.04-4.05-.23-8.1-.51-12.16-.11-1.61,1.1-3.01,2.71-3.12,1.61-.11,3,1.09,3.12,2.7.32,4.15.53,8.32.61,12.51.03,1.64-1.28,2.99-2.91,3.01-1.64.03-2.99-1.28-3.01-2.91v-.02Z" style="fill:url(#uuid-c8b6631e-2a75-4d30-a0d5-20e267b18247); stroke-width:0px;"/><path d="M1870.24,546.91l-1.97-12.11v-.08c-.26-1.53.78-2.97,2.31-3.22,1.52-.25,2.96.78,3.22,2.3l2.08,12.26c.26,1.55-.78,3.02-2.33,3.28-1.55.26-3.02-.78-3.28-2.33v-.02s-.02-.08-.02-.08Z" style="fill:url(#uuid-83d09b01-c601-4cf9-ba6c-0ccfe2d2d1b5); stroke-width:0px;"/><path d="M1863.46,510.72l-2.77-11.98v-.05c-.33-1.38.53-2.75,1.9-3.07,1.36-.31,2.72.52,3.06,1.87l3.02,12.04c.36,1.43-.51,2.88-1.94,3.24-1.43.36-2.88-.51-3.24-1.94,0-.01,0-.02,0-.03l-.02-.07Z" style="fill:url(#uuid-2ed9d23d-d41d-46b7-bf11-d63c1180d2f8); stroke-width:0px;"/><path d="M1854.38,474.96l-3.54-11.78v-.05c-.37-1.18.3-2.41,1.48-2.77,1.16-.35,2.39.3,2.76,1.45l3.78,11.81c.39,1.23-.28,2.54-1.51,2.94-1.23.39-2.54-.28-2.94-1.51,0,0,0-.02,0-.03l-.02-.06Z" style="fill:url(#uuid-9de25b39-56cc-444c-b4ae-b90bff2bebd5); stroke-width:0px;"/><path d="M1842.97,439.87l-4.39-11.48-.02-.06c-.35-.91.11-1.93,1.02-2.28.89-.34,1.89.09,2.26.97l4.77,11.46c.41.99-.06,2.13-1.05,2.54-.99.41-2.13-.06-2.54-1.05,0-.01-.01-.03-.02-.04l-.03-.07Z" style="fill:url(#uuid-f126612d-8506-4db1-89c8-3402b7ba3ee2); stroke-width:0px;"/><path d="M1828.4,406.06c-1.89-3.62-3.89-7.18-6.1-10.6-.35-.53-.19-1.25.34-1.6.52-.34,1.22-.2,1.57.3,2.4,3.41,4.58,6.95,6.64,10.56.38.67.15,1.52-.52,1.9-.67.38-1.52.15-1.9-.52,0-.01-.02-.03-.03-.05Z" style="fill:url(#uuid-0b6d14a1-6806-4f82-a4a5-2cd9880aceb0); stroke-width:0px;"/><polygon points="121.93 648.16 136.38 676.81 149.57 654.71 121.93 648.16" style="fill:#7d97f4; stroke-width:0px;"/><path d="M242.46,566.73l-43.13,106.89c-.83,2.05-2.45,3.67-4.5,4.49-2.05.82-4.34.78-6.36-.12l-105.69-47.35c-1.21-.54-1.97-1.76-1.92-3.09.05-1.33.9-2.49,2.14-2.94l159.46-57.88Z" style="fill:#91b3fa; stroke-width:0px;"/><polygon points="121.94 648.16 242.46 566.73 138.97 655.85 142.64 663.97 121.94 648.16" style="fill:#7d97f4; stroke-width:0px;"/><polygon points="149.11 660.34 136.38 676.81 138.97 655.85 149.11 660.34" style="fill:#7d97f4; stroke-width:0px;"/><polygon points="1816.52 329.72 1792.43 365.95 1778.25 334.06 1816.52 329.72" style="fill:#7d97f4; stroke-width:0px;"/><path d="M1667.45,200.59l40.76,150.87c.78,2.89,2.7,5.34,5.32,6.78,2.62,1.44,5.72,1.75,8.57.87l149.94-46.63c1.72-.53,2.94-2.06,3.09-3.85.15-1.79-.8-3.49-2.41-4.31l-205.27-103.74Z" style="fill:#91b3fa; stroke-width:0px;"/><polygon points="1816.51 329.72 1667.45 200.59 1792.33 337.32 1786.08 347.65 1816.51 329.72" style="fill:#7d97f4; stroke-width:0px;"/><polygon points="1777.97 341.72 1792.43 365.95 1792.33 337.32 1777.97 341.72" style="fill:#7d97f4; stroke-width:0px;"/></g></g></svg>