<?xml version="1.0" encoding="UTF-8"?><svg id="uuid-8aba2991-33b9-4b87-add3-8d6199584ed6" xmlns="http://www.w3.org/2000/svg" xmlns:xlink="http://www.w3.org/1999/xlink" viewBox="0 0 2816.6 2781.1"><defs><linearGradient id="uuid-072bb2ed-e1a6-4206-95a2-bbd21e422cdc" x1="3472.69" y1="640.35" x2="3023.42" y2="1246.19" gradientUnits="userSpaceOnUse"><stop offset="0" stop-color="#09005d"/><stop offset="1" stop-color="#1a0f91"/></linearGradient><linearGradient id="uuid-ee5ed837-0847-4ac6-8a44-a0824d30aede" x1="1374.85" y1="3286.87" x2="1381.66" y2="2435.96" gradientUnits="userSpaceOnUse"><stop offset="0" stop-color="#4f52ff"/><stop offset="1" stop-color="#4042e2"/></linearGradient><linearGradient id="uuid-3699fdce-052d-44dd-a2e7-4263ea04a977" x1="2020.93" y1="1330.93" x2="-607.05" y2="2671.74" xlink:href="#uuid-ee5ed837-0847-4ac6-8a44-a0824d30aede"/><linearGradient id="uuid-c970267d-8aab-4e3a-92af-8a2b53ffbf28" x1="3671.07" y1="787.45" x2="3221.8" y2="1393.3" xlink:href="#uuid-072bb2ed-e1a6-4206-95a2-bbd21e422cdc"/><linearGradient id="uuid-b691a87d-15a4-4af8-b166-5d2155c467a0" x1="2237.59" y1="214.36" x2="1919.35" y2="-66.44" xlink:href="#uuid-072bb2ed-e1a6-4206-95a2-bbd21e422cdc"/><linearGradient id="uuid-7c752cb3-ba32-47c7-bce4-120fd38cacb3" x1="2085.88" y1="-19.46" x2="2150.55" y2="171.15" xlink:href="#uuid-072bb2ed-e1a6-4206-95a2-bbd21e422cdc"/><linearGradient id="uuid-482ea084-d4f0-4969-9952-7a60baf4a1d7" x1="2244.56" y1="108.22" x2="2244.56" y2="320.95" xlink:href="#uuid-072bb2ed-e1a6-4206-95a2-bbd21e422cdc"/><linearGradient id="uuid-f093701b-a8d0-4c99-8211-c0bc2cfb9cb7" x1="6503.21" y1="4027.98" x2="6506.78" y2="4420.84" gradientTransform="translate(-5067.47 -164.19) rotate(44.79) scale(1 -1)" xlink:href="#uuid-072bb2ed-e1a6-4206-95a2-bbd21e422cdc"/><linearGradient id="uuid-8f8bd01e-c57e-4315-80d8-7ea0f481412b" x1="3145.25" y1="1533.89" x2="3148.79" y2="1922.74" gradientTransform="translate(5213.57 3.47) rotate(-178.92) scale(1 -1)" xlink:href="#uuid-072bb2ed-e1a6-4206-95a2-bbd21e422cdc"/><linearGradient id="uuid-f0f08480-d203-4161-b4eb-aa51457ba8e3" x1="7939.86" y1="1399.5" x2="7929.65" y2="1653.07" gradientTransform="translate(-5801.47)" gradientUnits="userSpaceOnUse"><stop offset="0" stop-color="#a22b25"/><stop offset="1" stop-color="#c0423c"/></linearGradient><linearGradient id="uuid-b8450d61-c50e-4052-be05-77fa4b5288bd" x1="3643.16" y1="8853.59" x2="3775.91" y2="8601.72" xlink:href="#uuid-f0f08480-d203-4161-b4eb-aa51457ba8e3"/><linearGradient id="uuid-9a01bacb-6ca5-4432-9e69-2eafb0f9454a" x1="-5896.2" y1="571.04" x2="-6067.16" y2="797.2" gradientTransform="translate(-3744.53) rotate(-180) scale(1 -1)" xlink:href="#uuid-072bb2ed-e1a6-4206-95a2-bbd21e422cdc"/><linearGradient id="uuid-3e6042a9-dcbc-448f-8eb9-c9ace0de5f6d" x1="3685.95" y1="8876.14" x2="3818.69" y2="8624.27" xlink:href="#uuid-f0f08480-d203-4161-b4eb-aa51457ba8e3"/><linearGradient id="uuid-a41f1333-0f3a-42ef-afe6-36eb68cca33d" x1="7912.67" y1="1398.4" x2="7902.46" y2="1651.97" xlink:href="#uuid-f0f08480-d203-4161-b4eb-aa51457ba8e3"/><linearGradient id="uuid-15658f89-38b0-4f5d-a411-36dceeaf577f" x1="8088.16" y1="453.22" x2="8025.35" y2="1481.75" gradientTransform="translate(-5801.47)" xlink:href="#uuid-072bb2ed-e1a6-4206-95a2-bbd21e422cdc"/><linearGradient id="uuid-060ce033-f0c4-4b63-82ee-6025e58d14f7" x1="8118.55" y1="455.02" x2="8055.73" y2="1483.73" gradientTransform="translate(-5801.47)" xlink:href="#uuid-072bb2ed-e1a6-4206-95a2-bbd21e422cdc"/><linearGradient id="uuid-05486e61-2773-40ba-9e39-a508b93ad009" x1="7811.49" y1="436.26" x2="7748.67" y2="1464.98" gradientTransform="translate(-5801.47)" xlink:href="#uuid-072bb2ed-e1a6-4206-95a2-bbd21e422cdc"/><linearGradient id="uuid-b91113c9-e09e-40a0-b7c3-7fa7477ff835" x1="2128.65" y1="477.88" x2="2152.47" y2="712.73" gradientUnits="userSpaceOnUse"><stop offset="0" stop-color="#ff928e"/><stop offset="1" stop-color="#fe7062"/></linearGradient><linearGradient id="uuid-67b19ffa-a593-4ea2-9cc0-9533cd161008" x1="927.61" y1="111.71" x2="976.96" y2="13.01" xlink:href="#uuid-072bb2ed-e1a6-4206-95a2-bbd21e422cdc"/><linearGradient id="uuid-a363ea41-20d2-482f-a0c2-de44fccb3589" x1="1058.37" y1="-31.25" x2="973.28" y2="82.77" xlink:href="#uuid-072bb2ed-e1a6-4206-95a2-bbd21e422cdc"/><linearGradient id="uuid-76cee792-0e87-408f-ae96-4a825125886c" x1="744.67" y1="256.06" x2="678.3" y2="351.36" xlink:href="#uuid-072bb2ed-e1a6-4206-95a2-bbd21e422cdc"/><linearGradient id="uuid-3ee9b7f7-f357-46ce-b522-9744418231a4" x1="-7333.46" y1="1814.11" x2="-7244.06" y2="1814.11" gradientTransform="translate(-6507.27) rotate(-180) scale(1 -1)" xlink:href="#uuid-072bb2ed-e1a6-4206-95a2-bbd21e422cdc"/><linearGradient id="uuid-f73bbb9d-1886-4f89-9385-cefabc61a5a1" x1="11084.22" y1="1709.2" x2="11066.37" y2="1864.97" gradientTransform="translate(-10287.36)" gradientUnits="userSpaceOnUse"><stop offset="0" stop-color="#febbba"/><stop offset="1" stop-color="#ff928e"/></linearGradient><linearGradient id="uuid-963d73de-3323-4fff-ba3f-9ad49b18e9d4" x1="11245.03" y1="1815.38" x2="11370.86" y2="1815.38" gradientTransform="translate(-10287.36)" xlink:href="#uuid-072bb2ed-e1a6-4206-95a2-bbd21e422cdc"/><linearGradient id="uuid-775ab45a-5be6-4a0c-85fb-1c27fc35752f" x1="11272.25" y1="1729.13" x2="11255.55" y2="1874.85" xlink:href="#uuid-f73bbb9d-1886-4f89-9385-cefabc61a5a1"/><linearGradient id="uuid-db198232-29d1-4b64-8ba5-6b8c3e803670" x1="881.47" y1="434.4" x2="871.26" y2="603.44" xlink:href="#uuid-b91113c9-e09e-40a0-b7c3-7fa7477ff835"/><linearGradient id="uuid-59251cb2-5449-4cb1-aa35-32110cd5a378" x1="9285.1" y1="721.67" x2="9365.15" y2="721.67" gradientTransform="translate(-8475.52)" xlink:href="#uuid-f73bbb9d-1886-4f89-9385-cefabc61a5a1"/><linearGradient id="uuid-f3fedbe5-1bd1-4f38-9af0-e03bfbbda37c" x1="16781.62" y1="2079.31" x2="16921.84" y2="2045.18" gradientTransform="translate(-8177.7 822.92) rotate(-28.87)" xlink:href="#uuid-f73bbb9d-1886-4f89-9385-cefabc61a5a1"/><linearGradient id="uuid-8d2eedbb-2dbc-4768-b4ca-7ecdd0f2aa3d" x1="7947.29" y1="4163.94" x2="8091.71" y2="4163.94" gradientTransform="translate(-8177.7 822.92) rotate(-28.87)" xlink:href="#uuid-072bb2ed-e1a6-4206-95a2-bbd21e422cdc"/><linearGradient id="uuid-03cd7ca6-0474-4510-b20e-b967bd4cc934" x1="16776.74" y1="2058.98" x2="16916.97" y2="2024.85" gradientTransform="translate(-8177.7 822.92) rotate(-28.87)" xlink:href="#uuid-f73bbb9d-1886-4f89-9385-cefabc61a5a1"/><linearGradient id="uuid-0bb9eeda-1449-4d5d-9a09-b1a49097dfdd" x1="815.48" y1="293.78" x2="776.9" y2="423.12" xlink:href="#uuid-b91113c9-e09e-40a0-b7c3-7fa7477ff835"/><linearGradient id="uuid-f82c98a0-994d-4218-b660-f8589ff26c63" x1="9115.22" y1="483.9" x2="9070.02" y2="632.42" gradientTransform="translate(-8475.52)" xlink:href="#uuid-f73bbb9d-1886-4f89-9385-cefabc61a5a1"/><linearGradient id="uuid-fa982574-2a98-4fd5-b150-6c41ff2c3542" x1="-3107.96" y1="-15989.38" x2="-3139.72" y2="-15890.67" gradientTransform="translate(-7471.9) rotate(-180) scale(1 -1)" xlink:href="#uuid-b91113c9-e09e-40a0-b7c3-7fa7477ff835"/><linearGradient id="uuid-3a5ead1c-ed0d-4d7f-aeca-532b3aeaacd9" x1="-8540.21" y1="496.82" x2="-8585.41" y2="645.33" gradientTransform="translate(-7471.9) rotate(-180) scale(1 -1)" xlink:href="#uuid-f73bbb9d-1886-4f89-9385-cefabc61a5a1"/><linearGradient id="uuid-2d87baa3-3566-40dd-baf5-aef7cbe11f09" x1="1275.92" y1="403.34" x2="574.77" y2="1778.41" xlink:href="#uuid-072bb2ed-e1a6-4206-95a2-bbd21e422cdc"/><linearGradient id="uuid-1e99fb49-c349-46e3-9b02-84d52267be93" x1="9314.03" y1="794.39" x2="9450.51" y2="883.29" gradientTransform="translate(-8475.52)" xlink:href="#uuid-b91113c9-e09e-40a0-b7c3-7fa7477ff835"/><linearGradient id="uuid-feab0adb-937e-44c4-9d49-1b1a26a782a2" x1="305.39" y1="483.99" x2="969.1" y2="1089.84" xlink:href="#uuid-072bb2ed-e1a6-4206-95a2-bbd21e422cdc"/><linearGradient id="uuid-572dd269-36ce-4a56-8ae3-80b0c2934fb4" x1="1422.39" y1="516.42" x2="816.54" y2="972.51" xlink:href="#uuid-072bb2ed-e1a6-4206-95a2-bbd21e422cdc"/><linearGradient id="uuid-5cd54592-d30e-4ac4-9bb5-13f9425f6109" x1="1613.09" y1="550.36" x2="1553.53" y2="102.79" xlink:href="#uuid-072bb2ed-e1a6-4206-95a2-bbd21e422cdc"/><linearGradient id="uuid-5436cfc2-efc7-4550-8c2c-3cfa6b333b95" x1="1599.33" y1="63.91" x2="1580.61" y2="273.23" xlink:href="#uuid-072bb2ed-e1a6-4206-95a2-bbd21e422cdc"/><linearGradient id="uuid-b162fb4e-1cc8-4d4d-961b-a6caabd28e13" x1="1565.47" y1="467.26" x2="1723.74" y2="560.86" xlink:href="#uuid-072bb2ed-e1a6-4206-95a2-bbd21e422cdc"/><linearGradient id="uuid-d473ae29-85ef-46f3-ba9c-5dd5a0fb74b4" x1="2805.14" y1="-1211.06" x2="2804.07" y2="-1193.5" gradientTransform="translate(-641.71 3183.48) rotate(-30) scale(1.06 .92)" xlink:href="#uuid-072bb2ed-e1a6-4206-95a2-bbd21e422cdc"/><linearGradient id="uuid-1574cd08-3b7f-4403-8349-904d23e27ad3" x1="1767.65" y1="660.67" x2="1766.49" y2="679.76" xlink:href="#uuid-072bb2ed-e1a6-4206-95a2-bbd21e422cdc"/><linearGradient id="uuid-f223db24-af41-4540-86b7-85b583101936" x1="5021.75" y1="1713.05" x2="5093.22" y2="1713.05" gradientTransform="translate(6263.58 -124.59) rotate(175.54) scale(1 -1)" xlink:href="#uuid-072bb2ed-e1a6-4206-95a2-bbd21e422cdc"/><linearGradient id="uuid-9b2bcda3-19e6-4131-b9a7-1909b50f4e4d" x1="4719.74" y1="1994.89" x2="4822.6" y2="792.75" gradientTransform="translate(6263.58 -124.59) rotate(175.54) scale(1 -1)" xlink:href="#uuid-f73bbb9d-1886-4f89-9385-cefabc61a5a1"/><linearGradient id="uuid-986383f7-e8e1-4867-a723-98211d045e20" x1="4689.69" y1="1699.99" x2="4805.34" y2="1699.99" gradientTransform="translate(6263.58 -124.59) rotate(175.54) scale(1 -1)" xlink:href="#uuid-072bb2ed-e1a6-4206-95a2-bbd21e422cdc"/><linearGradient id="uuid-2f2b7421-233b-45d4-ba83-f67b22a3af2a" x1="4926.64" y1="2012.79" x2="5029.53" y2="810.32" gradientTransform="translate(6263.58 -124.59) rotate(175.54) scale(1 -1)" xlink:href="#uuid-f73bbb9d-1886-4f89-9385-cefabc61a5a1"/><linearGradient id="uuid-c6bb5860-be06-4724-b077-e20d136a8162" x1="4717.99" y1="2270.06" x2="4731.58" y2="2095.61" gradientTransform="translate(6101.58 -727.26) rotate(172.31) scale(1 -1)" gradientUnits="userSpaceOnUse"><stop offset="0" stop-color="#e1473d"/><stop offset="1" stop-color="#e9605a"/></linearGradient><linearGradient id="uuid-6d85db86-9a81-4f85-bc42-916d47dc7ee5" x1="4881.32" y1="4531.99" x2="4840.02" y2="4107.16" gradientTransform="translate(6650.17 4956.39) rotate(175.81)" xlink:href="#uuid-f73bbb9d-1886-4f89-9385-cefabc61a5a1"/><linearGradient id="uuid-dc67cb2d-24ff-40be-9d44-d718405ebae0" x1="-2051.4" y1="4942.12" x2="-2092.71" y2="4517.25" gradientTransform="translate(4654.99 5217.22) rotate(-10.85) scale(1 -1)" xlink:href="#uuid-f73bbb9d-1886-4f89-9385-cefabc61a5a1"/><linearGradient id="uuid-c3d3824d-dd37-4348-bb34-84f31a62809b" x1="1584.11" y1="609.06" x2="1606.8" y2="805.34" xlink:href="#uuid-b91113c9-e09e-40a0-b7c3-7fa7477ff835"/><linearGradient id="uuid-8819223f-68f6-4742-8fed-4cd4fa744677" x1="4712.44" y1="755.26" x2="4698.81" y2="485.15" gradientTransform="translate(6263.58 -124.59) rotate(175.54) scale(1 -1)" xlink:href="#uuid-f73bbb9d-1886-4f89-9385-cefabc61a5a1"/><linearGradient id="uuid-762abe37-df62-48b8-bc83-61a477c127f9" x1="4579.97" y1="892.43" x2="4745.41" y2="1004.81" gradientTransform="translate(6101.58 -727.26) rotate(172.31) scale(1 -1)" xlink:href="#uuid-f73bbb9d-1886-4f89-9385-cefabc61a5a1"/><linearGradient id="uuid-984b29e4-06f4-4334-ace9-3bcfbd404126" x1="4562.2" y1="2257.92" x2="4575.79" y2="2083.47" xlink:href="#uuid-c6bb5860-be06-4724-b077-e20d136a8162"/><linearGradient id="uuid-0c320a25-b380-4b4b-882d-93261a15fbb7" x1="4584.23" y1="878.59" x2="4749.67" y2="990.97" gradientTransform="translate(6101.58 -727.26) rotate(172.31) scale(1 -1)" xlink:href="#uuid-f73bbb9d-1886-4f89-9385-cefabc61a5a1"/><linearGradient id="uuid-336d8ec0-790a-4d7b-8b68-7842d97b7b27" x1="1760.23" y1="615.88" x2="1646.31" y2="1748.46" xlink:href="#uuid-072bb2ed-e1a6-4206-95a2-bbd21e422cdc"/><linearGradient id="uuid-39b23c9c-4d1f-413f-a54b-d15642b0da4e" x1="1465.55" y1="586.24" x2="1351.63" y2="1718.83" xlink:href="#uuid-072bb2ed-e1a6-4206-95a2-bbd21e422cdc"/><linearGradient id="uuid-ae54ac0c-0175-4eae-9912-d3e110194498" x1="1670.22" y1="606.83" x2="1556.3" y2="1739.41" xlink:href="#uuid-072bb2ed-e1a6-4206-95a2-bbd21e422cdc"/><linearGradient id="uuid-8e288eec-aaeb-4847-836a-c163dd2ba5bf" x1="1614.3" y1="696.97" x2="1616.57" y2="861.48" xlink:href="#uuid-b91113c9-e09e-40a0-b7c3-7fa7477ff835"/><linearGradient id="uuid-700f7a2a-0a58-45c9-98fb-8d275c0e53a5" x1="2460.25" y1="1556.51" x2="336.39" y2="3312.78" xlink:href="#uuid-b91113c9-e09e-40a0-b7c3-7fa7477ff835"/></defs><g style="opacity:.8;"><path d="M1396.91,1861.16S1101,825.6,560.97,277.96c-36.3-36.81-98.92-19.12-110.28,31.32-75.95,337.27-204.72,1355.64,946.21,1551.88Z" style="fill:#bdd0fb; stroke-width:0px;"/><path d="M1289.52,1798.42c2.67,2.38-.53,6.49-3.5,4.49-109.33-73.8-535.79-441.46-721.95-1204.54-.6-2.45,3-3.56,3.8-1.17,59.49,176.13,299.43,824.66,721.64,1201.22Z" style="fill:#fff; opacity:.5; stroke-width:0px;"/></g><path d="M1682.26,2435.95S948.36,1348.87,116.21,918.93c-55.94-28.9-121.75,15.24-115.84,77.93,39.52,419.17,275.28,1646.82,1681.89,1439.08Z" style="fill:#91b3fa; stroke-width:0px;"/><path d="M1534.23,2403.9c3.99,1.75,1.83,7.71-2.35,6.51-154.46-44.12-787.12-308.62-1291-1121.71-1.62-2.61,2.12-5.25,3.96-2.79,135.43,181.43,658.29,841.58,1289.39,1117.98Z" style="fill:#fff; opacity:.5; stroke-width:0px;"/><polygon points="2584.86 1988.26 2556.49 1988.26 2556.49 1725.15 2610.13 1706.93 2584.86 1988.26" style="fill:url(#uuid-072bb2ed-e1a6-4206-95a2-bbd21e422cdc); stroke-width:0px;"/><path d="M1301.01,2203.17l-847.16-424.03,74.14,649.53c19.79,21.96,48.45,51.75,85.7,83.89,279.09,240.82,621.84,252.89,713.91,254.84,86.28,1.83,452.16,9.6,736.6-235.64,29.06-25.06,51.44-47.73,66.25-63.5l189.16-643.13s-1007.18,383.26-1018.6,378.03Z" style="fill:url(#uuid-ee5ed837-0847-4ac6-8a44-a0824d30aede); stroke-width:0px;"/><path d="M163.42,1558.59l1308.97-352.2c11.36-4.68,1308.8,340.39,1308.8,340.39,47.76,19.48,47.01,98.47-1.11,116.71l-1329.44,522.46c-83.06,32.64-176,29.02-256.26-10L161.72,1673.98c-45.53-20.86-44.42-96.37,1.71-115.39Z" style="fill:url(#uuid-3699fdce-052d-44dd-a2e7-4263ea04a977); stroke-width:0px;"/><path d="M2585.95,1925.34s-281.88,391.29-18.46,641.24c9.47,8.99,23.57,6.14,29.65-6.2l100.03-203.2c74.27-150.86-111.22-431.84-111.22-431.84Z" style="fill:url(#uuid-c970267d-8aab-4e3a-92af-8a2b53ffbf28); stroke-width:0px;"/><path d="M1339.51,2125.03c-32.35,0-64.66-6.94-94.32-20.74L157.76,1598.55c-3.22-1.5-4.61-5.32-3.12-8.53,1.5-3.22,5.32-4.61,8.54-3.12l1087.43,505.74c51.34,23.87,111.11,25.97,164,5.76l1338.85-511.68c3.31-1.27,7.03.39,8.3,3.71,1.27,3.31-.4,7.03-3.71,8.29l-1338.85,511.68c-25.55,9.77-52.63,14.62-79.68,14.62Z" style="fill:#91b3fa; stroke-width:0px;"/><path d="M2037.83,162.92l28.75,48.57c3.9,6.59,10.47,11.18,18,12.55,18.93,3.44,57.83,4.74,106.71-24.8,49.64-30,60.5-63.56,62.64-80.45.77-6.11-.49-12.31-3.58-17.64l-30.07-51.83-182.45,113.6Z" style="fill:url(#uuid-b691a87d-15a4-4af8-b166-5d2155c467a0); stroke-width:0px;"/><path d="M2070.15,28.29l-77.07,143.6c-3.97,7.39,1.91,16.22,10.26,15.41,40.74-3.99,134.41-12.01,178.92-6.37,4.76.6,9.32-2.12,11.07-6.59l62.66-160.03c2.83-7.24-2.91-14.94-10.65-14.28-40.85,3.46-144,13.05-169.91,23.5-2.26.91-4.12,2.6-5.28,4.75Z" style="fill:url(#uuid-7c752cb3-ba32-47c7-bce4-120fd38cacb3); stroke-width:0px;"/><path d="M2126.24,86.93s96.03-23.74,109.14-19.98c13.11,3.76,43.73,51,43.73,51,42.57,22.65,80.24,56.16,83.82,90.46,0,0-62.99-22.5-73.03-49.16-10.04-26.65-14.37-37.36-14.37-37.36,0,0-34.69-48.22-43.06-51.57,0,0-108.73,24.04-106.22,16.61Z" style="fill:url(#uuid-482ea084-d4f0-4969-9952-7a60baf4a1d7); stroke-width:0px;"/><path d="M2018.21,166.76l112.78-2.99,28.19-.75,7.05-.19,3.51-.1c1.1-.03,2.18-.21,3.24-.48,4.25-1.1,7.95-4.16,9.79-8.2l24.15-50.98c.19-.4.67-.57,1.07-.38.4.19.57.67.39,1.07l-23.76,51.16c-2.04,4.56-6.23,8.11-11.08,9.4-1.21.32-2.46.53-3.71.58l-3.53.13-7.05.24-28.19.96-112.75,3.85c-.92.03-1.69-.69-1.72-1.6-.03-.92.69-1.69,1.6-1.72h.01Z" style="fill:#bdd0fb; stroke-width:0px;"/><path d="M2295.18,141.89v.23s.04.29.04.29l.06.58.2,1.19c.14.8.37,1.6.55,2.4l.75,2.38c.28.79.62,1.56.92,2.34.29.79.67,1.54,1.04,2.29.38.75.73,1.52,1.13,2.26l1.29,2.19c.44.73.83,1.48,1.34,2.16l1.46,2.09c.49.69.95,1.41,1.51,2.06,1.08,1.32,2.14,2.65,3.24,3.96l3.52,3.73c.3.31.58.63.89.93l.95.87,1.9,1.74c2.46,2.4,5.25,4.43,7.91,6.61.66.56,1.37,1.04,2.08,1.53l2.12,1.48c1.42.98,2.82,1.99,4.25,2.95,2.95,1.78,5.87,3.63,8.86,5.37l9.15,4.89h.03c.28.17.39.52.24.8-.15.28-.49.38-.77.24l-9.33-4.68c-3.05-1.67-6.05-3.46-9.08-5.18-1.47-.93-2.92-1.91-4.38-2.87l-2.19-1.44c-.73-.48-1.46-.95-2.15-1.5-2.76-2.14-5.65-4.13-8.23-6.52l-1.98-1.73-.99-.86c-.32-.3-.62-.62-.94-.93l-3.72-3.74c-1.17-1.32-2.3-2.67-3.46-4-.6-.65-1.09-1.39-1.62-2.09l-1.57-2.14c-.55-.7-.99-1.47-1.46-2.22l-1.41-2.26c-.44-.77-.84-1.57-1.25-2.36-.42-.79-.84-1.57-1.17-2.41-.35-.83-.72-1.64-1.05-2.48l-.88-2.56c-.23-.88-.5-1.75-.68-2.65l-.26-1.36-.09-.71-.05-.36-.03-.42c-.07-.91.62-1.71,1.54-1.77s1.71.62,1.77,1.54v.03s0,.13,0,.13Z" style="fill:#bdd0fb; stroke-width:0px;"/><path d="M2312.52,155.01l2.35,2.27,2.67,2.53,5.38,5.04,10.82,10.05,21.7,20.03c.37.34.39.91.06,1.28-.33.36-.89.39-1.26.07l-22.21-19.47-11.08-9.77-5.52-4.91-2.75-2.48-1.38-1.26-.69-.64c-.29-.28-.61-.63-.9-.96-.58-.68-.51-1.7.17-2.28.64-.55,1.58-.51,2.17.05l.47.45Z" style="fill:#bdd0fb; stroke-width:0px;"/><path d="M2596.66,1306.16c-19.06-17.88-30.81-25.22-37.78-28.11,1.82-1.86,3.69-3.72,5.68-5.61,2.12-2.01,5.31-2.14,7.19-.25l101.14,101.69c3.23,3.25,1.39,8.9-2.98,10.48-12.25-14.35-43.8-50.56-73.25-78.2Z" style="fill:#7d97f4; stroke-width:0px;"/><path d="M2669.92,1384.36c-.38.14-.75.3-1.16.37-21.46,3.64-69.18,5.93-125.19-28.13l-22.39-20.86s7.01-26.39,37.71-57.69c6.97,2.89,18.72,10.23,37.78,28.11,29.46,27.64,61,63.85,73.25,78.2Z" style="fill:url(#uuid-f093701b-a8d0-4c99-8211-c0bc2cfb9cb7); stroke-width:0px;"/><path d="M2060.84,1802.47c25.86-.24,39.29-3.03,46.26-5.72-.03,2.57-.1,5.19-.23,7.9-.14,2.89-2.33,5.16-4.97,5.1l-141.92-3.6c-4.53-.12-7.08-5.42-5.04-9.53,18.58,1.89,65.92,6.22,105.9,5.86Z" style="fill:#7d97f4; stroke-width:0px;"/><path d="M1954.94,1796.61c.18-.36.33-.72.58-1.06,12.87-17.28,45.45-51.55,108.82-65.49l30.28-.38s13.03,23.68,12.47,67.07c-6.97,2.7-20.39,5.49-46.26,5.72-39.98.36-87.32-3.97-105.9-5.86Z" style="fill:url(#uuid-8f8bd01e-c57e-4315-80d8-7ea0f481412b); stroke-width:0px;"/><path d="M2187.86,1403.55c-11.62-74.9-81.36-91.69-94.27-49.07,0,0-33.78,265.16-46.14,379.92,17.78,7.43,26.61,5.89,45.15,9.82,28.31-77.64,103.52-287.43,95.26-340.66Z" style="fill:#7d97f4; stroke-width:0px;"/><path d="M2402.26,1393.78c-59.09-.09-40.93-51.09-59.55-82-21.52-.89-97.07,13.64-97.07,13.64,0,0,41.61,195.46,126.86,167.46,68.94-22.63,157.78-97.46,186.38-127.73-8.8-9.77-25.11-25.97-33.59-35.98-20.06,20.26-75.1,64.69-123.03,64.61Z" style="fill:#7d97f4; stroke-width:0px;"/><path d="M2198.03,685.6l2.75,92.07c.18,5.9-3.51,11.22-9.11,13.07-11.46,3.79-32.21,8.5-55.42,3.49-6.92-1.49-11.34-8.33-10.13-15.31l12.61-72.53,59.3-20.79Z" style="fill:url(#uuid-f0f08480-d203-4161-b4eb-aa51457ba8e3); stroke-width:0px;"/><path d="M2134.92,601.3c-.83,1.04-28.66,76.78-40.91,110.16-3.1,8.45,1.51,17.75,10.1,20.44l26.92,4.91c17.85,3.26,35.57-6.26,42.72-22.93l32.42-37.77c17.62-20.53,11.57-52.28-12.54-64.57-23.74-12.11-49.77-21.45-58.72-10.24Z" style="fill:url(#uuid-b8450d61-c50e-4052-be05-77fa4b5288bd); stroke-width:0px;"/><path d="M2188.5,684.58l-7.71-3.85s30.82-50.09-3.85-53.94c-34.68-3.85-65.5-11.56-65.5-30.82s0-53.94,42.38-38.53c42.38,15.41,38.53,42.38,61.64,46.23,23.12,3.85,42.38,7.71,34.67,30.82-7.71,23.12-23.12,38.53-15.41,46.23,7.71,7.71-26.97,46.23-46.23,3.85Z" style="fill:url(#uuid-9a01bacb-6ca5-4432-9e69-2eafb0f9454a); stroke-width:0px;"/><path d="M2180.28,699.58s6.41-33.87,20.7-34.71c14.3-.84,27.43,11.64,12.19,29.97-18.95,22.8-32.89,4.74-32.89,4.74Z" style="fill:url(#uuid-3e6042a9-dcbc-448f-8eb9-c9ace0de5f6d); stroke-width:0px;"/><path d="M2347.03,384.63c-6.51-6.51-32.55-3.25-22.78,16.27l-9.13,13.7c-2.51,3.77-3.17,8.46-1.75,12.77,2.84,8.61,8.44,23.6,16.22,35.45-1.4,44.96-7.03,144.87-29.61,222.91-35.07,118.73-99.2,92.22-99.2,92.22,0,0-19.38-12.36-61.67-5.29-87.94,32.59-131.31-60.07-132.13-61.84-33.08-80.07-40.43-206.72-42.06-259.01,7.78-11.85,13.38-26.83,16.22-35.44,1.42-4.3.77-9-1.75-12.77l-9.13-13.7c9.76-19.53-16.27-22.78-22.78-16.27-6.51,6.51-29.29,39.06-26.04,52.07,1.92,7.67,8.36,24.38,16.65,33.48-28.93,94.5-15.88,188.59,8.35,265.05h0c9.11,77.47,68.37,125.29,100.66,144.66,3.87,81.36,49.96,293.62,49.96,293.62l190.68-7.79-2.35-284.83s43.94-81.91,47.16-89.95l.56-.02h0c30.81-82.55,58.71-195.85,23.85-309.74,8.3-9.1,14.46-25.81,16.38-33.48,3.25-13.02-19.8-45.56-26.31-52.07Z" style="fill:url(#uuid-a41f1333-0f3a-42ef-afe6-36eb68cca33d); stroke-width:0px;"/><path d="M2047.1,1604.99c168.97,6.9,308.29-45.22,385.5-215.94l-147.22-519.15c-4.03-55.62-14.72-102.8-73.04-89.59-14.3,28.46-25.06,55.57-53.88,81.7-22.54-30.45-40.3-58.92-47.02-82.84l-39.47-8.29-56.54,798.7c-1.32,18.61,13.02,34.64,31.66,35.4Z" style="fill:url(#uuid-15658f89-38b0-4f5d-a411-36dceeaf577f); stroke-width:0px;"/><path d="M2232.23,778.32l56.51,103.4c66.86-104.57,89.47-220.35,84.42-346.84-14.1,10.02-33.36,3.48-53.82-6.87-7.22,100.97-26.37,185.69-87.12,250.31Z" style="fill:url(#uuid-060ce033-f0c4-4b63-82ee-6025e58d14f7); stroke-width:0px;"/><path d="M2071.98,770.89c-66.21-40.1-85.79-135.19-101.84-236.03-19.7,9.31-35.97,11.8-49.03,7.88-4.01,147.05,46.07,285.66,137.24,417.87l13.63-189.71Z" style="fill:url(#uuid-05486e61-2773-40ba-9e39-a508b93ad009); stroke-width:0px;"/><path d="M2153.82,905.26c-26.65-44.16-49.81-88.03-68.26-131.51l16.87,3.54c15.78,33.81,33.46,67.1,53.11,99.86,26.93-30.44,48.08-64.23,63.47-98.1l13.22-.72c-13.85,37.38-44.39,80.87-78.4,126.94Z" style="fill:url(#uuid-b91113c9-e09e-40a0-b7c3-7fa7477ff835); stroke-width:0px;"/><path d="M977.49,256.65l-35.29,43.07c-4.79,5.85-11.87,9.34-19.43,9.55-18.97.52-57.1-4.02-100.35-40.12-43.93-36.67-49.51-71.02-49.07-87.8.16-6.08,2.31-11.93,6.12-16.66l37.06-46.05,160.95,138.01Z" style="fill:url(#uuid-67b19ffa-a593-4ea2-9cc0-9533cd161008); stroke-width:0px;"/><path d="M966.08,120.55l53.71,151.54c2.77,7.8-4.29,15.54-12.31,13.49-39.13-9.97-129.28-31.78-173.52-32.92-4.73-.12-8.77-3.46-9.81-8.07l-37.21-165.4c-1.68-7.48,5.06-14.14,12.52-12.34,39.32,9.48,138.47,34.23,162.17,48.28,2.07,1.23,3.63,3.15,4.44,5.42Z" style="fill:url(#uuid-a363ea41-20d2-482f-a0c2-de44fccb3589); stroke-width:0px;"/><path d="M902.63,169.35s-90.1-37.49-103.44-35.78c-13.35,1.71-50.26,43.2-50.26,43.2-44.9,15.73-86.63,42.78-95.24,75.7,0,0,64.78-12.54,78.55-37.03,13.77-24.49,19.59-34.29,19.59-34.29,0,0,41.03-41.84,49.69-43.85,0,0,102.44,39.68,101.1,32.05Z" style="fill:url(#uuid-76cee792-0e87-408f-ae96-4a825125886c); stroke-width:0px;"/><path d="M996.06,263.32l-109.53-19.76-27.38-4.94-6.85-1.23-3.41-.62c-1.06-.19-2.1-.53-3.09-.96-3.98-1.71-7.13-5.25-8.32-9.45l-15.94-53.32c-.13-.42-.57-.66-.99-.53-.42.13-.66.57-.54.98l15.54,53.44c1.31,4.75,4.87,8.84,9.4,10.82,1.13.49,2.31.89,3.53,1.12l3.43.65,6.84,1.29,27.34,5.15,109.37,20.59c.89.17,1.75-.42,1.91-1.31.17-.89-.42-1.75-1.31-1.91h-.01Z" style="fill:#bdd0fb; stroke-width:0px;"/><path d="M729.68,197.72l-.05.22-.07.27-.15.56-.37,1.14c-.26.76-.6,1.5-.9,2.26l-1.09,2.21c-.39.72-.83,1.43-1.25,2.14-.4.73-.88,1.4-1.36,2.08-.48.68-.94,1.37-1.44,2.04l-1.58,1.94c-.53.64-1.03,1.31-1.63,1.9l-1.73,1.82c-.58.6-1.13,1.24-1.78,1.78-1.25,1.12-2.49,2.27-3.75,3.38l-3.99,3.11c-.34.26-.66.53-1,.77l-1.05.71-2.11,1.41c-2.75,1.98-5.78,3.54-8.7,5.26-.72.44-1.49.81-2.25,1.18l-2.29,1.13c-1.53.74-3.04,1.52-4.58,2.24-3.15,1.3-6.27,2.66-9.44,3.91l-9.65,3.4h-.03c-.3.11-.45.44-.35.74.1.29.42.45.71.35l9.8-3.17c3.23-1.17,6.41-2.47,9.62-3.7,1.58-.69,3.13-1.43,4.7-2.14l2.35-1.08c.78-.36,1.57-.71,2.32-1.14,3.01-1.67,6.13-3.18,8.99-5.13l2.19-1.39,1.1-.69c.36-.24.7-.51,1.05-.76l4.18-3.09c1.34-1.11,2.64-2.26,3.97-3.39.68-.55,1.27-1.19,1.89-1.8l1.85-1.85c.64-.6,1.18-1.29,1.76-1.95l1.71-1.99c.55-.69,1.05-1.41,1.58-2.11.52-.71,1.05-1.41,1.5-2.17.46-.75.95-1.49,1.39-2.26l1.24-2.36c.35-.83.75-1.63,1.06-2.48l.46-1.29.2-.68.1-.34.09-.4c.2-.88-.35-1.76-1.24-1.96-.88-.2-1.76.35-1.96,1.24,0,0,0,.02,0,.03l-.03.12Z" style="fill:#bdd0fb; stroke-width:0px;"/><path d="M710.81,207.93l-2.63,1.86-2.98,2.07-6,4.11-12.05,8.18-24.15,16.3c-.41.27-.52.83-.24,1.24.27.4.81.51,1.22.25l24.57-15.67,12.26-7.88,6.12-3.97,3.05-2,1.53-1.02.77-.52c.32-.23.69-.52,1.02-.8.67-.57.75-1.58.18-2.25-.54-.63-1.46-.74-2.13-.27l-.53.37Z" style="fill:#bdd0fb; stroke-width:0px;"/><path d="M736.79,1844.07c-.01-.67.03-1.35.21-2.04,10.18-40.36,51.81-61.05,51.81-61.05l20.02,1.57c11.51,35.57,18.94,52.94,17.09,62.66-.05.27-.13.53-.21.79-16.52,1.48-50.51,2.44-88.92-1.93Z" style="fill:url(#uuid-3ee9b7f7-f357-46ce-b522-9744418231a4); stroke-width:0px;"/><path d="M825.71,1846c-.89,3.24-3.29,5.77-6.35,6.42-23.5,4.94-60.84.96-76.52-1.09-3.46-.45-5.99-3.65-6.04-7.26,38.4,4.37,72.4,3.41,88.92,1.93Z" style="fill:#7d97f4; stroke-width:0px;"/><path d="M772.32,1749.82l8.77,42.2c.64,3.09,3.02,5.41,5.9,5.68,3.52.33,8.54.52,13.58-.22,4.52-.66,7.67-5.26,6.87-10.19l-6.09-37.47h-29.02Z" style="fill:url(#uuid-f73bbb9d-1886-4f89-9385-cefabc61a5a1); stroke-width:0px;"/><path d="M995.84,1845.65c-21.38-.6-32.45-3.12-38.16-5.45-.01,2.13,0,4.29.07,6.53.07,2.4,1.85,4.31,4.03,4.29l117.42-.76c3.75-.02,5.94-4.37,4.31-7.81-15.39,1.27-54.61,4.12-87.66,3.19Z" style="fill:#7d97f4; stroke-width:0px;"/><path d="M1083.5,1842.46c-.14-.3-.26-.6-.46-.89-10.37-14.49-36.78-43.34-88.97-55.85l-25.04-.79s-11.15,19.38-11.36,55.27c5.72,2.34,16.78,4.86,38.16,5.45,33.06.93,72.27-1.92,87.66-3.19Z" style="fill:url(#uuid-963d73de-3323-4fff-ba3f-9ad49b18e9d4); stroke-width:0px;"/><path d="M964.39,1746.99c.28,1.87,3.71,30.23,5.04,41.23.32,2.61,2.21,4.64,4.6,4.92,4.26.51,11.16.97,17.2-.26,3.26-.67,5.61-3.8,5.61-7.43v-44.52l-32.44,6.07Z" style="fill:url(#uuid-775ab45a-5be6-4a0c-85fb-1c27fc35752f); stroke-width:0px;"/><path d="M789.05,1195.63s-40.06,356.11-17.81,578.67c0,0,26.71,0,40.06-4.45,0,0,41.63-348.18,55.1-447.81.51-3.76,5.87-3.93,6.61-.21,16.62,83.82,81.88,412.53,89.64,443.57,0,0,22.26,8.9,40.06,0,0,0-35.61-476.29-62.32-560.87l-151.34-8.9Z" style="fill:#7d97f4; stroke-width:0px;"/><path d="M708.92,781.65s169.15-26.71,302.69,8.9l-8.9,137.99s-35.61,191.41-62.32,275.98c0,0-102.38,17.81-151.34-8.9,0,0-40.06-240.37-62.32-275.98,0,0-22.26-93.48-17.81-137.99Z" style="fill:url(#uuid-db198232-29d1-4b64-8ba5-6b8c3e803670); stroke-width:0px;"/><path d="M826.43,660.02l-16.85,113.95s47.08,21.63,80.04-.93l-7.1-80.42-56.09-32.6Z" style="fill:url(#uuid-59251cb2-5449-4cb1-aa35-32110cd5a378); stroke-width:0px;"/><path d="M898.98,585.82c.53.96,10.69,58.43,16.94,93.99,2.58,14.7-8.22,28.35-23.12,29.23l-13.64.81c-25.06,1.48-47.13-16.36-50.93-41.18l-9.86-64.43s67.73-41.79,80.61-18.42Z" style="fill:url(#uuid-f3fedbe5-1bd1-4f38-9af0-e03bfbbda37c); stroke-width:0px;"/><path d="M803.67,604.4c-5.23-6.5-9.79-17.02,1.35-28.08,11.27-11.2,24.07-8.41,32.18-4.65,3.59,1.66,8.02.93,10.57-2.1,1.14-1.34,2.82-2.26,5.32-1.97,4.72.53,8.93-2.59,9.49-7.3.96-8.08,5.26-17.6,19.55-20.36,26.2-5.06,39.28,21.16,38.81,39.59-.47,18.43-29.19,22.31-45.49,19.25-11.97-2.25-22.32,8.27-26.97,14.01-1.69,2.08-2.32,4.82-1.71,7.43l4.14,17.81c-2.87,5.54-5.69,11.19-9.72,15.91-2.9,3.4-6.08,5.28-9.46,6.07-4.89-9.09-18.55-10.64-24.9-10.84-2.43-.08-4.7-1.15-6.3-2.98-4.79-5.49-12.29-17.75,2.06-29.79,3.57-2.99,3.98-8.38,1.06-12.01Z" style="fill:url(#uuid-8d2eedbb-2dbc-4768-b4ca-7ecdd0f2aa3d); stroke-width:0px;"/><path d="M836.47,679.09s-.56-32.15-13.58-35.17c-13.01-3.02-27.05,6.39-15.92,25.64,13.84,23.94,29.5,9.53,29.5,9.53Z" style="fill:url(#uuid-03cd7ca6-0474-4510-b20e-b967bd4cc934); stroke-width:0px;"/><path d="M785.06,935.36s-382.21-104.04-192.43-371.59l12.84,18.18s-53.38,191.18,136.03,208.4c0,0,45.26,116.56,43.55,145.01Z" style="fill:url(#uuid-0bb9eeda-1449-4d5d-9a09-b1a49097dfdd); stroke-width:0px;"/><path d="M591.35,565.14s-4.31-51.66,21.52-55.96c25.83-4.31,34.44,21.52,38.74,34.44,4.31,12.91-38.74,38.74-47.35,38.74s-12.91-17.22-12.91-17.22Z" style="fill:url(#uuid-f82c98a0-994d-4218-b660-f8589ff26c63); stroke-width:0px;"/><path d="M922.94,948.27s382.21-104.04,192.43-371.59l-12.84,18.18s58.04,185.62-131.37,202.84c0,0-49.92,122.12-48.21,150.57Z" style="fill:url(#uuid-fa982574-2a98-4fd5-b150-6c41ff2c3542); stroke-width:0px;"/><path d="M1116.66,578.06s4.31-51.66-21.52-55.96c-25.83-4.3-34.44,21.52-38.74,34.44-4.3,12.91,38.74,38.74,47.35,38.74s12.91-17.22,12.91-17.22Z" style="fill:url(#uuid-3a5ead1c-ed0d-4d7f-aeca-532b3aeaacd9); stroke-width:0px;"/><path d="M725.52,779l11.27,796.73c95.37,32.49,195.56,31.56,300.16,0l-34.25-787.44c-20.93-6.53-65.98-12.24-100.48-14.55l-34.89,80.34-67.63-81.36c-11.26-.9-52.43,2.22-74.19,6.27Z" style="fill:url(#uuid-2d87baa3-3566-40dd-baf5-aef7cbe11f09); stroke-width:0px;"/><path d="M870.71,895.07l-96.36-121.64,14.89-1.39,79.49,100.35c18.08-38.48,35.64-74.93,49.68-97.46l14.98,1.56c-18.05,27.7-40.09,71.97-62.68,118.58Z" style="fill:url(#uuid-1e99fb49-c349-46e3-9b02-84d52267be93); stroke-width:0px;"/><path d="M539.77,663.37c20.97,4.9,42.01,3.49,63.15-6.26,3.08,72.68,59.52,112.4,122.6,121.9l2.33,164.66c-130.05-68.37-202.63-157.97-188.08-280.29Z" style="fill:url(#uuid-feab0adb-937e-44c4-9d49-1b1a26a782a2); stroke-width:0px;"/><path d="M1107.4,647.15c19.06,5.1,36.32-.52,52.5-12.5,38.69,139.92-28.57,226.89-151.23,290.94-6.04-43.31-7.96-89.12-5.97-137.29,55.64-9.93,91.95-63.56,104.7-141.15Z" style="fill:url(#uuid-572dd269-36ce-4a56-8ae3-80b0c2934fb4); stroke-width:0px;"/><path d="M1686.74,311.89l12.97,55.03c1.76,7.47.2,15.34-4.29,21.56-11.28,15.63-38.47,43.57-94.27,56.18-56.68,12.8-87.82-3.89-101.08-14.6-4.8-3.88-8.19-9.22-9.66-15.22l-14.27-58.3,210.61-44.65Z" style="fill:url(#uuid-5cd54592-d30e-4ac4-9bb5-13f9425f6109); stroke-width:0px;"/><path d="M1569.93,237.12l155.35,50.18c8,2.58,9.88,13.04,3.29,18.25-32.19,25.41-105.39,84.65-133.61,119.62-3.02,3.74-8.2,4.94-12.56,2.93l-156.35-72.04c-7.07-3.26-8.27-12.81-2.23-17.71,31.9-25.86,113.04-90.56,139-101,2.27-.91,4.79-.98,7.11-.23Z" style="fill:url(#uuid-5436cfc2-efc7-4550-8c2c-3cfa6b333b95); stroke-width:0px;"/><path d="M1570.14,318.4s-85.82,49.53-92.68,61.35c-6.86,11.82,3.83,67.18,3.83,67.18-15.01,45.91-18.94,96.26,2.29,123.51,0,0,29.86-59.98,18.6-86.2-11.25-26.22-15.57-36.95-15.57-36.95,0,0-8.43-58.91-4.71-67.13,0,0,95.2-58.14,88.23-61.76Z" style="fill:url(#uuid-b162fb4e-1cc8-4d4d-961b-a6caabd28e13); stroke-width:0px;"/><path d="M1703.58,301.04l-83.51,76.14-20.88,19.04-5.22,4.76-2.6,2.37c-.81.74-1.73,1.36-2.68,1.9-3.84,2.16-8.63,2.51-12.76.88l-52.83-20.04c-.42-.16-.88.05-1.04.47-.16.42.05.88.46,1.04l52.68,20.44c4.64,1.88,10.13,1.53,14.53-.91,1.1-.61,2.14-1.32,3.08-2.16l2.64-2.36,5.26-4.72,21.02-18.88,84.09-75.51c.68-.61.74-1.67.13-2.35-.61-.68-1.67-.74-2.35-.13h0Z" style="fill:#bdd0fb; stroke-width:0px;"/><path d="M1486.31,475.39l.15.18.18.23.36.46.68,1c.45.68.84,1.41,1.27,2.12l1.11,2.24c.34.76.64,1.55.96,2.33.34.77.58,1.58.84,2.38.25.81.53,1.6.76,2.42l.59,2.47c.19.83.42,1.64.53,2.49l.4,2.52c.13.84.3,1.68.34,2.53.13,1.7.3,3.4.41,5.11l.04,5.14c0,.43.02.86,0,1.29l-.08,1.29-.16,2.57c-.11,3.44-.71,6.84-1.12,10.26-.09.86-.26,1.7-.44,2.55l-.5,2.54c-.34,1.69-.65,3.39-1.02,5.08-.89,3.34-1.72,6.7-2.67,10.02l-3.21,9.88v.03c-.11.3.06.63.36.73.3.1.62-.06.72-.36l3.49-9.86c1.05-3.33,1.97-6.69,2.96-10.04.42-1.69.78-3.41,1.17-5.11l.58-2.56c.2-.85.39-1.7.51-2.57.51-3.46,1.21-6.9,1.41-10.42l.23-2.62.12-1.31c.03-.44.02-.88.03-1.32l.09-5.28c-.07-1.76-.19-3.52-.28-5.29-.02-.88-.17-1.76-.28-2.64l-.35-2.64c-.09-.88-.31-1.75-.48-2.62l-.55-2.61c-.22-.86-.49-1.72-.73-2.58-.25-.86-.49-1.72-.83-2.55-.32-.84-.62-1.69-.96-2.52l-1.14-2.46c-.45-.8-.85-1.61-1.35-2.39l-.76-1.17-.43-.58-.22-.29-.27-.32c-.59-.71-1.64-.8-2.34-.21-.71.59-.8,1.64-.21,2.34,0,0,.01.01.02.02l.08.1Z" style="fill:#bdd0fb; stroke-width:0px;"/><path d="M1482.91,496.9l-.12,3.27-.17,3.68-.39,7.38-.83,14.76-1.76,29.53c-.03.5.35.93.85.96.49.03.91-.34.96-.83l2.52-29.48,1.21-14.75.58-7.38.27-3.7.12-1.87.06-.94c.01-.4,0-.88-.02-1.32-.05-.89-.81-1.58-1.7-1.53-.84.05-1.5.72-1.53,1.55l-.02.66Z" style="fill:#bdd0fb; stroke-width:0px;"/><path d="M1407.84,727.3c1.73,3-11.44,13.84-29.42,24.22-17.98,10.38-33.96,16.37-35.69,13.37-1.73-3,11.44-13.84,29.42-24.22,17.98-10.38,33.96-16.36,35.69-13.37Z" style="fill:url(#uuid-d473ae29-85ef-46f3-ba9c-5dd5a0fb74b4); stroke-width:0px;"/><path d="M1804.94,673.8c-1.32,3.87-16.84,8.2-37.88,8.2s-38.33-4.35-38.33-8.44,17.29-6.37,38.33-6.37,39.28,2.52,37.88,6.62Z" style="fill:url(#uuid-1574cd08-3b7f-4403-8349-904d23e27ad3); stroke-width:0px;"/><path d="M1388.59,1956.42l-1.46,33.64c-.28,6.38-4.86,11.77-11.13,12.98-10.59,2.05-27.63,4.64-44.54,4.18-7.42-.2-12.78-7.29-11.09-14.52,3.09-13.18,9.06-33.07,18.96-45.28l36.96-2.88c6.83-.53,12.59,5.03,12.3,11.88Z" style="fill:url(#uuid-f223db24-af41-4540-86b7-85b583101936); stroke-width:0px;"/><path d="M1647.66,1543.52l9.1,36.21s-4.39,213.25-1.51,298.19c.45,13.32,4.91,26.16,12.75,36.93l40.93,56.16-96.58-47.28-2.72-11.12,13.49-21.96-38.28-235.52c-2.25-13.84-.46-28.03,5.14-40.88l16.3-37.37,41.36-33.36Z" style="fill:url(#uuid-9b2bcda3-19e6-4131-b9a7-1909b50f4e4d); stroke-width:0px;"/><path d="M1715.68,1979.08l-29.46,2.3c-5.51.43-10.91-1.7-14.62-5.8-10.12-11.22-30.96-33.02-40.11-32.92-12.31.14-7.35,43.56-7.35,43.56l-6.87.54-12.92-53.44c-3.25-13.44,2.47-27.46,14.2-34.79h0s4.41,20.49,20.31,28.47c15.9,7.98,65.06,37.15,65.06,37.15,0,0,5.64-1.26,12-.62,9.43.96,9.2,14.82-.25,15.56Z" style="fill:url(#uuid-986383f7-e8e1-4867-a723-98211d045e20); stroke-width:0px;"/><path d="M1522.56,1570.81s-104.29,241.71-119.61,296.24c-15.32,54.52-18.69,99.28-18.62,103.48.1,6.58-7.55,13.49-29.98,15.23-11.58.9-17.61-3.3-20.74-7.57-2.67-3.65-3.16-8.43-1.48-12.63,5.96-14.88,24.86-62.42,31.56-83.84,8-25.57,20.61-139.61,29.28-179.59,8.67-39.98,18.62-83.4,66.61-126.42,0,0,32.36-37.05,62.98-4.91Z" style="fill:url(#uuid-2f2b7421-233b-45d4-ba83-f67b22a3af2a); stroke-width:0px;"/><path d="M1557.29,751.29s-122.68-37.74-142.87,90.22c-20.19,127.96-34.14,168.98-64.56,146.92,0,0,5.01,47.81,63.41,26.44,151.6-55.46,59.33-233.05,144.02-263.58Z" style="fill:url(#uuid-c6bb5860-be06-4724-b077-e20d136a8162); stroke-width:0px;"/><path d="M1531.9,961.77c-5.12-5-81.39-72.03-112.92-154.96-31.53-82.93-34.01-141.13-34.01-141.13,0,0,16.66-16.87,8.4-25.79-8.27-8.91-7.51-15.95-16.44-16.57-8.93-.62-20.05-1.71-16.15,15.14,3.9,16.85-15.93,23.38-10.98,33.17,4.92,9.75,35.7,276.13,155.69,348.73,14.65,8.86,48.54,32.28,49.12,32.54,44.51-24.17-14.46-83.09-22.7-91.14Z" style="fill:url(#uuid-6d85db86-9a81-4f85-bc42-916d47dc7ee5); stroke-width:0px;"/><path d="M1669.09,933.21c3.65-6.16,66.98-89.61,75.9-177.88,8.93-88.28-3.78-145.12-3.78-145.12,0,0-20.47-11.97-14.8-22.72,5.67-10.75,3.12-17.35,11.58-20.26,8.46-2.91,18.92-6.85,19.53,10.43.61,17.28,21.45,18.44,19.22,29.18-2.23,10.69,25.09,285.17-71.95,386.42-11.85,12.36-26.39,34.53-26.89,34.94-49.26-11.79-14.67-85.07-8.8-94.98Z" style="fill:url(#uuid-dc67cb2d-24ff-40be-9d44-d718405ebae0); stroke-width:0px;"/><path d="M1570.21,1184.36c.84-125.54-46.09-229.88-46.09-229.88,25.66-28.78,45.82-26.36,75.57-40.15,26.88-12.46,58.63-8.01,81.04,11.35,24.66,21.31,51.5,51.49,47.9,79.74-3.81,29.9-47.93,181.07-47.93,181.07,0,0-49.49,28.33-110.5-2.13Z" style="fill:url(#uuid-c3d3824d-dd37-4348-bb34-84f31a62809b); stroke-width:0px;"/><path d="M1604.24,830.13l-16.88,107.34c-1.67,10.35,23.59,16.12,33.71,13.38,16.57-4.48,21.8-10.89,28.02-24.54.63-1.39.88-2.92.98-4.45l4.79-80.81c.38-6.41-3.53-12.3-9.58-14.44l-22.02-7.78c-8.48-2.99-17.6,2.42-19.02,11.3Z" style="fill:url(#uuid-8819223f-68f6-4742-8fed-4cd4fa744677); stroke-width:0px;"/><path d="M1622.69,737.09s35.69,9.7,65.23,55.39c29.54,45.69,15.44,70.53-5.68,76.53-21.12,6-53.38,9.88-91.7-17.04-38.32-26.92-14.02-125.85,32.15-114.87Z" style="fill:url(#uuid-762abe37-df62-48b8-bc83-61a477c127f9); stroke-width:0px;"/><path d="M1609.93,822.83s-35.11-67.94,28.06-77.33l16.3,8.4s17.88-42.71-22.78-56.46c-40.66-13.75-95.26,10.75-104.54,64.28-9.29,53.53,4.68,85.41,34.98,106.33,30.3,20.92,37.66-8.43,37.66-8.43,0,0-17.8-20.99-13.47-34.09,4.32-13.1,20.12-.13,20.12-.13l3.68-2.58Z" style="fill:url(#uuid-984b29e4-06f4-4334-ace9-3bcfbd404126); stroke-width:0px;"/><path d="M1609.61,831.73s-17.84-35.03-33.05-18.07c-15.2,16.96,18.55,32.08,31.59,36.69l1.46-18.62Z" style="fill:url(#uuid-0c320a25-b380-4b4b-882d-93261a15fbb7); stroke-width:0px;"/><path d="M1729.57,672.74c21.68,8.01,46.82,7.16,74.38.09.57-.15,1.1.34,1,.91-20.34,120-42.9,235.44-73.17,321.7l-51.71-85.23c33.25-48.24,42.39-140.22,48.85-237.05.02-.33.34-.53.65-.42Z" style="fill:url(#uuid-336d8ec0-790a-4d7b-8b68-7842d97b7b27); stroke-width:0px;"/><path d="M1529.19,943.57c-60.43-48.28-96.97-127.65-121.35-216.27-19.99,19.63-41.94,32.05-65.42,37.65,52.93,126.33,110.79,232.27,181.69,284.39l5.07-105.77Z" style="fill:url(#uuid-39b23c9c-4d1f-413f-a54b-d15642b0da4e); stroke-width:0px;"/><path d="M1746.31,1741.3c-163.79,14.13-259.62,24.08-379.43-89.57-7.75-7.35-10.81-18.4-7.88-28.68l165.12-579.25c4.03-55.62-32.94-101.89,48.59-122.6,14.3,28.46,23.31,51.7,50.26,78.65,20.44-30.22,28.52-65.74,35.23-89.65l26.55-.44,38.84,60c6.5,10.04,9.31,22.03,7.88,33.9-15.59,129.8,11.56,430.42,36.23,712.19,1.13,12.93-8.46,24.32-21.39,25.44Z" style="fill:url(#uuid-ae54ac0c-0175-4eae-9912-d3e110194498); stroke-width:0px;"/><path d="M1627.55,1038.49c-33.19-36.06-58.99-73.58-72.91-111.55l11.07-3.81c15.88,35.92,34.02,67.7,59.83,94.75,18.7-32.62,31.65-66.8,42.62-106.56l11.91-1.11c-10.85,45.9-29.64,89.59-52.53,128.28Z" style="fill:url(#uuid-8e288eec-aaeb-4847-836a-c163dd2ba5bf); stroke-width:0px;"/><path d="M562.79,2411.17c-40.82-88.24-105.02-148.44-188.18-185.9-7.05-3.18-14,4.65-10.07,11.31l26.42,44.66c3.12,5.28.22,12.07-5.75,13.46l-50.49,11.77c-7.33,1.71-7.12,12.21.27,13.64,88.2,17,159.96,54.72,211.45,113.81l16.35-22.75Z" style="fill:#91b3fa; stroke-width:0px;"/><path d="M625.46,2402.48c-46.25-51.84-15.94-165.78,5.79-259.08,1.66-7.14-7.8-11.3-11.97-5.27l-41.78,60.52c-3.56,5.16-11.32,4.7-14.25-.84l-27.59-52.19c-4.07-7.69-15.67-5.34-16.43,3.33-8.59,98.38,2.35,184,50.54,245.31l55.68,8.23Z" style="fill:#91b3fa; stroke-width:0px;"/><path d="M181.79,2368.2l2093.89,137.9c69.88,12.88,98.89,260.8-12.03,275l-2071.96-20.78c-104.26-127.02-99.82-351.05-9.9-392.13Z" style="fill:url(#uuid-700f7a2a-0a58-45c9-98fb-8d275c0e53a5); stroke-width:0px;"/><path d="M531.19,2390.61c-68.22,24.4-116.46,271.09-1.41,373.84l111.73.39c-101.23-106.83-106.16-288.55-2.8-366.54l-107.52-7.68Z" style="fill:#bdd0fb; stroke-width:0px;"/></svg>