<?xml version="1.0" encoding="UTF-8"?><svg id="uuid-09ed35a5-5491-42bc-b8f0-12b8368d8e83" xmlns="http://www.w3.org/2000/svg" xmlns:xlink="http://www.w3.org/1999/xlink" viewBox="0 0 2834.08 2740.36"><defs><linearGradient id="uuid-2fe3047b-e278-48d3-8634-4801c292a1a2" x1="1622.07" y1="1912.18" x2="2112.17" y2="863.91" gradientUnits="userSpaceOnUse"><stop offset="0" stop-color="#09005d"/><stop offset="1" stop-color="#1a0f91"/></linearGradient><linearGradient id="uuid-3404ebba-ba04-4fed-88be-21c61f0ca13f" x1="1409.54" y1="19.48" x2="1409.54" y2="1129.01" xlink:href="#uuid-2fe3047b-e278-48d3-8634-4801c292a1a2"/><linearGradient id="uuid-8501bb17-53ca-4ff2-9dca-34b79e07246e" x1="1718.63" y1="3732.08" x2="1548.46" y2="2901.64" xlink:href="#uuid-2fe3047b-e278-48d3-8634-4801c292a1a2"/><linearGradient id="uuid-8029ea72-fb71-4d2e-af67-7538e69c37d8" x1="445.6" y1="-555.35" x2="-270.14" y2="1228.34" gradientTransform="translate(2030.08 299.17) rotate(-16.79)" gradientUnits="userSpaceOnUse"><stop offset="0" stop-color="#4042e2"/><stop offset="1" stop-color="#4f52ff"/></linearGradient><linearGradient id="uuid-74c581c3-9d1f-42f1-bbf2-2cb47474272b" x1="40.82" y1="-717.77" x2="-674.9" y2="1065.87" xlink:href="#uuid-8029ea72-fb71-4d2e-af67-7538e69c37d8"/><linearGradient id="uuid-fb8e54c9-f6ac-44ee-bf6e-c44843fe1098" x1="-73.4" y1="-763.62" x2="-789.13" y2="1020.04" xlink:href="#uuid-8029ea72-fb71-4d2e-af67-7538e69c37d8"/><linearGradient id="uuid-64b6228f-7194-4fc8-b6ac-ed156ce3282d" x1="-21.05" y1="-742.6" x2="-736.78" y2="1041.04" xlink:href="#uuid-8029ea72-fb71-4d2e-af67-7538e69c37d8"/><linearGradient id="uuid-c813700d-336e-48aa-b8a4-492ec7dbcdd5" x1="330.49" y1="-601.53" x2="-385.23" y2="1182.09" xlink:href="#uuid-8029ea72-fb71-4d2e-af67-7538e69c37d8"/><linearGradient id="uuid-af33fe80-7118-4a1a-912b-2b995ad9fe92" x1="-59.75" y1="-758.14" x2="-775.48" y2="1025.52" xlink:href="#uuid-8029ea72-fb71-4d2e-af67-7538e69c37d8"/><linearGradient id="uuid-5d421809-25bc-4e7b-a552-fefbcbc305bb" x1="-60.58" y1="-758.48" x2="-776.32" y2="1025.18" xlink:href="#uuid-8029ea72-fb71-4d2e-af67-7538e69c37d8"/><linearGradient id="uuid-0410783c-6a26-4dd7-9d19-3bfe51f4074f" x1="122.84" y1="-684.86" x2="-592.88" y2="1098.78" xlink:href="#uuid-8029ea72-fb71-4d2e-af67-7538e69c37d8"/><linearGradient id="uuid-43c511ba-de05-4b27-b163-325c82f3f560" x1="221.07" y1="-645.44" x2="-494.65" y2="1138.19" xlink:href="#uuid-8029ea72-fb71-4d2e-af67-7538e69c37d8"/><linearGradient id="uuid-99a37e60-e895-4406-b37c-aadd7a286271" x1="-22.87" y1="-743.35" x2="-738.61" y2="1040.32" xlink:href="#uuid-8029ea72-fb71-4d2e-af67-7538e69c37d8"/><linearGradient id="uuid-1ca4921f-e3bd-4e6f-8d2b-fb48e9089511" x1="549.89" y1="-513.49" x2="-165.85" y2="1270.19" xlink:href="#uuid-8029ea72-fb71-4d2e-af67-7538e69c37d8"/><linearGradient id="uuid-7a848ea3-052b-40d4-91b8-c0bed20a75b0" x1="418.08" y1="-566.43" x2="-297.68" y2="1217.27" xlink:href="#uuid-8029ea72-fb71-4d2e-af67-7538e69c37d8"/><linearGradient id="uuid-a5790638-9833-4aae-9b7d-2b8314d4107a" x1="922.81" y1="-341.55" x2="207.07" y2="1442.11" xlink:href="#uuid-8029ea72-fb71-4d2e-af67-7538e69c37d8"/><linearGradient id="uuid-e749f2e8-9621-4195-b4af-be46566f6602" x1="996.85" y1="-311.84" x2="281.12" y2="1471.82" xlink:href="#uuid-8029ea72-fb71-4d2e-af67-7538e69c37d8"/><linearGradient id="uuid-834b11b8-c59f-4ff2-8a0f-e26575167ece" x1="1000.54" y1="-310.35" x2="284.81" y2="1473.3" xlink:href="#uuid-8029ea72-fb71-4d2e-af67-7538e69c37d8"/><linearGradient id="uuid-56c583ef-2c63-48cb-8aca-45f25a636d24" x1="933.7" y1="-337.17" x2="217.97" y2="1446.47" xlink:href="#uuid-8029ea72-fb71-4d2e-af67-7538e69c37d8"/><linearGradient id="uuid-f8b21a08-3d3a-4de7-8979-b22e6121d496" x1="781.12" y1="-398.38" x2="65.4" y2="1385.25" xlink:href="#uuid-8029ea72-fb71-4d2e-af67-7538e69c37d8"/><linearGradient id="uuid-71283475-e0ce-476d-80eb-b4d385351387" x1="866.67" y1="-364.07" x2="150.94" y2="1419.57" xlink:href="#uuid-8029ea72-fb71-4d2e-af67-7538e69c37d8"/><linearGradient id="uuid-0ef31bbb-ded7-4c02-898e-d125f64412e8" x1="979.08" y1="-318.96" x2="263.35" y2="1464.69" xlink:href="#uuid-8029ea72-fb71-4d2e-af67-7538e69c37d8"/><linearGradient id="uuid-dc826969-66a3-405f-a6d2-3d0eae2f4f5a" x1="571.54" y1="-482.47" x2="-144.18" y2="1301.14" xlink:href="#uuid-8029ea72-fb71-4d2e-af67-7538e69c37d8"/><linearGradient id="uuid-fb6a60fc-d930-4d0c-a929-b5852fc68fc1" x1="681.09" y1="-438.52" x2="-34.63" y2="1345.1" xlink:href="#uuid-8029ea72-fb71-4d2e-af67-7538e69c37d8"/><linearGradient id="uuid-ed424290-861f-452c-821a-4a431fa651a5" x1="968.33" y1="-323.29" x2="252.59" y2="1460.38" xlink:href="#uuid-8029ea72-fb71-4d2e-af67-7538e69c37d8"/><linearGradient id="uuid-17aa13de-6c6e-47f6-965b-abf9cd927d3a" x1="315.93" y1="-607.4" x2="-399.82" y2="1176.28" xlink:href="#uuid-8029ea72-fb71-4d2e-af67-7538e69c37d8"/><linearGradient id="uuid-a2936c3e-e9ac-4d30-b417-213b40fd568f" x1="1230" y1="3191.27" x2="1342.32" y2="2234.85" gradientTransform="translate(836.92 265.47) rotate(11.18)" xlink:href="#uuid-2fe3047b-e278-48d3-8634-4801c292a1a2"/><linearGradient id="uuid-a8159c31-0350-4d60-a5cc-18582f6009a8" x1="2193.7" y1="645.97" x2="2372.04" y2="645.97" gradientTransform="matrix(1,0,0,1,0,0)" xlink:href="#uuid-8029ea72-fb71-4d2e-af67-7538e69c37d8"/><linearGradient id="uuid-1679f66e-7620-4dc4-9751-8e7a26d52bbc" x1="2265.6" y1="609.27" x2="2518.22" y2="609.27" gradientTransform="matrix(1,0,0,1,0,0)" xlink:href="#uuid-8029ea72-fb71-4d2e-af67-7538e69c37d8"/><linearGradient id="uuid-135f327a-e29a-485e-9b42-0b321b6afbd5" x1="887.26" y1="3151.03" x2="999.58" y2="2194.6" gradientTransform="translate(836.92 265.47) rotate(11.18)" xlink:href="#uuid-2fe3047b-e278-48d3-8634-4801c292a1a2"/><linearGradient id="uuid-90aa422a-1e0d-4bd3-92c8-028437a636a1" x1="2094.36" y1="510.95" x2="2290.99" y2="510.95" gradientTransform="matrix(1,0,0,1,0,0)" xlink:href="#uuid-8029ea72-fb71-4d2e-af67-7538e69c37d8"/><linearGradient id="uuid-6c0755c0-153b-4699-8225-740be315204f" x1="1951.89" y1="491.77" x2="2334.46" y2="491.77" gradientTransform="matrix(1,0,0,1,0,0)" xlink:href="#uuid-8029ea72-fb71-4d2e-af67-7538e69c37d8"/><linearGradient id="uuid-4f4739fa-1f92-42ef-8a22-40d2e4ab8aea" x1="610.61" y1="-360.36" x2="354.91" y2="634.5" gradientTransform="translate(357.1 -211.98) rotate(45)" gradientUnits="userSpaceOnUse"><stop offset="0" stop-color="#fe7062"/><stop offset="1" stop-color="#ff928e"/></linearGradient><linearGradient id="uuid-fc607c3e-55bb-4008-8dda-049f0325ab38" x1="1338.11" y1="-834.19" x2="939.18" y2="-351.89" gradientUnits="userSpaceOnUse"><stop offset="0" stop-color="#e1473d"/><stop offset="1" stop-color="#e9605a"/></linearGradient><linearGradient id="uuid-449be453-2a84-486e-8484-03cdb0dd3cc1" x1="1428.6" y1="-759.33" x2="1029.67" y2="-277.04" xlink:href="#uuid-fc607c3e-55bb-4008-8dda-049f0325ab38"/><linearGradient id="uuid-88a3d51f-a952-4021-bed9-3cda2b898387" x1="1278.48" y1="220.02" x2="1525.92" y2="1620.25" xlink:href="#uuid-2fe3047b-e278-48d3-8634-4801c292a1a2"/><linearGradient id="uuid-72d7cb5f-1ea8-4b97-8b82-4d9b8f192e86" x1="1930.54" y1="404.49" x2="650.11" y2="3370.01" gradientTransform="matrix(1,0,0,1,0,0)" xlink:href="#uuid-4f4739fa-1f92-42ef-8a22-40d2e4ab8aea"/><linearGradient id="uuid-89a080e1-d23a-402e-86aa-84969e4956fc" x1="1134.45" y1="1302.2" x2="1788.35" y2="-287.81" xlink:href="#uuid-2fe3047b-e278-48d3-8634-4801c292a1a2"/><linearGradient id="uuid-90caca94-029e-4664-bf56-39674274fbcd" x1="1303" y1="1371.51" x2="1956.9" y2="-218.5" xlink:href="#uuid-2fe3047b-e278-48d3-8634-4801c292a1a2"/><linearGradient id="uuid-8bdf2dba-6699-4689-bd52-967f991fa20c" x1="1509.15" y1="1456.29" x2="2163.05" y2="-133.72" xlink:href="#uuid-2fe3047b-e278-48d3-8634-4801c292a1a2"/><linearGradient id="uuid-7d8f6d79-6391-48fb-81ab-1c1fa9ec4fc8" x1="1164.1" y1="1314.39" x2="1818" y2="-275.62" xlink:href="#uuid-2fe3047b-e278-48d3-8634-4801c292a1a2"/><linearGradient id="uuid-69f92769-0f68-4965-a1fe-3d42e018179b" x1="1280.53" y1="1362.27" x2="1934.43" y2="-227.74" xlink:href="#uuid-2fe3047b-e278-48d3-8634-4801c292a1a2"/><linearGradient id="uuid-f34f3396-6f9d-4fc7-a04b-6abca32e888f" x1="1398.56" y1="1410.81" x2="2052.47" y2="-179.2" xlink:href="#uuid-2fe3047b-e278-48d3-8634-4801c292a1a2"/><linearGradient id="uuid-1d1c9a5a-851f-414d-bcf3-2b23e0ff52c2" x1="1518.27" y1="1460.04" x2="2172.16" y2="-129.94" xlink:href="#uuid-2fe3047b-e278-48d3-8634-4801c292a1a2"/><linearGradient id="uuid-2cb04aa3-0fd7-440c-9480-cb78b8a43ab9" x1="1650.78" y1="1514.54" x2="2304.68" y2="-75.48" xlink:href="#uuid-2fe3047b-e278-48d3-8634-4801c292a1a2"/><linearGradient id="uuid-664dcc01-d25c-4945-a83d-4487902953c9" x1="3223.51" y1="2562.24" x2="2523.93" y2="3323.19" gradientTransform="translate(-2400.04)" xlink:href="#uuid-2fe3047b-e278-48d3-8634-4801c292a1a2"/><linearGradient id="uuid-243ffc66-4b7c-420b-8009-a3246099a125" x1="2996.44" y1="2618.76" x2="3058.58" y2="2618.76" gradientTransform="translate(-2400.04)" gradientUnits="userSpaceOnUse"><stop offset="0" stop-color="#febbba"/><stop offset="1" stop-color="#ff928e"/></linearGradient><linearGradient id="uuid-42e5ef8c-8f72-4786-83dd-54d4a627cde5" x1="-683.43" y1="6404.19" x2="-13.6" y2="5619.12" gradientTransform="translate(-2400.04)" gradientUnits="userSpaceOnUse"><stop offset="0" stop-color="#020039"/><stop offset="1" stop-color="#090056"/></linearGradient><linearGradient id="uuid-db473a34-46a0-4f39-83f9-2ccfb4964ff2" x1="3066.57" y1="2417.96" x2="2366.99" y2="3178.91" gradientTransform="translate(-2400.04)" xlink:href="#uuid-2fe3047b-e278-48d3-8634-4801c292a1a2"/><linearGradient id="uuid-53ab341e-4b7c-425a-bf03-ae05ecdf7c91" x1="2772.48" y1="2615.57" x2="2826.14" y2="2615.57" xlink:href="#uuid-243ffc66-4b7c-420b-8009-a3246099a125"/><linearGradient id="uuid-9ceef875-4654-4754-bdc0-a0dd8b226f1c" x1="-777.34" y1="6324.06" x2="-107.52" y2="5539" xlink:href="#uuid-42e5ef8c-8f72-4786-83dd-54d4a627cde5"/><linearGradient id="uuid-62d9b9d6-de5c-4b7f-93c7-c23b119d2a5d" x1="819.08" y1="965.7" x2="577.43" y2="1646.39" gradientUnits="userSpaceOnUse"><stop offset="0" stop-color="#4f52ff"/><stop offset="1" stop-color="#4042e2"/></linearGradient><linearGradient id="uuid-71bf9d92-c83b-4205-85ff-bc89b07d445a" x1="-9986.31" y1="2604.42" x2="-10683.23" y2="3496.06" gradientTransform="translate(1250.05 -9540.14) rotate(-71.74)" xlink:href="#uuid-243ffc66-4b7c-420b-8009-a3246099a125"/><linearGradient id="uuid-bf874e7f-6e06-44c1-8074-7d37a2a75340" x1="-9891.44" y1="2678.57" x2="-10588.35" y2="3570.21" gradientTransform="translate(1250.05 -9540.14) rotate(-71.74)" xlink:href="#uuid-243ffc66-4b7c-420b-8009-a3246099a125"/><linearGradient id="uuid-b57ac40f-2a3b-47bb-a6e2-b70eb4861d50" x1="612.31" y1="892.29" x2="370.66" y2="1572.99" xlink:href="#uuid-62d9b9d6-de5c-4b7f-93c7-c23b119d2a5d"/><linearGradient id="uuid-a101de48-4865-43b7-9ff4-8251ac1d03ec" x1="330.59" y1="792.28" x2="88.94" y2="1472.98" xlink:href="#uuid-62d9b9d6-de5c-4b7f-93c7-c23b119d2a5d"/><linearGradient id="uuid-34419843-41af-4623-84e1-5332626754dc" x1="-5652.81" y1="1696.2" x2="-5772.68" y2="2214.19" gradientTransform="translate(6465.43 715.24) rotate(15.02)" xlink:href="#uuid-243ffc66-4b7c-420b-8009-a3246099a125"/><linearGradient id="uuid-e0bf1ad0-f325-4c8d-a474-6231b58675e7" x1="-1732.17" y1="1442.8" x2="-2170.16" y2="1655.66" gradientTransform="translate(-1881.92 25.16) rotate(160.92) scale(1 -1)" xlink:href="#uuid-243ffc66-4b7c-420b-8009-a3246099a125"/><linearGradient id="uuid-16710c02-cb37-4d86-b0da-d5cf87f433c3" x1="-5675.52" y1="-4687.78" x2="-5434.16" y2="-4687.78" gradientTransform="translate(7765.96 1933.14) rotate(-31.72)" xlink:href="#uuid-2fe3047b-e278-48d3-8634-4801c292a1a2"/><linearGradient id="uuid-0a7466a4-00a4-4217-9203-9d2f2a3c8cd4" x1="-1708.52" y1="1491.44" x2="-2146.52" y2="1704.3" gradientTransform="translate(-1881.92 25.16) rotate(160.92) scale(1 -1)" xlink:href="#uuid-243ffc66-4b7c-420b-8009-a3246099a125"/><linearGradient id="uuid-ca2b622f-9a44-4611-bb12-1acd9d014c5c" x1="-1959.07" y1="1790.15" x2="-1571.73" y2="2058.73" gradientTransform="translate(-1435.62 -1039.94) rotate(-179.4) scale(1 -1)" xlink:href="#uuid-243ffc66-4b7c-420b-8009-a3246099a125"/><linearGradient id="uuid-345124e4-d99f-426c-a5d4-016dbc20d385" x1="-1951.19" y1="1782.37" x2="-1548.24" y2="2061.77" gradientTransform="translate(-1435.62 -1039.94) rotate(-179.4) scale(1 -1)" xlink:href="#uuid-243ffc66-4b7c-420b-8009-a3246099a125"/><linearGradient id="uuid-9ddaab8f-5042-49ef-9488-7c5fd3a6cf44" x1="235.7" y1="758.6" x2="-5.94" y2="1439.29" xlink:href="#uuid-62d9b9d6-de5c-4b7f-93c7-c23b119d2a5d"/></defs><path d="M1153.34,2510.93c-17.83-321.26-136.97-614.32-559.95-822.81,0,0-65.65,788.07,559.95,822.81Z" style="fill:#bdd0fb; stroke-width:0px;"/><path d="M1037.19,2371.46c-.86,0-1.71-.32-2.38-.97-239.24-233.5-388.72-576.05-390.2-579.49-.74-1.72.05-3.73,1.77-4.47,1.72-.74,3.73.05,4.47,1.77,1.48,3.42,150.44,344.78,388.7,577.31,1.35,1.31,1.37,3.47.06,4.81-.67.68-1.55,1.03-2.44,1.03Z" style="fill:#fff; opacity:.51; stroke-width:0px;"/><path d="M1890.72,2490.87c288.89,26.66,566.04-40.78,808.03-390.4,0,0-694.17-162.95-808.03,390.4Z" style="fill:#bdd0fb; stroke-width:0px;"/><path d="M2054.63,2396.49c-.78,0-1.56-.27-2.2-.81-1.44-1.22-1.61-3.36-.4-4.8,86.36-101.8,227.76-166.48,331.17-202.82,111.89-39.32,204.68-54.85,205.61-55,1.87-.33,3.61.95,3.91,2.8.31,1.85-.95,3.61-2.8,3.91-3.68.61-369.2,62.78-532.7,255.51-.67.79-1.63,1.2-2.6,1.2Z" style="fill:#fff; opacity:.51; stroke-width:0px;"/><polygon points="1186.83 1882.04 1126.09 2426.8 1830.8 2426.8 1739.01 1882.04 1186.83 1882.04" style="fill:url(#uuid-2fe3047b-e278-48d3-8634-4801c292a1a2); stroke-width:0px;"/><path d="M3.05,539.88v1247.63c0,102.63,81.79,186.57,184.39,189.21,455.7,11.75,2049.5,40.24,2483.29,33.85,74.56-1.1,134.96-60.76,137.11-135.3,8.36-289.84,21.95-986.81-28.32-1310.39-10.59-68.14-68.1-119.1-137.03-121.3-381.82-12.21-2071.35-51-2504.94-41.26-74.78,1.68-134.49,62.76-134.49,137.56Z" style="fill:url(#uuid-3404ebba-ba04-4fed-88be-21c61f0ca13f); stroke-width:0px;"/><path d="M81.34,533.81v1185.34c0,59.92,48.1,108.75,108.02,109.65l2418.97,29.89c59.4.89,108.1-46.9,108.32-106.31l4.05-1174.75c.16-42.48-33.68-77.29-76.15-78.32L167.96,449.26c-47.5-1.16-86.63,37.03-86.63,84.54Z" style="fill:#91b3fa; stroke-width:0px;"/><path d="M2734.85,1907.3h-.06l-2653.52-45.21c-1.88-.03-3.38-1.58-3.35-3.46.04-1.88,1.74-3.38,3.46-3.35l2653.52,45.21c1.88.03,3.38,1.58,3.35,3.46-.03,1.86-1.55,3.35-3.4,3.35Z" style="fill:#fff; opacity:.65; stroke-width:0px;"/><path d="M1434.27,1962.52c-17.1,0-31.01-13.91-31.01-31.01s13.91-31.01,31.01-31.01,31.01,13.91,31.01,31.01-13.91,31.01-31.01,31.01ZM1434.27,1907.3c-13.35,0-24.21,10.86-24.21,24.21s10.86,24.21,24.21,24.21,24.21-10.86,24.21-24.21-10.86-24.21-24.21-24.21Z" style="fill:#fff; opacity:.65; stroke-width:0px;"/><path d="M1848.22,2505.99c309.88-153.83,548.93-395.81,575.6-902.15,0,0-806.53,269.27-575.6,902.15Z" style="fill:#7d97f4; stroke-width:0px;"/><path d="M1898.34,2391.69c-.37,0-.75-.06-1.13-.19-1.77-.62-2.71-2.56-2.08-4.34,73.97-210.87,183.9-373.45,263.09-472.71,85.83-107.58,155.15-166.12,155.85-166.69,1.45-1.2,3.59-1.01,4.8.42,1.21,1.44,1.02,3.59-.42,4.8-2.74,2.3-275.97,234.73-416.89,636.44-.49,1.4-1.8,2.28-3.21,2.28Z" style="fill:#fff; opacity:.51; stroke-width:0px;"/><path d="M1982.59,2538.25H951.21c-28.02,0-49.06-19.95-43.64-41.37l13.23-52.34c3.98-15.74,21.3-27.3,41.86-27.94l994.29-31.03c21.49-.67,40.51,10.74,45.2,27.09l23.86,83.37c6.2,21.66-14.94,42.22-43.42,42.22Z" style="fill:url(#uuid-8501bb17-53ca-4ff2-9dca-34b79e07246e); stroke-width:0px;"/><path d="M1506.42,2430.82c-1.86,0-3.38-1.49-3.4-3.35-.03-1.88,1.48-3.43,3.35-3.45l42.61-.62h.05c1.86,0,3.38,1.49,3.4,3.35.03,1.88-1.48,3.43-3.35,3.45l-42.61.62h-.05Z" style="fill:#fff; stroke-width:0px;"/><path d="M945.75,2509.44c-.18,0-.36-.01-.54-.04-1.86-.3-3.12-2.04-2.83-3.9l6.08-38.07c3.27-20.48,20.69-35.56,41.42-35.87l451.91-6.61h.05c1.86,0,3.38,1.49,3.4,3.35.03,1.88-1.48,3.43-3.35,3.45l-451.91,6.61c-17.42.26-32.05,12.93-34.8,30.13l-6.08,38.07c-.27,1.68-1.71,2.87-3.36,2.87Z" style="fill:#fff; stroke-width:0px;"/><path d="M2238.33,28.66c15.42.73,30.98,2.14,46.25,4.19,2.09.28,4.14.1,6.04-.48,5.22-1.57,9.3-6.07,10.07-11.82,1.06-7.85-4.45-15.07-12.3-16.12-16.08-2.16-32.47-3.64-48.71-4.41-7.91-.37-14.63,5.73-15,13.64-.38,7.91,5.73,14.62,13.64,15Z" style="fill:url(#uuid-8029ea72-fb71-4d2e-af67-7538e69c37d8); stroke-width:0px;"/><path d="M1836.66,158.71c-5.48-5.72-14.55-5.91-20.27-.43-11.72,11.23-23.1,23.11-33.82,35.29-5.23,5.95-4.65,15,1.3,20.23,3.86,3.4,9.04,4.34,13.62,2.96,2.48-.75,4.78-2.17,6.61-4.25,10.18-11.58,20.99-22.86,32.13-33.53,5.72-5.48,5.91-14.56.43-20.27Z" style="fill:url(#uuid-74c581c3-9d1f-42f1-bbf2-2cb47474272b); stroke-width:0px;"/><path d="M1660.85,482.72c-7.84-1.06-15.07,4.43-16.14,12.27-2.19,16.09-3.7,32.47-4.5,48.68-.39,7.91,5.71,14.63,13.61,15.03,1.69.08,3.32-.13,4.85-.59,5.64-1.7,9.87-6.8,10.18-13.03.76-15.4,2.2-30.95,4.27-46.23,1.07-7.84-4.43-15.07-12.27-16.14Z" style="fill:url(#uuid-fb8e54c9-f6ac-44ee-bf6e-c44843fe1098); stroke-width:0px;"/><path d="M1754.24,252.59c-6.61-4.36-15.51-2.54-19.86,4.08-8.95,13.57-17.42,27.67-25.16,41.9-3.79,6.95-1.22,15.66,5.74,19.45,3.5,1.91,7.45,2.2,10.99,1.14,3.48-1.05,6.57-3.42,8.45-6.87,7.36-13.52,15.41-26.92,23.92-39.82,4.36-6.61,2.53-15.5-4.08-19.86Z" style="fill:url(#uuid-64b6228f-7194-4fc8-b6ac-ed156ce3282d); stroke-width:0px;"/><path d="M2116.88,36.6c15.2-2.72,30.69-4.82,46.04-6.24.98-.09,1.92-.28,2.83-.56,6.39-1.93,10.76-8.14,10.12-15.04-.73-7.88-7.71-13.68-15.6-12.96-16.15,1.5-32.45,3.71-48.44,6.57-7.81,1.36-12.98,8.85-11.59,16.64,1.4,7.79,8.84,12.98,16.64,11.59Z" style="fill:url(#uuid-c813700d-336e-48aa-b8a4-492ec7dbcdd5); stroke-width:0px;"/><path d="M1694.63,362.4c-7.41-2.78-15.68.96-18.47,8.36-5.72,15.19-10.86,30.82-15.27,46.45-2.15,7.62,2.29,15.54,9.91,17.69,2.73.77,5.49.7,8.02-.07,4.53-1.37,8.29-4.95,9.67-9.84,4.18-14.86,9.06-29.7,14.5-44.13,2.79-7.41-.95-15.68-8.36-18.47Z" style="fill:url(#uuid-af33fe80-7118-4a1a-912b-2b995ad9fe92); stroke-width:0px;"/><path d="M1654.83,607.5c-7.91.74-13.7,7.69-12.99,15.58,1.46,16.12,3.64,32.42,6.47,48.43,1.38,7.8,8.82,13,16.62,11.62.56-.1,1.12-.23,1.66-.39,6.86-2.07,11.24-8.99,9.96-16.22-2.7-15.22-4.77-30.7-6.15-46.02-.71-7.88-7.68-13.7-15.57-12.99Z" style="fill:url(#uuid-5d421809-25bc-4e7b-a552-fefbcbc305bb); stroke-width:0px;"/><path d="M1889.89,132.85c1.48-.45,2.92-1.15,4.25-2.1,12.5-9.02,25.54-17.6,38.77-25.51,6.8-4.07,9.01-12.87,4.95-19.67-4.07-6.8-12.85-8.97-19.67-4.94-13.93,8.33-27.66,17.37-40.82,26.87-6.42,4.63-7.87,13.59-3.24,20.02,3.67,5.09,10.07,7.06,15.77,5.34Z" style="fill:url(#uuid-0410783c-6a26-4dd7-9d19-3bfe51f4074f); stroke-width:0px;"/><path d="M1998.71,71.67c.49-.15.97-.32,1.45-.52,14.19-5.99,28.83-11.44,43.51-16.21,7.53-2.44,11.66-10.53,9.21-18.06-2.41-7.43-10.32-11.55-17.77-9.3-.1.03-.2.06-.29.09-15.46,5.01-30.87,10.76-45.8,17.06-7.3,3.08-10.71,11.49-7.64,18.79,2.87,6.81,10.41,10.24,17.33,8.16Z" style="fill:url(#uuid-43c511ba-de05-4b27-b163-325c82f3f560); stroke-width:0px;"/><path d="M1694.69,739.54c-2.4-7.45-10.38-11.76-17.84-9.52-.09.03-.18.05-.27.08-7.58,2.29-11.62,10.7-9.18,18.24,5,15.49,10.84,31.35,17.11,46.29,2.86,6.83,10.37,10.15,17.31,8.06.48-.14.88-.54,1.35-.74,7.3-3.06,10.75-11.43,7.69-18.73-5.95-14.19-11.42-28.97-16.16-43.68Z" style="fill:url(#uuid-99a37e60-e895-4406-b37c-aadd7a286271); stroke-width:0px;"/><path d="M2398.29,45.46c2.45-7.52-1.67-15.62-9.2-18.07-7.4-2.41-14.96-4.7-22.49-6.82-7.62-2.16-15.54,2.3-17.68,9.92-2.14,7.62,2.3,15.54,9.92,17.68,7.16,2.02,14.35,4.19,21.38,6.48,2.89.94,5.86.91,8.56.1,4.34-1.31,8-4.65,9.51-9.3Z" style="fill:url(#uuid-1ca4921f-e3bd-4e6f-8d2b-fb48e9089511); stroke-width:0px;"/><path d="M2159.1,1113.65c-15.11-1.48-30.33-3.63-45.24-6.38-7.8-1.44-15.26,3.71-16.7,11.5-1.44,7.79,3.71,15.26,11.5,16.7,15.71,2.9,31.74,5.16,47.64,6.72,1.92.19,3.79,0,5.54-.53,5.4-1.63,9.55-6.38,10.13-12.33.77-7.88-4.99-14.9-12.87-15.67Z" style="fill:url(#uuid-7a848ea3-052b-40d4-91b8-c0bed20a75b0); stroke-width:0px;"/><path d="M2750.63,359.28c3.12,6.42,10.4,9.47,17.02,7.47.72-.22,1.44-.49,2.14-.83,7.12-3.46,10.1-12.03,6.64-19.16-3.4-7-7-14.05-10.71-20.95-3.75-6.97-12.41-9.61-19.42-5.84-6.97,3.75-9.59,12.44-5.84,19.42,3.52,6.55,6.94,13.24,10.17,19.89Z" style="fill:url(#uuid-a5790638-9833-4aae-9b7d-2b8314d4107a); stroke-width:0px;"/><path d="M2815.79,529.71c-7.86.77-13.65,7.77-12.88,15.66,1.47,15.12,2.31,30.46,2.5,45.61.1,7.91,6.6,14.25,14.51,14.15,1.38-.02,2.71-.23,3.97-.6,5.96-1.8,10.27-7.37,10.19-13.91-.2-15.95-1.08-32.1-2.63-48.02-.77-7.88-7.78-13.65-15.66-12.88Z" style="fill:url(#uuid-e749f2e8-9621-4195-b4af-be46566f6602); stroke-width:0px;"/><path d="M2817.24,652.67c-7.84-.99-15.02,4.58-16.01,12.44-1.89,15.04-4.45,30.2-7.62,45.06-1.65,7.74,3.29,15.36,11.04,17,2.45.52,4.88.38,7.11-.29,4.84-1.46,8.77-5.45,9.9-10.75,3.33-15.64,6.03-31.6,8.02-47.45.99-7.86-4.58-15.03-12.44-16.01Z" style="fill:url(#uuid-834b11b8-c59f-4ff2-8a0f-e26575167ece); stroke-width:0px;"/><path d="M2720.45,889.06c-8.13,12.8-16.92,25.42-26.1,37.51-4.79,6.31-3.56,15.3,2.75,20.09,3.8,2.88,8.58,3.58,12.82,2.3,2.8-.84,5.36-2.55,7.26-5.05,9.67-12.73,18.91-26.01,27.47-39.48,4.24-6.69,2.27-15.54-4.41-19.79-6.69-4.25-15.55-2.28-19.79,4.41Z" style="fill:url(#uuid-56c583ef-2c63-48cb-8aca-45f25a636d24); stroke-width:0px;"/><path d="M2552.12,1057.19c-12.84,8.12-26.17,15.77-39.61,22.75-7.03,3.65-9.77,12.31-6.12,19.34,3.23,6.22,10.38,9.07,16.85,7.12.84-.25,1.67-.59,2.48-1.01,14.15-7.35,28.19-15.41,41.71-23.96,6.69-4.23,8.69-13.09,4.46-19.78-4.23-6.69-13.08-8.68-19.78-4.46Z" style="fill:url(#uuid-f8b21a08-3d3a-4de7-8979-b22e6121d496); stroke-width:0px;"/><path d="M2645.56,982.46c-10.75,10.74-22.07,21.14-33.64,30.9-6.05,5.11-6.82,14.15-1.71,20.21,3.8,4.51,9.79,6.08,15.1,4.48,1.82-.55,3.56-1.47,5.1-2.77,12.18-10.28,24.1-21.23,35.41-32.54,5.6-5.6,5.6-14.67.01-20.27-5.6-5.61-14.68-5.6-20.28,0Z" style="fill:url(#uuid-71283475-e0ce-476d-80eb-b4d385351387); stroke-width:0px;"/><path d="M2791.59,772.93c-7.46-2.69-15.67,1.17-18.36,8.61-5.15,14.26-10.97,28.49-17.31,42.3-3.3,7.2-.14,15.71,7.05,19.01,3.31,1.52,6.89,1.67,10.11.7,3.8-1.15,7.11-3.86,8.9-7.75,6.67-14.54,12.8-29.52,18.22-44.52,2.69-7.45-1.17-15.66-8.61-18.36Z" style="fill:url(#uuid-0ef31bbb-ded7-4c02-898e-d125f64412e8); stroke-width:0px;"/><path d="M2327.92,1137.2c-15.09,1.87-30.41,3.13-45.56,3.73-7.9.29-14.07,6.98-13.76,14.9.31,7.91,6.98,14.07,14.89,13.75,15.95-.63,32.08-1.96,47.95-3.93.82-.1,1.62-.27,2.39-.5,6.57-1.98,10.95-8.46,10.07-15.49-.98-7.85-8.14-13.43-15.99-12.46Z" style="fill:url(#uuid-dc826969-66a3-405f-a6d2-3d0eae2f4f5a); stroke-width:0px;"/><path d="M2444.48,1109.55c-14.2,5.06-28.84,9.58-43.67,13.52-7.62,1.99-12.21,9.88-10.18,17.54,2.03,7.65,9.88,12.21,17.54,10.18,6.43-1.71,12.8-3.51,19.11-5.41,9.01-2.72,18.04-5.68,26.82-8.81,7.46-2.65,11.36-10.85,8.7-18.32-2.66-7.46-10.85-11.34-18.31-8.7Z" style="fill:url(#uuid-fb6a60fc-d930-4d0c-a929-b5852fc68fc1); stroke-width:0px;"/><path d="M2805.66,419.24c-2.45-7.53-10.5-11.82-18.07-9.19-7.53,2.45-11.65,10.54-9.2,18.07,1.24,3.82,2.45,7.67,3.62,11.53,3.22,10.68,6.16,21.61,8.73,32.48,1.82,7.7,9.54,12.48,17.25,10.65.29-.07.58-.14.86-.23,7.2-2.17,11.55-9.6,9.8-17.02-2.7-11.44-5.79-22.94-9.18-34.17-1.23-4.07-2.5-8.11-3.8-12.13Z" style="fill:url(#uuid-ed424290-861f-452c-821a-4a431fa651a5); stroke-width:0px;"/><path d="M2041.62,1088.73c-6.99-2.32-14.08-4.83-21.05-7.46-7.41-2.8-15.68.94-18.48,8.35-2.8,7.41.94,15.68,8.35,18.48,7.34,2.77,14.79,5.41,22.16,7.85,2.91.96,5.9.94,8.63.12,4.32-1.3,7.95-4.62,9.48-9.22,2.49-7.52-1.59-15.63-9.11-18.11Z" style="fill:url(#uuid-17aa13de-6c6e-47f6-965b-abf9cd927d3a); stroke-width:0px;"/><path d="M2682,453.12l-80.71-11.38c-15.44-34.38-36.06-65.48-60.63-92.66l-104.17,20.02-79.61,86.32,70.28,152.17-177.87-5.94-103.97,77.41,14.11,136.61-109.33-21.2-37.22,36.91-21,78.54c-.74,2.76.35,5.69,2.73,7.29l81.1,54.7c2.37,1.6,5.5,1.52,7.78-.2l65.16-49.05c35.6,13.54,73.62,21.49,112.78,22.99l40.78,70.57c1.43,2.48,4.28,3.77,7.08,3.22l96.03-18.67c2.81-.55,4.96-2.81,5.36-5.64l11.38-80.71c35.76-16.06,68.02-37.68,95.96-63.56l78.79,21.07c2.76.74,5.69-.36,7.28-2.73l54.7-81.1c1.6-2.37,1.52-5.5-.2-7.78l-49.05-65.15c13.54-35.6,21.49-73.62,22.99-112.78l70.57-40.79c2.48-1.43,3.77-4.27,3.22-7.08l-18.67-96.03c-.54-2.81-2.81-4.96-5.64-5.36Z" style="fill:url(#uuid-a2936c3e-e9ac-4d30-b417-213b40fd568f); stroke-width:0px;"/><path d="M2307.41,656.69c-34.51,16.23-75.14,3.86-95.3-27.32l-18.41,13.73c23.92,35.77,68.75,51.95,109.98,39.52,4.55-1.37,9.06-3.09,13.48-5.17,29.85-14.03,49.35-41.25,54.87-71.46l-23.28-.82c-5,21.84-19.55,41.28-41.35,51.52Z" style="fill:url(#uuid-a8159c31-0350-4d60-a5cc-18582f6009a8); stroke-width:0px;"/><path d="M2507.73,516.35c-15.38-50.96-46.91-94.98-90.62-126.23l-7.84,8.5c42.24,29.82,72.69,72.07,87.48,121.07,2.27,7.52,4.17,15.2,5.69,23.01,8.66,44.56,3.79,88.66-11.74,128.06-27.92,70.82-90.28,126.42-170.4,141.98-16.13,3.14-32.57,4.56-48.86,4.23-3.16-.06-5.79,2.45-5.85,5.61-.01.62.07,1.22.24,1.78.7,2.31,2.83,4.02,5.37,4.07.97.02,1.94-.5,2.91-.5.5,0,1-.53,1.5-.53h.53c12.88,0,25.81-.51,38.6-2.57,2.59-.42,5.18-.61,7.76-1.11,8.19-1.59,16.24-3.45,24.12-5.83,53.13-16.02,98.75-49.48,130.19-96.11,36.11-53.54,49.22-117.91,36.89-181.31-1.6-8.2-3.59-16.23-5.97-24.12Z" style="fill:url(#uuid-1679f66e-7620-4dc4-9751-8e7a26d52bbc); stroke-width:0px;"/><path d="M2076.12,753.58l-13.45-130.16,103.97-77.41,173.3,5.79c2.1.07,3.54-2.1,2.66-4l-68.36-148.02,79.61-86.32,104.17-20.02c-.99-1.09-1.93-2.22-2.93-3.3l21.07-78.79c.74-2.76-.36-5.69-2.72-7.28l-81.1-54.7c-2.37-1.6-5.49-1.52-7.78.2l-65.16,49.05c-35.6-13.54-73.62-21.49-112.78-22.99l-40.79-70.57c-1.43-2.48-4.27-3.77-7.08-3.22l-96.03,18.67c-2.81.55-4.96,2.81-5.36,5.64l-11.38,80.71c-35.76,16.06-68.02,37.67-95.96,63.56l-78.79-21.07c-2.76-.74-5.69.36-7.29,2.73l-54.7,81.1c-1.6,2.37-1.52,5.49.2,7.78l49.05,65.16c-13.54,35.6-21.49,73.62-22.98,112.78l-70.57,40.79c-2.47,1.43-3.77,4.27-3.22,7.08l18.67,96.03c.55,2.81,2.81,4.96,5.64,5.36l80.71,11.38c16.06,35.76,37.68,68.02,63.56,95.96l-.07.25,37.22-36.91,102.97,19.97c3.17.61,6.03-2,5.7-5.21Z" style="fill:url(#uuid-135f327a-e29a-485e-9b42-0b321b6afbd5); stroke-width:0px;"/><path d="M2129.46,573.74c-1.82-2.82-3.54-5.73-5-8.86-17.68-37.62-1.45-82.62,36.17-100.3,3.41-1.6,6.9-2.93,10.44-4,15.39-4.64,31.8-4.23,47.2,1.32,18.95,6.83,34.1,20.63,42.66,38.86,7.43,15.82,8.8,32.93,5.18,48.78l23.28.82c3.56-19.45,1.34-40.14-7.7-59.36-11.17-23.77-30.93-41.77-55.64-50.68-24.7-8.91-51.4-7.67-75.18,3.51-49.07,23.06-70.24,81.74-47.18,130.82,2.14,4.54,4.65,8.78,7.36,12.83l18.41-13.73Z" style="fill:url(#uuid-90aa422a-1e0d-4bd3-92c8-028437a636a1); stroke-width:0px;"/><path d="M2328.91,330.56c-53.54-36.12-117.94-49.22-181.34-36.9-130.83,25.44-216.65,152.61-191.21,283.49,1.57,8.07,3.54,16.02,5.9,23.84,10.22,33.88,27.76,65.15,51.43,91.49,2.12,2.37,5.74,2.55,8.1.43,1.71-1.53,2.28-3.86,1.66-5.92-.23-.78-.64-1.53-1.22-2.18-22.55-25.1-39.25-54.88-48.98-87.15-2.25-7.45-4.13-15.03-5.62-22.72-24.23-124.66,57.42-245.78,182.14-270.03,60.39-11.74,121.74.74,172.74,35.14,1.4.94,2.75,1.94,4.13,2.91l7.84-8.5c-1.84-1.32-3.67-2.65-5.56-3.92Z" style="fill:url(#uuid-6c0755c0-153b-4699-8225-740be315204f); stroke-width:0px;"/><circle cx="434.44" cy="325.07" r="282.01" transform="translate(-102.62 402.41) rotate(-45)" style="fill:#fff; stroke-width:0px;"/><circle cx="434.44" cy="325.07" r="272.63" transform="translate(-102.62 402.41) rotate(-45)" style="fill:url(#uuid-4f4739fa-1f92-42ef-8a22-40d2e4ab8aea); stroke-width:0px;"/><path d="M659.25,214.7c.44,0,.88-.1,1.3-.31,1.42-.72,1.99-2.45,1.27-3.87-43.59-86.36-130.71-140-227.38-140-15.42,0-30.87,1.39-45.92,4.14-1.57.28-2.6,1.78-2.32,3.35.28,1.57,1.78,2.61,3.35,2.31,14.71-2.68,29.81-4.04,44.89-4.04,94.48,0,179.63,52.43,222.24,136.83.51,1,1.52,1.58,2.57,1.58Z" style="fill:#fff; opacity:.7; stroke-width:0px;"/><circle cx="428.5" cy="331.01" r="230.75" transform="translate(-108.56 399.95) rotate(-45)" style="fill:#fff; stroke-width:0px;"/><path d="M442.78,375.88l-26.11-.62c-7.28-.17-13.3-6.4-13.68-13.72l-9.56-183.98c-.2-3.79,1.17-6.92,3.77-9.48,2.6-2.56,6.2-3.39,9.97-3.13l44.97,3.13c3.69.26,7.2,1.48,9.73,4.36,2.53,2.88,3.85,6.33,3.66,10.03l-9.3,180.62c-.37,7.22-6.27,12.95-13.45,12.78Z" style="fill:url(#uuid-fc607c3e-55bb-4008-8dda-049f0325ab38); stroke-width:0px;"/><path d="M402.48,420.82c6.52-6.23,15.69-9.24,27.49-9.05,12.16.19,21.38,3.4,27.69,9.61,6.3,6.19,9.43,15.23,9.43,27.14s-3.21,20.37-9.64,26.67c-6.45,6.32-15.6,9.48-27.48,9.48s-20.79-3.27-27.38-9.81c-6.61-6.57-9.92-15.55-9.92-26.93s3.28-20.85,9.81-27.1Z" style="fill:url(#uuid-449be453-2a84-486e-8484-03cdb0dd3cc1); stroke-width:0px;"/><path d="M1463.88,202.22l-727.98,1223.18c-15.98,26.85,4.91,59.71,38.14,59.98l1443.08,11.88c33.35.27,54.87-32.45,39.16-59.57L1541.19,202.63c-16.44-28.39-60.51-28.63-77.3-.41Z" style="fill:url(#uuid-88a3d51f-a952-4021-bed9-3cda2b898387); stroke-width:0px;"/><path d="M1467.56,275.3l-661.15,1110.89c-14.52,24.39,4.46,54.23,34.64,54.48l1310.6,10.79c30.29.25,49.83-29.47,35.57-54.1L1537.77,275.67c-14.93-25.79-54.95-26-70.21-.37Z" style="fill:url(#uuid-72d7cb5f-1ea8-4b97-8b82-4d9b8f192e86); stroke-width:0px;"/><path d="M1353.92,1036.51l-32.3.42v57.68l-55.74.93v-57.88l-116.43,1.51v-41.38l119.58-181.54,52.59.06v174.94l32.3-.33v45.59ZM1265.88,991.81v-47.38c0-7.9.3-19.36.93-34.39.62-15.03,1.11-23.75,1.48-26.18h-1.48c-4.57,10.47-10.07,20.68-16.5,30.65l-49.9,77.95,65.47-.66Z" style="fill:url(#uuid-89a080e1-d23a-402e-86aa-84969e4956fc); stroke-width:0px;"/><path d="M1566.94,953.54c0,47.84-7.46,83.36-22.39,106.57-14.97,23.26-38.07,35.17-69.38,35.7-30.47.52-53.53-11.07-69.1-34.8-15.6-23.78-23.41-59.13-23.41-106.03s7.6-85,22.78-108.2c15.15-23.15,38.42-34.69,69.74-34.65,30.35.04,53.22,12.09,68.67,36.12,15.42,23.98,23.11,59.06,23.11,105.28ZM1438.48,954.55c0,33.88,2.81,58.13,8.42,72.73,5.61,14.59,15.03,21.79,28.27,21.6,12.97-.18,22.33-7.71,28.08-22.59,5.75-14.86,8.62-38.97,8.62-72.32s-2.9-57.94-8.71-72.65c-5.81-14.72-15.14-22.08-27.99-22.06-13.12.02-22.51,7.43-28.18,22.23-5.67,14.82-8.51,39.17-8.51,73.05Z" style="fill:url(#uuid-90caca94-029e-4664-bf56-39674274fbcd); stroke-width:0px;"/><path d="M1788.46,1030.86l-30.53.4v56.07l-52.67.88v-56.27l-110,1.43v-40.21l112.97-176.44,49.7.05v170.07l30.53-.31v44.32ZM1705.26,987.38v-46.06c0-7.67.29-18.82.87-33.43.58-14.61,1.05-23.09,1.4-25.44h-1.4c-4.32,10.17-9.51,20.1-15.59,29.8l-47.14,75.76,61.85-.62Z" style="fill:url(#uuid-8bdf2dba-6699-4689-bd52-967f991fa20c); stroke-width:0px;"/><path d="M1228.16,1338.59l-85.99,2.76v-153.62l85.99-1.92v26.54l-54.22,1.3v33.66l50.46-1.32v26.55l-50.46,1.41v39.54l54.22-1.65v26.75Z" style="fill:url(#uuid-7d8f6d79-6391-48fb-81ab-1c1fa9ec4fc8); stroke-width:0px;"/><path d="M1295.53,1278.06v58.38l-31.28,1v-152.44l42.95-.96c19.95-.45,34.68,2.98,44.22,10.26,9.53,7.28,14.28,18.54,14.28,33.8,0,8.91-2.36,16.89-7.09,23.96-4.73,7.07-11.43,12.7-20.11,16.88,22,33.45,36.3,55,42.95,64.73l-34.34,1.1-34.99-57.19-16.6.47ZM1295.53,1251.84l10.06-.27c9.85-.26,17.11-2.15,21.79-5.67,4.68-3.52,7.02-8.9,7.02-16.17s-2.39-12.26-7.17-15.19c-4.78-2.93-12.19-4.28-22.25-4.04l-9.46.23v41.11Z" style="fill:url(#uuid-69f92769-0f68-4965-a1fe-3d42e018179b); stroke-width:0px;"/><path d="M1435.58,1274.09v57.86l-30.73.98v-151.07l42.19-.94c19.6-.44,34.06,2.96,43.43,10.18,9.36,7.21,14.03,18.38,14.03,33.51,0,8.83-2.32,16.74-6.96,23.75-4.65,7.01-11.23,12.58-19.75,16.73,21.61,33.16,35.66,54.52,42.19,64.16l-33.73,1.08-34.37-56.69-16.3.46ZM1435.58,1248.1l9.88-.26c9.67-.26,16.81-2.13,21.41-5.61,4.6-3.48,6.89-8.82,6.89-16.03s-2.35-12.15-7.04-15.05c-4.7-2.91-11.98-4.24-21.85-4.01l-9.29.22v40.74Z" style="fill:url(#uuid-f34f3396-6f9d-4fc7-a04b-6abca32e888f); stroke-width:0px;"/><path d="M1671.34,1249.94c0,24.58-5.76,43.64-17.29,57.21-11.55,13.59-28.13,20.73-49.78,21.43-21.71.7-38.42-5.41-50.1-18.34-11.7-12.95-17.55-31.9-17.55-56.83s5.87-44.12,17.6-57.54c11.71-13.4,28.47-20.33,50.25-20.82,21.71-.48,38.28,5.73,49.73,18.62,11.43,12.87,17.14,31.63,17.14,56.27ZM1568.28,1252.74c0,16.7,3.02,29.19,9.04,37.46,6.02,8.27,15,12.21,26.95,11.85,23.9-.73,35.82-17.81,35.82-51.26s-11.86-49.99-35.63-49.43c-11.94.29-20.97,4.74-27.05,13.37-6.09,8.64-9.14,21.31-9.14,38.01Z" style="fill:url(#uuid-1d1c9a5a-851f-414d-bcf3-2b23e0ff52c2); stroke-width:0px;"/><path d="M1734.8,1265.61v56.74l-29.55.95v-148.16l40.58-.91c18.85-.42,32.77,2.92,41.78,10,9,7.08,13.5,18.03,13.5,32.87,0,8.66-2.23,16.42-6.7,23.29-4.47,6.87-10.8,12.34-19,16.4,20.79,32.53,34.31,53.5,40.59,62.96l-32.45,1.04-33.07-55.63-15.68.44ZM1734.8,1240.12l9.51-.25c9.31-.25,16.17-2.08,20.59-5.5,4.42-3.41,6.63-8.65,6.63-15.72s-2.26-11.92-6.77-14.77c-4.52-2.85-11.52-4.17-21.02-3.94l-8.94.22v39.95Z" style="fill:url(#uuid-2cb04aa3-0fd7-440c-9480-cb78b8a43ab9); stroke-width:0px;"/><path d="M602.33,2618.93s-7.24,41.02-10.8,81.62c-1.39,15.87,10.84,29.65,26.76,30.31,54.07,2.25,169.72,6.63,211.22,4.78,6.24-.28,10.32-6.67,8.01-12.47h0c-1.93-4.86-5.67-8.79-10.42-10.98l-191.04-87.8-33.73-5.45Z" style="fill:url(#uuid-664dcc01-d25c-4945-a83d-4487902953c9); stroke-width:0px;"/><path d="M596.4,2594.83l5.82,49.06s33.47,15.58,56.32-1.96l-13.86-54.67-48.28,7.58Z" style="fill:url(#uuid-243ffc66-4b7c-420b-8009-a3246099a125); stroke-width:0px;"/><path d="M600.77,1672.49c-2.51,12.81-13.5,639.33,53.47,920.1,1.09,4.58-1.23,9.3-5.59,11.08-10.27,4.2-30.41,10.27-54.54,11.08-7.47.25-14.17-4.61-16.28-11.78-19.14-65.14-110.88-391.52-122.84-703.3-13.37-348.38,0-11.86,0-11.86l7.84-215.35,137.94.03Z" style="fill:url(#uuid-42e5ef8c-8f72-4786-83dd-54d4a627cde5); stroke-width:0px;"/><path d="M382.57,2640.32s-11.53,20.71-22.7,75.73c-2.02,9.94,4.93,19.45,15.02,20.44,17.85,1.76,45.34,4.01,67.35,3.86,10.15-.07,18.07-8.91,16.85-18.98-2.44-20.08-10.04-53.03-33.51-78.71l-43.01-2.33Z" style="fill:url(#uuid-db473a34-46a0-4f39-83f9-2ccfb4964ff2); stroke-width:0px;"/><path d="M372.44,2577.22l13.6,74.19s13.45,10,40.05,2.75l-6.49-79.83-47.16,2.88Z" style="fill:url(#uuid-53ab341e-4b7c-425a-bf03-ae05ecdf7c91); stroke-width:0px;"/><path d="M335.7,1691.71c-54.77,330.56,11.88,817,34.36,912.21,1.38,5.83,6.08,10.29,11.99,11.27,10.03,1.66,26.55,3.02,42.84-1.71,5.61-1.63,9.55-6.69,9.78-12.53,3.02-76.97-2.41-549.52,48.62-736.27,2.59-9.46,8.37-17.72,16.36-23.4l99.06-70.42,7.59-113.83-270.61,34.68Z" style="fill:url(#uuid-9ceef875-4654-4754-bdc0-a0dd8b226f1c); stroke-width:0px;"/><path d="M823.35,1220.51c-8.33,59.22-17.12,72.82-23.94,73.18-21.74,1.12-17.36-132.39-96.86-199.92-50.22-42.66-118.81-46.17-172.62-41.19,25.11,90.05,50.22,180.1,75.33,270.15,10.96,26.9,58.77,135.72,166.93,168.75,22.02,6.72,54.8,16.73,85.28,3.63,60.17-25.86,88.39-131.84,61.48-264.55-12.65-4.7-30.15-9.7-95.6-10.04Z" style="fill:url(#uuid-62d9b9d6-de5c-4b7f-93c7-c23b119d2a5d); stroke-width:0px;"/><path d="M804.18,989.59l9.95,56.28c15.99,68.83,17.51,126.21,9.21,174.65,13.74.57,28.16,1.54,43.19,3.02,18.53,1.83,36.03,4.24,52.41,7.02-8.65-70-55.23-186.25-55.23-186.25-28.09-40.55-31.44-14.16-59.54-54.71Z" style="fill:url(#uuid-71bf9d92-c83b-4205-85ff-bc89b07d445a); stroke-width:0px;"/><path d="M917.98,871c-11.27-.3-22.07,4.55-29.35,13.17l-71,84.13s-12.92-2.64-14.13-27.39c-1.21-24.75-27.5-27.73-27.5-27.73,0,0,3.79,34.51,11.01,85.59,4.13,29.21,21.4,50.53,35.43,63.45l41.07-14.14c37.68-53.86,61.07-113.22,74.07-176.58l-19.59-.51Z" style="fill:url(#uuid-bf874e7f-6e06-44c1-8074-7d37a2a75340); stroke-width:0px;"/><path d="M248.8,1099.89c4.73-1.24,37.07-34.65,41.93-35.58,79.71-15.19,278.66-68.77,411.82,29.46.33,2.84.54,5.1.67,6.98,1.29,1.75,3.06,4.69,5.49,9.4,12.57,24.37,27.66,48.05,44.94,70.18-3.8,3.77-6.96,8.2-9.26,13.13-32,68.54-153.29,342.26-131.97,509.65,1.1,8.64-4.78,16.61-13.41,17.8-47.08,6.51-187.3,22.39-259.74-7.52-4.22-1.74-6.91-5.88-6.85-10.44.48-33.58-.94-179.34-54.38-355.04-1.99-6.55-3.62-13.2-4.91-19.92-.66,1.35-1.28,2.69-1.91,4.03l-22.41-232.14Z" style="fill:url(#uuid-b57ac40f-2a3b-47bb-a6e2-b70eb4861d50); stroke-width:0px;"/><path d="M370.44,1049.12c-148.64,10.87-179.71,95.81-282.43,43.88l18.19,159.07c38.09,42.07,95.6,70.72,168.07,81.46l96.17-284.4Z" style="fill:url(#uuid-a101de48-4865-43b7-9ff4-8251ac1d03ec); stroke-width:0px;"/><path d="M472.01,905.25c-25.47,50.77-36.1,102.48-39.29,150.63,5.48,2.04,78.58,52.75,127.51,3.67-10.46-33.69-8.73-84.41-6.07-136.43l-82.15-17.87Z" style="fill:url(#uuid-34419843-41af-4623-84e1-5332626754dc); stroke-width:0px;"/><path d="M604.62,771.78c1.4,2.27,37.93,174.55,37.93,174.55l-98.82,18.77-58.89-158.15s96.33-73.11,119.77-35.17Z" style="fill:url(#uuid-e0bf1ad0-f325-4c8d-a474-6231b58675e7); stroke-width:0px;"/><path d="M522.58,821.01c-2.64,3.62-3.47,8.23-2.24,12.54l24.12,84.44c.37,1.28.89,2.49,1.59,3.62,3.9,6.23,17.9,25.06,36.77,9.6,16.09-13.18,31.05-25.07,44.47-28.03,7.83-1.73,15.53,3.39,17.16,11.25,3.37,16.18,9.5,48.96,10.86,78.85.34,7.49-5.21,13.95-12.65,14.87-19.64,2.43-58.13,6.01-90.35,1.97-5.29-.66-9.77-4.17-11.69-9.15-8.46-21.9-32.4-83.18-41.83-99.44-8.75-15.1-32.01-16.53-42.71-16.34-4.06.07-7.94-1.53-10.76-4.45-8.45-8.77-21.99-28.61.97-49.89,5.71-5.29,5.94-14.32.77-20.13-9.27-10.42-17.75-27.59-.08-46.97,17.89-19.62,39.47-16.02,53.32-10.43,6.13,2.48,13.46.88,17.47-4.37,1.79-2.34,4.52-4,8.72-3.74,7.92.49,14.69-5.05,15.23-12.97.93-13.57,7.33-29.8,30.94-35.6,43.32-10.63,67.31,32.06,68.06,62.86.75,30.8-46.87,39.66-74.32,35.9-20.17-2.76-36.57,15.66-43.85,25.63Z" style="fill:url(#uuid-16710c02-cb37-4d86-b0da-d5cf87f433c3); stroke-width:0px;"/><path d="M513.61,933.56s-9.19-54.54-31.16-58.5c-21.97-3.96-44.62,12.91-24.45,44.11,25.09,38.81,55.61,14.39,55.61,14.39Z" style="fill:url(#uuid-0a7466a4-00a4-4217-9203-9d2f2a3c8cd4); stroke-width:0px;"/><path d="M477.37,737.33c3.83-.16,7.99.21,12.58,1.18,10.45,2.21,24.36,7.58,20.74,17.63-5.44,15.09-33.68.99-48.71,25.32-13.25,21.43-2.4,44.71-6.46,67.81-1.97,11.24-9.19,27.92-19.23,34.49-4.49,2.93-39.94,8.55-41.88,2.26,0,0-9.85-31.97-9.85-31.98-8.86-28.76,25.19-76.69,42.75-96.07,13.57-14.97,31.96-19.88,50.07-20.62Z" style="fill:url(#uuid-ca2b622f-9a44-4611-bb12-1acd9d014c5c); stroke-width:0px;"/><path d="M443.77,852.77l-33.91,28.23c-65.03,27.66-112.27,60.25-146.51,95.51-12.4-23.32-32.47-50.28-64.46-71.31,65.55-32.29,114.34-45.7,114.34-45.7,132.29-53.2,130.54-6.73,130.54-6.73Z" style="fill:url(#uuid-345124e4-d99f-426c-a5d4-016dbc20d385); stroke-width:0px;"/><path d="M263.34,976.51c-106.91,110.09-75.67,54.15-76.52,147.99-.32,34.99-30.68,168.58-30.68,168.58-326.95-141.24-54.1-334.04,42.74-387.88,31.99,21.03,52.06,47.99,64.46,71.31Z" style="fill:url(#uuid-9ddaab8f-5042-49ef-9488-7c5fd3a6cf44); stroke-width:0px;"/></svg>