<svg
  id="uuid-5a7feefb-705f-43fe-9cf1-61bb76ea6181"
  xmlns="http://www.w3.org/2000/svg"
  viewBox="0 0 20 20"
>
  <defs>
    <style>
      .uuid-71233c1f-380b-4943-87b7-c69d2aabc993 {
        fill: currentColor;
      }
    </style>
  </defs>
  <path
    class="uuid-71233c1f-380b-4943-87b7-c69d2aabc993"
    d="M8.17,6.32l-.14-.08c-.26-.02-.61-.04-.76-.04s-.33.22-.38.49l-.96,4.61c-.06.27.02.49.17.49s.47-.01.72-.03l.17-.06c.17-.06.33-.2.47-.41.14-.21.27-.51.4-.89.12-.39.25-.9.39-1.54.1-.52.18-.95.22-1.3.04-.34.04-.62,0-.82-.04-.2-.14-.34-.28-.42Z"
  />
  <path
    class="uuid-71233c1f-380b-4943-87b7-c69d2aabc993"
    d="M10,0C4.48,0,0,4.48,0,10s4.48,10,10,10,10-4.48,10-10S15.52,0,10,0ZM9.03,12.17c-.3.38-.66.66-1.1.84-.44.18-1.15.24-1.15.24-.27.02-.72.04-1,.04h-1.78c-.27,0-.45-.22-.4-.49l1.57-7.59c.06-.27.33-.49.6-.49h1.99c.27,0,.72.02,1,.04,0,0,.41.03.74.17s.58.37.74.68.25.72.25,1.24c0,.51-.07,1.14-.22,1.88-.16.78-.33,1.45-.52,2.02-.19.57-.43,1.05-.73,1.42ZM16.33,7.86c-.06.27-.33.49-.6.49h-1.94c-.27,0-.55.22-.6.49l-.15.74c-.06.27.12.49.4.49h1.76c.27,0,.45.22.4.49l-.13.65c-.06.27-.33.49-.6.49h-1.76c-.27,0-.55.22-.6.49l-.54,2.61c-.06.27-.33.49-.6.49h-1.02c-.27,0-.45-.22-.4-.49l1.57-7.59c.06-.27.33-.49.6-.49h3.96c.27,0,.45.22.4.49l-.13.65Z"
  />
</svg>
