<?xml version="1.0" encoding="UTF-8"?><svg id="uuid-2b26e27f-b009-409b-a8f3-14e48cd6d92a" xmlns="http://www.w3.org/2000/svg" xmlns:xlink="http://www.w3.org/1999/xlink" viewBox="0 0 2797.51 2713.95"><defs><linearGradient id="uuid-566f5b73-fa17-476e-b2db-42e4c1a437f5" x1="1163.06" y1="2135.32" x2="1776.48" y2="295.06" gradientUnits="userSpaceOnUse"><stop offset="0" stop-color="#09005d"/><stop offset="1" stop-color="#1a0f91"/></linearGradient><linearGradient id="uuid-ae686ad5-29d6-44d9-bb23-ab58a57f2aa1" x1="1499.92" y1="1224.46" x2="1372.66" y2="2619.24" xlink:href="#uuid-566f5b73-fa17-476e-b2db-42e4c1a437f5"/><linearGradient id="uuid-58eb36e1-0f32-4e62-a7de-157787a8777d" x1="1759.69" y1="769.47" x2="1900.94" y2="769.47" gradientUnits="userSpaceOnUse"><stop offset="0" stop-color="#dae3fe"/><stop offset="1" stop-color="#e9effd"/></linearGradient><linearGradient id="uuid-ff6dd870-16dc-42b4-95aa-6681ba768983" x1="859.39" y1="-654.55" x2="857.2" y2="-320.34" gradientTransform="translate(2836.75 970.17) rotate(-154.64) scale(1 -1)" xlink:href="#uuid-566f5b73-fa17-476e-b2db-42e4c1a437f5"/><linearGradient id="uuid-f1012cae-c7a7-4499-a2ca-480c0d24a65f" x1="1384.28" y1="192.82" x2="1189.32" y2="603.92" gradientTransform="translate(3085.18 1338.95) rotate(-118.59) scale(1 -1)" xlink:href="#uuid-566f5b73-fa17-476e-b2db-42e4c1a437f5"/><linearGradient id="uuid-5592b76e-d375-482f-957a-50bfdc04bb73" x1="920.46" y1="-654.14" x2="918.27" y2="-319.95" gradientTransform="translate(2836.75 970.17) rotate(-154.64) scale(1 -1)" gradientUnits="userSpaceOnUse"><stop offset="0" stop-color="#4f52ff"/><stop offset="1" stop-color="#4042e2"/></linearGradient><linearGradient id="uuid-1c28be18-7785-4723-ae28-9651a27e926b" x1="800.78" y1="-654.93" x2="798.59" y2="-320.73" xlink:href="#uuid-5592b76e-d375-482f-957a-50bfdc04bb73"/><linearGradient id="uuid-f35a0b1f-b913-4227-958b-0b82d9c05201" x1="853.08" y1="-432.23" x2="1104.76" y2="-432.23" xlink:href="#uuid-5592b76e-d375-482f-957a-50bfdc04bb73"/><linearGradient id="uuid-162148f1-91fd-4ad1-804f-3540d2b272af" x1="608.42" y1="-432.24" x2="860.11" y2="-432.24" xlink:href="#uuid-5592b76e-d375-482f-957a-50bfdc04bb73"/><linearGradient id="uuid-9ec03568-494b-459f-9b8b-6697f711fac7" x1="1961.43" y1="1457.59" x2="2243.75" y2="1457.59" gradientTransform="matrix(1,0,0,1,0,0)" xlink:href="#uuid-5592b76e-d375-482f-957a-50bfdc04bb73"/><linearGradient id="uuid-bcdb6e92-0698-4622-ad17-24bd3ffc4a8b" x1="3606.41" y1="1618.39" x2="3729.39" y2="1944.29" gradientTransform="translate(-1327.05)" gradientUnits="userSpaceOnUse"><stop offset="0" stop-color="#febbba"/><stop offset="1" stop-color="#ff928e"/></linearGradient><linearGradient id="uuid-bc357d76-8fb3-48ee-8d27-4fb1f799f8b7" x1="3099.38" y1="-259.75" x2="2863.71" y2="332.79" gradientUnits="userSpaceOnUse"><stop offset="0" stop-color="#ff928e"/><stop offset="1" stop-color="#fe7062"/></linearGradient><linearGradient id="uuid-d283fc22-cb2d-4ae5-8825-d93793ffc52e" x1="4250.74" y1="2438.39" x2="4395.53" y2="2438.39" gradientTransform="translate(6793.9) rotate(-180) scale(1 -1)" xlink:href="#uuid-566f5b73-fa17-476e-b2db-42e4c1a437f5"/><linearGradient id="uuid-e705272d-f0a1-4760-9b30-d60a2c8bcd2c" x1="-5639.42" y1="2144.91" x2="-5639.42" y2="2444.62" gradientTransform="translate(-3168.66) rotate(-180) scale(1 -1)" xlink:href="#uuid-5592b76e-d375-482f-957a-50bfdc04bb73"/><linearGradient id="uuid-17b31e2f-cd58-4346-86b0-8eedb67ca04c" x1="3996.39" y1="2438.75" x2="4064.18" y2="2438.75" gradientTransform="translate(6793.9) rotate(-180) scale(1 -1)" xlink:href="#uuid-566f5b73-fa17-476e-b2db-42e4c1a437f5"/><linearGradient id="uuid-9789b85b-69dd-4a0c-9c35-89cc0fbdc045" x1="-5957.18" y1="2215.51" x2="-5926.7" y2="2535.54" gradientTransform="translate(-3168.66) rotate(-180) scale(1 -1)" xlink:href="#uuid-5592b76e-d375-482f-957a-50bfdc04bb73"/><linearGradient id="uuid-e1e290cd-37db-414b-ba0d-2987619b2ce9" x1="4025.06" y1="2392.01" x2="4069.05" y2="2392.01" gradientTransform="translate(6793.9) rotate(-180) scale(1 -1)" xlink:href="#uuid-bcdb6e92-0698-4622-ad17-24bd3ffc4a8b"/><linearGradient id="uuid-d9e8cea5-d7f5-40eb-9791-ac1db7b74a7c" x1="4258.1" y1="2389.13" x2="4294.77" y2="2389.13" gradientTransform="translate(6793.9) rotate(-180) scale(1 -1)" xlink:href="#uuid-bcdb6e92-0698-4622-ad17-24bd3ffc4a8b"/><linearGradient id="uuid-358fdd48-3705-485e-a1d4-47ee5712f631" x1="2655.16" y1="1946.47" x2="2960.55" y2="966.2" gradientTransform="matrix(1,0,0,1,0,0)" xlink:href="#uuid-5592b76e-d375-482f-957a-50bfdc04bb73"/><linearGradient id="uuid-d6e4d780-feef-4c35-9b00-4c3c05916c8d" x1="2527.32" y1="1934.09" x2="2576.14" y2="1661.38" gradientTransform="matrix(1,0,0,1,0,0)" xlink:href="#uuid-5592b76e-d375-482f-957a-50bfdc04bb73"/><linearGradient id="uuid-1f7c9583-8d85-4bcb-b986-0f4ac59ab505" x1="2283.28" y1="1627.37" x2="2579.55" y2="1644.21" xlink:href="#uuid-bc357d76-8fb3-48ee-8d27-4fb1f799f8b7"/><linearGradient id="uuid-492db932-3067-4c3e-a141-e019a56e7b15" x1="4367.57" y1="1477.44" x2="4385.63" y2="1366.05" gradientTransform="translate(6793.9) rotate(-180) scale(1 -1)" xlink:href="#uuid-bcdb6e92-0698-4622-ad17-24bd3ffc4a8b"/><linearGradient id="uuid-b3118618-e7a0-48f7-9899-cc4f9fc86960" x1="2252.51" y1="867.37" x2="1813.03" y2="1539.51" gradientTransform="translate(409.48 -578.74) rotate(15.58)" xlink:href="#uuid-566f5b73-fa17-476e-b2db-42e4c1a437f5"/><linearGradient id="uuid-8254914a-dba4-4f21-b662-e3173e0ca165" x1="2305.14" y1="1479.08" x2="2725.75" y2="898.64" xlink:href="#uuid-566f5b73-fa17-476e-b2db-42e4c1a437f5"/><linearGradient id="uuid-09f00008-4681-4bd4-8921-a29d9c04058e" x1="1327.79" y1="-512.7" x2="1460.33" y2="-161.45" gradientTransform="translate(946.98 1093.85) rotate(41.18)" xlink:href="#uuid-bcdb6e92-0698-4622-ad17-24bd3ffc4a8b"/><linearGradient id="uuid-f86253b9-e250-447a-8316-929f268056b9" x1="2599.83" y1="1537.96" x2="2333.39" y2="1834.57" gradientTransform="matrix(1,0,0,1,0,0)" xlink:href="#uuid-bcdb6e92-0698-4622-ad17-24bd3ffc4a8b"/><linearGradient id="uuid-8a526988-949e-4965-b51f-b873e1761c48" x1="2290.74" y1="1496.07" x2="2587.01" y2="1512.91" xlink:href="#uuid-bc357d76-8fb3-48ee-8d27-4fb1f799f8b7"/><linearGradient id="uuid-3fe95862-f3e7-4ad0-ae21-249ebff85fee" x1="2619.05" y1="1555.23" x2="2352.61" y2="1851.84" gradientTransform="matrix(1,0,0,1,0,0)" xlink:href="#uuid-bcdb6e92-0698-4622-ad17-24bd3ffc4a8b"/><linearGradient id="uuid-fc9f0c88-3819-4ac3-9b2a-960bc091771d" x1="-7938.53" y1="-3636.39" x2="-7973.58" y2="-3752.02" gradientTransform="translate(-5993.58 -1241.77) rotate(-138.25) scale(1 -1)" xlink:href="#uuid-bcdb6e92-0698-4622-ad17-24bd3ffc4a8b"/><linearGradient id="uuid-e9823c6c-c6aa-4009-940a-8d098a64787a" x1="-7970.15" y1="-3837.85" x2="-7940.83" y2="-3670.59" gradientTransform="translate(-5993.58 -1241.77) rotate(-138.25) scale(1 -1)" xlink:href="#uuid-566f5b73-fa17-476e-b2db-42e4c1a437f5"/><linearGradient id="uuid-16b8d4a3-f3d2-4bbd-a68d-837e5ed03d56" x1="-7974.36" y1="-3636.93" x2="-8005.9" y2="-3740.96" gradientTransform="translate(-5993.58 -1241.77) rotate(-138.25) scale(1 -1)" xlink:href="#uuid-bcdb6e92-0698-4622-ad17-24bd3ffc4a8b"/><linearGradient id="uuid-7c300ac9-d6f4-40ef-bc44-7adc4f1ff54e" x1="2237.55" y1="2252.38" x2="2283" y2="1915.71" gradientTransform="matrix(1,0,0,1,0,0)" xlink:href="#uuid-5592b76e-d375-482f-957a-50bfdc04bb73"/><linearGradient id="uuid-82eaa38b-8ffd-44b8-8b23-0767930533e6" x1="2290.04" y1="1760.18" x2="2269.84" y2="1891.48" gradientTransform="matrix(1,0,0,1,0,0)" xlink:href="#uuid-5592b76e-d375-482f-957a-50bfdc04bb73"/><linearGradient id="uuid-5f6c7883-eff2-4f71-91db-01cb896c7df0" x1="2240.74" y1="2043.93" x2="2219.56" y2="2143.81" xlink:href="#uuid-566f5b73-fa17-476e-b2db-42e4c1a437f5"/><linearGradient id="uuid-7cb1c1ca-3c33-4fda-844a-aebe2ad37aec" x1="486.47" y1="490" x2="495.79" y2="490" gradientTransform="matrix(1,0,0,1,0,0)" xlink:href="#uuid-bcdb6e92-0698-4622-ad17-24bd3ffc4a8b"/><linearGradient id="uuid-8e17a696-826a-4066-9419-8f11a6885746" x1="487.32" y1="228.42" x2="1182.56" y2="228.42" gradientTransform="matrix(1,0,0,1,0,0)" xlink:href="#uuid-bcdb6e92-0698-4622-ad17-24bd3ffc4a8b"/><linearGradient id="uuid-41f5376b-7de6-4753-93a4-7329b9f12bf9" x1="1216.24" y1="156.41" x2="1236.01" y2="156.41" gradientTransform="matrix(1,0,0,1,0,0)" xlink:href="#uuid-bcdb6e92-0698-4622-ad17-24bd3ffc4a8b"/><linearGradient id="uuid-7c396fa6-e532-4fa8-a784-d5e0cb741402" x1="1347.77" y1="468.07" x2="1356.26" y2="468.07" gradientTransform="matrix(1,0,0,1,0,0)" xlink:href="#uuid-bcdb6e92-0698-4622-ad17-24bd3ffc4a8b"/><linearGradient id="uuid-42e714ec-7ea1-4ced-a637-7aa4710516a9" x1="643.24" y1="710.88" x2="1350.62" y2="710.88" gradientTransform="matrix(1,0,0,1,0,0)" xlink:href="#uuid-bcdb6e92-0698-4622-ad17-24bd3ffc4a8b"/><linearGradient id="uuid-0bdf24a5-2ed5-46a2-a4b3-dfa88b42e301" x1="592.79" y1="750.77" x2="611.96" y2="750.77" gradientTransform="matrix(1,0,0,1,0,0)" xlink:href="#uuid-bcdb6e92-0698-4622-ad17-24bd3ffc4a8b"/><linearGradient id="uuid-cc04a578-7763-47e1-9ee9-39a71fef7db7" x1="593.92" y1="457.55" x2="1250.22" y2="457.55" xlink:href="#uuid-bc357d76-8fb3-48ee-8d27-4fb1f799f8b7"/><linearGradient id="uuid-dbe0d9c6-b6ad-4d22-a849-612f8dfb8cc3" x1="1340.41" y1="571.88" x2="1358.98" y2="571.88" gradientTransform="matrix(1,0,0,1,0,0)" xlink:href="#uuid-bcdb6e92-0698-4622-ad17-24bd3ffc4a8b"/><linearGradient id="uuid-7ec8f324-8893-4a67-a319-398aa806dfd9" x1="1395.41" y1="690.51" x2="1608.46" y2="690.51" gradientTransform="matrix(1,0,0,1,0,0)" xlink:href="#uuid-bcdb6e92-0698-4622-ad17-24bd3ffc4a8b"/><linearGradient id="uuid-0d9f3ff5-d91e-46fa-9783-8a3f7939ac17" x1="1571.48" y1="863.26" x2="1584.37" y2="863.26" gradientTransform="matrix(1,0,0,1,0,0)" xlink:href="#uuid-bcdb6e92-0698-4622-ad17-24bd3ffc4a8b"/><linearGradient id="uuid-6195c918-d185-4660-b775-a914350a3c7d" x1="1438.76" y1="956.31" x2="1457.6" y2="956.31" gradientTransform="matrix(1,0,0,1,0,0)" xlink:href="#uuid-bcdb6e92-0698-4622-ad17-24bd3ffc4a8b"/><linearGradient id="uuid-221df590-8d44-4a31-a0e3-01d422b9d20d" x1="1205.25" y1="828.72" x2="1402.65" y2="828.72" gradientTransform="matrix(1,0,0,1,0,0)" xlink:href="#uuid-bcdb6e92-0698-4622-ad17-24bd3ffc4a8b"/><linearGradient id="uuid-97bbf657-b49d-4aad-b8f8-30c296732561" x1="1234.42" y1="652.98" x2="1247.8" y2="652.98" gradientTransform="matrix(1,0,0,1,0,0)" xlink:href="#uuid-bcdb6e92-0698-4622-ad17-24bd3ffc4a8b"/><linearGradient id="uuid-f1b2cb14-919b-44c5-a895-07bcbbd43ef0" x1="1255.03" y1="762.09" x2="1562.26" y2="762.09" xlink:href="#uuid-bc357d76-8fb3-48ee-8d27-4fb1f799f8b7"/><linearGradient id="uuid-c6adc968-70f1-475c-82c3-69810f3dfc7a" x1="-2614.77" y1="842.77" x2="-2466.19" y2="1236.51" gradientTransform="translate(-1841.6) rotate(-180) scale(1 -1)" xlink:href="#uuid-bcdb6e92-0698-4622-ad17-24bd3ffc4a8b"/><linearGradient id="uuid-62d46c1e-ff26-4f0d-9d1c-261bc85eb950" x1="598.57" y1="350.95" x2="649.07" y2="694.35" gradientTransform="matrix(1,0,0,1,0,0)" xlink:href="#uuid-5592b76e-d375-482f-957a-50bfdc04bb73"/><linearGradient id="uuid-2e10b52b-e776-4c1b-8ec7-a180ab00a80f" x1="10442.45" y1="1624.87" x2="10589.96" y2="1624.87" gradientTransform="translate(-9962.55)" xlink:href="#uuid-566f5b73-fa17-476e-b2db-42e4c1a437f5"/><linearGradient id="uuid-ebaf4f7f-29cb-481d-a723-04d9e6122d33" x1="553.65" y1="1325.88" x2="553.65" y2="1631.22" gradientTransform="matrix(1,0,0,1,0,0)" xlink:href="#uuid-5592b76e-d375-482f-957a-50bfdc04bb73"/><linearGradient id="uuid-f9609b0e-596c-497c-a0dc-efdad667bac1" x1="10183.32" y1="1625.24" x2="10252.39" y2="1625.24" gradientTransform="translate(-9962.55)" xlink:href="#uuid-566f5b73-fa17-476e-b2db-42e4c1a437f5"/><linearGradient id="uuid-ca259663-c15e-4ef3-a667-18976b7fe4b7" x1="229.92" y1="1397.8" x2="260.98" y2="1723.84" gradientTransform="matrix(1,0,0,1,0,0)" xlink:href="#uuid-5592b76e-d375-482f-957a-50bfdc04bb73"/><linearGradient id="uuid-23b7af0e-64e1-4667-a030-c0913313fffa" x1="10212.53" y1="1577.62" x2="10257.35" y2="1577.62" gradientTransform="translate(-9962.55)" xlink:href="#uuid-bcdb6e92-0698-4622-ad17-24bd3ffc4a8b"/><linearGradient id="uuid-1312cac9-4942-4bce-90e1-2aa1832959e3" x1="10449.95" y1="1574.69" x2="10487.3" y2="1574.69" gradientTransform="translate(-9962.55)" xlink:href="#uuid-bcdb6e92-0698-4622-ad17-24bd3ffc4a8b"/><linearGradient id="uuid-cba50950-3866-44a8-b88d-0d99c0c8121d" x1="661.4" y1="661.49" x2="381.02" y2="1563.26" gradientTransform="matrix(1,0,0,1,0,0)" xlink:href="#uuid-5592b76e-d375-482f-957a-50bfdc04bb73"/><linearGradient id="uuid-6938ddee-13d6-4582-b64c-527bfb514e91" x1="10542.84" y1="1000.42" x2="10389.96" y2="1198.07" gradientTransform="translate(-9962.55)" xlink:href="#uuid-566f5b73-fa17-476e-b2db-42e4c1a437f5"/><linearGradient id="uuid-70d8aacf-5149-45dd-959c-1c17ba0ee202" x1="871.76" y1="588.64" x2="420.63" y2="891.64" gradientTransform="matrix(1,0,0,1,0,0)" xlink:href="#uuid-5592b76e-d375-482f-957a-50bfdc04bb73"/><linearGradient id="uuid-5968c340-e5bd-48bf-ad27-558d74240190" x1="543.01" y1="627.39" x2="707.98" y2="438.85" gradientTransform="matrix(1,0,0,1,0,0)" xlink:href="#uuid-bcdb6e92-0698-4622-ad17-24bd3ffc4a8b"/><linearGradient id="uuid-86a56ffb-d025-45fe-a07a-9b27826d50bf" x1="10526.2" y1="534.35" x2="10407.17" y2="625.43" gradientTransform="translate(-9962.55)" xlink:href="#uuid-bcdb6e92-0698-4622-ad17-24bd3ffc4a8b"/><linearGradient id="uuid-8430e7e6-4201-4543-a293-b3994eae0517" x1="10537.28" y1="389.99" x2="10645.07" y2="528.77" gradientTransform="translate(-9962.55)" xlink:href="#uuid-566f5b73-fa17-476e-b2db-42e4c1a437f5"/><linearGradient id="uuid-68d0f605-c8e5-448b-8770-5c3e957a8e51" x1="10606.14" y1="442.59" x2="10487.11" y2="533.67" gradientTransform="translate(-9962.55)" xlink:href="#uuid-bcdb6e92-0698-4622-ad17-24bd3ffc4a8b"/><linearGradient id="uuid-78117a12-6d1b-47a2-ba2d-5372cbc81404" x1="51.7" y1="984.29" x2="1023.3" y2="984.29" xlink:href="#uuid-58eb36e1-0f32-4e62-a7de-157787a8777d"/><linearGradient id="uuid-95e0f1af-2afe-4033-bb5c-31937aaf46f7" x1="952.18" y1="817.88" x2="1356.15" y2="817.88" xlink:href="#uuid-58eb36e1-0f32-4e62-a7de-157787a8777d"/><linearGradient id="uuid-eeff9bd7-3e2a-43f7-a51b-33f99fd64420" x1="-1600.56" y1="17387.29" x2="-1464.22" y2="16412.68" gradientTransform="translate(-4021.14 3832.71) rotate(-104.19) scale(1 -1)" xlink:href="#uuid-566f5b73-fa17-476e-b2db-42e4c1a437f5"/><linearGradient id="uuid-9e20b3ac-51c6-46dd-b6da-89f0119662a5" x1="-824.83" y1="13697.56" x2="-688.49" y2="12722.95" gradientTransform="translate(-3899.76 3802.08) rotate(-104.19) scale(1 -1.24)" xlink:href="#uuid-566f5b73-fa17-476e-b2db-42e4c1a437f5"/><linearGradient id="uuid-2c01fb55-b511-4338-a09b-95f5be8a7a81" x1="-2189.42" y1="859.38" x2="-2022.27" y2="1100.82" gradientTransform="translate(-1841.6) rotate(-180) scale(1 -1)" xlink:href="#uuid-bcdb6e92-0698-4622-ad17-24bd3ffc4a8b"/><linearGradient id="uuid-5576ca7b-c570-47eb-a9d7-3d9cf2250f4a" x1="788.49" y1="464.65" x2="337.35" y2="767.65" gradientTransform="matrix(1,0,0,1,0,0)" xlink:href="#uuid-5592b76e-d375-482f-957a-50bfdc04bb73"/><linearGradient id="uuid-49b93817-b706-429c-97c2-dbd9256694be" x1="-2719.27" y1="882.2" x2="-2570.69" y2="1275.94" gradientTransform="translate(-1841.6) rotate(-180) scale(1 -1)" xlink:href="#uuid-bcdb6e92-0698-4622-ad17-24bd3ffc4a8b"/><linearGradient id="uuid-21f632c0-1069-435b-9bb1-332419e8ce65" x1="-2253.43" y1="903.09" x2="-2084.35" y2="1147.32" gradientTransform="translate(-1841.6) rotate(-180) scale(1 -1)" xlink:href="#uuid-bcdb6e92-0698-4622-ad17-24bd3ffc4a8b"/><linearGradient id="uuid-913d34e1-05df-4aa8-a35c-0d6f4fced5fa" x1="1644.69" y1="2657.59" x2="1789.45" y2="2051.59" xlink:href="#uuid-bc357d76-8fb3-48ee-8d27-4fb1f799f8b7"/><linearGradient id="uuid-9e958db6-9096-44d8-bd25-2b5148874d8d" x1="1815.36" y1="2602.1" x2="1896.16" y2="1972.52" xlink:href="#uuid-bc357d76-8fb3-48ee-8d27-4fb1f799f8b7"/><linearGradient id="uuid-8c817e29-cb34-4e74-bfbf-ff3c4a380381" x1="1721.89" y1="2100.08" x2="1674.75" y2="2440.11" gradientUnits="userSpaceOnUse"><stop offset="0" stop-color="#e1473d"/><stop offset="1" stop-color="#e9605a"/></linearGradient><linearGradient id="uuid-7ae5ad86-2ac8-4ceb-bee4-9bd3d122faa6" x1="2808.95" y1="-375.27" x2="2573.28" y2="217.27" xlink:href="#uuid-bc357d76-8fb3-48ee-8d27-4fb1f799f8b7"/></defs><path d="M2671.57,2224.64c0,27.15-20.42,49.36-45.38,49.36H172.52c-24.96,0-45.37-22.21-45.37-49.36l-20.42-1535.52c0-27.15,29.37-80.16,83.21-76.17l2398.01-67.57c31.31-.88,61.59,12.24,83.76,36.31,22.17,24.07,34.31,56.98,33.57,91.04l-33.7,1551.91Z" style="fill:url(#uuid-566f5b73-fa17-476e-b2db-42e4c1a437f5); stroke-width:0px;"/><path d="M2626.78,2177.29c0,25.71-19.32,46.75-42.93,46.75H231.69c-23.61,0-42.93-21.04-42.93-46.75l-19.27-1393.96c2.27-83.88,69.8-114.03,110.74-112.25,0,0,1874.26-54.76,2298.27-67.15,22-.64,43.27,8.59,58.85,25.51,15.58,16.92,24.15,40.08,23.6,64.04l-34.18,1483.81Z" style="fill:#91b3fa; stroke-width:0px;"/><rect x="7.93" y="2266.56" width="2781.51" height="134.92" rx="7.51" ry="7.51" style="fill:url(#uuid-ae686ad5-29d6-44d9-bb23-ab58a57f2aa1); stroke-width:0px;"/><path d="M263.8,753.74l1636.96-38.36c26.62-.62,48.66,15.21,48.66,34.97v18.19c0,18.98-20.4,34.49-45.98,34.97l-1636.25,30.74c-25.6.48-47.05-14.28-48.31-33.25l-.7-10.57c-1.3-19.54,19.26-36.08,45.63-36.69Z" style="fill:#bdd0fb; stroke-width:0px;"/><path d="M1900.53,758.76c3.48-27.73-15.78-52.97-43.01-56.38-27.23-3.41-52.12,16.3-55.59,44.03-1.82,14.49,2.58,28.29,11.08,38.67l-50.69,39c-3.2,2.58-3.53,7.34-.72,10.33l.46.49c2.49,2.65,6.67,2.76,9.3.25l46.05-45.35c7.35,6.92,16.81,11.66,27.53,13,27.23,3.41,52.12-16.3,55.59-44.03ZM1846.62,789.36c-19.94-2.5-34.05-20.99-31.5-41.3,2.55-20.31,20.78-34.75,40.72-32.25,19.94,2.5,34.05,20.99,31.5,41.3-2.55,20.31-20.78,34.75-40.72,32.25Z" style="fill:url(#uuid-58eb36e1-0f32-4e62-a7de-157787a8777d); stroke-width:0px;"/><path d="M232.97,1462.94l27.3,660.43c.92,22.26,32.01,39.94,69.7,39.63l801.42-6.52c37.68-.31,67.92-18.47,67.83-40.72l-2.79-666.62c-.1-22.81-31.96-41.11-70.56-40.51l-825.93,12.71c-37.93.58-67.89,19.2-66.96,41.61Z" style="fill:#bdd0fb; stroke-width:0px;"/><path d="M1353.31,878.47l502.4-6.11c51.42-.63,94.06,16.07,94.49,37.01l8.53,415.16c.43,20.92-41.46,37.9-92.87,37.65l-523.02-2.61c-29.43-.15-53.29-9.75-53.98-21.72l-24.52-421.17c-1.2-20.52,38.56-37.59,88.99-38.2Z" style="fill:#bdd0fb; stroke-width:0px;"/><path d="M359.07,868.97l714.93-6.3c73.18-.64,133.85,16.57,134.46,38.14l12.14,427.87c.61,21.56-59.01,39.06-132.16,38.8l-744.28-2.69c-41.87-.15-75.83-10.04-76.82-22.38l-34.9-434.06c-1.7-21.15,54.87-38.74,126.63-39.37Z" style="fill:#bdd0fb; stroke-width:0px;"/><path d="M1352.12,1413.08l502.4-9.7c51.42-.99,94.06,25.51,94.49,58.73l8.53,658.86c.43,33.2-41.46,60.15-92.87,59.74l-523.02-4.14c-29.43-.23-53.29-15.47-53.98-34.47l-24.52-668.4c-1.2-32.57,38.56-59.66,88.99-60.63Z" style="fill:#bdd0fb; stroke-width:0px;"/><path d="M2089.66,696.85l391.95-6.31c40.12-.65,73.38,16.6,73.72,38.23l6.66,428.83c.34,21.61-32.35,39.15-72.46,38.89l-408.04-2.7c-22.96-.15-41.57-10.07-42.12-22.43l-19.13-435.04c-.93-21.2,30.08-38.83,69.42-39.46Z" style="fill:#bdd0fb; stroke-width:0px;"/><path d="M2099.29,1254.06l391.95-4.95c40.12-.51,73.38,13.03,73.72,29.99l6.66,336.47c.34,16.96-32.35,30.72-72.46,30.51l-408.04-2.12c-22.96-.12-41.57-7.9-42.12-17.6l-19.13-341.34c-.93-16.63,30.08-30.47,69.42-30.96Z" style="fill:#bdd0fb; stroke-width:0px;"/><path d="M2117.99,1721.25l391.95-5.7c40.12-.58,73.38,15,73.72,34.53l6.66,387.33c.34,19.52-32.35,35.36-72.46,35.12l-408.04-2.44c-22.96-.14-41.57-9.09-42.12-20.26l-19.13-392.93c-.93-19.15,30.08-35.07,69.42-35.64Z" style="fill:#fff; opacity:.37; stroke-width:0px;"/><path d="M2168.7,212.79c.48-1.06.94-2.13,1.44-3.18,24.09-50.84,63.97-61.36,99.12-44.7,35.15,16.66,52.25,54.18,28.16,105.02-.21.44-.44.88-.65,1.31-23.69-17.74-69.18-46.44-128.06-58.46Z" style="fill:url(#uuid-ff6dd870-16dc-42b4-95aa-6681ba768983); stroke-width:0px;"/><path d="M2296.77,271.24c-24.43,50.29-79.92,94.27-114.76,77.76-34.42-16.31-35.89-85.61-13.3-136.22,58.88,12.01,104.37,40.72,128.06,58.46Z" style="fill:url(#uuid-f1012cae-c7a7-4499-a2ca-480c0d24a65f); stroke-width:0px;"/><path d="M2235.39,185.68c11.96-21.56,22.46-43.84,30.82-67.1,4.04-11.67,7.62-23.58,9.54-35.97,1-6.18,1.41-12.52,1.12-18.92-.27-6.38-1.72-13.01-5.13-18.94-3.37-5.97-9.3-10.52-15.7-12.61-6.46-2.25-12.98-2.6-19.5-2.16-6.49.46-13.53,2.37-18.94,7.29-5.57,4.83-7.91,12.22-8.3,18.9-.43,6.81.96,13.38,3.19,19.55,2.31,6.15,5.4,12.05,10.4,17.07,2.55,2.4,5.56,4.94,10.22,5.62,2.32.28,4.91-.2,6.94-1.39,2.13-1.18,3.43-2.77,4.73-4.36,4.12-6.51,5.06-13.03,6.04-19.39.37-2.39-1.27-4.63-3.67-5-2.39-.37-4.63,1.27-5,3.67,0,.04-.01.09-.02.13l-.02.21c-.68,5.68-1.82,11.62-4.27,15.57-1.37,1.82-2.4,2.44-3.78,2.33-1.51-.1-3.68-1.46-5.5-3.22-3.77-3.61-6.7-8.73-8.74-13.98-2.02-5.28-3.29-10.96-3.01-16.41.26-5.41,1.9-10.66,5.7-14.02,3.67-3.48,9.03-5.23,14.65-5.71,11.38-1.16,23.7,1.55,29.25,11.13,2.79,4.65,4.25,10.32,4.59,16.14.35,5.83.1,11.79-.76,17.72-1.62,11.88-4.91,23.62-8.69,35.16-7.82,23.02-17.9,45.41-29.35,66.9l-.03.05c-.48.9-.14,2.01.76,2.49.89.47,1.99.14,2.48-.73Z" style="fill:url(#uuid-5592b76e-d375-482f-957a-50bfdc04bb73); stroke-width:0px;"/><path d="M2274.36,203.87c9.39-22.47,20.34-44.45,33.2-65.08,6.54-10.23,13.54-20.21,21.71-28.99,4.05-4.42,8.5-8.39,13.23-11.81,4.72-3.43,10.03-5.89,15.4-6.67,10.93-1.77,20.83,6.05,27.13,15.59,3.18,4.65,5.23,9.91,4.86,14.96-.19,5.07-3.23,9.67-7.25,13.29-4.04,3.67-9.25,6.28-14.61,8.06-5.36,1.75-11.17,2.72-16.35,2.09-2.52-.3-4.94-1.12-5.98-2.22-.96-.99-1.12-2.18-.59-4.4,1.51-4.4,5.37-9.05,9.35-13.17l.13-.14c1.68-1.74,1.63-4.52-.11-6.2-1.74-1.68-4.52-1.63-6.2.11-.03.03-.07.08-.1.11-4.31,4.79-8.75,9.65-11.18,16.95-.42,2.01-.82,4.02-.39,6.42.36,2.32,1.64,4.63,3.32,6.25,3.47,3.18,7.35,3.9,10.82,4.35,7.04.69,13.57-.65,19.79-2.76,6.19-2.18,12.15-5.26,17.15-9.91,4.92-4.53,9.16-11.02,9.37-18.39.38-7.3-2.6-13.96-6.35-19.27-3.79-5.32-8.19-10.15-14.02-13.72-5.67-3.62-12.94-5.33-19.7-4.17-6.74,1.11-12.8,4.19-17.91,8.02-5.13,3.83-9.78,8.16-13.93,12.85-8.38,9.33-15.33,19.64-21.8,30.15-12.72,21.2-23.31,43.44-32.42,66.34-.38.94.08,2.02,1.03,2.39.93.37,1.99-.07,2.38-1l.02-.05Z" style="fill:url(#uuid-1c28be18-7785-4723-ae28-9651a27e926b); stroke-width:0px;"/><path d="M2244.55,227.9s-20.61,185.91,52.15,196.14c72.75,10.23,67.11-96.44-52.15-196.14Z" style="fill:#91b3fa; opacity:.67; stroke-width:0px;"/><path d="M2244.55,227.9s-130.86,133.66-184.84,83.82c-53.98-49.84,32.16-113,184.84-83.82Z" style="fill:#91b3fa; opacity:.67; stroke-width:0px;"/><path d="M2233.45,234.59s-175.81,63.87-202.91-4.41c-27.1-68.29,77.89-87.96,202.91,4.41Z" style="fill:#91b3fa; opacity:.67; stroke-width:0px;"/><path d="M2251.67,243.23s61.87,176.52,131.89,154.26c70.02-22.26,18.77-115.98-131.89-154.26Z" style="fill:#91b3fa; opacity:.67; stroke-width:0px;"/><path d="M2295.69,412.33c.57.27,1.2.42,1.87.42,16.57.04,27.78-5.18,33.31-15.52,16.24-30.38-26.43-94.55-28.25-97.27-1.36-2.01-4.07-2.54-6.08-1.2-2.01,1.35-2.54,4.07-1.2,6.08,11.61,17.3,39.23,66.88,27.8,88.26-3.88,7.25-12.48,10.92-25.56,10.89-2.42,0-4.39,1.95-4.39,4.37,0,1.75,1.02,3.27,2.51,3.97Z" style="fill:#fff; opacity:.78; stroke-width:0px;"/><path d="M2241.09,235.21s-62.07-96.27-98.53-113.53c-39.29-18.61-99.2-1.25-128.62,9.45-5.75,2.09-5.41,10.28.46,12,67.2,19.73,144.94,53.28,226.69,92.08Z" style="fill:url(#uuid-f35a0b1f-b913-4227-958b-0b82d9c05201); stroke-width:0px;"/><path d="M2234.74,232.2s113.81-12.9,150.26,4.38c39.28,18.63,63.77,75.99,74.12,105.54,2.02,5.77-4.53,10.7-9.58,7.24-57.82-39.53-133.01-78.46-214.79-117.17Z" style="fill:url(#uuid-162148f1-91fd-4ad1-804f-3540d2b272af); stroke-width:0px;"/><path d="M2435.59,321.8c1.11.53,2.43.59,3.65.05,2.21-.98,3.22-3.56,2.24-5.78-1.58-3.57-39.29-87.37-102.01-81.68-2.41.22-4.19,2.35-3.97,4.76.22,2.41,2.35,4.19,4.76,3.97,56.5-5.13,92.83,75.67,93.19,76.49.44,1,1.21,1.75,2.13,2.19Z" style="fill:#fff; opacity:.6; stroke-width:0px;"/><path d="M1979.34,2213.45l-17.9-1141.91c-.2-12.53,11.89-22.77,26.86-22.77h0c24.22,0,43.85-16.43,43.85-36.69v-278.93c0-17.76,17.58-31.98,38.78-31.39l96.58,2.68c23.77.66,42.77,16.78,43.21,36.69l33.03,1472.33h-264.41Z" style="fill:url(#uuid-9ec03568-494b-459f-9b8b-6697f711fac7); stroke-width:0px;"/><path d="M2247.2,1638.97l.4,12.5c38.43,53.5,73.38,39.85,97.46,23.8-14.49-36.03-17.06-40.01-28.62-52.54-43.46,31.6-69.23,16.24-69.23,16.24Z" style="fill:url(#uuid-bcdb6e92-0698-4622-ad17-24bd3ffc4a8b); stroke-width:0px;"/><path d="M2422.33,1580.25l-67.63-105.73c-4.44,59.64-15.01,115.5-38.26,148.2,11.56,12.52,14.13,16.51,28.62,52.54,60.08-40.06,77.27-95.01,77.27-95.01Z" style="fill:url(#uuid-bc357d76-8fb3-48ee-8d27-4fb1f799f8b7); stroke-width:0px;"/><path d="M2488.72,2467.58c-33.72,1.55-66.35.58-88.14-.54,19.84-14.12,65.55-44.85,103.79-57.08l26.26-1.57s8.9,13.53,12.07,44.49c-4.35,5.43-17.07,13-53.98,14.7Z" style="fill:url(#uuid-d283fc22-cb2d-4ae5-8825-d93793ffc52e); stroke-width:0px;"/><path d="M2400.31,2467.23c.09-.06.18-.13.27-.19,21.79,1.12,54.43,2.09,88.14.54,36.91-1.7,49.63-9.27,53.98-14.7.15,1.43.3,2.84.42,4.34.55,6.8-4.5,12.76-11.3,13.27-27.61,2.09-96.08,6.82-129.09,5.08-4.35-.23-5.97-5.82-2.42-8.36Z" style="fill:url(#uuid-e705272d-f0a1-4760-9b30-d60a2c8bcd2c); stroke-width:0px;"/><path d="M2729.87,2458.56c2.47-15.83,6.43-38.71,9.49-44.56,4.8-9.18,21.23,0,21.23,0,0,0,11.53,5.38,16.84,14.34,3.38,5.71,12.74,21.97,19.08,33.01.73,1.27,1.03,2.62.99,3.93l-65.78,2.3c-1.61-2.58-2.36-5.73-1.85-9.02Z" style="fill:url(#uuid-17b31e2f-cd58-4346-86b0-8eedb67ca04c); stroke-width:0px;"/><path d="M2797.5,2465.28c-.11,3.76-3.09,7.17-7.29,7.28l-46.87,1.29c-4.95.14-9.24-2.44-11.63-6.27l65.78-2.3Z" style="fill:url(#uuid-9789b85b-69dd-4a0c-9c35-89cc0fbdc045); stroke-width:0px;"/><path d="M2724.84,2361.39c.57,1.9,9.07,43.11,12.79,61.19,1.03,5,5.53,8.51,10.63,8.25,2.78-.14,6.02-.39,9.42-.83,6.03-.78,10.61-5.81,10.85-11.88.6-15.84.9-46.26-4.92-58.05-8.03-16.26-38.77,1.31-38.77,1.31Z" style="fill:url(#uuid-e1e290cd-37db-414b-ba0d-2987619b2ce9); stroke-width:0px;"/><path d="M2535.79,2373.19c-3.65-.12,1.45,18.82-4.06,37.44-1.24,4.2-4.38,7.49-8.76,7.55-2.84.04-6.2-.02-9.62-.29-5.14-.41-9.26-4.4-9.74-9.53l-4.49-48.28,36.66,13.11Z" style="fill:url(#uuid-d9e8cea5-d7f5-40eb-9791-ac1db7b74a7c); stroke-width:0px;"/><path d="M2433.81,1859.91c1.63,7.92,59.07,342.94,62.55,516.3.06,2.91,2.2,5.34,5.08,5.75,7.29,1.02,21.49,2.32,35.26-.23,1.89-.35,3.31-1.9,3.43-3.82,2.01-32.31,18.15-305.45-1.62-434.03,0,0,163.31,343.72,188.07,438.49.6,2.31,2.72,3.86,5.1,3.73,6.99-.37,21.54-1.63,33.09-5.88,4.14-1.52,6.5-5.87,5.45-10.16-13.83-56.72-110.76-447.5-176.57-533.6l-159.83,23.44Z" style="fill:url(#uuid-358fdd48-3705-485e-a1d4-47ee5712f631); stroke-width:0px;"/><path d="M2538.5,1946.03c.54,0,1.08-.2,1.5-.61.85-.83.86-2.19.03-3.03l-21.87-22.36c-.83-.85-2.18-.86-3.03-.03-.85.83-.86,2.19-.03,3.03l21.87,22.36c.42.43.98.64,1.53.64Z" style="fill:url(#uuid-d6e4d780-feef-4c35-9b00-4c3c05916c8d); stroke-width:0px;"/><path d="M2340.46,1440.47c41.95-10.99,119.34-28.37,180.93-24.52,20.12,1.26,23.93,20.2,24.73,34.35,9.31,164.06,23.58,301.46,47.53,386.17-53.83,21.3-107.19,31.18-159.83,23.44-39.44-84.47-73.92-181.99-103.38-292.75,0,0-17.28-88.33-.5-117.78,2.62-4.59,6.06-7.75,10.53-8.92Z" style="fill:url(#uuid-1f7c9583-8d85-4bcb-b986-0f4ac59ab505); stroke-width:0px;"/><path d="M2441.36,1325.55s10.59,63.2,13.75,92.42c.51,4.75-1.97,9.24-6.22,11.43-11.58,5.96-36.29,15.56-63.22,6.75-4.44-1.45-7.34-5.74-7.24-10.41l1.85-84.37,61.09-15.82Z" style="fill:url(#uuid-492db932-3067-4c3e-a141-e019a56e7b15); stroke-width:0px;"/><path d="M2186.64,992.36c1.5-.85,2.03-2.75,1.19-4.25l-4.3-7.62-.33.18-25.31-41.05c-.9-1.47-2.83-1.92-4.29-1.02l-4.79,2.96c-1.47.9-1.92,2.83-1.02,4.29l23.36,37.89c.93,1.51.42,3.49-1.12,4.36l-183.6,103.54c-1.5.85-2.03,2.75-1.19,4.25l4.3,7.62.06-.03,59.66,105.8c.85,1.5,2.75,2.03,4.25,1.19l4.9-2.77c1.5-.85,2.03-2.75,1.19-4.25l-58.13-103.08c-.85-1.5-.32-3.4,1.19-4.25l183.98-103.75Z" style="fill:url(#uuid-b3118618-e7a0-48f7-9899-cc4f9fc86960); stroke-width:0px;"/><rect x="1727.37" y="951.22" width="436.87" height="99.35" transform="translate(-240.72 1084.85) rotate(-29.42)" style="fill:#7d97f4; stroke-width:0px;"/><path d="M2443.65,1943.17l-28.15,14.25c-.74.37-1.64.08-2.01-.66l-381.87-754.35c-.37-.74-.08-1.64.66-2.01l28.15-14.25c.74-.37,1.64-.08,2.01.66l381.87,754.35c.37.74.08,1.64-.66,2.01Z" style="fill:url(#uuid-8254914a-dba4-4f21-b662-e3173e0ca165); stroke-width:0px;"/><ellipse cx="1755.37" cy="1107.88" rx="18.57" ry="50.05" transform="translate(-317.83 1005.1) rotate(-29.42)" style="fill:#7d97f4; stroke-width:0px;"/><ellipse cx="2133.4" cy="895.11" rx="18.57" ry="50.05" transform="translate(-164.57 1163.35) rotate(-29.42)" style="fill:#7d97f4; stroke-width:0px;"/><path d="M2241.05,1640.89c-2.66-4.03-3.33-9.02-1.9-13.64,2.76-8.95,8.54-22.08,18.2-19.18,14.38,4.33,16.3,39.86,16.3,39.86l-3.82,22.81,4.8,11.38c-9.5-4.59-21.19-21.02-33.58-41.23Z" style="fill:url(#uuid-09f00008-4681-4bd4-8921-a29d9c04058e); stroke-width:0px;"/><path d="M2573.96,1721.17c5.88-8.25,11.77-17.27,17.59-27.23,57.54-98.55-47.99-249.47-47.99-249.47l-32.16,95.74c47.55,53.03,27.58,104.19,11.4,146.65-21.18,55.58-112.78,102.7-112.78,102.7l17.45,21.53s94.17-16.57,146.5-89.91Z" style="fill:url(#uuid-f86253b9-e250-447a-8316-929f268056b9); stroke-width:0px;"/><path d="M2610.12,1594.93c-1.19-76.51-61.96-157.79-73.06-172.1-.79-1.02-2.36-.81-2.89.36l-22.78,117.01c9.67,22.61,7.71,36.84,17.37,57.21,26.14-3.66,50.4-3.84,76.18,1.74,2.7.58,5.23-1.46,5.18-4.22Z" style="fill:url(#uuid-8a526988-949e-4965-b51f-b873e1761c48); stroke-width:0px;"/><path d="M2410.01,1789.55c-5.35-2.7-47.28,3.4-40.85,9.17,11.27,10.11,11.76,17.77-.09,27.23-5.85,4.67-19.29,11.76-22.96.85-1.03-3.07-1.17-7.04-4.09-8.44-2.16-1.03-8.26,6.35-8.62,8.72-2.04,13.28,8.56,24.32,20.25,28.72,5.67,2.14,11.71,3.05,17.7,3.95,3.33.5,11.64,1.74,12.39,1.41.87-.38,1.38-1.26,2.02-1.96,2.73-3.03,17.35-15.35,20.54-19.47,1.72-2.22,23.63-29.85,22.52-32.49,0,0-14.27-15.39-18.8-17.68Z" style="fill:url(#uuid-3fe95862-f3e7-4ad0-ae21-249ebff85fee); stroke-width:0px;"/><path d="M2368.01,1258.22s-33.87,63.76-29.53,89.52c4.34,25.76,46.32,23.91,82.98,2.99l25.62-68.85-79.07-23.66Z" style="fill:url(#uuid-fc9f0c88-3819-4ac3-9b2a-960bc091771d); stroke-width:0px;"/><path d="M2419.84,1316.92c-1.49-.66-2.04-2.48-1.15-3.85,2.71-4.15,7.8-12.6,9.42-20.01,0,0,6.09-3.9-15.5-9.07-21.59-5.17-53.78-13.19-60.55-31.56-6.6-17.92,10.74-62.97,38.39-27.07,1.05,1.37,3.11,1.4,4.16.03,4.53-5.9,16.45-18.15,33-10.72,15.49,6.95,17.23,18.3,17.02,24.02-.06,1.68,1.44,2.99,3.1,2.68,7.83-1.49,26.62-2.78,35.39,16.5,7.22,15.88,2.53,24.86-1.75,29.26-1.39,1.42-.78,3.77,1.12,4.35,5.15,1.58,11.79,5.94,11.13,17.99-.92,16.67-19.55,15.2-24.86,14.44-.87-.12-1.75.17-2.33.82-4.55,5.03-25.04,26.41-47.23,28.99-1.92.22-3.41-1.67-2.78-3.5l9.6-27.91c.45-1.3-.17-2.72-1.43-3.27l-4.76-2.11Z" style="fill:url(#uuid-e9823c6c-c6aa-4009-940a-8d098a64787a); stroke-width:0px;"/><path d="M2415.98,1320.88s24.12-16.55,25.88-2.61c1.76,13.94-21.72,20.18-33.35,14.99l7.47-12.38Z" style="fill:url(#uuid-16b8d4a3-f3d2-4bbd-a68d-837e5ed03d56); stroke-width:0px;"/><path d="M2343.54,2469.8c-74.08,24.74-146.05,24.77-215.46,2.16-17.54-5.72-29.43-22.07-29.43-40.52v-339.94c85.29,18.77,174.69,19.72,268.86,0v345.2c0,15.05-9.7,28.33-23.98,33.1Z" style="fill:#bdd0fb; stroke-width:0px;"/><ellipse cx="2233.09" cy="2088.79" rx="134.43" ry="27.02" style="fill:#7d97f4; stroke-width:0px;"/><path d="M2367.52,2353.25c-89.62,31.17-179.24,31.17-268.86,0v-135.61c90.43,22.29,180.09,23.43,268.86,0v135.61Z" style="fill:url(#uuid-7c300ac9-d6f4-40ef-bc44-7adc4f1ff54e); stroke-width:0px;"/><path d="M2113.08,2122.4c2.88,10.76,15.16,18.02,25.98,15.36,7.58-1.87,14.07-7.81,21.88-7.94,8.87-.15,15.95,7.16,21.12,14.37,9.4,13.09,16.54,27.8,21.03,43.27,1.5,5.15,2.82,10.63,6.44,14.59,7.75,8.48,22.4,5.77,31.01-1.84,8.61-7.6,13.29-18.58,19.69-28.12,6.4-9.54,16.23-18.44,27.69-17.75,3.84.23,7.56,1.55,11.4,1.71,8.51.36,16.87-5.67,19.23-13.85.72-2.51.95-5.21,2.24-7.48,3.88-6.79,14.16-7.45,19.47-12.96,3.37-3.49,4.49-8.57,8.42-12.01,1.49-1.3,11.68-5.51,11.89-6.16,1.79-5.48-3.9-10.43-9.17-12.78-30.91-13.76-66.24-.04-99.75,4.65-32.92,4.61-64.42-2.9-97.02-2.62-17.98.16-48.26,4.49-41.55,29.55Z" style="fill:url(#uuid-82eaa38b-8ffd-44b8-8b23-0767930533e6); stroke-width:0px;"/><ellipse cx="2234.65" cy="2089.56" rx="134.43" ry="27.02" style="fill:#7d97f4; stroke-width:0px;"/><ellipse cx="2231.06" cy="2089.56" rx="110.67" ry="16.34" style="fill:url(#uuid-5f6c7883-eff2-4f71-91db-01cb896c7df0); stroke-width:0px;"/><path d="M768.68,2443.25H41.96c-23.17,0-41.96-18.79-41.96-41.96v-701.69c0-23.13,18.72-41.9,41.85-41.96l732.54-1.97c23.3-.06,42.2,18.88,42.07,42.18l-5.81,703.65c-.12,23.09-18.87,41.74-41.96,41.74Z" style="fill:#7d97f4; stroke-width:0px;"/><path d="M733.07,1709.38l-649.81,4c-23.49.14-42.42,19.28-42.31,42.77l4.53,590.16c.11,23.13,18.67,41.95,41.8,42.37l631.37,11.52c23.58.43,43.02-18.39,43.35-41.97l13.9-605.68c.33-23.85-18.98-43.32-42.83-43.17Z" style="fill:#bdd0fb; stroke-width:0px;"/><rect x="180.5" y="1751.38" width="526.15" height="29.95" rx="12.74" ry="12.74" style="fill:#fff; opacity:.6; stroke-width:0px;"/><path d="M650.79,1820.46h0c-.36,6.67-5.81,11.92-12.49,12.05l-437.86,7.98c-7.12.13-12.97-5.61-12.97-12.73v-1.04c0-6.96,5.58-12.63,12.53-12.74l437.86-6.94c7.38-.12,13.32,6.05,12.92,13.42Z" style="fill:#fff; opacity:.6; stroke-width:0px;"/><path d="M695.48,2366.83c-.15,0-.29,0-.44,0l-592.24-7.11c-9.74-.12-18.84-4.03-25.62-11.03-6.78-6.99-10.41-16.21-10.23-25.95l15.24-416.74c.18-9.59,4.13-18.63,11.12-25.35,6.99-6.72,16.32-10.3,25.87-10.13l591.2,11.51c19.97.39,35.93,16.96,35.58,36.93,0,.03,0,.07,0,.1l-14.21,412.24c-.35,19.64-16.58,35.54-36.28,35.54ZM118.47,1882.58c-6.29,0-12.23,2.39-16.78,6.77-4.66,4.49-7.3,10.52-7.42,16.99l-15.24,416.74c-.12,6.39,2.3,12.54,6.82,17.21,4.53,4.67,10.6,7.28,17.1,7.36l592.23,7.11c.1,0,.19,0,.29,0,13.14,0,23.97-10.61,24.21-23.78l14.21-412.29c.21-13.3-10.43-24.33-23.74-24.59l-591.2-11.51c-.16,0-.32,0-.48,0ZM739.94,1918.84h.03-.03Z" style="fill:#fff; stroke-width:0px;"/><path d="M732.26,1962.97H87.28c-3.33,0-6.04-2.7-6.04-6.04s2.7-6.04,6.04-6.04h644.99c3.33,0,6.04,2.7,6.04,6.04s-2.7,6.04-6.04,6.04Z" style="fill:#fff; stroke-width:0px;"/><path d="M494.43,501.23c-.64.58-1.46.96-2.39,1.04-2.26.2-4.24-1.47-4.44-3.73-.47-5.48-.85-11.04-1.12-16.51-.11-2.26,1.64-4.18,3.9-4.3,2.26-.11,4.19,1.63,4.3,3.9.26,5.37.63,10.83,1.1,16.2.11,1.33-.42,2.57-1.34,3.4Z" style="fill:url(#uuid-7cb1c1ca-3c33-4fda-844a-aebe2ad37aec); stroke-width:0px;"/><path d="M1181.21,118.07c-1.42,1.28-3.6,1.43-5.2.24-8.89-6.62-18.16-12.98-27.55-18.87-1.92-1.21-2.5-3.74-1.29-5.66,1.18-1.94,3.74-2.5,5.65-1.29,9.57,6.02,19.02,12.49,28.09,19.24,1.82,1.35,2.19,3.92.84,5.74-.16.22-.35.42-.54.6ZM1105.26,72.89c-1.18,1.07-2.93,1.39-4.47.68-10.04-4.64-20.41-8.96-30.84-12.82-2.13-.79-3.21-3.15-2.42-5.27.78-2.13,3.15-3.21,5.27-2.42,10.63,3.94,21.21,8.34,31.44,13.07,2.06.95,2.95,3.39,2,5.45-.24.52-.58.96-.97,1.32ZM1021.67,44.17c-.97.87-2.32,1.27-3.68.95-10.82-2.53-21.85-4.66-32.79-6.34-2.24-.34-3.78-2.44-3.43-4.68.34-2.23,2.43-3.78,4.67-3.43,11.15,1.71,22.39,3.88,33.42,6.46,2.2.51,3.57,2.72,3.06,4.93-.2.85-.64,1.57-1.24,2.11ZM494.17,430.12c-.81.73-1.9,1.14-3.08,1.04-2.26-.18-3.94-2.16-3.76-4.41.9-11.25,2.25-22.62,4.03-33.8.35-2.23,2.45-3.76,4.7-3.41,2.24.36,3.76,2.46,3.41,4.7-1.74,10.97-3.07,22.12-3.95,33.16-.09,1.09-.59,2.04-1.34,2.72ZM934.03,32.95c-.75.68-1.76,1.08-2.85,1.05-11.07-.27-22.3-.1-33.36.5-2.26.12-4.2-1.61-4.32-3.87-.12-2.27,1.61-4.2,3.87-4.32,11.28-.62,22.73-.79,34.01-.51,2.26.06,4.06,1.94,4,4.2-.03,1.17-.55,2.22-1.35,2.95ZM510.17,343.18c-1.02.92-2.48,1.31-3.9.9-2.17-.63-3.42-2.91-2.79-5.09,3.17-10.88,6.8-21.74,10.78-32.29.79-2.12,3.17-3.19,5.28-2.39,2.12.8,3.19,3.16,2.39,5.28-3.9,10.35-7.46,21.01-10.57,31.69-.22.76-.64,1.4-1.19,1.9ZM845.97,39.93c-.54.49-1.23.84-2,.99-10.86,2-21.82,4.47-32.57,7.33-2.19.59-4.43-.72-5.02-2.91-.58-2.19.72-4.44,2.91-5.02,10.95-2.92,22.12-5.44,33.19-7.48,2.23-.41,4.37,1.06,4.78,3.29.27,1.45-.27,2.87-1.29,3.79ZM543.4,261.29c-1.24,1.12-3.11,1.41-4.67.58-2-1.06-2.76-3.55-1.7-5.55,5.31-9.98,11.08-19.88,17.15-29.41,1.21-1.91,3.75-2.47,5.66-1.26,1.91,1.22,2.47,3.75,1.26,5.66-5.95,9.35-11.61,19.05-16.82,28.85-.23.43-.53.81-.87,1.12ZM761.19,64.79c-.34.31-.74.57-1.2.75-10.26,4.19-20.48,8.84-30.4,13.82-2.02,1.02-4.49.2-5.51-1.82-1.02-2.02-.2-4.49,1.83-5.5,10.1-5.08,20.52-9.82,30.98-14.08,2.1-.86,4.49.15,5.35,2.24.67,1.65.2,3.47-1.05,4.6ZM683.22,106.37c-.14.13-.3.25-.46.36-9.19,6.17-18.26,12.8-26.97,19.7-1.78,1.41-4.35,1.11-5.76-.67-1.41-1.78-1.02-4.35.67-5.76,8.87-7.03,18.12-13.78,27.49-20.08,1.88-1.26,4.43-.76,5.69,1.12,1.15,1.72.84,3.99-.65,5.33ZM592.7,187.95c-1.49,1.35-3.78,1.42-5.37.1-1.74-1.45-1.97-4.04-.52-5.78,7.24-8.68,14.92-17.18,22.82-25.26,1.65-1.59,4.18-1.65,5.8-.07,1.62,1.58,1.65,4.18.07,5.8-7.75,7.93-15.28,16.27-22.38,24.78-.13.15-.26.29-.41.42Z" style="fill:url(#uuid-8e17a696-826a-4066-9419-8f11a6885746); stroke-width:0px;"/><path d="M1234.66,165.25c-1.64,1.48-4.17,1.4-5.71-.21-3.73-3.88-7.58-7.75-11.46-11.5-1.63-1.57-1.67-4.17-.1-5.8,1.61-1.57,4.17-1.67,5.8-.1,3.95,3.82,7.88,7.76,11.68,11.72,1.57,1.63,1.51,4.23-.12,5.8-.03.03-.06.06-.09.08Z" style="fill:url(#uuid-41f5376b-7de6-4753-93a4-7329b9f12bf9); stroke-width:0px;"/><path d="M1354.62,479.32c-.76.69-1.79,1.1-2.9,1.06-2.26-.08-4.03-1.99-3.95-4.25.2-5.42.29-10.89.28-16.24,0-2.26,1.83-4.1,4.09-4.11,2.27,0,4.11,1.83,4.11,4.1,0,5.46-.09,11.03-.29,16.56-.04,1.15-.56,2.18-1.35,2.9Z" style="fill:url(#uuid-7c396fa6-e532-4fa8-a784-d5e0cb741402); stroke-width:0px;"/><path d="M1212.88,783.59l-2.77,2.48c-1.7,1.5-4.29,1.34-5.79-.35-1.49-1.69-1.34-4.26.32-5.76,0,0,.02-.02.03-.03l2.71-2.42c7.19-6.49,14.26-13.32,21.02-20.31,1.62-1.59,4.17-1.67,5.8-.1,1.63,1.57,1.67,4.17.1,5.8-6.89,7.12-14.09,14.08-21.42,20.7ZM1167.68,819.21c-.14.12-.28.24-.43.34-9.16,6.28-18.7,12.29-28.33,17.86-1.96,1.13-4.47.46-5.6-1.5-1.14-1.96-.45-4.46,1.5-5.61,9.45-5.46,18.81-11.36,27.8-17.52,1.87-1.28,4.42-.8,5.7,1.06,1.17,1.71.87,4.01-.63,5.36ZM1269.03,722.07c-1.43,1.29-3.61,1.43-5.2.24-1.81-1.36-2.19-3.93-.83-5.74,6.55-8.74,12.82-17.85,18.66-27.05,1.21-1.93,3.74-2.48,5.66-1.27,1.91,1.21,2.48,3.74,1.27,5.66-5.95,9.38-12.34,18.66-19.01,27.58-.16.22-.34.41-.54.59ZM1091.38,860.93c-.33.3-.72.55-1.15.73-10.26,4.34-20.8,8.32-31.32,11.84-2.15.72-4.47-.44-5.19-2.59-.72-2.14.43-4.48,2.59-5.19,10.32-3.45,20.66-7.36,30.74-11.62,2.08-.88,4.49.1,5.37,2.18.7,1.65.23,3.5-1.03,4.64ZM1313.8,647.5c-1.19,1.07-2.95,1.39-4.49.67-2.05-.96-2.93-3.4-1.97-5.45,4.62-9.83,8.93-20.01,12.81-30.26.8-2.12,3.17-3.19,5.29-2.38,2.12.8,3.18,3.17,2.38,5.29-3.96,10.44-8.35,20.82-13.06,30.84-.24.51-.57.95-.96,1.3ZM1008.29,886.55c-.53.48-1.19.82-1.94.97-10.89,2.18-22.01,3.97-33.05,5.31-2.25.27-4.29-1.33-4.56-3.58-.28-2.25,1.33-4.29,3.58-4.57,10.83-1.32,21.75-3.07,32.43-5.21,2.22-.45,4.38.99,4.83,3.21.29,1.47-.24,2.92-1.28,3.86ZM1342.67,565.45c-.97.88-2.35,1.28-3.72.94-2.2-.53-3.55-2.76-3.02-4.95,2.58-10.61,4.78-21.44,6.54-32.21.37-2.24,2.47-3.75,4.71-3.38,2.23.36,3.75,2.48,3.38,4.71-1.8,10.97-4.04,22.01-6.67,32.82-.2.83-.65,1.54-1.24,2.07ZM921.76,894.91c-.73.66-1.7,1.06-2.77,1.05-11.09-.06-22.34-.56-33.45-1.48-2.26-.19-3.93-2.17-3.75-4.43.18-2.26,2.17-3.94,4.43-3.75,10.9.91,21.94,1.39,32.82,1.46,2.27.01,4.09,1.86,4.08,4.12,0,1.2-.53,2.28-1.36,3.02ZM835.32,885.62c-.94.85-2.26,1.25-3.6.97-8.55-1.8-17.19-3.9-25.67-6.22-2.28-.63-4.56-1.27-6.82-1.93-2.18-.64-3.42-2.91-2.79-5.09.63-2.18,2.91-3.42,5.08-2.79,2.22.65,4.45,1.28,6.69,1.89,8.32,2.28,16.8,4.34,25.19,6.11,2.22.47,3.63,2.64,3.17,4.86-.19.88-.64,1.64-1.26,2.2ZM752.43,859.29c-1.16,1.04-2.85,1.38-4.38.72-10.21-4.41-20.37-9.28-30.21-14.46-2-1.06-2.77-3.54-1.71-5.54,1.05-2,3.54-2.77,5.54-1.72,9.65,5.09,19.63,9.86,29.64,14.19,2.08.9,3.04,3.31,2.14,5.39-.24.56-.59,1.04-1.02,1.42ZM676.5,816.88c-1.39,1.25-3.5,1.43-5.1.31-9.1-6.38-18.07-13.2-26.67-20.27-1.75-1.44-2-4.02-.56-5.77,1.44-1.71,4.03-2,5.77-.56,8.43,6.94,17.24,13.64,26.16,19.89,1.85,1.3,2.31,3.86,1.01,5.71-.18.26-.39.49-.61.69Z" style="fill:url(#uuid-42e714ec-7ea1-4ced-a637-7aa4710516a9); stroke-width:0px;"/><path d="M610.6,759.89c-1.65,1.49-4.2,1.39-5.73-.23-3.75-3.97-7.49-8.1-11.13-12.25-1.49-1.71-1.13-4.3.39-5.79,1.71-1.49,4.3-1.32,5.79.39,3.57,4.08,7.24,8.13,10.92,12.03,1.56,1.65,1.48,4.24-.17,5.8-.02.02-.05.04-.07.06Z" style="fill:url(#uuid-0bdf24a5-2ed5-46a2-a4b3-dfa88b42e301); stroke-width:0px;"/><path d="M646.52,645.74c1.03,1.95,3.19,3.03,5.37,2.7l62.21-9.64c19.29,22.18,42.26,41.45,68.37,56.73l2.04,62.88c.07,2.21,1.53,4.12,3.64,4.77l72.15,22.28c2.11.65,4.4-.11,5.7-1.89l37.15-50.77c30.18,2.1,60.01-.85,88.46-8.29l45.94,43.04c1.61,1.51,4,1.83,5.95.8l66.77-35.26c1.95-1.03,3.03-3.19,2.7-5.37l-9.64-62.21c22.18-19.29,41.45-42.26,56.73-68.37l62.88-2.04c2.21-.07,4.12-1.53,4.77-3.64l22.28-72.15c.65-2.11-.11-4.4-1.89-5.7l-50.77-37.15c2.1-30.18-.85-60.01-8.29-88.46l43.05-45.94c1.51-1.61,1.83-4,.8-5.95l-35.26-66.77c-1.03-1.95-3.19-3.03-5.37-2.7l-62.21,9.64c-19.29-22.18-42.26-41.45-68.37-56.73l-2.04-62.88c-.07-2.2-1.53-4.12-3.64-4.77l-72.15-22.28c-2.11-.65-4.4.11-5.7,1.89l-37.15,50.77c-30.18-2.1-60.01.85-88.46,8.29l-45.93-43.04c-1.61-1.51-4-1.83-5.95-.8l-66.77,35.26c-1.95,1.03-3.03,3.18-2.7,5.37l9.64,62.21c-22.18,19.29-41.45,42.26-56.73,68.37l-62.88,2.04c-2.2.07-4.12,1.53-4.77,3.64l-22.28,72.15c-.65,2.11.11,4.4,1.89,5.7l50.77,37.15c-2.1,30.18.86,60.01,8.29,88.46l-43.04,45.94c-1.51,1.61-1.83,4-.8,5.95l35.26,66.77Z" style="fill:url(#uuid-cc04a578-7763-47e1-9ee9-39a71fef7db7); stroke-width:0px;"/><path d="M971.11,511.9s-.03.03-.05.05c-14.53,13.08-33.28,19.73-52.81,18.7-19.53-1.02-37.49-9.59-50.57-24.11-13.09-14.53-19.73-33.29-18.71-52.81,2.11-40.31,36.62-71.39,76.93-69.27,19.53,1.02,37.49,9.59,50.57,24.11,13.09,14.53,19.73,33.29,18.71,52.81-1.02,19.5-9.56,37.44-24.06,50.52ZM881.28,412.34c-12.06,10.88-19.17,25.81-20.02,42.03-.85,16.25,4.67,31.85,15.56,43.93,10.88,12.09,25.83,19.21,42.07,20.06,16.24.85,31.85-4.68,43.93-15.56.01-.01.03-.03.04-.04,12.06-10.88,19.17-25.81,20.02-42.03.85-16.24-4.67-31.85-15.56-43.93-10.88-12.09-25.83-19.21-42.07-20.06-16.24-.85-31.85,4.68-43.93,15.56-.01.01-.03.03-.04.04Z" style="fill:#fff; opacity:.7; stroke-width:0px;"/><path d="M1049.8,596.29c-47.7,43.04-116.24,60.65-181.96,40.36-12.84-3.97-25.24-9.28-36.85-15.81l6.03-10.73c10.86,6.1,22.45,11.07,34.45,14.78,72.87,22.5,149.46-4.85,192.82-62.6.08-.11.16-.22.24-.32.08-.11.16-.22.25-.33,11.61-15.6,20.79-33.39,26.85-53,13.88-44.93,9.43-92.57-12.53-134.16-6.96-13.18-15.41-25.25-25.14-36.03-20.98-23.24-47.89-40.5-78.58-49.98-92.75-28.65-191.52,23.51-220.16,116.25-9.42,30.5-10.4,62.91-2.84,93.73l-11.95,2.93c-8.09-32.98-7.04-67.66,3.03-100.29,30.66-99.22,136.32-155.03,235.55-124.38,32.84,10.14,61.63,28.6,84.07,53.47,10.41,11.54,19.46,24.45,26.9,38.55,23.49,44.49,28.26,95.47,13.41,143.54-10.35,33.51-29.26,62.08-53.59,84.02Z" style="fill:#fff; opacity:.7; stroke-width:0px;"/><path d="M1341.8,576.35c-.55-.38-.99-.93-1.22-1.61-.56-1.67.33-3.48,2-4.04,4.08-1.38,8.25-2.63,12.4-3.74,1.7-.45,3.44.56,3.9,2.26.45,1.7-.56,3.45-2.26,3.9-4.02,1.07-8.05,2.29-12,3.62-.99.33-2.02.16-2.82-.39Z" style="fill:url(#uuid-dbe0d9c6-b6ad-4d22-a849-612f8dfb8cc3); stroke-width:0px;"/><path d="M1596.04,820.28c-1.11-.76-1.66-2.16-1.27-3.52,2.43-8.37,4.32-16.99,5.61-25.63.26-1.74,1.88-2.94,3.62-2.68,1.74.26,2.94,1.88,2.68,3.62-1.33,8.92-3.28,17.83-5.8,26.47-.49,1.69-2.26,2.66-3.95,2.17-.33-.1-.64-.24-.91-.43ZM1603.48,750.98c-.78-.53-1.32-1.4-1.39-2.42-.59-8.72-1.78-17.47-3.53-26-.35-1.73.76-3.41,2.48-3.76,1.72-.35,3.41.76,3.76,2.48,1.81,8.8,3.03,17.84,3.64,26.85.12,1.76-1.21,3.28-2.96,3.4-.74.05-1.44-.16-2.01-.55ZM1396.8,566.17c-.81-.55-1.35-1.46-1.39-2.5-.07-1.76,1.29-3.24,3.05-3.31,4.8-.2,9.68-.23,14.53-.09,4.19.12,8.41.38,12.56.75,1.76.16,3.05,1.71,2.88,3.47-.16,1.75-1.71,3.04-3.46,2.88-4.02-.37-8.11-.61-12.17-.73-4.7-.14-9.43-.11-14.08.08-.71.03-1.38-.18-1.93-.55ZM1586.6,683.38c-.47-.32-.86-.77-1.11-1.33-3.57-7.95-7.72-15.74-12.33-23.15-.93-1.5-.47-3.46,1.02-4.39,1.5-.93,3.45-.47,4.39,1.02,4.76,7.66,9.05,15.7,12.73,23.91.72,1.61,0,3.49-1.6,4.21-1.05.47-2.22.33-3.1-.27ZM1465.89,575.41c-1.14-.77-1.68-2.23-1.24-3.6.54-1.68,2.33-2.6,4.01-2.07,8.57,2.74,17.05,6.1,25.19,9.98,1.59.75,2.26,2.66,1.51,4.25-.76,1.59-2.66,2.26-4.25,1.51-7.89-3.76-16.09-7.01-24.4-9.66-.3-.1-.58-.23-.82-.4ZM1547.36,625.8c-.17-.12-.34-.25-.49-.41-6.11-6.25-12.68-12.14-19.55-17.5-1.39-1.08-1.63-3.09-.55-4.48,1.08-1.38,3.07-1.56,4.47-.55,7.09,5.54,13.88,11.62,20.19,18.07,1.23,1.26,1.21,3.28-.05,4.51-1.1,1.08-2.79,1.19-4.02.36Z" style="fill:url(#uuid-7ec8f324-8893-4a67-a319-398aa806dfd9); stroke-width:0px;"/><path d="M1572.87,871.37c-1.42-.97-1.82-2.89-.89-4.35,2.24-3.52,4.4-7.14,6.4-10.78.85-1.54,2.79-2.1,4.33-1.25,1.62.8,2.1,2.79,1.25,4.33-2.07,3.76-4.29,7.5-6.61,11.13-.95,1.48-2.92,1.92-4.4.97-.03-.02-.05-.04-.08-.06Z" style="fill:url(#uuid-0d9f3ff5-d91e-46fa-9783-8a3f7939ac17); stroke-width:0px;"/><path d="M1440.15,960.26c-.68-.47-1.19-1.2-1.34-2.08-.31-1.73.85-3.38,2.58-3.69,4.1-.72,8.23-1.59,12.27-2.58,1.71-.42,3.43.63,3.85,2.34.42,1.71-.63,3.43-2.34,3.85-4.17,1.02-8.43,1.92-12.67,2.67-.85.15-1.69-.05-2.35-.51Z" style="fill:url(#uuid-6195c918-d185-4660-b775-a914350a3c7d); stroke-width:0px;"/><path d="M1307.01,937.34c-1.36-.93-1.8-2.76-.97-4.21.87-1.53,2.82-2.06,4.35-1.19,7.45,4.25,15.26,8.04,23.22,11.27,1.65.66,2.42,2.52,1.76,4.15-.66,1.63-2.52,2.42-4.15,1.76-8.22-3.33-16.28-7.25-23.98-11.64-.07-.04-.15-.09-.22-.14ZM1272.5,912.42c-.12-.08-.23-.17-.34-.27-6.59-5.93-12.85-12.35-18.6-19.09-1.14-1.34-.98-3.35.35-4.49,1.34-1.14,3.36-.98,4.49.35,5.57,6.52,11.63,12.74,18.02,18.48,1.31,1.18,1.42,3.19.24,4.5-1.08,1.2-2.86,1.39-4.16.5ZM1371.57,960.45c-1-.68-1.56-1.9-1.35-3.17.3-1.73,1.94-2.9,3.68-2.6,8.44,1.44,17.08,2.34,25.68,2.67,1.76.06,3.13,1.54,3.06,3.31-.07,1.76-1.55,3.13-3.31,3.06-8.88-.34-17.8-1.26-26.51-2.75-.47-.08-.89-.26-1.26-.51ZM1230.15,858.5c-.41-.28-.76-.66-1.01-1.12-4.2-7.82-7.91-15.98-11.03-24.26-.62-1.65.21-3.49,1.86-4.11,1.65-.62,3.49.21,4.1,1.86,3.02,8.02,6.61,15.92,10.68,23.49.83,1.55.25,3.49-1.3,4.32-1.08.58-2.35.47-3.31-.18ZM1208.68,793.39c-.71-.49-1.23-1.26-1.36-2.18-1.27-8.74-1.97-17.68-2.08-26.56-.02-1.76,1.39-3.2,3.15-3.23,1.76-.02,3.2,1.39,3.23,3.15.11,8.61.78,17.26,2.01,25.73.25,1.74-.95,3.36-2.69,3.61-.82.12-1.62-.09-2.25-.52ZM1210.62,724.85c-1.03-.7-1.59-1.97-1.33-3.27,1.77-8.69,4.13-17.35,7.03-25.71.58-1.66,2.39-2.54,4.05-1.97,1.67.57,2.54,2.39,1.97,4.05-2.81,8.1-5.1,16.48-6.81,24.9-.35,1.73-2.03,2.84-3.76,2.49-.43-.09-.82-.26-1.16-.49Z" style="fill:url(#uuid-221df590-8d44-4a31-a0e3-01d422b9d20d); stroke-width:0px;"/><path d="M1235.81,660.93c-1.4-.95-1.81-2.84-.92-4.3,2.25-3.67,4.65-7.3,7.12-10.81,1-1.42,2.96-1.78,4.4-.8.01,0,.03.02.04.03,1.44,1.01,1.78,3,.77,4.44-2.4,3.4-4.72,6.92-6.9,10.47-.92,1.5-2.88,1.97-4.38,1.05-.04-.03-.09-.06-.13-.09Z" style="fill:url(#uuid-97bbf657-b49d-4aad-b8f8-30c296732561); stroke-width:0px;"/><path d="M1294.35,659.14c-.76.67-1.01,1.76-.62,2.7l11.09,26.82c-7.84,11.06-13.97,23.44-17.97,36.8l-27.94,7.76c-.98.27-1.68,1.14-1.74,2.15l-2.13,34.74c-.06,1.02.53,1.96,1.47,2.35l26.79,11.11c2.34,13.75,6.91,26.79,13.34,38.72l-14.28,25.26c-.5.89-.38,1.99.29,2.75l23.06,26.07c.67.76,1.76,1.01,2.7.62l26.82-11.09c11.06,7.84,23.44,13.97,36.8,17.97l7.76,27.94c.27.98,1.14,1.68,2.15,1.74l34.74,2.13c1.02.06,1.96-.53,2.35-1.47l11.11-26.79c13.75-2.34,26.79-6.91,38.72-13.34l25.26,14.28c.89.5,1.99.38,2.75-.29l26.07-23.06c.76-.67,1.01-1.76.62-2.7l-11.09-26.82c7.84-11.06,13.97-23.44,17.97-36.8l27.94-7.76c.98-.27,1.68-1.14,1.74-2.15l2.13-34.74c.06-1.02-.53-1.96-1.47-2.35l-26.79-11.11c-2.34-13.75-6.91-26.79-13.34-38.72l14.28-25.26c.5-.89.38-1.99-.29-2.75l-23.06-26.07c-.67-.76-1.76-1.01-2.7-.62l-26.82,11.09c-11.06-7.84-23.44-13.97-36.8-17.97l-7.76-27.94c-.27-.98-1.14-1.68-2.15-1.74l-34.74-2.13c-1.02-.06-1.96.53-2.35,1.47l-11.11,26.79c-13.75,2.34-26.79,6.91-38.72,13.34l-25.26-14.28c-.89-.5-1.99-.38-2.75.29l-26.07,23.06Z" style="fill:url(#uuid-f1b2cb14-919b-44c5-a895-07bcbbd43ef0); stroke-width:0px;"/><path d="M1388.54,791.58s-.02-.01-.03-.02c-7.87-5.37-13.18-13.5-14.94-22.87-1.76-9.37.23-18.86,5.6-26.73,5.38-7.87,13.5-13.18,22.87-14.94,19.34-3.64,38.03,9.13,41.67,28.47,1.76,9.37-.23,18.86-5.6,26.73-5.38,7.87-13.5,13.18-22.87,14.94-9.36,1.76-18.84-.22-26.71-5.58ZM1423.36,740.51c-5.52-3.77-12.47-5.43-19.55-4.1-6.86,1.29-12.8,5.18-16.74,10.94-3.94,5.76-5.4,12.72-4.1,19.57,1.29,6.86,5.18,12.8,10.94,16.74,0,0,.01,0,.02.01,5.76,3.93,12.7,5.38,19.55,4.09,6.86-1.29,12.8-5.17,16.74-10.94,3.94-5.76,5.4-12.72,4.1-19.57-1.33-7.09-5.43-12.97-10.96-16.74Z" style="fill:#fff; opacity:.7; stroke-width:0px;"/><path d="M1359.31,836.01c-25.02-17.06-40.72-46.49-38.73-78.84.34-5.6,1.21-11.16,2.58-16.56.18-.69.36-1.38.56-2.07l9.2,2.58c-1.51,5.39-2.45,10.99-2.8,16.63h0c-.38,6.26-.02,12.4,1,18.32,0,.02,0,.03.01.05,0,.03.01.06.01.09,4.6,26.38,22.37,48.62,46.64,59.11,6.28,2.72,13,4.66,20.03,5.67.23.03.45.07.68.1.18.02.37.05.55.07.47.06.94.12,1.42.17,1.28.14,2.58.25,3.88.33,21.12,1.3,41.48-5.71,57.33-19.73,5.02-4.44,9.4-9.42,13.08-14.82,7.93-11.64,12.62-25.24,13.5-39.67,1.29-21.12-5.71-41.48-19.73-57.33-14.01-15.85-33.37-25.29-54.49-26.58-14.33-.88-28.61,2.13-41.28,8.71l-4.4-8.49c14.21-7.38,30.21-10.76,46.27-9.77,23.67,1.45,45.35,12.03,61.06,29.79,15.71,17.76,23.56,40.58,22.11,64.25-.99,16.17-6.24,31.41-15.13,44.45-4.12,6.05-9.03,11.63-14.66,16.61-17.76,15.71-40.58,23.56-64.24,22.11-16.5-1.01-31.68-6.5-44.44-15.19Z" style="fill:#fff; opacity:.7; stroke-width:0px;"/><path d="M1852.85,289.68c-.85-.52-1.44-1.44-1.49-2.51-.19-4.13-.48-8.26-.84-12.29-.15-1.71,1.11-3.23,2.82-3.38,1.71-.15,3.23,1.11,3.38,2.82.37,4.12.66,8.34.86,12.55.08,1.72-1.25,3.18-2.96,3.26-.65.03-1.26-.14-1.77-.45Z" style="fill:#91b3fa; stroke-width:0px;"/><path d="M1399.54,557.94c-6.2-3.79-12.33-7.86-18.22-12.08-1.4-1-1.72-2.95-.72-4.34,1-1.39,2.93-1.74,4.34-.72,6.77,4.86,13.86,9.48,21.06,13.77.01,0,.02.01.03.02,1.45.89,1.92,2.78,1.05,4.25-.88,1.48-2.79,1.96-4.27,1.08-1.1-.66-2.2-1.32-3.29-1.98ZM1439.67,578.47c-1.29-.79-1.85-2.42-1.25-3.86.66-1.59,2.49-2.33,4.08-1.67,7.7,3.22,15.64,6.16,23.6,8.73,1.65.52,2.54,2.28,2.01,3.92-.53,1.63-2.28,2.54-3.92,2.01-8.13-2.62-16.23-5.62-24.09-8.91-.15-.06-.29-.14-.43-.22ZM1503.6,597.25c-1.06-.65-1.67-1.9-1.44-3.2.3-1.69,1.91-2.82,3.61-2.52,8.24,1.46,16.63,2.57,24.93,3.32,1.71.15,2.98,1.67,2.82,3.38-.15,1.71-1.67,2.98-3.38,2.82-8.48-.76-17.04-1.91-25.46-3.39-.39-.07-.76-.21-1.08-.41ZM1570.07,601.43c-.85-.52-1.44-1.43-1.49-2.5-.09-1.72,1.24-3.18,2.96-3.26,8.33-.41,16.75-1.2,25.04-2.33,1.7-.23,3.28.96,3.51,2.66.23,1.7-.96,3.27-2.66,3.51-8.46,1.16-17.07,1.96-25.57,2.38-.65.03-1.26-.14-1.78-.45ZM1635.77,590.66c-.64-.39-1.15-1.02-1.37-1.81-.47-1.65.5-3.38,2.15-3.84,8.03-2.26,16.07-4.91,23.89-7.85,1.61-.6,3.41.21,4.01,1.82.61,1.61-.21,3.41-1.82,4.01-7.99,3.01-16.2,5.71-24.4,8.02-.87.25-1.76.09-2.47-.34ZM1697.47,565.54c-.45-.28-.84-.67-1.11-1.17-.82-1.51-.26-3.4,1.25-4.22,7.35-4,14.61-8.35,21.57-12.94,1.44-.95,3.37-.55,4.31.89.95,1.43.55,3.37-.88,4.31-7.11,4.69-14.52,9.13-22.02,13.22-1.01.55-2.2.48-3.12-.08ZM1752.09,527.41c-.26-.16-.5-.36-.72-.6-1.13-1.29-1.01-3.26.28-4.39,6.28-5.52,12.39-11.37,18.17-17.4,1.19-1.24,3.15-1.28,4.4-.09,1.24,1.19,1.28,3.16.09,4.4-5.9,6.16-12.15,12.13-18.55,17.77-1.05.92-2.55,1.01-3.68.32ZM1796.89,478.1c-.07-.04-.13-.09-.2-.13-1.39-1.01-1.71-2.95-.7-4.35,4.32-5.99,8.46-12.21,12.3-18.49.51-.84,1.02-1.68,1.53-2.52.88-1.48,2.79-1.96,4.27-1.08.01,0,.02.01.03.02,1.45.89,1.93,2.79,1.05,4.25-.52.86-1.04,1.72-1.56,2.58-3.93,6.42-8.15,12.77-12.56,18.88-.96,1.33-2.77,1.68-4.15.84ZM1829.53,420.02c-1.29-.79-1.85-2.43-1.24-3.86,3.24-7.68,6.2-15.61,8.79-23.58.53-1.64,2.29-2.53,3.92-2,1.63.55,2.53,2.29,2,3.92-2.65,8.13-5.67,16.23-8.98,24.07-.67,1.59-2.5,2.33-4.08,1.66-.14-.06-.28-.14-.42-.22ZM1848.49,356.15c-1.06-.65-1.67-1.9-1.44-3.21,1.48-8.25,2.62-16.63,3.39-24.93.16-1.71,1.67-2.97,3.39-2.81,1.71.16,2.97,1.67,2.81,3.39-.78,8.47-1.95,17.03-3.46,25.45-.3,1.69-1.92,2.82-3.62,2.52-.39-.07-.75-.21-1.07-.41Z" style="fill:#91b3fa; stroke-width:0px;"/><path d="M1349.6,519.53c-.19-.11-.37-.25-.53-.41-3.06-2.92-6.06-5.91-8.91-8.87-1.19-1.24-1.16-3.21.08-4.4,1.24-1.2,3.21-1.15,4.4.08,2.8,2.9,5.73,5.83,8.73,8.69,1.24,1.19,1.29,3.16.1,4.4-1.03,1.08-2.65,1.26-3.87.51Z" style="fill:#91b3fa; stroke-width:0px;"/><path d="M1257.16,305.14c-.89-.55-1.49-1.52-1.49-2.65-.02-4.15.06-8.38.21-12.58.06-1.72,1.51-3.06,3.23-2.99,1.72.07,3.06,1.51,2.99,3.23-.16,4.11-.23,8.26-.21,12.32,0,1.72-1.38,3.12-3.1,3.13-.6,0-1.16-.16-1.64-.46Z" style="fill:#91b3fa; stroke-width:0px;"/><path d="M1261.7,252.29c-1.06-.65-1.67-1.9-1.44-3.2,1.45-8.24,3.28-16.55,5.43-24.68.44-1.66,2.14-2.66,3.81-2.22,1.66.45,2.66,2.14,2.22,3.81-2.1,7.97-3.89,16.11-5.32,24.18-.3,1.69-1.91,2.82-3.61,2.52-.4-.07-.76-.21-1.08-.41ZM1280.04,189.35c-1.28-.79-1.84-2.41-1.25-3.85,3.22-7.77,6.8-15.48,10.65-22.93.79-1.53,2.67-2.12,4.19-1.33,1.55.8,2.13,2.67,1.34,4.2-3.77,7.29-7.28,14.84-10.43,22.45-.66,1.59-2.48,2.34-4.07,1.69-.15-.06-.3-.14-.44-.22ZM1311.69,131.93c-.06-.04-.12-.07-.17-.11-1.4-.99-1.74-2.94-.75-4.34,4.84-6.85,10.03-13.58,15.44-20.01,1.11-1.32,3.07-1.48,4.39-.38,1.32,1.11,1.49,3.07.38,4.39-5.3,6.3-10.38,12.89-15.12,19.6-.95,1.35-2.78,1.71-4.17.86ZM1355.19,82.89c-.25-.15-.48-.34-.69-.57-1.15-1.28-1.05-3.24.22-4.4,6.22-5.63,12.77-11.06,19.45-16.14,1.37-1.04,3.32-.78,4.36.59,1.04,1.37.78,3.32-.59,4.36-6.54,4.98-12.95,10.3-19.05,15.81-1.05.95-2.56,1.05-3.71.35ZM1408.34,44.54c-.44-.27-.81-.64-1.08-1.12-.85-1.5-.32-3.4,1.17-4.24,7.3-4.14,14.87-8.01,22.49-11.53,1.56-.72,3.41-.04,4.13,1.53.72,1.56.04,3.41-1.52,4.13-7.47,3.44-14.88,7.24-22.03,11.29-1.02.58-2.23.52-3.16-.06ZM1468.56,18.67c-.63-.38-1.12-.99-1.35-1.75-.5-1.65.43-3.39,2.07-3.89,8.03-2.45,16.26-4.58,24.46-6.34,1.68-.36,3.34.71,3.7,2.39.36,1.68-.71,3.34-2.39,3.7-8.02,1.73-16.08,3.81-23.95,6.21-.89.27-1.8.12-2.53-.32ZM1532.96,6.6c-.83-.51-1.4-1.39-1.48-2.43-.13-1.71,1.16-3.21,2.87-3.34,8.38-.63,16.88-.9,25.26-.82,1.72.02,3.1,1.43,3.08,3.14-.02,1.72-1.43,3.1-3.15,3.08-8.21-.08-16.53.19-24.73.8-.68.05-1.32-.12-1.86-.45ZM1598.45,8.98c-1.03-.63-1.64-1.84-1.46-3.11.25-1.7,1.84-2.88,3.54-2.62,8.28,1.23,16.63,2.82,24.82,4.74,1.68.38,2.71,2.07,2.32,3.74-.39,1.67-2.07,2.71-3.74,2.32-8.03-1.88-16.21-3.44-24.31-4.64-.43-.06-.82-.21-1.17-.42ZM1661.86,25.58c-1.26-.77-1.83-2.34-1.28-3.77.62-1.61,2.41-2.41,4.02-1.8,7.87,3.01,15.67,6.38,23.21,10.01,1.54.77,2.2,2.61,1.45,4.16-.75,1.55-2.61,2.2-4.16,1.45-7.38-3.56-15.03-6.86-22.73-9.8-.18-.07-.35-.16-.51-.25ZM1740.37,70.31c-.11-.07-.21-.14-.32-.22-6.44-5.11-13.18-10.01-20.02-14.56-1.43-.95-1.82-2.88-.87-4.32.95-1.43,2.87-1.86,4.32-.87,6.99,4.64,13.86,9.64,20.44,14.87,1.35,1.07,1.57,3.03.5,4.37-.99,1.24-2.74,1.53-4.06.72Z" style="fill:#91b3fa; stroke-width:0px;"/><path d="M1778.91,106.99c-.26-.16-.5-.36-.72-.6-2.72-3.1-5.52-6.15-8.32-9.08-1.19-1.24-1.14-3.21.1-4.4,1.25-1.19,3.21-1.15,4.4.1,2.86,2.99,5.72,6.11,8.49,9.27,1.13,1.29,1.01,3.26-.28,4.39-1.05.93-2.55,1.01-3.68.32Z" style="fill:#91b3fa; stroke-width:0px;"/><path d="M1746.34,172.83c-.72-1.35-2.21-2.09-3.71-1.86l-42.99,6.77c-13.38-15.3-29.29-28.59-47.36-39.11l-1.52-43.47c-.05-1.52-1.07-2.85-2.53-3.29l-49.92-15.29c-1.46-.45-3.04.08-3.94,1.31l-25.6,35.16c-20.87-1.4-41.49.69-61.14,5.88l-31.83-29.68c-1.12-1.04-2.77-1.26-4.12-.54l-46.11,24.49c-1.35.72-2.09,2.21-1.86,3.71l6.77,42.99c-15.3,13.38-28.59,29.29-39.11,47.36l-43.47,1.52c-1.52.05-2.85,1.07-3.29,2.53l-15.29,49.92c-.45,1.46.08,3.04,1.31,3.94l35.16,25.6c-1.4,20.87.69,41.49,5.88,61.14l-29.69,31.83c-1.04,1.12-1.26,2.77-.54,4.12l24.48,46.11c.72,1.35,2.21,2.09,3.71,1.86l42.99-6.77c13.37,15.3,29.29,28.59,47.36,39.11l1.51,43.47c.05,1.52,1.07,2.85,2.53,3.29l49.92,15.29c1.46.45,3.04-.08,3.94-1.32l25.6-35.16c20.87,1.4,41.49-.69,61.14-5.88l31.83,29.68c1.12,1.04,2.77,1.26,4.12.54l46.11-24.48c1.35-.72,2.09-2.21,1.86-3.71l-6.77-42.99c15.3-13.38,28.59-29.29,39.11-47.36l43.47-1.51c1.52-.05,2.85-1.07,3.29-2.53l15.29-49.92c.45-1.46-.08-3.04-1.31-3.94l-35.16-25.6c1.4-20.87-.69-41.49-5.88-61.14l29.68-31.83c1.04-1.12,1.26-2.77.54-4.12l-24.49-46.11Z" style="fill:#7d97f4; stroke-width:0px;"/><path d="M1529.56,346.98c-4.13-2.53-7.92-5.66-11.26-9.35-9.14-10.11-13.81-23.17-13.12-36.78.68-13.61,6.62-26.14,16.73-35.29,10.11-9.15,23.17-13.81,36.78-13.13,13.61.68,26.15,6.62,35.29,16.73,9.14,10.11,13.81,23.17,13.12,36.78-.68,13.61-6.62,26.14-16.73,35.29-10.11,9.15-23.17,13.81-36.78,13.13-8.64-.43-16.85-2.99-24.03-7.38ZM1577.85,267.79c-5.87-3.59-12.57-5.67-19.64-6.03h0c-11.12-.56-21.79,3.25-30.05,10.72-8.26,7.47-13.11,17.71-13.66,28.83-.56,11.12,3.25,21.79,10.72,30.05,7.47,8.26,17.71,13.11,28.83,13.66,11.12.56,21.79-3.25,30.05-10.72,8.26-7.47,13.11-17.71,13.66-28.83.56-11.12-3.25-21.79-10.72-30.05-2.73-3.01-5.82-5.57-9.2-7.64ZM1558.45,257.1l.03.02-.03-.02Z" style="fill:#91b3fa; stroke-width:0px;"/><path d="M1487.04,415.46c-49.64-30.36-74.56-91.58-56.75-149.73,3.29-10.73,7.84-20.73,13.44-29.89,30.36-49.64,91.59-74.57,149.74-56.77,1.04.32,2.09.66,3.12,1,6.99,2.33,13.77,5.24,20.21,8.68.75.4,1.5.81,2.25,1.22l-4.56,8.16c-7.48-4.18-15.47-7.59-23.76-10.13-.08-.03-.16-.05-.23-.07-63.89-19.43-131.71,16.66-151.27,80.53-19.59,63.95,16.5,131.91,80.46,151.5,53.99,16.54,110.84-6.61,139.03-52.71,5.2-8.51,9.43-17.79,12.48-27.75,6.44-21.02,7.06-43.36,1.81-64.59l9.07-2.25c5.67,22.87,5,46.92-1.94,69.57-3.29,10.73-7.84,20.73-13.44,29.89-30.36,49.64-91.59,74.57-149.74,56.77-10.73-3.29-20.74-7.84-29.9-13.45Z" style="fill:#91b3fa; stroke-width:0px;"/><path d="M811.83,910.96l-29.19,28.79c-41.44-3.98-73.38-16.88-97.91-33.23,14.76-36.71,29.75-58.48,41.53-71.24,38.58,54.26,85.57,75.69,85.57,75.69Z" style="fill:url(#uuid-c6adc968-70f1-475c-82c3-69810f3dfc7a); stroke-width:0px;"/><path d="M608.62,803.24l68.9-107.72c4.52,60.76,25.05,106.44,48.74,139.75-11.78,12.76-26.77,34.53-41.53,71.24-61.21-40.81-76.1-103.28-76.1-103.28Z" style="fill:url(#uuid-62d46c1e-ff26-4f0d-9d1c-261bc85eb950); stroke-width:0px;"/><path d="M535.35,1654.61c34.35,1.58,67.6.59,89.8-.55-20.21-14.39-66.78-45.69-105.74-58.15l-26.75-1.6s-9.06,13.78-12.3,45.33c4.43,5.53,17.39,13.24,54.99,14.97Z" style="fill:url(#uuid-2e10b52b-e776-4c1b-8ec7-a180ab00a80f); stroke-width:0px;"/><path d="M625.43,1654.25c-.09-.06-.19-.13-.28-.2-22.2,1.14-55.45,2.13-89.8.55-37.6-1.73-50.56-9.44-54.99-14.97-.15,1.45-.3,2.9-.42,4.43-.56,6.92,4.58,13,11.51,13.52,28.13,2.13,97.88,6.94,131.52,5.18,4.44-.23,6.08-5.93,2.46-8.51Z" style="fill:url(#uuid-ebaf4f7f-29cb-481d-a723-04d9e6122d33); stroke-width:0px;"/><path d="M289.67,1645.42c-2.52-16.13-6.55-39.44-9.67-45.4-4.89-9.35-21.63,0-21.63,0,0,0-11.75,5.48-17.16,14.61-3.45,5.82-12.98,22.38-19.44,33.63-.74,1.29-1.05,2.67-1.01,4l67.02,2.35c1.64-2.63,2.41-5.84,1.88-9.19Z" style="fill:url(#uuid-f9609b0e-596c-497c-a0dc-efdad667bac1); stroke-width:0px;"/><path d="M220.77,1652.26c.11,3.83,3.15,7.3,7.43,7.42l47.75,1.31c5.04.14,9.41-2.48,11.85-6.39l-67.02-2.35Z" style="fill:url(#uuid-ca259663-c15e-4ef3-a667-18976b7fe4b7); stroke-width:0px;"/><path d="M294.79,1546.42c-.58,1.93-9.24,43.92-13.03,62.34-1.05,5.09-5.64,8.67-10.83,8.41-2.84-.14-6.14-.4-9.6-.84-6.14-.79-10.81-5.92-11.05-12.11-.61-16.14-.92-47.13,5.01-59.14,8.18-16.56,39.49,1.34,39.49,1.34Z" style="fill:url(#uuid-23b7af0e-64e1-4667-a030-c0913313fffa); stroke-width:0px;"/><path d="M487.4,1558.44c3.71-.12-1.48,19.18,4.14,38.14,1.27,4.28,4.47,7.64,8.93,7.69,2.89.04,6.32-.02,9.8-.3,5.23-.42,9.44-4.48,9.92-9.7l4.57-49.19-37.35,13.36Z" style="fill:url(#uuid-1312cac9-4942-4bce-90e1-2aa1832959e3); stroke-width:0px;"/><path d="M591.29,1035.53c-1.66,8.07-60.17,349.38-63.72,526-.06,2.96-2.24,5.44-5.17,5.85-7.43,1.04-21.9,2.37-35.92-.23-1.92-.36-3.37-1.94-3.49-3.89-2.05-32.91-18.49-311.19,1.65-442.18,0,0-166.38,350.17-191.6,446.73-.61,2.35-2.77,3.93-5.2,3.8-7.13-.38-21.94-1.66-33.71-5.99-4.22-1.55-6.62-5.99-5.56-10.35,14.09-57.78,112.84-455.9,179.89-543.62l162.83,23.88Z" style="fill:url(#uuid-cba50950-3866-44a8-b88d-0d99c0c8121d); stroke-width:0px;"/><path d="M484.63,1123.26c-.55,0-1.1-.21-1.53-.62-.86-.84-.88-2.23-.03-3.09l22.28-22.78c.84-.86,2.23-.88,3.09-.03.86.84.88,2.23.03,3.09l-22.28,22.78c-.43.44-.99.66-1.56.66Z" style="fill:url(#uuid-6938ddee-13d6-4582-b64c-527bfb514e91); stroke-width:0px;"/><path d="M686.4,608.2c-42.74-11.2-121.57-28.73-184.33-24.99-14.41.86-25.96,12.26-26.78,26.67-9.48,167.14-22.43,315.46-46.83,401.75,54.84,21.7,109.2,31.77,162.83,23.88,40.18-86.06,75.31-185.41,105.32-298.24,0,0,17.61-89.99.51-119.99-2.67-4.68-6.17-7.89-10.72-9.09Z" style="fill:url(#uuid-70d8aacf-5149-45dd-959c-1c17ba0ee202); stroke-width:0px;"/><path d="M583.6,491.12s-10.79,64.38-14.01,94.16c-.52,4.84,2.01,9.41,6.34,11.64,11.79,6.07,36.97,15.85,64.41,6.88,4.52-1.48,7.48-5.85,7.38-10.6l-1.88-85.95-62.23-16.12Z" style="fill:url(#uuid-5968c340-e5bd-48bf-ad27-558d74240190); stroke-width:0px;"/><path d="M653.99,419.79s20.82,47.83,22.22,72.94c1.4,25.11,6.81,41.4-22.22,46.45-29.03,5.06-53.48-9.41-66.73-34.41,0,0-20.76-38.53-16.1-54.32,4.66-15.78,82.83-30.66,82.83-30.66Z" style="fill:url(#uuid-86a56ffb-d025-45fe-a07a-9b27826d50bf); stroke-width:0px;"/><path d="M597.18,486.78h3.67s-15.12-31.01-1.83-36.46c13.29-5.45,65.91-16.18,77.27-34.85,10.95-18,1.18-41.26-13.42-47.76-.92-.41-2.01.02-2.49.92l-1.21,2.29c-.83,1.57-3.14,1.33-3.64-.37h0c-.47-1.62-2.65-1.97-3.53-.54-3.48,5.58-12.89,14.66-38.13,19.32-35.82,6.61-59.5,21.11-60.08,45.86-.04,1.57-1.71,2.43-3.05,1.62-2.64-1.61-6.88-2.37-12.53,2.39-9.83,8.27-5.81,29.72,15.75,47.37,1.02.84,1.02,2.44-.09,3.16-3.91,2.54-9.73,8.6,5.36,16.67,15.44,8.26,24.58,7.36,28.03,6.47.93-.24,1.55-1.08,1.49-2.04l-1.36-21.94c-.07-1.13.83-2.09,1.97-2.09h7.82Z" style="fill:url(#uuid-8430e7e6-4201-4543-a293-b3994eae0517); stroke-width:0px;"/><path d="M598.08,491.37s-7.94-30.55-21.64-21.99c-13.7,8.57,7.11,34.23,18.12,35.38l3.52-13.39Z" style="fill:url(#uuid-68d0f605-c8e5-448b-8770-5c3e957a8e51); stroke-width:0px;"/><path d="M153.58,988.49l-28.12,7.11c-48.26,12.2-80.71,48.46-72.48,81l9.78,38.68c8.22,32.54,54.01,49.03,102.27,36.83l28.12-7.11c1.86-.47,3.71-.98,5.55-1.53l824.6-246.73-21.3-84.27-842.8,174.74c-1.88.39-3.75.82-5.61,1.29ZM165.69,1027.1c36.33-9.18,70.21.87,75.66,22.46,5.46,21.59-19.57,46.53-55.9,55.72-36.33,9.18-70.21-.87-75.66-22.46-5.46-21.59,19.57-46.53,55.9-55.72Z" style="fill:url(#uuid-78117a12-6d1b-47a2-ba2d-5372cbc81404); stroke-width:0px;"/><path d="M1276.16,697.95l-163.17,41.25c-11.62,2.94-21.21,11.1-25.98,22.1l-24.41,56.37c-6.97,16.09-2.23,34.85,11.55,45.7l48.27,38c9.42,7.41,21.74,10.03,33.36,7.1l163.17-41.24c24.61-6.22,45.52,19.47,33.9,42.04-27.8,54-78.81,96.7-143.73,113.12-117.35,29.66-221.2-41.44-249.73-154.31-28.53-112.87,29.06-224.78,146.41-254.44,64.92-16.41,130.1-3.07,180.22,31.23,20.95,14.34,14.76,46.88-9.86,53.1Z" style="fill:url(#uuid-95e0f1af-2afe-4033-bb5c-31937aaf46f7); stroke-width:0px;"/><path d="M1280.05,713.33l-163.17,41.24c-11.62,2.94-21.22,11.1-25.98,22.1l-24.41,56.37c-6.97,16.09-2.23,34.85,11.55,45.7l48.27,38c9.42,7.41,21.74,10.03,33.36,7.1l163.17-41.25c24.61-6.22,45.52,19.47,33.9,42.04-27.8,54-78.81,96.7-143.73,113.11-117.35,29.66-221.2-41.44-249.73-154.31-28.53-112.87,29.07-224.78,146.41-254.44,64.92-16.41,130.1-3.07,180.22,31.23,20.95,14.34,14.76,46.88-9.86,53.1Z" style="fill:url(#uuid-eeff9bd7-3e2a-43f7-a51b-33f99fd64420); stroke-width:0px;"/><path d="M156.68,1000.75l-28.12,7.11c-48.26,12.2-80.71,48.46-72.48,81l9.78,38.68c8.22,32.54,54.01,49.03,102.27,36.83l28.12-7.11c1.86-.47,3.71-.98,5.55-1.53l824.6-246.73-21.3-84.27-842.8,174.74c-1.88.39-3.75.82-5.61,1.29ZM168.79,1039.36c36.33-9.18,70.21.87,75.66,22.46,5.46,21.59-19.57,46.53-55.9,55.72-36.33,9.18-70.21-.87-75.66-22.46-5.46-21.59,19.57-46.53,55.9-55.72Z" style="fill:url(#uuid-9e20b3ac-51c6-46dd-b6da-89f0119662a5); stroke-width:0px;"/><path d="M364.7,830.81c-21.13,59.3-9.23,122.87-9.23,122.87l-27.86,7.43s-35.99-42.81-27.76-137.8c25.71-3.92,49.8,2.1,64.85,7.5Z" style="fill:url(#uuid-2c01fb55-b511-4338-a09b-95f5be8a7a81); stroke-width:0px;"/><path d="M299.85,823.31c.92-10.68,2.38-21.99,4.54-34,18.82-104.76,153.13-185.35,184.73-203,2.94-1.64,6.51.57,6.41,3.94l-4.49,142.41c-74.8,10.05-110.2,52.85-126.35,98.15-15.05-5.4-39.13-11.42-64.85-7.5Z" style="fill:url(#uuid-5576ca7b-c570-47eb-a9d7-3d9cf2250f4a); stroke-width:0px;"/><path d="M870.59,963.21c5.22-1.44,9.46-5.16,11.67-10.1,4.28-9.58,9.09-24.94-1.19-29.61-15.32-6.96-43.18,21.59-43.18,21.59l-13.61,22.06-12.45,6.05c11.41,3.14,33.39-2.09,58.76-9.99Z" style="fill:url(#uuid-49b93817-b706-429c-97c2-dbd9256694be); stroke-width:0px;"/><path d="M353.61,939.75h34.44s-27.94,16.76-28.87,34.38c-.93,17.62,11.09,54.13,16.72,64.06,6.15,10.87-77.99-16.18-48.29-98.44h26Z" style="fill:url(#uuid-21f632c0-1069-435b-9bb1-332419e8ce65); stroke-width:0px;"/><path d="M2054.69,2627.9v29.52c0,7.56-3.88,13.8-9.02,14.48l-460.59,41.74c-3.42.47-6.85.39-10.25-.2-.89-.16-1.77-.35-2.66-.57l-320.92-60.49c-3.41-.88-5.92-5.35-5.92-10.53v-31.19l340.5-42.2,43.83-20.74,43.58,6.28,25.74-4.93,58.82,17.12,296.89,61.73Z" style="fill:url(#uuid-913d34e1-05df-4aa8-a35c-0d6f4fced5fa); stroke-width:0px;"/><path d="M2054.69,2627.9v29.52c0,7.56-3.88,13.8-9.02,14.48l-460.57,41.74c-3.42.47-7.68.36-10.23-.21v-159.03l54.81-6.7,43.57,6.28,25.73-4.93,58.82,17.12,296.89,61.73Z" style="fill:url(#uuid-9e958db6-9096-44d8-bd25-2b5148874d8d); stroke-width:0px;"/><path d="M1698.98,2549.05l-453.64,60.22,327.21,61.63c4.03,1.03,8.12,1.27,12.17.71l469.98-43.71-355.71-78.85Z" style="fill:url(#uuid-8c817e29-cb34-4e74-bfbf-ff3c4a380381); stroke-width:0px;"/><path d="M1865.28,2603.44c0,21.61-67.99,38.4-161.85,42.76-23.69,1.09-49.02,1.39-75.3.79-129.18-2.98-232.97-27.01-232.97-53.61,0-.6.07-1.91.18-1.91h-.18s.54-1.29.54-1.29c.12-.44.28-.83.48-1.24l29.79-77.88,35.98-93.98,50.38-131.71,38.56-100.82,47.97-125.36c6-15.7,17.12-25.45,29.14-25.45,1.64,0,3.23.17,4.82.53,10.15,2.22,19.21,11.35,24.41,24.96l48.37,126.24,38.63,102.15,50.97,134.35v.03l36.6,96.53v.03l.58.06,30.48,78.45c1.31,2.09,2.41,4.23,2.41,6.38Z" style="fill:url(#uuid-7ae5ad86-2ac8-4ceb-bee4-9bd3d122faa6); stroke-width:0px;"/><path d="M1832.39,2518.61c-29.41,9.83-76.43,16.9-132.71,19.54-22.69,1.07-46.68,1.41-71.69.94-86.79-1.65-162.04-12.82-202.09-28.01l36.01-93.99c42.14,9.48,100.87,15.87,166.15,16.85,21.11.32,41.68.05,61.27-.74,41.22-1.63,77.56-5.59,106.2-11.21l36.29,96.53v.03l.58.06Z" style="fill:#fff; stroke-width:0px;"/><path d="M1744.68,2287.62c-22.45,2.42-47.13,4.07-73.31,4.82-14.03.42-28.48.55-43.24.41-42.24-.41-81.76-3.11-115.8-7.46l38.56-100.82c24.13,1.9,50.13,2.99,77.24,3.15,9.58.06,19.02,0,28.28-.2,17-.32,33.47-1,49.19-2.05l39.07,102.15Z" style="fill:#fff; stroke-width:0px;"/></svg>