<?xml version="1.0" encoding="UTF-8"?><svg xmlns="http://www.w3.org/2000/svg" xmlns:xlink="http://www.w3.org/1999/xlink" viewBox="0 0 2876.37 2297.65"><defs><linearGradient id="uuid-c095ef95-283b-40e3-8dad-7e01452b7067" x1="-1382.32" y1="1978.53" x2="-815.85" y2="279.14" gradientTransform="translate(322.15) rotate(-180) scale(1 -1)" gradientUnits="userSpaceOnUse"><stop offset="0" stop-color="#09005d"/><stop offset="1" stop-color="#1a0f91"/></linearGradient><linearGradient id="uuid-74ee9a3f-85de-458e-a6b1-1e2ba667c228" x1="637.26" y1="1960.61" x2="3702.93" y2="-418.4" gradientUnits="userSpaceOnUse"><stop offset="0" stop-color="#4f52ff"/><stop offset="1" stop-color="#4042e2"/></linearGradient><linearGradient id="uuid-e44671ca-2808-4894-84f8-9335602e4495" x1="1366.88" y1="706.46" x2="1471.52" y2="2297.06" gradientTransform="translate(2922.16 4276.71) rotate(-180)" xlink:href="#uuid-c095ef95-283b-40e3-8dad-7e01452b7067"/><linearGradient id="uuid-6d323117-6dd6-4682-9d33-69b0ab0e6c8a" x1="2999.42" y1="164.51" x2="1769.53" y2="2156.28" gradientUnits="userSpaceOnUse"><stop offset="0" stop-color="#ff928e"/><stop offset="1" stop-color="#fe7062"/></linearGradient><linearGradient id="uuid-387f9d5e-84be-40d2-95fe-794cfe140318" x1="1952.76" y1="2003.1" x2="1443.27" y2="990.87" xlink:href="#uuid-6d323117-6dd6-4682-9d33-69b0ab0e6c8a"/><linearGradient id="uuid-6841975e-d32e-4bbb-a5a0-3921f2da6f70" x1="1689.29" y1="1515.39" x2="553.73" y2="1537.16" xlink:href="#uuid-6d323117-6dd6-4682-9d33-69b0ab0e6c8a"/><linearGradient id="uuid-eb9e84d8-fe21-439f-be8f-68c614f5afd3" x1="922.08" y1="2161.3" x2="-208.2" y2="913.39" xlink:href="#uuid-6d323117-6dd6-4682-9d33-69b0ab0e6c8a"/><linearGradient id="uuid-527d2308-dfaa-4fd9-a1f7-1bea9b190a1e" x1="-3767.59" y1="766.21" x2="-3674.36" y2="1000.09" gradientTransform="translate(-1999.06) rotate(-180) scale(1 -1)" xlink:href="#uuid-c095ef95-283b-40e3-8dad-7e01452b7067"/><linearGradient id="uuid-c4babcc0-18dd-4460-88ed-a971867b20a2" x1="1813.03" y1="1173.67" x2="2154.05" y2="750.81" gradientUnits="userSpaceOnUse"><stop offset="0" stop-color="#febbba"/><stop offset="1" stop-color="#ff928e"/></linearGradient><linearGradient id="uuid-501cf2b1-265a-4b1b-8a3a-8eb9840dba9a" x1="-3434.81" y1="2944.53" x2="-3400.7" y2="2455.74" gradientTransform="translate(-1999.06) rotate(-180) scale(1 -1)" xlink:href="#uuid-c095ef95-283b-40e3-8dad-7e01452b7067"/><linearGradient id="uuid-2cae19d1-4253-4974-a592-e85bf25b1d98" x1="-3760.83" y1="2575.25" x2="-3647.06" y2="1245.57" gradientTransform="translate(-1999.06) rotate(-180) scale(1 -1)" xlink:href="#uuid-c4babcc0-18dd-4460-88ed-a971867b20a2"/><linearGradient id="uuid-b3a06f3b-987a-47b2-b799-ba09bd3aa1b3" x1="-3776.14" y1="2920.72" x2="-3742.04" y2="2431.92" gradientTransform="translate(-1999.06) rotate(-180) scale(1 -1)" xlink:href="#uuid-c095ef95-283b-40e3-8dad-7e01452b7067"/><linearGradient id="uuid-3022adb0-54f5-4ee8-a607-020ad4306391" x1="-3531.98" y1="2595.04" x2="-3418.18" y2="1265" gradientTransform="translate(-1999.06) rotate(-180) scale(1 -1)" xlink:href="#uuid-c4babcc0-18dd-4460-88ed-a971867b20a2"/><linearGradient id="uuid-98874a6a-6896-4449-96e1-3ab0ad52d6bc" x1="1999.85" y1="1308.85" x2="720.9" y2="2751.5" gradientTransform="matrix(1,0,0,1,0,0)" xlink:href="#uuid-c095ef95-283b-40e3-8dad-7e01452b7067"/><linearGradient id="uuid-683cfa1b-6cf8-4948-a849-54bc07eefea5" x1="1748" y1="1509.02" x2="1748" y2="963.39" xlink:href="#uuid-c4babcc0-18dd-4460-88ed-a971867b20a2"/><linearGradient id="uuid-a188993a-e73d-4fd0-99a1-679d249ceeeb" x1="1712.75" y1="1328.7" x2="2408.39" y2="1175.24" xlink:href="#uuid-c4babcc0-18dd-4460-88ed-a971867b20a2"/><linearGradient id="uuid-6c577402-5d51-4594-9d3b-1d998a5c32aa" x1="1789.61" y1="1024.27" x2="1739.59" y2="815.11" xlink:href="#uuid-c4babcc0-18dd-4460-88ed-a971867b20a2"/><linearGradient id="uuid-20a4395e-cd2b-47fd-b5c6-29312380602c" x1="-3866.97" y1="233.75" x2="-3773.73" y2="467.63" gradientTransform="translate(-1918.57 -195.62) rotate(-168.8) scale(1 -1)" xlink:href="#uuid-c095ef95-283b-40e3-8dad-7e01452b7067"/><linearGradient id="uuid-7b18b042-4eb9-48ea-86de-fdbd613d076c" x1="1743.9" y1="1035.2" x2="1693.89" y2="826.04" xlink:href="#uuid-c4babcc0-18dd-4460-88ed-a971867b20a2"/><linearGradient id="uuid-cb8b55f9-e37e-4dce-8377-4edc9ce39871" x1="1829.35" y1="1186.84" x2="2170.37" y2="763.97" xlink:href="#uuid-c4babcc0-18dd-4460-88ed-a971867b20a2"/><linearGradient id="uuid-e3777d77-08fc-44a2-83b9-953464a6cd61" x1="2145.9" y1="605.22" x2="2020.86" y2="1396.38" xlink:href="#uuid-c4babcc0-18dd-4460-88ed-a971867b20a2"/></defs><g style="isolation:isolate;"><g id="uuid-9bbb7e98-9e6e-4116-8b16-7d4a06384cc7"><path d="M2727.29,700.56c.84,1.39.87,3.18-.07,4.59-3.11,4.65-6.37,9.32-9.69,13.87-1.36,1.87-3.99,2.23-5.86.82-4.57-3.41.15-6.94,8.56-19.53,1.28-1.92,3.89-2.4,5.82-1.06.52.36.93.81,1.24,1.31Z" style="fill:#91b3fa; stroke-width:0px;"/><path d="M2683.79,759.43c-7.41,7.79-15.23,15.37-23.24,22.54-1.72,1.54-4.37,1.35-5.93-.42-4.22-4.85,1.21-5.11,23.06-28.07,1.59-1.67,4.25-1.7,5.94-.05,1.71,1.67,1.75,4.35.17,6ZM2619.24,814.43c-8.9,6.11-18.21,11.99-27.35,17.25-4.91,2.83-8.98-4.69-4.27-7.39,9.11-5.25,18.09-10.92,26.8-16.9,1.9-1.31,4.52-.78,5.85,1.16,1.34,1.97.85,4.6-1.03,5.89ZM2544.79,854.9c-9.92,4.11-20.13,7.87-30.36,11.18-5.28,1.7-7.95-6.39-2.71-8.09,10.02-3.24,20.03-6.93,29.75-10.96,5.11-2.12,8.42,5.75,3.32,7.86ZM2466.67,874.04c.46,2.31-1.01,4.52-3.28,4.93-10.58,1.95-21.4,3.51-32.13,4.61-5.52.57-6.54-7.87-1.02-8.44,10.52-1.09,21.11-2.6,31.48-4.52,2.27-.42,4.49,1.11,4.95,3.42ZM2382.71,881.48c-.01,2.34-1.9,4.19-4.22,4.14-10.81-.28-21.75-.98-32.51-2.11-5.53-.59-4.84-9.02.7-8.44,10.55,1.1,21.26,1.8,31.85,2.07,2.32.06,4.19,2.01,4.18,4.35ZM2298.14,868.39c.55.91.78,2.02.54,3.13-.48,2.28-2.71,3.7-4.98,3.17-10.58-2.48-21.19-5.41-31.54-8.7-2.23-.71-3.5-3.09-2.84-5.33.66-2.23,2.99-3.47,5.22-2.76,10.14,3.23,20.54,6.1,30.91,8.53,1.16.27,2.11,1.01,2.69,1.97ZM2217.79,840.66c.71,1.16.86,2.63.28,3.95-.93,2.13-3.41,3.05-5.53,2.07-9.89-4.58-19.73-9.61-29.25-14.96-2.05-1.14-2.82-3.73-1.72-5.78,1.09-2.04,3.64-2.77,5.68-1.62,9.33,5.23,18.97,10.16,28.66,14.65.81.37,1.45.97,1.88,1.68ZM2144.23,801.79c-1.35,1.88-3.97,2.27-5.86.87-8.79-6.5-17.44-13.45-25.73-20.64-4.26-3.71,1.15-10.07,5.4-6.39,8.12,7.04,16.6,13.84,25.21,20.22,1.89,1.39,2.33,4.05.98,5.94ZM1985.34,562.15c8.1,31.05,12.81,34.34,6.8,36.34-2.19.73-4.58-.48-5.35-2.71-3.58-10.37-6.8-21.01-9.56-31.63-1.42-5.45,6.69-7.47,8.12-2.01ZM2080.33,744.76c-1.7,1.56-4.36,1.4-5.93-.36-7.32-8.16-14.43-16.71-21.13-25.42-3.44-4.48,3.15-9.6,6.59-5.12,6.57,8.54,13.53,16.92,20.7,24.91,1.59,1.78,1.45,4.45-.23,5.99ZM2014.95,641.71c14.14,28.77,19.45,31.1,13.98,34.32-3.47,2.04-6.18-1.86-5.77-1.56-5.6-9.48-10.89-19.28-15.73-29.11-1.04-2.12-.2-4.65,1.87-5.66,1.98-.96,4.51-.22,5.64,2Z" style="fill:#91b3fa; stroke-width:0px;"/><path d="M1973.44,493.63c1.27,14.25,3.87,20.78-1.79,21.41-2.3.26-4.41-1.41-4.71-3.75-1.91-14.68-3.52-21.21,1.94-21.6,1.64-.12,4.35,1.6,4.56,3.94Z" style="fill:#91b3fa; stroke-width:0px;"/><path d="M2071.61,183.17c.95,1.56.84,3.6-.39,5.01-3.62,4.15-7.19,8.42-10.62,12.7-1.45,1.8-4.09,2.05-5.9.55-1.81-1.5-2.11-4.17-.67-5.98,3.5-4.36,7.15-8.72,10.84-12.96,1.52-1.74,4.17-1.88,5.92-.31.33.29.6.63.82.98Z" style="fill:#91b3fa; stroke-width:0px;"/><path d="M2740.47,259.96c5.87,10.28,11.38,20.92,16.38,31.63,1,2.14.11,4.65-1.99,5.61-5.9,2.71-4.47-3.04-21.64-33.11-1.17-2.05-.5-4.63,1.51-5.77,3.5-1.99,6.16,1.94,5.74,1.64ZM2707.82,217.67c-5.14,3.95-5.12-2.12-28.13-27.71-1.59-1.75-1.47-4.44.23-5.99,1.7-1.56,4.36-1.4,5.93.35,7.87,8.76,15.51,17.98,22.68,27.41,1.44,1.89,1.09,4.54-.72,5.94ZM2777.72,345.5c3.51,11.27,6.59,22.83,9.16,34.36.51,2.3-.91,4.54-3.17,5.01-6.38,1.33-3.71-3.94-13.99-36.97-.7-2.25.53-4.61,2.74-5.27,2.21-.66,4.57.63,5.27,2.87ZM2645.37,145.11c.92,1.52.85,3.51-.32,4.93-1.47,1.78-4.12,1.99-5.91.47-8.82-7.49-18.05-14.69-27.42-21.39-1.92-1.37-2.4-4.02-1.08-5.92,1.31-1.91,3.93-2.34,5.84-.97,9.57,6.84,18.99,14.19,27.99,21.84.36.31.67.67.91,1.06ZM2569.21,93.58c.75,1.23.87,2.79.19,4.15-1.04,2.07-3.56,2.87-5.64,1.77-10.17-5.37-20.7-10.37-31.29-14.87-2.15-.92-3.2-3.41-2.34-5.56.86-2.16,3.31-3.16,5.46-2.25,10.81,4.59,21.55,9.7,31.93,15.18.72.38,1.28.93,1.68,1.58ZM2484.04,59.95c.58.95.8,2.12.51,3.28-.56,2.26-2.84,3.6-5.09,2.98-11.05-3.02-22.36-5.6-33.61-7.68-2.29-.43-3.84-2.64-3.47-4.94.37-2.31,2.53-3.83,4.82-3.41,11.48,2.12,23.02,4.76,34.3,7.84,1.1.3,1.99,1.01,2.55,1.93ZM2394.02,45.73c.42.69.65,1.5.63,2.36-.06,2.34-1.99,4.15-4.31,4.04-11.39-.53-22.94-.58-34.32-.14-2.32.09-4.3-1.73-4.44-4.08-.14-2.34,1.63-4.31,3.95-4.4,11.61-.45,23.4-.4,35.02.14,1.47.07,2.74.89,3.46,2.08ZM2304.02,53.07c1.27,6.49-3.9,3.55-36.67,12.4-5.34,1.44-7.66-6.76-2.32-8.2,11.18-3.02,22.64-5.59,34.05-7.63,2.27-.41,4.48,1.12,4.93,3.44ZM2217.07,78.09c2.65,6.08-2.96,4.34-32.88,20.31-4.85,2.59-8.92-4.92-4.04-7.52,10.21-5.45,20.77-10.52,31.38-15.06,2.15-.92,4.64.15,5.54,2.27ZM2138.32,122.19c1.14,1.88.7,4.34-1.07,5.63-9.2,6.69-18.2,13.83-26.72,21.22-1.74,1.51-4.4,1.28-5.93-.51-1.53-1.81-1.36-4.47.39-5.98,8.7-7.54,17.88-14.82,27.27-21.65,1.86-1.36,4.49-.91,5.87,1.01.07.09.13.19.19.29Z" style="fill:#91b3fa; stroke-width:0px;"/><path d="M2795.6,437.13c1.24,14.77,2.55,21.33-2.92,21.46-5.69.14-4.18-5.8-5.44-20.92-.2-2.34,1.52-4.36,3.83-4.51,2.31-.15,4.34,1.63,4.54,3.96Z" style="fill:#91b3fa; stroke-width:0px;"/><path d="M2693.76,491.8l-52.29-31.37c-1.17-28.44-6.83-56.99-17.21-84.53,34.08-47.42,39.83-48.33,36.2-53.81l-40.63-61.26c-1.19-1.79-3.35-2.64-5.39-2.13l-58.14,14.73c-21.32-20.26-45.39-36.54-71.11-48.63l-8.62-60.45c-.3-2.12-1.9-3.84-3.97-4.28l-71.02-15.15c-2.08-.44-4.17.49-5.22,2.32l-29.98,52.22c-28.12.6-56.27,5.74-83.31,15.68l-48.24-37.43c-1.69-1.31-4-1.41-5.75-.25l-59.8,39.83c-1.75,1.16-2.55,3.34-2,5.41l15.76,59.07c-19.62,21.13-35.24,45.14-46.69,70.89-58.1,8.54-62.61,5.06-63.81,11.41-12.07,70.34-16.88,73.37-11.16,76.81l52.29,31.37c1.17,28.44,6.83,56.99,17.21,84.53-34.06,47.39-39.83,48.33-36.2,53.81,41.41,60.17,39.77,64.97,46.02,63.39l58.14-14.73c21.31,20.26,45.39,36.54,71.11,48.63,9.52,58.18,6.18,63.37,12.59,64.73,70.54,13.76,73,18.48,76.24,12.84l29.98-52.21c28.12-.6,56.27-5.74,83.31-15.68,46.79,34.79,48.53,41.32,53.99,37.68,58.45-40.46,63.5-38.84,61.8-45.23l-15.76-59.07c19.62-21.13,35.24-45.14,46.69-70.89,57.9-8.51,62.6-5.03,63.81-11.41,12.07-70.34,16.88-73.37,11.16-76.81Z" style="fill:#91b3fa; stroke-width:0px;"/><path d="M2430.25,514.74c-25.83,28.82-70.48,30.55-99.53,3.86-29.04-26.7-31.67-71.86-5.85-100.68,25.83-28.82,70.48-30.55,99.53-3.86h0c29.06,26.7,31.67,71.87,5.84,100.68ZM2420.22,418.73l-.02-.04.02.04ZM2339.09,509.26c23.58,21.67,60.21,20.86,81.74-3.17,21.21-23.67,19.07-60.77-4.8-82.69-23.86-21.92-60.53-20.5-81.74,3.17-21.24,23.71-19.02,60.81,4.8,82.69Z" style="fill:#bdd0fb; stroke-width:0px;"/><path d="M2529.58,372.91h0c5.5,9.05,10.24,18.55,14.12,28.31,1.17,2.94.05,6.18-2.5,7.74-.3.19-.63.35-.97.48-3.23,1.25-6.9-.41-8.2-3.68-4.46-11.23-10.15-22.08-16.89-32.25h0c-50.81-76.61-151.71-99.77-227.81-53.53-1.94,1.18-3.87,2.41-5.78,3.68-77.16,51.39-96.59,156.65-44.59,235.11,51.95,78.32,156.61,101.06,233.59,49.85,45.81-30.51,55.5-67.44,60.41-70.43,5.31-3.23,11.67,2.61,9.05,8.26-14.31,30.91-37.7,58.02-68.59,76.79-133.29,81-302.34-39.89-272.92-194.99,9.05-47.73,36.03-88.67,75.97-115.26,2.07-1.38,4.15-2.71,6.26-3.99,38.65-23.49,84.24-31.15,129.21-21.56,47.42,10.12,88.49,38.22,115.62,79.13,1.39,2.09,2.73,4.21,4.03,6.35Z" style="fill:#bdd0fb; stroke-width:0px;"/><path d="M1941.11,297.41c-1.76-15.81-6.05-31.46-12.96-46.3l18.45-28.61c2.05-3.17-1.45-3.77-25.39-35.38-2.26-2.87-3.75.04-35.28,10.24-12.78-10.23-26.97-18.1-41.92-23.55l-7.19-33.3c-.8-3.7-3.69-1.64-42.97-7.06-1.19-.14-2.33.48-2.85,1.56l-14.86,30.65c-15.81,1.76-31.46,6.05-46.3,12.96-27.71-17.06-28.93-20.6-31.86-18.3-31.38,25.56-34.25,24.89-33.05,28.36l11.16,32.17c-10.23,12.78-18.1,26.97-23.55,41.92l-33.3,7.19c-3.69.8-1.64,3.69-7.06,42.97-.44,3.61,2.55,2.56,32.21,17.72,1.76,15.81,6.04,31.46,12.96,46.3l-18.45,28.61c-2.05,3.18,1.45,3.77,25.4,35.38,2.24,2.85,3.59.02,35.28-10.24,12.78,10.23,26.97,18.1,41.92,23.55l7.19,33.3c.25,1.17,1.22,2.05,2.4,2.19l40.57,4.87c1.19.14,2.33-.48,2.85-1.56l14.86-30.65c15.81-1.76,31.46-6.05,46.3-12.96,27.71,17.06,28.94,20.6,31.86,18.3,31.37-25.54,34.25-24.88,33.05-28.36l-11.16-32.16c10.23-12.78,18.1-26.97,23.55-41.92,31.66-7.53,35.04-5.89,35.49-9.59l4.87-40.57c.44-3.63-2.7-2.64-32.21-17.72Z" style="fill:#91b3fa; stroke-width:0px;"/><path d="M1826.49,340.09c-14.41,18.65-41.15,22.09-59.81,7.68-18.65-14.4-22.09-41.15-7.69-59.8,14.37-18.61,41.2-22.06,59.81-7.69h0c18.61,14.37,22.06,41.2,7.68,59.81ZM1814.93,285.31l-.02-.04.02.04ZM1816.44,332.32c10.09-13.07,7.66-31.9-5.39-41.98h0c-20.98-16.2-51.37,1.12-47.98,27.5,3.38,26.26,37.07,35.59,53.37,14.48Z" style="fill:#bdd0fb; stroke-width:0px;"/><path d="M2005.87,380.71c-1.71,5.46-3.65,10.94-5.79,16.27-.87,2.17-3.33,3.23-5.51,2.36-5.47-2.19-1.19-7.06,3.21-21.15.7-2.23,3.07-3.48,5.31-2.78,2.22.69,3.48,3.06,2.78,5.31Z" style="fill:#91b3fa; stroke-width:0px;"/><path d="M1972.51,446.44c-6.67,9.05-14.32,18.01-22.8,26.41-3.99,3.95-9.93-2.09-5.96-6.02,21.98-21.77,22.17-30.52,27.87-26.31,1.9,1.4,2.27,4.05.89,5.92ZM1906.27,501.48c1.17,2.02.48,4.62-1.54,5.79-10.04,5.81-20.63,10.89-31.48,15.07-5.23,2.01-8.28-5.89-3.05-7.91,10.44-4.02,20.63-8.9,30.28-14.49,3.56-2.06,6.21,1.84,5.79,1.54ZM1821.41,529.45c.31.51.51,1.09.59,1.71.27,2.33-1.4,4.43-3.72,4.7-11.54,1.33-23.27,1.77-34.87,1.29-2.33-.1-4.16-2.07-4.06-4.4.09-2.34,2.07-4.16,4.4-4.06,11.16.46,22.45.04,33.55-1.24,1.7-.19,3.27.64,4.11,2.01ZM1732.46,521.43c.6,1,.8,2.23.43,3.44-.68,2.24-3.05,3.5-5.28,2.82-11.11-3.38-22.04-7.68-32.48-12.76-2.1-1.03-2.98-3.56-1.95-5.67,1.02-2.1,3.56-2.98,5.66-1.95,10.04,4.89,20.55,9.03,31.24,12.28,1.04.31,1.86.99,2.38,1.85ZM1653.75,483.43c-1.52,1.78-4.19,2-5.97.48-8.87-7.55-17.19-15.84-24.73-24.63-3.66-4.22,2.77-9.78,6.43-5.52,7.25,8.45,15.26,16.43,23.79,23.69,1.82,1.56,1.96,4.23.48,5.97Z" style="fill:#91b3fa; stroke-width:0px;"/><path d="M1592.83,392.83c5.69,14.46,9.85,18.37,4.71,20.87-2.1,1.02-4.62.2-5.66-1.96-2.5-5.13-4.83-10.45-6.93-15.81-.86-2.18.22-4.64,2.39-5.49,2.14-.84,4.61.18,5.49,2.39Z" style="fill:#91b3fa; stroke-width:0px;"/><path d="M1600.66,217.68c-7.01,13.94-7.11,19.61-12.41,17.44-2.17-.89-3.2-3.36-2.32-5.52,2.16-5.29,4.57-10.57,7.15-15.72,1.05-2.09,3.6-2.93,5.69-1.88,2.08,1.05,2.94,3.59,1.88,5.69Z" style="fill:#91b3fa; stroke-width:0px;"/><path d="M1968.74,183.51c-5.56,4.31-5.88-4.2-28.09-25.25-4.06-3.83,1.75-10.01,5.83-6.15,8.31,7.87,16.06,16.44,23.03,25.46,1.41,1.82,1.12,4.49-.76,5.94ZM1903.27,124.86c-1.14,2.04-3.73,2.77-5.77,1.62-26.92-15.09-34.91-12.69-32.45-19.31.82-2.19,3.26-3.31,5.45-2.49,10.7,3.98,21.18,8.83,31.15,14.42,2.04,1.15,2.76,3.73,1.62,5.77ZM1820.07,96.63c-.74,7.02-7.01,1.35-37.66,2.84-5.59.27-6.01-8.19-.41-8.46,11.42-.55,22.96-.23,34.3.97,2.32.24,4.02,2.33,3.77,4.66ZM1732.45,103.38c2.07,6.76-5.94,3.98-33.55,17.35-5.04,2.44-8.74-5.18-3.7-7.62,10.27-4.97,21.02-9.19,31.95-12.54,2.24-.69,4.6.58,5.29,2.81ZM1654,149.95c-23.53,19.93-24.11,28.28-29.45,23.64-1.77-1.53-1.96-4.21-.43-5.98,7.51-8.66,15.72-16.78,24.41-24.13,1.79-1.51,4.46-1.29,5.97.5,1.51,1.78,1.29,4.46-.5,5.97Z" style="fill:#91b3fa; stroke-width:0px;"/><path d="M1997.84,225.75c2.26,5.27,4.35,10.69,6.19,16.11.75,2.21-.43,4.62-2.65,5.38-5.58,1.9-5.5-4.56-11.33-18.15-.92-2.15.07-4.64,2.22-5.56,2.18-.94,4.66.11,5.56,2.22Z" style="fill:#91b3fa; stroke-width:0px;"/><path d="M1886.17,267.86c1.78,3.6.16,7.27-2.82,8.72-3.16,1.54-6.98.2-8.5-2.93-2.85-5.86-6.36-11.46-10.44-16.64-1.05-.9-20.63-29.63-61.54-34.6-81.22-9.75-134.13,84.19-83.53,148.58,29.11,37.05,81.1,45.76,120.4,21.88,39.58-24.05,33.64-54.45,46.49-49.53,3.28,1.25,4.92,4.92,3.67,8.2-6.75,17.68-18.23,33.24-33.19,44.99-45.42,35.7-111.56,27.88-147.37-17.69-38.53-49.04-26.16-121.61,28.2-154.65,43.84-26.65,103.11-17.99,136.87,24.97h0c4.57,5.82,8.53,12.11,11.76,18.7Z" style="fill:#bdd0fb; stroke-width:0px;"/><path d="M35.55,16.4c-3.07-13.07,15.31-21.76,26.57-12.63,114.32,92.7,388.99,370.3,320.54,855.42-85.89,608.66,60.95,830.75,243.72,966.22,0,0-251-63.71-408.92-289.07C-170.27,983.03,90.14,248.78,35.55,16.4Z" style="fill:#bdd0fb; stroke-width:0px;"/><path d="M122.55,206.51c14.3,67.76,27.05,135.72,36.9,204,10.26,68.21,18.13,136.67,23.51,205.23,5.08,68.58,8.66,137.23,8.87,205.91.56,68.67-2.29,137.29-5.44,206.18-2.7,68.86-5.87,138.22-.83,208.07,4.96,69.71,19.63,140.02,48.75,205.94,7.28,16.43,14.93,32.81,23.63,48.63,8.36,15.97,17.54,31.63,27.04,47.13,19.19,30.94,40.78,60.83,64.85,89.2,48.31,56.65,106.57,106.9,170.75,149.43,6.76,4.48,16.43,3.38,21.62-2.46,5.09-5.73,3.95-13.89-2.49-18.42l-.05-.03c-15.27-10.73-30.38-21.59-44.88-33-7.36-5.6-14.41-11.48-21.59-17.24-6.92-5.99-14.1-11.74-20.8-17.9-27.25-24.26-52.5-50.14-75.41-77.5-46.07-54.47-82.96-115.17-110.9-178.1-13.56-31.61-24.41-64.03-32.33-97.05-7.89-33.03-12.85-66.64-15.59-100.52-5.5-67.8-3.01-136.47-.89-205.34,2.02-68.89,3.51-138.13,1.69-207.32-.8-34.59-2.32-69.16-4.56-103.7-1-17.27-2.39-34.52-3.75-51.77-1.55-17.24-3.2-34.47-5.02-51.68-7.42-68.85-17.27-137.47-29.62-205.73-12.73-68.21-27.54-136.1-45.36-203.38-.51-1.92-2.73-3.13-4.95-2.69-2.16.43-3.54,2.26-3.15,4.12Z" style="fill:#fff; opacity:.5; stroke-width:0px;"/><path d="M310.95,1505.5c-14.02,14.87-38.67,10.6-47.1-8.02-46.53-102.72-151.81-405.03,22.07-753.31,146.84-294.11,198.51-467.54,216.51-547.89,3.81-16.99,27.09-19.25,34.12-3.32,77.55,175.77,282.31,773.65-225.6,1312.54Z" style="fill:#91b3fa; stroke-width:0px;"/><path d="M285.49,1494.67c-.5.09-1.01.13-1.54.12-4.41-.07-7.92-3.69-7.86-8.1.08-4.99,9.8-504.26,195.49-922.42,1.79-4.02,6.5-5.84,10.53-4.05,4.03,1.79,5.84,6.5,4.05,10.53-184.34,415.11-194.04,911.23-194.12,916.19-.06,3.88-2.88,7.07-6.56,7.73Z" style="fill:#fff; mix-blend-mode:soft-light; stroke-width:0px;"/><path d="M241.81,2040.18c0,24.37,19.96,44.31,44.35,44.31h2398.45c24.39,0,44.35-19.94,44.35-44.31l19.96-1378.33c0-24.37-28.71-71.95-81.33-68.37l-2344.03-60.65c-30.61-.79-60.2,10.99-81.88,32.59-21.67,21.6-33.53,51.14-32.81,81.72l32.94,1393.04Z" style="fill:url(#uuid-c095ef95-283b-40e3-8dad-7e01452b7067); stroke-width:0px;"/><path d="M285.6,1997.67c0,23.08,18.88,41.96,41.96,41.96h2299.22c23.08,0,41.96-18.88,41.96-41.96l18.83-1251.26c-2.22-75.3-68.23-102.36-108.25-100.76l-2246.54-60.27c-21.5-.58-42.29,7.71-57.52,22.9-15.23,15.19-23.61,35.98-23.07,57.49l33.41,1331.91Z" style="fill:url(#uuid-74ee9a3f-85de-458e-a6b1-1e2ba667c228); stroke-width:0px;"/><path d="M2647.55,1154.57h-.09c-3.4-.05-6.11-2.85-6.06-6.24l5.71-388.65c-.11-23.09-7.11-41.52-20.83-54.66-25.6-24.53-66.25-23.28-67.96-23.2l-718.04-19.26c-3.39-.09-6.07-2.92-5.98-6.31.09-3.39,2.7-6.29,6.31-5.98l717.62,19.26c4.47-.26,47.74-1.01,76.56,26.6,16.21,15.54,24.5,36.94,24.62,63.6l-5.71,388.77c-.05,3.36-2.79,6.06-6.14,6.06Z" style="fill:#91b3fa; stroke-width:0px;"/><rect x="47.24" y="2077.81" width="2827.68" height="121.1" rx="5.65" ry="5.65" transform="translate(2922.16 4276.71) rotate(180)" style="fill:url(#uuid-e44671ca-2808-4894-84f8-9335602e4495); stroke-width:0px;"/><path d="M1841.74,1903.44l527.98-1011.5h-108.17c-19.95,0-30.92-23.19-18.27-38.61l562.72-685.84c24.39-29.73,72.57-10.87,70.3,27.51l-39.56,670.67c-2.26,38.39-36.31,67.01-74.52,62.63l-75.42-8.63-523.86,1134.49c-13.64,29.53-43.2,48.44-75.73,48.44h-181.56l-63.91-199.17Z" style="fill:url(#uuid-6d323117-6dd6-4682-9d33-69b0ab0e6c8a); stroke-width:0px;"/><g style="opacity:.49;"><path d="M2343.06,820.42c-1.11,0-2.23-.35-3.17-1.08-2.28-1.75-2.7-5.02-.95-7.3l464.67-603.77c5.47-7.12,14.39-9.54,22.72-6.17,8.32,3.37,13.05,11.31,12.04,20.23l-8.2,72.37c-.33,2.85-2.9,4.93-5.75,4.58-2.85-.32-4.91-2.9-4.58-5.75l8.2-72.37c.57-5.04-2.52-8.17-5.6-9.42-3.09-1.25-7.48-1.15-10.58,2.87l-464.67,603.77c-1.02,1.33-2.57,2.03-4.12,2.03Z" style="fill:#fff; stroke-width:0px;"/></g><path d="M2745.25,1222.36c-138.27,61.3-505.54,273.43-664.1,845.21,0,0,213.91,3.59,374.39-339.46,137.25-293.37,216.18-411.89,300.22-489.92,7.97-7.4-.57-20.24-10.51-15.84Z" style="fill:#91b3fa; stroke-width:0px;"/><path d="M2106.57,2035.11s.25-.82.73-2.4c.48-1.6,1.22-3.95,2.22-6.99,1.96-6.11,4.98-15.01,9.08-26.25,3.99-11.28,9.31-24.79,15.46-40.27,6.25-15.44,13.65-32.71,21.98-51.44,8.5-18.65,17.96-38.75,28.45-59.78,10.74-20.9,22-42.99,34.6-65.33,3.14-5.59,6.31-11.23,9.5-16.91,3.29-5.62,6.61-11.28,9.94-16.98,6.6-11.43,13.67-22.78,20.74-34.25,7.14-11.42,14.52-22.83,21.88-34.3,7.59-11.33,15-22.84,22.8-34.1,7.81-11.25,15.42-22.63,23.61-33.55,4.02-5.51,8.04-11,12.05-16.48,4.03-5.46,8.2-10.8,12.27-16.17,4.09-5.36,8.17-10.69,12.23-16,4.17-5.22,8.32-10.42,12.44-15.59,8.11-10.43,16.66-20.32,24.99-30.1,8.22-9.87,16.72-19.22,24.96-28.44,8.16-9.28,16.47-18.08,24.66-26.55,4.09-4.23,8.05-8.48,12.09-12.53,4.08-4.01,8.09-7.97,12.04-11.85,3.95-3.88,7.83-7.7,11.63-11.45,3.82-3.74,7.75-7.22,11.49-10.73,7.65-6.87,14.75-13.67,21.9-19.73,7.12-6.07,13.88-11.82,20.23-17.23,3.13-2.75,6.3-5.26,9.39-7.63,3.07-2.4,6.03-4.71,8.88-6.93,5.68-4.43,10.91-8.51,15.62-12.18,19.52-13.82,30.67-21.72,30.67-21.72,1.1-.78,2.63-.52,3.41.58.73,1.03.55,2.44-.39,3.26l-.09.07s-10.26,8.88-28.2,24.42c-4.36,4.02-9.19,8.47-14.44,13.31-2.62,2.42-5.36,4.94-8.19,7.55-1.42,1.3-2.86,2.63-4.32,3.98-1.42,1.4-2.87,2.82-4.35,4.26-5.9,5.76-12.17,11.88-18.79,18.34-6.63,6.44-13.19,13.63-20.25,20.9-3.51,3.66-7.19,7.28-10.75,11.17-3.56,3.89-7.18,7.86-10.86,11.89-3.68,4.03-7.43,8.13-11.23,12.29-3.77,4.2-7.44,8.59-11.25,12.97-7.55,8.82-15.52,17.67-23.17,27.17-7.77,9.39-15.78,18.91-23.51,28.94-3.91,4.97-7.86,9.99-11.83,15.04-3.97,5.05-7.8,10.28-11.78,15.44-3.94,5.18-7.91,10.4-11.9,15.64-3.88,5.32-7.78,10.68-11.69,16.05-3.89,5.39-7.87,10.74-11.72,16.22-3.82,5.5-7.66,11.01-11.5,16.53-7.74,11-15.22,22.25-22.84,33.4-7.61,11.16-14.83,22.58-22.24,33.82-7.18,11.38-14.38,22.7-21.34,34.03-13.85,22.71-27.46,45.09-40.17,67.03-12.81,21.88-25.05,43.13-36.33,63.47-11.24,20.36-22.07,39.53-31.5,57.53-9.79,17.82-18.38,34.36-26.09,48.99-7.74,14.61-14.24,27.49-19.74,38.03-10.76,21.21-16.91,33.33-16.91,33.33v.03c-.63,1.21-2.11,1.69-3.32,1.08-1.08-.55-1.58-1.78-1.24-2.9Z" style="fill:#fff; opacity:.51; stroke-width:0px;"/><path d="M2085.3,2079.94s61.06-239.39,395.02-271.59c222.86-21.48,293.69-75.98,314.51-99.96,2.42-2.79,6.99-.71,6.43,2.94-6.93,45.19-44.53,184.85-246.9,266.42-243.91,98.31-366.1,21.01-469.05,102.19Z" style="fill:#bdd0fb; stroke-width:0px;"/><path d="M2102.51,2033.27s1.83-2.04,5.44-5.62c3.61-3.59,8.95-8.8,16.07-15.07,7.06-6.35,15.93-13.71,26.38-21.84,10.39-8.21,22.62-16.81,36.21-25.87,13.62-9.01,28.85-18.1,45.41-26.95,16.58-8.82,34.54-17.32,53.64-24.97,19.09-7.66,39.39-14.33,60.45-19.64,21.05-5.31,42.88-9.18,64.92-11.34,5.53-.4,11.03-1.06,16.57-1.25,5.54-.2,11.07-.4,16.58-.6,5.53.08,11.04.15,16.54.23,5.5.15,10.97.66,16.42.98,10.46.67,20.84,1.34,31.1,1.99,10.51,1.03,20.07.39,29.83.61,2.43.01,4.84.02,7.25.04l3.6.02,3.6-.24c4.79-.34,9.54-.67,14.23-1,2.35-.16,4.69-.33,7.02-.49l3.48-.24c1.15-.13,2.28-.33,3.41-.49,4.54-.68,9.02-1.36,13.44-2.02,17.75-2.46,34.08-6.92,48.85-11.89,1.89-.52,3.63-1.33,5.39-2.05,1.76-.71,3.51-1.42,5.23-2.12,3.42-1.46,6.92-2.63,10.07-4.24,3.16-1.62,6.24-3.2,9.23-4.73,1.49-.78,3-1.5,4.42-2.3,1.38-.87,2.74-1.73,4.08-2.57,2.7-1.68,5.3-3.3,7.82-4.87,2.41-1.71,4.68-3.44,6.9-5.07,4.57-3.13,8.13-6.71,11.64-9.66,3.25-3.2,6.21-6.05,8.57-8.71,2.31-2.69,4.34-4.98,5.74-6.99,1.52-1.95,2.54-3.5,3.23-4.56.71-1.05.98-1.57.98-1.57.47-.88,1.56-1.22,2.44-.76.8.42,1.16,1.36.86,2.2v.03s-.26.72-.83,1.93c-.56,1.22-1.38,3.06-2.67,5.29-2.45,4.57-6.62,10.91-12.76,18.39-3.29,3.51-6.66,7.75-11.05,11.59-2.14,1.98-4.33,4.1-6.68,6.21-2.49,1.94-5.06,3.94-7.73,6.02-1.34,1.03-2.7,2.08-4.09,3.15-1.42,1-2.94,1.91-4.44,2.89-3.03,1.94-6.14,3.93-9.34,5.98-3.21,2.03-6.75,3.63-10.26,5.54-3.56,1.77-7.1,3.91-10.96,5.43-15.3,6.47-32.38,12.57-50.97,16.55-4.66.96-9.38,1.93-14.16,2.92-1.2.24-2.4.51-3.6.72l-3.65.46c-2.44.31-4.89.61-7.36.92-4.94.62-9.94,1.24-14.99,1.87l-3.8.45-3.86.2c-2.58.13-5.18.26-7.78.39-10.35.44-21.27,1.28-31.44.7-5.18-.14-10.39-.28-15.62-.42-5.31-.19-10.66-.37-16.02-.55-20.37-1.11-41.18-.42-61.83,1.91-20.66,2.23-41.17,6.06-61.12,10.97-19.94,4.95-39.37,10.88-57.85,17.63-37.02,13.4-70.49,29.27-98.65,44.06-14.13,7.32-26.7,14.77-37.96,21.24-11.19,6.58-20.78,12.62-28.71,17.59-7.87,5.05-14.01,9.12-18.17,11.92-4.14,2.84-6.34,4.35-6.34,4.35-.83.57-1.96.36-2.52-.47-.48-.71-.4-1.63.14-2.24Z" style="fill:#fff; opacity:.51; stroke-width:0px;"/><path d="M1405.21,1194.03l372.74,828c22.08,49.04,70.86,80.58,124.65,80.58h192.16c25.5,0,48.98-13.83,61.35-36.12l6.83-12.32h0c-20.65,0-39.55-11.58-48.93-29.96l-496.63-973.08-212.16,142.91Z" style="fill:url(#uuid-387f9d5e-84be-40d2-95fe-794cfe140318); stroke-width:0px;"/><path d="M1667.54,1149.41h0c-37.38-29.52-91.99-20.84-118.38,18.81l-548.04,823.38c-43.89,65.95-117.86,105.57-197.08,105.57h-77.11l-62.76-180.79s509.48-781.2,640.8-899.37c0,0,130.77-117.86,259.71-28.75,34.06,23.54,59.93,57.14,75.73,95.42l27.13,65.73Z" style="fill:url(#uuid-6841975e-d32e-4bbb-a5a0-3921f2da6f70); stroke-width:0px;"/><path d="M101.59,1397.08c41.29-35.33,120.49-87.83,236.03-99.42,0,0,84.43,28.77,252.64,330.17,168.21,301.4,279.86,438.85,410.87,363.78l-10.85,18.01c-35.75,59.35-99.97,95.64-169.25,95.64h-72.46c-79.78,0-154.67-38.36-201.26-103.12-116.02-161.28-339.58-463.72-444.93-550.13-17.27-14.16-17.75-40.41-.78-54.93Z" style="fill:url(#uuid-eb9e84d8-fe21-439f-be8f-68c614f5afd3); stroke-width:0px;"/><g style="opacity:.49;"><path d="M2812.8,407.04c-.2,0-.39-.01-.59-.03-2.85-.32-4.91-2.9-4.58-5.75l3.71-32.75c.32-2.85,2.91-4.93,5.75-4.58,2.85.32,4.91,2.9,4.58,5.75l-3.71,32.75c-.3,2.66-2.55,4.62-5.16,4.62Z" style="fill:#fff; stroke-width:0px;"/></g><g style="opacity:.49;"><path d="M1288.92,1453.37c-1,0-2.01-.29-2.91-.89-2.38-1.61-3.01-4.84-1.4-7.22l240.32-356.21c8.61-12.77,22.92-19.7,38.29-18.54,15.37,1.16,28.47,10.18,35.06,24.1,1.23,2.6.12,5.7-2.48,6.93-2.59,1.23-5.7.12-6.93-2.48-4.97-10.5-14.86-17.3-26.45-18.18-11.58-.87-22.38,4.35-28.88,13.98l-240.32,356.21c-1,1.49-2.64,2.29-4.31,2.29Z" style="fill:#fff; stroke-width:0px;"/></g><g style="opacity:.49;"><path d="M1226.46,1545.94c-1,0-2.02-.29-2.91-.89-2.38-1.61-3.01-4.84-1.4-7.22l15.41-22.84c1.61-2.39,4.85-3.01,7.22-1.4,2.38,1.61,3.01,4.84,1.4,7.22l-15.41,22.84c-1,1.49-2.65,2.29-4.31,2.29Z" style="fill:#fff; stroke-width:0px;"/></g><path d="M1713.25,892.02s-31.43,15.29-37.21,32.85c-4.64,14.09-39.39,15.91-42.82,43.62-1.77,14.31-12.36,25.77-26.61,27.95-35.5,5.44-90.2,23.87-98.95,85.5-6.68,47.04,17.3,64.88,42.47,71.05,18.48,4.53,30.77,22.51,27.03,41.18-3.59,17.9,1.76,38.59,32.77,54.95,69.49,36.67,138.89-86.87,138.89-86.87l14.22-215.7-49.78-54.54Z" style="fill:url(#uuid-527d2308-dfaa-4fd9-a1f7-1bea9b190a1e); stroke-width:0px;"/><path d="M2091.37,840.88s-138.75,219.46-303.73,261.85c0,0,32.15,91.56,56.96,102.04,0,0,202.98-169.36,255.14-332.7l-8.37-31.18Z" style="fill:url(#uuid-c4babcc0-18dd-4460-88ed-a971867b20a2); stroke-width:0px;"/><path d="M1427.62,2244.53l-4.5,36.97c-.85,7.01-6.37,12.56-13.39,13.36-11.85,1.35-30.87,2.74-49.47.77-8.17-.86-13.47-9.13-10.98-16.96,4.54-14.27,12.83-35.69,24.8-48.3h41.01c7.58,0,13.46,6.63,12.54,14.16Z" style="fill:url(#uuid-501cf2b1-265a-4b1b-8a3a-8eb9840dba9a); stroke-width:0px;"/><path d="M1748.81,1811.49l6.92,40.72s-23.18,234.78-27.3,328.69c-.65,14.72,3.16,29.27,10.89,41.82l40.3,65.45-102.43-60.44-2.04-12.5,16.77-23.06-21.96-263.01c-1.29-15.45,1.9-30.95,9.18-44.63l21.19-39.8,48.48-33.23Z" style="fill:url(#uuid-2cae19d1-4253-4974-a592-e85bf25b1d98); stroke-width:0px;"/><path d="M1786.37,2297.65h-32.69c-6.12,0-11.89-2.81-15.62-7.66-10.19-13.24-31.3-39.07-41.4-39.75-13.59-.91-11.85,47.41-11.85,47.41h-7.62l-9.65-60.04c-2.43-15.11,5.08-30.07,18.65-37.15,0,0,3.11,22.97,19.95,33.14,16.84,10.16,68.55,46.56,68.55,46.56,0,0,6.33-.9,13.29.35,10.31,1.86,8.87,17.14-1.61,17.14Z" style="fill:url(#uuid-b3a06f3b-987a-47b2-b799-ba09bd3aa1b3); stroke-width:0px;"/><path d="M1608.51,1830.83s-135.79,257.58-157.37,316.38c-21.59,58.81-29.15,107.87-29.44,112.51-.45,7.26-9.48,14.22-34.37,14.22-12.84,0-19.13-5.15-22.21-10.13-2.63-4.25-2.76-9.57-.55-14.05,7.85-15.9,32.78-66.7,42.01-89.74,11.02-27.51,34.73-152.18,47.73-195.52,13-43.35,27.7-90.36,84.32-133.67,0,0,38.87-38.07,69.87,0Z" style="fill:url(#uuid-3022adb0-54f5-4ee8-a607-020ad4306391); stroke-width:0px;"/><path d="M1694.29,1408.78c35.03-148.42-53.71-232.37-53.71-232.37,55.99-53.74,158-78.2,158-78.2,0,0,97.34,71.17,85.79,126.87-6.77,32.65-68.42,195.55-68.42,195.55,0,0-57.01,26.98-121.67-11.85Z" style="fill:#91b3fa; stroke-width:0px;"/><path d="M1616.63,1482.26c14.25-42.94,77.66-73.48,77.66-73.48,64.66,38.83,121.67,11.85,121.67,11.85,0,0,12.79,48.87,3.96,94.29-8.82,45.42-64.19,337.29-64.19,337.29-87.24,17.68-221.4-17.78-221.4-17.78,55.57-98.65,68.05-309.22,82.3-352.16Z" style="fill:url(#uuid-98874a6a-6896-4449-96e1-3ab0ad52d6bc); stroke-width:0px;"/><path d="M1734.95,1000.12l-28.48,127.92c-2.73,11.27,7.54,9.42,18.94,7.28,18.65-3.52,42.7-10.76,50.74-25.28.82-1.48,1.23-3.15,1.46-4.82l12.23-88.7c.97-7.04-2.83-13.87-9.33-16.75l-23.61-10.47c-9.09-4.03-19.61,1.16-21.95,10.82Z" style="fill:url(#uuid-683cfa1b-6cf8-4948-a849-54bc07eefea5); stroke-width:0px;"/><path d="M1640.58,1176.41s-198.76,142.2-25.42,291.63c0,0,6.61,7.48,19.61,11.36,6.56,1.96,25.98,16.65,35.83,24.31,3.16,2.46,7.74,1.62,9.87-1.77,1.67-2.66,1.86-5.99.52-8.83l-24.61-52.03c-6.83-6.38-17.29-6.83-24.65-1.07-4.69,3.68-11.57,2.14-14.2-3.22-13.4-27.29-38.7-107.56,64.86-198.26,3.89-3.41,4.88-9.05,2.49-13.64-7.28-13.98-23.92-41.73-44.3-48.49Z" style="fill:url(#uuid-a188993a-e73d-4fd0-99a1-679d249ceeeb); stroke-width:0px;"/><path d="M1789.49,883.51s30.32,20.52,43.35,72.79c13.03,52.26-8.14,71.01-29.85,69.86-21.7-1.15-53.17-7.86-80.43-45.35-27.26-37.49,27.2-122.37,66.93-97.29Z" style="fill:url(#uuid-6c577402-5d51-4594-9d3b-1d998a5c32aa); stroke-width:0px;"/><path d="M1750.05,959.73s-11.11-74.89,51.07-63.43l12.57,13.09s30.43-34.27-3.25-60.18c-33.68-25.91-80.42-19.27-106.27,27.89-25.86,47.17-35.24,80.31-13.57,109.62,21.67,29.31,37.98,4.17,37.98,4.17,0,0-9.94-25.37-1.69-36.25s18.89,6.33,18.89,6.33l4.28-1.23Z" style="fill:url(#uuid-20a4395e-cd2b-47fd-b5c6-29312380602c); stroke-width:0px;"/><path d="M1741.56,966.14s-5.48-38.53-25.16-27.52c-19.68,11.01,7.09,35.99,17.83,44.49l7.34-16.98Z" style="fill:url(#uuid-7b18b042-4eb9-48ea-86de-fdbd613d076c); stroke-width:0px;"/><path d="M2090.41,886.06c.42,4.53-16.41,7.66-21.77-11.64,1.47-8.38,4.09-45.07,10.51-50.77,34.22-30.36,95.23-64.51,95.23-64.51,6.82,10.42-2.13,17.28-2.13,17.28l-30.46,20.55c3.18,10.52,7.81,19.83,8.34,31.84.4,9.1-2.96,18-9,24.91-6.06,6.93-14.22,15.87-21.58,22.66-13.92,12.85-29.15,9.69-29.15,9.69Z" style="fill:url(#uuid-cb8b55f9-e37e-4dce-8377-4edc9ce39871); stroke-width:0px;"/><path d="M2106.96,871.11l-4.65-1.92c.62-1.51,15.23-37.02,22.3-44.41,2.69-2.8,3.98-5.2,3.86-7.14-.06-1.05-.58-2.08-1.56-3.14l-24.64,13.18-10.89,17.04-4.24-2.71,11.59-18.15,28.87-15.43,1.3,1.06c2.92,2.39,4.43,4.95,4.6,7.84.21,3.44-1.5,7.02-5.25,10.93-5.33,5.56-17.18,32.81-21.29,42.84Z" style="fill:url(#uuid-e3777d77-08fc-44a2-83b9-953464a6cd61); stroke-width:0px;"/></g></g></svg>