<?xml version="1.0" encoding="UTF-8"?><svg id="uuid-a6e36b4f-399c-4934-9cda-b72f7850013b" xmlns="http://www.w3.org/2000/svg" xmlns:xlink="http://www.w3.org/1999/xlink" viewBox="0 0 2798.67 2704.6"><defs><linearGradient id="uuid-80e69f2d-be8f-4699-a8ce-273cef23185d" x1="1207.42" y1="2649.87" x2="1230.82" y2="1800.61" gradientUnits="userSpaceOnUse"><stop offset="0" stop-color="#4f52ff"/><stop offset="1" stop-color="#4042e2"/></linearGradient><linearGradient id="uuid-8bff77e9-95b1-4ec4-8be0-f73b4b8ff98c" x1="847.17" y1="1543.95" x2="836.16" y2="1276.96" gradientUnits="userSpaceOnUse"><stop offset="0" stop-color="#09005d"/><stop offset="1" stop-color="#1a0f91"/></linearGradient><linearGradient id="uuid-594d3639-9883-4d5e-a3d6-7cd44982265e" x1="833.23" y1="1143.1" x2="888.28" y2="1908.28" xlink:href="#uuid-8bff77e9-95b1-4ec4-8be0-f73b4b8ff98c"/><linearGradient id="uuid-78ea1cbb-bb9e-4f09-9ce8-0196b70d592d" x1="1591" y1="1513.27" x2="1579.99" y2="1246.29" xlink:href="#uuid-8bff77e9-95b1-4ec4-8be0-f73b4b8ff98c"/><linearGradient id="uuid-1129a19f-7366-4fc9-b5ff-a5d21900fc83" x1="1575.06" y1="1089.73" x2="1630.11" y2="1854.91" xlink:href="#uuid-8bff77e9-95b1-4ec4-8be0-f73b4b8ff98c"/><linearGradient id="uuid-21d70a9f-636b-450c-82cc-457451a79cf0" x1="1269.51" y1="717.12" x2="1195.19" y2="1262.1" xlink:href="#uuid-80e69f2d-be8f-4699-a8ce-273cef23185d"/><linearGradient id="uuid-a11d0067-1eb8-4225-8357-24577d5184d6" x1="1291.93" y1="1141.54" x2="1019.43" y2="3684.79" xlink:href="#uuid-80e69f2d-be8f-4699-a8ce-273cef23185d"/><linearGradient id="uuid-afbcf65a-4e9d-4cf3-a91c-dba9c1b45adc" x1="1032.65" y1="2122.83" x2="1442.76" y2="2122.83" xlink:href="#uuid-8bff77e9-95b1-4ec4-8be0-f73b4b8ff98c"/><filter id="uuid-c42de734-4add-471f-937b-65f5336d7f45" x="1081.64" y="1988.57" width="312.13" height="268.27" color-interpolation-filters="sRGB" filterUnits="userSpaceOnUse"><feFlood flood-color="#fff" result="bg"/><feBlend in="SourceGraphic" in2="bg"/></filter><filter id="uuid-9304ae79-3aa1-454f-8e55-3c2b60e0d2bd" x="1081.64" y="-9496.6" width="312.13" height="32766" color-interpolation-filters="sRGB" filterUnits="userSpaceOnUse"><feFlood flood-color="#fff" result="bg"/><feBlend in="SourceGraphic" in2="bg"/></filter><mask id="uuid-5898d92b-ceb5-4f2c-8f21-045613aaa0e1" x="1081.64" y="-9496.6" width="312.13" height="32766" maskUnits="userSpaceOnUse"/><linearGradient id="uuid-144755e8-85a2-44a5-92bf-5fefc20509c4" x1="1081.64" y1="2122.71" x2="1393.77" y2="2122.71" gradientUnits="userSpaceOnUse"><stop offset="0" stop-color="#fff"/><stop offset="1" stop-color="#000"/></linearGradient><mask id="uuid-cd6c78ed-9726-4859-91b5-c66e57a946b8" x="1081.64" y="1988.57" width="312.13" height="268.27" maskUnits="userSpaceOnUse"><g style="filter:url(#uuid-c42de734-4add-471f-937b-65f5336d7f45);"><g style="mask:url(#uuid-5898d92b-ceb5-4f2c-8f21-045613aaa0e1);"><path d="M1331.2,2256.84h-181.58c-23.8,0-43.84-17.7-46.66-41.22l-20.98-174.73c-3.34-27.83,18.5-52.32,46.66-52.32h218.14c27.59,0,49.25,23.55,46.81,50.91l-15.58,174.73c-2.15,24.13-22.46,42.64-46.81,42.64Z" style="fill:url(#uuid-144755e8-85a2-44a5-92bf-5fefc20509c4); mix-blend-mode:multiply; stroke-width:0px;"/></g></g></mask><linearGradient id="uuid-81d50a1e-ce16-4762-90c6-a8c6abc69e8e" x1="407.49" y1="3345.12" x2="1325.24" y2="1981.02" xlink:href="#uuid-8bff77e9-95b1-4ec4-8be0-f73b4b8ff98c"/><linearGradient id="uuid-53649123-5fec-442c-926d-339c39e8923e" x1="-1139.61" y1="3287.38" x2="-1122.89" y2="3705.32" gradientTransform="translate(1053.2) rotate(-180) scale(1 -1)" xlink:href="#uuid-8bff77e9-95b1-4ec4-8be0-f73b4b8ff98c"/><linearGradient id="uuid-1fabd010-1a50-4742-bca3-e99d41b47780" x1="-1162.57" y1="2692.95" x2="-1162.57" y2="1760.1" gradientTransform="translate(1053.2) rotate(-180) scale(1 -1)" xlink:href="#uuid-8bff77e9-95b1-4ec4-8be0-f73b4b8ff98c"/><linearGradient id="uuid-2e878f38-091f-44ec-896e-6cdbe8728e06" x1="-1621.92" y1="3306.67" x2="-1605.21" y2="3724.62" gradientTransform="translate(1053.2) rotate(-180) scale(1 -1)" xlink:href="#uuid-8bff77e9-95b1-4ec4-8be0-f73b4b8ff98c"/><linearGradient id="uuid-4b2ca9f3-e282-4c59-9fae-adaa301bf2fc" x1="-1648.58" y1="2692.95" x2="-1648.58" y2="1760.1" gradientTransform="translate(1053.2) rotate(-180) scale(1 -1)" xlink:href="#uuid-8bff77e9-95b1-4ec4-8be0-f73b4b8ff98c"/><linearGradient id="uuid-5b8fe48c-075f-4a48-bf7e-da8434a65f2a" x1="-1655.56" y1="2564.68" x2="-1582.81" y2="2564.68" gradientTransform="translate(1053.2) rotate(-180) scale(1 -1)" gradientUnits="userSpaceOnUse"><stop offset="0" stop-color="#febbba"/><stop offset="1" stop-color="#ff928e"/></linearGradient><linearGradient id="uuid-804bdbd8-07df-4aab-8878-b1d2cebeee95" x1="-1270.13" y1="2559.92" x2="-1209.49" y2="2559.92" xlink:href="#uuid-5b8fe48c-075f-4a48-bf7e-da8434a65f2a"/><linearGradient id="uuid-837d3b16-4fba-49f2-9489-0fb9c80959d5" x1="2707.97" y1="960.48" x2="2415.53" y2="2182.23" xlink:href="#uuid-8bff77e9-95b1-4ec4-8be0-f73b4b8ff98c"/><linearGradient id="uuid-c6dc411a-4cf6-41cb-8ded-d6e3e84fb1de" x1="-1119.33" y1="1627.64" x2="-1367.52" y2="1948.52" gradientTransform="translate(1053.2) rotate(-180) scale(1 -1)" gradientUnits="userSpaceOnUse"><stop offset="0" stop-color="#cb236d"/><stop offset="1" stop-color="#4c246d"/></linearGradient><linearGradient id="uuid-16122874-acb8-40f7-908a-3534b168ba9e" x1="2000.01" y1="4950.44" x2="2351.91" y2="5425.98" gradientTransform="translate(1435.33 13.21) rotate(-173.86) scale(1 -1)" xlink:href="#uuid-8bff77e9-95b1-4ec4-8be0-f73b4b8ff98c"/><linearGradient id="uuid-11cbf40a-b9ea-4a2c-bfe3-d1fb7bfe9dd5" x1="-866.13" y1="932.68" x2="-837.77" y2="757.77" gradientTransform="translate(1435.33 13.21) rotate(-173.86) scale(1 -1)" xlink:href="#uuid-5b8fe48c-075f-4a48-bf7e-da8434a65f2a"/><linearGradient id="uuid-f982883e-bf52-471e-841d-dc248daa751f" x1="-772.6" y1="646.03" x2="-965.83" y2="793.89" gradientTransform="translate(1435.33 13.21) rotate(-173.86) scale(1 -1)" xlink:href="#uuid-5b8fe48c-075f-4a48-bf7e-da8434a65f2a"/><linearGradient id="uuid-d6a62e26-0233-4126-86a6-e828a7a3e642" x1="-908.36" y1="529.32" x2="-733.38" y2="754.61" gradientTransform="translate(1435.33 13.21) rotate(-173.86) scale(1 -1)" xlink:href="#uuid-8bff77e9-95b1-4ec4-8be0-f73b4b8ff98c"/><linearGradient id="uuid-e4b2be5e-a75c-49ae-89c4-1443d9f176b9" x1="-796.57" y1="614.71" x2="-989.8" y2="762.56" gradientTransform="translate(1435.33 13.21) rotate(-173.86) scale(1 -1)" xlink:href="#uuid-5b8fe48c-075f-4a48-bf7e-da8434a65f2a"/><linearGradient id="uuid-2926efbb-698a-416f-ab00-d7ebd93abc7a" x1="4112.77" y1="3814.52" x2="2865.14" y2="5452.43" gradientTransform="translate(-2703.45 4094.66) rotate(-79.31)" gradientUnits="userSpaceOnUse"><stop offset="0" stop-color="#ff928e"/><stop offset="1" stop-color="#fe7062"/></linearGradient><linearGradient id="uuid-e60cf8b0-519a-4b36-ae67-0df83e269e1d" x1="3748.31" y1="4347.36" x2="2927.17" y2="4387.89" gradientTransform="translate(-2703.45 4094.66) rotate(-79.31)" gradientUnits="userSpaceOnUse"><stop offset="0" stop-color="#dae3fe"/><stop offset="1" stop-color="#e9effd"/></linearGradient><linearGradient id="uuid-b5ad5137-9fd3-4e62-91bc-e6fc1b564a3e" x1="2338.27" y1="1454.55" x2="1425.19" y2="2474.63" gradientTransform="matrix(1,0,0,1,0,0)" xlink:href="#uuid-2926efbb-698a-416f-ab00-d7ebd93abc7a"/><linearGradient id="uuid-092780e5-2fc0-4fb5-b877-887edfca7f72" x1="2045.09" y1="1192.13" x2="1132.01" y2="2212.21" gradientTransform="matrix(1,0,0,1,0,0)" xlink:href="#uuid-2926efbb-698a-416f-ab00-d7ebd93abc7a"/><linearGradient id="uuid-703d64a1-36b1-47e1-9aee-56ab013f177e" x1="1810.33" y1="5091.28" x2="2162.25" y2="5566.86" gradientTransform="translate(1435.33 13.21) rotate(-173.86) scale(1 -1)" xlink:href="#uuid-8bff77e9-95b1-4ec4-8be0-f73b4b8ff98c"/><linearGradient id="uuid-7d717dc6-afca-4063-8e4f-46a30ead26fc" x1="2581.86" y1="1474.14" x2="3056.64" y2="718.51" gradientTransform="matrix(1,0,0,1,0,0)" xlink:href="#uuid-5b8fe48c-075f-4a48-bf7e-da8434a65f2a"/></defs><path d="M.95,710.36c-4.3-8.43,6.82-17.47,16.07-13.12,93.87,44.22,328.63,188.04,363.42,531.67,43.65,431.15,181.55,558.48,329.48,620.46,0,0-182.56-1.37-328.61-129.07C22.74,1406.76,77.44,860.26.95,710.36Z" style="fill:#bdd0fb; stroke-width:0px;"/><path d="M92.51,825.86c21.2,43.98,41.36,88.37,59.6,133.45,18.51,44.97,35.41,90.51,50.64,136.55,15.02,46.09,29.03,92.49,40.73,139.47,11.94,46.92,21.54,94.38,30.98,142.07,9.74,47.6,19.25,95.61,34.45,142.58,15.13,46.89,37.01,92.56,68.03,132.78,7.75,10.02,15.74,19.95,24.36,29.32,8.41,9.53,17.33,18.7,26.44,27.72,18.34,17.95,38.16,34.78,59.41,50.16,42.61,30.65,90.95,55.25,142.05,73.56,5.38,1.93,11.82-.45,14.39-5.32,2.52-4.78.37-10.17-4.8-12.19h-.04c-12.26-4.79-24.43-9.68-36.28-15.05-5.98-2.6-11.8-5.43-17.68-8.17-5.74-2.93-11.63-5.66-17.25-8.76-22.74-12.02-44.38-25.49-64.67-40.36-40.71-29.54-76.18-64.89-105.9-103.26-14.61-19.36-27.49-39.73-38.47-61-10.96-21.29-20.01-43.46-27.6-66.19-15.17-45.49-25.03-92.92-35.17-140.43-10.21-47.5-20.85-95.16-33.74-142.21-6.37-23.55-13.23-46.96-20.57-70.22-3.59-11.66-7.45-23.23-11.28-34.81-3.96-11.54-7.99-23.06-12.14-34.54-16.67-45.89-34.96-91.21-54.9-135.86-20.19-44.55-41.76-88.54-65.29-131.6-.67-1.23-2.39-1.68-3.84-1-1.41.66-2.04,2.14-1.46,3.35Z" style="fill:#fff; opacity:.5; stroke-width:0px;"/><path d="M429.37,1426.54c-7.09,12.54-24.69,13.76-33.59,2.44-49.14-62.49-172.1-251.73-111.68-519.43,51.02-226.06,57.21-353.49,56.01-411.53-.25-12.27,15.31-17.74,22.8-8.01,82.67,107.28,323.49,482.13,66.47,936.54Z" style="fill:#91b3fa; stroke-width:0px;"/><path d="M410.11,1423.4c-.33.15-.67.26-1.03.34-3.03.7-6.05-1.2-6.74-4.22-.79-3.43-78.17-346.87-21.42-664.4.55-3.06,3.47-5.09,6.53-4.55,3.06.55,5.09,3.47,4.55,6.53-56.33,315.22,20.53,656.49,21.31,659.9.61,2.67-.78,5.33-3.19,6.4Z" style="fill:#fff; opacity:.5; stroke-width:0px;"/><path d="M2042.27,2334.38H505.75V136.64C505.75,59.34,564.46-2.57,635.26.08l1451.08,21.62c74,1.1,132.88,68.03,130.87,148.76l-50.63,2031.9c-1.83,73.49-56.95,132.02-124.32,132.02Z" style="fill:#91b3fa; stroke-width:0px;"/><path d="M2014.93,2000.98H529.62V172.57c0-64.31,56.76-115.81,125.2-113.61l1402.72,17.99c71.54.92,128.46,56.6,126.51,123.76l-48.94,1690.44c-1.77,61.14-55.05,109.83-120.18,109.83Z" style="fill:#fff; opacity:.6; stroke-width:0px;"/><path d="M531.64,202.97l1657.41,12.95v-79.61c-2.22-33.12-34.83-77.42-85.51-77.42l-1496.49-18.77c-35.67-.4-77.82,49.58-77.12,87.9l1.72,74.95Z" style="fill:#91b3fa; stroke-width:0px;"/><circle cx="611.15" cy="118.84" r="23.15" transform="translate(94.97 466.96) rotate(-45)" style="fill:#fff; opacity:.6; stroke-width:0px;"/><circle cx="703.76" cy="121.52" r="23.15" transform="translate(120.2 533.22) rotate(-45)" style="fill:#fff; opacity:.6; stroke-width:0px;"/><circle cx="792.61" cy="121.52" r="23.15" transform="translate(492.24 865) rotate(-76.72)" style="fill:#fff; opacity:.6; stroke-width:0px;"/><rect x="621.51" y="287.4" width="604.11" height="380.17" rx="7.59" ry="7.59" style="fill:#91b3fa; stroke-width:0px;"/><path d="M1179.56,652.09h-512.01c-15.05,0-27.29-12.24-27.29-27.29v-293.93c0-15.05,12.24-27.29,27.29-27.29h512.01c15.05,0,27.29,12.24,27.29,27.29v293.93c0,15.05-12.24,27.29-27.29,27.29ZM667.55,306.96c-13.19,0-23.92,10.73-23.92,23.92v293.93c0,13.19,10.73,23.92,23.92,23.92h512.01c13.19,0,23.92-10.73,23.92-23.92v-293.93c0-13.19-10.73-23.92-23.92-23.92h-512.01Z" style="fill:#fff; stroke-width:0px;"/><path d="M724.51,609.08h303.64c9.45,0,15.33-10.27,10.53-18.42l-120.21-204.35c-5.01-8.52-17.55-7.87-21.65,1.12l-58.04,127.18c-3.45,7.55-13.26,9.54-19.38,3.93l-23.48-21.52c-5.45-5-14.07-4.04-18.29,2.03l-63.16,90.82c-5.63,8.1.16,19.2,10.03,19.2Z" style="fill:#fff; stroke-width:0px;"/><circle cx="1024.02" cy="380.14" r="43.65" transform="translate(-67.52 420.81) rotate(-22.5)" style="fill:#fff; stroke-width:0px;"/><rect x="621.51" y="734.83" width="604.11" height="380.17" rx="9.24" ry="9.24" style="fill:#91b3fa; stroke-width:0px;"/><path d="M739.07,1056.33h303.64c9.45,0,15.33-10.27,10.53-18.42l-120.21-204.35c-5.01-8.52-17.55-7.87-21.65,1.12l-58.04,127.18c-3.45,7.55-13.26,9.54-19.38,3.93l-23.48-21.52c-5.45-5-14.07-4.04-18.29,2.03l-63.16,90.82c-5.63,8.1.16,19.2,10.03,19.2Z" style="fill:#fff; stroke-width:0px;"/><circle cx="1038.58" cy="827.39" r="43.65" transform="translate(-237.57 460.43) rotate(-22.5)" style="fill:#fff; stroke-width:0px;"/><path d="M1179.13,1102.42h-512.02c-15.05,0-27.29-12.24-27.29-27.29v-293.93c0-15.05,12.24-27.29,27.29-27.29h512.02c15.05,0,27.29,12.24,27.29,27.29v293.93c0,15.05-12.24,27.29-27.29,27.29ZM667.12,757.29c-13.19,0-23.92,10.73-23.92,23.92v293.93c0,13.19,10.73,23.92,23.92,23.92h512.02c13.19,0,23.92-10.73,23.92-23.92v-293.93c0-13.19-10.73-23.92-23.92-23.92h-512.02Z" style="fill:#fff; stroke-width:0px;"/><rect x="1372.17" y="287.4" width="711.14" height="447.53" rx="7.59" ry="7.59" style="fill:#91b3fa; stroke-width:0px;"/><path d="M2033.64,716.4h-611.8c-15.05,0-27.29-12.24-27.29-27.29v-355.07c0-15.05,12.24-27.29,27.29-27.29h611.8c15.05,0,27.29,12.24,27.29,27.29v355.07c0,15.05-12.24,27.29-27.29,27.29ZM1421.84,310.13c-13.19,0-23.92,10.73-23.92,23.92v355.07c0,13.19,10.73,23.92,23.92,23.92h611.8c13.19,0,23.92-10.73,23.92-23.92v-355.07c0-13.19-10.73-23.92-23.92-23.92h-611.8Z" style="fill:#fff; stroke-width:0px;"/><g style="opacity:.9;"><path d="M1723.3,635.67c-69.63,0-126.27-56.65-126.27-126.27s56.65-126.27,126.27-126.27,126.27,56.65,126.27,126.27-56.65,126.27-126.27,126.27ZM1723.3,404.28c-57.96,0-105.11,47.15-105.11,105.11s47.15,105.11,105.11,105.11,105.11-47.15,105.11-105.11-47.15-105.11-105.11-105.11Z" style="fill:#fff; stroke-width:0px;"/><path d="M1683.74,558.02v-90.78c0-9.7,10.56-15.71,18.9-10.76l76.5,45.39c8.17,4.85,8.17,16.68,0,21.53l-76.5,45.39c-8.34,4.95-18.9-1.06-18.9-10.76Z" style="fill:#fff; fill-rule:evenodd; stroke-width:0px;"/></g><rect x="1367.73" y="810.77" width="711.14" height="447.53" rx="7.59" ry="7.59" style="fill:#91b3fa; stroke-width:0px;"/><path d="M2029.2,1239.77h-611.8c-15.05,0-27.29-12.24-27.29-27.29v-355.07c0-15.05,12.24-27.29,27.29-27.29h611.8c15.05,0,27.29,12.24,27.29,27.29v355.07c0,15.05-12.24,27.29-27.29,27.29ZM1417.4,833.49c-13.19,0-23.92,10.73-23.92,23.92v355.07c0,13.19,10.73,23.92,23.92,23.92h611.8c13.19,0,23.92-10.73,23.92-23.92v-355.07c0-13.19-10.73-23.92-23.92-23.92h-611.8Z" style="fill:#fff; stroke-width:0px;"/><g style="opacity:.9;"><path d="M1718.86,1159.04c-69.63,0-126.27-56.65-126.27-126.27s56.65-126.27,126.27-126.27,126.27,56.65,126.27,126.27-56.65,126.27-126.27,126.27ZM1718.86,927.65c-57.96,0-105.11,47.15-105.11,105.11s47.15,105.11,105.11,105.11,105.11-47.15,105.11-105.11-47.15-105.11-105.11-105.11Z" style="fill:#fff; stroke-width:0px;"/><path d="M1679.3,1081.39v-90.78c0-9.7,10.56-15.71,18.9-10.76l76.5,45.39c8.17,4.85,8.17,16.68,0,21.53l-76.5,45.39c-8.34,4.95-18.9-1.06-18.9-10.76Z" style="fill:#fff; fill-rule:evenodd; stroke-width:0px;"/></g><path d="M273.25,1873.17l20.13,625.94c3.51,109.15,93.08,196.01,202.8,196.65l1498.92,8.83c73.33.43,135.8-52.85,146.5-125.05,23.44-158.07,53.3-440.91,19.67-706.38H273.25Z" style="fill:url(#uuid-80e69f2d-be8f-4699-a8ce-273cef23185d); stroke-width:0px;"/><path d="M1942,2666.15h-.01l-10.92-.06c-1.01,0-1.81-.82-1.81-1.83,0-1,.82-1.81,1.82-1.81h.01l10.92.06c1,0,1.81.83,1.81,1.83,0,1-.82,1.81-1.82,1.81ZM1967.46,2665.97c-.95,0-1.75-.74-1.81-1.71-.06-1,.7-1.87,1.7-1.93,3.57-.22,7.17-.58,10.72-1.08.98-.16,1.91.55,2.05,1.55.14,1-.55,1.91-1.55,2.05-3.64.51-7.34.88-11,1.11-.04,0-.08,0-.11,0ZM1905.6,2665.93h-.01l-10.92-.07c-1.01,0-1.81-.83-1.81-1.83,0-1,.82-1.81,1.82-1.81h.01l10.92.07c1.01,0,1.81.83,1.81,1.83,0,1-.82,1.81-1.82,1.81ZM1869.21,2665.72h-.01l-10.92-.06c-1.01,0-1.81-.83-1.81-1.83,0-1,.82-1.81,1.82-1.81h.01l10.92.06c1,0,1.81.82,1.81,1.83,0,1-.82,1.81-1.82,1.81ZM1832.81,2665.5h-.01l-10.92-.06c-1.01,0-1.81-.82-1.81-1.83,0-1,.97-1.76,1.83-1.81l10.92.06c1,0,1.81.83,1.81,1.83,0,1-.82,1.81-1.82,1.81ZM1796.42,2665.29h-.01l-10.92-.07c-1.01,0-1.81-.83-1.81-1.83,0-1,.82-1.81,1.82-1.81h.01l10.92.07c1.01,0,1.81.83,1.81,1.83,0,1-.82,1.81-1.82,1.81ZM1760.02,2665.07h-.01l-10.92-.06c-1.01,0-1.81-.82-1.81-1.83,0-1,.97-1.84,1.83-1.81l10.92.06c1.01,0,1.81.82,1.81,1.83,0,1-.82,1.81-1.82,1.81ZM1723.63,2664.86h-.01l-10.92-.06c-1,0-1.81-.82-1.81-1.83,0-1,.82-1.81,1.82-1.81h.01l10.92.06c1.01,0,1.81.82,1.81,1.83,0,1-.82,1.81-1.82,1.81ZM1687.24,2664.64h-.01l-10.92-.06c-1,0-1.81-.82-1.81-1.83,0-1,.82-1.81,1.82-1.81h.01l10.92.06c1.01,0,1.81.82,1.81,1.83,0,1-.82,1.81-1.82,1.81ZM1650.84,2664.43h-.01l-10.92-.06c-1,0-1.81-.82-1.81-1.83,0-1,.82-1.81,1.82-1.81h.01l10.92.06c1.01,0,1.81.83,1.81,1.83,0,1-.82,1.81-1.82,1.81ZM1614.45,2664.22h-.01l-10.92-.06c-1,0-1.81-.82-1.81-1.83,0-1,.82-1.81,1.82-1.81h.01l10.92.06c1.01,0,1.81.82,1.81,1.83,0,1-.82,1.81-1.82,1.81ZM1578.05,2664h-.01l-10.92-.06c-1,0-1.81-.83-1.81-1.83,0-1,.82-1.81,1.82-1.81h.01l10.92.06c1.01,0,1.81.82,1.81,1.83,0,1-.82,1.81-1.82,1.81ZM1541.66,2663.79h-.01l-10.92-.07c-1.01,0-1.81-.83-1.81-1.83,0-1,.82-1.81,1.82-1.81h.01l10.92.07c1.01,0,1.81.83,1.81,1.83,0,1-.82,1.81-1.82,1.81ZM1505.27,2663.57h-.01l-10.92-.06c-1.01,0-1.81-.82-1.81-1.83,0-1,.82-1.81,1.82-1.81h.01l10.92.06c1.01,0,1.81.82,1.81,1.83,0,1-.82,1.81-1.82,1.81ZM1468.87,2663.36h-.01l-10.92-.06c-1.01,0-1.81-.83-1.81-1.83,0-1,.82-1.81,1.82-1.81h.01l10.92.06c1.01,0,1.81.82,1.81,1.83,0,1-.82,1.81-1.82,1.81ZM1432.48,2663.14h-.01l-10.92-.07c-1.01,0-1.81-.83-1.81-1.83,0-1,.82-1.81,1.82-1.81h.01l10.92.07c1.01,0,1.81.83,1.81,1.83,0,1-.82,1.81-1.82,1.81ZM1396.08,2662.93h-.01l-10.92-.06c-1.01,0-1.81-.82-1.81-1.83,0-1,.94-1.7,1.83-1.81l10.92.06c1,0,1.81.82,1.81,1.83,0,1-.82,1.81-1.82,1.81ZM1359.69,2662.71h-.01l-10.92-.06c-1.01,0-1.81-.82-1.81-1.83,0-1,.82-1.81,1.82-1.81h.01l10.92.06c1,0,1.81.82,1.81,1.83,0,1-.82,1.81-1.82,1.81ZM1323.29,2662.5h-.01l-10.92-.06c-1.01,0-1.81-.82-1.81-1.83,0-1.01.93-1.77,1.83-1.81l10.92.06c1.01,0,1.81.82,1.81,1.83,0,1-.82,1.81-1.82,1.81ZM1286.9,2662.29h-.01l-10.92-.06c-1.01,0-1.81-.83-1.81-1.83,0-1,.82-1.81,1.82-1.81h.01l10.92.06c1.01,0,1.81.82,1.81,1.83,0,1-.82,1.81-1.82,1.81ZM1250.51,2662.07h-.01l-10.92-.06c-1.01,0-1.81-.82-1.81-1.83,0-1,.93-1.84,1.83-1.81l10.92.06c1.01,0,1.81.83,1.81,1.83,0,1-.82,1.81-1.82,1.81ZM1214.11,2661.86h-.01l-10.92-.06c-1.01,0-1.81-.82-1.81-1.83,0-1,.82-1.81,1.82-1.81h.01l10.92.06c1.01,0,1.81.82,1.81,1.83,0,1-.82,1.81-1.82,1.81ZM1177.72,2661.64h-.01l-10.92-.07c-1.01,0-1.81-.83-1.81-1.83,0-1,.82-1.81,1.82-1.81h.01l10.92.07c1.01,0,1.81.83,1.81,1.83,0,1-.82,1.81-1.82,1.81ZM1141.32,2661.43h-.01l-10.92-.06c-1,0-1.81-.82-1.81-1.83,0-1,.82-1.81,1.82-1.81h.01l10.92.06c1.01,0,1.81.83,1.81,1.83,0,1-.82,1.81-1.82,1.81ZM1104.93,2661.21h-.01l-10.92-.06c-1,0-1.81-.82-1.81-1.83,0-1,.82-1.81,1.82-1.81h.01l10.92.06c1.01,0,1.81.82,1.81,1.83,0,1-.82,1.81-1.82,1.81ZM1068.53,2661h-.01l-10.92-.06c-1,0-1.81-.83-1.81-1.83,0-1,.82-1.81,1.82-1.81h.01l10.92.06c1.01,0,1.81.82,1.81,1.83,0,1-.82,1.81-1.82,1.81ZM1032.14,2660.78h-.01l-10.92-.06c-1.01,0-1.81-.82-1.81-1.83,0-1,.82-1.81,1.82-1.81h.01l10.92.06c1.01,0,1.81.82,1.81,1.83,0,1-.82,1.81-1.82,1.81ZM995.75,2660.57h-.01l-10.92-.06c-1.01,0-1.81-.82-1.81-1.83,0-1,.82-1.81,1.82-1.81h.01l10.92.06c1.01,0,1.81.82,1.81,1.83,0,1-.82,1.81-1.82,1.81ZM959.35,2660.35h-.01l-10.92-.06c-1.01,0-1.81-.82-1.81-1.83,0-1,.82-1.81,1.82-1.81h.01l10.92.06c1.01,0,1.81.82,1.81,1.83,0,1-.82,1.81-1.82,1.81ZM922.96,2660.14h-.01l-10.92-.07c-1.01,0-1.81-.83-1.81-1.83,0-1,.82-1.81,1.82-1.81h.01l10.92.07c1.01,0,1.81.83,1.81,1.83,0,1-.82,1.81-1.82,1.81ZM886.56,2659.93h-.01l-10.92-.06c-1.01,0-1.81-.83-1.81-1.83,0-1,.9-1.71,1.83-1.81l10.92.06c1,0,1.81.82,1.81,1.83,0,1-.82,1.81-1.82,1.81ZM850.17,2659.71h-.01l-10.92-.06c-1.01,0-1.81-.82-1.81-1.83,0-1,.82-1.81,1.82-1.81h.01l10.92.06c1,0,1.81.83,1.81,1.83,0,1-.82,1.81-1.82,1.81ZM813.78,2659.5h-.01l-10.92-.07c-1.01,0-1.81-.83-1.81-1.83,0-1.01.9-1.78,1.83-1.81l10.92.07c1.01,0,1.81.83,1.81,1.83,0,1-.82,1.81-1.82,1.81ZM777.38,2659.28h-.01l-10.92-.06c-1.01,0-1.81-.83-1.81-1.83,0-1,.82-1.81,1.82-1.81h.01l10.92.06c1.01,0,1.81.82,1.81,1.83,0,1-.82,1.81-1.82,1.81ZM2003.09,2659.09c-.76,0-1.47-.48-1.73-1.25-.32-.95.2-1.98,1.15-2.3,3.4-1.13,6.79-2.4,10.09-3.79.93-.38,1.99.04,2.38.97.39.93-.04,1.99-.97,2.38-3.38,1.43-6.87,2.74-10.35,3.89-.19.06-.38.09-.57.09ZM740.99,2659.07h-.01l-10.92-.06c-1.01,0-1.81-.82-1.81-1.83,0-1,.89-1.85,1.83-1.81l10.92.06c1.01,0,1.81.83,1.81,1.83,0,1-.82,1.81-1.82,1.81ZM704.59,2658.85h-.01l-10.92-.06c-1.01,0-1.81-.82-1.81-1.83,0-1,.82-1.81,1.82-1.81h.01l10.92.06c1.01,0,1.81.82,1.81,1.83,0,1-.82,1.81-1.82,1.81ZM668.2,2658.64h-.01l-10.92-.06c-1.01,0-1.81-.82-1.81-1.83,0-1,.82-1.81,1.82-1.81h.01l10.92.06c1.01,0,1.81.83,1.81,1.83,0,1-.82,1.81-1.82,1.81ZM631.8,2658.42h-.01l-10.92-.06c-1.01,0-1.81-.82-1.81-1.83,0-1,.82-1.81,1.82-1.81h.01l10.92.06c1.01,0,1.81.82,1.81,1.83,0,1-.82,1.81-1.82,1.81ZM595.41,2658.21h-.01l-10.92-.06c-1,0-1.81-.82-1.81-1.83,0-1,.82-1.81,1.82-1.81h.01l10.92.06c1.01,0,1.81.82,1.81,1.83,0,1-.82,1.81-1.82,1.81ZM559.01,2658h-.01l-10.92-.07c-1.01,0-1.81-.83-1.81-1.83,0-1,.82-1.81,1.82-1.81h.01l10.92.07c1.01,0,1.81.83,1.81,1.83,0,1-.82,1.81-1.82,1.81ZM522.63,2657.59s-.06,0-.09,0c-3.64-.18-7.33-.47-10.98-.86-1-.1-1.72-1-1.62-2,.11-1,.98-1.74,2-1.62,3.58.38,7.2.66,10.78.84,1,.05,1.78.9,1.73,1.91-.05.97-.85,1.73-1.82,1.73ZM486.67,2652.41c-.14,0-.28-.02-.43-.05-3.55-.85-7.13-1.82-10.63-2.88-.96-.29-1.51-1.3-1.22-2.27.29-.96,1.31-1.51,2.27-1.22,3.44,1.04,6.95,1.99,10.43,2.83.98.24,1.58,1.22,1.34,2.2-.2.83-.95,1.39-1.77,1.39ZM2035.76,2643.28c-.59,0-1.17-.29-1.52-.82-.55-.84-.32-1.97.52-2.52,3-1.97,5.95-4.07,8.78-6.25.79-.61,1.94-.47,2.55.33.61.79.47,1.94-.33,2.55-2.89,2.24-5.92,4.4-9,6.42-.31.2-.65.3-1,.3ZM452.3,2640.62c-.25,0-.5-.05-.75-.16-3.32-1.5-6.65-3.12-9.89-4.81-.89-.47-1.24-1.56-.77-2.46.47-.89,1.56-1.24,2.46-.77,3.19,1.66,6.45,3.25,9.71,4.72.92.41,1.32,1.49.91,2.41-.3.67-.97,1.07-1.66,1.07ZM420.76,2622.64c-.36,0-.73-.11-1.04-.33-2.99-2.1-5.96-4.31-8.83-6.57-.79-.62-.92-1.77-.3-2.56.62-.79,1.77-.92,2.56-.3,2.82,2.22,5.73,4.39,8.67,6.45.82.58,1.02,1.71.44,2.53-.35.5-.92.77-1.49.77ZM2063.28,2619.63c-.43,0-.87-.15-1.22-.47-.75-.67-.81-1.82-.14-2.57,2.38-2.66,4.69-5.45,6.87-8.29.61-.8,1.75-.95,2.55-.34.8.61.95,1.75.34,2.55-2.23,2.92-4.61,5.79-7.06,8.51-.36.4-.86.6-1.35.6ZM393.09,2599.1c-.47,0-.95-.18-1.3-.55-2.55-2.62-5.07-5.34-7.47-8.1-.66-.76-.58-1.91.18-2.57.76-.66,1.9-.58,2.57.18,2.36,2.71,4.82,5.38,7.33,7.95.7.72.69,1.87-.03,2.57-.35.34-.81.52-1.27.52ZM2083.78,2589.7c-.28,0-.56-.06-.82-.2-.9-.45-1.25-1.55-.8-2.44,1.62-3.19,3.12-6.48,4.49-9.78.38-.93,1.45-1.36,2.38-.99.93.38,1.37,1.45.99,2.38-1.4,3.39-2.95,6.77-4.61,10.04-.32.63-.96,1-1.62,1ZM370.27,2570.82c-.59,0-1.17-.29-1.52-.82-2.03-3.06-3.99-6.21-5.83-9.36-.51-.87-.22-1.98.65-2.49.87-.51,1.98-.21,2.49.65,1.81,3.09,3.73,6.18,5.72,9.19.55.84.33,1.97-.51,2.52-.31.2-.66.3-1,.3ZM2095.81,2555.48c-.12,0-.25-.01-.37-.04-.98-.21-1.61-1.17-1.41-2.15.56-2.67,1.05-5.41,1.46-8.14l.37-2.51c.15-.99,1.07-1.7,2.06-1.54.99.14,1.68,1.07,1.54,2.06l-.37,2.52c-.42,2.8-.92,5.61-1.5,8.35-.18.86-.94,1.45-1.78,1.45ZM353.14,2538.76c-.71,0-1.39-.42-1.68-1.12-1.41-3.37-2.74-6.84-3.97-10.3-.33-.95.16-1.99,1.11-2.32.94-.32,1.98.16,2.32,1.11,1.2,3.4,2.51,6.8,3.89,10.11.39.93-.05,1.99-.98,2.38-.23.1-.47.14-.7.14ZM2101.27,2519.5c-.08,0-.17,0-.25-.02-1-.14-1.69-1.06-1.55-2.05.49-3.55.99-7.16,1.48-10.81.14-.99,1.04-1.69,2.05-1.56,1,.14,1.69,1.05,1.56,2.05-.5,3.66-.99,7.27-1.49,10.82-.13.91-.91,1.57-1.8,1.57ZM342.36,2504.02c-.84,0-1.6-.59-1.78-1.45-.75-3.59-1.4-7.24-1.94-10.84-.15-.99.54-1.92,1.53-2.07,1.01-.13,1.92.54,2.07,1.53.53,3.54,1.17,7.12,1.91,10.64.21.98-.42,1.95-1.41,2.15-.12.03-.25.04-.37.04ZM2106.08,2483.41c-.08,0-.15,0-.23-.01-1-.13-1.7-1.04-1.58-2.03l1.36-10.83c.12-1,1.04-1.71,2.03-1.58,1,.12,1.71,1.03,1.58,2.03l-1.36,10.84c-.12.92-.9,1.59-1.8,1.59ZM338.29,2467.92c-.98,0-1.79-.78-1.82-1.76l-.35-10.91c-.03-1,.76-1.84,1.76-1.88,1.01-.09,1.84.76,1.88,1.76l.35,10.91c.03,1-.76,1.84-1.76,1.88-.02,0-.04,0-.06,0ZM2110.48,2447.28c-.07,0-.14,0-.21-.01-1-.12-1.71-1.02-1.6-2.02.42-3.58.83-7.2,1.24-10.84.11-1,1.02-1.7,2.01-1.61,1,.11,1.72,1.01,1.61,2.01-.41,3.65-.82,7.27-1.24,10.86-.11.93-.89,1.61-1.81,1.61ZM337.13,2431.55c-.98,0-1.79-.78-1.82-1.76l-.35-10.91c-.03-1,.76-1.84,1.76-1.88.99-.06,1.85.76,1.88,1.76l.35,10.91c.03,1-.76,1.84-1.76,1.88-.02,0-.04,0-.06,0ZM2114.46,2411.09c-.06,0-.13,0-.19,0-1-.1-1.73-1-1.62-2,.37-3.59.75-7.21,1.11-10.86.1-1,.99-1.72,1.99-1.63,1,.1,1.73.99,1.63,1.99-.37,3.65-.74,7.27-1.12,10.87-.1.94-.89,1.63-1.81,1.63ZM335.96,2395.17c-.98,0-1.79-.78-1.82-1.76l-.35-10.91c-.03-1,.76-1.84,1.76-1.88.86-.14,1.85.75,1.88,1.76l.35,10.91c.03,1-.76,1.84-1.76,1.88-.02,0-.04,0-.06,0ZM2118.02,2374.87c-.06,0-.11,0-.17,0-1-.09-1.74-.98-1.64-1.98.33-3.6.66-7.22.99-10.87.09-1,.95-1.75,1.97-1.65,1,.09,1.74.97,1.65,1.97-.32,3.65-.65,7.28-.99,10.88-.09.95-.88,1.65-1.81,1.65ZM334.79,2358.79c-.98,0-1.79-.78-1.82-1.76l-.35-10.91c-.03-1,.76-1.84,1.76-1.88.87-.13,1.84.75,1.88,1.76l.35,10.91c.03,1-.76,1.84-1.76,1.88-.02,0-.04,0-.06,0ZM2121.17,2338.6s-.1,0-.15,0c-1-.08-1.75-.96-1.67-1.96l.86-10.88c.08-1,.91-1.75,1.96-1.67,1,.08,1.75.95,1.67,1.96l-.86,10.89c-.08.95-.87,1.67-1.81,1.67ZM333.62,2322.42c-.98,0-1.79-.78-1.82-1.76l-.35-10.91c-.03-1,.76-1.84,1.76-1.88.97-.05,1.85.76,1.88,1.76l.35,10.91c.03,1-.76,1.84-1.76,1.88-.02,0-.04,0-.06,0ZM2123.88,2302.3s-.08,0-.13,0c-1-.07-1.76-.94-1.69-1.94l.73-10.89c.06-1,.91-1.74,1.94-1.7,1,.07,1.76.93,1.7,1.94l-.73,10.9c-.07.96-.87,1.7-1.81,1.7ZM332.45,2286.04c-.98,0-1.79-.78-1.82-1.76l-.35-10.91c-.03-1,.76-1.84,1.76-1.88.96-.11,1.85.76,1.88,1.76l.35,10.91c.03,1-.76,1.84-1.76,1.88h-.06ZM2126.14,2265.97s-.07,0-.1,0c-1-.06-1.77-.92-1.71-1.92.2-3.62.4-7.25.59-10.9.05-1,.92-1.78,1.91-1.72,1,.05,1.78.91,1.72,1.91-.19,3.65-.39,7.29-.59,10.91-.05.97-.86,1.72-1.81,1.72ZM331.28,2249.67c-.98,0-1.79-.78-1.82-1.76l-.35-10.91c-.03-1,.76-1.84,1.76-1.88.96-.08,1.85.76,1.88,1.76l.35,10.91c.03,1-.76,1.84-1.76,1.88-.02,0-.04,0-.06,0ZM2127.94,2229.61s-.05,0-.08,0c-1-.04-1.78-.89-1.74-1.9.16-3.62.31-7.26.45-10.9.04-1,.9-1.83,1.89-1.75,1,.04,1.79.89,1.75,1.89-.14,3.65-.29,7.29-.45,10.92-.04.98-.85,1.74-1.82,1.74ZM330.11,2213.29c-.98,0-1.79-.78-1.82-1.76l-.35-10.91c-.03-1,.76-1.84,1.76-1.88.89-.11,1.84.75,1.88,1.76l.35,10.91c.03,1-.76,1.84-1.76,1.88-.02,0-.04,0-.06,0ZM2129.26,2193.23h-.05c-1-.03-1.8-.87-1.77-1.87.11-3.63.21-7.26.3-10.91.03-1,.83-1.77,1.87-1.77,1,.03,1.8.86,1.77,1.87-.09,3.65-.19,7.29-.3,10.92-.03.99-.84,1.77-1.82,1.77ZM328.94,2176.91c-.98,0-1.79-.78-1.82-1.76l-.35-10.91c-.03-1,.76-1.84,1.76-1.88.89-.1,1.84.75,1.88,1.76l.35,10.91c.03,1-.76,1.84-1.76,1.88-.02,0-.04,0-.06,0ZM2130.07,2156.84h-.03c-1.01-.02-1.81-.84-1.79-1.85.06-3.63.1-7.27.14-10.91.01-1.01.96-1.77,1.84-1.8,1.01.01,1.81.83,1.8,1.84-.04,3.65-.09,7.29-.14,10.93-.02,1-.83,1.79-1.82,1.79ZM327.77,2140.54c-.98,0-1.79-.78-1.82-1.76l-.35-10.91c-.03-1,.76-1.84,1.76-1.88.89-.1,1.84.75,1.88,1.76l.35,10.91c.03,1-.76,1.84-1.76,1.88-.02,0-.04,0-.06,0ZM2130.35,2120.45c-1,0-1.82-.81-1.82-1.82v-.88c0-3.34,0-6.68-.02-10.02,0-1,.81-1.82,1.81-1.83h0c1,0,1.82.81,1.82,1.81.01,3.35.02,6.7.02,10.04v.88c0,1.01-.81,1.82-1.82,1.82ZM326.6,2104.16c-.98,0-1.79-.78-1.82-1.76l-.35-10.91c-.03-1,.76-1.84,1.76-1.88,1.01-.13,1.84.76,1.88,1.76l.35,10.91c.03,1-.76,1.84-1.76,1.88h-.06ZM2130.08,2084.07c-.99,0-1.8-.8-1.82-1.79-.06-3.63-.12-7.26-.19-10.9-.02-1,.78-1.84,1.78-1.86.87-.07,1.83.77,1.86,1.78.07,3.64.14,7.29.19,10.92.01,1-.79,1.83-1.79,1.85h-.03ZM325.43,2067.79c-.98,0-1.79-.78-1.82-1.76l-.35-10.91c-.03-1,.76-1.84,1.76-1.88.9-.09,1.84.75,1.88,1.76l.35,10.91c.03,1-.76,1.84-1.76,1.88h-.06ZM2129.23,2047.69c-.98,0-1.79-.78-1.82-1.76-.12-3.63-.24-7.26-.37-10.9-.04-1,.75-1.85,1.75-1.89,1.02-.09,1.85.75,1.89,1.75.14,3.64.26,7.28.38,10.92.03,1-.76,1.84-1.76,1.88h-.06ZM324.26,2031.41c-.98,0-1.79-.78-1.82-1.76l-.35-10.91c-.03-1,.76-1.84,1.76-1.88,1-.06,1.84.76,1.88,1.76l.35,10.91c.03,1-.76,1.84-1.76,1.88-.02,0-.04,0-.06,0ZM2127.76,2011.33c-.96,0-1.77-.76-1.82-1.73-.18-3.63-.37-7.26-.56-10.89-.06-1,.71-1.86,1.72-1.92.98-.04,1.86.71,1.92,1.72.2,3.64.39,7.28.57,10.91.05,1-.73,1.86-1.73,1.91-.03,0-.06,0-.09,0ZM323.09,1995.03c-.98,0-1.79-.78-1.82-1.76l-.35-10.91c-.03-1,.76-1.84,1.76-1.88,1.05,0,1.85.76,1.88,1.76l.35,10.91c.03,1-.76,1.84-1.76,1.88h-.06ZM2125.64,1975c-.95,0-1.75-.74-1.81-1.7-.24-3.63-.5-7.25-.77-10.88-.07-1,.68-1.87,1.68-1.95,1.05-.07,1.88.68,1.95,1.68.27,3.63.53,7.27.77,10.9.07,1-.69,1.87-1.69,1.94-.04,0-.08,0-.12,0ZM321.92,1958.66c-.98,0-1.79-.78-1.82-1.76l-.35-10.91c-.03-1,.76-1.84,1.76-1.88.91-.15,1.84.75,1.88,1.76l.35,10.91c.03,1-.76,1.84-1.76,1.88-.02,0-.04,0-.06,0ZM2122.81,1938.72c-.93,0-1.73-.71-1.81-1.66-.32-3.62-.65-7.24-.99-10.86-.09-1,.64-1.89,1.64-1.98,1.01-.08,1.89.64,1.98,1.64.34,3.63.67,7.26.99,10.88.09,1-.65,1.89-1.65,1.97-.05,0-.11,0-.16,0ZM320.75,1922.28c-.98,0-1.79-.78-1.82-1.76l-.35-10.91c-.03-1,.76-1.84,1.76-1.88.92-.06,1.84.75,1.88,1.76l.35,10.91c.03,1-.76,1.84-1.76,1.88h-.06ZM2119.25,1902.5c-.92,0-1.71-.69-1.81-1.62-.4-3.61-.8-7.23-1.22-10.84-.12-1,.6-1.9,1.6-2.02,1.02-.12,1.9.6,2.02,1.6.42,3.62.83,7.24,1.22,10.87.11,1-.61,1.9-1.61,2.01-.07,0-.13.01-.2.01ZM319.58,1885.91c-.98,0-1.79-.78-1.82-1.76l-.41-12.79h6.6c1.01,0,1.82.81,1.82,1.82s-.81,1.82-1.82,1.82h-2.85l.29,9.03c.03,1-.76,1.84-1.76,1.88h-.06ZM2107.31,1874.99h-10.92c-1.01,0-1.82-.82-1.82-1.82s.81-1.82,1.82-1.82h10.92c1.01,0,1.82.81,1.82,1.82s-.81,1.82-1.82,1.82ZM2070.91,1874.99h-10.92c-1.01,0-1.82-.82-1.82-1.82s.81-1.82,1.82-1.82h10.92c1.01,0,1.82.81,1.82,1.82s-.81,1.82-1.82,1.82ZM2034.52,1874.99h-10.92c-1.01,0-1.82-.82-1.82-1.82s.81-1.82,1.82-1.82h10.92c1.01,0,1.82.81,1.82,1.82s-.81,1.82-1.82,1.82ZM1998.12,1874.99h-10.92c-1.01,0-1.82-.82-1.82-1.82s.81-1.82,1.82-1.82h10.92c1.01,0,1.82.81,1.82,1.82s-.81,1.82-1.82,1.82ZM1961.73,1874.99h-10.92c-1.01,0-1.82-.82-1.82-1.82s.81-1.82,1.82-1.82h10.92c1.01,0,1.82.81,1.82,1.82s-.81,1.82-1.82,1.82ZM1925.33,1874.99h-10.92c-1.01,0-1.82-.82-1.82-1.82s.81-1.82,1.82-1.82h10.92c1.01,0,1.82.81,1.82,1.82s-.81,1.82-1.82,1.82ZM1888.94,1874.99h-10.92c-1.01,0-1.82-.82-1.82-1.82s.81-1.82,1.82-1.82h10.92c1.01,0,1.82.81,1.82,1.82s-.81,1.82-1.82,1.82ZM1852.54,1874.99h-10.92c-1.01,0-1.82-.82-1.82-1.82s.81-1.82,1.82-1.82h10.92c1.01,0,1.82.81,1.82,1.82s-.81,1.82-1.82,1.82ZM1816.15,1874.99h-10.92c-1.01,0-1.82-.82-1.82-1.82s.81-1.82,1.82-1.82h10.92c1.01,0,1.82.81,1.82,1.82s-.81,1.82-1.82,1.82ZM1779.75,1874.99h-10.92c-1.01,0-1.82-.82-1.82-1.82s.81-1.82,1.82-1.82h10.92c1.01,0,1.82.81,1.82,1.82s-.81,1.82-1.82,1.82ZM1743.36,1874.99h-10.92c-1.01,0-1.82-.82-1.82-1.82s.81-1.82,1.82-1.82h10.92c1.01,0,1.82.81,1.82,1.82s-.81,1.82-1.82,1.82ZM1706.96,1874.99h-10.92c-1.01,0-1.82-.82-1.82-1.82s.81-1.82,1.82-1.82h10.92c1.01,0,1.82.81,1.82,1.82s-.81,1.82-1.82,1.82ZM1670.57,1874.99h-10.92c-1.01,0-1.82-.82-1.82-1.82s.81-1.82,1.82-1.82h10.92c1.01,0,1.82.81,1.82,1.82s-.81,1.82-1.82,1.82ZM1634.17,1874.99h-10.92c-1.01,0-1.82-.82-1.82-1.82s.81-1.82,1.82-1.82h10.92c1.01,0,1.82.81,1.82,1.82s-.81,1.82-1.82,1.82ZM1597.78,1874.99h-10.92c-1.01,0-1.82-.82-1.82-1.82s.81-1.82,1.82-1.82h10.92c1.01,0,1.82.81,1.82,1.82s-.81,1.82-1.82,1.82ZM1561.38,1874.99h-10.92c-1.01,0-1.82-.82-1.82-1.82s.81-1.82,1.82-1.82h10.92c1.01,0,1.82.81,1.82,1.82s-.81,1.82-1.82,1.82ZM1524.99,1874.99h-10.92c-1.01,0-1.82-.82-1.82-1.82s.81-1.82,1.82-1.82h10.92c1.01,0,1.82.81,1.82,1.82s-.81,1.82-1.82,1.82ZM1488.59,1874.99h-10.92c-1.01,0-1.82-.82-1.82-1.82s.81-1.82,1.82-1.82h10.92c1.01,0,1.82.81,1.82,1.82s-.81,1.82-1.82,1.82ZM1452.2,1874.99h-10.92c-1.01,0-1.82-.82-1.82-1.82s.81-1.82,1.82-1.82h10.92c1.01,0,1.82.81,1.82,1.82s-.81,1.82-1.82,1.82ZM1415.8,1874.99h-10.92c-1.01,0-1.82-.82-1.82-1.82s.81-1.82,1.82-1.82h10.92c1.01,0,1.82.81,1.82,1.82s-.81,1.82-1.82,1.82ZM1379.41,1874.99h-10.92c-1.01,0-1.82-.82-1.82-1.82s.81-1.82,1.82-1.82h10.92c1.01,0,1.82.81,1.82,1.82s-.81,1.82-1.82,1.82ZM1343.01,1874.99h-10.92c-1.01,0-1.82-.82-1.82-1.82s.81-1.82,1.82-1.82h10.92c1.01,0,1.82.81,1.82,1.82s-.81,1.82-1.82,1.82ZM1306.62,1874.99h-10.92c-1.01,0-1.82-.82-1.82-1.82s.81-1.82,1.82-1.82h10.92c1.01,0,1.82.81,1.82,1.82s-.81,1.82-1.82,1.82ZM1270.22,1874.99h-10.92c-1.01,0-1.82-.82-1.82-1.82s.81-1.82,1.82-1.82h10.92c1.01,0,1.82.81,1.82,1.82s-.81,1.82-1.82,1.82ZM1233.83,1874.99h-10.92c-1.01,0-1.82-.82-1.82-1.82s.81-1.82,1.82-1.82h10.92c1.01,0,1.82.81,1.82,1.82s-.81,1.82-1.82,1.82ZM1197.43,1874.99h-10.92c-1.01,0-1.82-.82-1.82-1.82s.81-1.82,1.82-1.82h10.92c1.01,0,1.82.81,1.82,1.82s-.81,1.82-1.82,1.82ZM1161.04,1874.99h-10.92c-1.01,0-1.82-.82-1.82-1.82s.81-1.82,1.82-1.82h10.92c1.01,0,1.82.81,1.82,1.82s-.81,1.82-1.82,1.82ZM1124.64,1874.99h-10.92c-1.01,0-1.82-.82-1.82-1.82s.81-1.82,1.82-1.82h10.92c1.01,0,1.82.81,1.82,1.82s-.81,1.82-1.82,1.82ZM1088.25,1874.99h-10.92c-1.01,0-1.82-.82-1.82-1.82s.81-1.82,1.82-1.82h10.92c1.01,0,1.82.81,1.82,1.82s-.81,1.82-1.82,1.82ZM1051.85,1874.99h-10.92c-1.01,0-1.82-.82-1.82-1.82s.81-1.82,1.82-1.82h10.92c1.01,0,1.82.81,1.82,1.82s-.81,1.82-1.82,1.82ZM1015.46,1874.99h-10.92c-1.01,0-1.82-.82-1.82-1.82s.81-1.82,1.82-1.82h10.92c1.01,0,1.82.81,1.82,1.82s-.81,1.82-1.82,1.82ZM979.06,1874.99h-10.92c-1.01,0-1.82-.82-1.82-1.82s.81-1.82,1.82-1.82h10.92c1.01,0,1.82.81,1.82,1.82s-.81,1.82-1.82,1.82ZM942.67,1874.99h-10.92c-1.01,0-1.82-.82-1.82-1.82s.81-1.82,1.82-1.82h10.92c1.01,0,1.82.81,1.82,1.82s-.81,1.82-1.82,1.82ZM906.28,1874.99h-10.92c-1.01,0-1.82-.82-1.82-1.82s.81-1.82,1.82-1.82h10.92c1.01,0,1.82.81,1.82,1.82s-.81,1.82-1.82,1.82ZM869.88,1874.99h-10.92c-1.01,0-1.82-.82-1.82-1.82s.81-1.82,1.82-1.82h10.92c1.01,0,1.82.81,1.82,1.82s-.81,1.82-1.82,1.82ZM833.49,1874.99h-10.92c-1.01,0-1.82-.82-1.82-1.82s.81-1.82,1.82-1.82h10.92c1.01,0,1.82.81,1.82,1.82s-.81,1.82-1.82,1.82ZM797.09,1874.99h-10.92c-1.01,0-1.82-.82-1.82-1.82s.81-1.82,1.82-1.82h10.92c1.01,0,1.82.81,1.82,1.82s-.81,1.82-1.82,1.82ZM760.7,1874.99h-10.92c-1.01,0-1.82-.82-1.82-1.82s.81-1.82,1.82-1.82h10.92c1.01,0,1.82.81,1.82,1.82s-.81,1.82-1.82,1.82ZM724.3,1874.99h-10.92c-1.01,0-1.82-.82-1.82-1.82s.81-1.82,1.82-1.82h10.92c1.01,0,1.82.81,1.82,1.82s-.81,1.82-1.82,1.82ZM687.91,1874.99h-10.92c-1.01,0-1.82-.82-1.82-1.82s.81-1.82,1.82-1.82h10.92c1.01,0,1.82.81,1.82,1.82s-.81,1.82-1.82,1.82ZM651.51,1874.99h-10.92c-1.01,0-1.82-.82-1.82-1.82s.81-1.82,1.82-1.82h10.92c1.01,0,1.82.81,1.82,1.82s-.81,1.82-1.82,1.82ZM615.12,1874.99h-10.92c-1.01,0-1.82-.82-1.82-1.82s.81-1.82,1.82-1.82h10.92c1.01,0,1.82.81,1.82,1.82s-.81,1.82-1.82,1.82ZM578.72,1874.99h-10.92c-1.01,0-1.82-.82-1.82-1.82s.81-1.82,1.82-1.82h10.92c1.01,0,1.82.81,1.82,1.82s-.81,1.82-1.82,1.82ZM542.33,1874.99h-10.92c-1.01,0-1.82-.82-1.82-1.82s.81-1.82,1.82-1.82h10.92c1.01,0,1.82.81,1.82,1.82s-.81,1.82-1.82,1.82ZM505.93,1874.99h-10.92c-1.01,0-1.82-.82-1.82-1.82s.81-1.82,1.82-1.82h10.92c1.01,0,1.82.81,1.82,1.82s-.81,1.82-1.82,1.82ZM469.54,1874.99h-10.92c-1.01,0-1.82-.82-1.82-1.82s.81-1.82,1.82-1.82h10.92c1.01,0,1.82.81,1.82,1.82s-.81,1.82-1.82,1.82ZM433.14,1874.99h-10.92c-1.01,0-1.82-.82-1.82-1.82s.81-1.82,1.82-1.82h10.92c1.01,0,1.82.81,1.82,1.82s-.81,1.82-1.82,1.82ZM396.75,1874.99h-10.92c-1.01,0-1.82-.82-1.82-1.82s.81-1.82,1.82-1.82h10.92c1.01,0,1.82.81,1.82,1.82s-.81,1.82-1.82,1.82ZM360.35,1874.99h-10.92c-1.01,0-1.82-.82-1.82-1.82s.81-1.82,1.82-1.82h10.92c1.01,0,1.82.81,1.82,1.82s-.81,1.82-1.82,1.82Z" style="fill:#fff; stroke-width:0px;"/><path d="M712.53,1418.77l4.51-48.27c5.09-11.53,15.66-19.68,28.15-21.67,46.7-7.43,162.51-20.5,218.28,21.17l8.33,56.1-259.27-7.33Z" style="fill:url(#uuid-8bff77e9-95b1-4ec4-8be0-f73b4b8ff98c); stroke-width:0px;"/><path d="M858.4,1372.32c-10.75,2.62-21.52,2.61-32.31-.04-13.06-3.21-22.27-14.89-22.27-28.27v-151.16h76.93v151.05c0,13.45-9.23,25.23-22.35,28.42Z" style="fill:url(#uuid-594d3639-9883-4d5e-a3d6-7cd44982265e); stroke-width:0px;"/><path d="M1457.62,1418.77l4.51-48.27c5.09-11.53,15.66-19.68,28.15-21.67,46.7-7.43,162.51-20.5,218.28,21.17l8.33,56.1-259.27-7.33Z" style="fill:url(#uuid-78ea1cbb-bb9e-4f09-9ce8-0196b70d592d); stroke-width:0px;"/><path d="M1603.49,1372.32c-10.75,2.62-21.52,2.61-32.31-.04-13.06-3.21-22.27-14.89-22.27-28.27v-167.09h76.93v166.97c0,13.45-9.23,25.23-22.35,28.42Z" style="fill:url(#uuid-1129a19f-7366-4fc9-b5ff-a5d21900fc83); stroke-width:0px;"/><path d="M796.01,1229.9l827.29-27.39c18.86-.62,34.87-14.23,38.1-32.74,4.53-25.9,8.53-64.67,2.57-104.86-6.77-45.71-46.09-79.66-92.49-80.76-154.33-3.67-547.22-3.56-763.77,82.1-22.9,9.06-39.89,28.63-45.69,52.47-5.53,22.74-9.21,53.1-1.98,84.01,3.84,16.42,19.03,27.73,35.96,27.17Z" style="fill:url(#uuid-21d70a9f-636b-450c-82cc-457451a79cf0); stroke-width:0px;"/><path d="M781.69,1186.91c-1.84,0-3.43-1.4-3.62-3.27-.13-1.31-3.14-32.41,4.95-62.35,6.15-22.75,24.15-41.04,46.98-47.74,46.09-13.52,134.16-36.51,206.11-38.53,2.02-.06,3.68,1.53,3.74,3.54.06,2.01-1.53,3.68-3.54,3.74-71.14,2-158.51,24.82-204.27,38.24-20.41,5.99-36.5,22.33-42,42.66-7.74,28.6-4.77,59.41-4.74,59.71.2,2-1.26,3.78-3.26,3.98-.12.01-.25.02-.37.02Z" style="fill:#91b3fa; stroke-width:0px;"/><path d="M328.69,1399.97c267.27-3.42,1423.48-15.57,1759.33,24.95,28.92,3.49,52.51,24.64,58.78,52.96,19.85,89.72,59.77,298.14,55.04,504.73-.64,28.11-21.26,51.84-49.02,57.09l-766.64,145.04h-272.32l-816.86-162.37c-28.79-5.72-50.02-30.11-51.51-59.3-5.31-103.94-13.61-347.81,14.5-504.79,5.97-33.36,34.67-57.87,68.71-58.31Z" style="fill:url(#uuid-a11d0067-1eb8-4225-8357-24577d5184d6); stroke-width:0px;"/><path d="M1379.88,2120.5h-10.92c-1,0-1.82-.81-1.82-1.82s.82-1.82,1.82-1.82h10.92c1.01,0,1.82.81,1.82,1.82s-.81,1.82-1.82,1.82ZM1343.48,2120.5h-10.92c-1,0-1.82-.81-1.82-1.82s.82-1.82,1.82-1.82h10.92c1.01,0,1.82.81,1.82,1.82s-.81,1.82-1.82,1.82ZM1307.09,2120.5h-10.92c-1,0-1.82-.81-1.82-1.82s.82-1.82,1.82-1.82h10.92c1.01,0,1.82.81,1.82,1.82s-.81,1.82-1.82,1.82ZM1270.69,2120.5h-10.92c-1,0-1.82-.81-1.82-1.82s.82-1.82,1.82-1.82h10.92c1.01,0,1.82.81,1.82,1.82s-.81,1.82-1.82,1.82ZM1234.3,2120.5h-10.92c-1,0-1.82-.81-1.82-1.82s.82-1.82,1.82-1.82h10.92c1.01,0,1.82.81,1.82,1.82s-.81,1.82-1.82,1.82ZM1197.9,2120.5h-10.92c-1,0-1.82-.81-1.82-1.82s.82-1.82,1.82-1.82h10.92c1.01,0,1.82.81,1.82,1.82s-.81,1.82-1.82,1.82ZM1161.51,2120.5h-10.92c-1,0-1.82-.81-1.82-1.82s.82-1.82,1.82-1.82h10.92c1.01,0,1.82.81,1.82,1.82s-.81,1.82-1.82,1.82ZM1125.12,2120.5h-4.76l-11.06-2.16c-.98-.2-1.63-1.15-1.43-2.14.2-.98,1.14-1.63,2.14-1.43l10.71,2.13,4.4-.04c1.01,0,1.82.81,1.82,1.82s-.81,1.82-1.82,1.82ZM1404.91,2115.78c-.86,0-1.62-.61-1.79-1.48-.19-.99.46-1.94,1.45-2.13l10.73-2.03c.98-.19,1.94.46,2.13,1.45.19.99-.46,1.94-1.45,2.13l-10.73,2.03c-.11.02-.23.03-.34.03ZM1084.66,2113.4c-.12,0-.24-.01-.36-.04l-10.71-2.13c-.98-.2-1.63-1.15-1.43-2.14.2-.98,1.14-1.64,2.14-1.43l10.71,2.13c.98.2,1.63,1.15,1.43,2.14-.17.87-.93,1.46-1.78,1.46ZM1440.67,2109.01c-.86,0-1.62-.61-1.79-1.48-.19-.99.46-1.94,1.45-2.13l10.73-2.03c.99-.18,1.94.46,2.13,1.45.19.99-.46,1.94-1.45,2.13l-10.73,2.03c-.11.02-.23.03-.34.03ZM1048.97,2106.3c-.12,0-.24-.01-.36-.04l-10.71-2.13c-.98-.2-1.63-1.15-1.43-2.14.19-.99,1.14-1.63,2.14-1.43l10.71,2.13c.98.2,1.63,1.15,1.43,2.14-.17.87-.93,1.46-1.78,1.46ZM1476.43,2102.25c-.86,0-1.62-.61-1.79-1.48-.19-.99.46-1.94,1.45-2.13l10.73-2.03c.99-.18,1.94.46,2.13,1.45.19.99-.46,1.94-1.45,2.13l-10.73,2.03c-.11.02-.23.03-.34.03ZM1013.27,2099.21c-.12,0-.24-.01-.36-.04l-10.71-2.13c-.98-.2-1.63-1.15-1.43-2.14.2-.98,1.14-1.64,2.14-1.43l10.71,2.13c.98.2,1.63,1.15,1.43,2.14-.17.87-.93,1.46-1.78,1.46ZM1512.19,2095.48c-.86,0-1.62-.61-1.79-1.48-.19-.99.46-1.94,1.45-2.13l10.73-2.03c.99-.17,1.94.46,2.13,1.45s-.46,1.94-1.45,2.13l-10.73,2.03c-.11.02-.23.03-.34.03ZM977.58,2092.11c-.12,0-.24-.01-.36-.04l-10.71-2.13c-.98-.2-1.63-1.15-1.43-2.14.2-.98,1.14-1.63,2.14-1.43l10.71,2.13c.98.2,1.63,1.15,1.43,2.14-.17.87-.93,1.46-1.78,1.46ZM1547.95,2088.72c-.86,0-1.62-.61-1.79-1.48-.19-.99.46-1.94,1.45-2.13l10.73-2.03c.99-.18,1.94.46,2.13,1.45.19.99-.46,1.94-1.45,2.13l-10.73,2.03c-.11.02-.23.03-.34.03ZM941.88,2085.02c-.12,0-.24-.01-.36-.04l-10.71-2.13c-.98-.2-1.63-1.15-1.43-2.14.2-.99,1.14-1.64,2.14-1.43l10.71,2.13c.98.2,1.63,1.15,1.43,2.14-.17.87-.93,1.46-1.78,1.46ZM1583.71,2081.95c-.86,0-1.62-.61-1.79-1.48-.19-.99.46-1.94,1.45-2.13l10.73-2.03c.99-.18,1.94.46,2.13,1.45.19.99-.46,1.94-1.45,2.13l-10.73,2.03c-.11.02-.23.03-.34.03ZM906.18,2077.92c-.12,0-.24-.01-.36-.04l-10.71-2.13c-.98-.2-1.63-1.15-1.43-2.14.19-.98,1.15-1.63,2.14-1.43l10.71,2.13c.98.2,1.63,1.15,1.43,2.14-.17.87-.93,1.46-1.78,1.46ZM1619.48,2075.19c-.86,0-1.62-.61-1.79-1.48-.19-.99.46-1.94,1.45-2.13l10.73-2.03c.99-.18,1.94.46,2.13,1.45.19.99-.46,1.94-1.45,2.13l-10.73,2.03c-.11.02-.23.03-.34.03ZM870.49,2070.83c-.12,0-.24-.01-.36-.04l-10.71-2.13c-.98-.2-1.63-1.15-1.43-2.14.2-.99,1.15-1.64,2.14-1.43l10.71,2.13c.99.2,1.63,1.15,1.43,2.14-.17.87-.93,1.46-1.78,1.46ZM1655.24,2068.42c-.86,0-1.62-.61-1.79-1.48-.19-.99.46-1.94,1.45-2.13l10.73-2.03c1-.17,1.94.46,2.13,1.45.19.99-.46,1.94-1.45,2.13l-10.73,2.03c-.11.02-.23.03-.34.03ZM834.79,2063.73c-.12,0-.24-.01-.36-.04l-10.71-2.13c-.98-.2-1.63-1.15-1.43-2.14.2-.98,1.15-1.63,2.14-1.43l10.71,2.13c.98.2,1.63,1.15,1.43,2.14-.17.87-.93,1.46-1.78,1.46ZM1691,2061.66c-.86,0-1.62-.61-1.79-1.48-.19-.99.46-1.94,1.45-2.13l10.73-2.03c1-.18,1.94.46,2.13,1.45.19.99-.46,1.94-1.45,2.13l-10.73,2.03c-.11.02-.23.03-.34.03ZM799.09,2056.64c-.12,0-.24-.01-.36-.04l-10.71-2.13c-.98-.2-1.63-1.15-1.43-2.14.19-.99,1.14-1.64,2.14-1.43l10.71,2.13c.98.2,1.63,1.15,1.43,2.14-.17.87-.93,1.46-1.78,1.46ZM1726.76,2054.89c-.86,0-1.62-.61-1.79-1.48-.19-.99.46-1.94,1.45-2.13l10.73-2.03c.98-.18,1.94.46,2.13,1.45.19.99-.46,1.94-1.45,2.13l-10.73,2.03c-.11.02-.23.03-.34.03ZM763.4,2049.54c-.12,0-.24-.01-.36-.04l-10.71-2.13c-.98-.2-1.63-1.15-1.43-2.14.2-.98,1.14-1.63,2.14-1.43l10.71,2.13c.98.2,1.63,1.15,1.43,2.14-.17.87-.93,1.46-1.78,1.46ZM1762.52,2048.13c-.86,0-1.62-.61-1.79-1.48-.19-.99.46-1.94,1.45-2.13l10.73-2.03c.98-.18,1.94.46,2.13,1.45.19.99-.46,1.94-1.45,2.13l-10.73,2.03c-.11.02-.23.03-.34.03ZM727.7,2042.44c-.12,0-.24-.01-.36-.04l-10.71-2.13c-.98-.2-1.63-1.15-1.43-2.14.2-.98,1.14-1.63,2.14-1.43l10.71,2.13c.98.2,1.63,1.15,1.43,2.14-.17.87-.93,1.46-1.78,1.46ZM1798.28,2041.36c-.86,0-1.62-.61-1.79-1.48-.19-.99.46-1.94,1.45-2.13l10.73-2.03c.99-.19,1.94.46,2.13,1.45.19.99-.46,1.94-1.45,2.13l-10.73,2.03c-.11.02-.23.03-.34.03ZM692,2035.35c-.12,0-.24-.01-.36-.04l-10.71-2.13c-.98-.2-1.63-1.15-1.43-2.14.2-.98,1.14-1.64,2.14-1.43l10.71,2.13c.98.2,1.63,1.15,1.43,2.14-.17.87-.93,1.46-1.78,1.46ZM1834.04,2034.59c-.86,0-1.62-.61-1.79-1.48-.19-.99.46-1.94,1.45-2.13l10.73-2.03c.99-.18,1.94.46,2.13,1.45.19.99-.46,1.94-1.45,2.13l-10.73,2.03c-.11.02-.23.03-.34.03ZM656.31,2028.25c-.12,0-.24-.01-.36-.04l-10.71-2.13c-.98-.2-1.63-1.15-1.43-2.14.2-.98,1.14-1.63,2.14-1.43l10.71,2.13c.98.2,1.63,1.15,1.43,2.14-.17.87-.93,1.46-1.78,1.46ZM1869.8,2027.83c-.86,0-1.62-.61-1.79-1.48-.19-.99.46-1.94,1.45-2.13l10.73-2.03c.99-.18,1.94.46,2.13,1.45.19.99-.46,1.94-1.45,2.13l-10.73,2.03c-.11.02-.23.03-.34.03ZM620.61,2021.16c-.12,0-.24-.01-.36-.04l-10.71-2.13c-.98-.2-1.63-1.15-1.43-2.14.2-.98,1.14-1.64,2.14-1.43l10.71,2.13c.98.2,1.63,1.15,1.43,2.14-.17.87-.93,1.46-1.78,1.46ZM1905.56,2021.06c-.86,0-1.62-.61-1.79-1.48-.19-.99.46-1.94,1.45-2.13l10.73-2.03c.99-.17,1.94.46,2.13,1.45.19.99-.46,1.94-1.45,2.13l-10.73,2.03c-.11.02-.23.03-.34.03ZM1941.32,2014.3c-.86,0-1.62-.61-1.79-1.48-.19-.99.46-1.94,1.45-2.13l10.73-2.03c.99-.18,1.94.46,2.13,1.45.19.99-.46,1.94-1.45,2.13l-10.73,2.03c-.11.02-.23.03-.34.03ZM584.91,2014.06c-.12,0-.24-.01-.36-.04l-10.71-2.13c-.98-.2-1.63-1.15-1.43-2.14.19-.98,1.15-1.63,2.14-1.43l10.71,2.13c.98.2,1.63,1.15,1.43,2.14-.17.87-.93,1.46-1.78,1.46ZM1977.08,2007.53c-.86,0-1.62-.61-1.79-1.48-.19-.99.46-1.94,1.45-2.13l10.73-2.03c1-.18,1.94.46,2.13,1.45.19.99-.46,1.94-1.45,2.13l-10.73,2.03c-.11.02-.23.03-.34.03ZM549.22,2006.97c-.12,0-.24-.01-.36-.04l-10.71-2.13c-.98-.2-1.63-1.15-1.43-2.14.2-.98,1.14-1.64,2.14-1.43l10.71,2.13c.98.2,1.63,1.15,1.43,2.14-.17.87-.93,1.46-1.78,1.46ZM2012.84,2000.77c-.86,0-1.62-.61-1.79-1.48-.19-.99.46-1.94,1.45-2.13l10.73-2.03c1-.18,1.94.46,2.13,1.45.19.99-.46,1.94-1.45,2.13l-10.73,2.03c-.11.02-.23.03-.34.03ZM513.52,1999.87c-.12,0-.24-.01-.36-.04l-10.71-2.13c-.98-.2-1.63-1.15-1.43-2.14.2-.98,1.15-1.63,2.14-1.43l10.71,2.13c.98.2,1.63,1.15,1.43,2.14-.17.87-.93,1.46-1.78,1.46ZM2048.6,1994c-.86,0-1.62-.61-1.79-1.48-.19-.99.46-1.94,1.45-2.13l10.73-2.03c.98-.17,1.94.46,2.13,1.45.19.99-.46,1.94-1.45,2.13l-10.73,2.03c-.11.02-.23.03-.34.03ZM477.82,1992.77c-.12,0-.24-.01-.36-.04l-10.71-2.13c-.98-.2-1.63-1.15-1.43-2.14.19-.98,1.14-1.64,2.14-1.43l10.71,2.13c.98.2,1.63,1.15,1.43,2.14-.17.87-.93,1.47-1.78,1.47ZM2084.36,1987.24c-.86,0-1.62-.61-1.79-1.48-.19-.99.46-1.94,1.45-2.13l10.73-2.03c.98-.18,1.94.46,2.13,1.45.19.99-.46,1.94-1.45,2.13l-10.73,2.03c-.11.02-.23.03-.34.03ZM442.13,1985.68c-.12,0-.24-.01-.36-.04l-10.71-2.13c-.98-.2-1.63-1.15-1.43-2.14.2-.98,1.14-1.63,2.14-1.43l10.71,2.13c.98.2,1.63,1.15,1.43,2.14-.17.87-.93,1.46-1.78,1.46ZM2120.12,1980.47c-.86,0-1.62-.61-1.79-1.48-.19-.99.46-1.94,1.45-2.13l10.73-2.03c.99-.18,1.94.46,2.13,1.45.19.99-.46,1.94-1.45,2.13l-10.73,2.03c-.11.02-.23.03-.34.03ZM406.43,1978.58c-.12,0-.24-.01-.36-.04l-10.71-2.13c-.98-.2-1.63-1.15-1.43-2.14.2-.99,1.14-1.64,2.14-1.43l10.71,2.13c.98.2,1.63,1.15,1.43,2.14-.17.87-.93,1.46-1.78,1.46ZM370.74,1971.49c-.12,0-.24-.01-.36-.04l-10.71-2.13c-.98-.2-1.63-1.15-1.43-2.14.2-.98,1.14-1.63,2.14-1.43l10.71,2.13c.98.2,1.63,1.15,1.43,2.14-.17.87-.93,1.46-1.78,1.46ZM335.04,1964.39c-.12,0-.24-.01-.36-.04l-10.71-2.13c-.98-.2-1.63-1.15-1.43-2.14.19-.98,1.14-1.64,2.14-1.43l10.71,2.13c.98.2,1.63,1.15,1.43,2.14-.17.87-.93,1.46-1.78,1.46ZM2136.15,1957.16h0c-1.01,0-1.82-.82-1.81-1.83v-6.59s0-4.32,0-4.32c0-1.01.81-1.82,1.81-1.82h0c1,0,1.82.81,1.82,1.81v4.32s0,6.61,0,6.61c0,1-.82,1.81-1.82,1.81ZM310.77,1947.44c-.96,0-1.77-.76-1.82-1.73-.17-3.5-.34-7.15-.5-10.92-.04-1,.73-1.85,1.74-1.9,1.02-.03,1.85.73,1.9,1.74.17,3.76.34,7.4.5,10.9.05,1-.73,1.86-1.73,1.91-.03,0-.06,0-.09,0ZM2135.87,1920.76c-.99,0-1.8-.79-1.82-1.78-.07-3.64-.15-7.27-.25-10.89-.03-1.01.77-1.84,1.77-1.87,1.1-.07,1.84.77,1.87,1.77.09,3.64.18,7.27.25,10.92.02,1-.78,1.84-1.78,1.86h-.04ZM309.2,1911.06c-.97,0-1.78-.77-1.82-1.75l-.41-10.92c-.04-1,.75-1.85,1.75-1.88.96-.04,1.85.75,1.88,1.75l.41,10.91c.04,1-.74,1.85-1.75,1.89-.02,0-.05,0-.07,0ZM2134.76,1884.41c-.97,0-1.78-.77-1.82-1.75-.15-3.63-.31-7.25-.48-10.87-.05-1,.73-1.86,1.73-1.9,1-.08,1.86.73,1.9,1.73.17,3.63.33,7.26.48,10.89.04,1-.74,1.85-1.74,1.89-.02,0-.05,0-.08,0ZM307.95,1874.68c-.98,0-1.79-.78-1.82-1.76l-.32-10.92c-.03-1.01.76-1.84,1.77-1.87,1.03.02,1.84.76,1.87,1.77l.32,10.91c.03,1-.76,1.84-1.76,1.87h-.06ZM2132.89,1848.08c-.95,0-1.76-.74-1.81-1.71-.22-3.64-.46-7.27-.7-10.89-.07-1,.69-1.87,1.69-1.94,1.04-.02,1.87.69,1.94,1.69.24,3.63.48,7.26.7,10.91.06,1-.7,1.87-1.7,1.93-.04,0-.08,0-.11,0ZM307.01,1838.29c-.99,0-1.8-.79-1.82-1.78l-.22-10.93c-.02-1,.78-1.83,1.79-1.85.96-.08,1.83.78,1.85,1.79l.22,10.91c.02,1.01-.78,1.84-1.78,1.86h-.04ZM2130.31,1811.76c-.94,0-1.74-.72-1.81-1.67-.29-3.64-.59-7.26-.9-10.88-.09-1,.66-1.88,1.66-1.97.98-.12,1.88.66,1.97,1.66.31,3.62.61,7.25.91,10.89.08,1-.67,1.88-1.67,1.96-.05,0-.1,0-.15,0ZM306.4,1801.9c-.99,0-1.81-.8-1.82-1.8l-.12-10.93c0-1,.8-1.83,1.8-1.84h.02c1,0,1.81.8,1.82,1.8l.12,10.91c.01,1-.79,1.83-1.8,1.84h-.02ZM2127.07,1775.5c-.93,0-1.72-.7-1.81-1.64-.36-3.63-.72-7.25-1.09-10.86-.1-1,.63-1.89,1.62-2,1.01-.1,1.89.62,2,1.62.37,3.61.74,7.24,1.09,10.87.1,1-.63,1.89-1.63,1.99-.06,0-.12,0-.18,0ZM306.15,1765.49c-1,0-1.82-.81-1.82-1.82v-6.25s0-4.66,0-4.66c0-1,.82-1.82,1.82-1.82h0c1.01,0,1.82.81,1.82,1.82v4.67s0,6.24,0,6.24c0,1.01-.81,1.82-1.82,1.82h0ZM2123.23,1739.29c-.91,0-1.7-.68-1.81-1.61-.42-3.63-.84-7.25-1.27-10.84-.12-1,.59-1.9,1.59-2.02,1.03-.14,1.9.6,2.02,1.59.43,3.6.85,7.22,1.27,10.86.12,1-.6,1.9-1.6,2.02-.07,0-.14.01-.21.01ZM306.28,1729.11h-.02c-1,0-1.81-.83-1.8-1.84.03-3.63.07-7.26.12-10.91.01-1,.82-1.8,1.82-1.8h.02c1,.01,1.81.84,1.8,1.84-.05,3.64-.09,7.28-.12,10.9,0,1-.82,1.8-1.82,1.8ZM2118.8,1703.15c-.9,0-1.68-.67-1.8-1.58-.47-3.63-.95-7.24-1.44-10.82-.13-1,.57-1.91,1.56-2.05,1.02-.14,1.91.57,2.05,1.56.48,3.58.96,7.2,1.44,10.83.13,1-.57,1.91-1.57,2.04-.08.01-.16.02-.24.02ZM306.85,1692.73h-.04c-1-.02-1.8-.85-1.78-1.86.08-3.64.17-7.28.26-10.92.02-1.01.83-1.86,1.87-1.77,1,.03,1.8.86,1.77,1.87-.09,3.64-.18,7.27-.26,10.91-.02.99-.83,1.78-1.82,1.78ZM2113.81,1667.08c-.89,0-1.67-.65-1.8-1.56-.53-3.63-1.06-7.23-1.6-10.8-.15-.99.54-1.92,1.53-2.07,1-.13,1.92.54,2.07,1.53.54,3.57,1.07,7.18,1.6,10.81.15,1-.54,1.92-1.54,2.06-.09.01-.18.02-.26.02ZM307.9,1656.35s-.04,0-.07,0c-1-.04-1.79-.88-1.75-1.88.13-3.65.27-7.29.42-10.93.04-1.01.97-1.78,1.89-1.74,1,.04,1.78.89,1.74,1.89-.15,3.63-.29,7.27-.42,10.91-.04.98-.84,1.75-1.82,1.75ZM2108.3,1631.09c-.88,0-1.65-.64-1.8-1.53-.58-3.63-1.17-7.23-1.76-10.77-.16-.99.51-1.93,1.5-2.09,1.01-.17,1.93.51,2.09,1.5.59,3.55,1.17,7.15,1.76,10.79.16.99-.52,1.93-1.51,2.09-.1.02-.2.02-.29.02ZM309.51,1619.95s-.07,0-.1,0c-1-.05-1.78-.91-1.72-1.91.2-3.65.4-7.3.61-10.93.06-1,.9-1.77,1.92-1.71,1,.06,1.77.92,1.71,1.92-.21,3.63-.42,7.27-.61,10.91-.05.97-.85,1.72-1.82,1.72ZM2102.26,1595.18c-.87,0-1.64-.62-1.79-1.5-.64-3.64-1.27-7.22-1.91-10.75-.18-.99.48-1.94,1.47-2.11.99-.18,1.94.48,2.11,1.47.63,3.53,1.27,7.12,1.91,10.76.17.99-.49,1.93-1.48,2.11-.11.02-.21.03-.32.03ZM311.79,1583.6s-.09,0-.14,0c-1-.07-1.76-.95-1.68-1.95.27-3.65.54-7.28.83-10.9.08-1,.93-1.72,1.96-1.67,1,.08,1.75.96,1.67,1.96-.29,3.61-.57,7.23-.83,10.88-.07.96-.87,1.69-1.81,1.69ZM2095.71,1559.36c-.86,0-1.62-.61-1.79-1.48-.7-3.66-1.38-7.23-2.07-10.72-.19-.99.45-1.94,1.44-2.13.97-.21,1.94.45,2.13,1.44.68,3.5,1.37,7.07,2.07,10.74.19.99-.46,1.94-1.45,2.13-.12.02-.23.03-.34.03ZM314.88,1547.33c-.06,0-.12,0-.18,0-1-.1-1.73-.99-1.63-1.99.36-3.65.73-7.28,1.11-10.88.11-1,.98-1.72,2-1.62,1,.11,1.72,1,1.62,2-.38,3.59-.75,7.21-1.11,10.85-.09.94-.88,1.64-1.81,1.64ZM2088.63,1523.64c-.85,0-1.6-.59-1.78-1.45-.76-3.71-1.51-7.27-2.23-10.69-.21-.98.42-1.95,1.4-2.16.99-.2,1.95.42,2.16,1.4.72,3.42,1.47,6.99,2.24,10.71.2.98-.43,1.95-1.41,2.15-.12.02-.25.04-.37.04ZM318.98,1511.16c-.08,0-.16,0-.24-.02-1-.13-1.7-1.04-1.57-2.04.47-3.65.97-7.26,1.47-10.85.14-.99,1.06-1.67,2.06-1.55.99.14,1.69,1.06,1.55,2.06-.51,3.57-1,7.17-1.47,10.8-.12.92-.9,1.59-1.8,1.59ZM2076.96,1491.94c-.07,0-.14,0-.21-.01-3.51-.41-7.12-.82-10.84-1.22-1-.11-1.72-1.01-1.61-2.01.11-1,.98-1.72,2.01-1.61,3.73.41,7.35.82,10.86,1.23,1,.12,1.71,1.02,1.6,2.02-.11.93-.89,1.61-1.81,1.61ZM2040.76,1488.17c-.06,0-.11,0-.17,0-3.55-.33-7.17-.65-10.87-.98-1-.09-1.74-.97-1.65-1.97.09-1,.98-1.73,1.97-1.65,3.7.32,7.33.65,10.88.98,1,.09,1.74.98,1.65,1.98-.09.94-.88,1.65-1.81,1.65ZM2004.49,1485.12s-.09,0-.14,0c-3.57-.27-7.2-.55-10.88-.81-1-.07-1.76-.94-1.68-1.95.07-1,.96-1.74,1.95-1.68,3.69.27,7.32.54,10.9.81,1,.08,1.75.95,1.68,1.95-.07.95-.87,1.68-1.81,1.68ZM1968.18,1482.55s-.08,0-.12,0l-10.89-.7c-1-.06-1.76-.93-1.7-1.93.06-1,.88-1.74,1.93-1.7l10.9.7c1,.07,1.76.93,1.7,1.94-.06.96-.86,1.7-1.81,1.7ZM1931.85,1480.34s-.07,0-.1,0l-10.9-.61c-1-.05-1.77-.91-1.72-1.92.05-1.01.91-1.75,1.92-1.72l10.91.61c1,.05,1.77.92,1.71,1.92-.05.97-.86,1.72-1.81,1.72ZM1895.5,1478.41s-.06,0-.09,0l-10.9-.53c-1-.05-1.78-.9-1.73-1.91.05-1,.92-1.78,1.9-1.73l10.91.53c1,.05,1.78.9,1.73,1.91-.05.97-.85,1.73-1.82,1.73ZM1859.15,1476.7s-.05,0-.08,0l-10.91-.47c-1-.04-1.78-.89-1.74-1.9.04-1,.94-1.77,1.9-1.74l10.91.47c1,.04,1.78.89,1.74,1.9-.04.98-.85,1.74-1.82,1.74ZM1822.78,1475.19s-.05,0-.07,0l-10.91-.42c-1-.04-1.79-.88-1.75-1.89.04-1.01.96-1.83,1.89-1.75l10.91.42c1,.04,1.79.89,1.75,1.89-.04.98-.84,1.75-1.82,1.75ZM324.41,1475.17c-.1,0-.21,0-.31-.03-.99-.17-1.65-1.11-1.48-2.1l.61-3.43c.56-3.14,3.15-5.36,6.29-5.4h.95c1.11-.16,1.83.77,1.85,1.78.02,1-.79,1.83-1.79,1.85h-.95c-1.4.03-2.51,1-2.76,2.41l-.6,3.42c-.15.89-.92,1.51-1.79,1.51ZM1786.41,1473.83s-.04,0-.07,0l-10.91-.38c-1.01-.03-1.79-.88-1.76-1.88.04-1,.88-1.83,1.88-1.76l10.91.38c1,.04,1.79.88,1.75,1.88-.03.98-.84,1.76-1.82,1.76ZM1750.04,1472.61s-.04,0-.06,0l-10.91-.34c-1-.03-1.79-.87-1.76-1.87.03-1,.85-1.74,1.88-1.76l10.91.34c1,.03,1.79.87,1.76,1.88-.03.98-.84,1.76-1.82,1.76ZM1713.65,1471.5h-.05l-10.91-.31c-1.01-.03-1.8-.87-1.77-1.87.03-1.01.86-1.85,1.87-1.77l10.92.31c1,.03,1.8.87,1.77,1.87-.03.99-.84,1.77-1.82,1.77ZM1677.27,1470.51h-.05l-10.91-.28c-1-.03-1.8-.86-1.77-1.87.03-1,.7-1.74,1.87-1.77l10.92.28c1,.03,1.8.86,1.77,1.87-.03.99-.84,1.77-1.82,1.77ZM1640.88,1469.61h-.04l-10.91-.25c-1.01-.02-1.8-.86-1.78-1.86.02-1,.71-1.78,1.86-1.78l10.92.25c1,.02,1.8.86,1.78,1.86-.02.99-.83,1.78-1.82,1.78ZM1604.49,1468.8h-.04l-10.91-.23c-1-.02-1.8-.85-1.78-1.86.02-1.01.95-1.81,1.86-1.78l10.92.23c1,.02,1.8.85,1.78,1.86-.02.99-.83,1.78-1.82,1.78ZM1568.11,1468.06h-.04l-10.92-.21c-1-.02-1.8-.85-1.79-1.85.02-1,.79-1.89,1.85-1.79l10.92.21c1,.02,1.8.85,1.78,1.86-.02.99-.83,1.78-1.82,1.78ZM355.98,1467.51c-1,0-1.81-.8-1.82-1.8-.01-1,.79-1.83,1.8-1.84l10.92-.13c.86-.02,1.83.79,1.84,1.8.01,1-.79,1.83-1.8,1.84l-10.92.13h-.02ZM1531.72,1467.4h-.03l-10.91-.18c-1-.02-1.81-.84-1.79-1.85.02-1,.83-1.79,1.82-1.79h.03l10.92.18c1,.02,1.81.85,1.79,1.85-.02.99-.83,1.79-1.82,1.79ZM392.4,1467.08c-.99,0-1.81-.8-1.82-1.8-.01-1.01.79-1.83,1.8-1.84l10.92-.12c1.03-.1,1.83.79,1.84,1.8.01,1.01-.79,1.83-1.8,1.84l-10.92.12h-.02ZM1495.33,1466.81h-.03l-10.92-.17c-1.01-.02-1.81-.84-1.79-1.85.02-1.01.73-1.85,1.85-1.79l10.92.17c1,.02,1.81.84,1.79,1.85-.02,1-.83,1.79-1.82,1.79ZM428.81,1466.68c-1,0-1.81-.8-1.82-1.8-.01-1,.79-1.83,1.8-1.84l10.92-.12c1.11.04,1.83.8,1.84,1.8.01,1-.8,1.83-1.8,1.84l-10.92.12h-.02ZM465.22,1466.3c-1,0-1.81-.8-1.82-1.8-.01-1,.8-1.83,1.8-1.84l10.92-.11c1.12.07,1.83.8,1.84,1.8.01,1-.8,1.83-1.8,1.84l-10.92.11h-.02ZM1458.93,1466.27h-.03l-10.92-.15c-1-.01-1.81-.84-1.79-1.84.01-1,.83-1.79,1.82-1.79h.02l10.92.15c1.01.01,1.81.84,1.79,1.84-.01,1-.83,1.8-1.82,1.8ZM501.63,1465.95c-1,0-1.81-.8-1.82-1.8,0-1.01.8-1.83,1.8-1.84l10.92-.1c1.12.09,1.83.8,1.84,1.8,0,1-.8,1.83-1.8,1.84l-10.92.1h-.02ZM1422.54,1465.8h-.02l-10.92-.13c-1-.01-1.81-.84-1.8-1.84.01-1.01.79-1.89,1.84-1.8l10.92.13c1,.01,1.81.84,1.8,1.84-.01,1-.82,1.8-1.82,1.8ZM538.04,1465.62c-1,0-1.81-.81-1.82-1.8,0-1,.8-1.83,1.8-1.84l10.92-.1h.02c1,0,1.81.81,1.82,1.8,0,1.01-.8,1.83-1.8,1.84l-10.92.1h-.02ZM1386.15,1465.37h-.02l-10.92-.12c-1-.01-1.81-.83-1.8-1.84.01-1.01.89-1.85,1.84-1.8l10.92.12c1.01.01,1.81.84,1.8,1.84-.01,1-.82,1.8-1.82,1.8ZM574.45,1465.31c-1,0-1.81-.81-1.82-1.8,0-1.01.8-1.83,1.8-1.84l10.92-.09h.01c1,0,1.81.8,1.82,1.81,0,1.01-.8,1.83-1.81,1.83l-10.92.09h-.02ZM610.85,1465.02c-1,0-1.81-.81-1.82-1.81,0-1,.8-1.83,1.81-1.83l10.92-.08h.01c1,0,1.81.8,1.82,1.81,0,1.01-.8,1.83-1.81,1.83l-10.92.08h-.01ZM1349.75,1465h-.02l-10.92-.1c-1.01,0-1.81-.83-1.8-1.84,0-1,.82-1.8,1.82-1.8h.02l10.92.1c1.01.01,1.81.83,1.8,1.84-.01,1-.82,1.8-1.82,1.8ZM647.26,1464.76c-1,0-1.81-.81-1.82-1.81,0-1,.8-1.83,1.81-1.83l10.92-.07c.99-.09,1.82.8,1.83,1.81,0,1.01-.8,1.82-1.81,1.83l-10.92.07h-.01ZM1313.36,1464.67h-.02l-10.92-.09c-1.01,0-1.81-.83-1.81-1.83,0-1,.82-1.81,1.82-1.81h.01l10.92.09c1.01,0,1.81.83,1.81,1.84,0,1-.82,1.8-1.82,1.8ZM683.67,1464.52c-1,0-1.81-.81-1.82-1.81,0-1.01.8-1.83,1.81-1.83l10.92-.07h.01c1,0,1.81.81,1.82,1.81,0,1.01-.8,1.83-1.81,1.83l-10.92.07h-.01ZM1276.96,1464.39h-.01l-10.92-.08c-1,0-1.81-.83-1.81-1.83,0-1.01.88-1.94,1.83-1.81l10.92.08c1.01,0,1.81.83,1.81,1.83,0,1-.82,1.81-1.82,1.81ZM720.07,1464.3c-1,0-1.81-.81-1.82-1.81,0-1.01.8-1.82,1.81-1.83l10.92-.06h.01c1,0,1.81.81,1.82,1.81,0,1.01-.81,1.83-1.81,1.83l-10.92.06h-.01ZM1240.57,1464.15h-.01l-10.92-.06c-1,0-1.81-.82-1.81-1.83,0-1,.83-1.76,1.83-1.81l10.92.06c1.01,0,1.81.82,1.81,1.83,0,1-.82,1.81-1.82,1.81ZM756.47,1464.11c-1,0-1.81-.81-1.82-1.81,0-1.01.81-1.82,1.81-1.83l10.92-.05h0c1,0,1.81.81,1.82,1.81,0,1.01-.8,1.82-1.81,1.83l-10.92.05h0ZM1204.17,1463.95h0l-10.92-.05c-1,0-1.82-.82-1.81-1.83,0-1,.82-1.81,1.82-1.81h0l10.92.05c1.01,0,1.82.82,1.81,1.83,0,1-.82,1.81-1.82,1.81ZM792.88,1463.94c-1,0-1.82-.81-1.82-1.81,0-1,.81-1.82,1.81-1.83l10.92-.04h0c1,0,1.82.81,1.82,1.81,0,1.01-.81,1.82-1.81,1.83l-10.92.04h0ZM829.29,1463.79c-1,0-1.82-.81-1.82-1.81,0-1,.81-1.82,1.81-1.83l10.92-.04h0c1,0,1.82.81,1.82,1.81,0,1-.81,1.82-1.81,1.83l-10.92.04h0ZM1167.78,1463.78h0l-10.92-.04c-1.01,0-1.82-.82-1.81-1.83,0-1,.82-1.81,1.82-1.81h0l10.92.04c1.01,0,1.82.82,1.81,1.83,0,1-.82,1.81-1.82,1.81ZM865.69,1463.67c-1,0-1.82-.81-1.82-1.81,0-1.01.81-1.82,1.81-1.83l10.92-.03h0c1,0,1.82.81,1.82,1.81,0,1.01-.81,1.82-1.81,1.82l-10.92.03h0ZM1131.38,1463.66h0l-10.92-.03c-1.01,0-1.82-.82-1.81-1.83,0-1,.82-1.81,1.82-1.81h0l10.92.03c1.01,0,1.82.82,1.81,1.82,0,1-.82,1.81-1.82,1.81ZM902.09,1463.58c-1,0-1.82-.81-1.82-1.82,0-1.01.81-1.82,1.82-1.82l10.92-.02h0c1.01,0,1.82.81,1.82,1.82,0,1.01-.81,1.82-1.82,1.82l-10.92.02h0ZM1094.98,1463.56h0l-10.92-.02c-1.01,0-1.82-.82-1.82-1.82,0-1,.82-1.82,1.82-1.82h0l10.92.02c1.01,0,1.82.82,1.82,1.82,0,1-.82,1.82-1.82,1.82ZM938.5,1463.51c-1,0-1.82-.81-1.82-1.82,0-1,.81-1.82,1.82-1.82h10.92c1.01-.01,1.82.8,1.82,1.8,0,1-.81,1.82-1.82,1.82h-10.92s0,.01,0,.01ZM1058.59,1463.5h-10.92c-1.01-.01-1.82-.83-1.82-1.83,0-1,.82-1.82,1.82-1.82h10.92c1,.01,1.82.83,1.82,1.84,0,1-.82,1.82-1.82,1.82ZM974.9,1463.48c-1.01,0-1.82-.81-1.82-1.82s.81-1.82,1.82-1.82h10.89c1.01,0,1.82.81,1.82,1.81s-.81,1.82-1.82,1.82h-10.89ZM1022.19,1463.47h-10.92c-1.01,0-1.82-.82-1.82-1.82s.81-1.82,1.82-1.82h10.92c1.01,0,1.82.82,1.82,1.83s-.82,1.82-1.82,1.82Z" style="fill:#fff; stroke-width:0px;"/><path d="M1360.54,2299.07h-238.58c-31.26,0-57.59-23.26-61.3-54.16l-27.56-229.57c-4.39-36.57,24.3-68.74,61.3-68.74h286.61c36.25,0,64.7,30.94,61.5,66.88l-20.47,229.57c-2.83,31.71-29.52,56.02-61.5,56.02Z" style="fill:url(#uuid-afbcf65a-4e9d-4cf3-a91c-dba9c1b45adc); stroke-width:0px;"/><g style="mask:url(#uuid-cd6c78ed-9726-4859-91b5-c66e57a946b8);"><path d="M1331.2,2256.84h-181.58c-23.8,0-43.84-17.7-46.66-41.22l-20.98-174.73c-3.34-27.83,18.5-52.32,46.66-52.32h218.14c27.59,0,49.25,23.55,46.81,50.91l-15.58,174.73c-2.15,24.13-22.46,42.64-46.81,42.64Z" style="fill:url(#uuid-81d50a1e-ce16-4762-90c6-a8c6abc69e8e); stroke-width:0px;"/></g><path d="M2245.47,2689.67c-55.76,2.57-109.74.95-145.78-.9,32.81-23.36,108.41-74.17,171.67-94.4l43.42-2.6s14.71,22.38,19.97,73.59c-7.2,8.98-28.23,21.5-89.28,24.31Z" style="fill:url(#uuid-53649123-5fec-442c-926d-339c39e8923e); stroke-width:0px;"/><path d="M2099.24,2689.09c.14-.1.3-.21.45-.32,36.04,1.85,90.02,3.46,145.78.9,61.04-2.81,82.08-15.33,89.28-24.31.24,2.36.49,4.7.69,7.18.9,11.24-7.44,21.11-18.68,21.96-45.67,3.45-158.91,11.27-213.51,8.41-7.2-.38-9.87-9.63-4-13.82Z" style="fill:url(#uuid-1fabd010-1a50-4742-bca3-e99d41b47780); stroke-width:0px;"/><path d="M2644.31,2674.75c4.08-26.18,10.63-64.03,15.69-73.7,7.94-15.18,35.11,0,35.11,0,0,0,19.08,8.89,27.85,23.72,5.6,9.45,21.07,36.34,31.56,54.6,1.21,2.1,1.71,4.34,1.65,6.5l-108.8,3.81c-2.66-4.27-3.91-9.47-3.06-14.92Z" style="fill:url(#uuid-2e878f38-091f-44ec-896e-6cdbe8728e06); stroke-width:0px;"/><path d="M2756.18,2685.86c-.18,6.22-5.11,11.85-12.06,12.04l-77.51,2.13c-8.19.23-15.28-4.03-19.23-10.37l108.8-3.81Z" style="fill:url(#uuid-4b2ca9f3-e282-4c59-9fae-adaa301bf2fc); stroke-width:0px;"/><path d="M2636,2514.04c.94,3.14,15,71.3,21.15,101.21,1.7,8.27,9.15,14.07,17.58,13.65,4.6-.23,9.96-.64,15.58-1.37,9.97-1.29,17.56-9.61,17.94-19.65,1-26.2,1.49-76.51-8.13-96-13.27-26.89-64.12,2.17-64.12,2.17Z" style="fill:url(#uuid-5b8fe48c-075f-4a48-bf7e-da8434a65f2a); stroke-width:0px;"/><path d="M2323.32,2533.55c-6.03-.19,2.41,31.13-6.72,61.92-2.06,6.94-7.25,12.39-14.49,12.49-4.69.06-10.26-.03-15.9-.48-8.49-.68-15.32-7.27-16.11-15.75l-7.42-79.86,60.64,21.69Z" style="fill:url(#uuid-804bdbd8-07df-4aab-8878-b1d2cebeee95); stroke-width:0px;"/><path d="M2154.65,1684.63c2.69,13.1,97.69,567.2,103.45,853.92.1,4.81,3.63,8.84,8.4,9.5,12.06,1.68,35.55,3.84,58.32-.38,3.12-.58,5.47-3.15,5.67-6.31,3.32-53.43,30.02-505.19-2.68-717.85,0,0,270.11,568.48,311.05,725.23,1,3.81,4.5,6.38,8.43,6.17,11.57-.61,35.63-2.69,54.73-9.72,6.85-2.52,10.75-9.72,9.02-16.8-22.88-93.81-183.19-740.13-292.04-882.53l-264.35,38.77Z" style="fill:url(#uuid-837d3b16-4fba-49f2-9489-0fb9c80959d5); stroke-width:0px;"/><path d="M2327.81,1827.05c.89,0,1.79-.34,2.48-1.01,1.4-1.37,1.43-3.61.06-5.01l-36.17-36.99c-1.37-1.4-3.61-1.42-5.01-.06-1.4,1.37-1.42,3.62-.06,5.01l36.17,36.99c.69.71,1.61,1.07,2.53,1.07Z" style="fill:url(#uuid-c6dc411a-4cf6-41cb-8ded-d6e3e84fb1de); stroke-width:0px;"/><path d="M2063.3,969.58c80.81-12.15,239.41-29.55,342.87.8l-11.22,319.75-374.81-40.41-31.79-45.19s14.73-225.89,74.96-234.95Z" style="fill:url(#uuid-16122874-acb8-40f7-908a-3534b168ba9e); stroke-width:0px;"/><path d="M2249.97,798.4s7.49,127.18,6.07,166.74c0,0-104.12,17.04-128.9-.77l19.58-150.76,103.25-15.2Z" style="fill:url(#uuid-11cbf40a-b9ea-4a2c-bfe3-d1fb7bfe9dd5); stroke-width:0px;"/><path d="M2148.76,671.03s-41.92,73.59-48.54,113.87c-6.62,40.28-18.18,65.63,27.79,78.84s87.96-5.89,113.69-43.95c0,0,40.2-58.59,35.43-84.87-4.77-26.28-128.37-63.88-128.37-63.88Z" style="fill:url(#uuid-f982883e-bf52-471e-841d-dc248daa751f); stroke-width:0px;"/><path d="M2228.82,789.04l-5.92-.64s29.8-47.43,9.3-58.54c-20.5-11.1-103.58-37.57-118.66-69.69-14.54-30.96,5.26-66.8,29.96-74.76,1.56-.5,3.25.39,3.85,1.91l1.56,3.91c1.07,2.67,4.84,2.69,5.93.03h0c1.04-2.53,4.61-2.72,5.8-.26,4.64,9.62,18.25,25.91,58.19,37.82,56.67,16.89,92.37,44.41,89,84.46-.21,2.54,2.34,4.22,4.65,3.14,4.55-2.14,11.51-2.63,19.81,6.03,14.44,15.06,4.21,48.98-33.65,73.72-1.8,1.18-2.06,3.76-.4,5.12,5.87,4.79,14.22,15.57-11.55,25.97-26.36,10.64-40.96,7.6-46.37,5.58-1.46-.54-2.32-2.02-2.06-3.55l6-35.17c.31-1.82-.98-3.52-2.81-3.72l-12.63-1.36Z" style="fill:url(#uuid-d6a62e26-0233-4126-86a6-e828a7a3e642); stroke-width:0px;"/><path d="M2226.57,796.29s18.13-47.94,38.76-31.73c20.62,16.21-17.42,54.02-35.4,53.96l-3.36-22.23Z" style="fill:url(#uuid-e4b2be5e-a75c-49ae-89c4-1443d9f176b9); stroke-width:0px;"/><path d="M1777.62,1219.71l9.94-39.07c4.92-19.33,24.14-31.39,43.68-27.4l936.05,190.97c21.32,4.35,35.01,25.22,30.52,46.51l-57.07,270.51-963.13-441.52Z" style="fill:url(#uuid-2926efbb-698a-416f-ab00-d7ebd93abc7a); stroke-width:0px;"/><path d="M1688.87,1694.23l70.4-506c1.46-10.47,11.53-17.47,21.85-15.17l961.4,213.49c20.52,4.56,33.39,24.96,28.67,45.44l-80.69,349.76-1001.63-87.52Z" style="fill:#bdd0fb; stroke-width:0px;"/><path d="M1714.26,1671.3l26.97-451.64c.69-11.61,11.55-19.89,22.93-17.48l971.51,205.58c13.7,2.9,22.72,16.02,20.53,29.85l-51.75,326.25-990.19-92.56Z" style="fill:url(#uuid-e60cf8b0-519a-4b36-ae67-0df83e269e1d); stroke-width:0px;"/><path d="M1643.89,1778.06l61.16-489.19c3.05-24.38,26.03-41.14,50.18-36.58l996.21,188.03c20.2,3.81,33.49,23.28,29.68,43.48l-84.14,445.79c-3.97,21.03-23.7,35.29-44.91,32.46l-965.75-128.97c-26.84-3.58-45.77-28.14-42.42-55.01Z" style="fill:url(#uuid-b5ad5137-9fd3-4e62-91bc-e6fc1b564a3e); stroke-width:0px;"/><path d="M2105.77,1318.45h0c-3.92,20.76-23.92,34.41-44.67,30.49l-222.12-41.92c-20.76-3.92-34.41-23.92-30.49-44.67h0c3.92-20.76,23.92-34.41,44.67-30.49l222.12,41.92c20.76,3.92,34.41,23.92,30.49,44.67Z" style="fill:url(#uuid-092780e5-2fc0-4fb5-b877-887edfca7f72); stroke-width:0px;"/><path d="M2301.62,1109.81l104.55-139.42s167.99,178.46,200.22,404.97l-104.79,51.1c-32.52-76.27-92.39-179.6-199.97-316.65Z" style="fill:url(#uuid-703d64a1-36b1-47e1-9aee-56ab013f177e); stroke-width:0px;"/><path d="M2451.41,1737.86c12.39-20.72,36.57-60.17,48.33-72.48,0,0-10.75-6.79-31.38-4.26-20.62,2.53-36.78-7.53-36.16-18.75l98.41-30.19c4.42-9.24,23.89-61.66-29.02-185.73l104.79-51.1c12.07,84.8,5.14,176.32-36.8,267.75,0,0-32.54,101.07-69.93,123.5-97.58,58.53-53-20.79-48.25-28.74Z" style="fill:url(#uuid-7d717dc6-afca-4063-8e4f-46a30ead26fc); stroke-width:0px;"/></svg>