<?xml version="1.0" encoding="UTF-8"?><svg id="uuid-be63b0db-e856-480d-b118-5b8998436fc3" xmlns="http://www.w3.org/2000/svg" xmlns:xlink="http://www.w3.org/1999/xlink" viewBox="0 0 2785.75 2698.38"><defs><linearGradient id="uuid-bc4e7edd-8791-44bb-81a7-20083dbf448a" x1="1887.98" y1="119.68" x2="1881.25" y2="-991.97" gradientUnits="userSpaceOnUse"><stop offset="0" stop-color="#e1473d"/><stop offset="1" stop-color="#e9605a"/></linearGradient><linearGradient id="uuid-76a0f01f-af28-4bc5-adea-7e92a76c1fa1" x1="1587.55" y1="-2101.97" x2="1782.93" y2="-410.91" gradientUnits="userSpaceOnUse"><stop offset="0" stop-color="#ff928e"/><stop offset="1" stop-color="#fe7062"/></linearGradient><linearGradient id="uuid-9f4312b2-3f97-4127-a9e7-eb4d0cd1fa59" x1="2465.81" y1="-929.75" x2="2041.38" y2="90.9" gradientUnits="userSpaceOnUse"><stop offset="0" stop-color="#febbba"/><stop offset="1" stop-color="#ff928e"/></linearGradient><linearGradient id="uuid-ad75c877-fd62-4f13-9ff6-06ddd5871785" x1="2390.96" y1="-617.85" x2="2027.17" y2="357.33" xlink:href="#uuid-9f4312b2-3f97-4127-a9e7-eb4d0cd1fa59"/><linearGradient id="uuid-69aab257-6f01-48a0-ae5f-6565c95325ab" x1="1537.48" y1="-2096.18" x2="1732.86" y2="-405.12" xlink:href="#uuid-76a0f01f-af28-4bc5-adea-7e92a76c1fa1"/><linearGradient id="uuid-1b5b5d47-8430-4bae-8fec-5f7959d92ac9" x1="2078.5" y1="476.55" x2="1825.86" y2="996.98" xlink:href="#uuid-9f4312b2-3f97-4127-a9e7-eb4d0cd1fa59"/><linearGradient id="uuid-83ea9047-e976-4997-b3e4-866cae29f74d" x1="2469.43" y1="-213" x2="1822.69" y2="1292.72" xlink:href="#uuid-9f4312b2-3f97-4127-a9e7-eb4d0cd1fa59"/><linearGradient id="uuid-b08889fd-1be9-4716-8755-fa3fc7703a6e" x1="1490.98" y1="-2090.81" x2="1686.36" y2="-399.75" xlink:href="#uuid-76a0f01f-af28-4bc5-adea-7e92a76c1fa1"/><linearGradient id="uuid-0f529aea-37e1-4ae8-a020-03ecc409aec4" x1="2460.29" y1="-49.98" x2="1742.8" y2="1637.64" xlink:href="#uuid-9f4312b2-3f97-4127-a9e7-eb4d0cd1fa59"/><linearGradient id="uuid-31300a25-3922-41e8-ae22-16d4f2a5beda" x1="2420.96" y1="549.87" x2="1981.38" y2="1393.67" xlink:href="#uuid-9f4312b2-3f97-4127-a9e7-eb4d0cd1fa59"/><linearGradient id="uuid-cf3af846-79a0-4c74-b5ed-4532ffcb4226" x1="1442.3" y1="-2085.19" x2="1637.68" y2="-394.13" xlink:href="#uuid-76a0f01f-af28-4bc5-adea-7e92a76c1fa1"/><linearGradient id="uuid-6aa42c06-7da0-4f38-a599-860804c0b0dc" x1="2403.2" y1="496.05" x2="1953.51" y2="1567.22" xlink:href="#uuid-9f4312b2-3f97-4127-a9e7-eb4d0cd1fa59"/><linearGradient id="uuid-0ab88746-d373-418d-8766-b8777e7fa6c2" x1="2451.76" y1="878.56" x2="1921.23" y2="1929.52" xlink:href="#uuid-9f4312b2-3f97-4127-a9e7-eb4d0cd1fa59"/><linearGradient id="uuid-557fcf30-bdc1-4b4f-ad80-62481f4e4214" x1="-1182.99" y1="2259.23" x2="-697.89" y2="803.93" gradientTransform="translate(239.06) rotate(-180) scale(1 -1)" gradientUnits="userSpaceOnUse"><stop offset="0" stop-color="#09005d"/><stop offset="1" stop-color="#1a0f91"/></linearGradient><linearGradient id="uuid-dd06c53f-66f1-4ac5-82cb-dad0f8943e03" x1="178.34" y1="1688.86" x2="2263.95" y2="1688.86" gradientUnits="userSpaceOnUse"><stop offset="0" stop-color="#4f52ff"/><stop offset="1" stop-color="#4042e2"/></linearGradient><linearGradient id="uuid-f528ee81-5469-4e56-9818-5a38b6dfdcb6" x1="-53.99" y1="2172.18" x2="-2214.72" y2="2697.76" gradientTransform="translate(2188.19 4792.21) scale(1 -1)" xlink:href="#uuid-557fcf30-bdc1-4b4f-ad80-62481f4e4214"/><linearGradient id="uuid-bcf131e7-33f5-4026-a8a2-37e9c919de7b" x1="470.16" y1="2666.57" x2="676.29" y2="2666.57" xlink:href="#uuid-dd06c53f-66f1-4ac5-82cb-dad0f8943e03"/><linearGradient id="uuid-1e5cdcb4-d9d6-4ce8-aed5-6bff1178dbcc" x1="628.98" y1="2270.21" x2="572.66" y2="2659.33" gradientTransform="matrix(1,0,0,1,0,0)" xlink:href="#uuid-557fcf30-bdc1-4b4f-ad80-62481f4e4214"/><linearGradient id="uuid-6ead19da-1bc1-41c2-99b1-c620519b090d" x1="480.46" y1="2604.46" x2="536.23" y2="2604.46" xlink:href="#uuid-9f4312b2-3f97-4127-a9e7-eb4d0cd1fa59"/><linearGradient id="uuid-73d1554f-47cd-4306-b861-4b769c3288c7" x1="793.46" y1="2625.72" x2="959.89" y2="2625.72" xlink:href="#uuid-dd06c53f-66f1-4ac5-82cb-dad0f8943e03"/><linearGradient id="uuid-0b444b29-175b-4085-980f-3c6d34373b85" x1="907.94" y1="2310.59" x2="851.62" y2="2699.71" gradientTransform="matrix(1,0,0,1,0,0)" xlink:href="#uuid-557fcf30-bdc1-4b4f-ad80-62481f4e4214"/><linearGradient id="uuid-7275d8b8-ea2b-444a-8068-8ce8a1d15236" x1="633" y1="2132.11" x2="152.41" y2="2561.06" gradientTransform="matrix(1,0,0,1,0,0)" xlink:href="#uuid-557fcf30-bdc1-4b4f-ad80-62481f4e4214"/><linearGradient id="uuid-898f7f4b-cae4-42a6-9c42-dd532da30dbd" x1="744.62" y1="2609.15" x2="811.21" y2="2609.15" xlink:href="#uuid-9f4312b2-3f97-4127-a9e7-eb4d0cd1fa59"/><linearGradient id="uuid-74e51612-6cd9-4b2b-baf7-98fdfdc47719" x1="763.85" y1="1841.74" x2="635.84" y2="2028.14" gradientTransform="matrix(1,0,0,1,0,0)" xlink:href="#uuid-557fcf30-bdc1-4b4f-ad80-62481f4e4214"/><linearGradient id="uuid-b0216402-3bdd-436e-ae85-6360845421b1" x1="374.77" y1="1670.87" x2="407.6" y2="1588.09" xlink:href="#uuid-9f4312b2-3f97-4127-a9e7-eb4d0cd1fa59"/><linearGradient id="uuid-d376345b-31ea-437e-9215-444d7f7d1a18" x1="477.5" y1="431.52" x2="416.86" y2="1260.21" xlink:href="#uuid-76a0f01f-af28-4bc5-adea-7e92a76c1fa1"/><linearGradient id="uuid-191a1802-8b9f-4021-9164-273f0d94ab8b" x1="356.2" y1="1833.64" x2="403.92" y2="1833.64" xlink:href="#uuid-bc4e7edd-8791-44bb-81a7-20083dbf448a"/><linearGradient id="uuid-c2701a3c-4fe0-4d1b-b200-355a45c59c85" x1="655.22" y1="1992.81" x2="809.02" y2="1992.81" xlink:href="#uuid-9f4312b2-3f97-4127-a9e7-eb4d0cd1fa59"/><linearGradient id="uuid-d0aeacde-ace5-44a7-907c-d22f05782578" x1="2372.03" y1="1955.04" x2="2207.21" y2="2081.15" gradientTransform="translate(-2131.96 -125.92) rotate(-7.5)" xlink:href="#uuid-9f4312b2-3f97-4127-a9e7-eb4d0cd1fa59"/><linearGradient id="uuid-d0fa2e59-f454-40d6-a763-e20673cf5317" x1="2256.24" y1="1855.49" x2="2405.49" y2="2047.64" gradientTransform="translate(-2131.96 -125.92) rotate(-7.5)" xlink:href="#uuid-557fcf30-bdc1-4b4f-ad80-62481f4e4214"/><linearGradient id="uuid-be8cb763-357c-41e2-94ff-7b4492dffb99" x1="2351.59" y1="1928.32" x2="2186.77" y2="2054.43" gradientTransform="translate(-2131.96 -125.92) rotate(-7.5)" xlink:href="#uuid-9f4312b2-3f97-4127-a9e7-eb4d0cd1fa59"/><linearGradient id="uuid-d7a35878-a1b8-4a8b-891c-38af575f0d41" x1="20198.18" y1="-22672.91" x2="19786.85" y2="-22275.24" gradientTransform="translate(-5821.96 -392.56) rotate(-177.17) scale(1.39 -1.39)" xlink:href="#uuid-557fcf30-bdc1-4b4f-ad80-62481f4e4214"/><linearGradient id="uuid-12e91f82-70fe-4f48-bf26-f91b2a46d705" x1="17053.07" y1="-22685.9" x2="16641.76" y2="-22288.24" gradientTransform="translate(7947.36 -6930.54) rotate(-62.23) scale(1.39 -1.39)" xlink:href="#uuid-557fcf30-bdc1-4b4f-ad80-62481f4e4214"/></defs><rect x="1104.8" y="574.01" width="1579.89" height="1323.88" style="fill:url(#uuid-bc4e7edd-8791-44bb-81a7-20083dbf448a); stroke-width:0px;"/><path d="M2739.5,402.25l-1690.54,10.64c-22.93.14-41.85,16.92-41.85,37.48v252.23c0,19.79,17.85,35.95,39.92,36.09l1692.48,10.65c25.1.16,46.24-16.86,46.24-38.02v-271.05c0-21.15-21.15-38.17-46.25-38.02Z" style="fill:url(#uuid-76a0f01f-af28-4bc5-adea-7e92a76c1fa1); stroke-width:0px;"/><path d="M2738.73,402.25l-1691.71,10.65c-22.08.14-39.94,16.3-39.94,36.09l1777.14-8.72c0-21.15-20.38-38.17-45.48-38.02Z" style="fill:url(#uuid-9f4312b2-3f97-4127-a9e7-eb4d0cd1fa59); stroke-width:0px;"/><path d="M1047.01,738.68l1691.71,10.65c25.1.16,45.48-16.86,45.48-38.02l-1777.14-8.72c0,19.79,17.87,35.95,39.94,36.09Z" style="fill:url(#uuid-ad75c877-fd62-4f13-9ff6-06ddd5871785); stroke-width:0px;"/><path d="M2740.86,822.85l-1691.84-3.51c-23.66-.05-43.22,17.07-43.48,38.25l-3.24,260.36c-.25,20.47,18,37.23,40.83,37.43l1697.65,14.84c24.42.21,44.98-16.8,44.98-37.99v-271.05c0-21.11-20.54-38.26-44.9-38.31Z" style="fill:url(#uuid-69aab257-6f01-48a0-ae5f-6565c95325ab); stroke-width:0px;"/><path d="M2740.08,822.85l-1693.04-3.51c-22.78-.05-41.43,16.44-41.68,36.83l1778.85,4.99c0-21.11-19.76-38.26-44.12-38.31Z" style="fill:url(#uuid-1b5b5d47-8430-4bae-8fec-5f7959d92ac9); stroke-width:0px;"/><path d="M1043.08,1155.37l1696.9,14.84c24.42.21,44.23-16.8,44.23-37.99l-1782.01-14.27c-.25,20.47,18.05,37.23,40.88,37.43Z" style="fill:url(#uuid-83ea9047-e976-4997-b3e4-866cae29f74d); stroke-width:0px;"/><path d="M2741.58,1244.37h-1690.25c-24.45,0-44.22,18.02-44.22,39.99v269.58c0,21.15,19.04,37.4,42.58,37.4h1691.89c23.54,0,44.17-16.25,44.17-37.4v-271.05c0-21.15-20.63-38.51-44.17-38.51Z" style="fill:url(#uuid-b08889fd-1be9-4716-8755-fa3fc7703a6e); stroke-width:0px;"/><path d="M2741.58,1244.37h-1691.89c-23.54,0-42.63,16.84-42.63,37.06h1777.14c0-20.21-19.08-37.06-42.63-37.06Z" style="fill:url(#uuid-0f529aea-37e1-4ae8-a020-03ecc409aec4); stroke-width:0px;"/><path d="M1049.69,1591.34h1691.89c23.54,0,42.63-16.84,42.63-37.06H1007.07c0,20.21,19.08,37.06,42.63,37.06Z" style="fill:url(#uuid-31300a25-3922-41e8-ae22-16d4f2a5beda); stroke-width:0px;"/><path d="M2743.37,1672.72l-1691.2-6.62c-24.89-.1-45.06,17.64-45.06,39.62v269.58c0,21.14,19.41,38.29,43.37,38.3l1691.96.65c23.13,0,41.92-16.81,41.98-37.58l.75-266.16c.06-20.78-18.65-37.7-41.8-37.79Z" style="fill:url(#uuid-cf3af846-79a0-4c74-b5ed-4532ffcb4226); stroke-width:0px;"/><path d="M2743.37,1672.72l-1692.89-6.63c-23.97-.09-43.42,16.99-43.42,38.15l1778.1,6.27c.06-20.78-18.65-37.7-41.79-37.79Z" style="fill:url(#uuid-6aa42c06-7da0-4f38-a599-860804c0b0dc); stroke-width:0px;"/><path d="M1050.46,2013.6l1691.97.65c23.13,0,41.92-16.81,41.98-37.58l-1777.35-1.37c0,21.14,19.43,38.29,43.39,38.3Z" style="fill:url(#uuid-0ab88746-d373-418d-8766-b8777e7fa6c2); stroke-width:0px;"/><g style="opacity:.3;"><path d="M1877.05,437.18c-5.68-.98-9.83-6.12-9.43-12.01.86-12.86,2.29-25.88,4.26-38.69.96-6.23,6.78-10.51,13.01-9.56.07.01.15.03.22.04,6.11,1.06,10.28,6.82,9.33,12.98-1.87,12.17-3.23,24.54-4.04,36.76-.42,6.29-5.86,11.05-12.15,10.63-.4-.03-.8-.08-1.19-.14ZM1894.71,339.32c-.44-.08-.88-.18-1.32-.31-6.04-1.8-9.49-8.15-7.69-14.19,3.69-12.41,7.95-24.79,12.66-36.78,2.3-5.87,8.9-8.75,14.8-6.46,5.87,2.3,8.76,8.93,6.46,14.79-4.47,11.4-8.52,23.16-12.02,34.96-1.67,5.6-7.25,8.97-12.87,8ZM1933.48,247.78c-1.25-.22-2.49-.65-3.66-1.31-5.49-3.1-7.43-10.06-4.34-15.55,6.34-11.26,13.26-22.38,20.55-33.05,3.56-5.2,10.66-6.53,15.86-2.99,5.2,3.56,6.54,10.66,2.99,15.86-6.93,10.14-13.49,20.7-19.52,31.39-2.43,4.32-7.27,6.45-11.89,5.65ZM1991.76,167.2c-2.07-.36-4.06-1.29-5.73-2.81-4.66-4.24-4.99-11.47-.75-16.12,8.71-9.56,17.94-18.85,27.43-27.63,4.63-4.27,11.85-3.99,16.13.63,4.28,4.63,4,11.85-.63,16.13-9.01,8.33-17.78,17.16-26.05,26.25-2.73,2.99-6.68,4.2-10.39,3.56ZM2066.55,101.63c-2.9-.5-5.61-2.12-7.42-4.73-3.6-5.17-2.33-12.29,2.85-15.89,10.59-7.37,21.64-14.39,32.85-20.86,5.46-3.16,12.44-1.29,15.59,4.18,3.15,5.46,1.28,12.44-4.18,15.59-10.66,6.15-21.16,12.82-31.22,19.82-2.57,1.79-5.61,2.37-8.47,1.88ZM2153.97,54.25c-3.76-.65-7.11-3.17-8.65-6.96-2.37-5.84.45-12.5,6.29-14.87,11.97-4.85,24.31-9.26,36.65-13.08,6.03-1.86,12.42,1.51,14.28,7.53,1.86,6.02-1.51,12.41-7.53,14.28-11.73,3.63-23.45,7.81-34.82,12.42-2.05.83-4.19,1.02-6.22.67ZM2570.75,98.72c-1.56-.27-3.08-.87-4.47-1.81-10.14-6.9-20.71-13.45-31.43-19.47-5.5-3.09-7.45-10.04-4.37-15.54,3.08-5.5,10.04-7.45,15.54-4.37,11.29,6.34,22.43,13.24,33.11,20.5,5.21,3.55,6.56,10.65,3.01,15.86-2.6,3.82-7.11,5.57-11.39,4.83ZM2249.65,27.43c-4.67-.81-8.52-4.49-9.32-9.42-1.01-6.22,3.22-12.09,9.44-13.1,12.75-2.07,25.75-3.61,38.64-4.58,6.29-.44,11.77,4.24,12.24,10.53.47,6.29-4.24,11.76-10.53,12.24-12.24.92-24.58,2.38-36.69,4.35-1.29.21-2.56.2-3.77-.01ZM2482.77,52.39c-.74-.13-1.48-.33-2.21-.61-11.43-4.46-23.21-8.48-35-11.96-6.05-1.79-9.5-8.14-7.72-14.18,1.79-6.04,8.14-9.53,14.18-7.72,12.41,3.66,24.8,7.9,36.83,12.59,5.87,2.29,8.78,8.91,6.49,14.78-2,5.14-7.33,8.01-12.57,7.1ZM2348.93,22.66c-5.68-.98-9.82-6.11-9.43-11.98.41-6.29,5.84-11.06,12.13-10.65,12.88.84,25.9,2.24,38.69,4.18.08,0,.16.02.24.04,6.1,1.05,10.27,6.8,9.34,12.95-.94,6.24-6.76,10.52-12.99,9.58-12.15-1.84-24.52-3.17-36.75-3.96-.41-.03-.82-.08-1.22-.15Z" style="fill:#91b3fa; stroke-width:0px;"/><path d="M2632.66,149.63c-2.21-.38-4.34-1.42-6.06-3.12-4.19-4.14-8.53-8.25-12.91-12.24-4.66-4.24-5-11.46-.76-16.12,4.24-4.66,11.47-5.01,16.12-.76,4.61,4.19,9.18,8.52,13.59,12.87,4.49,4.43,4.53,11.66.11,16.14-2.73,2.77-6.52,3.85-10.08,3.23Z" style="fill:#91b3fa; stroke-width:0px;"/></g><g style="opacity:.3;"><path d="M2765.22,471.4c-5.43-.94-9.53-5.7-9.46-11.39.07-5.88.02-11.87-.15-17.79-.18-6.3,4.78-11.56,11.08-11.74,6.33-.18,11.56,4.78,11.74,11.08.18,6.23.23,12.53.16,18.73-.08,6.3-5.25,11.35-11.56,11.27-.62,0-1.23-.07-1.82-.17Z" style="fill:#91b3fa; stroke-width:0px;"/><path d="M2245.39,904.41c-5.18-.89-10.36-1.88-15.54-2.96-6.17-1.28-10.14-7.33-8.85-13.5,1.28-6.17,7.36-10.15,13.5-8.86,11.96,2.48,24,4.48,35.91,5.94,6.26.78,10.71,6.46,9.94,12.72-.77,6.26-6.46,10.71-12.72,9.94-7.37-.9-14.85-2.01-22.23-3.29ZM2171.83,885.19c-.63-.11-1.26-.27-1.88-.49-12-4.25-23.96-9.06-35.54-14.29-5.74-2.59-8.3-9.36-5.7-15.1,2.6-5.75,9.37-8.31,15.1-5.7,11,4.97,22.36,9.53,33.76,13.58,5.94,2.1,9.05,8.63,6.95,14.57-1.89,5.32-7.31,8.37-12.69,7.44ZM2327.61,910.86c-5.3-.92-9.37-5.5-9.46-11.07-.09-6.31,4.94-11.49,11.24-11.59,12.06-.18,24.27-.88,36.31-2.08,6.27-.62,11.87,3.95,12.49,10.22.63,6.28-3.95,11.87-10.23,12.49-12.67,1.27-25.54,2-38.24,2.19-.73.01-1.44-.05-2.13-.17ZM2083.73,842.54c-1.43-.25-2.83-.77-4.13-1.59-10.77-6.78-21.37-14.1-31.53-21.76-5.03-3.8-6.03-10.95-2.23-15.98,3.8-5.04,10.95-6.04,15.99-2.24,9.64,7.27,19.71,14.23,29.94,20.66,5.34,3.36,6.94,10.41,3.58,15.74-2.54,4.03-7.19,5.93-11.61,5.17ZM2424.63,898.58c-4.35-.75-8.05-4.01-9.16-8.57-1.48-6.13,2.29-12.3,8.42-13.78,11.72-2.82,23.48-6.19,34.96-10.01,5.98-1.99,12.44,1.25,14.43,7.23,1.99,5.98-1.25,12.44-7.23,14.43-12.09,4.02-24.47,7.57-36.81,10.54-1.56.38-3.13.41-4.62.16ZM2516.61,865.31c-3.48-.6-6.63-2.8-8.31-6.21-2.78-5.66-.45-12.5,5.2-15.28,10.85-5.34,21.6-11.19,31.95-17.4,5.4-3.25,12.41-1.5,15.66,3.91,3.24,5.41,1.49,12.42-3.91,15.66-10.89,6.54-22.21,12.7-33.62,18.31-2.25,1.11-4.68,1.4-6.97,1.01ZM2599.15,812.78c-2.64-.46-5.14-1.84-6.95-4.1-3.95-4.91-3.16-12.1,1.75-16.05,9.44-7.58,18.65-15.63,27.4-23.95,4.57-4.34,11.79-4.17,16.14.41,4.34,4.57,4.16,11.79-.41,16.14-9.2,8.75-18.91,17.23-28.83,25.2-2.66,2.13-5.98,2.88-9.1,2.35ZM2668.27,743.5c-1.83-.32-3.61-1.09-5.17-2.33-4.93-3.93-5.73-11.11-1.8-16.04,7.55-9.45,14.77-19.33,21.48-29.36,3.5-5.24,10.6-6.65,15.83-3.15,5.24,3.5,6.65,10.59,3.15,15.83-7.06,10.57-14.68,20.97-22.62,30.92-2.69,3.37-6.91,4.81-10.88,4.12ZM2720.51,660.71c-1.03-.18-2.05-.5-3.04-.98-5.67-2.75-8.04-9.58-5.29-15.25,5.26-10.85,10.13-22.08,14.47-33.36,2.26-5.88,8.88-8.81,14.75-6.55,5.88,2.26,8.82,8.87,6.56,14.75-4.57,11.88-9.7,23.69-15.24,35.12-2.27,4.68-7.33,7.12-12.21,6.27ZM2753.26,568.53c-.23-.04-.46-.09-.69-.14-6.13-1.45-9.93-7.6-8.48-13.73,2.05-8.66,3.85-17.48,5.36-26.24.55-3.17,1.06-6.34,1.53-9.5.94-6.24,6.75-10.53,12.99-9.59,6.33.83,10.53,6.75,9.59,12.98-.5,3.33-1.04,6.66-1.61,9.99-1.59,9.2-3.49,18.49-5.64,27.6-1.39,5.9-7.14,9.64-13.04,8.62Z" style="fill:#91b3fa; stroke-width:0px;"/><path d="M2006.99,781.34c-2.24-.39-4.38-1.44-6.11-3.16-4.38-4.36-8.74-8.9-12.98-13.49-4.28-4.63-3.99-11.85.64-16.13,4.63-4.28,11.85-4,16.13.64,4.02,4.36,8.17,8.67,12.33,12.81,4.46,4.45,4.48,11.67.03,16.14-2.73,2.74-6.5,3.8-10.04,3.19Z" style="fill:#91b3fa; stroke-width:0px;"/></g><path d="M2044.72,653.51c1.12,1.98,3.37,3.04,5.61,2.63l63.87-11.7c20.52,22.32,44.75,41.54,72.1,56.56l3.89,64.77c.14,2.27,1.7,4.21,3.89,4.82l75.02,20.94c2.19.61,4.53-.24,5.82-2.11l36.86-53.4c31.18,1.31,61.85-2.58,90.97-11.05l48.58,43.08c1.7,1.51,4.18,1.77,6.16.66l67.85-38.24c1.98-1.12,3.04-3.37,2.63-5.61l-11.7-63.87c22.32-20.52,41.54-44.75,56.56-72.1l64.77-3.89c2.27-.14,4.21-1.7,4.82-3.89l20.93-75.02c.61-2.19-.23-4.53-2.11-5.82l-53.4-36.86c1.31-31.18-2.58-61.85-11.05-90.97l43.08-48.58c1.51-1.7,1.77-4.18.66-6.16l-38.24-67.85c-1.12-1.98-3.37-3.04-5.61-2.63l-63.87,11.7c-20.52-22.32-44.75-41.54-72.1-56.56l-3.89-64.77c-.14-2.27-1.7-4.21-3.89-4.82l-75.02-20.93c-2.19-.61-4.53.23-5.82,2.11l-36.86,53.4c-31.18-1.31-61.85,2.58-90.97,11.05l-48.58-43.08c-1.7-1.51-4.18-1.77-6.16-.66l-67.85,38.24c-1.98,1.12-3.04,3.37-2.63,5.61l11.7,63.87c-22.32,20.52-41.54,44.75-56.56,72.1l-64.77,3.89c-2.27.14-4.21,1.7-4.82,3.89l-20.93,75.02c-.61,2.19.23,4.53,2.11,5.82l53.4,36.86c-1.31,31.18,2.58,61.85,11.05,90.97l-43.08,48.58c-1.51,1.7-1.77,4.18-.66,6.16l38.24,67.85Z" style="fill:#91b3fa; stroke-width:0px;"/><path d="M2310.12,528.81c-37.6-6.5-65.85-39.82-64.88-79.08,1.07-43.16,37.06-77.39,80.21-76.32,20.91.51,40.36,9.15,54.77,24.3,14.42,15.15,22.07,35,21.55,55.91-1.07,43.16-37.05,77.39-80.21,76.32-3.89-.1-7.71-.48-11.44-1.12ZM2333.86,392.53c-2.9-.5-5.86-.8-8.86-.87-33.09-.82-60.67,25.43-61.5,58.51-.82,33.09,25.42,60.69,58.51,61.5,33.09.82,60.67-25.43,61.5-58.51.4-16.03-5.47-31.25-16.52-42.87-8.98-9.44-20.52-15.58-33.13-17.76Z" style="fill:#bdd0fb; stroke-width:0px;"/><path d="M2292.43,640.5c-6.46-1.12-12.9-2.56-19.3-4.35h0c-2.01-.56-4.02-1.16-6.02-1.78-9.84-3.09-19.42-6.96-28.59-11.54-.12-.06-.25-.12-.38-.19-.35-.18-.71-.36-1.06-.54-.69-.35-1.37-.71-2.06-1.07-1.8-.94-2.7-2.91-2.38-4.81.08-.46.23-.92.46-1.35,1.17-2.23,3.94-3.08,6.17-1.91,11.48,6.04,23.69,10.89,36.29,14.4,62.58,17.48,126.79.12,171.91-40.35,25.1-22.51,44.28-52.17,54-86.98,1.7-6.1,3.09-12.25,4.15-18.41,7.16-41.46-.09-83.77-21.03-120.91-24.05-42.67-63.28-73.42-110.45-86.58-97.43-27.18-198.73,29.95-225.91,127.33-1.68,6-3.04,12.07-4.09,18.17-4.57,26.45-3.3,53.6,3.81,79.5.18.67.21,1.34.1,1.98-.29,1.69-1.53,3.14-3.29,3.63-2.44.66-4.95-.76-5.61-3.2-7.47-27.2-8.8-55.7-4.01-83.47,1.11-6.41,2.54-12.77,4.3-19.08,28.53-102.24,134.95-162.19,237.16-133.68,49.53,13.82,90.7,46.1,115.95,90.9,21.98,38.99,29.6,83.41,22.08,126.93-1.12,6.47-2.57,12.92-4.36,19.32-13.82,49.53-46.1,90.71-90.89,115.96-39,21.99-83.43,29.59-126.96,22.07Z" style="fill:#bdd0fb; stroke-width:0px;"/><g style="opacity:.3;"><path d="M1441.98,667.23c-3.01-.52-5.43-2.96-5.8-6.14-.68-5.95-1.2-11.99-1.52-17.97-.21-3.89,2.77-7.21,6.66-7.42,3.89-.23,7.21,2.77,7.42,6.66.31,5.7.8,11.46,1.45,17.14.45,3.86-2.33,7.36-6.2,7.81-.69.08-1.36.05-2.01-.06Z" style="fill:#91b3fa; stroke-width:0px;"/><path d="M1440.76,613.01c-3.52-.61-6.08-3.8-5.82-7.43.71-10.28,1.97-20.64,3.72-30.79.37-2.14.76-4.28,1.18-6.42.75-3.82,4.63-6.14,8.27-5.58,3.82.74,6.32,4.45,5.58,8.27-.4,2.05-.78,4.09-1.13,6.13-1.67,9.68-2.87,19.56-3.55,29.37-.27,3.89-3.64,6.81-7.52,6.55-.24-.02-.48-.05-.72-.09ZM1454.76,541.16c-.33-.06-.66-.14-.99-.24-3.7-1.21-5.73-5.18-4.53-8.89,3.86-11.88,8.49-23.63,13.76-34.91,1.65-3.53,5.86-5.04,9.37-3.4,3.53,1.65,5.05,5.84,3.4,9.37-5.03,10.76-9.44,21.97-13.12,33.3-1.1,3.37-4.5,5.36-7.9,4.77ZM1485.75,474.85c-.88-.15-1.75-.48-2.55-.98-3.3-2.07-4.28-6.43-2.21-9.72,6.65-10.55,14.02-20.81,21.93-30.48,2.47-3.02,6.9-3.46,9.92-.99,3.01,2.46,3.46,6.91.99,9.92-7.54,9.22-14.58,18.99-20.91,29.06-1.57,2.49-4.44,3.66-7.17,3.19ZM1532.11,418.18c-1.44-.25-2.81-.95-3.9-2.08-2.69-2.82-2.58-7.29.24-9.97,9.05-8.62,18.7-16.76,28.71-24.18,3.13-2.32,7.55-1.65,9.86,1.47,2.32,3.13,1.67,7.54-1.46,9.86-9.54,7.07-18.76,14.83-27.38,23.05-1.68,1.6-3.95,2.21-6.07,1.84ZM1590.9,374.56c-2.01-.35-3.85-1.56-4.94-3.47-1.92-3.38-.73-7.69,2.66-9.61,10.86-6.15,22.2-11.69,33.71-16.47,3.6-1.5,7.72.21,9.21,3.81,1.49,3.6-.21,7.72-3.81,9.21-10.98,4.56-21.8,9.84-32.16,15.72-1.48.83-3.13,1.08-4.67.81ZM1658.48,346.53c-2.6-.45-4.84-2.35-5.6-5.07-1.04-3.75,1.16-7.63,4.91-8.67,12.03-3.33,24.38-5.94,36.7-7.75,3.86-.55,7.43,2.1,8,5.95.57,3.85-2.1,7.43-5.95,8-11.75,1.73-23.52,4.21-34.99,7.39-1.04.29-2.09.32-3.08.15ZM1730.85,335.88c-3.26-.56-5.77-3.36-5.84-6.79-.09-3.89,3-7.12,6.89-7.21,12.44-.27,25.05.23,37.5,1.49,3.87.46,6.7,3.86,6.3,7.73-.39,3.87-3.85,6.69-7.73,6.3-11.87-1.21-23.91-1.69-35.76-1.43-.47.01-.92-.03-1.36-.1ZM1838.86,353.65c-.4-.07-.8-.17-1.2-.32-9.67-3.49-19.69-6.52-29.81-9-1.53-.38-3.04-.74-4.54-1.08-3.8-.87-6.18-4.64-5.32-8.44.86-3.81,4.68-6.29,8.43-5.32,1.61.37,3.21.74,4.81,1.15,10.56,2.59,21.08,5.76,31.21,9.43,3.66,1.33,5.56,5.36,4.23,9.03-1.18,3.26-4.52,5.12-7.82,4.55Z" style="fill:#91b3fa; stroke-width:0px;"/></g><g style="opacity:.3;"><path d="M1690.98,927.1c-3.79-.66-6.36-4.24-5.76-8.06.61-3.84,4.23-6.47,8.07-5.85,11.58,1.85,23.36,3,35.03,3.44,3.86.18,6.93,3.41,6.79,7.31-.15,3.89-3.42,6.93-7.31,6.79-12.24-.46-24.6-1.67-36.73-3.6-.03,0-.06-.01-.1-.02ZM1655.76,919.29c-.25-.04-.5-.1-.75-.17-11.8-3.37-23.52-7.49-34.83-12.25-3.59-1.51-5.27-5.64-3.76-9.23,1.51-3.6,5.66-5.26,9.23-3.77,10.79,4.54,21.97,8.47,33.23,11.69,3.74,1.07,5.91,4.97,4.84,8.71-1,3.5-4.47,5.62-7.97,5.02ZM1762.91,929.75c-3.08-.53-5.54-3.08-5.82-6.34-.33-3.87,2.54-7.29,6.42-7.62,11.69-1.01,23.4-2.74,34.84-5.14,3.82-.79,7.55,1.64,8.35,5.45.8,3.81-1.64,7.55-5.45,8.35-11.98,2.52-24.27,4.33-36.52,5.38-.62.05-1.23.03-1.81-.08ZM1589.39,891.31c-.79-.14-1.57-.41-2.31-.83-10.65-6.11-21.04-12.94-30.85-20.31-3.12-2.33-3.75-6.75-1.41-9.87,2.33-3.1,6.75-3.74,9.87-1.41,9.36,7.02,19.26,13.53,29.42,19.36,3.38,1.94,4.54,6.25,2.61,9.62-1.51,2.64-4.48,3.93-7.32,3.44ZM1833.35,914.94c-2.46-.43-4.62-2.15-5.48-4.67-1.26-3.69.71-7.69,4.39-8.95,11.07-3.77,22.03-8.26,32.57-13.36,3.51-1.7,7.72-.22,9.42,3.28,1.69,3.51.22,7.72-3.28,9.42-11.05,5.33-22.54,10.05-34.15,14.01-1.16.39-2.35.47-3.47.27ZM1898.18,883.66c-1.88-.33-3.62-1.41-4.74-3.14-2.1-3.28-1.15-7.64,2.12-9.74,9.87-6.34,19.44-13.32,28.45-20.77,3-2.48,7.45-2.06,9.93.94,2.48,3,2.06,7.44-.94,9.92-9.44,7.81-19.47,15.13-29.82,21.77-1.54.99-3.33,1.3-5.01,1.01ZM1953.66,837.75c-1.32-.23-2.59-.83-3.64-1.83-2.83-2.68-2.95-7.14-.27-9.97,8.07-8.51,15.68-17.59,22.63-26.98,2.31-3.12,6.73-3.79,9.86-1.47,3.13,2.32,3.79,6.73,1.48,9.86-7.29,9.85-15.27,19.38-23.73,28.3-1.69,1.78-4.08,2.48-6.32,2.09Z" style="fill:#91b3fa; stroke-width:0px;"/><path d="M1531.52,847.9c-1.34-.23-2.63-.85-3.68-1.87-4.35-4.18-8.59-8.51-12.62-12.87-2.64-2.86-2.47-7.32.39-9.97,2.86-2.63,7.32-2.46,9.97.4,3.84,4.16,7.89,8.29,12.04,12.28,2.81,2.7,2.89,7.16.19,9.97-1.69,1.75-4.06,2.44-6.29,2.06Z" style="fill:#91b3fa; stroke-width:0px;"/></g><path d="M1552.81,759.15c.75,1.33,2.25,2.03,3.75,1.76l42.74-7.83c13.73,14.94,29.94,27.8,48.25,37.85l2.6,43.34c.09,1.52,1.14,2.82,2.6,3.22l50.2,14.01c1.47.41,3.03-.16,3.9-1.41l24.67-35.73c20.86.88,41.39-1.73,60.87-7.4l32.51,28.83c1.14,1.01,2.79,1.19,4.12.44l45.4-25.59c1.33-.75,2.03-2.26,1.76-3.75l-7.83-42.74c14.94-13.73,27.8-29.94,37.85-48.25l43.34-2.6c1.52-.09,2.82-1.14,3.22-2.6l14.01-50.2c.41-1.47-.16-3.03-1.41-3.9l-35.73-24.67c.88-20.86-1.73-41.39-7.4-60.87l28.83-32.51c1.01-1.14,1.19-2.79.44-4.12l-25.59-45.4c-.75-1.33-2.25-2.03-3.75-1.76l-42.74,7.83c-13.73-14.94-29.94-27.79-48.25-37.85l-2.6-43.34c-.09-1.52-1.14-2.81-2.6-3.22l-50.2-14.01c-1.47-.41-3.03.16-3.9,1.41l-24.67,35.73c-20.86-.88-41.39,1.73-60.87,7.4l-32.51-28.83c-1.14-1.01-2.8-1.19-4.12-.44l-45.4,25.59c-1.33.75-2.03,2.25-1.76,3.75l7.83,42.74c-14.94,13.73-27.79,29.94-37.85,48.25l-43.34,2.6c-1.52.09-2.82,1.14-3.22,2.6l-14.01,50.2c-.41,1.47.16,3.03,1.41,3.9l35.73,24.67c-.88,20.86,1.73,41.39,7.4,60.87l-28.83,32.51c-1.01,1.14-1.19,2.79-.44,4.12l25.59,45.4Z" style="fill:#91b3fa; stroke-width:0px;"/><path d="M1730.16,676.63c-11.21-1.94-21.46-7.39-29.44-15.78-9.82-10.32-15.03-23.85-14.67-38.09.73-29.39,25.23-52.71,54.63-51.98,29.43.78,52.72,25.25,51.99,54.64-.35,14.24-6.23,27.49-16.55,37.31-10.32,9.82-23.85,15.04-38.09,14.68-2.66-.07-5.29-.33-7.87-.77ZM1746.06,585.44c-1.87-.32-3.78-.51-5.73-.56-21.62-.53-39.65,16.62-40.19,38.24-.26,10.47,3.57,20.43,10.79,28.01,7.23,7.59,16.97,11.9,27.45,12.18h0c10.47.26,20.43-3.57,28.01-10.79,7.59-7.23,11.92-16.97,12.18-27.45.49-19.67-13.67-36.37-32.51-39.63Z" style="fill:#bdd0fb; stroke-width:0px;"/><path d="M1717.75,754.36c-4.4-.76-8.79-1.75-13.17-2.97-8.71-2.43-17.18-5.74-25.2-9.87-.36-.19-.72-.38-1.08-.56-2.77-1.46-4.17-4.5-3.67-7.43.12-.71.36-1.42.71-2.09,1.81-3.45,6.08-4.75,9.52-2.95,7.45,3.92,15.35,7.06,23.49,9.32h0c.45.13.9.25,1.34.36,19.31,5.19,39.19,5.37,58.13.82,10.28-2.47,20.29-6.34,29.79-11.58.08-.04.15-.09.23-.13.24-.13.47-.26.7-.4,27.62-15.57,47.53-40.96,56.05-71.5,1.11-3.95,2-7.93,2.69-11.92,4.64-26.84-.06-54.23-13.61-78.28-15.57-27.62-40.97-47.52-71.5-56.04-30.52-8.5-62.57-4.64-90.2,10.92-27.62,15.57-47.53,40.96-56.05,71.5-1.09,3.89-1.97,7.81-2.65,11.76-2.96,17.12-2.14,34.7,2.47,51.47.28,1.03.32,2.07.15,3.06-.45,2.61-2.36,4.85-5.08,5.6-3.76,1.02-7.63-1.17-8.67-4.94-5.15-18.76-6.07-38.43-2.77-57.58.76-4.42,1.75-8.82,2.96-13.16,9.54-34.17,31.81-62.58,62.71-80,30.9-17.41,66.72-21.79,100.9-12.22,34.17,9.53,62.58,31.8,80,62.71,15.17,26.9,20.42,57.55,15.23,87.57-.77,4.46-1.77,8.91-3,13.33-18.46,66.15-84.17,106.65-150.44,95.19Z" style="fill:#bdd0fb; stroke-width:0px;"/><path d="M169.48,2312.03c0,20.87,17.09,37.95,37.98,37.95h2053.96c20.89,0,37.98-17.08,37.98-37.95l17.09-1180.35c0-20.87-24.59-61.61-69.65-58.55l-2007.36-51.94c-26.21-.68-51.56,9.41-70.12,27.91-18.56,18.5-28.72,43.8-28.1,69.98l28.21,1192.95Z" style="fill:url(#uuid-557fcf30-bdc1-4b4f-ad80-62481f4e4214); stroke-width:0px;"/><path d="M206.98,2275.62c0,19.76,16.17,35.93,35.93,35.93h1968.98c19.76,0,35.93-16.17,35.93-35.93l16.13-1071.54c-1.9-64.48-58.43-87.66-92.7-86.29l-1923.87-51.61c-18.41-.49-36.22,6.6-49.26,19.61-13.04,13.01-20.22,30.81-19.75,49.23l28.61,1140.6Z" style="fill:url(#uuid-dd06c53f-66f1-4ac5-82cb-dad0f8943e03); stroke-width:0px;"/><path d="M2226.55,1766.57h-.08c-2.91-.04-5.23-2.43-5.19-5.35l1.27-86.9c.04-2.88,2.39-5.19,5.26-5.19h.05c2.94.04,5.26,2.43,5.21,5.35l-1.27,86.9c-.04,2.88-2.39,5.19-5.26,5.19Z" style="fill:#7d97f4; stroke-width:0px;"/><path d="M2229.68,1553.62h-.08c-2.91-.04-5.23-2.44-5.19-5.35l4.89-332.83c-.09-19.77-6.09-35.55-17.84-46.81-21.92-21-56.73-19.93-58.2-19.86l-614.91-16.49c-2.91-.07-5.2-2.5-5.12-5.4.08-2.91,2.31-5.38,5.41-5.12l614.55,16.49c3.82-.23,40.88-.87,65.57,22.78,13.88,13.3,20.98,31.63,21.08,54.47l-4.89,332.93c-.04,2.88-2.39,5.19-5.26,5.19Z" style="fill:#7d97f4; stroke-width:0px;"/><rect x="2.85" y="2344.25" width="2421.54" height="103.71" rx="5.65" ry="5.65" transform="translate(2427.24 4792.21) rotate(180)" style="fill:url(#uuid-f528ee81-5469-4e56-9818-5a38b6dfdcb6); stroke-width:0px;"/><rect x="665.87" y="1139.79" width="43.55" height="635.82" transform="translate(-770.08 2145.28) rotate(-90)" style="fill:#7d97f4; stroke-width:0px;"/><rect x="662.87" y="848.71" width="43.55" height="635.82" transform="translate(-482 1851.22) rotate(-90)" style="fill:#7d97f4; stroke-width:0px;"/><rect x="753.46" y="1011.9" width="43.55" height="458.47" transform="translate(-465.94 2016.32) rotate(-90)" style="fill:#7d97f4; stroke-width:0px;"/><rect x="460.17" y="1204.66" width="43.55" height="65.98" transform="translate(-755.73 1719.55) rotate(-90)" style="fill:#7d97f4; stroke-width:0px;"/><rect x="753" y="1084.7" width="43.55" height="458.47" transform="translate(-539.2 2088.66) rotate(-90)" style="fill:#7d97f4; stroke-width:0px;"/><rect x="459.84" y="1277.46" width="43.55" height="65.98" transform="translate(-828.86 1792.02) rotate(-90)" style="fill:#7d97f4; stroke-width:0px;"/><rect x="751.31" y="1157.38" width="43.55" height="458.47" transform="translate(-613.56 2159.65) rotate(-90)" style="fill:#7d97f4; stroke-width:0px;"/><rect x="455.92" y="1350.14" width="43.55" height="65.98" transform="translate(-905.45 1860.77) rotate(-90)" style="fill:#7d97f4; stroke-width:0px;"/><rect x="662.85" y="1442.85" width="43.55" height="635.82" transform="translate(-1076.15 2445.32) rotate(-90)" style="fill:#7d97f4; stroke-width:0px;"/><rect x="750.44" y="1314.96" width="43.55" height="458.47" transform="translate(-772.01 2316.36) rotate(-90)" style="fill:#7d97f4; stroke-width:0px;"/><rect x="457.16" y="1507.72" width="43.55" height="65.98" transform="translate(-1061.8 2019.58) rotate(-90)" style="fill:#7d97f4; stroke-width:0px;"/><rect x="749.98" y="1387.76" width="43.55" height="458.47" transform="translate(-845.27 2388.69) rotate(-90)" style="fill:#7d97f4; stroke-width:0px;"/><rect x="456.83" y="1580.52" width="43.55" height="65.98" transform="translate(-1134.93 2092.05) rotate(-90)" style="fill:#7d97f4; stroke-width:0px;"/><rect x="748.3" y="1460.44" width="43.55" height="458.47" transform="translate(-919.63 2459.68) rotate(-90)" style="fill:#7d97f4; stroke-width:0px;"/><rect x="452.91" y="1653.2" width="43.55" height="65.98" transform="translate(-1211.53 2160.8) rotate(-90)" style="fill:#7d97f4; stroke-width:0px;"/><rect x="662.85" y="1745.51" width="43.55" height="635.82" transform="translate(-1378.82 2747.97) rotate(-90)" style="fill:#7d97f4; stroke-width:0px;"/><rect x="750.44" y="1617.63" width="43.55" height="458.47" transform="translate(-1074.67 2619.01) rotate(-90)" style="fill:#7d97f4; stroke-width:0px;"/><rect x="457.16" y="1810.38" width="43.55" height="65.98" transform="translate(-1364.46 2322.23) rotate(-90)" style="fill:#7d97f4; stroke-width:0px;"/><rect x="749.98" y="1690.43" width="43.55" height="458.47" transform="translate(-1147.93 2691.35) rotate(-90)" style="fill:#7d97f4; stroke-width:0px;"/><rect x="456.83" y="1883.18" width="43.55" height="65.98" transform="translate(-1437.59 2394.71) rotate(-90)" style="fill:#7d97f4; stroke-width:0px;"/><rect x="748.3" y="1763.1" width="43.55" height="458.47" transform="translate(-1222.29 2762.34) rotate(-90)" style="fill:#7d97f4; stroke-width:0px;"/><rect x="452.91" y="1955.86" width="43.55" height="65.98" transform="translate(-1514.19 2463.46) rotate(-90)" style="fill:#7d97f4; stroke-width:0px;"/><rect x="753.46" y="1913.14" width="43.55" height="458.47" transform="translate(-1367.18 2917.52) rotate(-90)" style="fill:#7d97f4; stroke-width:0px;"/><rect x="460.17" y="2105.9" width="43.55" height="65.98" transform="translate(-1656.97 2620.75) rotate(-90)" style="fill:#7d97f4; stroke-width:0px;"/><rect x="749.83" y="1985.94" width="43.55" height="458.47" transform="translate(-1443.6 2986.69) rotate(-90)" style="fill:#7d97f4; stroke-width:0px;"/><rect x="456.67" y="2178.7" width="43.55" height="65.98" transform="translate(-1733.26 2690.05) rotate(-90)" style="fill:#7d97f4; stroke-width:0px;"/><rect x="1695.48" y="1771.27" width="44.14" height="457.66" transform="translate(-282.63 3717.55) rotate(-90)" style="fill:#7d97f4; stroke-width:0px;"/><rect x="1651.75" y="1555.07" width="44.14" height="742.53" transform="translate(-252.6 3600.06) rotate(-90)" style="fill:#7d97f4; stroke-width:0px;"/><rect x="1815.55" y="1555.03" width="44.14" height="595.21" transform="translate(-15.1 3690.17) rotate(-90)" style="fill:#7d97f4; stroke-width:0px;"/><rect x="1687.65" y="1609.2" width="44.15" height="339.41" transform="translate(-69.26 3488.54) rotate(-90)" style="fill:#7d97f4; stroke-width:0px;"/><rect x="1823.07" y="1407.82" width="44.14" height="594.47" transform="translate(140 3550.12) rotate(-90)" style="fill:#7d97f4; stroke-width:0px;"/><rect x="1723.79" y="1380.2" width="44.14" height="502.34" transform="translate(114.42 3377.16) rotate(-90)" style="fill:#7d97f4; stroke-width:0px;"/><rect x="1548.66" y="1289.32" width="44.14" height="536.34" transform="translate(13.17 3128.15) rotate(-90)" style="fill:#7d97f4; stroke-width:0px;"/><rect x="1825.87" y="1177.81" width="44.15" height="611.92" transform="translate(364.08 3331.64) rotate(-90)" style="fill:#7d97f4; stroke-width:0px;"/><rect x="1829.66" y="1100.26" width="44.14" height="619.51" transform="translate(441.64 3261.68) rotate(-90)" style="fill:#7d97f4; stroke-width:0px;"/><rect x="1830.99" y="1031.1" width="44.14" height="610.3" transform="translate(516.72 3189.24) rotate(-90)" style="fill:#7d97f4; stroke-width:0px;"/><rect x="1665.34" y="1012.5" width="44.14" height="499.96" transform="translate(424.85 2949.83) rotate(-90)" style="fill:#7d97f4; stroke-width:0px;"/><rect x="1166.48" y="1417.09" width="44.14" height="129.64" transform="translate(-293.41 2670.4) rotate(-90)" style="fill:#7d97f4; stroke-width:0px;"/><rect x="1166.48" y="1492.96" width="44.14" height="129.64" transform="translate(-369.28 2746.27) rotate(-90)" style="fill:#7d97f4; stroke-width:0px;"/><rect x="1166.48" y="1565.73" width="44.14" height="129.64" transform="translate(-442.05 2819.03) rotate(-90)" style="fill:#7d97f4; stroke-width:0px;"/><rect x="1166.48" y="1639.76" width="44.14" height="129.64" transform="translate(-516.08 2893.05) rotate(-90)" style="fill:#7d97f4; stroke-width:0px;"/><rect x="1166.48" y="1715.63" width="44.14" height="129.64" transform="translate(-591.95 2968.92) rotate(-90)" style="fill:#7d97f4; stroke-width:0px;"/><rect x="1166.48" y="1788.39" width="44.14" height="129.64" transform="translate(-664.72 3041.68) rotate(-90)" style="fill:#7d97f4; stroke-width:0px;"/><rect x="1173.06" y="1860.94" width="44.14" height="129.64" transform="translate(-730.68 3120.8) rotate(-90)" style="fill:#7d97f4; stroke-width:0px;"/><rect x="1173.06" y="1936.81" width="44.14" height="129.64" transform="translate(-806.55 3196.67) rotate(-90)" style="fill:#7d97f4; stroke-width:0px;"/><rect x="1173.06" y="2009.58" width="44.14" height="129.64" transform="translate(-879.32 3269.43) rotate(-90)" style="fill:#7d97f4; stroke-width:0px;"/><rect x="1173.06" y="2083.81" width="44.14" height="129.64" transform="translate(-953.55 3343.66) rotate(-90)" style="fill:#7d97f4; stroke-width:0px;"/><rect x="1173.06" y="2159.68" width="44.14" height="129.64" transform="translate(-1029.42 3419.53) rotate(-90)" style="fill:#7d97f4; stroke-width:0px;"/><rect x="1166.48" y="1345.16" width="44.14" height="129.64" transform="translate(-221.49 2598.47) rotate(-90)" style="fill:#7d97f4; stroke-width:0px;"/><rect x="1166.48" y="1271.46" width="44.14" height="129.64" transform="translate(-147.78 2524.77) rotate(-90)" style="fill:#7d97f4; stroke-width:0px;"/><rect x="1166.48" y="1197.65" width="44.14" height="129.64" transform="translate(-73.97 2450.97) rotate(-90)" style="fill:#7d97f4; stroke-width:0px;"/><rect x="1166.48" y="1123.89" width="44.14" height="129.64" transform="translate(-.22 2377.22) rotate(-90)" style="fill:#7d97f4; stroke-width:0px;"/><path d="M1302.59,1166.63v44.14s621.7.02,621.7.02c0-24.38-20.03-44.15-44.74-44.15l-576.96-.02Z" style="fill:#7d97f4; stroke-width:0px;"/><rect x="1837.34" y="1913.93" width="44.14" height="626.94" transform="translate(-368.08 4086.7) rotate(-90)" style="fill:#7d97f4; stroke-width:0px;"/><rect x="1831.64" y="1843.62" width="44.14" height="615.55" transform="translate(-297.77 4005.01) rotate(-90)" style="fill:#7d97f4; stroke-width:0px;"/><path d="M1545.94,2056.74v44.14s391.45.02,391.45.02c0-24.38-12.61-44.15-28.17-44.15h-363.28Z" style="fill:#7d97f4; stroke-width:0px;"/><rect x="1058.3" y="1136.38" width="12.67" height="1142.73" rx="5.98" ry="5.98" style="fill:#7d97f4; stroke-width:0px;"/><path d="M1000.71,492c-4.08-.1-7.37-3.44-7.45-7.57-.76-42.4-13.82-252.91-196.94-296.9-203.87-48.98-297.16,160.92-297.16,160.92,0,0-252.24-97.95-300.61,164.42C40.39,551.3-.7,760.42,102.17,862.6c16.34,16.24,38.25,25.41,61.15,25.62l990.49,9.03c29.07.27,54.85-19,63.11-47.22,30.94-105.73,71.49-351.21-216.21-358.03Z" style="fill:#91b3fa; stroke-width:0px;"/><path d="M978.07,496.5c-4.08-.1-7.36-3.43-7.44-7.56-.81-40.66-13.75-235.86-186.21-276.78-192.77-45.74-280.98,150.27-280.98,150.27,0,0-238.51-91.47-284.25,153.54-148.12,35.54-187.65,227.44-93.9,323.82,16.44,16.9,38.82,26.5,62.24,26.71l932.41,8.4c29.14.26,54.95-19.09,63.15-47.4,29.08-100.4,63.59-324.5-205.02-331.01Z" style="fill:#bdd0fb; stroke-width:0px;"/><path d="M50.89,2277.09c-8.46,12.52-42.08,295.96-47.35,400.64-.36,7.08,5.31,12.98,12.4,12.98h0c6.11,0,11.31-4.45,12.26-10.49l61.5-394.11-38.81-9.02Z" style="fill:#7d97f4; stroke-width:0px;"/><path d="M321.23,2277.09c8.46,12.52,42.08,295.96,47.35,400.64.36,7.08-5.31,12.98-12.39,12.98h0c-6.11,0-11.31-4.45-12.26-10.49l-61.5-394.11,38.81-9.02Z" style="fill:#7d97f4; stroke-width:0px;"/><path d="M.03,2254.97l-.03,3.09c-.2,22.24,18.95,40.48,42.94,40.88l284.27,4.84c23.64.4,43.35-16.68,44.49-38.57l.15-2.83c1.2-22.83-18.19-42.07-42.85-42.51l-284.39-5.1c-24.34-.44-44.38,17.63-44.59,40.2Z" style="fill:#7d97f4; stroke-width:0px;"/><path d="M553.05,2667.44c-50.53,0-72.89-4.34-82.89-8.29,1.94,8.3,9.33,14.85,18.67,14.85h178.77c6.02,0,9.82-5.76,8.38-10.98-20.38,1.64-63.66,4.42-122.94,4.42Z" style="fill:url(#uuid-bcf131e7-33f5-4026-a8a2-37e9c919de7b); stroke-width:0px;"/><path d="M675.99,2663.02c-.29-1.05-.72-2.09-1.46-3.04-13.62-17.39-40.97-44.69-78.18-44.17-54.51.77-73.52,6.68-115.88.33l-9.99,33.13c-1.02,3.38-1.04,6.75-.3,9.88,10,3.95,32.36,8.29,82.89,8.29,59.28,0,102.56-2.78,122.94-4.42Z" style="fill:url(#uuid-1e5cdcb4-d9d6-4ce8-aed5-6bff1178dbcc); stroke-width:0px;"/><path d="M492.72,2580.45l-12.27,41.72s27.18,12.37,51.08,2.44l4.69-36.15-43.51-8.01Z" style="fill:url(#uuid-6ead19da-1bc1-41c2-99b1-c620519b090d); stroke-width:0px;"/><path d="M863.25,2641.16c-39.39,31.65-59.52,42.29-69.78,45.49,6.69,5.22,16.53,5.67,23.81-.18l139.36-111.97c4.69-3.77,4.06-10.62-.31-13.77-14.86,14.03-46.87,43.3-93.08,80.43Z" style="fill:url(#uuid-73d1554f-47cd-4306-b861-4b769c3288c7); stroke-width:0px;"/><path d="M956.33,2560.73c-.88-.63-1.86-1.17-3.04-1.44-21.45-4.96-59.8-9.01-88.48,14.7-42.02,34.74-53.15,51.23-90.13,72.84l12.86,31.96c1.31,3.26,3.4,5.88,5.92,7.86,10.26-3.19,30.39-13.84,69.78-45.49,46.21-37.13,78.22-66.4,93.08-80.43Z" style="fill:url(#uuid-0b444b29-175b-4085-980f-3c6d34373b85); stroke-width:0px;"/><path d="M230.31,2105.11s302.54,24.7,364.6,53.92c62.06,29.22-50.65,438.7-50.65,438.7,0,0-16.9,8.13-54.49-3.56,0,0,38.55-302.18,9.86-367.71l-327.57-53.58,58.24-67.78Z" style="fill:url(#uuid-7275d8b8-ea2b-444a-8068-8ce8a1d15236); stroke-width:0px;"/><path d="M744.62,2589.31c2.81,2.56,30.06,57.52,30.06,57.52,0,0,30.34-6.56,36.52-25.76l-27.3-49.61-39.29,17.85Z" style="fill:url(#uuid-898f7f4b-cae4-42a6-9c42-dd532da30dbd); stroke-width:0px;"/><path d="M48.09,2102.58s-9.86,23.72-9.46,55.25c.56,43.6,35.61,78.98,79.16,81.15l357.65,16.31c7.55.34,13.94,5.57,15.84,12.89,8.4,32.51,49.48,132.34,250.29,331.54,5.34,5.3,13.67,6.2,20.03,2.18l28.59-18.06c3-1.9,3.96-5.83,2.16-8.89l-208.24-355.61c-10.94-18.05-28.52-31.09-48.97-36.32l-304.83-77.92-182.22-2.53Z" style="fill:url(#uuid-74e51612-6cd9-4b2b-baf7-98fdfdc47719); stroke-width:0px;"/><path d="M400.55,1547.09s-38.31,67.74-77.38,100.56l80.74,45.05s18.19-71.71,59.76-92.71l-63.12-52.89Z" style="fill:url(#uuid-b0216402-3bdd-436e-ae85-6360845421b1); stroke-width:0px;"/><path d="M41.59,2105.11s96.55,23.53,188.71,0c0,0,128.96-173.36,178.85-220.54,0,0,79.58,125.58,256.71,143.37l9.88-22.07s-141.02-65.01-184.43-164.89c-43.41-99.88-60.85-142.48-100.34-168.54-24.6-16.23-39.33-27.32-46.94-33.37-4.17-3.31-9.92-3.69-14.47-.92-41.91,25.54-239.14,160.62-287.98,466.96Z" style="fill:url(#uuid-d376345b-31ea-437e-9215-444d7f7d1a18); stroke-width:0px;"/><path d="M356.2,1791.34s17.16,44.75,47.72,84.59l-47.72-84.59Z" style="fill:url(#uuid-191a1802-8b9f-4021-9164-273f0d94ab8b); stroke-width:0px;"/><path d="M655.22,1994.34l19.94-5.31,60.54-14.02c7.29-1.69,14.95-.4,21.28,3.59l52.05,32.75-143.74-.24-10.06-16.76Z" style="fill:url(#uuid-c2701a3c-4fe0-4d1b-b200-355a45c59c85); stroke-width:0px;"/><path d="M461.39,1445.51s37.23,61.9,43.69,96.11c6.46,34.21,16.83,55.59-22.1,67.78-38.93,12.19-75.12-3.24-97.83-35.17,0,0-35.46-49.14-31.93-71.65,3.54-22.51,108.16-57.07,108.16-57.07Z" style="fill:url(#uuid-d0aeacde-ace5-44a7-907c-d22f05782578); stroke-width:0px;"/><path d="M395.52,1547.76l5.04-.66s-26.37-39.84-9.11-49.72c17.25-9.88,87.55-34.13,99.76-61.82,11.77-26.69-5.84-56.85-27.06-63.14-1.34-.4-2.76.4-3.25,1.71l-1.25,3.36c-.85,2.3-4.08,2.39-5.06.15h0c-.93-2.13-3.99-2.22-4.95-.1-3.76,8.29-15.04,22.46-48.85,33.42-47.97,15.55-77.86,39.73-74.18,73.82.23,2.16-1.91,3.65-3.9,2.77-3.92-1.73-9.87-2.01-16.77,5.54-12,13.13-2.6,41.85,30.19,62.17,1.56.97,1.84,3.16.44,4.36-4.91,4.2-11.81,13.56,10.38,21.91,22.69,8.54,35.08,5.65,39.65,3.82,1.23-.49,1.93-1.77,1.68-3.07l-5.83-29.87c-.3-1.54.76-3.02,2.32-3.23l10.74-1.41Z" style="fill:url(#uuid-d0fa2e59-f454-40d6-a763-e20673cf5317); stroke-width:0px;"/><path d="M397.59,1553.89s-16.43-40.51-33.69-26.27c-17.26,14.24,15.95,45.71,31.28,45.29l2.41-19.02Z" style="fill:url(#uuid-be8cb763-357c-41e2-94ff-7b4492dffb99); stroke-width:0px;"/><path d="M599.69,2039.54c.23.01.47.02.71.02l307.08-.31c7.59,0,13.74-6.15,13.73-13.73,0-7.58-6.19-13.84-13.76-13.71l-307.08.31c-7.59,0-13.74,6.15-13.73,13.73,0,7.34,5.79,13.33,13.06,13.69Z" style="fill:url(#uuid-d7a35878-a1b8-4a8b-891c-38af575f0d41); stroke-width:0px;"/><path d="M1026.39,1738.81c-.11.21-.21.42-.31.63l-129.21,278.57c-3.2,6.89-.21,15.05,6.66,18.24,6.88,3.19,15.16.22,18.23-6.7l129.21-278.57c3.2-6.89.21-15.05-6.66-18.24-6.66-3.09-14.53-.37-17.92,6.07Z" style="fill:url(#uuid-12e91f82-70fe-4f48-bf26-f91b2a46d705); stroke-width:0px;"/><path d="M736.42,2062.62c-1.34,5.56-129.47,486.11-161.96,607.94-3.74,14.04,6.71,27.83,21.08,27.83h0c10.02,0,18.75-6.9,21.18-16.74l142.23-576.68-22.54-42.34Z" style="fill:#bdd0fb; stroke-width:0px;"/><path d="M806.58,2062.62c1.34,5.56,129.47,486.11,161.96,607.94,3.74,14.04-6.71,27.83-21.08,27.83h0c-10.02,0-18.75-6.9-21.18-16.74l-142.23-576.68,22.54-42.34Z" style="fill:#bdd0fb; stroke-width:0px;"/><path d="M811.92,2046.91h-79.8v64.09c0,9.21,7.38,16.68,16.48,16.68h10.95v143.95c0,6.97,5.59,12.63,12.48,12.63h0c6.89,0,12.47-5.65,12.47-12.63v-143.95h5.56c12.08,0,21.87-9.91,21.87-22.13v-58.63Z" style="fill:#bdd0fb; stroke-width:0px;"/><path d="M535.91,2031.51h445.58c6.23,0,11.67,4.26,13.22,10.37l6.22,24.39c2.24,8.78-4.34,17.33-13.3,17.27l-457.21-2.66c-8.86-.05-15.33-8.5-13.16-17.2l5.41-21.73c1.53-6.14,6.99-10.44,13.24-10.44Z" style="fill:#bdd0fb; stroke-width:0px;"/></svg>