<?xml version="1.0" encoding="UTF-8"?><svg xmlns="http://www.w3.org/2000/svg" xmlns:xlink="http://www.w3.org/1999/xlink" viewBox="0 0 2791.13 2767.09"><defs><linearGradient id="uuid-f533dae1-67f4-4eb5-a7a8-e3409a4de229" x1="814.23" y1="1774.52" x2="3226.4" y2="177.85" gradientUnits="userSpaceOnUse"><stop offset="0" stop-color="#09005d"/><stop offset="1" stop-color="#1a0f91"/></linearGradient><linearGradient id="uuid-f54ec94c-48d6-412d-8347-aca8b2641254" x1="1399.34" y1="1232" x2="1399.34" y2="1830.17" gradientTransform="translate(2798.68 4453.39) rotate(-180)" xlink:href="#uuid-f533dae1-67f4-4eb5-a7a8-e3409a4de229"/><linearGradient id="uuid-5ccba8f7-d646-43e3-9be8-f3a33cc5ed2d" x1="2264.56" y1="1190.78" x2="2150.62" y2="1981.68" gradientUnits="userSpaceOnUse"><stop offset="0" stop-color="#ff928e"/><stop offset="1" stop-color="#fe7062"/></linearGradient><linearGradient id="uuid-74e5969d-09d5-4375-86b9-97c4bd38d9bc" x1="1415.88" y1="246.81" x2="1898.43" y2="246.81" gradientUnits="userSpaceOnUse"><stop offset="0" stop-color="#4f52ff"/><stop offset="1" stop-color="#4042e2"/></linearGradient><linearGradient id="uuid-637a665a-3951-4e3e-9af5-cbc95367c197" x1="1540.96" y1="238.23" x2="1609.78" y2="238.23" gradientUnits="userSpaceOnUse"><stop offset="0" stop-color="#dae3fe"/><stop offset="1" stop-color="#e9effd"/></linearGradient><linearGradient id="uuid-a3c3b9e8-05ce-4ab4-a486-285a6656114c" x1="1647.28" y1="233.81" x2="1772" y2="233.81" xlink:href="#uuid-637a665a-3951-4e3e-9af5-cbc95367c197"/><linearGradient id="uuid-9becfeb6-fe47-4666-a89c-83a24d07d668" x1="2234.38" y1="61.39" x2="2066.82" y2="1039.95" xlink:href="#uuid-5ccba8f7-d646-43e3-9be8-f3a33cc5ed2d"/><linearGradient id="uuid-8b36b839-d64c-4b13-8e2d-7adcb8b50505" x1="2133.57" y1="946.36" x2="2587.26" y2="946.36" gradientTransform="translate(1360.53 -1391.88) rotate(45)" xlink:href="#uuid-74e5969d-09d5-4375-86b9-97c4bd38d9bc"/><linearGradient id="uuid-55f27a15-d5c8-4034-9556-2adc9167fe1b" x1="2207.14" y1="944.29" x2="2294.82" y2="944.29" xlink:href="#uuid-637a665a-3951-4e3e-9af5-cbc95367c197"/><linearGradient id="uuid-8ba9def0-9087-468f-9780-b1a162a9b3fe" x1="2316.89" y1="946.59" x2="2397.44" y2="946.59" xlink:href="#uuid-637a665a-3951-4e3e-9af5-cbc95367c197"/><linearGradient id="uuid-64b28ad4-89ec-44e0-a005-c99d832d2204" x1="2421.7" y1="949.24" x2="2508.03" y2="949.24" xlink:href="#uuid-637a665a-3951-4e3e-9af5-cbc95367c197"/><linearGradient id="uuid-5cbcbc10-2a45-49b5-9d2d-d4e82af77a6a" x1="967.73" y1="1141.49" x2="1410.07" y2="216.6" gradientUnits="userSpaceOnUse"><stop offset="0" stop-color="#e1473d"/><stop offset="1" stop-color="#e9605a"/></linearGradient><linearGradient id="uuid-d42253da-b705-439c-86e5-2ec58cca154f" x1="471.53" y1="2681.75" x2="723.75" y2="2681.75" gradientTransform="translate(646.41)" xlink:href="#uuid-74e5969d-09d5-4375-86b9-97c4bd38d9bc"/><linearGradient id="uuid-48574101-2820-46b2-b482-41dc8983dbae" x1="471.51" y1="2632.32" x2="716.62" y2="2632.32" gradientTransform="translate(646.41)" xlink:href="#uuid-f533dae1-67f4-4eb5-a7a8-e3409a4de229"/><linearGradient id="uuid-da32b5ef-a89f-47b1-9a3a-850ad2f9096c" x1="494.81" y1="2563.31" x2="565.86" y2="2563.31" gradientTransform="translate(646.41)" gradientUnits="userSpaceOnUse"><stop offset="0" stop-color="#febbba"/><stop offset="1" stop-color="#ff928e"/></linearGradient><linearGradient id="uuid-166fbe1d-0e10-41de-97a0-646679bc18e2" x1="21.35" y1="2744.3" x2="118.01" y2="2744.3" gradientTransform="translate(646.41)" xlink:href="#uuid-74e5969d-09d5-4375-86b9-97c4bd38d9bc"/><linearGradient id="uuid-a959f84d-da88-421d-9396-457af9647d8f" x1="22.06" y1="2648.11" x2="163.93" y2="2648.11" gradientTransform="translate(646.41)" xlink:href="#uuid-f533dae1-67f4-4eb5-a7a8-e3409a4de229"/><linearGradient id="uuid-6a48948a-d0c7-41e5-a868-e52b308a8d40" x1="95.8" y1="2526.26" x2="180.7" y2="2526.26" xlink:href="#uuid-da32b5ef-a89f-47b1-9a3a-850ad2f9096c"/><linearGradient id="uuid-a38d7ea8-b810-4dd0-a65e-fb57ddb05291" x1="782.56" y1="1610.03" x2="57.66" y2="2797.48" gradientTransform="translate(646.41)" xlink:href="#uuid-74e5969d-09d5-4375-86b9-97c4bd38d9bc"/><linearGradient id="uuid-af02fc19-ed69-40a0-8eb5-3eeb6dd242a0" x1="1347.93" y1="559.71" x2="1297.67" y2="1092.53" xlink:href="#uuid-74e5969d-09d5-4375-86b9-97c4bd38d9bc"/><linearGradient id="uuid-e05e21a1-a126-450c-aa63-df9c78af6b5e" x1="1244.61" y1="1040.9" x2="907.83" y2="1809.97" gradientUnits="userSpaceOnUse"><stop offset="0" stop-color="#fe7062"/><stop offset="1" stop-color="#ff928e"/></linearGradient><linearGradient id="uuid-44b99286-e77e-43d0-a7aa-c62f77192b4e" x1="514.09" y1="1020.57" x2="550.88" y2="827.43" xlink:href="#uuid-da32b5ef-a89f-47b1-9a3a-850ad2f9096c"/><linearGradient id="uuid-2c3dc0f6-0434-4850-848c-336cd735a704" x1="613.63" y1="666.22" x2="403.73" y2="826.82" xlink:href="#uuid-da32b5ef-a89f-47b1-9a3a-850ad2f9096c"/><linearGradient id="uuid-dfd890ac-914b-4ebf-a334-ee197871e185" x1="465.87" y1="539.05" x2="661.36" y2="790.75" gradientTransform="translate(646.41)" xlink:href="#uuid-f533dae1-67f4-4eb5-a7a8-e3409a4de229"/><linearGradient id="uuid-bd20b69b-3f84-43c8-98f1-2283c46a31aa" x1="587.6" y1="632.19" x2="377.7" y2="792.8" xlink:href="#uuid-da32b5ef-a89f-47b1-9a3a-850ad2f9096c"/><linearGradient id="uuid-b29dd6b4-7255-483b-b95e-4c33066f916c" x1="747.76" y1="716.79" x2="973.96" y2="3.01" xlink:href="#uuid-da32b5ef-a89f-47b1-9a3a-850ad2f9096c"/><linearGradient id="uuid-8f851ffb-24f6-4702-bd09-5476ed64d2b7" x1="-1004.09" y1="-11106.99" x2="-777.89" y2="-11820.77" gradientTransform="translate(-3753.22) rotate(-180) scale(1 -1)" xlink:href="#uuid-da32b5ef-a89f-47b1-9a3a-850ad2f9096c"/><linearGradient id="uuid-2c4ba5bb-e23a-4c1d-a349-b094420cee9c" x1="729.94" y1="1550.76" x2="456.26" y2="1625.76" gradientTransform="translate(1937.89 -78.52) rotate(-177.17) scale(1 -1)" xlink:href="#uuid-f533dae1-67f4-4eb5-a7a8-e3409a4de229"/><linearGradient id="uuid-b14ca3e6-78b5-4f78-9897-0d64c49a9eb2" x1="415.97" y1="1259.68" x2="222.93" y2="1463.72" gradientTransform="translate(1919.33) rotate(-180) scale(1 -1)" xlink:href="#uuid-f533dae1-67f4-4eb5-a7a8-e3409a4de229"/><linearGradient id="uuid-7709e04b-4373-4b6f-8cbf-50bcab3b5076" x1="298.91" y1="1310.68" x2="211.65" y2="1442.08" gradientTransform="translate(1919.33) rotate(-180) scale(1 -1)" gradientUnits="userSpaceOnUse"><stop offset="0" stop-color="#53d8ff"/><stop offset="1" stop-color="#3840f7"/></linearGradient><linearGradient id="uuid-9f18c10d-9e81-40a6-92fa-0ca842967998" x1="1514.11" y1="1158.92" x2="1177.33" y2="1927.99" xlink:href="#uuid-e05e21a1-a126-450c-aa63-df9c78af6b5e"/><linearGradient id="uuid-7ca8a3fc-38c7-43b4-a0c9-d81aefa0172d" x1="7452.08" y1="-3030.8" x2="7753.68" y2="-3166.52" gradientTransform="translate(3070.27 386.03) rotate(6.16)" xlink:href="#uuid-da32b5ef-a89f-47b1-9a3a-850ad2f9096c"/><linearGradient id="uuid-f9f9a475-1933-4143-84b4-d7b0b22d7d42" x1="7459.68" y1="-3015.01" x2="7761.29" y2="-3150.73" gradientTransform="translate(3070.27 386.03) rotate(6.16)" xlink:href="#uuid-da32b5ef-a89f-47b1-9a3a-850ad2f9096c"/><linearGradient id="uuid-43b71231-48ed-4425-981d-b0e9e5d879ef" x1="1381.65" y1="1014.59" x2="1421.93" y2="1014.59" xlink:href="#uuid-5cbcbc10-2a45-49b5-9d2d-d4e82af77a6a"/></defs><g style="isolation:isolate;"><g id="uuid-752f98e3-98c1-4d1c-8d19-73fa3fe18ba0"><path d="M513.12,1524.76s-129.96-280.09-32.58-412.6c97.38-132.51,324.62-287.78,156.97-698.22C539.36,173.64,499.96,67.06,484.16,19.98c-6.16-18.36-28.11-25.8-44.13-14.91C326.69,82.08-32.7,352.43,2.4,662.78c41.61,367.93,510.72,861.97,510.72,861.97Z" style="fill:#91b3fa; stroke-width:0px;"/><path d="M393.78,159.71c-82.9,179.87-146.47,462.01-136.87,712.29,4.63,39.92,5.91,128.55,50.28,267.68,36.2,116.39,93.36,231.15,141.94,302.44,3.07,4.51,9.21,5.67,13.72,2.6,7.75-5.28,2.67-13.88,2.72-13.56-74.65-125.43-139.6-293.73-165.92-459.64-30.4-204.55,2.31-429.94,50.52-630.02l5.25-19.92c38.86-151.56,57.05-160.48,45.37-164.78-2.76-1.02-5.81.29-7.03,2.91Z" style="fill:#fff; mix-blend-mode:soft-light; stroke-width:0px;"/><path d="M620.66,1622.12c-16.05,15.57,3.5-323.19-62.31-738.27-31.01-195.6-7.9-406.33,68.83-530.61,63.86-103.43,379.28-153.87,483.3-167.88,13-1.75,22.17,12.4,15.23,23.53-34.22,54.86-104.6,180.9-100.26,283.44,5.72,135.15-86.44,252.28-184.95,307.92-98.52,55.64-150.44,95.42-146.95,280.78,3.49,185.36-27.29,496.84-72.89,541.09Z" style="fill:#bdd0fb; stroke-width:0px;"/><path d="M989.42,282.63c-123.56,46-239.43,146.89-272.79,276.28l-3.11,12.32c-7.07,28.82-35.91,226.74-36.75,383.3,0,1.95,1.56,3.54,3.52,3.55,3.31.02,3.74-3.76,3.55-3.38,6.65-90.45,20.57-206.92,33.26-294.75,13.14-95.62,22.95-160.67,96.79-243.95,82.82-90.76,177.95-128.27,177.68-128.12,1.43-.63,2.08-2.31,1.45-3.74-.61-1.38-2.19-2.03-3.58-1.51Z" style="fill:#fff; mix-blend-mode:soft-light; stroke-width:0px;"/><path d="M134.03,2126.35c0,24.91,20.4,45.29,45.33,45.29h2451.45c24.93,0,45.33-20.38,45.33-45.29l20.4-1408.78c0-24.91-29.35-73.54-83.13-69.88l-2395.83-61.99c-31.28-.81-61.53,11.23-83.69,33.31-22.15,22.08-34.28,52.27-33.54,83.53l33.67,1423.82Z" style="fill:url(#uuid-f533dae1-67f4-4eb5-a7a8-e3409a4de229); stroke-width:0px;"/><path d="M178.79,2082.9c0,23.59,19.3,42.89,42.89,42.89h2350.02c23.59,0,42.89-19.3,42.89-42.89l19.25-1278.9c-2.27-76.96-69.74-104.62-110.64-102.99l-2296.18-61.6c-21.98-.59-43.23,7.88-58.79,23.4-15.57,15.53-24.13,36.78-23.58,58.76l34.15,1361.34Z" style="fill:#7d97f4; stroke-width:0px;"/><rect x="7.55" y="2164.81" width="2783.57" height="123.78" rx="5.65" ry="5.65" transform="translate(2798.68 4453.39) rotate(180)" style="fill:url(#uuid-f54ec94c-48d6-412d-8347-aca8b2641254); stroke-width:0px;"/><path d="M952.73,833.99l-623.47-4.37c-4.57-.03-8.26-3.77-8.22-8.34l.28-39.88c.03-4.57,3.77-8.26,8.34-8.22l623.47,4.37c4.57.03,8.26,3.77,8.22,8.34l-.28,39.88c-.03,4.57-3.77,8.26-8.34,8.22Z" style="fill:#bdd0fb; opacity:.53; stroke-width:0px;"/><path d="M1353.69,838.02l-208.69-1.46c-4.39-.03-7.92-3.61-7.89-8l.28-40.55c.03-4.39,3.61-7.92,8-7.89l208.69,1.46c4.39.03,7.92,3.61,7.89,8l-.28,40.55c-.03,4.39-3.61,7.92-8,7.89Z" style="fill:#bdd0fb; opacity:.53; stroke-width:0px;"/><path d="M1838.82,841.42l-418.27-2.93c-6.98-.05-12.59-5.74-12.54-12.72l.22-31.17c.05-6.98,5.74-12.59,12.72-12.54l418.27,2.93c6.98.05,12.59,5.74,12.54,12.72l-.22,31.17c-.05,6.98-5.74,12.59-12.72,12.54Z" style="fill:#bdd0fb; opacity:.53; stroke-width:0px;"/><rect x="377.08" y="815.33" width="56.44" height="171.58" rx="12.63" ry="12.63" transform="translate(-498.64 1300.1) rotate(-89.6)" style="fill:#bdd0fb; opacity:.53; stroke-width:0px;"/><path d="M953.3,933.28l-448.91-3.14c-4.57-.03-8.26-3.77-8.22-8.34l.28-39.88c.03-4.57,3.77-8.26,8.34-8.22l448.91,3.14c4.57.03,8.26,3.77,8.22,8.34l-.28,39.88c-.03,4.57-3.77,8.26-8.34,8.22Z" style="fill:#bdd0fb; opacity:.53; stroke-width:0px;"/><path d="M1354.8,937.32l-208.69-1.46c-4.39-.03-7.92-3.61-7.89-8l.28-40.55c.03-4.39,3.61-7.92,8-7.89l208.69,1.46c4.39.03,7.92,3.61,7.89,8l-.28,40.55c-.03,4.39-3.61,7.92-8,7.89Z" style="fill:#bdd0fb; opacity:.53; stroke-width:0px;"/><path d="M2201.25,943.25l-624.49-4.37c-6.98-.05-12.59-5.74-12.54-12.72l.22-31.17c.05-6.98,5.74-12.59,12.72-12.54l624.49,4.37c6.98.05,12.59,5.74,12.54,12.72l-.22,31.17c-.05,6.98-5.74,12.59-12.72,12.54Z" style="fill:#bdd0fb; opacity:.53; stroke-width:0px;"/><rect x="376.26" y="914.48" width="56.44" height="171.58" rx="12.63" ry="12.63" transform="translate(-598.59 1397.73) rotate(-89.6)" style="fill:#bdd0fb; opacity:.53; stroke-width:0px;"/><path d="M952.38,1032.43l-448.91-3.14c-4.57-.03-8.26-3.77-8.22-8.34l.28-39.88c.03-4.57,3.77-8.26,8.34-8.22l448.91,3.14c4.57.03,8.26,3.77,8.22,8.34l-.28,39.88c-.03,4.57-3.77,8.26-8.34,8.22Z" style="fill:#bdd0fb; opacity:.53; stroke-width:0px;"/><path d="M1353.95,1036.46l-208.69-1.46c-4.39-.03-7.92-3.61-7.89-8l.28-40.55c.03-4.39,3.61-7.92,8-7.89l208.69,1.46c4.39.03,7.92,3.61,7.89,8l-.28,40.55c-.03,4.39-3.61,7.92-8,7.89Z" style="fill:#bdd0fb; opacity:.53; stroke-width:0px;"/><path d="M2476.99,1044.33l-821.41-5.75c-6.98-.05-12.59-5.74-12.54-12.72l.22-31.17c.05-6.98,5.74-12.59,12.72-12.54l821.41,5.75c6.98.05,12.59,5.74,12.54,12.72l-.22,31.17c-.05,6.98-5.74,12.59-12.72,12.54Z" style="fill:#bdd0fb; opacity:.53; stroke-width:0px;"/><rect x="376.94" y="1013.77" width="56.44" height="171.58" rx="12.63" ry="12.63" transform="translate(-697.21 1497.02) rotate(-89.6)" style="fill:#bdd0fb; opacity:.53; stroke-width:0px;"/><path d="M954.13,1131.73l-448.91-3.14c-4.57-.03-8.26-3.77-8.22-8.34l.28-39.88c.03-4.57,3.77-8.26,8.34-8.22l448.91,3.14c4.57.03,8.26,3.77,8.22,8.34l-.28,39.88c-.03,4.57-3.77,8.26-8.34,8.22Z" style="fill:#bdd0fb; opacity:.53; stroke-width:0px;"/><path d="M1355.06,1135.76l-208.69-1.46c-4.39-.03-7.92-3.61-7.89-8l.28-40.55c.03-4.39,3.61-7.92,8-7.89l208.69,1.46c4.39.03,7.92,3.61,7.89,8l-.28,40.55c-.03,4.39-3.61,7.92-8,7.89Z" style="fill:#bdd0fb; opacity:.53; stroke-width:0px;"/><path d="M2480.74,1143.65l-821.41-5.75c-6.98-.05-12.59-5.74-12.54-12.72l.22-31.17c.05-6.98,5.74-12.59,12.72-12.54l821.41,5.75c6.98.05,12.59,5.74,12.54,12.72l-.22,31.17c-.05,6.98-5.74,12.59-12.72,12.54Z" style="fill:#bdd0fb; opacity:.53; stroke-width:0px;"/><rect x="375.7" y="1116.79" width="56.44" height="171.58" rx="12.63" ry="12.63" transform="translate(-801.46 1598.07) rotate(-89.6)" style="fill:#bdd0fb; opacity:.53; stroke-width:0px;"/><path d="M952.49,1234.75l-448.91-3.14c-4.57-.03-8.25-3.77-8.22-8.34l.28-39.88c.03-4.57,3.77-8.26,8.34-8.22l448.91,3.14c4.57.03,8.26,3.77,8.22,8.34l-.28,39.88c-.03,4.57-3.77,8.26-8.34,8.22Z" style="fill:#bdd0fb; opacity:.53; stroke-width:0px;"/><path d="M1353.65,1238.78l-208.69-1.46c-4.39-.03-7.92-3.61-7.89-8l.28-40.55c.03-4.39,3.61-7.92,8-7.89l208.69,1.46c4.39.03,7.92,3.61,7.89,8l-.28,40.55c-.03,4.39-3.61,7.92-8,7.89Z" style="fill:#bdd0fb; opacity:.53; stroke-width:0px;"/><path d="M2478.34,1246.66l-821.41-5.75c-6.98-.05-12.59-5.74-12.54-12.72l.22-31.17c.05-6.98,5.74-12.59,12.72-12.54l821.41,5.75c6.98.05,12.59,5.74,12.54,12.72l-.22,31.17c-.05,6.98-5.74,12.59-12.72,12.54Z" style="fill:#bdd0fb; opacity:.53; stroke-width:0px;"/><rect x="376.39" y="1216.09" width="56.44" height="171.58" rx="12.63" ry="12.63" transform="translate(-900.08 1697.36) rotate(-89.6)" style="fill:#bdd0fb; opacity:.53; stroke-width:0px;"/><path d="M954.24,1334.05l-448.91-3.14c-4.57-.03-8.25-3.77-8.22-8.34l.28-39.88c.03-4.57,3.77-8.25,8.34-8.22l448.91,3.14c4.57.03,8.26,3.77,8.22,8.34l-.28,39.88c-.03,4.57-3.77,8.26-8.34,8.22Z" style="fill:#bdd0fb; opacity:.53; stroke-width:0px;"/><path d="M1354.76,1338.08l-208.69-1.46c-4.39-.03-7.92-3.61-7.89-8l.28-40.55c.03-4.39,3.61-7.92,8-7.89l208.69,1.46c4.39.03,7.92,3.61,7.89,8l-.28,40.55c-.03,4.39-3.61,7.92-8,7.89Z" style="fill:#bdd0fb; opacity:.53; stroke-width:0px;"/><path d="M1910.52,1341.97l-493.47-3.46c-6.98-.05-12.59-5.74-12.54-12.72l.22-31.17c.05-6.98,5.74-12.59,12.72-12.54l493.47,3.46c6.98.05,12.59,5.74,12.54,12.72l-.22,31.17c-.05,6.98-5.74,12.59-12.72,12.54Z" style="fill:#bdd0fb; opacity:.53; stroke-width:0px;"/><path d="M953.67,1433.2l-626.96-4.39c-4.57-.03-8.26-3.77-8.22-8.34l.28-39.88c.03-4.57,3.77-8.26,8.34-8.22l626.96,4.39c4.57.03,8.26,3.77,8.22,8.34l-.28,39.88c-.03,4.57-3.77,8.26-8.34,8.22Z" style="fill:#bdd0fb; opacity:.53; stroke-width:0px;"/><path d="M1353.9,1437.22l-208.69-1.46c-4.39-.03-7.92-3.61-7.89-8l.28-40.55c.03-4.39,3.61-7.92,8-7.89l208.69,1.46c4.39.03,7.92,3.61,7.89,8l-.28,40.55c-.03,4.39-3.61,7.92-8,7.89Z" style="fill:#bdd0fb; opacity:.53; stroke-width:0px;"/><path d="M2154.72,1442.83l-621.45-4.35c-6.98-.05-12.59-5.74-12.54-12.72l.22-31.17c.05-6.98,5.74-12.59,12.72-12.54l621.45,4.35c6.98.05,12.59,5.74,12.54,12.72l-.22,31.17c-.05,6.98-5.74,12.59-12.72,12.54Z" style="fill:#bdd0fb; opacity:.53; stroke-width:0px;"/><rect x="373.22" y="1417.94" width="56.44" height="164.72" rx="12.63" ry="12.63" transform="translate(-1101.63 1891.22) rotate(-89.6)" style="fill:#bdd0fb; opacity:.53; stroke-width:0px;"/><path d="M955.08,1532.5l-448.91-3.14c-4.57-.03-8.26-3.77-8.22-8.34l.28-39.88c.03-4.57,3.77-8.26,8.34-8.22l448.91,3.14c4.57.03,8.26,3.77,8.22,8.34l-.28,39.88c-.03,4.57-3.77,8.26-8.34,8.22Z" style="fill:#bdd0fb; opacity:.53; stroke-width:0px;"/><path d="M1355.01,1536.52l-208.69-1.46c-4.39-.03-7.92-3.61-7.89-8l.28-40.55c.03-4.39,3.61-7.92,8-7.89l208.69,1.46c4.39.03,7.92,3.61,7.89,8l-.28,40.55c-.03,4.39-3.61,7.92-8,7.89Z" style="fill:#bdd0fb; opacity:.53; stroke-width:0px;"/><path d="M2481.84,1544.42l-850.17-5.95c-6.98-.05-12.59-5.74-12.54-12.72l.22-31.17c.05-6.98,5.74-12.59,12.72-12.54l850.17,5.95c6.98.05,12.59,5.74,12.54,12.72l-.22,31.17c-.05,6.98-5.74,12.59-12.72,12.54Z" style="fill:#bdd0fb; opacity:.53; stroke-width:0px;"/><rect x="370.62" y="1710.8" width="56.44" height="171.58" rx="12.63" ry="12.63" transform="translate(-1400.5 2182.83) rotate(-89.6)" style="fill:#bdd0fb; opacity:.53; stroke-width:0px;"/><path d="M948.7,1828.76l-448.91-3.14c-4.57-.03-8.26-3.77-8.22-8.34l.28-39.88c.03-4.57,3.77-8.26,8.34-8.22l448.91,3.14c4.57.03,8.26,3.77,8.22,8.34l-.28,39.88c-.03,4.57-3.77,8.26-8.34,8.22Z" style="fill:#bdd0fb; opacity:.53; stroke-width:0px;"/><path d="M1348.99,1832.79l-208.69-1.46c-4.39-.03-7.92-3.61-7.89-8l.28-40.55c.03-4.39,3.61-7.92,8-7.89l208.69,1.46c4.39.03,7.92,3.61,7.89,8l-.28,40.55c-.03,4.39-3.61,7.92-8,7.89Z" style="fill:#bdd0fb; opacity:.53; stroke-width:0px;"/><path d="M1904.75,1836.68l-493.47-3.46c-6.98-.05-12.59-5.74-12.54-12.72l.22-31.17c.05-6.98,5.74-12.59,12.72-12.54l493.47,3.46c6.98.05,12.59,5.74,12.54,12.72l-.22,31.17c-.05,6.98-5.74,12.59-12.72,12.54Z" style="fill:#bdd0fb; opacity:.53; stroke-width:0px;"/><path d="M948.12,1927.91l-626.96-4.39c-4.57-.03-8.26-3.77-8.22-8.34l.28-39.88c.03-4.57,3.77-8.26,8.34-8.22l626.96,4.39c4.57.03,8.26,3.77,8.22,8.34l-.28,39.88c-.03,4.57-3.77,8.26-8.34,8.22Z" style="fill:#bdd0fb; opacity:.53; stroke-width:0px;"/><path d="M1348.13,1931.93l-208.69-1.46c-4.39-.03-7.92-3.61-7.89-8l.28-40.55c.03-4.39,3.61-7.92,8-7.89l208.69,1.46c4.39.03,7.92,3.61,7.89,8l-.28,40.55c-.03,4.39-3.61,7.92-8,7.89Z" style="fill:#bdd0fb; opacity:.53; stroke-width:0px;"/><path d="M2148.6,1937.54l-621.45-4.35c-6.98-.05-12.59-5.74-12.54-12.72l.22-31.17c.05-6.98,5.74-12.59,12.72-12.54l621.45,4.35c6.98.05,12.59,5.74,12.54,12.72l-.22,31.17c-.05,6.98-5.74,12.59-12.72,12.54Z" style="fill:#bdd0fb; opacity:.53; stroke-width:0px;"/><rect x="367.45" y="1912.64" width="56.44" height="164.72" rx="12.63" ry="12.63" transform="translate(-1602.06 2376.69) rotate(-89.6)" style="fill:#bdd0fb; opacity:.53; stroke-width:0px;"/><path d="M949.53,2027.21l-448.91-3.14c-4.57-.03-8.26-3.77-8.22-8.34l.28-39.88c.03-4.57,3.77-8.26,8.34-8.22l448.91,3.14c4.57.03,8.26,3.77,8.22,8.34l-.28,39.88c-.03,4.57-3.77,8.26-8.34,8.22Z" style="fill:#bdd0fb; opacity:.53; stroke-width:0px;"/><path d="M1349.24,2031.23l-208.69-1.46c-4.39-.03-7.92-3.61-7.89-8l.28-40.55c.03-4.39,3.61-7.92,8-7.89l208.69,1.46c4.39.03,7.92,3.61,7.89,8l-.28,40.55c-.03,4.39-3.61,7.92-8,7.89Z" style="fill:#bdd0fb; opacity:.53; stroke-width:0px;"/><path d="M2475.72,2039.12l-850.17-5.95c-6.98-.05-12.59-5.74-12.54-12.72l.22-31.17c.05-6.98,5.74-12.59,12.72-12.54l850.17,5.95c6.98.05,12.59,5.74,12.54,12.72l-.22,31.17c-.05,6.98-5.74,12.59-12.72,12.54Z" style="fill:#bdd0fb; opacity:.53; stroke-width:0px;"/><rect x="370.59" y="1518.9" width="56.44" height="164.72" rx="12.63" ry="12.63" transform="translate(-1205.21 1988.85) rotate(-89.6)" style="fill:#bdd0fb; opacity:.53; stroke-width:0px;"/><path d="M950.81,1633.46l-448.91-3.14c-4.57-.03-8.26-3.77-8.22-8.34l.28-39.88c.03-4.57,3.77-8.26,8.34-8.22l448.91,3.14c4.57.03,8.26,3.77,8.22,8.34l-.28,39.88c-.03,4.57-3.77,8.26-8.34,8.22Z" style="fill:#bdd0fb; opacity:.53; stroke-width:0px;"/><path d="M1351.68,1637.49l-208.69-1.46c-4.39-.03-7.92-3.61-7.89-8l.28-40.55c.03-4.39,3.61-7.92,8-7.89l208.69,1.46c4.39.03,7.92,3.61,7.89,8l-.28,40.55c-.03,4.39-3.61,7.92-8,7.89Z" style="fill:#bdd0fb; opacity:.53; stroke-width:0px;"/><path d="M2474.44,1645.35l-850.17-5.95c-6.98-.05-12.59-5.74-12.54-12.72l.22-31.17c.05-6.98,5.74-12.59,12.72-12.54l850.17,5.95c6.98.05,12.59,5.74,12.54,12.72l-.22,31.17c-.05,6.98-5.74,12.59-12.72,12.54Z" style="fill:#bdd0fb; opacity:.53; stroke-width:0px;"/><rect x="371.22" y="1618.2" width="56.44" height="164.72" rx="12.63" ry="12.63" transform="translate(-1303.88 2088.08) rotate(-89.6)" style="fill:#bdd0fb; opacity:.53; stroke-width:0px;"/><path d="M952.56,1732.76l-448.91-3.14c-4.57-.03-8.26-3.77-8.22-8.34l.28-39.88c.03-4.57,3.77-8.26,8.34-8.22l448.91,3.14c4.57.03,8.26,3.77,8.22,8.34l-.28,39.88c-.03,4.57-3.77,8.26-8.34,8.22Z" style="fill:#bdd0fb; opacity:.53; stroke-width:0px;"/><path d="M1352.79,1736.79l-208.69-1.46c-4.39-.03-7.92-3.61-7.89-8l.28-40.55c.03-4.39,3.61-7.92,8-7.89l208.69,1.46c4.39.03,7.92,3.61,7.89,8l-.28,40.55c-.03,4.39-3.61,7.92-8,7.89Z" style="fill:#bdd0fb; opacity:.53; stroke-width:0px;"/><path d="M2478.35,1744.67l-850.17-5.95c-6.98-.05-12.59-5.74-12.54-12.72l.22-31.17c.05-6.98,5.74-12.59,12.72-12.54l850.17,5.95c6.98.05,12.59,5.74,12.54,12.72l-.22,31.17c-.05,6.98-5.74,12.59-12.72,12.54Z" style="fill:#bdd0fb; opacity:.53; stroke-width:0px;"/><path d="M1050.04,2094.76l-11.44-.08c-2.56-.02-4.62-2.11-4.6-4.67l9.68-1381.56c.02-2.56,2.11-4.62,4.67-4.6l11.44.08c2.56.02,4.62,2.11,4.6,4.67l-9.68,1381.56c-.02,2.56-2.11,4.62-4.67,4.6Z" style="fill:#bdd0fb; opacity:.53; stroke-width:0px;"/><circle cx="2218.73" cy="1508.93" r="241.28" style="fill:url(#uuid-5ccba8f7-d646-43e3-9be8-f3a33cc5ed2d); stroke-width:0px;"/><path d="M2154.02,1561.29l-94.83-48.26v-15.54l94.83-54.91v26.46l-65.61,35.04,65.61,30.88v26.34Z" style="fill:#fff; stroke-width:0px;"/><path d="M2254.9,1421.14l-53.94,163-27.09-.28,53.51-162.35,27.52-.37Z" style="fill:#fff; stroke-width:0px;"/><path d="M2274.95,1535.31l69.31-31.63-69.31-35.46v-26.93l101.07,55.39v16.28l-101.07,49.16v-26.81Z" style="fill:#fff; stroke-width:0px;"/><circle cx="1657.16" cy="246.81" r="241.28" style="fill:url(#uuid-74e5969d-09d5-4375-86b9-97c4bd38d9bc); stroke-width:0px;"/><path d="M1560.27,343.15c-7.4-.13-13.84-1.05-19.31-2.75v-28.35c5.61,1.53,10.74,2.32,15.39,2.38,7.2.08,12.37-2.19,15.49-6.84,3.12-4.65,4.69-11.96,4.69-21.92v-151.59l33.25-.78v152.35c0,19.01-4.21,33.43-12.6,43.25-8.37,9.79-20.69,14.53-36.91,14.25Z" style="fill:url(#uuid-637a665a-3951-4e3e-9af5-cbc95367c197); stroke-width:0px;"/><path d="M1772,277.3c0,17.69-6.36,31.56-19.03,41.58-12.61,9.97-30.05,14.77-52.24,14.44-20.27-.3-38.07-4.42-53.45-12.31v-37.69c12.64,5.84,23.38,9.99,32.21,12.42,8.86,2.44,16.99,3.7,24.37,3.76,8.9.08,15.74-1.59,20.52-5.01,4.79-3.42,7.18-8.54,7.18-15.37,0-3.81-1.06-7.2-3.17-10.18-2.11-2.98-5.2-5.84-9.28-8.58-4.07-2.74-12.34-7.11-24.78-13.1-11.6-5.52-20.27-10.8-26.03-15.86-5.75-5.05-10.33-10.92-13.75-17.63-3.41-6.7-5.12-14.54-5.12-23.53,0-16.94,5.62-30.35,16.87-40.27,11.31-9.97,27.03-15.2,47.22-15.66,9.98-.23,19.54.75,28.67,2.94,9.16,2.2,18.77,5.38,28.85,9.54l-13.36,32.48c-10.38-4.12-18.93-6.97-25.67-8.55-6.72-1.57-13.32-2.31-19.79-2.2-7.67.13-13.54,2.03-17.63,5.7-4.08,3.67-6.11,8.4-6.11,14.21,0,3.61.83,6.74,2.47,9.4,1.64,2.67,4.27,5.24,7.87,7.71,3.61,2.48,12.17,6.93,25.74,13.37,18.05,8.59,30.5,17.27,37.25,26.03,6.77,8.78,10.17,19.57,10.17,32.34Z" style="fill:url(#uuid-a3c3b9e8-05ce-4ab4-a486-285a6656114c); stroke-width:0px;"/><circle cx="2181.85" cy="368.15" r="238.76" style="fill:url(#uuid-9becfeb6-fe47-4666-a89c-83a24d07d668); stroke-width:0px;"/><path d="M2086.72,418.16l-17.44-.96v-37.76l-32.43-1.6v37.57l-17.23-.95v-86.81l17.23.72v34.12l32.43,1.52v-34.29l17.44.73v87.73Z" style="fill:#fff; stroke-width:0px;"/><path d="M2145.86,421.43l-17.82-.99v-72.72l-22.68-1v-15.53l63.47,2.64v15.68l-22.97-1.01v72.92Z" style="fill:#fff; stroke-width:0px;"/><path d="M2224.25,425.77l-20.72-71.23-.53-.02c.74,14.29,1.12,23.82,1.12,28.59v41.55l-16.22-.9v-89.12l24.74,1.03,20.43,69.47.36.02,21.81-67.72,25.26,1.05v90.39l-17.32-.96v-42.67c0-2.01.03-4.34.09-6.96.06-2.63.33-9.6.81-20.93l-.54-.02-22.46,69.37-16.82-.93Z" style="fill:#fff; stroke-width:0px;"/><path d="M2308.87,430.45v-90.78l18.84.78v75.1l36.34,1.92v16.03l-55.18-3.05Z" style="fill:#fff; stroke-width:0px;"/><circle cx="2360.42" cy="946.36" r="226.84" transform="translate(22.17 1946.25) rotate(-45)" style="fill:url(#uuid-8b36b839-d64c-4b13-8e2d-7adcb8b50505); stroke-width:0px;"/><path d="M2260.48,901.1c-9.23-.09-16.33,3.66-21.32,11.23-4.98,7.55-7.45,18.11-7.42,31.7.06,28.27,9.63,42.77,28.9,43.53,8.16.32,18.1-1.55,29.86-5.63l.03,22.98c-9.67,3.97-20.39,5.67-32.15,5.12-16.74-.78-29.42-6.96-38.16-18.49-8.69-11.46-13.04-27.54-13.09-48.29-.03-13.08,2.06-24.5,6.28-34.29,4.23-9.82,10.36-17.36,18.39-22.6,8.08-5.27,17.61-7.91,28.63-7.88,11.31.03,22.77,3.09,34.38,9.22l-8.07,22.25c-4.41-2.35-8.84-4.41-13.27-6.16-4.43-1.75-8.76-2.64-13-2.69Z" style="fill:url(#uuid-55f27a15-d5c8-4034-9556-2adc9167fe1b); stroke-width:0px;"/><path d="M2397.44,977.54c0,12.09-4.11,21.44-12.31,28.03-8.15,6.55-19.42,9.48-33.74,8.81-13.08-.61-24.56-3.77-34.47-9.46l-.03-25.68c8.15,4.23,15.08,7.26,20.77,9.09,5.71,1.84,10.96,2.86,15.73,3.04,5.75.23,10.17-.78,13.25-3.01,3.09-2.24,4.64-5.69,4.64-10.35,0-2.6-.69-4.94-2.05-7.01-1.36-2.07-3.37-4.08-6-6.04-2.63-1.95-7.98-5.09-16.01-9.41-7.49-3.98-13.09-7.75-16.8-11.31-3.71-3.55-6.67-7.65-8.88-12.28-2.21-4.63-3.31-10.01-3.32-16.15-.01-11.56,3.6-20.62,10.85-27.2,7.29-6.62,17.44-9.92,30.5-9.89,6.45.02,12.64.85,18.55,2.51,5.93,1.66,12.16,4.01,18.69,7.03l-8.65,22c-6.72-3.01-12.26-5.1-16.62-6.3-4.35-1.2-8.62-1.82-12.8-1.86-4.96-.05-8.76,1.15-11.39,3.59-2.63,2.44-3.94,5.63-3.94,9.6,0,2.46.53,4.62,1.6,6.47,1.07,1.85,2.76,3.65,5.09,5.41,2.33,1.76,7.87,4.96,16.64,9.61,11.68,6.2,19.73,12.37,24.11,18.48,4.39,6.13,6.59,13.57,6.59,22.3Z" style="fill:url(#uuid-8ba9def0-9087-468f-9780-b1a162a9b3fe); stroke-width:0px;"/><path d="M2508.03,981.34c-.01,12.52-4.44,22.2-13.23,29.01-8.75,6.77-20.84,9.78-36.18,9.06-14.01-.66-26.3-3.95-36.91-9.85v-26.57c8.72,4.38,16.14,7.53,22.24,9.44,6.12,1.91,11.74,2.97,16.85,3.17,6.16.24,10.9-.79,14.21-3.1,3.32-2.32,4.98-5.89,4.98-10.71,0-2.69-.73-5.12-2.19-7.26-1.46-2.14-3.6-4.23-6.42-6.26-2.82-2.02-8.54-5.28-17.15-9.76-8.02-4.13-14.01-8.04-17.99-11.72-3.97-3.68-7.13-7.92-9.5-12.72-2.36-4.79-3.53-10.36-3.53-16.71,0-11.96,3.88-21.33,11.66-28.14,7.82-6.85,18.7-10.26,32.69-10.23,6.92.02,13.55.88,19.88,2.6,6.36,1.72,13.04,4.15,20.04,7.29l-9.31,22.78c-7.2-3.11-13.14-5.29-17.81-6.54-4.66-1.24-9.24-1.88-13.72-1.93-5.32-.05-9.38,1.18-12.21,3.71-2.82,2.52-4.23,5.83-4.23,9.93,0,2.55.57,4.78,1.7,6.7,1.14,1.92,2.95,3.78,5.45,5.6,2.5,1.82,8.42,5.14,17.82,9.96,12.51,6.43,21.14,12.83,25.83,19.16,4.7,6.35,7.05,14.06,7.04,23.1Z" style="fill:url(#uuid-64b28ad4-89ec-44e0-a005-c99d832d2204); stroke-width:0px;"/><path d="M568.36,2159.19c-6.92,7.05-5.09,18.78,3.57,23.54,39.78,21.85,139.81,61.52,224.13-31.64,107.97-119.29,370.97-675.91,403.41-818.84,32.44-142.93,155.08-363.13,222.47-389.11,67.38-25.98-142.84-11.21-201.37-10.22-58.52,1-100.7-28-65.88-41.33,0,0-178.01-69.47-311.52,137.21-80.69,124.91-340.43,702.09-555.75,765.43-7.97,2.34,37.22,33.01,40.72,40.54,20.75,44.64,96.95,176.59,296.68,245.68,0,0-25.92,47.64-56.45,78.74Z" style="fill:url(#uuid-5cbcbc10-2a45-49b5-9d2d-d4e82af77a6a); stroke-width:0px;"/><path d="M1363.04,2669.55c-43.21,3.74-118.2,9.8-177.32,12.4-35.54,1.56-56-1.92-67.78-6.63.02,1.33.06,2.58.11,3.75.28,6.22,5.33,11.2,11.62,11.55,111.71,6.23,200.55,2.16,232.18.23,6.54-.4,10.44-7.51,7.09-13.08-1.67-2.79-3.7-5.52-5.9-8.22Z" style="fill:url(#uuid-d42253da-b705-439c-86e5-2ec58cca154f); stroke-width:0px;"/><path d="M1185.72,2681.96c59.12-2.6,134.11-8.67,177.32-12.4-42.48-52.12-177.32-87.25-177.32-87.25h-38.08c-26.19,37.76-29.99,73.7-29.7,93.02,11.78,4.72,32.24,8.2,67.78,6.63Z" style="fill:url(#uuid-48574101-2820-46b2-b482-41dc8983dbae); stroke-width:0px;"/><path d="M1141.23,2520.14l3.56,70.52c.39,7.64,6.1,14.05,13.75,15.15,7.61,1.09,17.8,1.23,28.61-2.37,6.65-2.21,11.58-7.81,12.81-14.65l12.31-68.65h-71.04Z" style="fill:url(#uuid-da32b5ef-a89f-47b1-9a3a-850ad2f9096c); stroke-width:0px;"/><path d="M699.24,2750.91c-18.74-3.38-27.22-15.96-30.77-29.41-.02.12-.05.24-.07.36-2.76,14.19,3.63,28.89,16.41,35.88,15.44,8.45,32.33,9.89,45.44,9.19,14.06-.75,26.97-8.27,34.07-20.31l.11-.18c-14.12,9.03-33.93,10.09-65.18,4.46Z" style="fill:url(#uuid-166fbe1d-0e10-41de-97a0-646679bc18e2); stroke-width:0px;"/><path d="M787.58,2541.87h-31.4c-47.84-1.26-77.88,129.14-87.71,179.63,3.55,13.45,12.03,26.03,30.77,29.41,31.25,5.63,51.06,4.57,65.18-4.46,25.84-43.95,38.66-108.33,44.82-145.9,7.01-42.73-21.65-58.69-21.65-58.69Z" style="fill:url(#uuid-a959f84d-da88-421d-9396-457af9647d8f); stroke-width:0px;"/><path d="M760.21,2476.41l-17.44,69.36c-2.14,8.5,1.93,17.3,9.79,21.34,9.76,5.01,23.49,10.27,36.11,8.74,5.94-.72,10.87-4.9,12.83-10.49l25.6-72.97-66.9-15.98Z" style="fill:url(#uuid-6a48948a-d0c7-41e5-a868-e52b308a8d40); stroke-width:0px;"/><path d="M1373.67,1562.9s-155.84,974.15-153.28,979.5c0,0-43.04,19.56-89.97,2.49,0,0,14.09-520.75,47.11-720.42,0,0-265.97,465.45-350.43,697.37,0,0-44.05-5.25-80.52-29.25,0,0,286.38-837.79,362.78-949.38l264.3,19.68Z" style="fill:url(#uuid-a38d7ea8-b810-4dd0-a65e-fb57ddb05291); stroke-width:0px;"/><path d="M1183.77,1818.68c-.7,0-1.42-.19-2.06-.59-1.82-1.14-2.37-3.54-1.23-5.35l58.24-93.02c.57-.91,1.48-1.54,2.53-1.75l42.86-8.63c2.1-.44,4.15.94,4.57,3.04.42,2.1-.94,4.15-3.04,4.57l-41.22,8.3-57.35,91.6c-.74,1.18-2,1.82-3.3,1.82Z" style="fill:url(#uuid-af02fc19-ed69-40a0-8eb5-3eeb6dd242a0); stroke-width:0px;"/><path d="M1430.89,889.14c-10.53-3.65-21.51-5.78-32.64-6.44-60.8-3.57-261.16-10.07-426.96,44.71-34.89,11.53-63.15,37.32-77.72,70.75-44.85,102.92-117.46,337.31,84.11,455.65,15.49-38.45,33.36-69.35,48.65-92.06-32.46-54.75-42.08-129.54,15.53-226.92,42,113.42,61.71,278.91,65.83,352.15,1.36,24.11-2.87,48.18-12.34,70.44l-1.03,2.43c-2.02,4.76.76,10.24,5.85,11.38,113.48,25.49,231.5,18.56,266.76,15.65,6.3-.52,11.52-5.02,12.97-11.11,55.18-232.51,55.31-391.11,41.8-491.37,51.62,11.54,123.4-155.67,9.18-195.24Z" style="fill:url(#uuid-e05e21a1-a126-450c-aa63-df9c78af6b5e); stroke-width:0px;"/><path d="M1141.88,747.26s-11.48,121.38-21.59,157.28c-1.53,5.45.83,11.19,5.78,14.02,17.15,9.8,58.3,25.79,114.58-1.79,9.12-4.47,14.6-13.97,14.17-24.03l-4.96-117.29-107.99-28.19Z" style="fill:url(#uuid-44b99286-e77e-43d0-a7aa-c62f77192b4e); stroke-width:0px;"/><path d="M1252.35,591.97s36.72,84.35,39.18,128.62c2.47,44.27,12.01,73-39.18,81.91-51.19,8.91-94.31-16.59-117.67-60.68,0,0-36.6-67.95-28.39-95.78,8.21-27.83,146.06-54.07,146.06-54.07Z" style="fill:url(#uuid-2c3dc0f6-0434-4850-848c-336cd735a704); stroke-width:0px;"/><path d="M1152.17,710.11l2.91-1.28c3.71-1.64,5.3-6.05,3.43-9.65-7.22-13.95-21.29-45.91-3.11-53.36,23.43-9.61,116.23-28.53,136.25-61.46,19.24-31.65,2.19-72.5-23.43-84.12-1.71-.78-3.74-.16-4.62,1.5l-2.14,4.04c-1.46,2.77-5.55,2.35-6.42-.66h0c-.83-2.89-4.67-3.45-6.26-.9-6.15,9.85-22.77,25.82-67.21,34.02-63.15,11.65-104.9,37.21-105.94,80.85-.07,2.77-3.01,4.31-5.38,2.87-4.66-2.84-12.12-4.17-22.1,4.21-17.34,14.58-10.25,52.41,27.77,83.53,1.81,1.48,1.79,4.3-.16,5.57-6.89,4.49-17.17,15.16,9.46,29.39,27.54,14.72,48.1,13.51,56.02,12.21,1.97-.33,3.24-2.23,2.81-4.18l-8.45-38.35c-.48-2.17,1.17-4.23,3.4-4.23h13.16Z" style="fill:url(#uuid-dfd890ac-914b-4ebf-a334-ee197871e185); stroke-width:0px;"/><path d="M1153.76,718.2s-14.01-53.88-38.16-38.77c-24.16,15.11,12.54,60.37,31.96,62.39l6.21-23.61Z" style="fill:url(#uuid-bd20b69b-3f84-43c8-98f1-2283c46a31aa); stroke-width:0px;"/><path d="M1152.73,1536.69l165.7-3.61s-144.49-40.84-153.46-29.72c0,0-89.56-58.85-138.63-141.63-15.28,22.71-33.16,53.61-48.65,92.06,44,25.83,101.78,70.7,175.04,82.89Z" style="fill:url(#uuid-b29dd6b4-7255-483b-b95e-4c33066f916c); stroke-width:0px;"/><path d="M1148.05,1508s-3.42,66.02,83.24,56.43c47.1-5.21,123.13-49.12,123.13-49.12,0,0-198.19-.53-206.38-7.31Z" style="fill:url(#uuid-8f851ffb-24f6-4702-bd09-5476ed64d2b7); stroke-width:0px;"/><path d="M1189.83,1524.41c.26.01.52.02.78.02l339.71-.37c8.4,0,15.2-6.75,15.19-15.06,0-8.31-6.85-15.18-15.22-15.03l-339.71.37c-8.4,0-15.2,6.75-15.19,15.06,0,8.05,6.41,14.62,14.44,15.01Z" style="fill:url(#uuid-2c4ba5bb-e23a-4c1d-a349-b094420cee9c); stroke-width:0px;"/><path d="M1835.7,1219.23h-282.91c-20.87,0-39.87,11.92-48.77,30.59l-130.79,274.4h351.58c13.45,0,25.53-8.13,30.48-20.51l101.42-253.92c5.86-14.67-5.07-30.57-21.01-30.57Z" style="fill:url(#uuid-b14ca3e6-78b5-4f78-9897-0d64c49a9eb2); stroke-width:0px;"/><path d="M1636.39,1359.93c-6.13,18.85-1.6,37.15,10.12,40.88,11.72,3.73,26.19-8.52,32.32-27.37,6.13-18.85,1.6-37.15-10.12-40.88-11.72-3.73-26.19,8.52-32.32,27.37Z" style="fill:url(#uuid-7709e04b-4373-4b6f-8cbf-50bcab3b5076); stroke-width:0px;"/><path d="M1775.1,1075.46c-131.91,5.47-195.28-91.02-252.97-147.51-76.16-74.58-156.79-44.19-156.79-44.19l61.28,200.02c119.08,139.29,267.21,105.17,357.27,73.91,4.85-32.58-.94-60.91-8.8-82.23Z" style="fill:url(#uuid-9f18c10d-9e81-40a6-92fa-0ca842967998); stroke-width:0px;"/><path d="M1965.91,1017.7l-45.55,18.52c-55.02,25.86-103.01,37.49-145.26,39.24,7.85,21.32,13.64,49.65,8.8,82.23,57.33-19.9,94.86-47.16,94.86-47.16,103.79-47.63,87.14-92.84,87.14-92.84Z" style="fill:url(#uuid-7ca8a3fc-38c7-43b4-a0c9-d81aefa0172d); stroke-width:0px;"/><path d="M2086.19,1092.04c-1.78-9.54-7.81-17.75-16.37-22.31l-83.58-44.56s-.11-11.35,20.49-16.83c20.6-5.48,18.37-28.13,18.37-28.13,0,0-28.35,9.41-70.02,24.69-23.83,8.74-38.65,27.11-46.99,41.24l19.3,32c52.1,21.98,106.25,30.96,161.9,30.47l-3.1-16.58Z" style="fill:url(#uuid-f9f9a475-1933-4143-84b4-d7b0b22d7d42); stroke-width:0px;"/><path d="M1381.65,943.14s27,42.54,40.29,142.89l-40.29-142.89Z" style="fill:url(#uuid-43b71231-48ed-4425-981d-b0e9e5d879ef); stroke-width:0px;"/></g></g></svg>