<?xml version="1.0" encoding="UTF-8"?><svg xmlns="http://www.w3.org/2000/svg" xmlns:xlink="http://www.w3.org/1999/xlink" viewBox="0 0 2786.58 2788.66"><defs><linearGradient id="uuid-d846d167-15f6-4d81-b1cb-4de144529262" x1="543.55" y1="484.57" x2="-2403.61" y2="3843.86" gradientTransform="translate(1139.46) rotate(-180) scale(1 -1)" gradientUnits="userSpaceOnUse"><stop offset="0" stop-color="#09005d"/><stop offset="1" stop-color="#1a0f91"/></linearGradient><linearGradient id="uuid-6a642893-303c-4ae4-a271-e58d3f02a587" x1="1994.75" y1="1384.45" x2="4003.58" y2="1384.45" gradientUnits="userSpaceOnUse"><stop offset="0" stop-color="#4f52ff"/><stop offset="1" stop-color="#4042e2"/></linearGradient><linearGradient id="uuid-acd7aad2-c1bd-49f6-9af9-63f54b909266" x1="2686.78" y1="-852.73" x2="2241.15" y2="180.31" xlink:href="#uuid-6a642893-303c-4ae4-a271-e58d3f02a587"/><linearGradient id="uuid-2db84fdf-a9c6-45f7-9ec7-087902494f52" x1="-1282.42" y1="10397.39" x2="-553.32" y2="9075.88" gradientTransform="translate(3953.11 5105.52) rotate(-83.23) scale(1 -1)" gradientUnits="userSpaceOnUse"><stop offset="0" stop-color="#ff928e"/><stop offset="1" stop-color="#fe7062"/></linearGradient><linearGradient id="uuid-fc8673c4-bc9b-4167-be69-f987408c98bd" x1="-19.35" y1="9637.92" x2="709.82" y2="8316.31" gradientTransform="translate(3975.63 4611.58) rotate(-91.75) scale(1 -1)" xlink:href="#uuid-2db84fdf-a9c6-45f7-9ec7-087902494f52"/><linearGradient id="uuid-15e65e3e-1089-410b-8431-287d23a1ee40" x1="6258.37" y1="-10419.43" x2="6987.54" y2="-11741.05" gradientTransform="translate(1139.46) rotate(-180) scale(1 -1)" xlink:href="#uuid-2db84fdf-a9c6-45f7-9ec7-087902494f52"/><linearGradient id="uuid-2b892eea-3001-4ba0-b2cb-8fde240e0677" x1="2594.46" y1="148.12" x2="2581.01" y2="648.84" gradientTransform="matrix(1,0,0,1,0,0)" xlink:href="#uuid-d846d167-15f6-4d81-b1cb-4de144529262"/><linearGradient id="uuid-063771cd-eca0-46a1-acf3-8251d3243473" x1="-2496.98" y1="5890.79" x2="-3219.97" y2="6840.41" gradientTransform="translate(-3981.65 -2439.39) rotate(-88.79)" xlink:href="#uuid-d846d167-15f6-4d81-b1cb-4de144529262"/><linearGradient id="uuid-da0bcdb8-f2f4-47c7-8b72-15d9ab39cfe7" x1="2512.18" y1="-99.04" x2="2319.75" y2="506.94" gradientTransform="matrix(1,0,0,1,0,0)" xlink:href="#uuid-2db84fdf-a9c6-45f7-9ec7-087902494f52"/><linearGradient id="uuid-1affd6a1-5115-4d07-a124-ca75f4d46b61" x1="2527.92" y1="-94.05" x2="2335.49" y2="511.94" gradientTransform="matrix(1,0,0,1,0,0)" xlink:href="#uuid-2db84fdf-a9c6-45f7-9ec7-087902494f52"/><linearGradient id="uuid-6a3df473-89c2-426c-b6cf-e4b4ff274ea0" x1="156.91" y1="1759.51" x2="399.97" y2="1410.12" gradientUnits="userSpaceOnUse"><stop offset="0" stop-color="#e1473d"/><stop offset="1" stop-color="#e9605a"/></linearGradient><linearGradient id="uuid-243a0c81-db1b-45d1-a6d5-d041b3d6c7c0" x1="-2885.23" y1="1002.74" x2="-2704.25" y2="1414.51" gradientTransform="translate(-1925.3 -221.1) rotate(-167.84) scale(1 -1)" gradientUnits="userSpaceOnUse"><stop offset="0" stop-color="#febbba"/><stop offset="1" stop-color="#ff928e"/></linearGradient><linearGradient id="uuid-4efd8b96-9fc1-443c-9f77-c727b9701ec6" x1="-2184.51" y1="2752.77" x2="-2101.44" y2="2752.77" gradientTransform="translate(-2088.85) rotate(-180) scale(1 -1)" xlink:href="#uuid-d846d167-15f6-4d81-b1cb-4de144529262"/><linearGradient id="uuid-44099784-051d-468f-a206-6da34d69f8fa" x1="-2535.52" y1="3080.35" x2="-2415.97" y2="1683.19" gradientTransform="translate(-2088.85) rotate(-180) scale(1 -1)" xlink:href="#uuid-243a0c81-db1b-45d1-a6d5-d041b3d6c7c0"/><linearGradient id="uuid-2d8a09b6-ed48-4ffc-8787-2c4cd6b8f36e" x1="-2570.44" y1="2737.61" x2="-2436.03" y2="2737.61" gradientTransform="translate(-2088.85) rotate(-180) scale(1 -1)" xlink:href="#uuid-d846d167-15f6-4d81-b1cb-4de144529262"/><linearGradient id="uuid-003281b1-581e-4210-996d-24fbae656244" x1="-2295.05" y1="3101.14" x2="-2175.48" y2="1703.62" gradientTransform="translate(-2088.85) rotate(-180) scale(1 -1)" xlink:href="#uuid-243a0c81-db1b-45d1-a6d5-d041b3d6c7c0"/><linearGradient id="uuid-d93ef8b5-f661-4eae-9700-ac0181fa354c" x1="319.32" y1="1702.54" x2="576.49" y2="1702.54" gradientUnits="userSpaceOnUse"><stop offset="0" stop-color="#dae3fe"/><stop offset="1" stop-color="#e9effd"/></linearGradient><linearGradient id="uuid-8dd856c8-47fc-4244-876c-cc4ca6c5468d" x1="207.68" y1="2090.24" x2="511.02" y2="2090.24" xlink:href="#uuid-6a642893-303c-4ae4-a271-e58d3f02a587"/><linearGradient id="uuid-e205f685-e1dc-4edb-9309-d04814b5b64f" x1="-2548.63" y1="1703.17" x2="-2526.17" y2="1538.89" gradientTransform="translate(-2088.85) rotate(-180) scale(1 -1)" xlink:href="#uuid-243a0c81-db1b-45d1-a6d5-d041b3d6c7c0"/><linearGradient id="uuid-2b3177d6-6c91-4b40-948b-163ab804b66d" x1="-2724.92" y1="1196.5" x2="-2528.98" y2="847.8" gradientTransform="translate(-1940.63 -197.77) rotate(-168.8) scale(1 -1)" xlink:href="#uuid-243a0c81-db1b-45d1-a6d5-d041b3d6c7c0"/><linearGradient id="uuid-ca635e83-1621-4d5e-89ab-5713ed5b5dd4" x1="140.67" y1="1748.21" x2="383.73" y2="1398.82" xlink:href="#uuid-6a3df473-89c2-426c-b6cf-e4b4ff274ea0"/><linearGradient id="uuid-207d5eff-8ebd-41ab-83a0-0160bea7f534" x1="-2683.21" y1="1219.94" x2="-2487.28" y2="871.24" gradientTransform="translate(-1940.63 -197.77) rotate(-168.8) scale(1 -1)" xlink:href="#uuid-243a0c81-db1b-45d1-a6d5-d041b3d6c7c0"/><linearGradient id="uuid-29e66d58-7ca1-4ec9-9230-f9f35ed22c15" x1="-2920.99" y1="1018.46" x2="-2740.01" y2="1430.23" xlink:href="#uuid-243a0c81-db1b-45d1-a6d5-d041b3d6c7c0"/><linearGradient id="uuid-e9dc696c-f4e1-4203-94c9-4202ab4ebc55" x1="788.53" y1="1256.8" x2="837.27" y2="1256.8" gradientTransform="matrix(1,0,0,1,0,0)" xlink:href="#uuid-243a0c81-db1b-45d1-a6d5-d041b3d6c7c0"/><linearGradient id="uuid-f1bc5eb3-6831-4c74-878d-b99e564573f0" x1="-3782.17" y1="1759.74" x2="-3997.53" y2="1818.76" gradientTransform="translate(-3326.93 -78.4) rotate(-177.17) scale(1 -1)" xlink:href="#uuid-d846d167-15f6-4d81-b1cb-4de144529262"/><linearGradient id="uuid-c06f6d56-7956-4160-823e-e3068ea67f40" x1="-4001.97" y1="1728.64" x2="-4153.89" y2="1889.2" gradientTransform="translate(-3346.15) rotate(-180) scale(1 -1)" xlink:href="#uuid-d846d167-15f6-4d81-b1cb-4de144529262"/><linearGradient id="uuid-d12af441-53e0-4760-9a3e-e5d37f7901a7" x1="47.23" y1="1915.65" x2="516.87" y2="1719.18" gradientTransform="matrix(1,0,0,1,0,0)" xlink:href="#uuid-243a0c81-db1b-45d1-a6d5-d041b3d6c7c0"/><linearGradient id="uuid-0cd2eeeb-3c82-47b2-97a2-e3670e20d055" x1="2421.23" y1="2424.35" x2="2351.41" y2="2530.57" gradientTransform="translate(66)" gradientUnits="userSpaceOnUse"><stop offset="0" stop-color="#fdf53f"/><stop offset=".66" stop-color="#e57a58"/><stop offset="1" stop-color="#d93c65"/></linearGradient><linearGradient id="uuid-7188d719-c3bd-4848-b5ed-c40dc386a56d" x1="2023.09" y1="2727.69" x2="1941.22" y2="2830.62" gradientTransform="translate(66)" xlink:href="#uuid-d846d167-15f6-4d81-b1cb-4de144529262"/><linearGradient id="uuid-3b820c7f-4ca5-4108-9eef-58a6d30a759f" x1="2038.27" y1="2708.4" x2="1990.73" y2="2768.18" gradientTransform="translate(66)" xlink:href="#uuid-243a0c81-db1b-45d1-a6d5-d041b3d6c7c0"/><linearGradient id="uuid-a66f7ea5-9067-46da-b23c-32ad87fedf5c" x1="3573.67" y1="3495.52" x2="2788.8" y2="2968.9" xlink:href="#uuid-6a642893-303c-4ae4-a271-e58d3f02a587"/><linearGradient id="uuid-0792cb91-3c2c-4edb-abc4-c45df76ac1e5" x1="1808.68" y1="2699.89" x2="1838.56" y2="2804.71" gradientTransform="translate(66)" xlink:href="#uuid-243a0c81-db1b-45d1-a6d5-d041b3d6c7c0"/><linearGradient id="uuid-a27e776b-cadd-4ea6-88f9-4f6dea7630b1" x1="1945.06" y1="2200.3" x2="1959.46" y2="2070.73" gradientTransform="translate(4575.02) rotate(-180) scale(1 -1)" xlink:href="#uuid-243a0c81-db1b-45d1-a6d5-d041b3d6c7c0"/><linearGradient id="uuid-a796ed8b-3d14-4709-80e3-ad6fdd0ed042" x1="1928.82" y1="2061.99" x2="1871.5" y2="1872.92" gradientTransform="translate(4648.48 192.11) rotate(-175.12) scale(1 -1)" xlink:href="#uuid-243a0c81-db1b-45d1-a6d5-d041b3d6c7c0"/><linearGradient id="uuid-7324e911-62e0-473a-b0fd-f98022a2ec21" x1="1886.02" y1="1722.02" x2="1939.41" y2="2026.55" gradientTransform="translate(4648.48 192.11) rotate(-175.12) scale(1 -1)" xlink:href="#uuid-d846d167-15f6-4d81-b1cb-4de144529262"/><linearGradient id="uuid-b904dea1-8800-4381-8719-5a1adc3af3c3" x1="1881.43" y1="2084.6" x2="1824.11" y2="1895.54" gradientTransform="translate(4648.48 192.11) rotate(-175.12) scale(1 -1)" xlink:href="#uuid-243a0c81-db1b-45d1-a6d5-d041b3d6c7c0"/><linearGradient id="uuid-569d3c1d-20f5-4b48-b5db-3b25799681fe" x1="1753.27" y1="2733.27" x2="1781.13" y2="2831.03" gradientTransform="translate(66)" xlink:href="#uuid-d846d167-15f6-4d81-b1cb-4de144529262"/><linearGradient id="uuid-2c77956c-5f32-46c2-8ef5-b69b74b5a0eb" x1="-3845.75" y1="2296.9" x2="-3647.88" y2="2296.9" gradientTransform="translate(-1668.56) rotate(-180) scale(1 -1)" xlink:href="#uuid-d846d167-15f6-4d81-b1cb-4de144529262"/><linearGradient id="uuid-70377cc6-c442-4336-ae14-ae561c963e9c" x1="-3821.74" y1="2383.39" x2="-3979.95" y2="2426.76" gradientTransform="translate(-1668.56) rotate(-180) scale(1 -1)" xlink:href="#uuid-d846d167-15f6-4d81-b1cb-4de144529262"/><linearGradient id="uuid-b65b6506-640e-40a8-bc15-d09f43007ca0" x1="-4136.32" y1="1491.95" x2="-3773.3" y2="995.32" gradientTransform="translate(-1114.92 -218.27) rotate(-162.09) scale(1 -1)" xlink:href="#uuid-243a0c81-db1b-45d1-a6d5-d041b3d6c7c0"/><linearGradient id="uuid-f66d7223-e697-4579-bb55-b3de1898351a" x1="2511.85" y1="1817.41" x2="2684.02" y2="2769.38" gradientTransform="matrix(1,0,0,1,0,0)" xlink:href="#uuid-2db84fdf-a9c6-45f7-9ec7-087902494f52"/><linearGradient id="uuid-0e7f1f4e-dc78-4cdb-a99a-1aabf9aa32f5" x1="2496.02" y1="2405.32" x2="2615.86" y2="2405.32" xlink:href="#uuid-6a3df473-89c2-426c-b6cf-e4b4ff274ea0"/><linearGradient id="uuid-d1e9cd38-fc43-4967-98d9-6350723d5569" x1="2278.97" y1="2652.07" x2="2334.67" y2="2008.99" xlink:href="#uuid-6a642893-303c-4ae4-a271-e58d3f02a587"/></defs><g style="isolation:isolate;"><g id="uuid-d804a84c-1056-45a3-9f64-105b4be4cb45"><path d="M413.08,19.57c-4.41-13.96,11.91-25.28,23.58-16.44,118.51,89.75,409.6,365.27,401.33,901.69-10.37,673.01,153.78,900.75,341.77,1030.33,0,0-243.98-44.41-418.97-274.6C331.16,1095.36,491.48,267.77,413.08,19.57Z" style="fill:#bdd0fb; stroke-width:0px;"/><path d="M517.12,218.38c21.34,72.53,41.23,145.45,58.44,218.99,17.58,73.44,32.94,147.37,45.96,221.68,12.74,74.35,24.08,148.93,32.24,223.88,8.49,74.91,13.76,150.1,18.78,225.61,5.44,75.44,10.49,151.47,23.35,227.21,12.76,75.6,34.74,150.88,69.83,219.92,8.77,17.2,17.88,34.32,27.91,50.72,9.73,16.6,20.2,32.77,30.95,48.74,21.67,31.85,45.49,62.32,71.47,90.88,52.1,57,112.85,106.02,178.27,146.02,6.89,4.21,15.88,2.04,20.09-4.85,4.13-6.76,2.12-15.56-4.48-19.86l-.05-.03c-15.64-10.18-31.14-20.52-46.13-31.53-7.58-5.38-14.91-11.09-22.35-16.66-7.21-5.84-14.66-11.4-21.68-17.46-28.5-23.75-55.3-49.47-80.07-77.05-49.75-54.85-91.55-117.42-125.19-183.31-16.45-33.15-30.43-67.45-41.72-102.71-11.27-35.27-19.84-71.46-26.36-108.17-13.04-73.46-18.67-148.67-24.65-224.06-6.08-75.4-12.71-151.14-22.45-226.48-4.77-37.68-10.21-75.27-16.32-112.74-2.95-18.75-6.26-37.45-9.54-56.14-3.46-18.66-7.02-37.31-10.73-55.92-14.98-74.41-32.22-148.34-51.77-221.61-19.9-73.18-41.74-145.81-66.35-217.47-.7-2.05-2.93-3.14-4.98-2.44-1.99.68-3.07,2.82-2.49,4.81Z" style="fill:#fff; mix-blend-mode:soft-light; stroke-width:0px;"/><path d="M766.6,2011.88c-5.13,27.94-37.14,41.56-61.03,26.2-131.86-84.77-483.02-358.18-543-896.01C111.92,687.88,41.3,446.42,1.64,339.03c-8.39-22.71,17.09-42.92,37.33-29.63,223.23,146.63,913.66,689.95,727.64,1702.48Z" style="fill:#91b3fa; stroke-width:0px;"/><path d="M728.7,2018.45c-.51.48-1.08.92-1.7,1.3-5.19,3.25-12.04,1.67-15.29-3.52-3.68-5.89-369.29-596.03-468.24-1224.36-.95-6.05,3.18-11.73,9.23-12.68,6.05-.95,11.73,3.18,12.68,9.23,98.23,623.75,461.48,1210.2,465.14,1216.05,2.86,4.57,1.98,10.43-1.82,13.98Z" style="fill:#fff; mix-blend-mode:soft-light; stroke-width:0px;"/><path d="M225.1,1384.45c0,609.95,513.16,1104.42,1146.18,1104.42s1174.53-516.07,1174.53-1126.02S2004.3,280.04,1371.28,280.04,225.1,774.5,225.1,1384.45Z" style="fill:url(#uuid-d846d167-15f6-4d81-b1cb-4de144529262); stroke-width:0px;"/><path d="M2455.82,1115.91c.68,0,1.36-.07,2.04-.25,4.23-1.09,6.74-5.26,5.62-9.34-12.34-44.63-28.09-88.9-46.83-131.57-1.71-3.87-6.38-5.64-10.37-4.05-4.03,1.65-5.9,6.12-4.2,10.01,18.46,42,33.97,85.59,46.1,129.54.94,3.41,4.15,5.66,7.64,5.66Z" style="fill:#91b3fa; stroke-width:0px;"/><path d="M2280.67,770.78c1.65,0,3.33-.51,4.76-1.53,3.49-2.53,4.18-7.33,1.55-10.68-212.36-271.35-554.42-433.33-915.02-433.33-154,0-302.96,30.09-442.72,89.4-4,1.7-5.81,6.21-4.05,10.06,1.75,3.86,6.43,5.6,10.44,3.92,137.73-58.48,284.54-88.12,436.33-88.12,355.66,0,692.99,159.72,902.38,427.25,1.56,2,3.93,3.04,6.33,3.04Z" style="fill:#91b3fa; stroke-width:0px;"/><path d="M381.04,1384.45c0,527.98,444.2,955.99,992.15,955.99s1016.68-446.71,1016.68-974.69-468.74-937.29-1016.68-937.29-992.15,428.01-992.15,955.99Z" style="fill:url(#uuid-6a642893-303c-4ae4-a271-e58d3f02a587); stroke-width:0px;"/><path d="M2136.32,1334.87c2.45,40.58,38.58,71.56,80.7,69.2,42.11-2.36,74.27-37.17,71.82-77.75-2.45-40.58-38.58-71.56-80.7-69.2-42.11,2.36-74.27,37.17-71.82,77.75Z" style="fill:#fff; opacity:.78; stroke-width:0px;"/><path d="M486.08,1427.42c2.45,40.58,38.58,71.56,80.69,69.2,42.12-2.36,74.27-37.17,71.82-77.75-2.45-40.58-38.58-71.56-80.69-69.2-42.12,2.36-74.27,37.17-71.82,77.75Z" style="fill:#bdd0fb; stroke-width:0px;"/><path d="M1522.24,2087.9c-41.5,7.3-69,45.64-61.42,85.63,7.58,39.99,47.37,66.48,88.87,59.18,41.5-7.3,69-45.64,61.42-85.63-7.58-39.99-47.37-66.48-88.87-59.18Z" style="fill:#bdd0fb; stroke-width:0px;"/><path d="M1225.23,521.02c-41.5,7.3-69,45.64-61.42,85.63,7.58,39.99,47.36,66.48,88.87,59.18,41.5-7.3,69-45.64,61.42-85.63-7.58-39.99-47.37-66.48-88.87-59.18Z" style="fill:#bdd0fb; stroke-width:0px;"/><path d="M979.2,2129.97c-7.76,18.87-5.83,36.54,4.33,39.47,10.15,2.92,24.68-10,32.44-28.87,7.76-18.87,5.82-36.54-4.33-39.47-10.16-2.93-24.68,10-32.44,28.87Z" style="fill:#bdd0fb; stroke-width:0px;"/><path d="M1643.09,643.79c-7.76,18.87-5.82,36.54,4.33,39.47,10.16,2.93,24.68-10,32.45-28.87,7.76-18.87,5.82-36.54-4.33-39.47-10.16-2.92-24.68,10-32.44,28.87Z" style="fill:#fff; opacity:.78; stroke-width:0px;"/><path d="M632.55,1847.45c-16.8,12.25-24.67,28.32-17.56,35.9,7.1,7.58,26.48,3.8,43.29-8.44,16.8-12.25,24.66-28.32,17.56-35.9-7.1-7.58-26.48-3.8-43.28,8.44Z" style="fill:#fff; opacity:.78; stroke-width:0px;"/><path d="M2000.78,909.44c-16.8,12.24-24.67,28.32-17.56,35.9,7.1,7.58,26.48,3.8,43.28-8.44,16.8-12.24,24.67-28.32,17.56-35.9-7.1-7.58-26.48-3.8-43.28,8.44Z" style="fill:#fff; opacity:.78; stroke-width:0px;"/><path d="M589.02,1005.95c-19.02-8.73-37.45-8.04-41.16,1.52-3.71,9.57,8.7,24.4,27.72,33.12,19.02,8.73,37.45,8.05,41.16-1.52,3.71-9.57-8.7-24.4-27.72-33.12Z" style="fill:#fff; opacity:.78; stroke-width:0px;"/><path d="M2083.48,1743.75c-19.02-8.73-37.45-8.05-41.16,1.52-3.71,9.57,8.7,24.4,27.72,33.12,19.02,8.73,37.45,8.04,41.16-1.52,3.71-9.57-8.7-24.4-27.72-33.12Z" style="fill:#fff; opacity:.78; stroke-width:0px;"/><path d="M904.78,691.61c-11.55-16.98-27.67-25.61-36-19.29-8.33,6.32-5.71,25.21,5.84,42.18,11.55,16.97,27.67,25.61,35.99,19.29,8.33-6.32,5.71-25.21-5.84-42.18Z" style="fill:#bdd0fb; stroke-width:0px;"/><path d="M1784.43,2069.85c-11.55-16.97-27.67-25.61-36-19.29-8.33,6.32-5.71,25.2,5.84,42.18,11.55,16.97,27.67,25.61,36,19.29,8.33-6.32,5.71-25.2-5.84-42.18Z" style="fill:#bdd0fb; stroke-width:0px;"/><path d="M1335.1,1366.06l843.52,624.05c595.37-819.55-17.57-1509.33-792.38-1584.75l-51.15,960.7Z" style="fill:url(#uuid-acd7aad2-c1bd-49f6-9af9-63f54b909266); stroke-width:0px;"/><path d="M1387.14,1363.04l563.14,382.56c10.91,7.41,25.94.99,27.44-11.72l8.9-75.63c1.73-14.71,20.84-20.14,30.8-8.75l382.99,437.98c11.72,13.4-2.49,32.89-19.44,26.67l-547.69-200.94c-13.1-4.81-15.58-21.69-4.33-29.57l75.58-52.95c9.34-6.54,9.55-19.95.43-26.96l-538.65-413.65c-7.5-5.76-8.93-16.2-3.22-23.51h0c5.66-7.24,16.29-8.79,24.05-3.52Z" style="fill:url(#uuid-2db84fdf-a9c6-45f7-9ec7-087902494f52); stroke-width:0px;"/><path d="M2332.44,2075.52c5.64.85,11.2-1.42,14.54-6.15,4-5.65,3.46-12.89-1.32-18.03l-84.55-90.87c-2.93-3.15-7.94-3.44-11.17-.63-3.24,2.8-3.48,7.61-.54,10.78l84.55,90.87c-123.72-47.32-413.92-155.13-420.05-156.67-4.13-1.1-8.53,1.36-9.59,5.45-1.04,4.03,1.45,8.14,5.58,9.27,8.77,2.73,231.19,85.22,419.28,155.13,1.08.4,2.17.69,3.27.85Z" style="fill:#fff; opacity:.72; stroke-width:0px;"/><path d="M1340.08,1325.78l1.22-578.1c-.2-12.8-14.51-20.76-26.11-14.52l-69.03,37.07c-13.43,7.21-29.31-4.5-25.6-18.87l142.76-552.73c4.37-16.91,29.2-17.19,33.99-.39l154.52,542.97c3.7,12.99-9.08,24.74-22.38,20.57l-89.35-27.99c-11.04-3.46-22.47,4.17-22.98,15.35l-41.94,577.14c-.42,9.19-8.37,16.37-17.92,16.18h0c-9.45-.19-17.05-7.56-17.19-16.66Z" style="fill:url(#uuid-fc8673c4-bc9b-4167-be69-f987408c98bd); stroke-width:0px;"/><path d="M1504.41,688.2c.97,0,1.94-.16,2.89-.52,4.02-1.52,6.02-5.85,4.54-9.74-2.88-8.37-64.88-229.4-117.19-416.42-1.86-6.61-7.69-10.96-14.99-10.8-7.13.18-12.92,4.81-14.43,11.53l-26.6,118.64c-.92,4.11,1.79,8.18,6.07,9.06,4.23.91,8.47-1.71,9.41-5.84l26.6-118.64c33.28,123.78,114.04,412.22,116.35,417.9,1.22,3.01,4.2,4.84,7.36,4.84Z" style="fill:#fff; opacity:.72; stroke-width:0px;"/><ellipse cx="1378.31" cy="1356.78" rx="81.58" ry="78.61" style="fill:url(#uuid-15e65e3e-1089-410b-8431-287d23a1ee40); stroke-width:0px;"/><path d="M2649.14,689.92c-12.06-121.64-42.24-423.76-48.82-467.92-8.28-55.5-76.29-43.25-76.29-43.25l-14.56,561.65h94.83c12.74,0,24.9-5.49,33.44-15.13,8.54-9.63,12.69-22.44,11.41-35.35Z" style="fill:url(#uuid-2b892eea-3001-4ba0-b2cb-8fde240e0677); stroke-width:0px;"/><path d="M1881.96,754.55c-29.61-.63-53.11-25.14-52.48-54.75l9.67-455.96c.53-25.15,20.69-45.48,45.84-46.23l661.77-19.63c19.68-.58,35.93,15.24,35.88,34.93l-1.59,522.79c-.06,18.5-15.28,33.36-33.77,32.96l-665.32-14.11Z" style="fill:url(#uuid-063771cd-eca0-46a1-acf3-8251d3243473); stroke-width:0px;"/><path d="M1839.31,716.28c-9.48-.15-16.63-8.63-15.16-17.99,9.76-62.09,40.42-275.65,30.59-452.97-.45-8.09,5.82-14.96,13.91-15.22l664.76-21.21c9.11-.29,16.75,6.83,17.1,15.94,2.83,74.55,13.36,381.54-.42,490.66-.84,6.64-6.55,11.58-13.24,11.47l-697.53-10.69Z" style="fill:#91b3fa; stroke-width:0px;"/><path d="M1856.1,709.29c-9.12-.14-16.01-8.31-14.59-17.32,9.4-59.75,38.9-265.27,29.44-435.91-.43-7.78,5.6-14.4,13.39-14.65l639.72-20.41c8.77-.28,16.12,6.57,16.45,15.34,2.72,71.74,12.85,367.17-.4,472.19-.81,6.39-6.3,11.14-12.74,11.04l-671.27-10.29Z" style="fill:#fff; opacity:.6; stroke-width:0px;"/><path d="M2249.29,349.83l-.98,46.07c-.15,7.03,5.49,12.82,12.52,12.86l47.26.27c6.88.04,12.52-5.45,12.67-12.33l1.03-48.44c.15-7.28-5.88-13.17-13.15-12.85l-47.31,2.1c-6.63.29-11.9,5.68-12.04,12.32Z" style="fill:#fff; opacity:.72; stroke-width:0px;"/><path d="M2084.07,408.38l47.26.27c6.88.04,12.52-5.45,12.67-12.33l.87-41.2c.15-7.24-5.81-13.12-13.05-12.86l-47.3,1.7c-6.67.24-12,5.64-12.14,12.32l-.83,39.23c-.15,7.03,5.49,12.82,12.52,12.86Z" style="fill:#fff; opacity:.72; stroke-width:0px;"/><path d="M2125.48,613.6l-44.95-.44c-7.53-.07-13.72,5.93-13.88,13.45l-.89,42.1c-.16,7.48,5.69,13.71,13.16,14.03l44.92,1.9c7.7.33,14.16-5.74,14.33-13.44l.92-43.56c.16-7.65-5.96-13.96-13.61-14.04Z" style="fill:#fff; opacity:.72; stroke-width:0px;"/><path d="M2049.85,667.7l.87-41.16c.16-7.52-5.86-13.72-13.38-13.8l-45.42-.44c-7.4-.07-13.48,5.82-13.64,13.22l-.84,39.68c-.16,7.35,5.59,13.47,12.94,13.79l45.39,1.92c7.57.32,13.92-5.64,14.08-13.21Z" style="fill:#fff; opacity:.72; stroke-width:0px;"/><path d="M2053.79,481.89l.72-33.79c.17-8.16-6.4-14.86-14.56-14.85l-43.38.08c-7.9.01-14.34,6.33-14.51,14.23l-.69,32.29c-.17,7.96,6.1,14.58,14.06,14.84l43.35,1.42c8.09.26,14.84-6.13,15.01-14.22Z" style="fill:#fff; opacity:.72; stroke-width:0px;"/><path d="M2051.71,580.07l1.1-51.68c.16-7.4-5.67-13.55-13.07-13.79l-44.36-1.45c-8.09-.27-14.84,6.13-15.01,14.22l-1.11,52.12c-.16,7.57,5.93,13.8,13.51,13.8h45.43c7.35,0,13.35-5.87,13.51-13.22Z" style="fill:#fff; opacity:.72; stroke-width:0px;"/><path d="M2172.45,408.88l47.26.27c6.88.04,12.52-5.45,12.67-12.33l.95-44.87c.15-7.24-5.81-13.12-13.05-12.86l-47.3,1.7c-6.67.24-12,5.65-12.14,12.32l-.91,42.91c-.15,7.03,5.49,12.82,12.52,12.86Z" style="fill:#fff; opacity:.72; stroke-width:0px;"/><path d="M2140.1,579.85l1.03-48.33c.16-7.53-5.77-13.78-13.29-14.03l-44.93-1.47c-7.65-.25-14.03,5.8-14.19,13.45l-1.06,49.8c-.16,7.7,6.04,14.04,13.74,14.04h44.96c7.48,0,13.59-5.97,13.75-13.45Z" style="fill:#fff; opacity:.72; stroke-width:0px;"/><path d="M2220.94,432.92l-51.61.09c-5.67,0-10.29,4.54-10.41,10.2l-.99,46.48c-.12,5.71,4.37,10.46,10.08,10.64l51.57,1.69c5.8.19,10.64-4.4,10.77-10.2l1.02-48.26c.12-5.85-4.59-10.66-10.44-10.65Z" style="fill:#fff; opacity:.72; stroke-width:0px;"/><path d="M2247.26,445.68l-.94,44.26c-.15,7.18,5.5,13.14,12.67,13.38l46.22,1.51c7.29.24,13.38-5.52,13.53-12.82l.97-45.86c.16-7.35-5.77-13.4-13.13-13.38l-46.25.08c-7.12.01-12.93,5.71-13.08,12.83Z" style="fill:#fff; opacity:.72; stroke-width:0px;"/><path d="M2079.7,497.45l51.57,1.69c5.8.19,10.64-4.4,10.76-10.2l.96-45.21c.12-5.85-4.59-10.66-10.44-10.65l-51.61.09c-5.67.01-10.29,4.54-10.41,10.21l-.92,43.43c-.12,5.71,4.37,10.46,10.08,10.64Z" style="fill:#fff; opacity:.72; stroke-width:0px;"/><path d="M2216.16,520.38l-44.93-1.47c-7.65-.25-14.03,5.8-14.19,13.45l-1,46.92c-.16,7.7,6.04,14.04,13.74,14.04h44.96c7.48,0,13.59-5.97,13.75-13.45l.96-45.45c.16-7.53-5.77-13.79-13.29-14.03Z" style="fill:#fff; opacity:.72; stroke-width:0px;"/><path d="M2306.04,523.32l-48.08-1.57c-6.77-.22-12.43,5.13-12.57,11.91l-1,47.24c-.14,6.82,5.35,12.43,12.17,12.43h48.11c6.62,0,12.03-5.29,12.17-11.91l.97-45.67c.14-6.67-5.11-12.21-11.77-12.42Z" style="fill:#fff; opacity:.72; stroke-width:0px;"/><path d="M2002.3,407.31l35.87.2c9.54.05,17.36-7.56,17.56-17.1l.63-29.59c.19-8.94-7.18-16.2-16.12-15.88l-39.92,1.43c-9.06.33-16.29,7.66-16.48,16.72l-.52,24.71c-.23,10.66,8.32,19.44,18.98,19.5Z" style="fill:#fff; opacity:.72; stroke-width:0px;"/><path d="M1962.33,626.73c.17-8.09-6.3-14.77-14.4-14.85l-15.62-.15c-11.87-.12-21.58,7.73-21.79,17.62l-.61,28.61c-.21,9.8,9.01,18.02,20.78,18.52l16.77.71c7.57.32,13.92-5.64,14.08-13.21l.79-37.24Z" style="fill:#fff; opacity:.72; stroke-width:0px;"/><path d="M2464.74,616.89l-30.73-.3c-7.54-.07-13.73,5.93-13.89,13.47l-1.14,53.6c-.16,7.48,5.69,13.72,13.17,14.04l30.59,1.29c12.2.52,22.43-7.43,22.64-17.6l.98-45.96c.21-10.08-9.52-18.42-21.63-18.54Z" style="fill:#fff; opacity:.72; stroke-width:0px;"/><path d="M1933.55,593.29h15.25c7.91,0,14.37-6.32,14.54-14.23l1.11-52.54c.17-7.96-6.1-14.58-14.06-14.84l-15.35-.5c-12.1-.4-22.18,7.53-22.39,17.61l-.97,45.96c-.22,10.16,9.67,18.54,21.88,18.54Z" style="fill:#fff; opacity:.72; stroke-width:0px;"/><path d="M1934.83,492.71l19.2.63c6.12.2,11.22-4.64,11.35-10.76l.8-37.95c.13-6.17-4.84-11.24-11.01-11.23l-19.39.04c-11.76.02-21.29,7.83-21.49,17.62l-.49,23.12c-.21,9.88,9.16,18.14,21.03,18.53Z" style="fill:#fff; opacity:.72; stroke-width:0px;"/><path d="M2469.65,329.52l-30.81,1.11c-6.94.25-12.48,5.87-12.63,12.82l-1.12,52.94c-.16,7.32,5.71,13.34,13.03,13.38l31.73.18c11.83.07,21.48-7.77,21.69-17.62l.94-44.29c.22-10.47-10.25-18.98-22.81-18.52Z" style="fill:#fff; opacity:.72; stroke-width:0px;"/><path d="M2213.85,614.46l-44.95-.44c-7.53-.07-13.72,5.93-13.88,13.46l-.95,44.98c-.16,7.48,5.69,13.71,13.16,14.03l44.92,1.9c7.7.33,14.16-5.74,14.33-13.44l.99-46.44c.16-7.65-5.96-13.96-13.61-14.04Z" style="fill:#fff; opacity:.72; stroke-width:0px;"/><path d="M2468.35,432.48l-31.23.06c-7.12.01-12.93,5.71-13.08,12.83l-1.07,50.36c-.15,7.18,5.5,13.14,12.67,13.38l31.36,1.03c12.1.4,22.18-7.53,22.39-17.61l.88-41.5c.22-10.18-9.7-18.56-21.93-18.54Z" style="fill:#fff; opacity:.72; stroke-width:0px;"/><path d="M2467.22,528.59l-32.6-1.07c-6.77-.22-12.43,5.13-12.57,11.91l-.88,41.47c-.14,6.82,5.35,12.43,12.17,12.43h32.75c11.78,0,21.33-7.81,21.54-17.62l.61-28.61c.21-9.89-9.16-18.14-21.03-18.53Z" style="fill:#fff; opacity:.72; stroke-width:0px;"/><path d="M2333.72,536.55l-.94,44.35c-.14,6.82,5.35,12.43,12.17,12.43h48.11c6.62,0,12.03-5.29,12.17-11.91l.91-42.79c.14-6.67-5.11-12.21-11.77-12.42l-48.08-1.57c-6.77-.22-12.43,5.13-12.57,11.91Z" style="fill:#fff; opacity:.72; stroke-width:0px;"/><path d="M2390.57,616.17l-44.93-.44c-7.54-.07-13.73,5.93-13.89,13.47l-1.08,50.72c-.16,7.48,5.69,13.72,13.17,14.04l44.9,1.9c7.71.33,14.17-5.74,14.34-13.45l1.11-52.18c.16-7.66-5.96-13.98-13.62-14.05Z" style="fill:#fff; opacity:.72; stroke-width:0px;"/><path d="M1937.36,406.94l18.8.11c6.01.03,10.93-4.76,11.06-10.76l.79-37.11c.13-6.32-5.07-11.45-11.39-11.22l-19.92.71c-11.4.41-20.4,8.1-20.61,17.6l-.47,22.14c-.21,10.11,9.58,18.47,21.73,18.54Z" style="fill:#fff; opacity:.72; stroke-width:0px;"/><path d="M2302.2,615.32l-44.17-.43c-7.96-.08-14.49,6.26-14.66,14.21l-1,47.08c-.16,7.48,5.69,13.72,13.17,14.04l44.9,1.9c7.71.33,14.17-5.74,14.34-13.45l1.05-49.3c.16-7.66-5.96-13.98-13.62-14.05Z" style="fill:#fff; opacity:.72; stroke-width:0px;"/><path d="M2337.75,346.62l-1.05,49.27c-.16,7.32,5.71,13.34,13.03,13.38l46.24.26c7.16.04,13.02-5.67,13.18-12.83l1.09-51.19c.16-7.53-6.05-13.64-13.57-13.37l-46.28,1.66c-6.94.25-12.48,5.87-12.63,12.82Z" style="fill:#fff; opacity:.72; stroke-width:0px;"/><path d="M2335.65,445.52l-1,47.31c-.15,7.18,5.5,13.14,12.67,13.38l46.22,1.51c7.29.24,13.38-5.52,13.53-12.82l1.04-48.91c.16-7.35-5.77-13.4-13.12-13.38l-46.25.08c-7.12.01-12.93,5.71-13.08,12.83Z" style="fill:#fff; opacity:.72; stroke-width:0px;"/><path d="M1932.23,308.75l2.13,15.6c.68,5,4.9,8.75,9.94,8.86l.74.02c5.66.12,10.34-4.37,10.46-10.03l.34-15.97c.13-6.19-5.21-11.08-11.37-10.4l-3.2.35c-5.73.63-9.81,5.86-9.03,11.57Z" style="fill:#fff; stroke-width:0px;"/><path d="M2004.65,304.74l2.13,15.6c.68,5,4.9,8.75,9.94,8.86l.74.02c5.66.12,10.34-4.37,10.46-10.03l.34-15.97c.13-6.19-5.21-11.08-11.37-10.4l-3.2.35c-5.73.63-9.81,5.86-9.03,11.57Z" style="fill:#fff; stroke-width:0px;"/><path d="M2093.74,305.96l2.13,15.6c.68,5,4.9,8.75,9.94,8.86l.74.02c5.66.12,10.34-4.37,10.46-10.03l.34-15.97c.13-6.19-5.21-11.08-11.37-10.4l-3.2.35c-5.73.63-9.81,5.86-9.03,11.57Z" style="fill:#fff; stroke-width:0px;"/><path d="M2180.55,302.07l2.13,15.6c.68,5,4.9,8.75,9.94,8.86h.74c5.66.14,10.34-4.35,10.46-10.01l.34-15.97c.13-6.19-5.21-11.08-11.37-10.4l-3.21.35c-5.73.63-9.81,5.86-9.03,11.57Z" style="fill:#fff; stroke-width:0px;"/><path d="M2269.71,290.74l2.13,15.6c.68,5,4.9,8.75,9.94,8.86l.74.02c5.66.12,10.34-4.37,10.46-10.03l.34-15.97c.13-6.19-5.21-11.08-11.37-10.4l-3.2.35c-5.73.63-9.81,5.86-9.03,11.57Z" style="fill:#fff; stroke-width:0px;"/><path d="M2364.16,292.74l2.13,15.6c.68,5,4.9,8.75,9.94,8.86l.74.02c5.66.12,10.34-4.37,10.46-10.03l.34-15.97c.13-6.19-5.21-11.08-11.37-10.4l-3.21.35c-5.73.63-9.81,5.86-9.03,11.57Z" style="fill:#fff; stroke-width:0px;"/><path d="M2443.88,291.07l2.13,15.6c.68,5,4.9,8.75,9.94,8.86l.74.02c5.66.12,10.34-4.37,10.46-10.03l.34-15.97c.13-6.19-5.21-11.08-11.37-10.4l-3.2.35c-5.73.63-9.81,5.86-9.03,11.57Z" style="fill:#fff; stroke-width:0px;"/><path d="M2413.61,286.77c-.2-3.37-3.72-4.82-6.31-2.77-7.33,5.77-10.31,14.74-13.92,23.1-4.21,9.74-8.24,19.56-11.82,29.55-3.78,10.53-7,21.26-9.45,32.14-4.86-13.01-10.51-25.67-17.68-37.69-1.9-3.19-7.28-1.32-6.21,2.47,6.2,22.03,13.83,43.62,19.66,65.76,2.06,7.81,12.75,5.97,13.54-1.54,2.17-20.51,7.13-40.13,14.16-59.5,3.34-9.21,7.07-18.27,10.94-27.27,3.42-7.97,7.61-15.4,7.09-24.25Z" style="fill:url(#uuid-da0bcdb8-f2f4-47c7-8b72-15d9ab39cfe7); stroke-width:0px;"/><path d="M2423.68,303.12c-6.37-1.19-8.69,6.97-2.85,9.54,38.68,17.02,43.73,64.97,15.79,94-12.92,13.43-30.07,23.85-46.31,32.81-16.47,9.09-34.85,16.03-53.96,14.11-44.3-4.45-50.32-49.54-37.07-84.33,12.74-33.46,40.02-59.29,73.42-71.68,4.31-1.6,2.64-8.62-1.78-7.04-31.34,11.24-58.01,33.41-74.53,62.42-15.2,26.68-24.32,64.32-4.42,91.11,20.59,27.72,59.67,28.21,89.11,16.66,32.39-12.71,72.71-36.29,85.6-70.51,13.51-35.85-3.16-79.64-43-87.1Z" style="fill:url(#uuid-1affd6a1-5115-4d07-a124-ca75f4d46b61); stroke-width:0px;"/><path d="M2582.64,731.74c-.92,0-1.67-.74-1.68-1.67l-2.04-294.37c0-.93.74-1.68,1.67-1.69h.01c.92,0,1.67.74,1.68,1.67l2.04,294.37c0,.93-.74,1.68-1.67,1.69h-.01Z" style="fill:#91b3fa; stroke-width:0px;"/><path d="M2580.13,369.77c-.92,0-1.67-.74-1.68-1.67l-.71-102.81c0-.93.74-1.68,1.67-1.69h.01c.92,0,1.67.74,1.68,1.67l.71,102.81c0,.93-.74,1.68-1.67,1.69h-.01Z" style="fill:#91b3fa; stroke-width:0px;"/><circle cx="1950.07" cy="265.51" r="17.94" style="fill:#91b3fa; stroke-width:0px;"/><circle cx="2097.03" cy="264.13" r="17.94" style="fill:#91b3fa; stroke-width:0px;"/><circle cx="2245.37" cy="259.3" r="17.94" style="fill:#91b3fa; stroke-width:0px;"/><circle cx="2392.33" cy="252.41" r="17.94" style="fill:#91b3fa; stroke-width:0px;"/><path d="M2405.97,128.12c-30.18,6.59-27.34,85.99-24.91,118.23.57,7.59,6.89,13.44,14.5,13.44,2.11,0,4.12-.91,5.54-2.48,1.41-1.57,2.08-3.67,1.86-5.77-2.61-24.37-8.16-94.54,14.07-98.29,0,0,15.94-2.82,18.62,28.05h17.24s-8.97-61.46-46.92-53.18Z" style="fill:#7d97f4; stroke-width:0px;"/><path d="M2259.01,132.2c-30.18,6.59-27.34,86.02-24.91,118.26.57,7.59,6.89,13.45,14.5,13.45,2.11,0,4.12-.9,5.54-2.47,1.41-1.57,2.08-3.67,1.86-5.77-2.61-24.37-8.15-94.59,14.07-98.34,0,0,15.94-2.2,18.62,28h17.24s-8.97-61.4-46.92-53.12Z" style="fill:#7d97f4; stroke-width:0px;"/><path d="M2112.05,136.31c-30.18,6.59-27.34,86.04-24.91,118.28.57,7.59,6.89,13.46,14.5,13.46,2.11,0,4.12-.9,5.54-2.47,1.41-1.57,2.08-3.67,1.86-5.77-2.61-24.37-8.15-94.63,14.07-98.38,0,0,15.93-1.79,18.61,28.56l17.25-.6s-8.97-61.37-46.92-53.09Z" style="fill:#7d97f4; stroke-width:0px;"/><path d="M1965.09,141.05c-30.18,6.59-27.34,86.08-24.91,118.32.57,7.59,6.89,13.48,14.5,13.48,2.11,0,4.12-.89,5.54-2.46,1.41-1.57,2.08-3.66,1.86-5.76-2.61-24.37-8.15-94.71,14.07-98.46,0,0,15.94-2.32,18.62,27.88h17.24s-8.97-61.28-46.92-53Z" style="fill:#7d97f4; stroke-width:0px;"/><path d="M1032.41,1123.88h-490.72c-19.81,0-35.87-14.69-35.87-32.82v-292.32c0-17.41,14.87-31.8,33.88-32.77l509.65-25.99c21.34-1.09,38.98,15.03,37.82,34.55l-18.94,318.31c-1.04,17.41-16.76,31.03-35.82,31.03Z" style="fill:#91b3fa; stroke-width:0px;"/><path d="M798.51,947.49l268.24-204.37c-5.23-2.28-11.16-3.45-17.4-3.13l-509.65,25.99c-8.76.45-16.64,3.75-22.6,8.88l200.76,170.81c21.79,18.54,57.65,19.35,80.65,1.83Z" style="fill:#bdd0fb; stroke-width:0px;"/><path d="M761.22,937.36c-13.34,0-26.61-4.36-37.28-12.98l-75.64-61.09c-2.22-1.79-2.43-4.89-.47-6.92,1.96-2.03,5.35-2.23,7.57-.43l75.64,61.09c16.07,12.98,39.45,14.05,56.86,2.6l39.2-25.77c2.41-1.58,5.75-1.08,7.48,1.12,1.73,2.2,1.18,5.26-1.23,6.85l-39.2,25.77c-9.94,6.53-21.46,9.77-32.93,9.77Z" style="fill:#fff; opacity:.72; stroke-width:0px;"/><path d="M623.7,841.79c-1.26,0-2.53-.4-3.55-1.23l-10.18-8.22c-2.22-1.79-2.43-4.89-.47-6.92,1.96-2.03,5.35-2.22,7.57-.43l10.18,8.22c2.22,1.79,2.43,4.89.47,6.92-1.06,1.1-2.54,1.66-4.02,1.66Z" style="fill:#fff; opacity:.72; stroke-width:0px;"/><path d="M2318.54,1170.99v224.76c0,26.7,20.98,48.7,47.66,49.95l281.06,13.21c28.51,1.34,52.35-21.41,52.35-49.95v-237.96c0-27.62-22.39-50-50-50h-281.06c-27.62,0-50,22.39-50,50Z" style="fill:#91b3fa; stroke-width:0px;"/><path d="M2420.36,1403.77c-3.63,0-6.7-.04-9.13-.09-4.15-.08-7.56-3.14-8.09-7.26-.53-4.15,2.01-7.99,6.04-9.13,21.59-6.05,45.12-16.33,62.45-24.66-82.65-6.74-99.15-49.19-102.34-68.6-8.05-48.97,34.45-104.37,94.73-123.51,61.52-19.51,123.83-12.48,158.77,17.92,18.57,16.16,38.71,47.11,29.21,102.79-17.76,104.19-180.25,112.54-231.65,112.54ZM2413.26,1401.72h0,0ZM2411.54,1388.68h.02-.02ZM2530.95,1347.94l-26.18,14.6c-1.38.77-24.43,13.55-52.46,25.27,63.81-3.85,171.76-21.87,184.92-99.09,6.68-39.2-1.48-69.13-24.27-88.96-35.35-30.77-97.98-29.67-144.39-14.94-52.56,16.69-91.24,65.59-84.47,106.78,6.14,37.4,48.73,58.32,116.88,56.89l29.97-.55Z" style="fill:#fff; opacity:.72; stroke-width:0px;"/><path d="M1305.64,2502.46h-291.2c-22.27,0-40.32-13.94-40.32-31.13v-225.42c0-16.22,16.13-29.72,37.07-31.03l310.26-19.39c24.44-1.53,44.98,14,43.51,32.9l-19.06,244.8c-1.28,16.44-18.92,29.26-40.25,29.26Z" style="fill:#91b3fa; stroke-width:0px;"/><path d="M1055.9,2457.62c-8.09,0-15.66-2.83-20.95-7.89-4.32-4.13-6.7-9.43-6.7-14.95v-144.52c0-3.54,2.87-6.4,6.4-6.4s6.4,2.87,6.4,6.4v144.52c0,2.54,1.49,4.49,2.74,5.69,3.08,2.94,7.99,4.54,13.11,4.32l221.84-10.2c7.67-.35,13.91-4.84,13.91-10v-141.89c0-2.6-1.56-4.59-2.86-5.81-3.25-3.01-8.33-4.56-13.62-4.16l-184.54,14.11c-7.51.58-11.6,4.46-12.82,7.61-1.01,2.6-.36,5.24,1.87,7.62l70.38,74.98c2.76,2.94,7.39,4.73,12.38,4.77,5.03-.09,9.75-1.69,12.61-4.63l77.53-79.75c2.47-2.53,6.52-2.59,9.06-.12,2.54,2.46,2.59,6.52.13,9.06l-77.53,79.75c-5.33,5.48-13.28,8.49-21.91,8.51-8.54-.07-16.42-3.29-21.61-8.81l-70.38-74.99c-5.6-5.97-7.27-13.82-4.47-21.02,3.44-8.85,12.55-14.88,23.79-15.74l184.54-14.11c8.77-.67,17.49,2.15,23.3,7.53,4.49,4.16,6.97,9.56,6.97,15.2v141.89c0,12.11-11.48,22.13-26.13,22.8l-221.84,10.2c-.53.02-1.07.04-1.59.04Z" style="fill:#fff; opacity:.72; stroke-width:0px;"/><path d="M395.68,1311.71s-33.03,16.06-39.1,34.52c-4.87,14.81-41.39,16.72-45,45.84-1.86,15.04-12.99,27.08-27.96,29.37-37.3,5.72-94.78,25.08-103.97,89.84-7.02,49.43,18.18,68.17,44.62,74.66,19.42,4.76,32.33,23.66,28.4,43.26-3.77,18.81,1.85,40.55,34.43,57.74,73.02,38.53,145.93-91.28,145.93-91.28l14.94-226.65-52.3-57.31Z" style="fill:url(#uuid-6a3df473-89c2-426c-b6cf-e4b4ff274ea0); stroke-width:0px;"/><path d="M792.98,1257.98s-145.79,230.59-319.14,275.13c0,0,33.78,96.21,59.85,107.22,0,0,213.28-177.96,268.09-349.59l-8.8-32.77Z" style="fill:url(#uuid-243a0c81-db1b-45d1-a6d5-d041b3d6c7c0); stroke-width:0px;"/><path d="M95.56,2732.85l-4.73,38.84c-.9,7.37-6.7,13.2-14.07,14.04-12.45,1.42-32.43,2.88-51.98.81-8.58-.91-14.15-9.6-11.54-17.82,4.77-14.99,13.49-37.5,26.06-50.75h43.09c7.97,0,14.14,6.97,13.18,14.88Z" style="fill:url(#uuid-4efd8b96-9fc1-443c-9f77-c727b9701ec6); stroke-width:0px;"/><path d="M433.04,2277.83l7.27,42.78s-24.35,246.69-28.69,345.37c-.68,15.47,3.32,30.76,11.44,43.95l42.35,68.77-107.63-63.51-2.14-13.13,17.62-24.23-23.08-276.36c-1.36-16.23,1.99-32.52,9.65-46.9l22.26-41.82,50.94-34.92Z" style="fill:url(#uuid-44099784-051d-468f-a206-6da34d69f8fa); stroke-width:0px;"/><path d="M472.51,2788.66h-34.35c-6.43,0-12.49-2.95-16.41-8.05-10.71-13.91-32.89-41.06-43.5-41.77-14.28-.95-12.45,49.81-12.45,49.81h-8l-10.14-63.08c-2.55-15.87,5.34-31.6,19.59-39.03,0,0,3.26,24.14,20.96,34.82,17.7,10.68,72.03,48.92,72.03,48.92,0,0,6.65-.95,13.96.37,10.84,1.96,9.32,18.01-1.69,18.01Z" style="fill:url(#uuid-2d8a09b6-ed48-4ffc-8787-2c4cd6b8f36e); stroke-width:0px;"/><path d="M285.62,2298.15s-142.68,270.65-165.36,332.44c-22.68,61.79-30.63,113.34-30.93,118.22-.48,7.63-9.96,14.94-36.11,14.94-13.5,0-20.11-5.41-23.34-10.65-2.76-4.47-2.9-10.06-.58-14.77,8.25-16.7,34.44-70.08,44.14-94.29,11.58-28.91,36.49-159.9,50.16-205.44,13.66-45.55,29.11-94.95,88.6-140.46,0,0,40.84-40,73.42,0Z" style="fill:url(#uuid-003281b1-581e-4210-996d-24fbae656244); stroke-width:0px;"/><path d="M375.76,1854.69c36.8-155.95-56.43-244.16-56.43-244.16,58.83-56.47,166.02-82.17,166.02-82.17,0,0,102.28,74.78,90.15,133.31-7.11,34.3-71.89,205.48-71.89,205.48,0,0-59.9,28.35-127.84-12.45Z" style="fill:url(#uuid-d93ef8b5-f661-4eae-9700-ac0181fa354c); stroke-width:0px;"/><path d="M294.16,1931.9c14.98-45.12,81.6-77.21,81.6-77.21,67.94,40.8,127.84,12.45,127.84,12.45,0,0,13.43,51.35,4.16,99.07-9.27,47.72-67.45,354.41-67.45,354.41-91.66,18.57-232.64-18.69-232.64-18.69,58.38-103.66,71.5-324.91,86.48-370.03Z" style="fill:url(#uuid-8dd856c8-47fc-4244-876c-cc4ca6c5468d); stroke-width:0px;"/><path d="M418.48,1425.3l-29.92,134.41c-2.86,11.84,7.93,9.9,19.9,7.64,19.6-3.7,44.87-11.31,53.31-26.56.86-1.55,1.29-3.31,1.53-5.07l12.86-93.2c1.02-7.39-2.98-14.57-9.8-17.6l-24.81-11c-9.55-4.24-20.61,1.21-23.06,11.37Z" style="fill:url(#uuid-e205f685-e1dc-4edb-9309-d04814b5b64f); stroke-width:0px;"/><path d="M475.79,1302.77s31.86,21.56,45.54,76.48c13.69,54.92-8.56,74.61-31.36,73.41-22.8-1.21-55.86-8.26-84.51-47.66-28.65-39.4,28.58-128.58,70.33-102.23Z" style="fill:url(#uuid-2b3177d6-6c91-4b40-948b-163ab804b66d); stroke-width:0px;"/><path d="M434.35,1382.85s-11.67-78.69,53.66-66.65l13.21,13.75s31.98-36.01-3.41-63.24c-35.39-27.22-84.5-20.25-111.67,29.31-27.17,49.56-37.03,84.38-14.26,115.18,22.77,30.8,39.9,4.38,39.9,4.38,0,0-10.44-26.65-1.78-38.09,8.67-11.44,19.85,6.65,19.85,6.65l4.49-1.3Z" style="fill:url(#uuid-ca635e83-1621-4d5e-89ab-5713ed5b5dd4); stroke-width:0px;"/><path d="M425.42,1389.59s-5.76-40.48-26.44-28.91c-20.68,11.57,7.45,37.82,18.73,46.75l7.71-17.84Z" style="fill:url(#uuid-207d5eff-8ebd-41ab-83a0-0160bea7f534); stroke-width:0px;"/><path d="M791.98,1305.45c.44,4.76-17.25,8.04-22.88-12.23,1.55-8.8,4.3-47.36,11.05-53.35,35.95-31.9,100.06-67.79,100.06-67.79,7.17,10.95-2.23,18.16-2.23,18.16l-32,21.6c3.34,11.06,8.21,20.83,8.76,33.46.42,9.56-3.11,18.92-9.46,26.17-6.37,7.28-14.94,16.67-22.67,23.81-14.63,13.5-30.63,10.18-30.63,10.18Z" style="fill:url(#uuid-29e66d58-7ca1-4ec9-9230-f9f35ed22c15); stroke-width:0px;"/><path d="M809.36,1289.73l-4.89-2.01c.65-1.58,16.01-38.9,23.43-46.66,2.82-2.95,4.19-5.47,4.06-7.5-.06-1.1-.61-2.19-1.64-3.29l-25.89,13.85-11.44,17.91-4.46-2.85,12.18-19.07,30.33-16.22,1.37,1.11c3.07,2.51,4.65,5.2,4.84,8.24.22,3.62-1.58,7.37-5.51,11.49-5.6,5.84-18.05,34.47-22.37,45.01Z" style="fill:url(#uuid-e9dc696c-f4e1-4203-94c9-4202ab4ebc55); stroke-width:0px;"/><path d="M409.1,1936.96c.2.01.41.02.61.01l267.32-.29c6.61,0,11.96-5.31,11.95-11.85,0-6.54-5.39-11.94-11.98-11.83l-267.32.29c-6.61,0-11.96,5.31-11.95,11.85,0,6.33,5.04,11.5,11.36,11.81Z" style="fill:url(#uuid-f1bc5eb3-6831-4c74-878d-b99e564573f0); stroke-width:0px;"/><path d="M917.35,1696.81h-222.63c-16.42,0-31.37,9.38-38.38,24.08l-102.92,215.93h276.67c10.58,0,20.09-6.4,23.98-16.14l79.81-199.81c4.61-11.55-3.99-24.06-16.53-24.06Z" style="fill:url(#uuid-c06f6d56-7956-4160-823e-e3068ea67f40); stroke-width:0px;"/><ellipse cx="777.2" cy="1812.85" rx="28.24" ry="17.52" transform="translate(-1187.82 1983.5) rotate(-71.76)" style="fill:#91b3fa; stroke-width:0px;"/><path d="M318.94,1610.85c-36.47,36.81-82.75,199.95-59.79,227.2,20.22,31.72,89.05,74.9,154.6,74.96h96.71c-40.64-43.18-68.62-54.13-101.94-23.94-26.44-11.3-60.73-55.07-83.61-74.61-8.99-7.67-11.11-20.76-5.1-30.93,18.18-30.78,40.98-62.42,48.23-93.07,1.56-35.92-25.02-77.02-49.09-79.62Z" style="fill:url(#uuid-d12af441-53e0-4760-9a3e-e5d37f7901a7); stroke-width:0px;"/><path d="M2402.25,2472.51c15.25,3.03,102.15,54.74,102.15-4.38v-66.04s-106.53,69.55-102.15,70.42Z" style="fill:url(#uuid-0cd2eeeb-3c82-47b2-97a2-e3670e20d055); stroke-width:0px;"/><path d="M2097.31,2756.27s-20.19-16.76-47.04-14.32c-18.72,3.28-40.68,19.83-54.83,32.12-2.47,2.14-3.3,5.55-2.08,8.54,1.21,2.99,4.22,4.93,7.53,4.86,35.1-.73,103.78-2.81,103.78-7.99,0-6.95-7.35-23.22-7.35-23.22Z" style="fill:url(#uuid-7188d719-c3bd-4848-b5ed-c40dc386a56d); stroke-width:0px;"/><path d="M2111.22,2726.73l-16.11,30.43s-36.4,2.98-35.21-11.34c1.19-14.32,10.14-31.63,10.14-31.63l41.18,12.53Z" style="fill:url(#uuid-3b820c7f-4ca5-4108-9eef-58a6d30a759f); stroke-width:0px;"/><path d="M2522.64,2747.45c-25.24-137.82-21.17-221.84-21.17-221.84,0,0-302.23-184.98-330.87-140.82-28.64,44.16-110.73,345.52-110.73,345.52l54.73,14.92s104.63-141.72,114.18-262.72c26.94,88.25,52.04,299.13,259.29,305.18,10.29.3,20.16-4.07,26.87-11.87,6.71-7.81,9.56-18.24,7.7-28.36Z" style="fill:url(#uuid-a66f7ea5-9067-46da-b23c-32ad87fedf5c); stroke-width:0px;"/><polygon points="1917.87 2744.03 1884.45 2775.66 1858.2 2749.4 1892.81 2709.42 1917.87 2744.03" style="fill:url(#uuid-0792cb91-3c2c-4edb-abc4-c45df76ac1e5); stroke-width:0px;"/><path d="M2653.27,2057.59l27.9,102.83c1.28,4.71-.3,9.81-3.97,12.59-13.43,10.17-48.55,30.38-96.71,10.74-5.51-2.25-9.28-7.93-9.76-14.4l-6.61-89.58,89.16-22.18Z" style="fill:url(#uuid-a27e776b-cadd-4ea6-88f9-4f6dea7630b1); stroke-width:0px;"/><path d="M2489.95,1974.65s5.47,97.29,39.87,130c34.4,32.71,108.24,16.59,138.72-53.8l-37.85-128.03-140.75,51.84Z" style="fill:url(#uuid-a796ed8b-3d14-4709-80e3-ad6fdd0ed042); stroke-width:0px;"/><path d="M2619.76,2010.02c-2.89.67-5.67-1.39-5.86-4.34-.58-8.99-2.41-26.83-8.12-39.37,0,0,4.6-12.31-32.42,3.72-37.02,16.03-92.57,39.48-122.45,20.15-29.13-18.85-53.07-103.26,26.29-81.23,3.02.84,6.05-1.37,6.09-4.5.16-13.52,4.13-44.33,36.28-51.58,30.09-6.79,45,7.81,50.93,16.35,1.74,2.51,5.36,2.78,7.42.51,9.75-10.71,35.67-33.07,69.44-14.61,27.82,15.2,30.79,33.39,29.37,44.44-.46,3.58,2.98,6.33,6.37,5.1,9.2-3.32,23.62-4.23,35.8,14.03,16.84,25.23-11.85,43.42-20.39,48.1-1.4.77-2.35,2.16-2.49,3.74-1.12,12.28-5.43,67-34.87,94.94-2.55,2.42-8.96,0-10.04-3.35l-16.48-51.04c-.77-2.37-3.22-3.76-5.64-3.2l-9.22,2.13Z" style="fill:url(#uuid-7324e911-62e0-473a-b0fd-f98022a2ec21); stroke-width:0px;"/><path d="M2615.69,2017s17.02-50.36,34.78-32.02c17.76,18.34-9.56,53.03-32.14,58.16l-2.64-26.14Z" style="fill:url(#uuid-b904dea1-8800-4381-8719-5a1adc3af3c3); stroke-width:0px;"/><path d="M1900.75,2760.24c-8.17.09-42.55-15.01-42.55-15.01l-32.03,8.55c-27.91-4.29-51.89,5.21-68.04,14.87-3.53,2.11-5.22,6.31-4.16,10.28,1.06,3.97,4.63,6.76,8.74,6.83,31.61.52,83.52,1.05,109.81-.52,39.39-2.36,45.35-1.22,28.23-25Z" style="fill:url(#uuid-569d3c1d-20f5-4b48-b5db-3b25799681fe); stroke-width:0px;"/><path d="M2177.19,2420.35l-69.23-230.87c-2.82-9.42-11.19-16.1-21-16.77l-93.47-6.4c-9.5-.65-16.57,8.63-13.41,17.62l77.39,220.48c2.49,7.1,8.87,12.12,16.36,12.88l92.04,10.22,11.32-7.16Z" style="fill:url(#uuid-2c77956c-5f32-46c2-8ef5-b69b74b5a0eb); stroke-width:0px;"/><path d="M2165.87,2427.51c.15,0,.3,0,.45-.01l196.12-9.91c4.85-.24,8.58-4.37,8.33-9.22-.24-4.85-4.39-8.66-9.22-8.33l-196.12,9.91c-4.85.24-8.58,4.37-8.33,9.22.24,4.7,4.12,8.35,8.77,8.35Z" style="fill:url(#uuid-70377cc6-c442-4336-ae14-ae561c963e9c); stroke-width:0px;"/><path d="M2457.53,2399.68s-38.45,49.53-148.5-14.46c0,0-31.1-28.61-63.11-25.4-32.02,3.21-55.25,46.77-55.25,46.77l61.79-1.27s85.78,104.08,265.12,104.08c5.03-39.9-36-73.75-60.04-109.72Z" style="fill:url(#uuid-b65b6506-640e-40a8-bc15-d09f43007ca0); stroke-width:0px;"/><path d="M2609.83,2148.27c-23.41,5.15-49.39,29.9-67.76,50.75-14.74,16.73-25.4,36.22-31.65,57.62-14.07,48.23-44.87,142.59-65.25,151.61,46.15,65.55,53.93,87,53.93,87-8.67,78.21-26.84,93.86-26.84,93.86,0,0,90.14,89.48,199.32,114.94,99.43-73.2,114.63-282.61,114.63-282.61,7.79-248.37-106.93-288.43-176.37-273.16Z" style="fill:url(#uuid-f66d7223-e697-4579-bb55-b3de1898351a); stroke-width:0px;"/><path d="M2498.26,2497.88c-.63,0-1.26-.26-1.7-.78-.81-.94-.71-2.36.23-3.17.9-.78,90.52-79.02,114.64-179.45.29-1.2,1.51-1.94,2.71-1.66,1.21.29,1.95,1.5,1.66,2.71-24.46,101.86-115.15,181.01-116.07,181.8-.42.37-.94.55-1.47.55Z" style="fill:url(#uuid-0e7f1f4e-dc78-4cdb-a99a-1aabf9aa32f5); stroke-width:0px;"/><path d="M2671.57,2704.05s-44.76,133.08-265.66,58.48c-107.11-36.17-257.09-245.86-257.09-245.86,0,0-37,101.45-230.35,237.51l-42.97-38.59s195.73-337.36,295.99-302.35c100.25,35.01,530.71,204.49,500.08,290.82Z" style="fill:url(#uuid-d1e9cd38-fc43-4967-98d9-6350723d5569); stroke-width:0px;"/><polygon points="2002.9 2183.04 2078.26 2393.11 2158.29 2391.03 2094.49 2189.49 2002.9 2183.04" style="fill:#bdd0fb; stroke-width:0px;"/></g></g></svg>