<?xml version="1.0" encoding="UTF-8"?><svg id="uuid-a3b9e049-11e3-4a4a-959e-b2f9c43aca21" xmlns="http://www.w3.org/2000/svg" xmlns:xlink="http://www.w3.org/1999/xlink" viewBox="0 0 2780.15 2793.78"><defs><linearGradient id="uuid-8437acdb-8962-41a5-aea1-37df703c213a" x1="1445.98" y1="2731.31" x2="1416.34" y2="2144.34" gradientUnits="userSpaceOnUse"><stop offset="0" stop-color="#09005d"/><stop offset="1" stop-color="#1a0f91"/></linearGradient><linearGradient id="uuid-18883496-4e46-40e7-9a27-2ddaac135d40" x1="0" y1="1406.85" x2="2738.85" y2="1406.85" xlink:href="#uuid-8437acdb-8962-41a5-aea1-37df703c213a"/><linearGradient id="uuid-55fc84f0-c36b-49d9-8c65-851e7241a60a" x1="2925.06" y1="568.99" x2="-3016.1" y2="3539.57" gradientUnits="userSpaceOnUse"><stop offset="0" stop-color="#4f52ff"/><stop offset="1" stop-color="#4042e2"/></linearGradient><linearGradient id="uuid-7ce300a5-9186-4793-9892-f45ffc2e49e2" x1="1447.83" y1="2509.82" x2="1175.09" y2="3108.65" xlink:href="#uuid-8437acdb-8962-41a5-aea1-37df703c213a"/><linearGradient id="uuid-1437bf1c-97b1-40b6-8126-0cffa15f714c" x1="366.95" y1="1174.4" x2="690.9" y2="847.07" gradientTransform="translate(-17.59 33.09) rotate(9.82)" gradientUnits="userSpaceOnUse"><stop offset="0" stop-color="#ff928e"/><stop offset="1" stop-color="#fe7062"/></linearGradient><linearGradient id="uuid-fdfc50df-ddba-4dbb-b93c-da7ab27b7ba4" x1="393.77" y1="1200.94" x2="717.72" y2="873.61" xlink:href="#uuid-1437bf1c-97b1-40b6-8126-0cffa15f714c"/><linearGradient id="uuid-0d162289-f1f4-4c7b-852d-8f516e416260" x1="932.5" y1="2581.06" x2="873.87" y2="2696.37" xlink:href="#uuid-8437acdb-8962-41a5-aea1-37df703c213a"/><linearGradient id="uuid-550ea40e-c02f-4869-8f62-7c6596b7a23b" x1="821.01" y1="2626.95" x2="879.41" y2="2626.95" gradientUnits="userSpaceOnUse"><stop offset="0" stop-color="#febbba"/><stop offset="1" stop-color="#ff928e"/></linearGradient><linearGradient id="uuid-5f7dc029-341f-4c84-a8f9-3c424704d202" x1="740.18" y1="2472.41" x2="988.38" y2="2124.54" xlink:href="#uuid-8437acdb-8962-41a5-aea1-37df703c213a"/><linearGradient id="uuid-6c53cf42-ec31-4aeb-9f2a-847d0f63e626" x1="898.47" y1="2697.65" x2="695.22" y2="2963.44" xlink:href="#uuid-8437acdb-8962-41a5-aea1-37df703c213a"/><linearGradient id="uuid-e8cd90f6-03dd-450f-8be6-ddac68581b36" x1="796.75" y1="2755.21" x2="953.81" y2="2755.21" xlink:href="#uuid-55fc84f0-c36b-49d9-8c65-851e7241a60a"/><linearGradient id="uuid-a553d0d5-552e-4949-9b39-820349c0223d" x1="778.77" y1="2680.85" x2="833.59" y2="2680.85" xlink:href="#uuid-550ea40e-c02f-4869-8f62-7c6596b7a23b"/><linearGradient id="uuid-626638a3-0aba-418b-bcbf-d4b181c87026" x1="650.72" y1="2645.76" x2="664.4" y2="2180.63" xlink:href="#uuid-8437acdb-8962-41a5-aea1-37df703c213a"/><linearGradient id="uuid-28914959-efe9-40d6-bb76-22d838440377" x1="966.19" y1="1148.74" x2="891.95" y2="1857.41" gradientTransform="matrix(1,0,0,1,0,0)" xlink:href="#uuid-1437bf1c-97b1-40b6-8126-0cffa15f714c"/><linearGradient id="uuid-3860ae68-7fa9-44ef-9282-631b53e1aea4" x1="1096" y1="1719.01" x2="1041.85" y2="2072.13" xlink:href="#uuid-550ea40e-c02f-4869-8f62-7c6596b7a23b"/><linearGradient id="uuid-5ec7a3c7-a3e2-47ec-8d33-0bd9e96bd23c" x1="800.18" y1="1131.35" x2="725.93" y2="1840.02" gradientTransform="matrix(1,0,0,1,0,0)" xlink:href="#uuid-1437bf1c-97b1-40b6-8126-0cffa15f714c"/><linearGradient id="uuid-9b1d4fd7-58fc-4c1a-92f5-32b181026eee" x1="763.82" y1="1766.53" x2="890.69" y2="1766.53" xlink:href="#uuid-550ea40e-c02f-4869-8f62-7c6596b7a23b"/><linearGradient id="uuid-9f798fdc-2180-494d-9b08-bf71216314b5" x1="607.59" y1="1111.17" x2="533.35" y2="1819.84" gradientTransform="matrix(1,0,0,1,0,0)" xlink:href="#uuid-1437bf1c-97b1-40b6-8126-0cffa15f714c"/><linearGradient id="uuid-6f7779e2-0521-4bbf-811d-e637ea421a1d" x1="545.77" y1="1728.16" x2="569.39" y2="1842.9" gradientUnits="userSpaceOnUse"><stop offset="0" stop-color="#e1473d"/><stop offset="1" stop-color="#e9605a"/></linearGradient><linearGradient id="uuid-f4ec3f94-7dd4-4815-89d1-ca2d84d2648d" x1="677.3" y1="2051.04" x2="191.57" y2="2895.09" xlink:href="#uuid-550ea40e-c02f-4869-8f62-7c6596b7a23b"/><linearGradient id="uuid-d9cce8d3-dc09-4650-896a-57668e333904" x1="11324.42" y1="1651.96" x2="11317.35" y2="1859.11" gradientTransform="translate(-8661.97 -4506.91) rotate(29.93)" xlink:href="#uuid-550ea40e-c02f-4869-8f62-7c6596b7a23b"/><linearGradient id="uuid-7a5f56b1-7b0a-4285-9aed-081a6224aa08" x1="11294.67" y1="504.48" x2="11436" y2="686.44" gradientTransform="translate(-8661.97 -4506.91) rotate(29.93)" xlink:href="#uuid-8437acdb-8962-41a5-aea1-37df703c213a"/><linearGradient id="uuid-c89f538d-1047-4f5e-a2f5-c0595f1d82bc" x1="11273.3" y1="1650.23" x2="11266.24" y2="1857.39" gradientTransform="translate(-8661.97 -4506.91) rotate(29.93)" xlink:href="#uuid-550ea40e-c02f-4869-8f62-7c6596b7a23b"/><linearGradient id="uuid-d04772c1-316f-4686-8a20-dba948254c98" x1="11922.76" y1="2711.3" x2="11674.05" y2="2779.47" gradientTransform="translate(12783.58 -78.09) rotate(-177.17) scale(1 -1)" xlink:href="#uuid-8437acdb-8962-41a5-aea1-37df703c213a"/><linearGradient id="uuid-e2c1f37a-5c9f-4c6c-9c69-43514c7085d3" x1="11686.18" y1="1880.3" x2="11509.71" y2="2066.82" gradientTransform="translate(12763.98) rotate(-180) scale(1 -1)" xlink:href="#uuid-8437acdb-8962-41a5-aea1-37df703c213a"/><linearGradient id="uuid-149341e5-d7b4-42fb-b587-79b2afe4a468" x1="11579.49" y1="1926.75" x2="11499.42" y2="2047.32" gradientTransform="translate(6639 12362.16) rotate(-107.84) scale(1 -1)" gradientUnits="userSpaceOnUse"><stop offset="0" stop-color="#53d8ff"/><stop offset="1" stop-color="#3840f7"/></linearGradient></defs><path d="M1894.85,1944.59c-.88,0-1.76-.27-2.52-.84-1.84-1.39-2.21-4.01-.81-5.85,3.38-4.47,6.89-8.93,10.43-13.25,1.46-1.79,4.09-2.04,5.88-.59,1.79,1.46,2.05,4.09.59,5.88-3.47,4.24-6.91,8.62-10.23,13.01-.82,1.09-2.07,1.66-3.34,1.66Z" style="fill:#91b3fa; stroke-width:0px;"/><path d="M2675.78,2123.44c-1.95,0-3.7-1.38-4.09-3.36-2.21-11.08-4.88-22.21-7.96-33.08-.63-2.22.66-4.53,2.88-5.16,2.21-.66,4.53.66,5.16,2.88,3.13,11.08,5.86,22.43,8.11,33.72.45,2.26-1.02,4.46-3.28,4.91-.28.06-.55.08-.82.08ZM2649.16,2037.44c-1.62,0-3.17-.95-3.85-2.54-4.42-10.36-9.33-20.7-14.58-30.74-1.07-2.05-.28-4.57,1.77-5.64,2.04-1.08,4.57-.28,5.64,1.76,5.35,10.23,10.35,20.78,14.86,31.34.91,2.12-.08,4.58-2.2,5.48-.53.23-1.09.33-1.64.33ZM2605.54,1958.68c-1.32,0-2.62-.62-3.44-1.8-6.46-9.3-13.35-18.44-20.48-27.17-1.46-1.79-1.19-4.42.59-5.88,1.78-1.46,4.41-1.2,5.88.59,7.27,8.9,14.29,18.21,20.87,27.69,1.32,1.89.85,4.5-1.05,5.81-.73.51-1.56.75-2.38.75ZM1943.18,1890.63c-1.11,0-2.22-.44-3.04-1.31-1.58-1.68-1.51-4.32.17-5.9,8.36-7.9,17.14-15.57,26.11-22.81,1.79-1.45,4.43-1.17,5.88.63,1.45,1.8,1.17,4.43-.63,5.88-8.8,7.1-17.42,14.64-25.62,22.38-.81.76-1.84,1.14-2.87,1.14ZM2546.91,1890.38c-1.03,0-2.07-.38-2.87-1.15-8.19-7.76-16.79-15.29-25.58-22.39-1.8-1.45-2.08-4.08-.62-5.88,1.45-1.8,4.08-2.07,5.88-.63,8.95,7.23,17.73,14.91,26.08,22.83,1.68,1.59,1.75,4.23.16,5.9-.82.87-1.93,1.31-3.03,1.31ZM2014.61,1835.79c-1.4,0-2.77-.7-3.56-1.98-1.21-1.96-.6-4.54,1.36-5.75,9.82-6.07,19.98-11.81,30.18-17.07,2.05-1.06,4.57-.25,5.63,1.8,1.06,2.05.25,4.57-1.8,5.63-10.01,5.16-19.98,10.8-29.62,16.75-.68.42-1.44.62-2.19.62ZM2475.53,1835.57c-.75,0-1.5-.2-2.19-.62-9.58-5.9-19.55-11.51-29.64-16.68-2.05-1.05-2.86-3.57-1.81-5.62,1.05-2.05,3.57-2.86,5.62-1.81,10.28,5.26,20.44,10.98,30.21,16.99,1.96,1.21,2.58,3.78,1.37,5.75-.79,1.28-2.16,1.99-3.56,1.99ZM2095.63,1796.53c-1.71,0-3.31-1.05-3.93-2.75-.79-2.17.33-4.57,2.5-5.36,10.83-3.93,21.94-7.48,33.04-10.54,2.22-.61,4.52.69,5.14,2.91.61,2.22-.69,4.52-2.92,5.14-10.88,3.01-21.78,6.49-32.41,10.34-.47.17-.95.25-1.43.25ZM2394.44,1796.52c-.47,0-.95-.08-1.42-.25-10.62-3.83-21.53-7.29-32.42-10.29-2.23-.61-3.53-2.91-2.92-5.14.61-2.22,2.91-3.53,5.14-2.92,11.1,3.05,22.22,6.58,33.04,10.49,2.17.78,3.29,3.17,2.51,5.35-.61,1.71-2.22,2.76-3.93,2.76ZM2307.11,1774.77c-.2,0-.4-.01-.6-.04-11.16-1.6-22.55-2.78-33.84-3.51-2.3-.15-4.05-2.13-3.9-4.44.15-2.3,2.17-3.99,4.44-3.9,11.51.74,23.11,1.94,34.49,3.57,2.28.33,3.87,2.44,3.54,4.73-.3,2.08-2.09,3.59-4.13,3.59ZM2182.97,1774.7c-2.05,0-3.83-1.51-4.13-3.59-.32-2.28,1.26-4.4,3.55-4.73,11.4-1.62,23.01-2.82,34.5-3.54,2.34-.04,4.29,1.61,4.43,3.91.14,2.3-1.6,4.28-3.91,4.43-11.27.71-22.66,1.88-33.84,3.47-.2.03-.4.04-.6.04Z" style="fill:#91b3fa; stroke-width:0px;"/><path d="M2684.01,2195.61c-2.25,0-4.11-1.79-4.17-4.05-.17-5.48-.44-11.04-.82-16.52-.16-2.3,1.58-4.3,3.88-4.46,2.29-.05,4.3,1.58,4.45,3.88.38,5.59.67,11.25.83,16.84.07,2.31-1.74,4.23-4.05,4.3h-.13Z" style="fill:#91b3fa; stroke-width:0px;"/><path d="M2560.42,2515.02c-1.05,0-2.1-.39-2.91-1.18-1.65-1.61-1.69-4.26-.09-5.91,3.85-3.97,7.65-8.03,11.3-12.09,1.54-1.71,4.18-1.85,5.9-.31,1.72,1.54,1.86,4.19.31,5.9-3.72,4.13-7.59,8.28-11.52,12.32-.82.84-1.91,1.27-3,1.27Z" style="fill:#91b3fa; stroke-width:0px;"/><path d="M2245.57,2648.44l-3.78-.02c-2.31-.02-4.16-1.91-4.14-4.22.02-2.29,1.89-4.14,4.18-4.14h.04l3.7.02c9.87,0,19.88-.34,29.76-1.02,2.31-.05,4.3,1.58,4.45,3.88.16,2.3-1.58,4.3-3.88,4.46-10.07.69-20.27,1.04-30.33,1.04ZM2187.08,2644.53c-.19,0-.37-.01-.56-.04-11.22-1.51-22.53-3.46-33.61-5.82-2.26-.48-3.7-2.7-3.22-4.96.48-2.26,2.69-3.68,4.96-3.22,10.88,2.32,21.98,4.24,32.98,5.72,2.29.31,3.89,2.41,3.59,4.7-.28,2.1-2.07,3.62-4.14,3.62ZM2330.03,2640.22c-1.96,0-3.7-1.38-4.09-3.37-.45-2.26,1.03-4.46,3.29-4.91,10.92-2.15,21.87-4.75,32.57-7.73,2.22-.63,4.53.68,5.15,2.9.62,2.22-.68,4.53-2.9,5.15-10.9,3.04-22.07,5.69-33.2,7.88-.27.05-.54.08-.81.08ZM2100.9,2624.02c-.45,0-.92-.07-1.37-.23-10.72-3.72-21.41-7.9-31.77-12.42-2.11-.92-3.08-3.39-2.16-5.5.92-2.12,3.38-3.09,5.5-2.16,10.16,4.43,20.65,8.53,31.17,12.19,2.18.75,3.33,3.14,2.58,5.32-.6,1.73-2.22,2.81-3.95,2.81ZM2414.78,2614.36c-1.63,0-3.18-.96-3.85-2.56-.89-2.13.11-4.57,2.23-5.47,10.2-4.28,20.41-9.04,30.34-14.15,2.05-1.06,4.57-.24,5.63,1.81,1.06,2.05.24,4.57-1.81,5.63-10.12,5.2-20.52,10.05-30.92,14.42-.53.22-1.08.33-1.62.33ZM2020.57,2586.7c-.73,0-1.46-.19-2.13-.59-9.73-5.78-19.36-12.02-28.62-18.54-1.89-1.33-2.34-3.93-1.01-5.82,1.33-1.89,3.93-2.34,5.82-1.01,9.09,6.4,18.54,12.52,28.08,18.19,1.99,1.18,2.64,3.74,1.46,5.72-.78,1.31-2.17,2.04-3.6,2.04ZM2492.6,2572.01c-1.34,0-2.65-.64-3.46-1.82-1.3-1.91-.81-4.51,1.1-5.81,9.19-6.26,18.25-12.96,26.93-19.9,1.81-1.44,4.43-1.15,5.87.66,1.44,1.8,1.15,4.43-.65,5.87-8.84,7.07-18.08,13.89-27.44,20.27-.72.49-1.54.73-2.35.73ZM1949.42,2533.97c-1,0-2.01-.36-2.81-1.09-8.35-7.61-16.52-15.67-24.29-23.95-1.58-1.68-1.5-4.32.19-5.9,1.68-1.58,4.33-1.51,5.91.18,7.63,8.12,15.65,16.03,23.83,23.5,1.71,1.55,1.83,4.19.27,5.9-.82.91-1.95,1.36-3.09,1.36ZM1890.38,2467.95c-1.29,0-2.56-.6-3.38-1.72-5.24-7.2-10.34-14.68-15.17-22.22-1.3-2.03-2.58-4.07-3.84-6.11-1.21-1.97-.6-4.54,1.36-5.75,1.96-1.22,4.54-.6,5.75,1.36,1.24,2.01,2.49,4.01,3.77,6,4.74,7.41,9.75,14.74,14.89,21.81,1.36,1.86.94,4.48-.92,5.84-.74.54-1.6.8-2.45.8ZM1845.65,2391.48c-1.59,0-3.1-.91-3.8-2.44-4.71-10.3-9.08-20.92-12.98-31.56-.79-2.17.32-4.57,2.48-5.36,2.16-.8,4.56.32,5.36,2.48,3.83,10.44,8.11,20.85,12.74,30.96.96,2.1.03,4.58-2.06,5.54-.56.26-1.15.38-1.74.38ZM1817.16,2307.59c-1.9,0-3.63-1.31-4.07-3.24-2.53-11.03-4.66-22.32-6.34-33.53-.34-2.28,1.23-4.41,3.52-4.75,2.25-.34,4.41,1.23,4.75,3.52,1.64,11,3.73,22.07,6.21,32.9.52,2.25-.89,4.49-3.14,5.01-.31.07-.63.11-.94.11Z" style="fill:#91b3fa; stroke-width:0px;"/><path d="M1806.21,2219.51c-2.26,0-4.13-1.81-4.17-4.08-.12-5.57-.14-11.24-.06-16.86.04-2.31,1.95-4.06,4.24-4.11,2.31.04,4.15,1.94,4.11,4.24-.09,5.52-.07,11.09.05,16.55.05,2.31-1.77,4.22-4.08,4.27h-.1Z" style="fill:#91b3fa; stroke-width:0px;"/><path d="M1911.27,2157.69c-.55,2.18.34,4.47,2.22,5.7l53.63,35.16c-.54,29.94,3.68,60.19,13,89.57l-41.36,48.95c-1.45,1.72-1.65,4.17-.5,6.1l39.36,66.09c1.15,1.93,3.4,2.92,5.6,2.46l62.74-13.05c21.4,22.18,45.98,40.31,72.56,54.09l5.37,63.9c.19,2.24,1.78,4.11,3.96,4.67l74.56,18.9c2.18.55,4.47-.34,5.7-2.22l35.16-53.63c29.94.54,60.19-3.68,89.57-13l48.95,41.36c1.72,1.45,4.16,1.65,6.1.5l66.09-39.36c1.93-1.15,2.92-3.4,2.46-5.6l-13.05-62.74c22.18-21.39,40.31-45.97,54.09-72.56l63.9-5.37c2.24-.19,4.11-1.78,4.67-3.96l18.9-74.56c.55-2.18-.34-4.47-2.22-5.7l-53.63-35.16c.54-29.94-3.68-60.19-13-89.57l41.36-48.95c1.45-1.72,1.65-4.16.5-6.1l-39.36-66.09c-1.15-1.93-3.4-2.92-5.6-2.46l-62.74,13.05c-21.39-22.19-45.98-40.31-72.56-54.09l-5.37-63.9c-.19-2.24-1.78-4.12-3.96-4.67l-74.56-18.9c-2.18-.55-4.47.34-5.7,2.22l-35.16,53.63c-29.94-.54-60.19,3.68-89.57,13l-48.95-41.36c-1.71-1.45-4.16-1.65-6.1-.5l-66.09,39.36c-1.93,1.15-2.92,3.4-2.46,5.6l13.05,62.74c-22.18,21.39-40.31,45.98-54.09,72.56l-63.9,5.37c-2.24.19-4.11,1.78-4.67,3.96l-18.9,74.56Z" style="fill:#91b3fa; stroke-width:0px;"/><path d="M2248.11,2277.95h-.05c-19.94-.02-38.66-7.79-52.73-21.89-14.07-14.1-21.81-32.83-21.79-52.75.02-19.92,7.79-38.64,21.89-52.71,29.1-29.05,76.41-29,105.46.1,14.07,14.1,21.81,32.83,21.79,52.75-.02,19.92-7.79,38.64-21.89,52.71-14.08,14.05-32.79,21.79-52.68,21.79ZM2248.11,2141.34c-16.55,0-32.11,6.44-43.82,18.13-11.73,11.71-18.2,27.28-18.21,43.85-.02,16.57,6.42,32.16,18.13,43.88,11.71,11.73,27.28,18.19,43.85,18.21h.06c16.55,0,32.11-6.44,43.82-18.13,11.73-11.71,18.2-27.28,18.21-43.85.02-16.57-6.42-32.16-18.13-43.88-11.71-11.73-27.28-18.19-43.85-18.21h-.06Z" style="fill:#bdd0fb; stroke-width:0px;"/><path d="M2250.04,2395.48c-65.45,0-129.31-33.45-165.17-93.65-7-11.76-12.75-24.25-17.08-37.11l11.88-4c4.05,12.02,9.42,23.69,15.97,34.69,39.76,66.75,116.36,98.32,188.56,84.23.13-.02.27-.05.4-.08.14-.03.27-.05.41-.08,19.42-3.88,38.51-11.07,56.48-21.77,41.16-24.51,70.3-63.58,82.07-110.02,3.73-14.72,5.57-29.62,5.57-44.41,0-31.89-8.59-63.31-25.33-91.42-50.61-84.96-160.9-112.92-245.86-62.31-27.94,16.64-50.8,40.49-66.11,68.96l-11.04-5.94c16.39-30.47,40.85-55.98,70.73-73.79,90.9-54.13,208.9-24.23,263.04,66.67,17.92,30.08,27.1,63.69,27.1,97.81,0,15.83-1.97,31.77-5.96,47.51-12.59,49.68-43.78,91.49-87.81,117.71-30.7,18.28-64.49,26.98-97.87,26.98Z" style="fill:#bdd0fb; stroke-width:0px;"/><path d="M209.38,214.53c-1.04,0-2.08-.32-2.97-1-2.17-1.64-2.6-4.73-.96-6.91,3.99-5.27,8.13-10.54,12.31-15.64,1.72-2.11,4.83-2.41,6.94-.7,2.11,1.72,2.42,4.83.7,6.94-4.09,5.01-8.16,10.18-12.07,15.35-.97,1.28-2.45,1.96-3.94,1.96Z" style="fill:#91b3fa; stroke-width:0px;"/><path d="M1131.15,425.63c-2.3,0-4.36-1.62-4.83-3.97-2.61-13.08-5.76-26.22-9.39-39.04-.74-2.63.78-5.35,3.4-6.09,2.61-.78,5.35.78,6.09,3.4,3.7,13.08,6.92,26.47,9.58,39.8.53,2.67-1.2,5.27-3.88,5.8-.33.07-.65.1-.97.1ZM1099.74,324.12c-1.92,0-3.74-1.12-4.54-3-5.22-12.23-11.01-24.44-17.21-36.29-1.26-2.42-.33-5.39,2.09-6.66,2.41-1.27,5.39-.33,6.66,2.08,6.31,12.08,12.22,24.52,17.54,36.99,1.07,2.5-.1,5.4-2.6,6.47-.63.27-1.29.4-1.93.4ZM1048.25,231.15c-1.56,0-3.1-.74-4.06-2.12-7.62-10.98-15.75-21.76-24.17-32.07-1.72-2.11-1.41-5.22.7-6.94,2.1-1.72,5.21-1.42,6.94.7,8.58,10.5,16.86,21.5,24.63,32.68,1.55,2.23,1,5.31-1.24,6.86-.86.6-1.84.88-2.81.88ZM266.44,150.83c-1.31,0-2.61-.52-3.59-1.55-1.87-1.98-1.78-5.1.2-6.97,9.86-9.32,20.23-18.38,30.82-26.93,2.11-1.71,5.22-1.38,6.94.74,1.71,2.12,1.38,5.23-.74,6.94-10.39,8.39-20.56,17.28-30.24,26.42-.95.9-2.17,1.35-3.39,1.35ZM979.04,150.54c-1.22,0-2.44-.45-3.39-1.35-9.66-9.16-19.82-18.05-30.19-26.42-2.12-1.71-2.45-4.82-.74-6.94,1.71-2.12,4.82-2.45,6.94-.74,10.57,8.54,20.92,17.6,30.78,26.94,1.98,1.87,2.06,4.99.19,6.97-.97,1.03-2.28,1.54-3.58,1.54ZM350.74,86.11c-1.65,0-3.27-.83-4.2-2.34-1.43-2.32-.71-5.36,1.61-6.79,11.6-7.16,23.58-13.94,35.63-20.15,2.42-1.25,5.4-.3,6.64,2.12,1.25,2.42.3,5.39-2.12,6.64-11.82,6.09-23.58,12.74-34.96,19.77-.81.5-1.7.74-2.59.74ZM894.79,85.85c-.88,0-1.77-.24-2.58-.73-11.31-6.96-23.08-13.59-34.98-19.68-2.42-1.24-3.38-4.21-2.14-6.64,1.24-2.42,4.21-3.38,6.64-2.14,12.13,6.21,24.13,12.96,35.66,20.06,2.32,1.43,3.04,4.46,1.61,6.79-.93,1.51-2.55,2.35-4.2,2.35ZM446.37,39.76c-2.02,0-3.91-1.24-4.64-3.25-.93-2.56.39-5.39,2.95-6.32,12.78-4.64,25.9-8.83,39-12.44,2.62-.72,5.34.81,6.07,3.44.72,2.62-.81,5.34-3.44,6.07-12.84,3.55-25.71,7.66-38.25,12.21-.56.2-1.12.3-1.68.3ZM799.08,39.75c-.56,0-1.12-.09-1.67-.29-12.53-4.52-25.41-8.61-38.27-12.15-2.63-.72-4.17-3.43-3.45-6.06.72-2.62,3.44-4.17,6.06-3.44,13.11,3.6,26.23,7.77,39,12.38,2.56.92,3.89,3.75,2.96,6.31-.72,2.01-2.62,3.26-4.64,3.26ZM695.99,14.07c-.23,0-.47-.01-.71-.05-13.18-1.89-26.62-3.28-39.94-4.14-2.72-.17-4.78-2.52-4.61-5.24.18-2.72,2.56-4.71,5.24-4.6,13.58.87,27.28,2.29,40.71,4.21,2.69.39,4.57,2.89,4.18,5.58-.35,2.46-2.46,4.23-4.87,4.23ZM549.46,13.99c-2.42,0-4.52-1.78-4.88-4.24-.38-2.69,1.49-5.19,4.19-5.58,13.46-1.92,27.16-3.32,40.72-4.18,2.76-.05,5.06,1.9,5.23,4.61.17,2.72-1.89,5.06-4.61,5.23-13.3.84-26.74,2.22-39.95,4.1-.24.03-.47.05-.7.05Z" style="fill:#91b3fa; stroke-width:0px;"/><path d="M1140.86,510.81c-2.65,0-4.85-2.11-4.93-4.78-.2-6.47-.52-13.03-.97-19.5-.19-2.72,1.86-5.07,4.58-5.26,2.7-.06,5.07,1.87,5.26,4.59.45,6.59.79,13.28.99,19.88.08,2.72-2.06,4.99-4.78,5.08h-.15Z" style="fill:#91b3fa; stroke-width:0px;"/><path d="M994.99,887.83c-1.24,0-2.48-.46-3.44-1.39-1.95-1.9-2-5.02-.1-6.97,4.55-4.68,9.03-9.48,13.34-14.28,1.82-2.01,4.94-2.18,6.96-.37,2.03,1.82,2.19,4.94.37,6.97-4.39,4.88-8.96,9.77-13.6,14.54-.97,1-2.25,1.5-3.54,1.5Z" style="fill:#91b3fa; stroke-width:0px;"/><path d="M623.36,1045.31l-4.47-.02c-2.72-.03-4.91-2.26-4.88-4.98.03-2.71,2.23-4.88,4.93-4.88h.05l4.37.02c11.65,0,23.46-.4,35.12-1.2,2.73-.06,5.07,1.87,5.26,4.59.19,2.72-1.87,5.07-4.58,5.26-11.88.81-23.92,1.22-35.8,1.22ZM554.32,1040.7c-.22,0-.44-.01-.66-.04-13.24-1.78-26.59-4.09-39.68-6.87-2.66-.57-4.36-3.19-3.8-5.85.57-2.67,3.18-4.34,5.85-3.8,12.84,2.74,25.94,5.01,38.93,6.75,2.7.36,4.59,2.85,4.23,5.54-.33,2.48-2.45,4.28-4.88,4.28ZM723.05,1035.61c-2.31,0-4.37-1.63-4.83-3.98-.53-2.67,1.21-5.27,3.89-5.79,12.89-2.53,25.82-5.61,38.44-9.12,2.62-.75,5.34.8,6.08,3.42.73,2.62-.8,5.34-3.43,6.07-12.87,3.59-26.05,6.72-39.19,9.31-.32.06-.64.09-.96.09ZM452.59,1016.49c-.54,0-1.08-.09-1.62-.27-12.66-4.39-25.27-9.32-37.5-14.66-2.49-1.09-3.64-4-2.55-6.49,1.08-2.5,3.99-3.65,6.49-2.55,12,5.23,24.38,10.07,36.8,14.39,2.57.89,3.93,3.7,3.04,6.28-.71,2.04-2.62,3.31-4.66,3.31ZM823.08,1005.09c-1.93,0-3.76-1.14-4.55-3.02-1.05-2.51.13-5.4,2.64-6.45,12.05-5.06,24.09-10.67,35.81-16.7,2.42-1.25,5.4-.29,6.64,2.13,1.25,2.42.29,5.39-2.13,6.64-11.94,6.14-24.23,11.86-36.5,17.02-.62.26-1.27.39-1.91.39ZM357.78,972.43c-.86,0-1.72-.22-2.51-.69-11.48-6.82-22.85-14.18-33.79-21.88-2.23-1.57-2.76-4.64-1.19-6.87,1.57-2.23,4.64-2.76,6.87-1.19,10.73,7.55,21.88,14.78,33.15,21.47,2.34,1.39,3.11,4.42,1.72,6.76-.92,1.55-2.56,2.41-4.25,2.41ZM914.94,955.1c-1.58,0-3.13-.75-4.08-2.15-1.53-2.25-.95-5.32,1.3-6.85,10.84-7.39,21.54-15.3,31.78-23.48,2.13-1.7,5.23-1.35,6.93.78,1.7,2.12,1.35,5.23-.77,6.93-10.44,8.34-21.34,16.39-32.38,23.93-.85.58-1.82.86-2.77.86ZM273.8,910.2c-1.18,0-2.38-.42-3.32-1.29-9.85-8.98-19.5-18.49-28.67-28.27-1.86-1.98-1.77-5.1.22-6.97,1.98-1.86,5.11-1.78,6.97.22,9,9.59,18.47,18.92,28.13,27.74,2.01,1.84,2.16,4.95.32,6.96-.97,1.07-2.31,1.61-3.65,1.61ZM204.1,832.28c-1.52,0-3.03-.7-3.99-2.03-6.18-8.5-12.21-17.32-17.9-26.23-1.53-2.4-3.05-4.81-4.53-7.21-1.43-2.32-.71-5.36,1.61-6.79,2.31-1.44,5.35-.71,6.79,1.6,1.46,2.37,2.94,4.73,4.45,7.08,5.59,8.74,11.5,17.4,17.57,25.75,1.6,2.2,1.12,5.28-1.09,6.89-.88.64-1.89.94-2.9.94ZM151.31,742.01c-1.87,0-3.66-1.07-4.49-2.88-5.56-12.16-10.72-24.69-15.32-37.25-.94-2.56.38-5.39,2.93-6.33,2.55-.95,5.39.38,6.33,2.93,4.52,12.32,9.58,24.62,15.03,36.55,1.13,2.48.04,5.4-2.43,6.54-.66.3-1.36.45-2.05.45ZM117.68,642.99c-2.25,0-4.28-1.55-4.8-3.83-2.99-13.02-5.5-26.34-7.48-39.58-.4-2.69,1.46-5.2,4.15-5.61,2.66-.4,5.2,1.45,5.61,4.15,1.94,12.99,4.4,26.06,7.34,38.83.61,2.65-1.05,5.3-3.7,5.91-.37.09-.74.13-1.11.13Z" style="fill:#91b3fa; stroke-width:0px;"/><path d="M104.76,539.03c-2.67,0-4.87-2.14-4.93-4.82-.15-6.57-.17-13.26-.07-19.91.04-2.73,2.3-4.79,5.01-4.85,2.72.04,4.9,2.29,4.85,5.01-.1,6.52-.08,13.09.06,19.53.06,2.73-2.1,4.98-4.82,5.04h-.11Z" style="fill:#91b3fa; stroke-width:0px;"/><path d="M228.77,466.05c-.65,2.57.4,5.27,2.62,6.73l63.3,41.5c-.64,35.34,4.35,71.04,15.35,105.72l-48.82,57.78c-1.71,2.03-1.95,4.92-.59,7.2l46.46,78.01c1.36,2.28,4.01,3.45,6.61,2.91l74.06-15.41c25.25,26.18,54.27,47.58,85.65,63.85l6.34,75.43c.22,2.64,2.1,4.86,4.67,5.51l88.01,22.31c2.57.65,5.28-.4,6.73-2.62l41.5-63.3c35.34.64,71.04-4.35,105.72-15.35l57.78,48.82c2.03,1.71,4.92,1.95,7.2.59l78.01-46.46c2.28-1.36,3.45-4.01,2.91-6.61l-15.41-74.06c26.19-25.25,47.58-54.27,63.85-85.65l75.43-6.34c2.64-.22,4.85-2.1,5.51-4.67l22.31-88.01c.65-2.57-.4-5.27-2.62-6.73l-63.3-41.5c.64-35.34-4.35-71.04-15.34-105.72l48.82-57.78c1.71-2.03,1.95-4.92.59-7.19l-46.46-78.01c-1.36-2.28-4.01-3.45-6.61-2.91l-74.06,15.41c-25.25-26.19-54.27-47.58-85.65-63.85l-6.34-75.43c-.22-2.64-2.1-4.86-4.67-5.51l-88.01-22.31c-2.57-.65-5.27.4-6.73,2.62l-41.5,63.3c-35.34-.64-71.04,4.35-105.72,15.35l-57.78-48.82c-2.02-1.71-4.92-1.95-7.19-.59l-78.01,46.46c-2.28,1.36-3.45,4.01-2.91,6.61l15.41,74.06c-26.18,25.25-47.58,54.27-63.85,85.65l-75.43,6.34c-2.64.22-4.86,2.1-5.51,4.67l-22.3,88.01Z" style="fill:#91b3fa; stroke-width:0px;"/><path d="M626.36,608h-.08c-23.51-.02-45.6-9.2-62.21-25.84-16.61-16.64-25.74-38.75-25.72-62.26.02-23.51,9.2-45.61,25.84-62.22,34.35-34.29,90.19-34.23,124.48.12,16.61,16.64,25.74,38.75,25.72,62.26-.02,23.51-9.2,45.61-25.84,62.22-16.62,16.59-38.7,25.72-62.18,25.72ZM626.36,446.76c-19.53,0-37.9,7.6-51.73,21.4-13.84,13.82-21.48,32.2-21.49,51.76-.02,19.56,7.58,37.96,21.4,51.8,13.82,13.84,32.2,21.48,51.76,21.49h.05c19.56,0,37.92-7.6,51.75-21.4,13.84-13.82,21.48-32.2,21.49-51.75.02-19.56-7.58-37.96-21.4-51.8-13.82-13.84-32.2-21.47-51.76-21.49h-.07Z" style="fill:#bdd0fb; stroke-width:0px;"/><path d="M628.64,746.73c-77.26,0-152.63-39.48-194.96-110.54-8.27-13.88-15.05-28.62-20.16-43.8l14.02-4.72c4.78,14.19,11.12,27.97,18.85,40.95,46.93,78.78,137.35,116.06,222.57,99.43.16-.03.32-.06.48-.09.17-.03.32-.06.49-.1,22.93-4.58,45.46-13.07,66.66-25.69,48.58-28.93,82.98-75.05,96.88-129.86,4.4-17.37,6.58-34.96,6.57-52.42,0-37.64-10.14-74.73-29.9-107.91-59.73-100.28-189.91-133.28-290.2-73.55-32.97,19.64-59.96,47.79-78.03,81.39l-13.03-7.01c19.34-35.96,48.21-66.08,83.49-87.1,107.29-63.89,246.57-28.6,310.48,78.69,21.15,35.51,31.98,75.18,31.99,115.45,0,18.69-2.32,37.5-7.03,56.08-14.86,58.64-51.67,107.99-103.64,138.94-36.23,21.58-76.13,31.85-115.52,31.85Z" style="fill:#bdd0fb; stroke-width:0px;"/><polygon points="1198.25 2064.95 1149.01 2506.53 1720.24 2506.53 1645.84 2064.95 1198.25 2064.95" style="fill:url(#uuid-8437acdb-8962-41a5-aea1-37df703c213a); stroke-width:0px;"/><path d="M0,758.16v1214.75c0,99.93,79.63,181.65,179.53,184.22,443.69,11.44,1995.49,39.18,2417.85,32.96,72.59-1.07,131.4-59.16,133.49-131.73,8.14-282.2,21.37-960.81-27.58-1275.86-10.31-66.35-66.31-115.96-133.42-118.1-371.75-11.89-2016.76-49.66-2438.93-40.17C58.14,625.86,0,685.33,0,758.16Z" style="fill:url(#uuid-18883496-4e46-40e7-9a27-2ddaac135d40); stroke-width:0px;"/><path d="M76.22,752.25v1154.1c0,58.34,46.83,105.88,105.17,106.76l2355.22,29.1c57.84.86,105.25-45.67,105.46-103.51l3.94-1143.79c.15-41.36-32.8-75.25-74.14-76.25l-2411.31-48.72c-46.25-1.13-84.34,36.06-84.34,82.31Z" style="fill:url(#uuid-55fc84f0-c36b-49d9-8c65-851e7241a60a); stroke-width:0px;"/><path d="M2659.81,2089.61h-.06l-2583.58-44.02c-1.87-.03-3.35-1.57-3.32-3.43.03-1.86,1.64-3.24,3.43-3.32l2583.58,44.02c1.87.03,3.35,1.57,3.32,3.43-.03,1.84-1.54,3.32-3.37,3.32Z" style="fill:#91b3fa; stroke-width:0px;"/><path d="M1393.5,2143.37c-16.68,0-30.26-13.57-30.26-30.26s13.57-30.26,30.26-30.26,30.26,13.57,30.26,30.26-13.57,30.26-30.26,30.26ZM1393.5,2089.61c-12.96,0-23.51,10.55-23.51,23.51s10.55,23.51,23.51,23.51,23.51-10.55,23.51-23.51-10.55-23.51-23.51-23.51Z" style="fill:#91b3fa; stroke-width:0px;"/><path d="M1843.29,2596.87h-836.04c-22.71,0-39.77-16.17-35.38-33.54l10.73-42.43c3.23-12.76,17.26-22.13,33.94-22.65l805.97-25.15c17.42-.54,32.84,8.7,36.64,21.96l19.34,67.58c5.03,17.56-12.11,34.22-35.19,34.22Z" style="fill:url(#uuid-7ce300a5-9186-4793-9892-f45ffc2e49e2); stroke-width:0px;"/><path d="M1457.3,2510.41c-1.84,0-3.35-1.48-3.37-3.33-.03-1.86,1.46-3.4,3.33-3.42l34.54-.51h.05c1.84,0,3.35,1.48,3.37,3.33.03,1.86-1.46,3.4-3.33,3.42l-34.54.51h-.05Z" style="fill:#91b3fa; stroke-width:0px;"/><path d="M1002.82,2574.13c-.17,0-.36-.01-.53-.04-1.84-.29-3.09-2.02-2.8-3.86l4.93-30.86c2.7-16.89,17.07-29.34,34.18-29.59l366.32-5.36c1.92-.09,3.4,1.46,3.42,3.33.03,1.86-1.46,3.4-3.33,3.42l-366.32,5.36c-13.82.2-25.43,10.26-27.61,23.9l-4.93,30.86c-.26,1.66-1.7,2.84-3.33,2.84Z" style="fill:#91b3fa; stroke-width:0px;"/><path d="M2472.07,771.89l-2250.77-27.71c-35.47-.44-64.31,28.58-64.82,64.87l-14.47,1048.19c-.5,35.82,27.17,65.47,62.16,66.71l2263.54,80.09c31.49,1.11,60.99-10.91,83.66-33.3,22.66-22.4,34.38-53.25,34.38-85.49v-994.51c0-65.09-50.07-118.07-113.69-118.85Z" style="fill:#fff; opacity:.03; stroke-width:0px;"/><path d="M203.89,714.89h1150.63c31.37,0,56.65,31.74,56.08,70.44l-16.19,1101.12c-.76,51.82-35.31,93.16-77.33,92.51l-1114.43-17.25c-30.71-.48-55.4-31.33-55.38-69.22l.54-1108.46c.02-38.19,25.12-69.14,56.09-69.14Z" style="fill:#7d97f4; stroke-width:0px;"/><path d="M222.09,747.36h1104.87c30.13,0,54.39,30.42,53.85,67.51l-15.54,1055.34c-.73,49.67-33.91,89.28-74.26,88.66l-1070.11-16.53c-29.49-.46-53.2-30.03-53.18-66.34l.51-1062.37c.02-36.6,24.12-66.27,53.86-66.27Z" style="fill:#91b3fa; stroke-width:0px;"/><path d="M982.76,874.54c-.11,0-.23,0-.34,0l-729.66-8.14c-19.88-.22-36.05-15.94-36.05-35.03v-28.61c0-7.52,3.05-14.58,8.6-19.88,5.49-5.23,12.76-8.12,20.49-8.12h741.9c7.86,0,15.36,3.24,20.59,8.89,5.02,5.42,7.47,12.39,6.91,19.63l-3.5,45.4c-1.12,14.56-13.8,25.86-28.94,25.86ZM245.81,784.89c-5.11,0-9.9,1.89-13.5,5.32-3.53,3.37-5.47,7.83-5.47,12.55v28.61c0,13.57,11.69,24.75,26.04,24.91l729.66,8.14c.08,0,.15,0,.23,0,9.87,0,18.13-7.21,18.85-16.51l3.5-45.4c.34-4.4-1.17-8.65-4.24-11.97-3.32-3.58-8.11-5.64-13.16-5.64H245.81Z" style="fill:#fff; stroke-width:0px;"/><path d="M973.86,859.2l-707.83-5.96c-16.69-.14-30.11-9.93-30.11-21.95v-20.95c0-9.28,10.43-16.8,23.3-16.8h719.71c12.69,0,22.71,7.77,21.78,16.89l-3.4,33.26c-.9,8.82-11.17,15.62-23.45,15.52Z" style="fill:#fff; opacity:.4; stroke-width:0px;"/><path d="M1216.22,982.02H222.05c-6.6,0-11.94-5.89-11.94-13.16v-35.21c0-7.32,5.41-13.23,12.05-13.16l994.17,9.69c6.55.06,11.84,5.94,11.84,13.16v25.53c0,7.27-5.35,13.16-11.94,13.16Z" style="fill:#fff; opacity:.59; stroke-width:0px;"/><path d="M1294.9,1221.82l-1046.97-13.96c-18.62-.25-33.58-15.41-33.58-34.03v-143.75c0-19.15,15.63-34.61,34.78-34.41l1043.92,11.16c20.59.22,37.16,16.97,37.16,37.56v142.57c0,19.43-15.89,35.11-35.32,34.85Z" style="fill:#fff; opacity:.4; stroke-width:0px;"/><path d="M1125.86,1328.85H220.57c-6.01,0-10.88-5.89-10.88-13.17v-35.21c0-7.32,4.93-13.23,10.97-13.16l905.29,9.69c5.97.06,10.78,5.94,10.78,13.16v25.52c0,7.27-4.87,13.17-10.88,13.17Z" style="fill:#fff; opacity:.59; stroke-width:0px;"/><path d="M1294.49,1590.13l-1046.97-15.29c-18.62-.27-33.58-16.87-33.58-37.26v-157.41c0-20.97,15.63-37.9,34.78-37.67l1043.92,12.22c20.59.24,37.16,18.59,37.16,41.13v156.11c0,21.28-15.89,38.45-35.32,38.16Z" style="fill:#fff; opacity:.4; stroke-width:0px;"/><path d="M1321.31,1703.07H224.99c-7.27,0-13.17-5.89-13.17-13.16v-35.21c0-7.32,5.97-13.23,13.29-13.16l1096.32,9.69c7.23.06,13.05,5.94,13.05,13.16v25.53c0,7.27-5.9,13.16-13.17,13.16Z" style="fill:#fff; opacity:.59; stroke-width:0px;"/><path d="M1296.61,1931.91l-1046.97-13.29c-18.62-.24-33.58-14.66-33.58-32.38v-136.78c0-18.22,15.63-32.93,34.78-32.74l1043.92,10.62c20.59.21,37.16,16.15,37.16,35.74v135.66c0,18.49-15.89,33.41-35.32,33.16Z" style="fill:#fff; opacity:.4; stroke-width:0px;"/><path d="M1597.52,417.06h1127.66c30.75,0,55.52,31.38,54.96,69.63l-15.87,1088.55c-.75,51.23-34.61,92.09-103.92,91.45l-1049.8-16.39c-36.48-.57-67.04-29.15-68.46-65.6-.05-1.16-.07-2.32-.07-3.49l.52-1095.79c.02-37.76,24.62-68.35,54.97-68.35Z" style="fill:#7d97f4; stroke-width:0px;"/><path d="M1622.39,446.54h1082.82c29.52,0,53.31,29.82,52.77,66.16l-15.23,1034.27c-.72,48.68-33.23,87.5-72.77,86.89l-1048.75-16.2c-28.9-.45-52.14-29.43-52.12-65.02l.5-1041.16c.02-35.87,23.64-64.94,52.78-64.94Z" style="fill:#bdd0fb; stroke-width:0px;"/><path d="M2652.03,655.69h-991.43c-12.14,0-21.98-9.84-21.98-21.98v-53.48c0-12.74,10.32-23.06,23.06-23.06h986.46c12.43,0,22.5,10.07,22.5,22.5v57.42c0,10.27-8.33,18.6-18.6,18.6Z" style="fill:#7d97f4; stroke-width:0px;"/><path d="M2587.08,625.71h-378.24c-6.24,2.34-11.29-3.25-11.29-10.16v-18.53c0-6.9,5.06-12.5,11.29-12.5h378.24c6.24,0,11.29,5.6,11.29,12.5v18.53c0,6.9-5.06,12.5-11.29,10.16Z" style="fill:#fff; opacity:.27; stroke-width:0px;"/><path d="M2380.35,1145.31c0,25.94-21,46.98-46.94,47.03l-658.72,1.36c-17.22,0-31.17-14.28-31.17-31.89v-349.95c0-17.8,14.25-32.16,31.66-31.88l674.48,10.73c17.03.27,30.69,14.47,30.69,31.88v322.71Z" style="fill:#7d97f4; stroke-width:0px;"/><path d="M2296.03,1576.09l-281.84-2.34c-9.52-.08-17.18-7.86-17.1-17.39l2.35-282.28c.08-9.35,7.59-16.94,16.94-17.1l278.32,5.28c11.79.22,21.2,9.9,21.1,21.69l-2.37,275.04c-.08,9.52-7.86,17.18-17.39,17.1Z" style="fill:#91b3fa; stroke-width:0px;"/><path d="M1937.56,1576.09l-281.84-2.34c-9.52-.08-17.18-7.86-17.1-17.39l2.35-282.28c.08-9.35,7.59-16.94,16.94-17.1l278.32,5.28c11.79.22,21.2,9.9,21.1,21.69l-2.37,275.04c-.08,9.52-7.86,17.18-17.39,17.1Z" style="fill:#91b3fa; stroke-width:0px;"/><path d="M2650.87,1582.77l-281.84-2.34c-9.52-.08-17.18-7.86-17.1-17.39l2.35-282.28c.08-9.35,7.59-16.94,16.94-17.1l278.32,5.28c11.79.22,21.2,9.9,21.09,21.69l-2.37,275.04c-.08,9.52-7.86,17.18-17.39,17.1Z" style="fill:#91b3fa; stroke-width:0px;"/><path d="M2646.93,1209.44h-203.78c-13.09,0-23.69-10.68-23.69-23.85v-372.33c0-11.07,8.6-20.06,19.25-20.12l209.25-1.18c12.67.56,22.66,11.06,22.66,23.83v369.79c0,13.17-10.61,23.85-23.69,23.85Z" style="fill:#91b3fa; stroke-width:0px;"/><path d="M1875.28,535.92c-18.27,0-33.14-14.87-33.14-33.14s14.87-33.14,33.14-33.14,33.14,14.86,33.14,33.14-14.87,33.14-33.14,33.14ZM1875.28,476.4c-14.55,0-26.39,11.84-26.39,26.39s11.84,26.39,26.39,26.39,26.39-11.84,26.39-26.39-11.84-26.39-26.39-26.39Z" style="fill:#fff; stroke-width:0px;"/><path d="M1772.27,538.34c-18.27,0-33.14-14.86-33.14-33.14s14.87-33.14,33.14-33.14,33.14,14.86,33.14,33.14-14.87,33.14-33.14,33.14ZM1772.27,478.81c-14.55,0-26.39,11.84-26.39,26.39s11.84,26.39,26.39,26.39,26.39-11.84,26.39-26.39-11.84-26.39-26.39-26.39Z" style="fill:#fff; stroke-width:0px;"/><path d="M1673.29,538.34c-18.27,0-33.14-14.86-33.14-33.14s14.87-33.14,33.14-33.14,33.14,14.86,33.14,33.14-14.87,33.14-33.14,33.14ZM1673.29,478.81c-14.55,0-26.39,11.84-26.39,26.39s11.84,26.39,26.39,26.39,26.39-11.84,26.39-26.39-11.84-26.39-26.39-26.39Z" style="fill:#fff; stroke-width:0px;"/><path d="M2027.26,1056.13c-43.84,0-79.44-35.6-79.44-79.36s35.6-79.45,79.36-79.45,79.45,35.6,79.45,79.36v.08c0,43.76-35.6,79.36-79.36,79.36ZM2027.26,902.01c-41.26,0-74.76,33.5-74.76,74.67s33.5,74.76,74.67,74.76,74.76-33.5,74.76-74.67v-.08c0-41.17-33.5-74.67-74.67-74.67Z" style="fill:#fff; stroke-width:0px;"/><path d="M2005.33,1016.61c-2.22,0-4.05-1.77-4.11-4l-1.88-70.1c-.06-2.31,1.06-4.45,2.99-5.71,1.93-1.27,4.34-1.44,6.43-.46l69.25,32.39c2.28,1.07,3.75,3.3,3.81,5.82.07,2.52-1.28,4.83-3.5,6.01l-61.13,32.59c-2.01,1.07-4.49.31-5.56-1.69-1.07-2-.31-4.49,1.69-5.56l58.3-31.08-64-29.93,1.81,67.51c.06,2.27-1.73,4.16-4,4.22-.04,0-.08,0-.11,0Z" style="fill:#fff; stroke-width:0px;"/><path d="M1126.55,461.75c107.29-163.79,327.26-223.47,463.39-198.64l27.31,63.71c-138.84,22.25-236.46,47.33-309.3,167.89-3.95,6.54-11.48,10.02-19.01,8.73l-155.83-26.72c-6.92-1.19-10.41-9.1-6.56-14.97Z" style="fill:url(#uuid-1437bf1c-97b1-40b6-8126-0cffa15f714c); stroke-width:0px;"/><path d="M1557.09,171.4l187.24,83.11c12.85,5.7,13.59,23.66,1.25,30.4l-164.07,89.62c-5.23,2.33-11.24-1.03-11.99-6.71l-25.06-189.49c-.92-6.99,7.22-11.46,12.63-6.93Z" style="fill:url(#uuid-fdfc50df-ddba-4dbb-b93c-da7ab27b7ba4); stroke-width:0px;"/><rect x="650.06" y="2354.42" width="33.21" height="359.18" transform="translate(1333.34 5068.02) rotate(180)" style="fill:#91b3fa; stroke-width:0px;"/><path d="M521.22,2698.9h290.9v19.57c0,1.13-.92,2.05-2.05,2.05h-286.95c-1.05,0-1.9-.85-1.9-1.9v-19.72h0Z" transform="translate(1333.34 5419.43) rotate(180)" style="fill:#91b3fa; stroke-width:0px;"/><rect x="466.21" y="2268.89" width="388.7" height="110.24" rx="37.96" ry="37.96" style="fill:#91b3fa; stroke-width:0px;"/><path d="M851.66,2649.97s94.84,68.36,78.37,114.29c0,0-103.77-44.77-116.31-80.04-12.54-35.27,2.12-50.84,2.12-50.84l35.81,16.6Z" style="fill:url(#uuid-0d162289-f1f4-4c7b-852d-8f516e416260); stroke-width:0px;"/><path d="M837.41,2592.68l-15.51,44.83c-2.34,6.77,0,14.47,6.05,18.29,3.03,1.91,7.17,3.69,12.83,4.97,7.99,1.81,16.24-1.88,20.08-9.11l18.55-34.93-42.01-24.05Z" style="fill:url(#uuid-550ea40e-c02f-4869-8f62-7c6596b7a23b); stroke-width:0px;"/><path d="M686.49,2189.15s194.8,33.76,278.36,110.95c83.56,77.19-76.7,323.43-76.7,323.43,0,0-26.26-.16-58.08-27.44,0,0,95.02-185.19,13.13-239.2-92.07-60.72-198.17-74.39-198.17-74.39l39.57-87.41,1.88-5.95Z" style="fill:url(#uuid-5f7dc029-341f-4c84-a8f9-3c424704d202); stroke-width:0px;"/><path d="M913.55,2738.86c-20.86-9.66-79.92-50.99-89.87-52.82-9.95-1.82-27.22,9.87-27.22,9.87,0,0-4.2,7.55.29,20.73,13.86,16.77,44.64,48.75,86.01,60.66,30.44,8.76,51.72.59,64.98-8.97-7.29-11.11-20.3-23.05-34.2-29.48Z" style="fill:url(#uuid-6c53cf42-ec31-4aeb-9f2a-847d0f63e626); stroke-width:0px;"/><path d="M882.77,2777.3c-41.38-11.91-72.15-43.89-86.01-60.66,3.04,8.9,10.04,20.37,24.99,33.81,37.1,33.34,107.95,45.36,123.03,43.04,12.09-1.86,10.95-13.01,2.97-25.17-13.26,9.56-34.55,17.73-64.98,8.97Z" style="fill:url(#uuid-e8cd90f6-03dd-450f-8be6-ddac68581b36); stroke-width:0px;"/><path d="M778.77,2666.74c.23,5.75,11.98,25.46,18.85,36.52,3.26,5.26,8.98,8.47,15.16,8.48,3.92.01,8.43-.33,12.53-1.51,6.15-1.76,9.6-8.31,7.8-14.45l-13.42-45.81-40.93,16.77Z" style="fill:url(#uuid-a553d0d5-552e-4949-9b39-820349c0223d); stroke-width:0px;"/><path d="M498.98,2130.68s-43.26,115.68,0,150.86c43.26,35.18,146.47,74.78,169.52,144.85,23.05,70.07,62.18,206.24,114.54,254.47,0,0,36.79-3.56,50.55-18.22,0,0-29.82-203.29-49.49-255.45-17.03-45.17-42.12-110.37-90.21-146.81-13.77-10.43-11.37-26.96-4.99-43.01l11.62-29.23-201.55-57.46Z" style="fill:url(#uuid-626638a3-0aba-418b-bcbf-d4b181c87026); stroke-width:0px;"/><path d="M950.18,2040.01c-72.54,4.37-49.94-111.51-48.63-116.12l-110.09,77.76s5.83,61.97,97.36,94.48c23.16,8.22,44.32,8.59,63.04,4.57-7.98-23.27-6.36-44.15-1.68-60.69Z" style="fill:url(#uuid-28914959-efe9-40d6-bb76-22d838440377); stroke-width:0px;"/><path d="M1090.43,2005.13c-27.03-18.8-57.65,0-57.65,0-36.14,23.64-62.88,33.69-82.61,34.88-4.68,16.53-6.3,37.42,1.68,60.69,40.49-8.7,69.46-38.01,82.04-53.04,4.53-5.41,12.56-6.35,18.1-1.98,5.63,4.44,11.09,10.53,10.1,16.93-1.95,12.63,12.7,16.65,13.81,12.07,1.11-4.58-5.01-31.74-5.01-31.74,0,0,29.32,29.48,40.76,40.81,11.44,11.33,25.83,0,25.83,0,0,0-20.02-59.81-47.05-78.61Z" style="fill:url(#uuid-3860ae68-7fa9-44ef-9282-631b53e1aea4); stroke-width:0px;"/><path d="M611.94,1744.92s105.53-42.25,301.93,119.89c0,0,16.4,33.96-1.49,64.18-17.9,30.22-188.41,177.49-211.85,259.15,0,0-101.59,33.01-206.64-45.27,0,0,9.27-227.29,118.06-397.96Z" style="fill:url(#uuid-5ec7a3c7-a3e2-47ec-8d33-0bd9e96bd23c); stroke-width:0px;"/><path d="M820.56,1707.21l-51.95,62.98c-5.16,6.25-6.29,14.95-2.73,22.23,7.21,14.71,24.32,36.12,62.26,33.16,11.29-.88,21.28-7.69,26.21-17.88l36.32-75.09-70.13-25.39Z" style="fill:url(#uuid-9b1d4fd7-58fc-4c1a-92f5-32b181026eee); stroke-width:0px;"/><path d="M530.24,2014.64c-12.25-49.89,111.84-161.12,111.84-161.12l-30.14-108.6s-267.95,178.38-199.67,321.82c9.79,20.56,22.79,34.97,37.86,44.6,21.58-58.08,55.96-84.71,80.1-96.7Z" style="fill:url(#uuid-9f798fdc-2180-494d-9b08-bf71216314b5); stroke-width:0px;"/><path d="M530.15,2007.38c-1.32,0-2.52-.89-2.84-2.23-12.53-51.01,107.61-159.41,112.73-164,1.2-1.08,3.05-.98,4.14.23,1.08,1.21.98,3.06-.23,4.14-1.23,1.1-122.65,110.62-110.95,158.24.39,1.57-.58,3.16-2.15,3.55-.23.06-.47.08-.7.08Z" style="fill:url(#uuid-6f7779e2-0521-4bbf-811d-e637ea421a1d); stroke-width:0px;"/><path d="M718.19,2010.35s-147.12,57.12-183.04,14.16c-2.44-2.91-4.02-6.23-4.91-9.86-24.14,11.99-58.52,38.62-80.1,96.7,77.38,49.44,209.64-27.51,245.4-50.19,5.88-3.73,12.94-5.04,19.76-3.63,13.79,2.86,37.62,7.07,50.47,5.09,18.8-2.9,45.81,63.42,76.28,42.97,0,0-26.09-115.28-123.87-95.23Z" style="fill:url(#uuid-f4ec3f94-7dd4-4815-89d1-ca2d84d2648d); stroke-width:0px;"/><path d="M946.02,1650.94s-7.63,67.98-22.46,97.42c-14.84,29.44-19.34,51.5-55.64,38.25-36.3-13.25-54.62-45.68-53.32-82.76,0,0,1.62-57.37,17.24-72.26,15.62-14.89,114.19,19.35,114.19,19.35Z" style="fill:url(#uuid-d9cce8d3-dc09-4650-896a-57668e333904); stroke-width:0px;"/><path d="M837.63,1689.91l4.17,2.4s3.11-45.14,21.77-42.64c18.66,2.5,85.49,24.73,110.61,10.94,24.22-13.3,28.34-46.11,15.99-63.06-.78-1.07-2.3-1.29-3.43-.58l-2.87,1.81c-1.97,1.24-4.44-.54-3.89-2.8h0c.53-2.14-1.72-3.97-3.66-2.93-7.6,4.07-24.24,8.23-55.97-2.99-45.03-15.92-81.42-14.94-98.27,12.81-1.07,1.76-3.54,1.64-4.53-.16-1.95-3.56-6.26-7.19-15.8-5.48-16.59,2.96-26.05,29.97-13.09,64.13.62,1.62-.44,3.44-2.17,3.53-6.11.33-16.69,3.4-4.81,22.45,12.15,19.49,23.12,24.44,27.62,25.69,1.21.34,2.47-.22,3.03-1.34l12.81-25.82c.66-1.33,2.31-1.83,3.61-1.09l8.89,5.12Z" style="fill:url(#uuid-7a5f56b1-7b0a-4285-9aed-081a6224aa08); stroke-width:0px;"/><path d="M835.65,1695.71s10.96-39.92-10.21-39.14c-21.17.77-14.32,43.55-2.55,52.06l12.76-12.91Z" style="fill:url(#uuid-c89f538d-1047-4f5e-a2f5-c0595f1d82bc); stroke-width:0px;"/><path d="M793.56,2122.99c.24.01.47.02.71.02l308.69-.34c7.63,0,13.81-6.2,13.8-13.83,0-7.63-6.22-13.94-13.83-13.8l-308.69.34c-7.63,0-13.81,6.2-13.8,13.83,0,7.39,5.82,13.43,13.12,13.79Z" style="fill:url(#uuid-d04772c1-316f-4686-8a20-dba948254c98); stroke-width:0px;"/><path d="M1380.45,1842.72h-257.08c-18.96,0-36.23,10.94-44.32,28.1l-118.85,252.01h319.48c12.22,0,23.2-7.47,27.69-18.83l92.16-233.19c5.33-13.47-4.61-28.08-19.09-28.08Z" style="fill:url(#uuid-e2c1f37a-5c9f-4c6c-9c69-43514c7085d3); stroke-width:0px;"/><ellipse cx="1218.62" cy="1978.14" rx="32.92" ry="20.25" transform="translate(-1037.75 2532.07) rotate(-72.16)" style="fill:url(#uuid-149341e5-d7b4-42fb-b587-79b2afe4a468); stroke-width:0px;"/><path d="M1338.77,2785.06c1.71,0,3.45-.33,5.12-1.03,6.58-2.74,9.62-10.13,6.79-16.5l-272.05-612.27c-2.83-6.37-10.45-9.31-17.04-6.57-6.58,2.74-9.62,10.13-6.79,16.5l272.05,612.27c2.11,4.75,6.9,7.6,11.92,7.6Z" style="fill:#7d97f4; stroke-width:0px;"/><path d="M1032.3,2785.06c5.03,0,9.81-2.85,11.92-7.6l272.05-612.27c2.83-6.37-.21-13.76-6.79-16.5-6.58-2.74-14.21.2-17.04,6.57l-272.05,612.27c-2.83,6.37.21,13.76,6.79,16.5,1.67.69,3.41,1.03,5.12,1.03Z" style="fill:#7d97f4; stroke-width:0px;"/><path d="M496.66,2785.06c1.71,0,3.45-.33,5.12-1.03,6.58-2.74,9.62-10.13,6.79-16.5l-272.05-612.27c-2.83-6.37-10.45-9.31-17.04-6.57-6.58,2.74-9.62,10.13-6.79,16.5l272.05,612.27c2.11,4.75,6.9,7.6,11.92,7.6Z" style="fill:#7d97f4; stroke-width:0px;"/><path d="M190.19,2785.06c5.03,0,9.81-2.85,11.92-7.6l272.05-612.27c2.83-6.37-.21-13.76-6.79-16.5-6.58-2.74-14.21.2-17.04,6.57l-272.05,612.27c-2.83,6.37.21,13.76,6.79,16.5,1.67.69,3.41,1.03,5.12,1.03Z" style="fill:#7d97f4; stroke-width:0px;"/><path d="M158.28,2136.36c-.69-4.02.25-8.17,2.58-11.32,2.33-3.16,5.79-4.98,9.44-4.98h1237.63c4.81,0,9.28,2.74,11.87,7.27,2.59,4.53,2.94,10.23.92,15.11l-13.41,32.5c-3.07,7.44-9.73,12.21-17.05,12.21H178.79c-6.81,0-12.67-5.41-13.96-12.9l-6.55-37.89Z" style="fill:#7d97f4; stroke-width:0px;"/></svg>